<?xml version="1.0" encoding="utf-8" standalone="no"?>
<!DOCTYPE svg PUBLIC "-//W3C//DTD SVG 1.1//EN"
  "http://www.w3.org/Graphics/SVG/1.1/DTD/svg11.dtd">
<svg xmlns:xlink="http://www.w3.org/1999/xlink" width="679.23125pt" height="416.10875pt" viewBox="0 0 679.23125 416.10875" xmlns="http://www.w3.org/2000/svg" version="1.1">
 <metadata>
  <rdf:RDF xmlns:dc="http://purl.org/dc/elements/1.1/" xmlns:cc="http://creativecommons.org/ns#" xmlns:rdf="http://www.w3.org/1999/02/22-rdf-syntax-ns#">
   <cc:Work>
    <dc:type rdf:resource="http://purl.org/dc/dcmitype/StillImage"/>
    <dc:date>2025-05-10T12:58:37.791502</dc:date>
    <dc:format>image/svg+xml</dc:format>
    <dc:creator>
     <cc:Agent>
      <dc:title>Matplotlib v3.10.1, https://matplotlib.org/</dc:title>
     </cc:Agent>
    </dc:creator>
   </cc:Work>
  </rdf:RDF>
 </metadata>
 <defs>
  <style type="text/css">*{stroke-linejoin: round; stroke-linecap: butt}</style>
 </defs>
 <g id="figure_1">
  <g id="patch_1">
   <path d="M 0 416.10875 
L 679.23125 416.10875 
L 679.23125 0 
L 0 0 
z
" style="fill: #ffffff"/>
  </g>
  <g id="axes_1">
   <g id="patch_2">
    <path d="M 114.03125 339.84 
L 672.03125 339.84 
L 672.03125 7.2 
L 114.03125 7.2 
z
" style="fill: #ffffff"/>
   </g>
   <g id="PathCollection_1">
    <defs>
     <path id="m27103fa46c" d="M 0 5 
C 1.326016 5 2.597899 4.473168 3.535534 3.535534 
C 4.473168 2.597899 5 1.326016 5 0 
C 5 -1.326016 4.473168 -2.597899 3.535534 -3.535534 
C 2.597899 -4.473168 1.326016 -5 0 -5 
C -1.326016 -5 -2.597899 -4.473168 -3.535534 -3.535534 
C -4.473168 -2.597899 -5 -1.326016 -5 0 
C -5 1.326016 -4.473168 2.597899 -3.535534 3.535534 
C -2.597899 4.473168 -1.326016 5 0 5 
z
" style="stroke: #2e8b57; stroke-opacity: 0.8"/>
    </defs>
    <g clip-path="url(#p327e86427d)">
     <use xlink:href="#m27103fa46c" x="160.53125" y="312.12" style="fill: #2e8b57; fill-opacity: 0.8; stroke: #2e8b57; stroke-opacity: 0.8"/>
     <use xlink:href="#m27103fa46c" x="170.021046" y="309.291429" style="fill: #2e8b57; fill-opacity: 0.8; stroke: #2e8b57; stroke-opacity: 0.8"/>
     <use xlink:href="#m27103fa46c" x="179.510841" y="306.462857" style="fill: #2e8b57; fill-opacity: 0.8; stroke: #2e8b57; stroke-opacity: 0.8"/>
     <use xlink:href="#m27103fa46c" x="189.000638" y="303.634286" style="fill: #2e8b57; fill-opacity: 0.8; stroke: #2e8b57; stroke-opacity: 0.8"/>
     <use xlink:href="#m27103fa46c" x="198.490433" y="300.805715" style="fill: #2e8b57; fill-opacity: 0.8; stroke: #2e8b57; stroke-opacity: 0.8"/>
     <use xlink:href="#m27103fa46c" x="207.980228" y="297.977143" style="fill: #2e8b57; fill-opacity: 0.8; stroke: #2e8b57; stroke-opacity: 0.8"/>
     <use xlink:href="#m27103fa46c" x="217.470026" y="295.148571" style="fill: #2e8b57; fill-opacity: 0.8; stroke: #2e8b57; stroke-opacity: 0.8"/>
     <use xlink:href="#m27103fa46c" x="226.959817" y="292.320001" style="fill: #2e8b57; fill-opacity: 0.8; stroke: #2e8b57; stroke-opacity: 0.8"/>
     <use xlink:href="#m27103fa46c" x="236.449616" y="289.491429" style="fill: #2e8b57; fill-opacity: 0.8; stroke: #2e8b57; stroke-opacity: 0.8"/>
     <use xlink:href="#m27103fa46c" x="245.939414" y="286.662857" style="fill: #2e8b57; fill-opacity: 0.8; stroke: #2e8b57; stroke-opacity: 0.8"/>
     <use xlink:href="#m27103fa46c" x="255.429206" y="283.834287" style="fill: #2e8b57; fill-opacity: 0.8; stroke: #2e8b57; stroke-opacity: 0.8"/>
     <use xlink:href="#m27103fa46c" x="264.919004" y="281.005715" style="fill: #2e8b57; fill-opacity: 0.8; stroke: #2e8b57; stroke-opacity: 0.8"/>
     <use xlink:href="#m27103fa46c" x="274.408802" y="278.177143" style="fill: #2e8b57; fill-opacity: 0.8; stroke: #2e8b57; stroke-opacity: 0.8"/>
     <use xlink:href="#m27103fa46c" x="283.898594" y="275.348572" style="fill: #2e8b57; fill-opacity: 0.8; stroke: #2e8b57; stroke-opacity: 0.8"/>
     <use xlink:href="#m27103fa46c" x="293.388385" y="272.520002" style="fill: #2e8b57; fill-opacity: 0.8; stroke: #2e8b57; stroke-opacity: 0.8"/>
     <use xlink:href="#m27103fa46c" x="302.87819" y="269.691428" style="fill: #2e8b57; fill-opacity: 0.8; stroke: #2e8b57; stroke-opacity: 0.8"/>
     <use xlink:href="#m27103fa46c" x="312.367982" y="266.862858" style="fill: #2e8b57; fill-opacity: 0.8; stroke: #2e8b57; stroke-opacity: 0.8"/>
     <use xlink:href="#m27103fa46c" x="321.857773" y="264.034288" style="fill: #2e8b57; fill-opacity: 0.8; stroke: #2e8b57; stroke-opacity: 0.8"/>
     <use xlink:href="#m27103fa46c" x="331.347578" y="261.205714" style="fill: #2e8b57; fill-opacity: 0.8; stroke: #2e8b57; stroke-opacity: 0.8"/>
     <use xlink:href="#m27103fa46c" x="340.83737" y="258.377144" style="fill: #2e8b57; fill-opacity: 0.8; stroke: #2e8b57; stroke-opacity: 0.8"/>
     <use xlink:href="#m27103fa46c" x="350.327161" y="255.548574" style="fill: #2e8b57; fill-opacity: 0.8; stroke: #2e8b57; stroke-opacity: 0.8"/>
     <use xlink:href="#m27103fa46c" x="359.816966" y="252.719999" style="fill: #2e8b57; fill-opacity: 0.8; stroke: #2e8b57; stroke-opacity: 0.8"/>
     <use xlink:href="#m27103fa46c" x="369.306758" y="249.891429" style="fill: #2e8b57; fill-opacity: 0.8; stroke: #2e8b57; stroke-opacity: 0.8"/>
     <use xlink:href="#m27103fa46c" x="378.796549" y="247.062859" style="fill: #2e8b57; fill-opacity: 0.8; stroke: #2e8b57; stroke-opacity: 0.8"/>
     <use xlink:href="#m27103fa46c" x="388.286354" y="244.234285" style="fill: #2e8b57; fill-opacity: 0.8; stroke: #2e8b57; stroke-opacity: 0.8"/>
     <use xlink:href="#m27103fa46c" x="397.776146" y="241.405715" style="fill: #2e8b57; fill-opacity: 0.8; stroke: #2e8b57; stroke-opacity: 0.8"/>
     <use xlink:href="#m27103fa46c" x="407.265937" y="238.577145" style="fill: #2e8b57; fill-opacity: 0.8; stroke: #2e8b57; stroke-opacity: 0.8"/>
     <use xlink:href="#m27103fa46c" x="416.755728" y="235.748575" style="fill: #2e8b57; fill-opacity: 0.8; stroke: #2e8b57; stroke-opacity: 0.8"/>
     <use xlink:href="#m27103fa46c" x="426.24552" y="232.920005" style="fill: #2e8b57; fill-opacity: 0.8; stroke: #2e8b57; stroke-opacity: 0.8"/>
     <use xlink:href="#m27103fa46c" x="435.735339" y="230.091426" style="fill: #2e8b57; fill-opacity: 0.8; stroke: #2e8b57; stroke-opacity: 0.8"/>
     <use xlink:href="#m27103fa46c" x="445.22513" y="227.262856" style="fill: #2e8b57; fill-opacity: 0.8; stroke: #2e8b57; stroke-opacity: 0.8"/>
     <use xlink:href="#m27103fa46c" x="454.714922" y="224.434286" style="fill: #2e8b57; fill-opacity: 0.8; stroke: #2e8b57; stroke-opacity: 0.8"/>
     <use xlink:href="#m27103fa46c" x="464.204741" y="221.605708" style="fill: #2e8b57; fill-opacity: 0.8; stroke: #2e8b57; stroke-opacity: 0.8"/>
     <use xlink:href="#m27103fa46c" x="473.694532" y="218.777138" style="fill: #2e8b57; fill-opacity: 0.8; stroke: #2e8b57; stroke-opacity: 0.8"/>
     <use xlink:href="#m27103fa46c" x="483.184324" y="215.948568" style="fill: #2e8b57; fill-opacity: 0.8; stroke: #2e8b57; stroke-opacity: 0.8"/>
     <use xlink:href="#m27103fa46c" x="492.674115" y="213.119998" style="fill: #2e8b57; fill-opacity: 0.8; stroke: #2e8b57; stroke-opacity: 0.8"/>
     <use xlink:href="#m27103fa46c" x="502.163906" y="210.291428" style="fill: #2e8b57; fill-opacity: 0.8; stroke: #2e8b57; stroke-opacity: 0.8"/>
     <use xlink:href="#m27103fa46c" x="511.653698" y="207.462857" style="fill: #2e8b57; fill-opacity: 0.8; stroke: #2e8b57; stroke-opacity: 0.8"/>
     <use xlink:href="#m27103fa46c" x="521.143489" y="204.634287" style="fill: #2e8b57; fill-opacity: 0.8; stroke: #2e8b57; stroke-opacity: 0.8"/>
     <use xlink:href="#m27103fa46c" x="530.633281" y="201.805717" style="fill: #2e8b57; fill-opacity: 0.8; stroke: #2e8b57; stroke-opacity: 0.8"/>
     <use xlink:href="#m27103fa46c" x="540.123072" y="198.977147" style="fill: #2e8b57; fill-opacity: 0.8; stroke: #2e8b57; stroke-opacity: 0.8"/>
     <use xlink:href="#m27103fa46c" x="549.612891" y="196.148569" style="fill: #2e8b57; fill-opacity: 0.8; stroke: #2e8b57; stroke-opacity: 0.8"/>
     <use xlink:href="#m27103fa46c" x="559.102683" y="193.319999" style="fill: #2e8b57; fill-opacity: 0.8; stroke: #2e8b57; stroke-opacity: 0.8"/>
     <use xlink:href="#m27103fa46c" x="568.592474" y="190.491429" style="fill: #2e8b57; fill-opacity: 0.8; stroke: #2e8b57; stroke-opacity: 0.8"/>
     <use xlink:href="#m27103fa46c" x="578.082265" y="187.662859" style="fill: #2e8b57; fill-opacity: 0.8; stroke: #2e8b57; stroke-opacity: 0.8"/>
     <use xlink:href="#m27103fa46c" x="587.572057" y="184.834289" style="fill: #2e8b57; fill-opacity: 0.8; stroke: #2e8b57; stroke-opacity: 0.8"/>
     <use xlink:href="#m27103fa46c" x="597.061876" y="182.00571" style="fill: #2e8b57; fill-opacity: 0.8; stroke: #2e8b57; stroke-opacity: 0.8"/>
     <use xlink:href="#m27103fa46c" x="606.551667" y="179.17714" style="fill: #2e8b57; fill-opacity: 0.8; stroke: #2e8b57; stroke-opacity: 0.8"/>
     <use xlink:href="#m27103fa46c" x="616.041459" y="176.34857" style="fill: #2e8b57; fill-opacity: 0.8; stroke: #2e8b57; stroke-opacity: 0.8"/>
     <use xlink:href="#m27103fa46c" x="625.53125" y="173.52" style="fill: #2e8b57; fill-opacity: 0.8; stroke: #2e8b57; stroke-opacity: 0.8"/>
    </g>
   </g>
   <g id="PathCollection_2">
    <defs>
     <path id="m923716c957" d="M 0 -5 
L -5 5 
L 5 5 
z
" style="stroke: #4169e1; stroke-opacity: 0.8"/>
    </defs>
    <g clip-path="url(#p327e86427d)">
     <use xlink:href="#m923716c957" x="160.53125" y="312.12" style="fill: #4169e1; fill-opacity: 0.8; stroke: #4169e1; stroke-opacity: 0.8"/>
     <use xlink:href="#m923716c957" x="170.021046" y="306.462857" style="fill: #4169e1; fill-opacity: 0.8; stroke: #4169e1; stroke-opacity: 0.8"/>
     <use xlink:href="#m923716c957" x="179.510841" y="300.805715" style="fill: #4169e1; fill-opacity: 0.8; stroke: #4169e1; stroke-opacity: 0.8"/>
     <use xlink:href="#m923716c957" x="189.000638" y="295.148571" style="fill: #4169e1; fill-opacity: 0.8; stroke: #4169e1; stroke-opacity: 0.8"/>
     <use xlink:href="#m923716c957" x="198.490433" y="289.491429" style="fill: #4169e1; fill-opacity: 0.8; stroke: #4169e1; stroke-opacity: 0.8"/>
     <use xlink:href="#m923716c957" x="207.980228" y="283.834287" style="fill: #4169e1; fill-opacity: 0.8; stroke: #4169e1; stroke-opacity: 0.8"/>
     <use xlink:href="#m923716c957" x="217.470026" y="278.177143" style="fill: #4169e1; fill-opacity: 0.8; stroke: #4169e1; stroke-opacity: 0.8"/>
     <use xlink:href="#m923716c957" x="226.959817" y="272.520002" style="fill: #4169e1; fill-opacity: 0.8; stroke: #4169e1; stroke-opacity: 0.8"/>
     <use xlink:href="#m923716c957" x="236.449616" y="266.862858" style="fill: #4169e1; fill-opacity: 0.8; stroke: #4169e1; stroke-opacity: 0.8"/>
     <use xlink:href="#m923716c957" x="245.939414" y="261.205714" style="fill: #4169e1; fill-opacity: 0.8; stroke: #4169e1; stroke-opacity: 0.8"/>
     <use xlink:href="#m923716c957" x="255.429206" y="255.548574" style="fill: #4169e1; fill-opacity: 0.8; stroke: #4169e1; stroke-opacity: 0.8"/>
     <use xlink:href="#m923716c957" x="264.919004" y="249.891429" style="fill: #4169e1; fill-opacity: 0.8; stroke: #4169e1; stroke-opacity: 0.8"/>
     <use xlink:href="#m923716c957" x="274.408802" y="244.234285" style="fill: #4169e1; fill-opacity: 0.8; stroke: #4169e1; stroke-opacity: 0.8"/>
     <use xlink:href="#m923716c957" x="283.898594" y="238.577145" style="fill: #4169e1; fill-opacity: 0.8; stroke: #4169e1; stroke-opacity: 0.8"/>
     <use xlink:href="#m923716c957" x="293.388385" y="232.920005" style="fill: #4169e1; fill-opacity: 0.8; stroke: #4169e1; stroke-opacity: 0.8"/>
     <use xlink:href="#m923716c957" x="302.87819" y="227.262856" style="fill: #4169e1; fill-opacity: 0.8; stroke: #4169e1; stroke-opacity: 0.8"/>
     <use xlink:href="#m923716c957" x="312.367982" y="221.605716" style="fill: #4169e1; fill-opacity: 0.8; stroke: #4169e1; stroke-opacity: 0.8"/>
     <use xlink:href="#m923716c957" x="321.857773" y="215.948576" style="fill: #4169e1; fill-opacity: 0.8; stroke: #4169e1; stroke-opacity: 0.8"/>
     <use xlink:href="#m923716c957" x="331.347578" y="210.291428" style="fill: #4169e1; fill-opacity: 0.8; stroke: #4169e1; stroke-opacity: 0.8"/>
     <use xlink:href="#m923716c957" x="340.83737" y="204.634287" style="fill: #4169e1; fill-opacity: 0.8; stroke: #4169e1; stroke-opacity: 0.8"/>
     <use xlink:href="#m923716c957" x="350.327161" y="198.977147" style="fill: #4169e1; fill-opacity: 0.8; stroke: #4169e1; stroke-opacity: 0.8"/>
     <use xlink:href="#m923716c957" x="359.816966" y="193.319999" style="fill: #4169e1; fill-opacity: 0.8; stroke: #4169e1; stroke-opacity: 0.8"/>
     <use xlink:href="#m923716c957" x="369.306758" y="187.662859" style="fill: #4169e1; fill-opacity: 0.8; stroke: #4169e1; stroke-opacity: 0.8"/>
     <use xlink:href="#m923716c957" x="378.796549" y="182.005719" style="fill: #4169e1; fill-opacity: 0.8; stroke: #4169e1; stroke-opacity: 0.8"/>
     <use xlink:href="#m923716c957" x="388.286354" y="176.34857" style="fill: #4169e1; fill-opacity: 0.8; stroke: #4169e1; stroke-opacity: 0.8"/>
     <use xlink:href="#m923716c957" x="397.776146" y="170.69143" style="fill: #4169e1; fill-opacity: 0.8; stroke: #4169e1; stroke-opacity: 0.8"/>
     <use xlink:href="#m923716c957" x="407.265937" y="165.03429" style="fill: #4169e1; fill-opacity: 0.8; stroke: #4169e1; stroke-opacity: 0.8"/>
     <use xlink:href="#m923716c957" x="416.755728" y="159.37715" style="fill: #4169e1; fill-opacity: 0.8; stroke: #4169e1; stroke-opacity: 0.8"/>
     <use xlink:href="#m923716c957" x="426.24552" y="153.720009" style="fill: #4169e1; fill-opacity: 0.8; stroke: #4169e1; stroke-opacity: 0.8"/>
     <use xlink:href="#m923716c957" x="435.735339" y="148.062853" style="fill: #4169e1; fill-opacity: 0.8; stroke: #4169e1; stroke-opacity: 0.8"/>
     <use xlink:href="#m923716c957" x="445.22513" y="142.405713" style="fill: #4169e1; fill-opacity: 0.8; stroke: #4169e1; stroke-opacity: 0.8"/>
     <use xlink:href="#m923716c957" x="454.714922" y="136.748572" style="fill: #4169e1; fill-opacity: 0.8; stroke: #4169e1; stroke-opacity: 0.8"/>
     <use xlink:href="#m923716c957" x="464.204741" y="131.091416" style="fill: #4169e1; fill-opacity: 0.8; stroke: #4169e1; stroke-opacity: 0.8"/>
     <use xlink:href="#m923716c957" x="473.694532" y="125.434276" style="fill: #4169e1; fill-opacity: 0.8; stroke: #4169e1; stroke-opacity: 0.8"/>
     <use xlink:href="#m923716c957" x="483.184324" y="119.777135" style="fill: #4169e1; fill-opacity: 0.8; stroke: #4169e1; stroke-opacity: 0.8"/>
     <use xlink:href="#m923716c957" x="492.674115" y="114.119995" style="fill: #4169e1; fill-opacity: 0.8; stroke: #4169e1; stroke-opacity: 0.8"/>
     <use xlink:href="#m923716c957" x="502.163906" y="108.462855" style="fill: #4169e1; fill-opacity: 0.8; stroke: #4169e1; stroke-opacity: 0.8"/>
     <use xlink:href="#m923716c957" x="511.653698" y="102.805715" style="fill: #4169e1; fill-opacity: 0.8; stroke: #4169e1; stroke-opacity: 0.8"/>
     <use xlink:href="#m923716c957" x="521.143489" y="97.148575" style="fill: #4169e1; fill-opacity: 0.8; stroke: #4169e1; stroke-opacity: 0.8"/>
     <use xlink:href="#m923716c957" x="530.633281" y="91.491435" style="fill: #4169e1; fill-opacity: 0.8; stroke: #4169e1; stroke-opacity: 0.8"/>
     <use xlink:href="#m923716c957" x="540.123072" y="85.834294" style="fill: #4169e1; fill-opacity: 0.8; stroke: #4169e1; stroke-opacity: 0.8"/>
     <use xlink:href="#m923716c957" x="549.612891" y="80.177138" style="fill: #4169e1; fill-opacity: 0.8; stroke: #4169e1; stroke-opacity: 0.8"/>
     <use xlink:href="#m923716c957" x="559.102683" y="74.519998" style="fill: #4169e1; fill-opacity: 0.8; stroke: #4169e1; stroke-opacity: 0.8"/>
     <use xlink:href="#m923716c957" x="568.592474" y="68.862857" style="fill: #4169e1; fill-opacity: 0.8; stroke: #4169e1; stroke-opacity: 0.8"/>
     <use xlink:href="#m923716c957" x="578.082265" y="63.205717" style="fill: #4169e1; fill-opacity: 0.8; stroke: #4169e1; stroke-opacity: 0.8"/>
     <use xlink:href="#m923716c957" x="587.572057" y="57.548577" style="fill: #4169e1; fill-opacity: 0.8; stroke: #4169e1; stroke-opacity: 0.8"/>
     <use xlink:href="#m923716c957" x="597.061876" y="51.89142" style="fill: #4169e1; fill-opacity: 0.8; stroke: #4169e1; stroke-opacity: 0.8"/>
     <use xlink:href="#m923716c957" x="606.551667" y="46.23428" style="fill: #4169e1; fill-opacity: 0.8; stroke: #4169e1; stroke-opacity: 0.8"/>
     <use xlink:href="#m923716c957" x="616.041459" y="40.57714" style="fill: #4169e1; fill-opacity: 0.8; stroke: #4169e1; stroke-opacity: 0.8"/>
     <use xlink:href="#m923716c957" x="625.53125" y="34.92" style="fill: #4169e1; fill-opacity: 0.8; stroke: #4169e1; stroke-opacity: 0.8"/>
    </g>
   </g>
   <g id="PathCollection_3">
    <defs>
     <path id="m78d78cc6a2" d="M -0 5 
L 5 -5 
L -5 -5 
z
" style="stroke: #ee82ee; stroke-opacity: 0.8"/>
    </defs>
    <g clip-path="url(#p327e86427d)">
     <use xlink:href="#m78d78cc6a2" x="160.53125" y="312.12" style="fill: #ee82ee; fill-opacity: 0.8; stroke: #ee82ee; stroke-opacity: 0.8"/>
     <use xlink:href="#m78d78cc6a2" x="170.021046" y="300.805715" style="fill: #ee82ee; fill-opacity: 0.8; stroke: #ee82ee; stroke-opacity: 0.8"/>
     <use xlink:href="#m78d78cc6a2" x="179.510841" y="289.491429" style="fill: #ee82ee; fill-opacity: 0.8; stroke: #ee82ee; stroke-opacity: 0.8"/>
     <use xlink:href="#m78d78cc6a2" x="189.000638" y="278.177143" style="fill: #ee82ee; fill-opacity: 0.8; stroke: #ee82ee; stroke-opacity: 0.8"/>
     <use xlink:href="#m78d78cc6a2" x="198.490433" y="266.862858" style="fill: #ee82ee; fill-opacity: 0.8; stroke: #ee82ee; stroke-opacity: 0.8"/>
     <use xlink:href="#m78d78cc6a2" x="207.980228" y="255.548574" style="fill: #ee82ee; fill-opacity: 0.8; stroke: #ee82ee; stroke-opacity: 0.8"/>
     <use xlink:href="#m78d78cc6a2" x="217.470026" y="244.234285" style="fill: #ee82ee; fill-opacity: 0.8; stroke: #ee82ee; stroke-opacity: 0.8"/>
     <use xlink:href="#m78d78cc6a2" x="226.959817" y="232.920005" style="fill: #ee82ee; fill-opacity: 0.8; stroke: #ee82ee; stroke-opacity: 0.8"/>
     <use xlink:href="#m78d78cc6a2" x="236.449616" y="221.605716" style="fill: #ee82ee; fill-opacity: 0.8; stroke: #ee82ee; stroke-opacity: 0.8"/>
     <use xlink:href="#m78d78cc6a2" x="245.939414" y="210.291428" style="fill: #ee82ee; fill-opacity: 0.8; stroke: #ee82ee; stroke-opacity: 0.8"/>
     <use xlink:href="#m78d78cc6a2" x="255.429206" y="198.977147" style="fill: #ee82ee; fill-opacity: 0.8; stroke: #ee82ee; stroke-opacity: 0.8"/>
     <use xlink:href="#m78d78cc6a2" x="264.919004" y="187.662859" style="fill: #ee82ee; fill-opacity: 0.8; stroke: #ee82ee; stroke-opacity: 0.8"/>
     <use xlink:href="#m78d78cc6a2" x="274.408802" y="176.34857" style="fill: #ee82ee; fill-opacity: 0.8; stroke: #ee82ee; stroke-opacity: 0.8"/>
     <use xlink:href="#m78d78cc6a2" x="283.898594" y="165.03429" style="fill: #ee82ee; fill-opacity: 0.8; stroke: #ee82ee; stroke-opacity: 0.8"/>
     <use xlink:href="#m78d78cc6a2" x="293.388385" y="153.720009" style="fill: #ee82ee; fill-opacity: 0.8; stroke: #ee82ee; stroke-opacity: 0.8"/>
     <use xlink:href="#m78d78cc6a2" x="302.87819" y="142.405713" style="fill: #ee82ee; fill-opacity: 0.8; stroke: #ee82ee; stroke-opacity: 0.8"/>
     <use xlink:href="#m78d78cc6a2" x="312.367982" y="131.091432" style="fill: #ee82ee; fill-opacity: 0.8; stroke: #ee82ee; stroke-opacity: 0.8"/>
     <use xlink:href="#m78d78cc6a2" x="321.857773" y="119.777152" style="fill: #ee82ee; fill-opacity: 0.8; stroke: #ee82ee; stroke-opacity: 0.8"/>
     <use xlink:href="#m78d78cc6a2" x="331.347578" y="108.462855" style="fill: #ee82ee; fill-opacity: 0.8; stroke: #ee82ee; stroke-opacity: 0.8"/>
     <use xlink:href="#m78d78cc6a2" x="340.83737" y="97.148575" style="fill: #ee82ee; fill-opacity: 0.8; stroke: #ee82ee; stroke-opacity: 0.8"/>
     <use xlink:href="#m78d78cc6a2" x="350.327161" y="85.834294" style="fill: #ee82ee; fill-opacity: 0.8; stroke: #ee82ee; stroke-opacity: 0.8"/>
     <use xlink:href="#m78d78cc6a2" x="359.816966" y="74.519998" style="fill: #ee82ee; fill-opacity: 0.8; stroke: #ee82ee; stroke-opacity: 0.8"/>
     <use xlink:href="#m78d78cc6a2" x="369.306758" y="63.205717" style="fill: #ee82ee; fill-opacity: 0.8; stroke: #ee82ee; stroke-opacity: 0.8"/>
     <use xlink:href="#m78d78cc6a2" x="378.796549" y="51.891437" style="fill: #ee82ee; fill-opacity: 0.8; stroke: #ee82ee; stroke-opacity: 0.8"/>
     <use xlink:href="#m78d78cc6a2" x="388.286354" y="40.57714" style="fill: #ee82ee; fill-opacity: 0.8; stroke: #ee82ee; stroke-opacity: 0.8"/>
     <use xlink:href="#m78d78cc6a2" x="397.776146" y="34.92" style="fill: #ee82ee; fill-opacity: 0.8; stroke: #ee82ee; stroke-opacity: 0.8"/>
     <use xlink:href="#m78d78cc6a2" x="407.265937" y="34.92" style="fill: #ee82ee; fill-opacity: 0.8; stroke: #ee82ee; stroke-opacity: 0.8"/>
     <use xlink:href="#m78d78cc6a2" x="416.755728" y="34.92" style="fill: #ee82ee; fill-opacity: 0.8; stroke: #ee82ee; stroke-opacity: 0.8"/>
     <use xlink:href="#m78d78cc6a2" x="426.24552" y="34.92" style="fill: #ee82ee; fill-opacity: 0.8; stroke: #ee82ee; stroke-opacity: 0.8"/>
     <use xlink:href="#m78d78cc6a2" x="435.735339" y="34.92" style="fill: #ee82ee; fill-opacity: 0.8; stroke: #ee82ee; stroke-opacity: 0.8"/>
     <use xlink:href="#m78d78cc6a2" x="445.22513" y="34.92" style="fill: #ee82ee; fill-opacity: 0.8; stroke: #ee82ee; stroke-opacity: 0.8"/>
     <use xlink:href="#m78d78cc6a2" x="454.714922" y="34.92" style="fill: #ee82ee; fill-opacity: 0.8; stroke: #ee82ee; stroke-opacity: 0.8"/>
     <use xlink:href="#m78d78cc6a2" x="464.204741" y="34.92" style="fill: #ee82ee; fill-opacity: 0.8; stroke: #ee82ee; stroke-opacity: 0.8"/>
     <use xlink:href="#m78d78cc6a2" x="473.694532" y="34.92" style="fill: #ee82ee; fill-opacity: 0.8; stroke: #ee82ee; stroke-opacity: 0.8"/>
     <use xlink:href="#m78d78cc6a2" x="483.184324" y="34.92" style="fill: #ee82ee; fill-opacity: 0.8; stroke: #ee82ee; stroke-opacity: 0.8"/>
     <use xlink:href="#m78d78cc6a2" x="492.674115" y="34.92" style="fill: #ee82ee; fill-opacity: 0.8; stroke: #ee82ee; stroke-opacity: 0.8"/>
     <use xlink:href="#m78d78cc6a2" x="502.163906" y="34.92" style="fill: #ee82ee; fill-opacity: 0.8; stroke: #ee82ee; stroke-opacity: 0.8"/>
     <use xlink:href="#m78d78cc6a2" x="511.653698" y="34.92" style="fill: #ee82ee; fill-opacity: 0.8; stroke: #ee82ee; stroke-opacity: 0.8"/>
     <use xlink:href="#m78d78cc6a2" x="521.143489" y="34.92" style="fill: #ee82ee; fill-opacity: 0.8; stroke: #ee82ee; stroke-opacity: 0.8"/>
     <use xlink:href="#m78d78cc6a2" x="530.633281" y="34.92" style="fill: #ee82ee; fill-opacity: 0.8; stroke: #ee82ee; stroke-opacity: 0.8"/>
     <use xlink:href="#m78d78cc6a2" x="540.123072" y="34.92" style="fill: #ee82ee; fill-opacity: 0.8; stroke: #ee82ee; stroke-opacity: 0.8"/>
     <use xlink:href="#m78d78cc6a2" x="549.612891" y="34.92" style="fill: #ee82ee; fill-opacity: 0.8; stroke: #ee82ee; stroke-opacity: 0.8"/>
     <use xlink:href="#m78d78cc6a2" x="559.102683" y="34.92" style="fill: #ee82ee; fill-opacity: 0.8; stroke: #ee82ee; stroke-opacity: 0.8"/>
     <use xlink:href="#m78d78cc6a2" x="568.592474" y="34.92" style="fill: #ee82ee; fill-opacity: 0.8; stroke: #ee82ee; stroke-opacity: 0.8"/>
     <use xlink:href="#m78d78cc6a2" x="578.082265" y="34.92" style="fill: #ee82ee; fill-opacity: 0.8; stroke: #ee82ee; stroke-opacity: 0.8"/>
     <use xlink:href="#m78d78cc6a2" x="587.572057" y="34.92" style="fill: #ee82ee; fill-opacity: 0.8; stroke: #ee82ee; stroke-opacity: 0.8"/>
     <use xlink:href="#m78d78cc6a2" x="597.061876" y="34.92" style="fill: #ee82ee; fill-opacity: 0.8; stroke: #ee82ee; stroke-opacity: 0.8"/>
     <use xlink:href="#m78d78cc6a2" x="606.551667" y="34.92" style="fill: #ee82ee; fill-opacity: 0.8; stroke: #ee82ee; stroke-opacity: 0.8"/>
     <use xlink:href="#m78d78cc6a2" x="616.041459" y="34.92" style="fill: #ee82ee; fill-opacity: 0.8; stroke: #ee82ee; stroke-opacity: 0.8"/>
     <use xlink:href="#m78d78cc6a2" x="625.53125" y="34.92" style="fill: #ee82ee; fill-opacity: 0.8; stroke: #ee82ee; stroke-opacity: 0.8"/>
    </g>
   </g>
   <g id="matplotlib.axis_1">
    <g id="xtick_1">
     <g id="line2d_1">
      <defs>
       <path id="m34660744e0" d="M 0 0 
L 0 3.5 
" style="stroke: #000000; stroke-width: 0.8"/>
      </defs>
      <g>
       <use xlink:href="#m34660744e0" x="160.53125" y="339.84" style="stroke: #000000; stroke-width: 0.8"/>
      </g>
     </g>
     <g id="text_1">
      <!-- 0.00 -->
      <g transform="translate(127.132812 369.635312) scale(0.3 -0.3)">
       <defs>
        <path id="DejaVuSans-30" d="M 2034 4250 
Q 1547 4250 1301 3770 
Q 1056 3291 1056 2328 
Q 1056 1369 1301 889 
Q 1547 409 2034 409 
Q 2525 409 2770 889 
Q 3016 1369 3016 2328 
Q 3016 3291 2770 3770 
Q 2525 4250 2034 4250 
z
M 2034 4750 
Q 2819 4750 3233 4129 
Q 3647 3509 3647 2328 
Q 3647 1150 3233 529 
Q 2819 -91 2034 -91 
Q 1250 -91 836 529 
Q 422 1150 422 2328 
Q 422 3509 836 4129 
Q 1250 4750 2034 4750 
z
" transform="scale(0.015625)"/>
        <path id="DejaVuSans-2e" d="M 684 794 
L 1344 794 
L 1344 0 
L 684 0 
L 684 794 
z
" transform="scale(0.015625)"/>
       </defs>
       <use xlink:href="#DejaVuSans-30"/>
       <use xlink:href="#DejaVuSans-2e" transform="translate(63.623047 0)"/>
       <use xlink:href="#DejaVuSans-30" transform="translate(95.410156 0)"/>
       <use xlink:href="#DejaVuSans-30" transform="translate(159.033203 0)"/>
      </g>
     </g>
    </g>
    <g id="xtick_2">
     <g id="line2d_2">
      <g>
       <use xlink:href="#m34660744e0" x="276.78125" y="339.84" style="stroke: #000000; stroke-width: 0.8"/>
      </g>
     </g>
     <g id="text_2">
      <!-- 0.25 -->
      <g transform="translate(243.382812 369.635312) scale(0.3 -0.3)">
       <defs>
        <path id="DejaVuSans-32" d="M 1228 531 
L 3431 531 
L 3431 0 
L 469 0 
L 469 531 
Q 828 903 1448 1529 
Q 2069 2156 2228 2338 
Q 2531 2678 2651 2914 
Q 2772 3150 2772 3378 
Q 2772 3750 2511 3984 
Q 2250 4219 1831 4219 
Q 1534 4219 1204 4116 
Q 875 4013 500 3803 
L 500 4441 
Q 881 4594 1212 4672 
Q 1544 4750 1819 4750 
Q 2544 4750 2975 4387 
Q 3406 4025 3406 3419 
Q 3406 3131 3298 2873 
Q 3191 2616 2906 2266 
Q 2828 2175 2409 1742 
Q 1991 1309 1228 531 
z
" transform="scale(0.015625)"/>
        <path id="DejaVuSans-35" d="M 691 4666 
L 3169 4666 
L 3169 4134 
L 1269 4134 
L 1269 2991 
Q 1406 3038 1543 3061 
Q 1681 3084 1819 3084 
Q 2600 3084 3056 2656 
Q 3513 2228 3513 1497 
Q 3513 744 3044 326 
Q 2575 -91 1722 -91 
Q 1428 -91 1123 -41 
Q 819 9 494 109 
L 494 744 
Q 775 591 1075 516 
Q 1375 441 1709 441 
Q 2250 441 2565 725 
Q 2881 1009 2881 1497 
Q 2881 1984 2565 2268 
Q 2250 2553 1709 2553 
Q 1456 2553 1204 2497 
Q 953 2441 691 2322 
L 691 4666 
z
" transform="scale(0.015625)"/>
       </defs>
       <use xlink:href="#DejaVuSans-30"/>
       <use xlink:href="#DejaVuSans-2e" transform="translate(63.623047 0)"/>
       <use xlink:href="#DejaVuSans-32" transform="translate(95.410156 0)"/>
       <use xlink:href="#DejaVuSans-35" transform="translate(159.033203 0)"/>
      </g>
     </g>
    </g>
    <g id="xtick_3">
     <g id="line2d_3">
      <g>
       <use xlink:href="#m34660744e0" x="393.03125" y="339.84" style="stroke: #000000; stroke-width: 0.8"/>
      </g>
     </g>
     <g id="text_3">
      <!-- 0.50 -->
      <g transform="translate(359.632812 369.635312) scale(0.3 -0.3)">
       <use xlink:href="#DejaVuSans-30"/>
       <use xlink:href="#DejaVuSans-2e" transform="translate(63.623047 0)"/>
       <use xlink:href="#DejaVuSans-35" transform="translate(95.410156 0)"/>
       <use xlink:href="#DejaVuSans-30" transform="translate(159.033203 0)"/>
      </g>
     </g>
    </g>
    <g id="xtick_4">
     <g id="line2d_4">
      <g>
       <use xlink:href="#m34660744e0" x="509.28125" y="339.84" style="stroke: #000000; stroke-width: 0.8"/>
      </g>
     </g>
     <g id="text_4">
      <!-- 0.75 -->
      <g transform="translate(475.882812 369.635312) scale(0.3 -0.3)">
       <defs>
        <path id="DejaVuSans-37" d="M 525 4666 
L 3525 4666 
L 3525 4397 
L 1831 0 
L 1172 0 
L 2766 4134 
L 525 4134 
L 525 4666 
z
" transform="scale(0.015625)"/>
       </defs>
       <use xlink:href="#DejaVuSans-30"/>
       <use xlink:href="#DejaVuSans-2e" transform="translate(63.623047 0)"/>
       <use xlink:href="#DejaVuSans-37" transform="translate(95.410156 0)"/>
       <use xlink:href="#DejaVuSans-35" transform="translate(159.033203 0)"/>
      </g>
     </g>
    </g>
    <g id="xtick_5">
     <g id="line2d_5">
      <g>
       <use xlink:href="#m34660744e0" x="625.53125" y="339.84" style="stroke: #000000; stroke-width: 0.8"/>
      </g>
     </g>
     <g id="text_5">
      <!-- 1.00 -->
      <g transform="translate(592.132812 369.635312) scale(0.3 -0.3)">
       <defs>
        <path id="DejaVuSans-31" d="M 794 531 
L 1825 531 
L 1825 4091 
L 703 3866 
L 703 4441 
L 1819 4666 
L 2450 4666 
L 2450 531 
L 3481 531 
L 3481 0 
L 794 0 
L 794 531 
z
" transform="scale(0.015625)"/>
       </defs>
       <use xlink:href="#DejaVuSans-31"/>
       <use xlink:href="#DejaVuSans-2e" transform="translate(63.623047 0)"/>
       <use xlink:href="#DejaVuSans-30" transform="translate(95.410156 0)"/>
       <use xlink:href="#DejaVuSans-30" transform="translate(159.033203 0)"/>
      </g>
     </g>
    </g>
    <g id="text_6">
     <!-- $g$ -->
     <g transform="translate(383.43125 402.60875) scale(0.3 -0.3)">
      <defs>
       <path id="DejaVuSans-Oblique-67" d="M 3816 3500 
L 3219 434 
Q 3047 -456 2561 -893 
Q 2075 -1331 1253 -1331 
Q 950 -1331 690 -1286 
Q 431 -1241 206 -1147 
L 313 -588 
Q 525 -725 762 -790 
Q 1000 -856 1269 -856 
Q 1816 -856 2167 -557 
Q 2519 -259 2631 300 
L 2681 563 
Q 2441 288 2122 144 
Q 1803 0 1434 0 
Q 903 0 598 351 
Q 294 703 294 1319 
Q 294 1803 478 2267 
Q 663 2731 997 3091 
Q 1219 3328 1514 3456 
Q 1809 3584 2131 3584 
Q 2484 3584 2746 3420 
Q 3009 3256 3138 2956 
L 3238 3500 
L 3816 3500 
z
M 2950 2216 
Q 2950 2641 2750 2872 
Q 2550 3103 2181 3103 
Q 1953 3103 1747 3012 
Q 1541 2922 1394 2759 
Q 1156 2491 1023 2127 
Q 891 1763 891 1375 
Q 891 944 1092 712 
Q 1294 481 1672 481 
Q 2219 481 2584 976 
Q 2950 1472 2950 2216 
z
" transform="scale(0.015625)"/>
      </defs>
      <use xlink:href="#DejaVuSans-Oblique-67"/>
     </g>
    </g>
   </g>
   <g id="matplotlib.axis_2">
    <g id="ytick_1">
     <g id="line2d_6">
      <defs>
       <path id="mf5fd6883f1" d="M 0 0 
L -3.5 0 
" style="stroke: #000000; stroke-width: 0.8"/>
      </defs>
      <g>
       <use xlink:href="#mf5fd6883f1" x="114.03125" y="312.12" style="stroke: #000000; stroke-width: 0.8"/>
      </g>
     </g>
     <g id="text_7">
      <!-- 0.00 -->
      <g transform="translate(40.234375 323.517656) scale(0.3 -0.3)">
       <use xlink:href="#DejaVuSans-30"/>
       <use xlink:href="#DejaVuSans-2e" transform="translate(63.623047 0)"/>
       <use xlink:href="#DejaVuSans-30" transform="translate(95.410156 0)"/>
       <use xlink:href="#DejaVuSans-30" transform="translate(159.033203 0)"/>
      </g>
     </g>
    </g>
    <g id="ytick_2">
     <g id="line2d_7">
      <g>
       <use xlink:href="#mf5fd6883f1" x="114.03125" y="242.82" style="stroke: #000000; stroke-width: 0.8"/>
      </g>
     </g>
     <g id="text_8">
      <!-- 0.25 -->
      <g transform="translate(40.234375 254.217656) scale(0.3 -0.3)">
       <use xlink:href="#DejaVuSans-30"/>
       <use xlink:href="#DejaVuSans-2e" transform="translate(63.623047 0)"/>
       <use xlink:href="#DejaVuSans-32" transform="translate(95.410156 0)"/>
       <use xlink:href="#DejaVuSans-35" transform="translate(159.033203 0)"/>
      </g>
     </g>
    </g>
    <g id="ytick_3">
     <g id="line2d_8">
      <g>
       <use xlink:href="#mf5fd6883f1" x="114.03125" y="173.52" style="stroke: #000000; stroke-width: 0.8"/>
      </g>
     </g>
     <g id="text_9">
      <!-- 0.50 -->
      <g transform="translate(40.234375 184.917656) scale(0.3 -0.3)">
       <use xlink:href="#DejaVuSans-30"/>
       <use xlink:href="#DejaVuSans-2e" transform="translate(63.623047 0)"/>
       <use xlink:href="#DejaVuSans-35" transform="translate(95.410156 0)"/>
       <use xlink:href="#DejaVuSans-30" transform="translate(159.033203 0)"/>
      </g>
     </g>
    </g>
    <g id="ytick_4">
     <g id="line2d_9">
      <g>
       <use xlink:href="#mf5fd6883f1" x="114.03125" y="104.22" style="stroke: #000000; stroke-width: 0.8"/>
      </g>
     </g>
     <g id="text_10">
      <!-- 0.75 -->
      <g transform="translate(40.234375 115.617656) scale(0.3 -0.3)">
       <use xlink:href="#DejaVuSans-30"/>
       <use xlink:href="#DejaVuSans-2e" transform="translate(63.623047 0)"/>
       <use xlink:href="#DejaVuSans-37" transform="translate(95.410156 0)"/>
       <use xlink:href="#DejaVuSans-35" transform="translate(159.033203 0)"/>
      </g>
     </g>
    </g>
    <g id="ytick_5">
     <g id="line2d_10">
      <g>
       <use xlink:href="#mf5fd6883f1" x="114.03125" y="34.92" style="stroke: #000000; stroke-width: 0.8"/>
      </g>
     </g>
     <g id="text_11">
      <!-- 1.00 -->
      <g transform="translate(40.234375 46.317656) scale(0.3 -0.3)">
       <use xlink:href="#DejaVuSans-31"/>
       <use xlink:href="#DejaVuSans-2e" transform="translate(63.623047 0)"/>
       <use xlink:href="#DejaVuSans-30" transform="translate(95.410156 0)"/>
       <use xlink:href="#DejaVuSans-30" transform="translate(159.033203 0)"/>
      </g>
     </g>
    </g>
    <g id="text_12">
     <!-- $m/h$ -->
     <g transform="translate(29.995312 202.77) rotate(-90) scale(0.3 -0.3)">
      <defs>
       <path id="DejaVuSans-Oblique-6d" d="M 5747 2113 
L 5338 0 
L 4763 0 
L 5166 2094 
Q 5191 2228 5203 2325 
Q 5216 2422 5216 2491 
Q 5216 2772 5059 2928 
Q 4903 3084 4622 3084 
Q 4203 3084 3875 2770 
Q 3547 2456 3450 1953 
L 3066 0 
L 2491 0 
L 2900 2094 
Q 2925 2209 2937 2307 
Q 2950 2406 2950 2484 
Q 2950 2769 2794 2926 
Q 2638 3084 2363 3084 
Q 1938 3084 1609 2770 
Q 1281 2456 1184 1953 
L 800 0 
L 225 0 
L 909 3500 
L 1484 3500 
L 1375 2956 
Q 1609 3263 1923 3423 
Q 2238 3584 2597 3584 
Q 2978 3584 3223 3384 
Q 3469 3184 3519 2828 
Q 3781 3197 4126 3390 
Q 4472 3584 4856 3584 
Q 5306 3584 5551 3325 
Q 5797 3066 5797 2591 
Q 5797 2488 5784 2364 
Q 5772 2241 5747 2113 
z
" transform="scale(0.015625)"/>
       <path id="DejaVuSans-2f" d="M 1625 4666 
L 2156 4666 
L 531 -594 
L 0 -594 
L 1625 4666 
z
" transform="scale(0.015625)"/>
       <path id="DejaVuSans-Oblique-68" d="M 3566 2113 
L 3156 0 
L 2578 0 
L 2988 2091 
Q 3016 2238 3031 2350 
Q 3047 2463 3047 2528 
Q 3047 2791 2881 2937 
Q 2716 3084 2419 3084 
Q 1956 3084 1617 2771 
Q 1278 2459 1178 1941 
L 800 0 
L 225 0 
L 1172 4863 
L 1747 4863 
L 1375 2950 
Q 1594 3244 1934 3414 
Q 2275 3584 2650 3584 
Q 3113 3584 3367 3334 
Q 3622 3084 3622 2631 
Q 3622 2519 3608 2391 
Q 3594 2263 3566 2113 
z
" transform="scale(0.015625)"/>
      </defs>
      <use xlink:href="#DejaVuSans-Oblique-6d" transform="translate(0 0.015625)"/>
      <use xlink:href="#DejaVuSans-2f" transform="translate(97.412109 0.015625)"/>
      <use xlink:href="#DejaVuSans-Oblique-68" transform="translate(131.103516 0.015625)"/>
     </g>
    </g>
   </g>
   <g id="patch_3">
    <path d="M 114.03125 339.84 
L 114.03125 7.2 
" style="fill: none; stroke: #000000; stroke-width: 0.8; stroke-linejoin: miter; stroke-linecap: square"/>
   </g>
   <g id="patch_4">
    <path d="M 672.03125 339.84 
L 672.03125 7.2 
" style="fill: none; stroke: #000000; stroke-width: 0.8; stroke-linejoin: miter; stroke-linecap: square"/>
   </g>
   <g id="patch_5">
    <path d="M 114.03125 339.84 
L 672.03125 339.84 
" style="fill: none; stroke: #000000; stroke-width: 0.8; stroke-linejoin: miter; stroke-linecap: square"/>
   </g>
   <g id="patch_6">
    <path d="M 114.03125 7.2 
L 672.03125 7.2 
" style="fill: none; stroke: #000000; stroke-width: 0.8; stroke-linejoin: miter; stroke-linecap: square"/>
   </g>
   <g id="text_13">
    <!-- $k_{g}^{m}$ or $k_{g}^{h}$= 0.5 -->
    <g style="fill: #2e8b57" transform="translate(398.318451 223.770259) rotate(-16.699244) scale(0.2 -0.2)">
     <defs>
      <path id="DejaVuSans-Oblique-6b" d="M 1172 4863 
L 1747 4863 
L 1197 2028 
L 3169 3500 
L 3916 3500 
L 1716 1825 
L 3322 0 
L 2625 0 
L 1131 1709 
L 800 0 
L 225 0 
L 1172 4863 
z
" transform="scale(0.015625)"/>
      <path id="DejaVuSans-20" transform="scale(0.015625)"/>
      <path id="DejaVuSans-6f" d="M 1959 3097 
Q 1497 3097 1228 2736 
Q 959 2375 959 1747 
Q 959 1119 1226 758 
Q 1494 397 1959 397 
Q 2419 397 2687 759 
Q 2956 1122 2956 1747 
Q 2956 2369 2687 2733 
Q 2419 3097 1959 3097 
z
M 1959 3584 
Q 2709 3584 3137 3096 
Q 3566 2609 3566 1747 
Q 3566 888 3137 398 
Q 2709 -91 1959 -91 
Q 1206 -91 779 398 
Q 353 888 353 1747 
Q 353 2609 779 3096 
Q 1206 3584 1959 3584 
z
" transform="scale(0.015625)"/>
      <path id="DejaVuSans-72" d="M 2631 2963 
Q 2534 3019 2420 3045 
Q 2306 3072 2169 3072 
Q 1681 3072 1420 2755 
Q 1159 2438 1159 1844 
L 1159 0 
L 581 0 
L 581 3500 
L 1159 3500 
L 1159 2956 
Q 1341 3275 1631 3429 
Q 1922 3584 2338 3584 
Q 2397 3584 2469 3576 
Q 2541 3569 2628 3553 
L 2631 2963 
z
" transform="scale(0.015625)"/>
      <path id="DejaVuSans-3d" d="M 678 2906 
L 4684 2906 
L 4684 2381 
L 678 2381 
L 678 2906 
z
M 678 1631 
L 4684 1631 
L 4684 1100 
L 678 1100 
L 678 1631 
z
" transform="scale(0.015625)"/>
     </defs>
     <use xlink:href="#DejaVuSans-Oblique-6b" transform="translate(0 0.529687)"/>
     <use xlink:href="#DejaVuSans-Oblique-6d" transform="translate(65.357865 38.810937) scale(0.7)"/>
     <use xlink:href="#DejaVuSans-Oblique-67" transform="translate(57.910156 -26.814063) scale(0.7)"/>
     <use xlink:href="#DejaVuSans-20" transform="translate(136.280716 0.529687)"/>
     <use xlink:href="#DejaVuSans-6f" transform="translate(168.067826 0.529687)"/>
     <use xlink:href="#DejaVuSans-72" transform="translate(229.249466 0.529687)"/>
     <use xlink:href="#DejaVuSans-20" transform="translate(270.362747 0.529687)"/>
     <use xlink:href="#DejaVuSans-Oblique-6b" transform="translate(302.149857 0.529687)"/>
     <use xlink:href="#DejaVuSans-Oblique-68" transform="translate(367.507721 38.810938) scale(0.7)"/>
     <use xlink:href="#DejaVuSans-Oblique-67" transform="translate(360.060013 -26.814063) scale(0.7)"/>
     <use xlink:href="#DejaVuSans-3d" transform="translate(414.607331 0.529687)"/>
     <use xlink:href="#DejaVuSans-20" transform="translate(498.396393 0.529687)"/>
     <use xlink:href="#DejaVuSans-30" transform="translate(530.183503 0.529687)"/>
     <use xlink:href="#DejaVuSans-2e" transform="translate(593.806549 0.529687)"/>
     <use xlink:href="#DejaVuSans-35" transform="translate(625.593659 0.529687)"/>
    </g>
   </g>
   <g id="text_14">
    <!-- $k_{g}^{m}$ or $k_{g}^{h}$= 1 -->
    <g style="fill: #4169e1" transform="translate(310.582957 202.758452) rotate(-34.99202) scale(0.2 -0.2)">
     <use xlink:href="#DejaVuSans-Oblique-6b" transform="translate(0 0.529687)"/>
     <use xlink:href="#DejaVuSans-Oblique-6d" transform="translate(65.357865 38.810937) scale(0.7)"/>
     <use xlink:href="#DejaVuSans-Oblique-67" transform="translate(57.910156 -26.814063) scale(0.7)"/>
     <use xlink:href="#DejaVuSans-20" transform="translate(136.280716 0.529687)"/>
     <use xlink:href="#DejaVuSans-6f" transform="translate(168.067826 0.529687)"/>
     <use xlink:href="#DejaVuSans-72" transform="translate(229.249466 0.529687)"/>
     <use xlink:href="#DejaVuSans-20" transform="translate(270.362747 0.529687)"/>
     <use xlink:href="#DejaVuSans-Oblique-6b" transform="translate(302.149857 0.529687)"/>
     <use xlink:href="#DejaVuSans-Oblique-68" transform="translate(367.507721 38.810938) scale(0.7)"/>
     <use xlink:href="#DejaVuSans-Oblique-67" transform="translate(360.060013 -26.814063) scale(0.7)"/>
     <use xlink:href="#DejaVuSans-3d" transform="translate(414.607331 0.529687)"/>
     <use xlink:href="#DejaVuSans-20" transform="translate(498.396393 0.529687)"/>
     <use xlink:href="#DejaVuSans-31" transform="translate(530.183503 0.529687)"/>
    </g>
   </g>
   <g id="text_15">
    <!-- $k_{g}^{m}$ or $k_{g}^{h}$= 2 -->
    <g style="fill: #ee82ee" transform="translate(222.003946 204.757599) rotate(-54.462322) scale(0.2 -0.2)">
     <use xlink:href="#DejaVuSans-Oblique-6b" transform="translate(0 0.529687)"/>
     <use xlink:href="#DejaVuSans-Oblique-6d" transform="translate(65.357865 38.810937) scale(0.7)"/>
     <use xlink:href="#DejaVuSans-Oblique-67" transform="translate(57.910156 -26.814063) scale(0.7)"/>
     <use xlink:href="#DejaVuSans-20" transform="translate(136.280716 0.529687)"/>
     <use xlink:href="#DejaVuSans-6f" transform="translate(168.067826 0.529687)"/>
     <use xlink:href="#DejaVuSans-72" transform="translate(229.249466 0.529687)"/>
     <use xlink:href="#DejaVuSans-20" transform="translate(270.362747 0.529687)"/>
     <use xlink:href="#DejaVuSans-Oblique-6b" transform="translate(302.149857 0.529687)"/>
     <use xlink:href="#DejaVuSans-Oblique-68" transform="translate(367.507721 38.810938) scale(0.7)"/>
     <use xlink:href="#DejaVuSans-Oblique-67" transform="translate(360.060013 -26.814063) scale(0.7)"/>
     <use xlink:href="#DejaVuSans-3d" transform="translate(414.607331 0.529687)"/>
     <use xlink:href="#DejaVuSans-20" transform="translate(498.396393 0.529687)"/>
     <use xlink:href="#DejaVuSans-32" transform="translate(530.183503 0.529687)"/>
    </g>
   </g>
  </g>
 </g>
 <defs>
  <clipPath id="p327e86427d">
   <rect x="114.03125" y="7.2" width="558" height="332.64"/>
  </clipPath>
 </defs>
</svg>
