<?xml version="1.0" encoding="utf-8" standalone="no"?>
<!DOCTYPE svg PUBLIC "-//W3C//DTD SVG 1.1//EN"
  "http://www.w3.org/Graphics/SVG/1.1/DTD/svg11.dtd">
<svg xmlns:xlink="http://www.w3.org/1999/xlink" width="686.796875pt" height="416.10875pt" viewBox="0 0 686.796875 416.10875" xmlns="http://www.w3.org/2000/svg" version="1.1">
 <metadata>
  <rdf:RDF xmlns:dc="http://purl.org/dc/elements/1.1/" xmlns:cc="http://creativecommons.org/ns#" xmlns:rdf="http://www.w3.org/1999/02/22-rdf-syntax-ns#">
   <cc:Work>
    <dc:type rdf:resource="http://purl.org/dc/dcmitype/StillImage"/>
    <dc:date>2025-05-11T13:13:44.841058</dc:date>
    <dc:format>image/svg+xml</dc:format>
    <dc:creator>
     <cc:Agent>
      <dc:title>Matplotlib v3.10.1, https://matplotlib.org/</dc:title>
     </cc:Agent>
    </dc:creator>
   </cc:Work>
  </rdf:RDF>
 </metadata>
 <defs>
  <style type="text/css">*{stroke-linejoin: round; stroke-linecap: butt}</style>
 </defs>
 <g id="figure_1">
  <g id="patch_1">
   <path d="M 0 416.10875 
L 686.796875 416.10875 
L 686.796875 0 
L 0 0 
z
" style="fill: #ffffff"/>
  </g>
  <g id="axes_1">
   <g id="patch_2">
    <path d="M 121.596875 339.84 
L 679.596875 339.84 
L 679.596875 7.2 
L 121.596875 7.2 
z
" style="fill: #ffffff"/>
   </g>
   <g id="PathCollection_1">
    <defs>
     <path id="mf07e2e6130" d="M 0 5 
C 1.326016 5 2.597899 4.473168 3.535534 3.535534 
C 4.473168 2.597899 5 1.326016 5 0 
C 5 -1.326016 4.473168 -2.597899 3.535534 -3.535534 
C 2.597899 -4.473168 1.326016 -5 0 -5 
C -1.326016 -5 -2.597899 -4.473168 -3.535534 -3.535534 
C -4.473168 -2.597899 -5 -1.326016 -5 0 
C -5 1.326016 -4.473168 2.597899 -3.535534 3.535534 
C -2.597899 4.473168 -1.326016 5 0 5 
z
" style="stroke: #2e8b57; stroke-opacity: 0.8"/>
    </defs>
    <g clip-path="url(#p40f75b8dc9)">
     <use xlink:href="#mf07e2e6130" x="168.096875" y="284.4" style="fill: #2e8b57; fill-opacity: 0.8; stroke: #2e8b57; stroke-opacity: 0.8"/>
     <use xlink:href="#mf07e2e6130" x="177.586671" y="284.4" style="fill: #2e8b57; fill-opacity: 0.8; stroke: #2e8b57; stroke-opacity: 0.8"/>
     <use xlink:href="#mf07e2e6130" x="187.076466" y="284.4" style="fill: #2e8b57; fill-opacity: 0.8; stroke: #2e8b57; stroke-opacity: 0.8"/>
     <use xlink:href="#mf07e2e6130" x="196.566263" y="284.4" style="fill: #2e8b57; fill-opacity: 0.8; stroke: #2e8b57; stroke-opacity: 0.8"/>
     <use xlink:href="#mf07e2e6130" x="206.056058" y="284.4" style="fill: #2e8b57; fill-opacity: 0.8; stroke: #2e8b57; stroke-opacity: 0.8"/>
     <use xlink:href="#mf07e2e6130" x="215.545853" y="284.4" style="fill: #2e8b57; fill-opacity: 0.8; stroke: #2e8b57; stroke-opacity: 0.8"/>
     <use xlink:href="#mf07e2e6130" x="225.035651" y="284.4" style="fill: #2e8b57; fill-opacity: 0.8; stroke: #2e8b57; stroke-opacity: 0.8"/>
     <use xlink:href="#mf07e2e6130" x="234.525442" y="284.4" style="fill: #2e8b57; fill-opacity: 0.8; stroke: #2e8b57; stroke-opacity: 0.8"/>
     <use xlink:href="#mf07e2e6130" x="244.015241" y="284.4" style="fill: #2e8b57; fill-opacity: 0.8; stroke: #2e8b57; stroke-opacity: 0.8"/>
     <use xlink:href="#mf07e2e6130" x="253.505039" y="284.4" style="fill: #2e8b57; fill-opacity: 0.8; stroke: #2e8b57; stroke-opacity: 0.8"/>
     <use xlink:href="#mf07e2e6130" x="262.994831" y="284.4" style="fill: #2e8b57; fill-opacity: 0.8; stroke: #2e8b57; stroke-opacity: 0.8"/>
     <use xlink:href="#mf07e2e6130" x="272.484629" y="284.4" style="fill: #2e8b57; fill-opacity: 0.8; stroke: #2e8b57; stroke-opacity: 0.8"/>
     <use xlink:href="#mf07e2e6130" x="281.974427" y="284.4" style="fill: #2e8b57; fill-opacity: 0.8; stroke: #2e8b57; stroke-opacity: 0.8"/>
     <use xlink:href="#mf07e2e6130" x="291.464219" y="284.4" style="fill: #2e8b57; fill-opacity: 0.8; stroke: #2e8b57; stroke-opacity: 0.8"/>
     <use xlink:href="#mf07e2e6130" x="300.95401" y="284.4" style="fill: #2e8b57; fill-opacity: 0.8; stroke: #2e8b57; stroke-opacity: 0.8"/>
     <use xlink:href="#mf07e2e6130" x="310.443815" y="284.4" style="fill: #2e8b57; fill-opacity: 0.8; stroke: #2e8b57; stroke-opacity: 0.8"/>
     <use xlink:href="#mf07e2e6130" x="319.933607" y="284.4" style="fill: #2e8b57; fill-opacity: 0.8; stroke: #2e8b57; stroke-opacity: 0.8"/>
    </g>
   </g>
   <g id="PathCollection_2">
    <defs>
     <path id="m7fb4a7bbbc" d="M 0 -5 
L -5 5 
L 5 5 
z
" style="stroke: #4169e1; stroke-opacity: 0.8"/>
    </defs>
    <g clip-path="url(#p40f75b8dc9)">
     <use xlink:href="#m7fb4a7bbbc" x="329.423398" y="173.52" style="fill: #4169e1; fill-opacity: 0.8; stroke: #4169e1; stroke-opacity: 0.8"/>
     <use xlink:href="#m7fb4a7bbbc" x="338.913203" y="173.52" style="fill: #4169e1; fill-opacity: 0.8; stroke: #4169e1; stroke-opacity: 0.8"/>
     <use xlink:href="#m7fb4a7bbbc" x="348.402995" y="173.52" style="fill: #4169e1; fill-opacity: 0.8; stroke: #4169e1; stroke-opacity: 0.8"/>
     <use xlink:href="#m7fb4a7bbbc" x="357.892786" y="173.52" style="fill: #4169e1; fill-opacity: 0.8; stroke: #4169e1; stroke-opacity: 0.8"/>
     <use xlink:href="#m7fb4a7bbbc" x="367.382591" y="173.52" style="fill: #4169e1; fill-opacity: 0.8; stroke: #4169e1; stroke-opacity: 0.8"/>
     <use xlink:href="#m7fb4a7bbbc" x="376.872383" y="173.52" style="fill: #4169e1; fill-opacity: 0.8; stroke: #4169e1; stroke-opacity: 0.8"/>
     <use xlink:href="#m7fb4a7bbbc" x="386.362174" y="173.52" style="fill: #4169e1; fill-opacity: 0.8; stroke: #4169e1; stroke-opacity: 0.8"/>
     <use xlink:href="#m7fb4a7bbbc" x="395.851979" y="173.52" style="fill: #4169e1; fill-opacity: 0.8; stroke: #4169e1; stroke-opacity: 0.8"/>
     <use xlink:href="#m7fb4a7bbbc" x="405.341771" y="173.52" style="fill: #4169e1; fill-opacity: 0.8; stroke: #4169e1; stroke-opacity: 0.8"/>
     <use xlink:href="#m7fb4a7bbbc" x="414.831562" y="173.52" style="fill: #4169e1; fill-opacity: 0.8; stroke: #4169e1; stroke-opacity: 0.8"/>
     <use xlink:href="#m7fb4a7bbbc" x="424.321353" y="173.52" style="fill: #4169e1; fill-opacity: 0.8; stroke: #4169e1; stroke-opacity: 0.8"/>
     <use xlink:href="#m7fb4a7bbbc" x="433.811145" y="173.52" style="fill: #4169e1; fill-opacity: 0.8; stroke: #4169e1; stroke-opacity: 0.8"/>
     <use xlink:href="#m7fb4a7bbbc" x="443.300964" y="173.52" style="fill: #4169e1; fill-opacity: 0.8; stroke: #4169e1; stroke-opacity: 0.8"/>
     <use xlink:href="#m7fb4a7bbbc" x="452.790755" y="173.52" style="fill: #4169e1; fill-opacity: 0.8; stroke: #4169e1; stroke-opacity: 0.8"/>
     <use xlink:href="#m7fb4a7bbbc" x="462.280547" y="173.52" style="fill: #4169e1; fill-opacity: 0.8; stroke: #4169e1; stroke-opacity: 0.8"/>
     <use xlink:href="#m7fb4a7bbbc" x="471.770366" y="173.52" style="fill: #4169e1; fill-opacity: 0.8; stroke: #4169e1; stroke-opacity: 0.8"/>
     <use xlink:href="#m7fb4a7bbbc" x="481.260157" y="173.52" style="fill: #4169e1; fill-opacity: 0.8; stroke: #4169e1; stroke-opacity: 0.8"/>
     <use xlink:href="#m7fb4a7bbbc" x="490.749949" y="173.52" style="fill: #4169e1; fill-opacity: 0.8; stroke: #4169e1; stroke-opacity: 0.8"/>
     <use xlink:href="#m7fb4a7bbbc" x="500.23974" y="173.52" style="fill: #4169e1; fill-opacity: 0.8; stroke: #4169e1; stroke-opacity: 0.8"/>
     <use xlink:href="#m7fb4a7bbbc" x="509.729531" y="173.52" style="fill: #4169e1; fill-opacity: 0.8; stroke: #4169e1; stroke-opacity: 0.8"/>
     <use xlink:href="#m7fb4a7bbbc" x="519.219323" y="173.52" style="fill: #4169e1; fill-opacity: 0.8; stroke: #4169e1; stroke-opacity: 0.8"/>
     <use xlink:href="#m7fb4a7bbbc" x="528.709114" y="173.52" style="fill: #4169e1; fill-opacity: 0.8; stroke: #4169e1; stroke-opacity: 0.8"/>
     <use xlink:href="#m7fb4a7bbbc" x="538.198906" y="173.52" style="fill: #4169e1; fill-opacity: 0.8; stroke: #4169e1; stroke-opacity: 0.8"/>
     <use xlink:href="#m7fb4a7bbbc" x="547.688697" y="173.52" style="fill: #4169e1; fill-opacity: 0.8; stroke: #4169e1; stroke-opacity: 0.8"/>
     <use xlink:href="#m7fb4a7bbbc" x="557.178516" y="173.52" style="fill: #4169e1; fill-opacity: 0.8; stroke: #4169e1; stroke-opacity: 0.8"/>
     <use xlink:href="#m7fb4a7bbbc" x="566.668308" y="173.52" style="fill: #4169e1; fill-opacity: 0.8; stroke: #4169e1; stroke-opacity: 0.8"/>
     <use xlink:href="#m7fb4a7bbbc" x="576.158099" y="173.52" style="fill: #4169e1; fill-opacity: 0.8; stroke: #4169e1; stroke-opacity: 0.8"/>
     <use xlink:href="#m7fb4a7bbbc" x="585.64789" y="173.52" style="fill: #4169e1; fill-opacity: 0.8; stroke: #4169e1; stroke-opacity: 0.8"/>
     <use xlink:href="#m7fb4a7bbbc" x="595.137682" y="173.52" style="fill: #4169e1; fill-opacity: 0.8; stroke: #4169e1; stroke-opacity: 0.8"/>
     <use xlink:href="#m7fb4a7bbbc" x="604.627501" y="173.52" style="fill: #4169e1; fill-opacity: 0.8; stroke: #4169e1; stroke-opacity: 0.8"/>
     <use xlink:href="#m7fb4a7bbbc" x="614.117292" y="173.52" style="fill: #4169e1; fill-opacity: 0.8; stroke: #4169e1; stroke-opacity: 0.8"/>
     <use xlink:href="#m7fb4a7bbbc" x="623.607084" y="173.52" style="fill: #4169e1; fill-opacity: 0.8; stroke: #4169e1; stroke-opacity: 0.8"/>
    </g>
   </g>
   <g id="PathCollection_3"/>
   <g id="matplotlib.axis_1">
    <g id="xtick_1">
     <g id="line2d_1">
      <defs>
       <path id="mf4d95fd473" d="M 0 0 
L 0 3.5 
" style="stroke: #000000; stroke-width: 0.8"/>
      </defs>
      <g>
       <use xlink:href="#mf4d95fd473" x="168.096875" y="339.84" style="stroke: #000000; stroke-width: 0.8"/>
      </g>
     </g>
     <g id="text_1">
      <!-- 0.00 -->
      <g transform="translate(134.698438 369.635312) scale(0.3 -0.3)">
       <defs>
        <path id="DejaVuSans-30" d="M 2034 4250 
Q 1547 4250 1301 3770 
Q 1056 3291 1056 2328 
Q 1056 1369 1301 889 
Q 1547 409 2034 409 
Q 2525 409 2770 889 
Q 3016 1369 3016 2328 
Q 3016 3291 2770 3770 
Q 2525 4250 2034 4250 
z
M 2034 4750 
Q 2819 4750 3233 4129 
Q 3647 3509 3647 2328 
Q 3647 1150 3233 529 
Q 2819 -91 2034 -91 
Q 1250 -91 836 529 
Q 422 1150 422 2328 
Q 422 3509 836 4129 
Q 1250 4750 2034 4750 
z
" transform="scale(0.015625)"/>
        <path id="DejaVuSans-2e" d="M 684 794 
L 1344 794 
L 1344 0 
L 684 0 
L 684 794 
z
" transform="scale(0.015625)"/>
       </defs>
       <use xlink:href="#DejaVuSans-30"/>
       <use xlink:href="#DejaVuSans-2e" transform="translate(63.623047 0)"/>
       <use xlink:href="#DejaVuSans-30" transform="translate(95.410156 0)"/>
       <use xlink:href="#DejaVuSans-30" transform="translate(159.033203 0)"/>
      </g>
     </g>
    </g>
    <g id="xtick_2">
     <g id="line2d_2">
      <g>
       <use xlink:href="#mf4d95fd473" x="284.346875" y="339.84" style="stroke: #000000; stroke-width: 0.8"/>
      </g>
     </g>
     <g id="text_2">
      <!-- 0.25 -->
      <g transform="translate(250.948438 369.635312) scale(0.3 -0.3)">
       <defs>
        <path id="DejaVuSans-32" d="M 1228 531 
L 3431 531 
L 3431 0 
L 469 0 
L 469 531 
Q 828 903 1448 1529 
Q 2069 2156 2228 2338 
Q 2531 2678 2651 2914 
Q 2772 3150 2772 3378 
Q 2772 3750 2511 3984 
Q 2250 4219 1831 4219 
Q 1534 4219 1204 4116 
Q 875 4013 500 3803 
L 500 4441 
Q 881 4594 1212 4672 
Q 1544 4750 1819 4750 
Q 2544 4750 2975 4387 
Q 3406 4025 3406 3419 
Q 3406 3131 3298 2873 
Q 3191 2616 2906 2266 
Q 2828 2175 2409 1742 
Q 1991 1309 1228 531 
z
" transform="scale(0.015625)"/>
        <path id="DejaVuSans-35" d="M 691 4666 
L 3169 4666 
L 3169 4134 
L 1269 4134 
L 1269 2991 
Q 1406 3038 1543 3061 
Q 1681 3084 1819 3084 
Q 2600 3084 3056 2656 
Q 3513 2228 3513 1497 
Q 3513 744 3044 326 
Q 2575 -91 1722 -91 
Q 1428 -91 1123 -41 
Q 819 9 494 109 
L 494 744 
Q 775 591 1075 516 
Q 1375 441 1709 441 
Q 2250 441 2565 725 
Q 2881 1009 2881 1497 
Q 2881 1984 2565 2268 
Q 2250 2553 1709 2553 
Q 1456 2553 1204 2497 
Q 953 2441 691 2322 
L 691 4666 
z
" transform="scale(0.015625)"/>
       </defs>
       <use xlink:href="#DejaVuSans-30"/>
       <use xlink:href="#DejaVuSans-2e" transform="translate(63.623047 0)"/>
       <use xlink:href="#DejaVuSans-32" transform="translate(95.410156 0)"/>
       <use xlink:href="#DejaVuSans-35" transform="translate(159.033203 0)"/>
      </g>
     </g>
    </g>
    <g id="xtick_3">
     <g id="line2d_3">
      <g>
       <use xlink:href="#mf4d95fd473" x="400.596875" y="339.84" style="stroke: #000000; stroke-width: 0.8"/>
      </g>
     </g>
     <g id="text_3">
      <!-- 0.50 -->
      <g transform="translate(367.198437 369.635312) scale(0.3 -0.3)">
       <use xlink:href="#DejaVuSans-30"/>
       <use xlink:href="#DejaVuSans-2e" transform="translate(63.623047 0)"/>
       <use xlink:href="#DejaVuSans-35" transform="translate(95.410156 0)"/>
       <use xlink:href="#DejaVuSans-30" transform="translate(159.033203 0)"/>
      </g>
     </g>
    </g>
    <g id="xtick_4">
     <g id="line2d_4">
      <g>
       <use xlink:href="#mf4d95fd473" x="516.846875" y="339.84" style="stroke: #000000; stroke-width: 0.8"/>
      </g>
     </g>
     <g id="text_4">
      <!-- 0.75 -->
      <g transform="translate(483.448437 369.635312) scale(0.3 -0.3)">
       <defs>
        <path id="DejaVuSans-37" d="M 525 4666 
L 3525 4666 
L 3525 4397 
L 1831 0 
L 1172 0 
L 2766 4134 
L 525 4134 
L 525 4666 
z
" transform="scale(0.015625)"/>
       </defs>
       <use xlink:href="#DejaVuSans-30"/>
       <use xlink:href="#DejaVuSans-2e" transform="translate(63.623047 0)"/>
       <use xlink:href="#DejaVuSans-37" transform="translate(95.410156 0)"/>
       <use xlink:href="#DejaVuSans-35" transform="translate(159.033203 0)"/>
      </g>
     </g>
    </g>
    <g id="xtick_5">
     <g id="line2d_5">
      <g>
       <use xlink:href="#mf4d95fd473" x="633.096875" y="339.84" style="stroke: #000000; stroke-width: 0.8"/>
      </g>
     </g>
     <g id="text_5">
      <!-- 1.00 -->
      <g transform="translate(599.698437 369.635312) scale(0.3 -0.3)">
       <defs>
        <path id="DejaVuSans-31" d="M 794 531 
L 1825 531 
L 1825 4091 
L 703 3866 
L 703 4441 
L 1819 4666 
L 2450 4666 
L 2450 531 
L 3481 531 
L 3481 0 
L 794 0 
L 794 531 
z
" transform="scale(0.015625)"/>
       </defs>
       <use xlink:href="#DejaVuSans-31"/>
       <use xlink:href="#DejaVuSans-2e" transform="translate(63.623047 0)"/>
       <use xlink:href="#DejaVuSans-30" transform="translate(95.410156 0)"/>
       <use xlink:href="#DejaVuSans-30" transform="translate(159.033203 0)"/>
      </g>
     </g>
    </g>
    <g id="text_6">
     <!-- $obs$ -->
     <g transform="translate(374.046875 402.669688) scale(0.3 -0.3)">
      <defs>
       <path id="DejaVuSans-Oblique-6f" d="M 1625 -91 
Q 1009 -91 651 289 
Q 294 669 294 1325 
Q 294 1706 417 2101 
Q 541 2497 738 2766 
Q 1047 3184 1428 3384 
Q 1809 3584 2291 3584 
Q 2888 3584 3255 3212 
Q 3622 2841 3622 2241 
Q 3622 1825 3500 1412 
Q 3378 1000 3181 728 
Q 2875 309 2494 109 
Q 2113 -91 1625 -91 
z
M 891 1344 
Q 891 869 1089 633 
Q 1288 397 1691 397 
Q 2269 397 2648 901 
Q 3028 1406 3028 2181 
Q 3028 2634 2825 2865 
Q 2622 3097 2228 3097 
Q 1903 3097 1650 2945 
Q 1397 2794 1197 2484 
Q 1050 2253 970 1956 
Q 891 1659 891 1344 
z
" transform="scale(0.015625)"/>
       <path id="DejaVuSans-Oblique-62" d="M 3169 2138 
Q 3169 2591 2961 2847 
Q 2753 3103 2388 3103 
Q 2122 3103 1889 2973 
Q 1656 2844 1484 2597 
Q 1303 2338 1198 1995 
Q 1094 1653 1094 1313 
Q 1094 881 1298 636 
Q 1503 391 1863 391 
Q 2134 391 2365 517 
Q 2597 644 2772 891 
Q 2950 1147 3059 1487 
Q 3169 1828 3169 2138 
z
M 1381 2969 
Q 1594 3256 1914 3420 
Q 2234 3584 2584 3584 
Q 3122 3584 3439 3221 
Q 3756 2859 3756 2241 
Q 3756 1734 3570 1259 
Q 3384 784 3041 416 
Q 2816 172 2522 40 
Q 2228 -91 1906 -91 
Q 1566 -91 1316 65 
Q 1066 222 909 531 
L 806 0 
L 231 0 
L 1178 4863 
L 1753 4863 
L 1381 2969 
z
" transform="scale(0.015625)"/>
       <path id="DejaVuSans-Oblique-73" d="M 3200 3397 
L 3091 2853 
Q 2863 2978 2609 3040 
Q 2356 3103 2088 3103 
Q 1634 3103 1373 2948 
Q 1113 2794 1113 2528 
Q 1113 2219 1719 2053 
Q 1766 2041 1788 2034 
L 1972 1978 
Q 2547 1819 2739 1644 
Q 2931 1469 2931 1166 
Q 2931 609 2489 259 
Q 2047 -91 1331 -91 
Q 1053 -91 747 -37 
Q 441 16 72 128 
L 184 722 
Q 500 559 806 475 
Q 1113 391 1394 391 
Q 1816 391 2080 572 
Q 2344 753 2344 1031 
Q 2344 1331 1650 1516 
L 1591 1531 
L 1394 1581 
Q 956 1697 753 1886 
Q 550 2075 550 2369 
Q 550 2928 970 3256 
Q 1391 3584 2113 3584 
Q 2397 3584 2667 3537 
Q 2938 3491 3200 3397 
z
" transform="scale(0.015625)"/>
      </defs>
      <use xlink:href="#DejaVuSans-Oblique-6f" transform="translate(0 0.015625)"/>
      <use xlink:href="#DejaVuSans-Oblique-62" transform="translate(61.181641 0.015625)"/>
      <use xlink:href="#DejaVuSans-Oblique-73" transform="translate(124.658203 0.015625)"/>
     </g>
    </g>
   </g>
   <g id="matplotlib.axis_2">
    <g id="ytick_1">
     <g id="line2d_6">
      <defs>
       <path id="m96a7c54ac6" d="M 0 0 
L -3.5 0 
" style="stroke: #000000; stroke-width: 0.8"/>
      </defs>
      <g>
       <use xlink:href="#m96a7c54ac6" x="121.596875" y="312.12" style="stroke: #000000; stroke-width: 0.8"/>
      </g>
     </g>
     <g id="text_7">
      <!-- 0.00 -->
      <g transform="translate(47.8 323.517656) scale(0.3 -0.3)">
       <use xlink:href="#DejaVuSans-30"/>
       <use xlink:href="#DejaVuSans-2e" transform="translate(63.623047 0)"/>
       <use xlink:href="#DejaVuSans-30" transform="translate(95.410156 0)"/>
       <use xlink:href="#DejaVuSans-30" transform="translate(159.033203 0)"/>
      </g>
     </g>
    </g>
    <g id="ytick_2">
     <g id="line2d_7">
      <g>
       <use xlink:href="#m96a7c54ac6" x="121.596875" y="242.82" style="stroke: #000000; stroke-width: 0.8"/>
      </g>
     </g>
     <g id="text_8">
      <!-- 0.25 -->
      <g transform="translate(47.8 254.217656) scale(0.3 -0.3)">
       <use xlink:href="#DejaVuSans-30"/>
       <use xlink:href="#DejaVuSans-2e" transform="translate(63.623047 0)"/>
       <use xlink:href="#DejaVuSans-32" transform="translate(95.410156 0)"/>
       <use xlink:href="#DejaVuSans-35" transform="translate(159.033203 0)"/>
      </g>
     </g>
    </g>
    <g id="ytick_3">
     <g id="line2d_8">
      <g>
       <use xlink:href="#m96a7c54ac6" x="121.596875" y="173.52" style="stroke: #000000; stroke-width: 0.8"/>
      </g>
     </g>
     <g id="text_9">
      <!-- 0.50 -->
      <g transform="translate(47.8 184.917656) scale(0.3 -0.3)">
       <use xlink:href="#DejaVuSans-30"/>
       <use xlink:href="#DejaVuSans-2e" transform="translate(63.623047 0)"/>
       <use xlink:href="#DejaVuSans-35" transform="translate(95.410156 0)"/>
       <use xlink:href="#DejaVuSans-30" transform="translate(159.033203 0)"/>
      </g>
     </g>
    </g>
    <g id="ytick_4">
     <g id="line2d_9">
      <g>
       <use xlink:href="#m96a7c54ac6" x="121.596875" y="104.22" style="stroke: #000000; stroke-width: 0.8"/>
      </g>
     </g>
     <g id="text_10">
      <!-- 0.75 -->
      <g transform="translate(47.8 115.617656) scale(0.3 -0.3)">
       <use xlink:href="#DejaVuSans-30"/>
       <use xlink:href="#DejaVuSans-2e" transform="translate(63.623047 0)"/>
       <use xlink:href="#DejaVuSans-37" transform="translate(95.410156 0)"/>
       <use xlink:href="#DejaVuSans-35" transform="translate(159.033203 0)"/>
      </g>
     </g>
    </g>
    <g id="ytick_5">
     <g id="line2d_10">
      <g>
       <use xlink:href="#m96a7c54ac6" x="121.596875" y="34.92" style="stroke: #000000; stroke-width: 0.8"/>
      </g>
     </g>
     <g id="text_11">
      <!-- 1.00 -->
      <g transform="translate(47.8 46.317656) scale(0.3 -0.3)">
       <use xlink:href="#DejaVuSans-31"/>
       <use xlink:href="#DejaVuSans-2e" transform="translate(63.623047 0)"/>
       <use xlink:href="#DejaVuSans-30" transform="translate(95.410156 0)"/>
       <use xlink:href="#DejaVuSans-30" transform="translate(159.033203 0)"/>
      </g>
     </g>
    </g>
    <g id="text_12">
     <!-- $f_{obs}^{g}$ -->
     <g transform="translate(35.1 197.82) rotate(-90) scale(0.3 -0.3)">
      <defs>
       <path id="DejaVuSans-Oblique-66" d="M 3059 4863 
L 2969 4384 
L 2419 4384 
Q 2106 4384 1964 4261 
Q 1822 4138 1753 3809 
L 1691 3500 
L 2638 3500 
L 2553 3053 
L 1606 3053 
L 1013 0 
L 434 0 
L 1031 3053 
L 481 3053 
L 563 3500 
L 1113 3500 
L 1159 3744 
Q 1278 4363 1576 4613 
Q 1875 4863 2516 4863 
L 3059 4863 
z
" transform="scale(0.015625)"/>
       <path id="DejaVuSans-Oblique-67" d="M 3816 3500 
L 3219 434 
Q 3047 -456 2561 -893 
Q 2075 -1331 1253 -1331 
Q 950 -1331 690 -1286 
Q 431 -1241 206 -1147 
L 313 -588 
Q 525 -725 762 -790 
Q 1000 -856 1269 -856 
Q 1816 -856 2167 -557 
Q 2519 -259 2631 300 
L 2681 563 
Q 2441 288 2122 144 
Q 1803 0 1434 0 
Q 903 0 598 351 
Q 294 703 294 1319 
Q 294 1803 478 2267 
Q 663 2731 997 3091 
Q 1219 3328 1514 3456 
Q 1809 3584 2131 3584 
Q 2484 3584 2746 3420 
Q 3009 3256 3138 2956 
L 3238 3500 
L 3816 3500 
z
M 2950 2216 
Q 2950 2641 2750 2872 
Q 2550 3103 2181 3103 
Q 1953 3103 1747 3012 
Q 1541 2922 1394 2759 
Q 1156 2491 1023 2127 
Q 891 1763 891 1375 
Q 891 944 1092 712 
Q 1294 481 1672 481 
Q 2219 481 2584 976 
Q 2950 1472 2950 2216 
z
" transform="scale(0.015625)"/>
      </defs>
      <use xlink:href="#DejaVuSans-Oblique-66" transform="translate(0 0.896875)"/>
      <use xlink:href="#DejaVuSans-Oblique-67" transform="translate(42.652786 53.8) scale(0.7)"/>
      <use xlink:href="#DejaVuSans-Oblique-6f" transform="translate(35.205078 -26.446875) scale(0.7)"/>
      <use xlink:href="#DejaVuSans-Oblique-62" transform="translate(78.032227 -26.446875) scale(0.7)"/>
      <use xlink:href="#DejaVuSans-Oblique-73" transform="translate(122.46582 -26.446875) scale(0.7)"/>
     </g>
    </g>
   </g>
   <g id="patch_3">
    <path d="M 121.596875 339.84 
L 121.596875 7.2 
" style="fill: none; stroke: #000000; stroke-width: 0.8; stroke-linejoin: miter; stroke-linecap: square"/>
   </g>
   <g id="patch_4">
    <path d="M 679.596875 339.84 
L 679.596875 7.2 
" style="fill: none; stroke: #000000; stroke-width: 0.8; stroke-linejoin: miter; stroke-linecap: square"/>
   </g>
   <g id="patch_5">
    <path d="M 121.596875 339.84 
L 679.596875 339.84 
" style="fill: none; stroke: #000000; stroke-width: 0.8; stroke-linejoin: miter; stroke-linecap: square"/>
   </g>
   <g id="patch_6">
    <path d="M 121.596875 7.2 
L 679.596875 7.2 
" style="fill: none; stroke: #000000; stroke-width: 0.8; stroke-linejoin: miter; stroke-linecap: square"/>
   </g>
   <g id="patch_7">
    <path d="M 321.096875 267.768677 
Q 321.096875 234.960738 321.096875 202.1528 
L 317.096875 202.1528 
Q 320.096875 196.153052 323.096875 190.153304 
Q 326.096875 196.153052 329.096875 202.1528 
L 325.096875 202.1528 
Q 325.096875 234.960738 325.096875 267.768677 
L 321.096875 267.768677 
z
" style="fill: #2e8b57"/>
   </g>
   <g id="text_13">
    <!-- $x_{lm}$ -->
    <g style="fill: #2e8b57" transform="translate(327.746875 231.732) scale(0.2 -0.2)">
     <defs>
      <path id="DejaVuSans-Oblique-78" d="M 3841 3500 
L 2234 1784 
L 3219 0 
L 2559 0 
L 1819 1388 
L 531 0 
L -166 0 
L 1556 1844 
L 641 3500 
L 1300 3500 
L 1972 2234 
L 3144 3500 
L 3841 3500 
z
" transform="scale(0.015625)"/>
      <path id="DejaVuSans-Oblique-6c" d="M 1172 4863 
L 1747 4863 
L 800 0 
L 225 0 
L 1172 4863 
z
" transform="scale(0.015625)"/>
      <path id="DejaVuSans-Oblique-6d" d="M 5747 2113 
L 5338 0 
L 4763 0 
L 5166 2094 
Q 5191 2228 5203 2325 
Q 5216 2422 5216 2491 
Q 5216 2772 5059 2928 
Q 4903 3084 4622 3084 
Q 4203 3084 3875 2770 
Q 3547 2456 3450 1953 
L 3066 0 
L 2491 0 
L 2900 2094 
Q 2925 2209 2937 2307 
Q 2950 2406 2950 2484 
Q 2950 2769 2794 2926 
Q 2638 3084 2363 3084 
Q 1938 3084 1609 2770 
Q 1281 2456 1184 1953 
L 800 0 
L 225 0 
L 909 3500 
L 1484 3500 
L 1375 2956 
Q 1609 3263 1923 3423 
Q 2238 3584 2597 3584 
Q 2978 3584 3223 3384 
Q 3469 3184 3519 2828 
Q 3781 3197 4126 3390 
Q 4472 3584 4856 3584 
Q 5306 3584 5551 3325 
Q 5797 3066 5797 2591 
Q 5797 2488 5784 2364 
Q 5772 2241 5747 2113 
z
" transform="scale(0.015625)"/>
     </defs>
     <use xlink:href="#DejaVuSans-Oblique-78" transform="translate(0 0.3125)"/>
     <use xlink:href="#DejaVuSans-Oblique-6c" transform="translate(59.179688 -16.09375) scale(0.7)"/>
     <use xlink:href="#DejaVuSans-Oblique-6d" transform="translate(78.62793 -16.09375) scale(0.7)"/>
    </g>
   </g>
   <g id="text_14">
    <!-- $g_{l}$ -->
    <g style="fill: #2e8b57" transform="translate(332.396875 289.944) scale(0.2 -0.2)">
     <use xlink:href="#DejaVuSans-Oblique-67"/>
     <use xlink:href="#DejaVuSans-Oblique-6c" transform="translate(63.476562 -16.40625) scale(0.7)"/>
    </g>
   </g>
   <g id="text_15">
    <!-- $g_{m}$ -->
    <g style="fill: #4169e1" transform="translate(642.396875 179.064) scale(0.2 -0.2)">
     <use xlink:href="#DejaVuSans-Oblique-67"/>
     <use xlink:href="#DejaVuSans-Oblique-6d" transform="translate(63.476562 -16.40625) scale(0.7)"/>
    </g>
   </g>
   <g id="text_16">
    <!-- $Low\ intensity$ -->
    <g style="fill: #2e8b57" transform="translate(183.596875 270.54) scale(0.2 -0.2)">
     <defs>
      <path id="DejaVuSans-Oblique-4c" d="M 1075 4666 
L 1709 4666 
L 909 525 
L 3181 525 
L 3078 0 
L 172 0 
L 1075 4666 
z
" transform="scale(0.015625)"/>
      <path id="DejaVuSans-Oblique-77" d="M 544 3500 
L 1113 3500 
L 1259 684 
L 2566 3500 
L 3231 3500 
L 3425 684 
L 4666 3500 
L 5241 3500 
L 3641 0 
L 2969 0 
L 2797 2900 
L 1459 0 
L 781 0 
L 544 3500 
z
" transform="scale(0.015625)"/>
      <path id="DejaVuSans-Oblique-69" d="M 1172 4863 
L 1747 4863 
L 1606 4134 
L 1031 4134 
L 1172 4863 
z
M 909 3500 
L 1484 3500 
L 800 0 
L 225 0 
L 909 3500 
z
" transform="scale(0.015625)"/>
      <path id="DejaVuSans-Oblique-6e" d="M 3566 2113 
L 3156 0 
L 2578 0 
L 2988 2091 
Q 3016 2238 3031 2350 
Q 3047 2463 3047 2528 
Q 3047 2791 2881 2937 
Q 2716 3084 2419 3084 
Q 1956 3084 1622 2776 
Q 1288 2469 1184 1941 
L 800 0 
L 225 0 
L 903 3500 
L 1478 3500 
L 1363 2950 
Q 1603 3253 1940 3418 
Q 2278 3584 2650 3584 
Q 3113 3584 3367 3334 
Q 3622 3084 3622 2631 
Q 3622 2519 3608 2391 
Q 3594 2263 3566 2113 
z
" transform="scale(0.015625)"/>
      <path id="DejaVuSans-Oblique-74" d="M 2706 3500 
L 2619 3053 
L 1472 3053 
L 1100 1153 
Q 1081 1047 1072 975 
Q 1063 903 1063 863 
Q 1063 663 1183 572 
Q 1303 481 1569 481 
L 2150 481 
L 2053 0 
L 1503 0 
Q 991 0 739 200 
Q 488 400 488 806 
Q 488 878 497 964 
Q 506 1050 525 1153 
L 897 3053 
L 409 3053 
L 500 3500 
L 978 3500 
L 1172 4494 
L 1747 4494 
L 1556 3500 
L 2706 3500 
z
" transform="scale(0.015625)"/>
      <path id="DejaVuSans-Oblique-65" d="M 3078 2063 
Q 3088 2113 3092 2166 
Q 3097 2219 3097 2272 
Q 3097 2653 2873 2875 
Q 2650 3097 2266 3097 
Q 1838 3097 1509 2826 
Q 1181 2556 1013 2059 
L 3078 2063 
z
M 3578 1613 
L 903 1613 
Q 884 1494 878 1425 
Q 872 1356 872 1306 
Q 872 872 1139 634 
Q 1406 397 1894 397 
Q 2269 397 2603 481 
Q 2938 566 3225 728 
L 3116 159 
Q 2806 34 2476 -28 
Q 2147 -91 1806 -91 
Q 1078 -91 686 257 
Q 294 606 294 1247 
Q 294 1794 489 2264 
Q 684 2734 1063 3103 
Q 1306 3334 1642 3459 
Q 1978 3584 2356 3584 
Q 2950 3584 3301 3228 
Q 3653 2872 3653 2272 
Q 3653 2128 3634 1964 
Q 3616 1800 3578 1613 
z
" transform="scale(0.015625)"/>
      <path id="DejaVuSans-Oblique-79" d="M 1588 -325 
Q 1188 -997 936 -1164 
Q 684 -1331 294 -1331 
L -159 -1331 
L -63 -850 
L 269 -850 
Q 509 -850 678 -719 
Q 847 -588 1056 -206 
L 1234 128 
L 459 3500 
L 1069 3500 
L 1650 819 
L 3256 3500 
L 3859 3500 
L 1588 -325 
z
" transform="scale(0.015625)"/>
     </defs>
     <use xlink:href="#DejaVuSans-Oblique-4c" transform="translate(0 0.015625)"/>
     <use xlink:href="#DejaVuSans-Oblique-6f" transform="translate(55.712891 0.015625)"/>
     <use xlink:href="#DejaVuSans-Oblique-77" transform="translate(116.894531 0.015625)"/>
     <use xlink:href="#DejaVuSans-Oblique-69" transform="translate(231.152019 0.015625)"/>
     <use xlink:href="#DejaVuSans-Oblique-6e" transform="translate(258.935222 0.015625)"/>
     <use xlink:href="#DejaVuSans-Oblique-74" transform="translate(322.314128 0.015625)"/>
     <use xlink:href="#DejaVuSans-Oblique-65" transform="translate(361.523113 0.015625)"/>
     <use xlink:href="#DejaVuSans-Oblique-6e" transform="translate(423.04655 0.015625)"/>
     <use xlink:href="#DejaVuSans-Oblique-73" transform="translate(486.425457 0.015625)"/>
     <use xlink:href="#DejaVuSans-Oblique-69" transform="translate(538.525066 0.015625)"/>
     <use xlink:href="#DejaVuSans-Oblique-74" transform="translate(566.308269 0.015625)"/>
     <use xlink:href="#DejaVuSans-Oblique-79" transform="translate(605.517253 0.015625)"/>
    </g>
   </g>
   <g id="text_17">
    <!-- $Medium\ intensity$ -->
    <g style="fill: #4169e1" transform="translate(447.096875 159.66) scale(0.2 -0.2)">
     <defs>
      <path id="DejaVuSans-Oblique-4d" d="M 1081 4666 
L 2028 4666 
L 2572 1522 
L 4378 4666 
L 5350 4666 
L 4441 0 
L 3828 0 
L 4622 4091 
L 2791 897 
L 2175 897 
L 1581 4103 
L 788 0 
L 172 0 
L 1081 4666 
z
" transform="scale(0.015625)"/>
      <path id="DejaVuSans-Oblique-64" d="M 2675 525 
Q 2444 222 2128 65 
Q 1813 -91 1428 -91 
Q 903 -91 598 267 
Q 294 625 294 1247 
Q 294 1766 478 2236 
Q 663 2706 1013 3078 
Q 1244 3325 1534 3454 
Q 1825 3584 2144 3584 
Q 2481 3584 2739 3421 
Q 2997 3259 3138 2956 
L 3513 4863 
L 4091 4863 
L 3144 0 
L 2566 0 
L 2675 525 
z
M 891 1350 
Q 891 897 1095 644 
Q 1300 391 1663 391 
Q 1931 391 2161 520 
Q 2391 650 2566 903 
Q 2750 1166 2856 1509 
Q 2963 1853 2963 2188 
Q 2963 2622 2758 2865 
Q 2553 3109 2194 3109 
Q 1922 3109 1687 2981 
Q 1453 2853 1288 2613 
Q 1106 2353 998 2009 
Q 891 1666 891 1350 
z
" transform="scale(0.015625)"/>
      <path id="DejaVuSans-Oblique-75" d="M 428 1388 
L 838 3500 
L 1416 3500 
L 1006 1409 
Q 975 1256 961 1147 
Q 947 1038 947 966 
Q 947 700 1109 554 
Q 1272 409 1569 409 
Q 2031 409 2368 721 
Q 2706 1034 2809 1563 
L 3194 3500 
L 3769 3500 
L 3091 0 
L 2516 0 
L 2631 550 
Q 2388 244 2052 76 
Q 1716 -91 1338 -91 
Q 878 -91 622 161 
Q 366 413 366 863 
Q 366 956 381 1097 
Q 397 1238 428 1388 
z
" transform="scale(0.015625)"/>
     </defs>
     <use xlink:href="#DejaVuSans-Oblique-4d" transform="translate(0 0.015625)"/>
     <use xlink:href="#DejaVuSans-Oblique-65" transform="translate(86.279297 0.015625)"/>
     <use xlink:href="#DejaVuSans-Oblique-64" transform="translate(147.802734 0.015625)"/>
     <use xlink:href="#DejaVuSans-Oblique-69" transform="translate(211.279297 0.015625)"/>
     <use xlink:href="#DejaVuSans-Oblique-75" transform="translate(239.0625 0.015625)"/>
     <use xlink:href="#DejaVuSans-Oblique-6d" transform="translate(302.441406 0.015625)"/>
     <use xlink:href="#DejaVuSans-Oblique-69" transform="translate(432.323894 0.015625)"/>
     <use xlink:href="#DejaVuSans-Oblique-6e" transform="translate(460.107097 0.015625)"/>
     <use xlink:href="#DejaVuSans-Oblique-74" transform="translate(523.486003 0.015625)"/>
     <use xlink:href="#DejaVuSans-Oblique-65" transform="translate(562.694988 0.015625)"/>
     <use xlink:href="#DejaVuSans-Oblique-6e" transform="translate(624.218425 0.015625)"/>
     <use xlink:href="#DejaVuSans-Oblique-73" transform="translate(687.597332 0.015625)"/>
     <use xlink:href="#DejaVuSans-Oblique-69" transform="translate(739.696941 0.015625)"/>
     <use xlink:href="#DejaVuSans-Oblique-74" transform="translate(767.480144 0.015625)"/>
     <use xlink:href="#DejaVuSans-Oblique-79" transform="translate(806.689128 0.015625)"/>
    </g>
   </g>
  </g>
 </g>
 <defs>
  <clipPath id="p40f75b8dc9">
   <rect x="121.596875" y="7.2" width="558" height="332.64"/>
  </clipPath>
 </defs>
</svg>
