<?xml version="1.0" encoding="utf-8" standalone="no"?>
<!DOCTYPE svg PUBLIC "-//W3C//DTD SVG 1.1//EN"
  "http://www.w3.org/Graphics/SVG/1.1/DTD/svg11.dtd">
<svg xmlns:xlink="http://www.w3.org/1999/xlink" width="510.5125pt" height="507.6325pt" viewBox="0 0 510.5125 507.6325" xmlns="http://www.w3.org/2000/svg" version="1.1">
 <metadata>
  <rdf:RDF xmlns:dc="http://purl.org/dc/elements/1.1/" xmlns:cc="http://creativecommons.org/ns#" xmlns:rdf="http://www.w3.org/1999/02/22-rdf-syntax-ns#">
   <cc:Work>
    <dc:type rdf:resource="http://purl.org/dc/dcmitype/StillImage"/>
    <dc:date>2025-05-12T14:45:46.901494</dc:date>
    <dc:format>image/svg+xml</dc:format>
    <dc:creator>
     <cc:Agent>
      <dc:title>Matplotlib v3.10.1, https://matplotlib.org/</dc:title>
     </cc:Agent>
    </dc:creator>
   </cc:Work>
  </rdf:RDF>
 </metadata>
 <defs>
  <style type="text/css">*{stroke-linejoin: round; stroke-linecap: butt}</style>
 </defs>
 <g id="figure_1">
  <g id="patch_1">
   <path d="M 0 507.6325 
L 510.5125 507.6325 
L 510.5125 0 
L 0 0 
z
" style="fill: #ffffff"/>
  </g>
  <g id="axes_1">
   <g id="patch_2">
    <path d="M 56.9125 450.72 
L 503.3125 450.72 
L 503.3125 7.2 
L 56.9125 7.2 
z
" style="fill: #ffffff"/>
   </g>
   <g id="QuadMesh_1">
    <path d="M 56.9125 7.2 
L 112.7125 7.2 
L 112.7125 62.64 
L 56.9125 62.64 
L 56.9125 7.2 
" clip-path="url(#p7419d5e407)" style="fill: #fde725"/>
    <path d="M 112.7125 7.2 
L 168.5125 7.2 
L 168.5125 62.64 
L 112.7125 62.64 
L 112.7125 7.2 
" clip-path="url(#p7419d5e407)" style="fill: #cae11f"/>
    <path d="M 168.5125 7.2 
L 224.3125 7.2 
L 224.3125 62.64 
L 168.5125 62.64 
L 168.5125 7.2 
" clip-path="url(#p7419d5e407)" style="fill: #a5db36"/>
    <path d="M 224.3125 7.2 
L 280.1125 7.2 
L 280.1125 62.64 
L 224.3125 62.64 
L 224.3125 7.2 
" clip-path="url(#p7419d5e407)" style="fill: #73d056"/>
    <path d="M 280.1125 7.2 
L 335.9125 7.2 
L 335.9125 62.64 
L 280.1125 62.64 
L 280.1125 7.2 
" clip-path="url(#p7419d5e407)" style="fill: #54c568"/>
    <path d="M 335.9125 7.2 
L 391.7125 7.2 
L 391.7125 62.64 
L 335.9125 62.64 
L 335.9125 7.2 
" clip-path="url(#p7419d5e407)" style="fill: #35b779"/>
    <path d="M 391.7125 7.2 
L 447.5125 7.2 
L 447.5125 62.64 
L 391.7125 62.64 
L 391.7125 7.2 
" clip-path="url(#p7419d5e407)" style="fill: #32b67a"/>
    <path d="M 447.5125 7.2 
L 503.3125 7.2 
L 503.3125 62.64 
L 447.5125 62.64 
L 447.5125 7.2 
" clip-path="url(#p7419d5e407)" style="fill: #3aba76"/>
    <path d="M 56.9125 62.64 
L 112.7125 62.64 
L 112.7125 118.08 
L 56.9125 118.08 
L 56.9125 62.64 
" clip-path="url(#p7419d5e407)" style="fill: #dae319"/>
    <path d="M 112.7125 62.64 
L 168.5125 62.64 
L 168.5125 118.08 
L 112.7125 118.08 
L 112.7125 62.64 
" clip-path="url(#p7419d5e407)" style="fill: #90d743"/>
    <path d="M 168.5125 62.64 
L 224.3125 62.64 
L 224.3125 118.08 
L 168.5125 118.08 
L 168.5125 62.64 
" clip-path="url(#p7419d5e407)" style="fill: #81d34d"/>
    <path d="M 224.3125 62.64 
L 280.1125 62.64 
L 280.1125 118.08 
L 224.3125 118.08 
L 224.3125 62.64 
" clip-path="url(#p7419d5e407)" style="fill: #44bf70"/>
    <path d="M 280.1125 62.64 
L 335.9125 62.64 
L 335.9125 118.08 
L 280.1125 118.08 
L 280.1125 62.64 
" clip-path="url(#p7419d5e407)" style="fill: #3aba76"/>
    <path d="M 335.9125 62.64 
L 391.7125 62.64 
L 391.7125 118.08 
L 335.9125 118.08 
L 335.9125 62.64 
" clip-path="url(#p7419d5e407)" style="fill: #25ac82"/>
    <path d="M 391.7125 62.64 
L 447.5125 62.64 
L 447.5125 118.08 
L 391.7125 118.08 
L 391.7125 62.64 
" clip-path="url(#p7419d5e407)" style="fill: #24aa83"/>
    <path d="M 447.5125 62.64 
L 503.3125 62.64 
L 503.3125 118.08 
L 447.5125 118.08 
L 447.5125 62.64 
" clip-path="url(#p7419d5e407)" style="fill: #20928c"/>
    <path d="M 56.9125 118.08 
L 112.7125 118.08 
L 112.7125 173.52 
L 56.9125 173.52 
L 56.9125 118.08 
" clip-path="url(#p7419d5e407)" style="fill: #93d741"/>
    <path d="M 112.7125 118.08 
L 168.5125 118.08 
L 168.5125 173.52 
L 112.7125 173.52 
L 112.7125 118.08 
" clip-path="url(#p7419d5e407)" style="fill: #4ec36b"/>
    <path d="M 168.5125 118.08 
L 224.3125 118.08 
L 224.3125 173.52 
L 168.5125 173.52 
L 168.5125 118.08 
" clip-path="url(#p7419d5e407)" style="fill: #32b67a"/>
    <path d="M 224.3125 118.08 
L 280.1125 118.08 
L 280.1125 173.52 
L 224.3125 173.52 
L 224.3125 118.08 
" clip-path="url(#p7419d5e407)" style="fill: #2eb37c"/>
    <path d="M 280.1125 118.08 
L 335.9125 118.08 
L 335.9125 173.52 
L 280.1125 173.52 
L 280.1125 118.08 
" clip-path="url(#p7419d5e407)" style="fill: #24aa83"/>
    <path d="M 335.9125 118.08 
L 391.7125 118.08 
L 391.7125 173.52 
L 335.9125 173.52 
L 335.9125 118.08 
" clip-path="url(#p7419d5e407)" style="fill: #25ab82"/>
    <path d="M 391.7125 118.08 
L 447.5125 118.08 
L 447.5125 173.52 
L 391.7125 173.52 
L 391.7125 118.08 
" clip-path="url(#p7419d5e407)" style="fill: #1f9e89"/>
    <path d="M 447.5125 118.08 
L 503.3125 118.08 
L 503.3125 173.52 
L 447.5125 173.52 
L 447.5125 118.08 
" clip-path="url(#p7419d5e407)" style="fill: #23888e"/>
    <path d="M 56.9125 173.52 
L 112.7125 173.52 
L 112.7125 228.96 
L 56.9125 228.96 
L 56.9125 173.52 
" clip-path="url(#p7419d5e407)" style="fill: #6ccd5a"/>
    <path d="M 112.7125 173.52 
L 168.5125 173.52 
L 168.5125 228.96 
L 112.7125 228.96 
L 112.7125 173.52 
" clip-path="url(#p7419d5e407)" style="fill: #38b977"/>
    <path d="M 168.5125 173.52 
L 224.3125 173.52 
L 224.3125 228.96 
L 168.5125 228.96 
L 168.5125 173.52 
" clip-path="url(#p7419d5e407)" style="fill: #24aa83"/>
    <path d="M 224.3125 173.52 
L 280.1125 173.52 
L 280.1125 228.96 
L 224.3125 228.96 
L 224.3125 173.52 
" clip-path="url(#p7419d5e407)" style="fill: #1f978b"/>
    <path d="M 280.1125 173.52 
L 335.9125 173.52 
L 335.9125 228.96 
L 280.1125 228.96 
L 280.1125 173.52 
" clip-path="url(#p7419d5e407)" style="fill: #21908d"/>
    <path d="M 335.9125 173.52 
L 391.7125 173.52 
L 391.7125 228.96 
L 335.9125 228.96 
L 335.9125 173.52 
" clip-path="url(#p7419d5e407)" style="fill: #26818e"/>
    <path d="M 391.7125 173.52 
L 447.5125 173.52 
L 447.5125 228.96 
L 391.7125 228.96 
L 391.7125 173.52 
" clip-path="url(#p7419d5e407)" style="fill: #26818e"/>
    <path d="M 447.5125 173.52 
L 503.3125 173.52 
L 503.3125 228.96 
L 447.5125 228.96 
L 447.5125 173.52 
" clip-path="url(#p7419d5e407)" style="fill: #2b758e"/>
    <path d="M 56.9125 228.96 
L 112.7125 228.96 
L 112.7125 284.4 
L 56.9125 284.4 
L 56.9125 228.96 
" clip-path="url(#p7419d5e407)" style="fill: #38b977"/>
    <path d="M 112.7125 228.96 
L 168.5125 228.96 
L 168.5125 284.4 
L 112.7125 284.4 
L 112.7125 228.96 
" clip-path="url(#p7419d5e407)" style="fill: #20a386"/>
    <path d="M 168.5125 228.96 
L 224.3125 228.96 
L 224.3125 284.4 
L 168.5125 284.4 
L 168.5125 228.96 
" clip-path="url(#p7419d5e407)" style="fill: #1f948c"/>
    <path d="M 224.3125 228.96 
L 280.1125 228.96 
L 280.1125 284.4 
L 224.3125 284.4 
L 224.3125 228.96 
" clip-path="url(#p7419d5e407)" style="fill: #23898e"/>
    <path d="M 280.1125 228.96 
L 335.9125 228.96 
L 335.9125 284.4 
L 280.1125 284.4 
L 280.1125 228.96 
" clip-path="url(#p7419d5e407)" style="fill: #277e8e"/>
    <path d="M 335.9125 228.96 
L 391.7125 228.96 
L 391.7125 284.4 
L 335.9125 284.4 
L 335.9125 228.96 
" clip-path="url(#p7419d5e407)" style="fill: #287c8e"/>
    <path d="M 391.7125 228.96 
L 447.5125 228.96 
L 447.5125 284.4 
L 391.7125 284.4 
L 391.7125 228.96 
" clip-path="url(#p7419d5e407)" style="fill: #2c738e"/>
    <path d="M 447.5125 228.96 
L 503.3125 228.96 
L 503.3125 284.4 
L 447.5125 284.4 
L 447.5125 228.96 
" clip-path="url(#p7419d5e407)" style="fill: #297b8e"/>
    <path d="M 56.9125 284.4 
L 112.7125 284.4 
L 112.7125 339.84 
L 56.9125 339.84 
L 56.9125 284.4 
" clip-path="url(#p7419d5e407)" style="fill: #1fa188"/>
    <path d="M 112.7125 284.4 
L 168.5125 284.4 
L 168.5125 339.84 
L 112.7125 339.84 
L 112.7125 284.4 
" clip-path="url(#p7419d5e407)" style="fill: #228b8d"/>
    <path d="M 168.5125 284.4 
L 224.3125 284.4 
L 224.3125 339.84 
L 168.5125 339.84 
L 168.5125 284.4 
" clip-path="url(#p7419d5e407)" style="fill: #297a8e"/>
    <path d="M 224.3125 284.4 
L 280.1125 284.4 
L 280.1125 339.84 
L 224.3125 339.84 
L 224.3125 284.4 
" clip-path="url(#p7419d5e407)" style="fill: #32658e"/>
    <path d="M 280.1125 284.4 
L 335.9125 284.4 
L 335.9125 339.84 
L 280.1125 339.84 
L 280.1125 284.4 
" clip-path="url(#p7419d5e407)" style="fill: #38598c"/>
    <path d="M 335.9125 284.4 
L 391.7125 284.4 
L 391.7125 339.84 
L 335.9125 339.84 
L 335.9125 284.4 
" clip-path="url(#p7419d5e407)" style="fill: #34608d"/>
    <path d="M 391.7125 284.4 
L 447.5125 284.4 
L 447.5125 339.84 
L 391.7125 339.84 
L 391.7125 284.4 
" clip-path="url(#p7419d5e407)" style="fill: #3b528b"/>
    <path d="M 447.5125 284.4 
L 503.3125 284.4 
L 503.3125 339.84 
L 447.5125 339.84 
L 447.5125 284.4 
" clip-path="url(#p7419d5e407)" style="fill: #3b528b"/>
    <path d="M 56.9125 339.84 
L 112.7125 339.84 
L 112.7125 395.28 
L 56.9125 395.28 
L 56.9125 339.84 
" clip-path="url(#p7419d5e407)" style="fill: #26828e"/>
    <path d="M 112.7125 339.84 
L 168.5125 339.84 
L 168.5125 395.28 
L 112.7125 395.28 
L 112.7125 339.84 
" clip-path="url(#p7419d5e407)" style="fill: #2d708e"/>
    <path d="M 168.5125 339.84 
L 224.3125 339.84 
L 224.3125 395.28 
L 168.5125 395.28 
L 168.5125 339.84 
" clip-path="url(#p7419d5e407)" style="fill: #39568c"/>
    <path d="M 224.3125 339.84 
L 280.1125 339.84 
L 280.1125 395.28 
L 224.3125 395.28 
L 224.3125 339.84 
" clip-path="url(#p7419d5e407)" style="fill: #3e4989"/>
    <path d="M 280.1125 339.84 
L 335.9125 339.84 
L 335.9125 395.28 
L 280.1125 395.28 
L 280.1125 339.84 
" clip-path="url(#p7419d5e407)" style="fill: #424086"/>
    <path d="M 335.9125 339.84 
L 391.7125 339.84 
L 391.7125 395.28 
L 335.9125 395.28 
L 335.9125 339.84 
" clip-path="url(#p7419d5e407)" style="fill: #453581"/>
    <path d="M 391.7125 339.84 
L 447.5125 339.84 
L 447.5125 395.28 
L 391.7125 395.28 
L 391.7125 339.84 
" clip-path="url(#p7419d5e407)" style="fill: #424186"/>
    <path d="M 447.5125 339.84 
L 503.3125 339.84 
L 503.3125 395.28 
L 447.5125 395.28 
L 447.5125 339.84 
" clip-path="url(#p7419d5e407)" style="fill: #472d7b"/>
    <path d="M 56.9125 395.28 
L 112.7125 395.28 
L 112.7125 450.72 
L 56.9125 450.72 
L 56.9125 395.28 
" clip-path="url(#p7419d5e407)" style="fill: #34618d"/>
    <path d="M 112.7125 395.28 
L 168.5125 395.28 
L 168.5125 450.72 
L 112.7125 450.72 
L 112.7125 395.28 
" clip-path="url(#p7419d5e407)" style="fill: #3e4a89"/>
    <path d="M 168.5125 395.28 
L 224.3125 395.28 
L 224.3125 450.72 
L 168.5125 450.72 
L 168.5125 395.28 
" clip-path="url(#p7419d5e407)" style="fill: #453882"/>
    <path d="M 224.3125 395.28 
L 280.1125 395.28 
L 280.1125 450.72 
L 224.3125 450.72 
L 224.3125 395.28 
" clip-path="url(#p7419d5e407)" style="fill: #482071"/>
    <path d="M 280.1125 395.28 
L 335.9125 395.28 
L 335.9125 450.72 
L 280.1125 450.72 
L 280.1125 395.28 
" clip-path="url(#p7419d5e407)" style="fill: #481668"/>
    <path d="M 335.9125 395.28 
L 391.7125 395.28 
L 391.7125 450.72 
L 335.9125 450.72 
L 335.9125 395.28 
" clip-path="url(#p7419d5e407)" style="fill: #460b5e"/>
    <path d="M 391.7125 395.28 
L 447.5125 395.28 
L 447.5125 450.72 
L 391.7125 450.72 
L 391.7125 395.28 
" clip-path="url(#p7419d5e407)" style="fill: #450559"/>
    <path d="M 447.5125 395.28 
L 503.3125 395.28 
L 503.3125 450.72 
L 447.5125 450.72 
L 447.5125 395.28 
" clip-path="url(#p7419d5e407)" style="fill: #440154"/>
   </g>
   <g id="matplotlib.axis_1">
    <g id="xtick_1">
     <g id="line2d_1">
      <defs>
       <path id="md422406041" d="M 0 0 
L 0 3.5 
" style="stroke: #000000; stroke-width: 0.8"/>
      </defs>
      <g>
       <use xlink:href="#md422406041" x="84.8125" y="450.72" style="stroke: #000000; stroke-width: 0.8"/>
      </g>
     </g>
     <g id="text_1">
      <!-- 3 -->
      <g transform="translate(78.45 472.916875) scale(0.2 -0.2)">
       <defs>
        <path id="DejaVuSans-33" d="M 2597 2516 
Q 3050 2419 3304 2112 
Q 3559 1806 3559 1356 
Q 3559 666 3084 287 
Q 2609 -91 1734 -91 
Q 1441 -91 1130 -33 
Q 819 25 488 141 
L 488 750 
Q 750 597 1062 519 
Q 1375 441 1716 441 
Q 2309 441 2620 675 
Q 2931 909 2931 1356 
Q 2931 1769 2642 2001 
Q 2353 2234 1838 2234 
L 1294 2234 
L 1294 2753 
L 1863 2753 
Q 2328 2753 2575 2939 
Q 2822 3125 2822 3475 
Q 2822 3834 2567 4026 
Q 2313 4219 1838 4219 
Q 1578 4219 1281 4162 
Q 984 4106 628 3988 
L 628 4550 
Q 988 4650 1302 4700 
Q 1616 4750 1894 4750 
Q 2613 4750 3031 4423 
Q 3450 4097 3450 3541 
Q 3450 3153 3228 2886 
Q 3006 2619 2597 2516 
z
" transform="scale(0.015625)"/>
       </defs>
       <use xlink:href="#DejaVuSans-33"/>
      </g>
     </g>
    </g>
    <g id="xtick_2">
     <g id="line2d_2">
      <g>
       <use xlink:href="#md422406041" x="140.6125" y="450.72" style="stroke: #000000; stroke-width: 0.8"/>
      </g>
     </g>
     <g id="text_2">
      <!-- 4 -->
      <g transform="translate(134.25 472.916875) scale(0.2 -0.2)">
       <defs>
        <path id="DejaVuSans-34" d="M 2419 4116 
L 825 1625 
L 2419 1625 
L 2419 4116 
z
M 2253 4666 
L 3047 4666 
L 3047 1625 
L 3713 1625 
L 3713 1100 
L 3047 1100 
L 3047 0 
L 2419 0 
L 2419 1100 
L 313 1100 
L 313 1709 
L 2253 4666 
z
" transform="scale(0.015625)"/>
       </defs>
       <use xlink:href="#DejaVuSans-34"/>
      </g>
     </g>
    </g>
    <g id="xtick_3">
     <g id="line2d_3">
      <g>
       <use xlink:href="#md422406041" x="196.4125" y="450.72" style="stroke: #000000; stroke-width: 0.8"/>
      </g>
     </g>
     <g id="text_3">
      <!-- 5 -->
      <g transform="translate(190.05 472.916875) scale(0.2 -0.2)">
       <defs>
        <path id="DejaVuSans-35" d="M 691 4666 
L 3169 4666 
L 3169 4134 
L 1269 4134 
L 1269 2991 
Q 1406 3038 1543 3061 
Q 1681 3084 1819 3084 
Q 2600 3084 3056 2656 
Q 3513 2228 3513 1497 
Q 3513 744 3044 326 
Q 2575 -91 1722 -91 
Q 1428 -91 1123 -41 
Q 819 9 494 109 
L 494 744 
Q 775 591 1075 516 
Q 1375 441 1709 441 
Q 2250 441 2565 725 
Q 2881 1009 2881 1497 
Q 2881 1984 2565 2268 
Q 2250 2553 1709 2553 
Q 1456 2553 1204 2497 
Q 953 2441 691 2322 
L 691 4666 
z
" transform="scale(0.015625)"/>
       </defs>
       <use xlink:href="#DejaVuSans-35"/>
      </g>
     </g>
    </g>
    <g id="xtick_4">
     <g id="line2d_4">
      <g>
       <use xlink:href="#md422406041" x="252.2125" y="450.72" style="stroke: #000000; stroke-width: 0.8"/>
      </g>
     </g>
     <g id="text_4">
      <!-- 6 -->
      <g transform="translate(245.85 472.916875) scale(0.2 -0.2)">
       <defs>
        <path id="DejaVuSans-36" d="M 2113 2584 
Q 1688 2584 1439 2293 
Q 1191 2003 1191 1497 
Q 1191 994 1439 701 
Q 1688 409 2113 409 
Q 2538 409 2786 701 
Q 3034 994 3034 1497 
Q 3034 2003 2786 2293 
Q 2538 2584 2113 2584 
z
M 3366 4563 
L 3366 3988 
Q 3128 4100 2886 4159 
Q 2644 4219 2406 4219 
Q 1781 4219 1451 3797 
Q 1122 3375 1075 2522 
Q 1259 2794 1537 2939 
Q 1816 3084 2150 3084 
Q 2853 3084 3261 2657 
Q 3669 2231 3669 1497 
Q 3669 778 3244 343 
Q 2819 -91 2113 -91 
Q 1303 -91 875 529 
Q 447 1150 447 2328 
Q 447 3434 972 4092 
Q 1497 4750 2381 4750 
Q 2619 4750 2861 4703 
Q 3103 4656 3366 4563 
z
" transform="scale(0.015625)"/>
       </defs>
       <use xlink:href="#DejaVuSans-36"/>
      </g>
     </g>
    </g>
    <g id="xtick_5">
     <g id="line2d_5">
      <g>
       <use xlink:href="#md422406041" x="308.0125" y="450.72" style="stroke: #000000; stroke-width: 0.8"/>
      </g>
     </g>
     <g id="text_5">
      <!-- 7 -->
      <g transform="translate(301.65 472.916875) scale(0.2 -0.2)">
       <defs>
        <path id="DejaVuSans-37" d="M 525 4666 
L 3525 4666 
L 3525 4397 
L 1831 0 
L 1172 0 
L 2766 4134 
L 525 4134 
L 525 4666 
z
" transform="scale(0.015625)"/>
       </defs>
       <use xlink:href="#DejaVuSans-37"/>
      </g>
     </g>
    </g>
    <g id="xtick_6">
     <g id="line2d_6">
      <g>
       <use xlink:href="#md422406041" x="363.8125" y="450.72" style="stroke: #000000; stroke-width: 0.8"/>
      </g>
     </g>
     <g id="text_6">
      <!-- 8 -->
      <g transform="translate(357.45 472.916875) scale(0.2 -0.2)">
       <defs>
        <path id="DejaVuSans-38" d="M 2034 2216 
Q 1584 2216 1326 1975 
Q 1069 1734 1069 1313 
Q 1069 891 1326 650 
Q 1584 409 2034 409 
Q 2484 409 2743 651 
Q 3003 894 3003 1313 
Q 3003 1734 2745 1975 
Q 2488 2216 2034 2216 
z
M 1403 2484 
Q 997 2584 770 2862 
Q 544 3141 544 3541 
Q 544 4100 942 4425 
Q 1341 4750 2034 4750 
Q 2731 4750 3128 4425 
Q 3525 4100 3525 3541 
Q 3525 3141 3298 2862 
Q 3072 2584 2669 2484 
Q 3125 2378 3379 2068 
Q 3634 1759 3634 1313 
Q 3634 634 3220 271 
Q 2806 -91 2034 -91 
Q 1263 -91 848 271 
Q 434 634 434 1313 
Q 434 1759 690 2068 
Q 947 2378 1403 2484 
z
M 1172 3481 
Q 1172 3119 1398 2916 
Q 1625 2713 2034 2713 
Q 2441 2713 2670 2916 
Q 2900 3119 2900 3481 
Q 2900 3844 2670 4047 
Q 2441 4250 2034 4250 
Q 1625 4250 1398 4047 
Q 1172 3844 1172 3481 
z
" transform="scale(0.015625)"/>
       </defs>
       <use xlink:href="#DejaVuSans-38"/>
      </g>
     </g>
    </g>
    <g id="xtick_7">
     <g id="line2d_7">
      <g>
       <use xlink:href="#md422406041" x="419.6125" y="450.72" style="stroke: #000000; stroke-width: 0.8"/>
      </g>
     </g>
     <g id="text_7">
      <!-- 9 -->
      <g transform="translate(413.25 472.916875) scale(0.2 -0.2)">
       <defs>
        <path id="DejaVuSans-39" d="M 703 97 
L 703 672 
Q 941 559 1184 500 
Q 1428 441 1663 441 
Q 2288 441 2617 861 
Q 2947 1281 2994 2138 
Q 2813 1869 2534 1725 
Q 2256 1581 1919 1581 
Q 1219 1581 811 2004 
Q 403 2428 403 3163 
Q 403 3881 828 4315 
Q 1253 4750 1959 4750 
Q 2769 4750 3195 4129 
Q 3622 3509 3622 2328 
Q 3622 1225 3098 567 
Q 2575 -91 1691 -91 
Q 1453 -91 1209 -44 
Q 966 3 703 97 
z
M 1959 2075 
Q 2384 2075 2632 2365 
Q 2881 2656 2881 3163 
Q 2881 3666 2632 3958 
Q 2384 4250 1959 4250 
Q 1534 4250 1286 3958 
Q 1038 3666 1038 3163 
Q 1038 2656 1286 2365 
Q 1534 2075 1959 2075 
z
" transform="scale(0.015625)"/>
       </defs>
       <use xlink:href="#DejaVuSans-39"/>
      </g>
     </g>
    </g>
    <g id="xtick_8">
     <g id="line2d_8">
      <g>
       <use xlink:href="#md422406041" x="475.4125" y="450.72" style="stroke: #000000; stroke-width: 0.8"/>
      </g>
     </g>
     <g id="text_8">
      <!-- 10 -->
      <g transform="translate(462.6875 472.916875) scale(0.2 -0.2)">
       <defs>
        <path id="DejaVuSans-31" d="M 794 531 
L 1825 531 
L 1825 4091 
L 703 3866 
L 703 4441 
L 1819 4666 
L 2450 4666 
L 2450 531 
L 3481 531 
L 3481 0 
L 794 0 
L 794 531 
z
" transform="scale(0.015625)"/>
        <path id="DejaVuSans-30" d="M 2034 4250 
Q 1547 4250 1301 3770 
Q 1056 3291 1056 2328 
Q 1056 1369 1301 889 
Q 1547 409 2034 409 
Q 2525 409 2770 889 
Q 3016 1369 3016 2328 
Q 3016 3291 2770 3770 
Q 2525 4250 2034 4250 
z
M 2034 4750 
Q 2819 4750 3233 4129 
Q 3647 3509 3647 2328 
Q 3647 1150 3233 529 
Q 2819 -91 2034 -91 
Q 1250 -91 836 529 
Q 422 1150 422 2328 
Q 422 3509 836 4129 
Q 1250 4750 2034 4750 
z
" transform="scale(0.015625)"/>
       </defs>
       <use xlink:href="#DejaVuSans-31"/>
       <use xlink:href="#DejaVuSans-30" transform="translate(63.623047 0)"/>
      </g>
     </g>
    </g>
    <g id="text_9">
     <!-- Degree (I-layer) -->
     <g transform="translate(201.090625 496.273125) scale(0.2 -0.2)">
      <defs>
       <path id="DejaVuSans-44" d="M 1259 4147 
L 1259 519 
L 2022 519 
Q 2988 519 3436 956 
Q 3884 1394 3884 2338 
Q 3884 3275 3436 3711 
Q 2988 4147 2022 4147 
L 1259 4147 
z
M 628 4666 
L 1925 4666 
Q 3281 4666 3915 4102 
Q 4550 3538 4550 2338 
Q 4550 1131 3912 565 
Q 3275 0 1925 0 
L 628 0 
L 628 4666 
z
" transform="scale(0.015625)"/>
       <path id="DejaVuSans-65" d="M 3597 1894 
L 3597 1613 
L 953 1613 
Q 991 1019 1311 708 
Q 1631 397 2203 397 
Q 2534 397 2845 478 
Q 3156 559 3463 722 
L 3463 178 
Q 3153 47 2828 -22 
Q 2503 -91 2169 -91 
Q 1331 -91 842 396 
Q 353 884 353 1716 
Q 353 2575 817 3079 
Q 1281 3584 2069 3584 
Q 2775 3584 3186 3129 
Q 3597 2675 3597 1894 
z
M 3022 2063 
Q 3016 2534 2758 2815 
Q 2500 3097 2075 3097 
Q 1594 3097 1305 2825 
Q 1016 2553 972 2059 
L 3022 2063 
z
" transform="scale(0.015625)"/>
       <path id="DejaVuSans-67" d="M 2906 1791 
Q 2906 2416 2648 2759 
Q 2391 3103 1925 3103 
Q 1463 3103 1205 2759 
Q 947 2416 947 1791 
Q 947 1169 1205 825 
Q 1463 481 1925 481 
Q 2391 481 2648 825 
Q 2906 1169 2906 1791 
z
M 3481 434 
Q 3481 -459 3084 -895 
Q 2688 -1331 1869 -1331 
Q 1566 -1331 1297 -1286 
Q 1028 -1241 775 -1147 
L 775 -588 
Q 1028 -725 1275 -790 
Q 1522 -856 1778 -856 
Q 2344 -856 2625 -561 
Q 2906 -266 2906 331 
L 2906 616 
Q 2728 306 2450 153 
Q 2172 0 1784 0 
Q 1141 0 747 490 
Q 353 981 353 1791 
Q 353 2603 747 3093 
Q 1141 3584 1784 3584 
Q 2172 3584 2450 3431 
Q 2728 3278 2906 2969 
L 2906 3500 
L 3481 3500 
L 3481 434 
z
" transform="scale(0.015625)"/>
       <path id="DejaVuSans-72" d="M 2631 2963 
Q 2534 3019 2420 3045 
Q 2306 3072 2169 3072 
Q 1681 3072 1420 2755 
Q 1159 2438 1159 1844 
L 1159 0 
L 581 0 
L 581 3500 
L 1159 3500 
L 1159 2956 
Q 1341 3275 1631 3429 
Q 1922 3584 2338 3584 
Q 2397 3584 2469 3576 
Q 2541 3569 2628 3553 
L 2631 2963 
z
" transform="scale(0.015625)"/>
       <path id="DejaVuSans-20" transform="scale(0.015625)"/>
       <path id="DejaVuSans-28" d="M 1984 4856 
Q 1566 4138 1362 3434 
Q 1159 2731 1159 2009 
Q 1159 1288 1364 580 
Q 1569 -128 1984 -844 
L 1484 -844 
Q 1016 -109 783 600 
Q 550 1309 550 2009 
Q 550 2706 781 3412 
Q 1013 4119 1484 4856 
L 1984 4856 
z
" transform="scale(0.015625)"/>
       <path id="DejaVuSans-49" d="M 628 4666 
L 1259 4666 
L 1259 0 
L 628 0 
L 628 4666 
z
" transform="scale(0.015625)"/>
       <path id="DejaVuSans-2d" d="M 313 2009 
L 1997 2009 
L 1997 1497 
L 313 1497 
L 313 2009 
z
" transform="scale(0.015625)"/>
       <path id="DejaVuSans-6c" d="M 603 4863 
L 1178 4863 
L 1178 0 
L 603 0 
L 603 4863 
z
" transform="scale(0.015625)"/>
       <path id="DejaVuSans-61" d="M 2194 1759 
Q 1497 1759 1228 1600 
Q 959 1441 959 1056 
Q 959 750 1161 570 
Q 1363 391 1709 391 
Q 2188 391 2477 730 
Q 2766 1069 2766 1631 
L 2766 1759 
L 2194 1759 
z
M 3341 1997 
L 3341 0 
L 2766 0 
L 2766 531 
Q 2569 213 2275 61 
Q 1981 -91 1556 -91 
Q 1019 -91 701 211 
Q 384 513 384 1019 
Q 384 1609 779 1909 
Q 1175 2209 1959 2209 
L 2766 2209 
L 2766 2266 
Q 2766 2663 2505 2880 
Q 2244 3097 1772 3097 
Q 1472 3097 1187 3025 
Q 903 2953 641 2809 
L 641 3341 
Q 956 3463 1253 3523 
Q 1550 3584 1831 3584 
Q 2591 3584 2966 3190 
Q 3341 2797 3341 1997 
z
" transform="scale(0.015625)"/>
       <path id="DejaVuSans-79" d="M 2059 -325 
Q 1816 -950 1584 -1140 
Q 1353 -1331 966 -1331 
L 506 -1331 
L 506 -850 
L 844 -850 
Q 1081 -850 1212 -737 
Q 1344 -625 1503 -206 
L 1606 56 
L 191 3500 
L 800 3500 
L 1894 763 
L 2988 3500 
L 3597 3500 
L 2059 -325 
z
" transform="scale(0.015625)"/>
       <path id="DejaVuSans-29" d="M 513 4856 
L 1013 4856 
Q 1481 4119 1714 3412 
Q 1947 2706 1947 2009 
Q 1947 1309 1714 600 
Q 1481 -109 1013 -844 
L 513 -844 
Q 928 -128 1133 580 
Q 1338 1288 1338 2009 
Q 1338 2731 1133 3434 
Q 928 4138 513 4856 
z
" transform="scale(0.015625)"/>
      </defs>
      <use xlink:href="#DejaVuSans-44"/>
      <use xlink:href="#DejaVuSans-65" transform="translate(77.001953 0)"/>
      <use xlink:href="#DejaVuSans-67" transform="translate(138.525391 0)"/>
      <use xlink:href="#DejaVuSans-72" transform="translate(202.001953 0)"/>
      <use xlink:href="#DejaVuSans-65" transform="translate(240.865234 0)"/>
      <use xlink:href="#DejaVuSans-65" transform="translate(302.388672 0)"/>
      <use xlink:href="#DejaVuSans-20" transform="translate(363.912109 0)"/>
      <use xlink:href="#DejaVuSans-28" transform="translate(395.699219 0)"/>
      <use xlink:href="#DejaVuSans-49" transform="translate(434.712891 0)"/>
      <use xlink:href="#DejaVuSans-2d" transform="translate(464.205078 0)"/>
      <use xlink:href="#DejaVuSans-6c" transform="translate(500.289062 0)"/>
      <use xlink:href="#DejaVuSans-61" transform="translate(528.072266 0)"/>
      <use xlink:href="#DejaVuSans-79" transform="translate(589.351562 0)"/>
      <use xlink:href="#DejaVuSans-65" transform="translate(648.53125 0)"/>
      <use xlink:href="#DejaVuSans-72" transform="translate(710.054688 0)"/>
      <use xlink:href="#DejaVuSans-29" transform="translate(751.167969 0)"/>
     </g>
    </g>
   </g>
   <g id="matplotlib.axis_2">
    <g id="ytick_1">
     <g id="line2d_9">
      <defs>
       <path id="m5599a24fc9" d="M 0 0 
L -3.5 0 
" style="stroke: #000000; stroke-width: 0.8"/>
      </defs>
      <g>
       <use xlink:href="#m5599a24fc9" x="56.9125" y="34.92" style="stroke: #000000; stroke-width: 0.8"/>
      </g>
     </g>
     <g id="text_10">
      <!-- 10 -->
      <g transform="translate(45.753125 47.645) rotate(-90) scale(0.2 -0.2)">
       <use xlink:href="#DejaVuSans-31"/>
       <use xlink:href="#DejaVuSans-30" transform="translate(63.623047 0)"/>
      </g>
     </g>
    </g>
    <g id="ytick_2">
     <g id="line2d_10">
      <g>
       <use xlink:href="#m5599a24fc9" x="56.9125" y="90.36" style="stroke: #000000; stroke-width: 0.8"/>
      </g>
     </g>
     <g id="text_11">
      <!-- 9 -->
      <g transform="translate(45.753125 96.7225) rotate(-90) scale(0.2 -0.2)">
       <use xlink:href="#DejaVuSans-39"/>
      </g>
     </g>
    </g>
    <g id="ytick_3">
     <g id="line2d_11">
      <g>
       <use xlink:href="#m5599a24fc9" x="56.9125" y="145.8" style="stroke: #000000; stroke-width: 0.8"/>
      </g>
     </g>
     <g id="text_12">
      <!-- 8 -->
      <g transform="translate(45.753125 152.1625) rotate(-90) scale(0.2 -0.2)">
       <use xlink:href="#DejaVuSans-38"/>
      </g>
     </g>
    </g>
    <g id="ytick_4">
     <g id="line2d_12">
      <g>
       <use xlink:href="#m5599a24fc9" x="56.9125" y="201.24" style="stroke: #000000; stroke-width: 0.8"/>
      </g>
     </g>
     <g id="text_13">
      <!-- 7 -->
      <g transform="translate(45.753125 207.6025) rotate(-90) scale(0.2 -0.2)">
       <use xlink:href="#DejaVuSans-37"/>
      </g>
     </g>
    </g>
    <g id="ytick_5">
     <g id="line2d_13">
      <g>
       <use xlink:href="#m5599a24fc9" x="56.9125" y="256.68" style="stroke: #000000; stroke-width: 0.8"/>
      </g>
     </g>
     <g id="text_14">
      <!-- 6 -->
      <g transform="translate(45.753125 263.0425) rotate(-90) scale(0.2 -0.2)">
       <use xlink:href="#DejaVuSans-36"/>
      </g>
     </g>
    </g>
    <g id="ytick_6">
     <g id="line2d_14">
      <g>
       <use xlink:href="#m5599a24fc9" x="56.9125" y="312.12" style="stroke: #000000; stroke-width: 0.8"/>
      </g>
     </g>
     <g id="text_15">
      <!-- 5 -->
      <g transform="translate(45.753125 318.4825) rotate(-90) scale(0.2 -0.2)">
       <use xlink:href="#DejaVuSans-35"/>
      </g>
     </g>
    </g>
    <g id="ytick_7">
     <g id="line2d_15">
      <g>
       <use xlink:href="#m5599a24fc9" x="56.9125" y="367.56" style="stroke: #000000; stroke-width: 0.8"/>
      </g>
     </g>
     <g id="text_16">
      <!-- 4 -->
      <g transform="translate(45.753125 373.9225) rotate(-90) scale(0.2 -0.2)">
       <use xlink:href="#DejaVuSans-34"/>
      </g>
     </g>
    </g>
    <g id="ytick_8">
     <g id="line2d_16">
      <g>
       <use xlink:href="#m5599a24fc9" x="56.9125" y="423" style="stroke: #000000; stroke-width: 0.8"/>
      </g>
     </g>
     <g id="text_17">
      <!-- 3 -->
      <g transform="translate(45.753125 429.3625) rotate(-90) scale(0.2 -0.2)">
       <use xlink:href="#DejaVuSans-33"/>
      </g>
     </g>
    </g>
    <g id="text_18">
     <!-- Degree (P-layer) -->
     <g transform="translate(22.396875 310.836562) rotate(-90) scale(0.2 -0.2)">
      <defs>
       <path id="DejaVuSans-50" d="M 1259 4147 
L 1259 2394 
L 2053 2394 
Q 2494 2394 2734 2622 
Q 2975 2850 2975 3272 
Q 2975 3691 2734 3919 
Q 2494 4147 2053 4147 
L 1259 4147 
z
M 628 4666 
L 2053 4666 
Q 2838 4666 3239 4311 
Q 3641 3956 3641 3272 
Q 3641 2581 3239 2228 
Q 2838 1875 2053 1875 
L 1259 1875 
L 1259 0 
L 628 0 
L 628 4666 
z
" transform="scale(0.015625)"/>
      </defs>
      <use xlink:href="#DejaVuSans-44"/>
      <use xlink:href="#DejaVuSans-65" transform="translate(77.001953 0)"/>
      <use xlink:href="#DejaVuSans-67" transform="translate(138.525391 0)"/>
      <use xlink:href="#DejaVuSans-72" transform="translate(202.001953 0)"/>
      <use xlink:href="#DejaVuSans-65" transform="translate(240.865234 0)"/>
      <use xlink:href="#DejaVuSans-65" transform="translate(302.388672 0)"/>
      <use xlink:href="#DejaVuSans-20" transform="translate(363.912109 0)"/>
      <use xlink:href="#DejaVuSans-28" transform="translate(395.699219 0)"/>
      <use xlink:href="#DejaVuSans-50" transform="translate(434.712891 0)"/>
      <use xlink:href="#DejaVuSans-2d" transform="translate(492.765625 0)"/>
      <use xlink:href="#DejaVuSans-6c" transform="translate(528.849609 0)"/>
      <use xlink:href="#DejaVuSans-61" transform="translate(556.632812 0)"/>
      <use xlink:href="#DejaVuSans-79" transform="translate(617.912109 0)"/>
      <use xlink:href="#DejaVuSans-65" transform="translate(677.091797 0)"/>
      <use xlink:href="#DejaVuSans-72" transform="translate(738.615234 0)"/>
      <use xlink:href="#DejaVuSans-29" transform="translate(779.728516 0)"/>
     </g>
    </g>
   </g>
   <g id="text_19">
    <!-- 0.51 -->
    <g style="fill: #262626" transform="translate(68.113281 39.059062) scale(0.15 -0.15)">
     <defs>
      <path id="DejaVuSans-2e" d="M 684 794 
L 1344 794 
L 1344 0 
L 684 0 
L 684 794 
z
" transform="scale(0.015625)"/>
     </defs>
     <use xlink:href="#DejaVuSans-30"/>
     <use xlink:href="#DejaVuSans-2e" transform="translate(63.623047 0)"/>
     <use xlink:href="#DejaVuSans-35" transform="translate(95.410156 0)"/>
     <use xlink:href="#DejaVuSans-31" transform="translate(159.033203 0)"/>
    </g>
   </g>
   <g id="text_20">
    <!-- 0.48 -->
    <g style="fill: #262626" transform="translate(123.913281 39.059062) scale(0.15 -0.15)">
     <use xlink:href="#DejaVuSans-30"/>
     <use xlink:href="#DejaVuSans-2e" transform="translate(63.623047 0)"/>
     <use xlink:href="#DejaVuSans-34" transform="translate(95.410156 0)"/>
     <use xlink:href="#DejaVuSans-38" transform="translate(159.033203 0)"/>
    </g>
   </g>
   <g id="text_21">
    <!-- 0.46 -->
    <g style="fill: #262626" transform="translate(179.713281 39.059062) scale(0.15 -0.15)">
     <use xlink:href="#DejaVuSans-30"/>
     <use xlink:href="#DejaVuSans-2e" transform="translate(63.623047 0)"/>
     <use xlink:href="#DejaVuSans-34" transform="translate(95.410156 0)"/>
     <use xlink:href="#DejaVuSans-36" transform="translate(159.033203 0)"/>
    </g>
   </g>
   <g id="text_22">
    <!-- 0.44 -->
    <g style="fill: #262626" transform="translate(235.513281 39.059062) scale(0.15 -0.15)">
     <use xlink:href="#DejaVuSans-30"/>
     <use xlink:href="#DejaVuSans-2e" transform="translate(63.623047 0)"/>
     <use xlink:href="#DejaVuSans-34" transform="translate(95.410156 0)"/>
     <use xlink:href="#DejaVuSans-34" transform="translate(159.033203 0)"/>
    </g>
   </g>
   <g id="text_23">
    <!-- 0.43 -->
    <g style="fill: #262626" transform="translate(291.313281 39.059062) scale(0.15 -0.15)">
     <use xlink:href="#DejaVuSans-30"/>
     <use xlink:href="#DejaVuSans-2e" transform="translate(63.623047 0)"/>
     <use xlink:href="#DejaVuSans-34" transform="translate(95.410156 0)"/>
     <use xlink:href="#DejaVuSans-33" transform="translate(159.033203 0)"/>
    </g>
   </g>
   <g id="text_24">
    <!-- 0.41 -->
    <g style="fill: #ffffff" transform="translate(347.113281 39.059062) scale(0.15 -0.15)">
     <use xlink:href="#DejaVuSans-30"/>
     <use xlink:href="#DejaVuSans-2e" transform="translate(63.623047 0)"/>
     <use xlink:href="#DejaVuSans-34" transform="translate(95.410156 0)"/>
     <use xlink:href="#DejaVuSans-31" transform="translate(159.033203 0)"/>
    </g>
   </g>
   <g id="text_25">
    <!-- 0.40 -->
    <g style="fill: #ffffff" transform="translate(402.913281 39.059062) scale(0.15 -0.15)">
     <use xlink:href="#DejaVuSans-30"/>
     <use xlink:href="#DejaVuSans-2e" transform="translate(63.623047 0)"/>
     <use xlink:href="#DejaVuSans-34" transform="translate(95.410156 0)"/>
     <use xlink:href="#DejaVuSans-30" transform="translate(159.033203 0)"/>
    </g>
   </g>
   <g id="text_26">
    <!-- 0.41 -->
    <g style="fill: #ffffff" transform="translate(458.713281 39.059062) scale(0.15 -0.15)">
     <use xlink:href="#DejaVuSans-30"/>
     <use xlink:href="#DejaVuSans-2e" transform="translate(63.623047 0)"/>
     <use xlink:href="#DejaVuSans-34" transform="translate(95.410156 0)"/>
     <use xlink:href="#DejaVuSans-31" transform="translate(159.033203 0)"/>
    </g>
   </g>
   <g id="text_27">
    <!-- 0.49 -->
    <g style="fill: #262626" transform="translate(68.113281 94.499062) scale(0.15 -0.15)">
     <use xlink:href="#DejaVuSans-30"/>
     <use xlink:href="#DejaVuSans-2e" transform="translate(63.623047 0)"/>
     <use xlink:href="#DejaVuSans-34" transform="translate(95.410156 0)"/>
     <use xlink:href="#DejaVuSans-39" transform="translate(159.033203 0)"/>
    </g>
   </g>
   <g id="text_28">
    <!-- 0.46 -->
    <g style="fill: #262626" transform="translate(123.913281 94.499062) scale(0.15 -0.15)">
     <use xlink:href="#DejaVuSans-30"/>
     <use xlink:href="#DejaVuSans-2e" transform="translate(63.623047 0)"/>
     <use xlink:href="#DejaVuSans-34" transform="translate(95.410156 0)"/>
     <use xlink:href="#DejaVuSans-36" transform="translate(159.033203 0)"/>
    </g>
   </g>
   <g id="text_29">
    <!-- 0.45 -->
    <g style="fill: #262626" transform="translate(179.713281 94.499062) scale(0.15 -0.15)">
     <use xlink:href="#DejaVuSans-30"/>
     <use xlink:href="#DejaVuSans-2e" transform="translate(63.623047 0)"/>
     <use xlink:href="#DejaVuSans-34" transform="translate(95.410156 0)"/>
     <use xlink:href="#DejaVuSans-35" transform="translate(159.033203 0)"/>
    </g>
   </g>
   <g id="text_30">
    <!-- 0.42 -->
    <g style="fill: #ffffff" transform="translate(235.513281 94.499062) scale(0.15 -0.15)">
     <defs>
      <path id="DejaVuSans-32" d="M 1228 531 
L 3431 531 
L 3431 0 
L 469 0 
L 469 531 
Q 828 903 1448 1529 
Q 2069 2156 2228 2338 
Q 2531 2678 2651 2914 
Q 2772 3150 2772 3378 
Q 2772 3750 2511 3984 
Q 2250 4219 1831 4219 
Q 1534 4219 1204 4116 
Q 875 4013 500 3803 
L 500 4441 
Q 881 4594 1212 4672 
Q 1544 4750 1819 4750 
Q 2544 4750 2975 4387 
Q 3406 4025 3406 3419 
Q 3406 3131 3298 2873 
Q 3191 2616 2906 2266 
Q 2828 2175 2409 1742 
Q 1991 1309 1228 531 
z
" transform="scale(0.015625)"/>
     </defs>
     <use xlink:href="#DejaVuSans-30"/>
     <use xlink:href="#DejaVuSans-2e" transform="translate(63.623047 0)"/>
     <use xlink:href="#DejaVuSans-34" transform="translate(95.410156 0)"/>
     <use xlink:href="#DejaVuSans-32" transform="translate(159.033203 0)"/>
    </g>
   </g>
   <g id="text_31">
    <!-- 0.41 -->
    <g style="fill: #ffffff" transform="translate(291.313281 94.499062) scale(0.15 -0.15)">
     <use xlink:href="#DejaVuSans-30"/>
     <use xlink:href="#DejaVuSans-2e" transform="translate(63.623047 0)"/>
     <use xlink:href="#DejaVuSans-34" transform="translate(95.410156 0)"/>
     <use xlink:href="#DejaVuSans-31" transform="translate(159.033203 0)"/>
    </g>
   </g>
   <g id="text_32">
    <!-- 0.39 -->
    <g style="fill: #ffffff" transform="translate(347.113281 94.499062) scale(0.15 -0.15)">
     <use xlink:href="#DejaVuSans-30"/>
     <use xlink:href="#DejaVuSans-2e" transform="translate(63.623047 0)"/>
     <use xlink:href="#DejaVuSans-33" transform="translate(95.410156 0)"/>
     <use xlink:href="#DejaVuSans-39" transform="translate(159.033203 0)"/>
    </g>
   </g>
   <g id="text_33">
    <!-- 0.39 -->
    <g style="fill: #ffffff" transform="translate(402.913281 94.499062) scale(0.15 -0.15)">
     <use xlink:href="#DejaVuSans-30"/>
     <use xlink:href="#DejaVuSans-2e" transform="translate(63.623047 0)"/>
     <use xlink:href="#DejaVuSans-33" transform="translate(95.410156 0)"/>
     <use xlink:href="#DejaVuSans-39" transform="translate(159.033203 0)"/>
    </g>
   </g>
   <g id="text_34">
    <!-- 0.36 -->
    <g style="fill: #ffffff" transform="translate(458.713281 94.499062) scale(0.15 -0.15)">
     <use xlink:href="#DejaVuSans-30"/>
     <use xlink:href="#DejaVuSans-2e" transform="translate(63.623047 0)"/>
     <use xlink:href="#DejaVuSans-33" transform="translate(95.410156 0)"/>
     <use xlink:href="#DejaVuSans-36" transform="translate(159.033203 0)"/>
    </g>
   </g>
   <g id="text_35">
    <!-- 0.46 -->
    <g style="fill: #262626" transform="translate(68.113281 149.939062) scale(0.15 -0.15)">
     <use xlink:href="#DejaVuSans-30"/>
     <use xlink:href="#DejaVuSans-2e" transform="translate(63.623047 0)"/>
     <use xlink:href="#DejaVuSans-34" transform="translate(95.410156 0)"/>
     <use xlink:href="#DejaVuSans-36" transform="translate(159.033203 0)"/>
    </g>
   </g>
   <g id="text_36">
    <!-- 0.42 -->
    <g style="fill: #262626" transform="translate(123.913281 149.939062) scale(0.15 -0.15)">
     <use xlink:href="#DejaVuSans-30"/>
     <use xlink:href="#DejaVuSans-2e" transform="translate(63.623047 0)"/>
     <use xlink:href="#DejaVuSans-34" transform="translate(95.410156 0)"/>
     <use xlink:href="#DejaVuSans-32" transform="translate(159.033203 0)"/>
    </g>
   </g>
   <g id="text_37">
    <!-- 0.40 -->
    <g style="fill: #ffffff" transform="translate(179.713281 149.939062) scale(0.15 -0.15)">
     <use xlink:href="#DejaVuSans-30"/>
     <use xlink:href="#DejaVuSans-2e" transform="translate(63.623047 0)"/>
     <use xlink:href="#DejaVuSans-34" transform="translate(95.410156 0)"/>
     <use xlink:href="#DejaVuSans-30" transform="translate(159.033203 0)"/>
    </g>
   </g>
   <g id="text_38">
    <!-- 0.40 -->
    <g style="fill: #ffffff" transform="translate(235.513281 149.939062) scale(0.15 -0.15)">
     <use xlink:href="#DejaVuSans-30"/>
     <use xlink:href="#DejaVuSans-2e" transform="translate(63.623047 0)"/>
     <use xlink:href="#DejaVuSans-34" transform="translate(95.410156 0)"/>
     <use xlink:href="#DejaVuSans-30" transform="translate(159.033203 0)"/>
    </g>
   </g>
   <g id="text_39">
    <!-- 0.39 -->
    <g style="fill: #ffffff" transform="translate(291.313281 149.939062) scale(0.15 -0.15)">
     <use xlink:href="#DejaVuSans-30"/>
     <use xlink:href="#DejaVuSans-2e" transform="translate(63.623047 0)"/>
     <use xlink:href="#DejaVuSans-33" transform="translate(95.410156 0)"/>
     <use xlink:href="#DejaVuSans-39" transform="translate(159.033203 0)"/>
    </g>
   </g>
   <g id="text_40">
    <!-- 0.39 -->
    <g style="fill: #ffffff" transform="translate(347.113281 149.939062) scale(0.15 -0.15)">
     <use xlink:href="#DejaVuSans-30"/>
     <use xlink:href="#DejaVuSans-2e" transform="translate(63.623047 0)"/>
     <use xlink:href="#DejaVuSans-33" transform="translate(95.410156 0)"/>
     <use xlink:href="#DejaVuSans-39" transform="translate(159.033203 0)"/>
    </g>
   </g>
   <g id="text_41">
    <!-- 0.37 -->
    <g style="fill: #ffffff" transform="translate(402.913281 149.939062) scale(0.15 -0.15)">
     <use xlink:href="#DejaVuSans-30"/>
     <use xlink:href="#DejaVuSans-2e" transform="translate(63.623047 0)"/>
     <use xlink:href="#DejaVuSans-33" transform="translate(95.410156 0)"/>
     <use xlink:href="#DejaVuSans-37" transform="translate(159.033203 0)"/>
    </g>
   </g>
   <g id="text_42">
    <!-- 0.34 -->
    <g style="fill: #ffffff" transform="translate(458.713281 149.939062) scale(0.15 -0.15)">
     <use xlink:href="#DejaVuSans-30"/>
     <use xlink:href="#DejaVuSans-2e" transform="translate(63.623047 0)"/>
     <use xlink:href="#DejaVuSans-33" transform="translate(95.410156 0)"/>
     <use xlink:href="#DejaVuSans-34" transform="translate(159.033203 0)"/>
    </g>
   </g>
   <g id="text_43">
    <!-- 0.44 -->
    <g style="fill: #262626" transform="translate(68.113281 205.379062) scale(0.15 -0.15)">
     <use xlink:href="#DejaVuSans-30"/>
     <use xlink:href="#DejaVuSans-2e" transform="translate(63.623047 0)"/>
     <use xlink:href="#DejaVuSans-34" transform="translate(95.410156 0)"/>
     <use xlink:href="#DejaVuSans-34" transform="translate(159.033203 0)"/>
    </g>
   </g>
   <g id="text_44">
    <!-- 0.41 -->
    <g style="fill: #ffffff" transform="translate(123.913281 205.379062) scale(0.15 -0.15)">
     <use xlink:href="#DejaVuSans-30"/>
     <use xlink:href="#DejaVuSans-2e" transform="translate(63.623047 0)"/>
     <use xlink:href="#DejaVuSans-34" transform="translate(95.410156 0)"/>
     <use xlink:href="#DejaVuSans-31" transform="translate(159.033203 0)"/>
    </g>
   </g>
   <g id="text_45">
    <!-- 0.39 -->
    <g style="fill: #ffffff" transform="translate(179.713281 205.379062) scale(0.15 -0.15)">
     <use xlink:href="#DejaVuSans-30"/>
     <use xlink:href="#DejaVuSans-2e" transform="translate(63.623047 0)"/>
     <use xlink:href="#DejaVuSans-33" transform="translate(95.410156 0)"/>
     <use xlink:href="#DejaVuSans-39" transform="translate(159.033203 0)"/>
    </g>
   </g>
   <g id="text_46">
    <!-- 0.36 -->
    <g style="fill: #ffffff" transform="translate(235.513281 205.379062) scale(0.15 -0.15)">
     <use xlink:href="#DejaVuSans-30"/>
     <use xlink:href="#DejaVuSans-2e" transform="translate(63.623047 0)"/>
     <use xlink:href="#DejaVuSans-33" transform="translate(95.410156 0)"/>
     <use xlink:href="#DejaVuSans-36" transform="translate(159.033203 0)"/>
    </g>
   </g>
   <g id="text_47">
    <!-- 0.35 -->
    <g style="fill: #ffffff" transform="translate(291.313281 205.379062) scale(0.15 -0.15)">
     <use xlink:href="#DejaVuSans-30"/>
     <use xlink:href="#DejaVuSans-2e" transform="translate(63.623047 0)"/>
     <use xlink:href="#DejaVuSans-33" transform="translate(95.410156 0)"/>
     <use xlink:href="#DejaVuSans-35" transform="translate(159.033203 0)"/>
    </g>
   </g>
   <g id="text_48">
    <!-- 0.34 -->
    <g style="fill: #ffffff" transform="translate(347.113281 205.379062) scale(0.15 -0.15)">
     <use xlink:href="#DejaVuSans-30"/>
     <use xlink:href="#DejaVuSans-2e" transform="translate(63.623047 0)"/>
     <use xlink:href="#DejaVuSans-33" transform="translate(95.410156 0)"/>
     <use xlink:href="#DejaVuSans-34" transform="translate(159.033203 0)"/>
    </g>
   </g>
   <g id="text_49">
    <!-- 0.34 -->
    <g style="fill: #ffffff" transform="translate(402.913281 205.379062) scale(0.15 -0.15)">
     <use xlink:href="#DejaVuSans-30"/>
     <use xlink:href="#DejaVuSans-2e" transform="translate(63.623047 0)"/>
     <use xlink:href="#DejaVuSans-33" transform="translate(95.410156 0)"/>
     <use xlink:href="#DejaVuSans-34" transform="translate(159.033203 0)"/>
    </g>
   </g>
   <g id="text_50">
    <!-- 0.32 -->
    <g style="fill: #ffffff" transform="translate(458.713281 205.379062) scale(0.15 -0.15)">
     <use xlink:href="#DejaVuSans-30"/>
     <use xlink:href="#DejaVuSans-2e" transform="translate(63.623047 0)"/>
     <use xlink:href="#DejaVuSans-33" transform="translate(95.410156 0)"/>
     <use xlink:href="#DejaVuSans-32" transform="translate(159.033203 0)"/>
    </g>
   </g>
   <g id="text_51">
    <!-- 0.41 -->
    <g style="fill: #ffffff" transform="translate(68.113281 260.819062) scale(0.15 -0.15)">
     <use xlink:href="#DejaVuSans-30"/>
     <use xlink:href="#DejaVuSans-2e" transform="translate(63.623047 0)"/>
     <use xlink:href="#DejaVuSans-34" transform="translate(95.410156 0)"/>
     <use xlink:href="#DejaVuSans-31" transform="translate(159.033203 0)"/>
    </g>
   </g>
   <g id="text_52">
    <!-- 0.38 -->
    <g style="fill: #ffffff" transform="translate(123.913281 260.819062) scale(0.15 -0.15)">
     <use xlink:href="#DejaVuSans-30"/>
     <use xlink:href="#DejaVuSans-2e" transform="translate(63.623047 0)"/>
     <use xlink:href="#DejaVuSans-33" transform="translate(95.410156 0)"/>
     <use xlink:href="#DejaVuSans-38" transform="translate(159.033203 0)"/>
    </g>
   </g>
   <g id="text_53">
    <!-- 0.36 -->
    <g style="fill: #ffffff" transform="translate(179.713281 260.819062) scale(0.15 -0.15)">
     <use xlink:href="#DejaVuSans-30"/>
     <use xlink:href="#DejaVuSans-2e" transform="translate(63.623047 0)"/>
     <use xlink:href="#DejaVuSans-33" transform="translate(95.410156 0)"/>
     <use xlink:href="#DejaVuSans-36" transform="translate(159.033203 0)"/>
    </g>
   </g>
   <g id="text_54">
    <!-- 0.35 -->
    <g style="fill: #ffffff" transform="translate(235.513281 260.819062) scale(0.15 -0.15)">
     <use xlink:href="#DejaVuSans-30"/>
     <use xlink:href="#DejaVuSans-2e" transform="translate(63.623047 0)"/>
     <use xlink:href="#DejaVuSans-33" transform="translate(95.410156 0)"/>
     <use xlink:href="#DejaVuSans-35" transform="translate(159.033203 0)"/>
    </g>
   </g>
   <g id="text_55">
    <!-- 0.33 -->
    <g style="fill: #ffffff" transform="translate(291.313281 260.819062) scale(0.15 -0.15)">
     <use xlink:href="#DejaVuSans-30"/>
     <use xlink:href="#DejaVuSans-2e" transform="translate(63.623047 0)"/>
     <use xlink:href="#DejaVuSans-33" transform="translate(95.410156 0)"/>
     <use xlink:href="#DejaVuSans-33" transform="translate(159.033203 0)"/>
    </g>
   </g>
   <g id="text_56">
    <!-- 0.33 -->
    <g style="fill: #ffffff" transform="translate(347.113281 260.819062) scale(0.15 -0.15)">
     <use xlink:href="#DejaVuSans-30"/>
     <use xlink:href="#DejaVuSans-2e" transform="translate(63.623047 0)"/>
     <use xlink:href="#DejaVuSans-33" transform="translate(95.410156 0)"/>
     <use xlink:href="#DejaVuSans-33" transform="translate(159.033203 0)"/>
    </g>
   </g>
   <g id="text_57">
    <!-- 0.32 -->
    <g style="fill: #ffffff" transform="translate(402.913281 260.819062) scale(0.15 -0.15)">
     <use xlink:href="#DejaVuSans-30"/>
     <use xlink:href="#DejaVuSans-2e" transform="translate(63.623047 0)"/>
     <use xlink:href="#DejaVuSans-33" transform="translate(95.410156 0)"/>
     <use xlink:href="#DejaVuSans-32" transform="translate(159.033203 0)"/>
    </g>
   </g>
   <g id="text_58">
    <!-- 0.33 -->
    <g style="fill: #ffffff" transform="translate(458.713281 260.819062) scale(0.15 -0.15)">
     <use xlink:href="#DejaVuSans-30"/>
     <use xlink:href="#DejaVuSans-2e" transform="translate(63.623047 0)"/>
     <use xlink:href="#DejaVuSans-33" transform="translate(95.410156 0)"/>
     <use xlink:href="#DejaVuSans-33" transform="translate(159.033203 0)"/>
    </g>
   </g>
   <g id="text_59">
    <!-- 0.38 -->
    <g style="fill: #ffffff" transform="translate(68.113281 316.259062) scale(0.15 -0.15)">
     <use xlink:href="#DejaVuSans-30"/>
     <use xlink:href="#DejaVuSans-2e" transform="translate(63.623047 0)"/>
     <use xlink:href="#DejaVuSans-33" transform="translate(95.410156 0)"/>
     <use xlink:href="#DejaVuSans-38" transform="translate(159.033203 0)"/>
    </g>
   </g>
   <g id="text_60">
    <!-- 0.35 -->
    <g style="fill: #ffffff" transform="translate(123.913281 316.259062) scale(0.15 -0.15)">
     <use xlink:href="#DejaVuSans-30"/>
     <use xlink:href="#DejaVuSans-2e" transform="translate(63.623047 0)"/>
     <use xlink:href="#DejaVuSans-33" transform="translate(95.410156 0)"/>
     <use xlink:href="#DejaVuSans-35" transform="translate(159.033203 0)"/>
    </g>
   </g>
   <g id="text_61">
    <!-- 0.33 -->
    <g style="fill: #ffffff" transform="translate(179.713281 316.259062) scale(0.15 -0.15)">
     <use xlink:href="#DejaVuSans-30"/>
     <use xlink:href="#DejaVuSans-2e" transform="translate(63.623047 0)"/>
     <use xlink:href="#DejaVuSans-33" transform="translate(95.410156 0)"/>
     <use xlink:href="#DejaVuSans-33" transform="translate(159.033203 0)"/>
    </g>
   </g>
   <g id="text_62">
    <!-- 0.30 -->
    <g style="fill: #ffffff" transform="translate(235.513281 316.259062) scale(0.15 -0.15)">
     <use xlink:href="#DejaVuSans-30"/>
     <use xlink:href="#DejaVuSans-2e" transform="translate(63.623047 0)"/>
     <use xlink:href="#DejaVuSans-33" transform="translate(95.410156 0)"/>
     <use xlink:href="#DejaVuSans-30" transform="translate(159.033203 0)"/>
    </g>
   </g>
   <g id="text_63">
    <!-- 0.29 -->
    <g style="fill: #ffffff" transform="translate(291.313281 316.259062) scale(0.15 -0.15)">
     <use xlink:href="#DejaVuSans-30"/>
     <use xlink:href="#DejaVuSans-2e" transform="translate(63.623047 0)"/>
     <use xlink:href="#DejaVuSans-32" transform="translate(95.410156 0)"/>
     <use xlink:href="#DejaVuSans-39" transform="translate(159.033203 0)"/>
    </g>
   </g>
   <g id="text_64">
    <!-- 0.30 -->
    <g style="fill: #ffffff" transform="translate(347.113281 316.259062) scale(0.15 -0.15)">
     <use xlink:href="#DejaVuSans-30"/>
     <use xlink:href="#DejaVuSans-2e" transform="translate(63.623047 0)"/>
     <use xlink:href="#DejaVuSans-33" transform="translate(95.410156 0)"/>
     <use xlink:href="#DejaVuSans-30" transform="translate(159.033203 0)"/>
    </g>
   </g>
   <g id="text_65">
    <!-- 0.28 -->
    <g style="fill: #ffffff" transform="translate(402.913281 316.259062) scale(0.15 -0.15)">
     <use xlink:href="#DejaVuSans-30"/>
     <use xlink:href="#DejaVuSans-2e" transform="translate(63.623047 0)"/>
     <use xlink:href="#DejaVuSans-32" transform="translate(95.410156 0)"/>
     <use xlink:href="#DejaVuSans-38" transform="translate(159.033203 0)"/>
    </g>
   </g>
   <g id="text_66">
    <!-- 0.28 -->
    <g style="fill: #ffffff" transform="translate(458.713281 316.259062) scale(0.15 -0.15)">
     <use xlink:href="#DejaVuSans-30"/>
     <use xlink:href="#DejaVuSans-2e" transform="translate(63.623047 0)"/>
     <use xlink:href="#DejaVuSans-32" transform="translate(95.410156 0)"/>
     <use xlink:href="#DejaVuSans-38" transform="translate(159.033203 0)"/>
    </g>
   </g>
   <g id="text_67">
    <!-- 0.34 -->
    <g style="fill: #ffffff" transform="translate(68.113281 371.699062) scale(0.15 -0.15)">
     <use xlink:href="#DejaVuSans-30"/>
     <use xlink:href="#DejaVuSans-2e" transform="translate(63.623047 0)"/>
     <use xlink:href="#DejaVuSans-33" transform="translate(95.410156 0)"/>
     <use xlink:href="#DejaVuSans-34" transform="translate(159.033203 0)"/>
    </g>
   </g>
   <g id="text_68">
    <!-- 0.32 -->
    <g style="fill: #ffffff" transform="translate(123.913281 371.699062) scale(0.15 -0.15)">
     <use xlink:href="#DejaVuSans-30"/>
     <use xlink:href="#DejaVuSans-2e" transform="translate(63.623047 0)"/>
     <use xlink:href="#DejaVuSans-33" transform="translate(95.410156 0)"/>
     <use xlink:href="#DejaVuSans-32" transform="translate(159.033203 0)"/>
    </g>
   </g>
   <g id="text_69">
    <!-- 0.29 -->
    <g style="fill: #ffffff" transform="translate(179.713281 371.699062) scale(0.15 -0.15)">
     <use xlink:href="#DejaVuSans-30"/>
     <use xlink:href="#DejaVuSans-2e" transform="translate(63.623047 0)"/>
     <use xlink:href="#DejaVuSans-32" transform="translate(95.410156 0)"/>
     <use xlink:href="#DejaVuSans-39" transform="translate(159.033203 0)"/>
    </g>
   </g>
   <g id="text_70">
    <!-- 0.27 -->
    <g style="fill: #ffffff" transform="translate(235.513281 371.699062) scale(0.15 -0.15)">
     <use xlink:href="#DejaVuSans-30"/>
     <use xlink:href="#DejaVuSans-2e" transform="translate(63.623047 0)"/>
     <use xlink:href="#DejaVuSans-32" transform="translate(95.410156 0)"/>
     <use xlink:href="#DejaVuSans-37" transform="translate(159.033203 0)"/>
    </g>
   </g>
   <g id="text_71">
    <!-- 0.26 -->
    <g style="fill: #ffffff" transform="translate(291.313281 371.699062) scale(0.15 -0.15)">
     <use xlink:href="#DejaVuSans-30"/>
     <use xlink:href="#DejaVuSans-2e" transform="translate(63.623047 0)"/>
     <use xlink:href="#DejaVuSans-32" transform="translate(95.410156 0)"/>
     <use xlink:href="#DejaVuSans-36" transform="translate(159.033203 0)"/>
    </g>
   </g>
   <g id="text_72">
    <!-- 0.25 -->
    <g style="fill: #ffffff" transform="translate(347.113281 371.699062) scale(0.15 -0.15)">
     <use xlink:href="#DejaVuSans-30"/>
     <use xlink:href="#DejaVuSans-2e" transform="translate(63.623047 0)"/>
     <use xlink:href="#DejaVuSans-32" transform="translate(95.410156 0)"/>
     <use xlink:href="#DejaVuSans-35" transform="translate(159.033203 0)"/>
    </g>
   </g>
   <g id="text_73">
    <!-- 0.26 -->
    <g style="fill: #ffffff" transform="translate(402.913281 371.699062) scale(0.15 -0.15)">
     <use xlink:href="#DejaVuSans-30"/>
     <use xlink:href="#DejaVuSans-2e" transform="translate(63.623047 0)"/>
     <use xlink:href="#DejaVuSans-32" transform="translate(95.410156 0)"/>
     <use xlink:href="#DejaVuSans-36" transform="translate(159.033203 0)"/>
    </g>
   </g>
   <g id="text_74">
    <!-- 0.24 -->
    <g style="fill: #ffffff" transform="translate(458.713281 371.699062) scale(0.15 -0.15)">
     <use xlink:href="#DejaVuSans-30"/>
     <use xlink:href="#DejaVuSans-2e" transform="translate(63.623047 0)"/>
     <use xlink:href="#DejaVuSans-32" transform="translate(95.410156 0)"/>
     <use xlink:href="#DejaVuSans-34" transform="translate(159.033203 0)"/>
    </g>
   </g>
   <g id="text_75">
    <!-- 0.30 -->
    <g style="fill: #ffffff" transform="translate(68.113281 427.139062) scale(0.15 -0.15)">
     <use xlink:href="#DejaVuSans-30"/>
     <use xlink:href="#DejaVuSans-2e" transform="translate(63.623047 0)"/>
     <use xlink:href="#DejaVuSans-33" transform="translate(95.410156 0)"/>
     <use xlink:href="#DejaVuSans-30" transform="translate(159.033203 0)"/>
    </g>
   </g>
   <g id="text_76">
    <!-- 0.27 -->
    <g style="fill: #ffffff" transform="translate(123.913281 427.139062) scale(0.15 -0.15)">
     <use xlink:href="#DejaVuSans-30"/>
     <use xlink:href="#DejaVuSans-2e" transform="translate(63.623047 0)"/>
     <use xlink:href="#DejaVuSans-32" transform="translate(95.410156 0)"/>
     <use xlink:href="#DejaVuSans-37" transform="translate(159.033203 0)"/>
    </g>
   </g>
   <g id="text_77">
    <!-- 0.25 -->
    <g style="fill: #ffffff" transform="translate(179.713281 427.139062) scale(0.15 -0.15)">
     <use xlink:href="#DejaVuSans-30"/>
     <use xlink:href="#DejaVuSans-2e" transform="translate(63.623047 0)"/>
     <use xlink:href="#DejaVuSans-32" transform="translate(95.410156 0)"/>
     <use xlink:href="#DejaVuSans-35" transform="translate(159.033203 0)"/>
    </g>
   </g>
   <g id="text_78">
    <!-- 0.23 -->
    <g style="fill: #ffffff" transform="translate(235.513281 427.139062) scale(0.15 -0.15)">
     <use xlink:href="#DejaVuSans-30"/>
     <use xlink:href="#DejaVuSans-2e" transform="translate(63.623047 0)"/>
     <use xlink:href="#DejaVuSans-32" transform="translate(95.410156 0)"/>
     <use xlink:href="#DejaVuSans-33" transform="translate(159.033203 0)"/>
    </g>
   </g>
   <g id="text_79">
    <!-- 0.22 -->
    <g style="fill: #ffffff" transform="translate(291.313281 427.139062) scale(0.15 -0.15)">
     <use xlink:href="#DejaVuSans-30"/>
     <use xlink:href="#DejaVuSans-2e" transform="translate(63.623047 0)"/>
     <use xlink:href="#DejaVuSans-32" transform="translate(95.410156 0)"/>
     <use xlink:href="#DejaVuSans-32" transform="translate(159.033203 0)"/>
    </g>
   </g>
   <g id="text_80">
    <!-- 0.21 -->
    <g style="fill: #ffffff" transform="translate(347.113281 427.139062) scale(0.15 -0.15)">
     <use xlink:href="#DejaVuSans-30"/>
     <use xlink:href="#DejaVuSans-2e" transform="translate(63.623047 0)"/>
     <use xlink:href="#DejaVuSans-32" transform="translate(95.410156 0)"/>
     <use xlink:href="#DejaVuSans-31" transform="translate(159.033203 0)"/>
    </g>
   </g>
   <g id="text_81">
    <!-- 0.21 -->
    <g style="fill: #ffffff" transform="translate(402.913281 427.139062) scale(0.15 -0.15)">
     <use xlink:href="#DejaVuSans-30"/>
     <use xlink:href="#DejaVuSans-2e" transform="translate(63.623047 0)"/>
     <use xlink:href="#DejaVuSans-32" transform="translate(95.410156 0)"/>
     <use xlink:href="#DejaVuSans-31" transform="translate(159.033203 0)"/>
    </g>
   </g>
   <g id="text_82">
    <!-- 0.21 -->
    <g style="fill: #ffffff" transform="translate(458.713281 427.139062) scale(0.15 -0.15)">
     <use xlink:href="#DejaVuSans-30"/>
     <use xlink:href="#DejaVuSans-2e" transform="translate(63.623047 0)"/>
     <use xlink:href="#DejaVuSans-32" transform="translate(95.410156 0)"/>
     <use xlink:href="#DejaVuSans-31" transform="translate(159.033203 0)"/>
    </g>
   </g>
  </g>
 </g>
 <defs>
  <clipPath id="p7419d5e407">
   <rect x="56.9125" y="7.2" width="446.4" height="443.52"/>
  </clipPath>
 </defs>
</svg>
