<?xml version="1.0" encoding="utf-8" standalone="no"?>
<!DOCTYPE svg PUBLIC "-//W3C//DTD SVG 1.1//EN"
  "http://www.w3.org/Graphics/SVG/1.1/DTD/svg11.dtd">
<svg xmlns:xlink="http://www.w3.org/1999/xlink" width="494.4413pt" height="402.850937pt" viewBox="0 0 494.4413 402.850937" xmlns="http://www.w3.org/2000/svg" version="1.1">
 <metadata>
  <rdf:RDF xmlns:dc="http://purl.org/dc/elements/1.1/" xmlns:cc="http://creativecommons.org/ns#" xmlns:rdf="http://www.w3.org/1999/02/22-rdf-syntax-ns#">
   <cc:Work>
    <dc:type rdf:resource="http://purl.org/dc/dcmitype/StillImage"/>
    <dc:date>2025-05-11T12:54:23.929126</dc:date>
    <dc:format>image/svg+xml</dc:format>
    <dc:creator>
     <cc:Agent>
      <dc:title>Matplotlib v3.10.1, https://matplotlib.org/</dc:title>
     </cc:Agent>
    </dc:creator>
   </cc:Work>
  </rdf:RDF>
 </metadata>
 <defs>
  <style type="text/css">*{stroke-linejoin: round; stroke-linecap: butt}</style>
 </defs>
 <g id="figure_1">
  <g id="patch_1">
   <path d="M 0 402.850937 
L 494.4413 402.850937 
L 494.4413 0 
L 0 0 
z
" style="fill: #ffffff"/>
  </g>
  <g id="axes_1">
   <g id="patch_2">
    <path d="M 83.3 347.438437 
L 407.498 347.438437 
L 407.498 14.798437 
L 83.3 14.798437 
z
" style="fill: #ffffff"/>
   </g>
   <g id="QuadContourSet_1">
    <path clip-path="url(#p4247693649)" style="fill: #460a5d"/>
    <path clip-path="url(#p4247693649)" style="fill: #481d6f"/>
    <path clip-path="url(#p4247693649)" style="fill: #472e7c"/>
    <path d="M 88.446002 347.438437 
L 93.591998 347.438437 
L 98.738002 347.438437 
L 98.986706 347.438437 
L 98.738002 347.098592 
L 94.74809 342.158436 
L 93.591998 341.032041 
L 88.830504 336.878439 
L 88.446002 336.609716 
L 83.3 333.333632 
L 83.3 336.878439 
L 83.3 342.158436 
L 83.3 347.438437 
z
" clip-path="url(#p4247693649)" style="fill: #423f85"/>
    <path d="M 98.738002 347.098592 
L 98.986706 347.438437 
L 103.884001 347.438437 
L 109.029999 347.438437 
L 114.176 347.438437 
L 119.321997 347.438437 
L 124.467998 347.438437 
L 129.613998 347.438437 
L 134.759998 347.438437 
L 137.588563 347.438437 
L 135.789892 342.158436 
L 134.759998 339.784004 
L 133.395324 336.878439 
L 130.179476 331.598435 
L 129.613998 330.858244 
L 125.775588 326.318437 
L 124.467998 325.08321 
L 119.652324 321.038439 
L 119.321997 320.810034 
L 114.176 317.574394 
L 110.87342 315.758438 
L 109.029999 314.892917 
L 103.884001 312.710198 
L 98.738002 310.804741 
L 97.778233 310.478441 
L 93.591998 309.220183 
L 88.446002 307.836312 
L 83.3 306.604663 
L 83.3 310.478441 
L 83.3 315.758438 
L 83.3 321.038439 
L 83.3 326.318437 
L 83.3 331.598435 
L 83.3 333.333632 
L 88.446002 336.609716 
L 88.830504 336.878439 
L 93.591998 341.032041 
L 94.74809 342.158436 
z
" clip-path="url(#p4247693649)" style="fill: #3d4e8a"/>
    <path d="M 139.905999 347.438437 
L 145.052 347.438437 
L 150.198015 347.438437 
L 155.343996 347.438437 
L 160.490016 347.438437 
L 160.77419 347.438437 
L 160.490016 345.973895 
L 159.714016 342.158436 
L 158.330822 336.878439 
L 156.506587 331.598435 
L 155.343996 328.969447 
L 154.084388 326.318437 
L 150.842913 321.038439 
L 150.198015 320.193729 
L 146.461315 315.758438 
L 145.052 314.401614 
L 140.472555 310.478441 
L 139.905999 310.0696 
L 134.759998 306.703795 
L 132.139198 305.19844 
L 129.613998 303.922393 
L 124.467998 301.599292 
L 120.222738 299.91844 
L 119.321997 299.593697 
L 114.176 297.880755 
L 109.029999 296.370443 
L 103.884001 295.031358 
L 102.247278 294.638439 
L 98.738002 293.844889 
L 93.591998 292.785848 
L 88.446002 291.834358 
L 83.3 290.9767 
L 83.3 294.638439 
L 83.3 299.91844 
L 83.3 305.19844 
L 83.3 306.604663 
L 88.446002 307.836312 
L 93.591998 309.220183 
L 97.778233 310.478441 
L 98.738002 310.804741 
L 103.884001 312.710198 
L 109.029999 314.892917 
L 110.87342 315.758438 
L 114.176 317.574394 
L 119.321997 320.810034 
L 119.652324 321.038439 
L 124.467998 325.08321 
L 125.775588 326.318437 
L 129.613998 330.858244 
L 130.179476 331.598435 
L 133.395324 336.878439 
L 134.759998 339.784004 
L 135.789892 342.158436 
L 137.588563 347.438437 
z
" clip-path="url(#p4247693649)" style="fill: #365d8d"/>
    <path d="M 160.490016 345.973895 
L 160.77419 347.438437 
L 165.635995 347.438437 
L 170.782014 347.438437 
L 175.927993 347.438437 
L 178.627808 347.438437 
L 177.926831 342.158436 
L 177.016504 336.878439 
L 175.927993 332.03053 
L 175.827244 331.598435 
L 174.291478 326.318437 
L 172.252931 321.038439 
L 170.782014 318.071191 
L 169.553064 315.758438 
L 165.965171 310.478441 
L 165.635995 310.079564 
L 161.183696 305.19844 
L 160.490016 304.565083 
L 155.343996 300.350081 
L 154.75689 299.91844 
L 150.198015 296.97469 
L 146.021474 294.638439 
L 145.052 294.146721 
L 139.905999 291.756075 
L 134.759998 289.686889 
L 133.872949 289.358439 
L 129.613998 287.870946 
L 124.467998 286.270934 
L 119.321997 284.854487 
L 116.221852 284.078437 
L 114.176 283.581936 
L 109.029999 282.427032 
L 103.884001 281.39054 
L 98.738002 280.457094 
L 93.591998 279.613837 
L 88.446002 278.84997 
L 88.079306 278.798422 
L 83.3 278.131487 
L 83.3 278.798422 
L 83.3 284.078437 
L 83.3 289.358439 
L 83.3 290.9767 
L 88.446002 291.834358 
L 93.591998 292.785848 
L 98.738002 293.844889 
L 102.247278 294.638439 
L 103.884001 295.031358 
L 109.029999 296.370443 
L 114.176 297.880755 
L 119.321997 299.593697 
L 120.222738 299.91844 
L 124.467998 301.599292 
L 129.613998 303.922393 
L 132.139198 305.19844 
L 134.759998 306.703795 
L 139.905999 310.0696 
L 140.472555 310.478441 
L 145.052 314.401614 
L 146.461315 315.758438 
L 150.198015 320.193729 
L 150.842913 321.038439 
L 154.084388 326.318437 
L 155.343996 328.969447 
L 156.506587 331.598435 
L 158.330822 336.878439 
L 159.714016 342.158436 
z
" clip-path="url(#p4247693649)" style="fill: #306a8e"/>
    <path d="M 181.074014 347.438437 
L 186.219993 347.438437 
L 191.366011 347.438437 
L 193.988806 347.438437 
L 193.501493 342.158436 
L 192.872268 336.878439 
L 192.053517 331.598435 
L 191.366011 328.140121 
L 190.995431 326.318437 
L 189.634535 321.038439 
L 187.83119 315.758438 
L 186.219993 312.109686 
L 185.457818 310.478441 
L 182.35873 305.19844 
L 181.074014 303.430913 
L 178.288898 299.91844 
L 175.927993 297.448944 
L 172.941128 294.638439 
L 170.782014 292.878284 
L 165.888155 289.358439 
L 165.635995 289.195395 
L 160.490016 286.127836 
L 156.51903 284.078437 
L 155.343996 283.511088 
L 150.198015 281.229344 
L 145.052 279.246447 
L 143.789424 278.798422 
L 139.905999 277.463153 
L 134.759998 275.875527 
L 129.613998 274.466956 
L 125.78324 273.518441 
L 124.467998 273.195134 
L 119.321997 272.012292 
L 114.176 270.949369 
L 109.029999 269.99102 
L 103.884001 269.124418 
L 98.738002 268.338663 
L 98.044488 268.238422 
L 93.591998 267.585504 
L 88.446002 266.894344 
L 83.3 266.264274 
L 83.3 268.238422 
L 83.3 273.518441 
L 83.3 278.131487 
L 88.079306 278.798422 
L 88.446002 278.84997 
L 93.591998 279.613837 
L 98.738002 280.457094 
L 103.884001 281.39054 
L 109.029999 282.427032 
L 114.176 283.581936 
L 116.221852 284.078437 
L 119.321997 284.854487 
L 124.467998 286.270934 
L 129.613998 287.870946 
L 133.872949 289.358439 
L 134.759998 289.686889 
L 139.905999 291.756075 
L 145.052 294.146721 
L 146.021474 294.638439 
L 150.198015 296.97469 
L 154.75689 299.91844 
L 155.343996 300.350081 
L 160.490016 304.565083 
L 161.183696 305.19844 
L 165.635995 310.079564 
L 165.965171 310.478441 
L 169.553064 315.758438 
L 170.782014 318.071191 
L 172.252931 321.038439 
L 174.291478 326.318437 
L 175.827244 331.598435 
L 175.927993 332.03053 
L 177.016504 336.878439 
L 177.926831 342.158436 
L 178.627808 347.438437 
z
" clip-path="url(#p4247693649)" style="fill: #2a778e"/>
    <path d="M 196.511994 347.438437 
L 201.658014 347.438437 
L 206.804015 347.438437 
L 208.099569 347.438437 
L 207.747081 342.158436 
L 207.294501 336.878439 
L 206.804015 332.419166 
L 206.714089 331.598435 
L 205.992188 326.318437 
L 205.045031 321.038439 
L 203.796743 315.758438 
L 202.147179 310.478441 
L 201.658014 309.213388 
L 200.038073 305.19844 
L 197.272114 299.91844 
L 196.511994 298.723759 
L 193.715506 294.638439 
L 191.366011 291.821812 
L 189.113784 289.358439 
L 186.219993 286.634362 
L 183.188895 284.078437 
L 181.074014 282.481947 
L 175.927993 279.041183 
L 175.531427 278.798422 
L 170.782014 276.081494 
L 165.635995 273.549416 
L 165.568464 273.518441 
L 160.490016 271.270873 
L 155.343996 269.284451 
L 152.342298 268.238422 
L 150.198015 267.499625 
L 145.052 265.867406 
L 139.905999 264.417572 
L 134.759998 263.123672 
L 134.06222 262.958442 
L 129.613998 261.891 
L 124.467998 260.771675 
L 119.321997 259.761946 
L 114.176 258.848483 
L 109.029999 258.019959 
L 106.759417 257.678423 
L 103.884001 257.232036 
L 98.738002 256.488519 
L 93.591998 255.810474 
L 88.446002 255.191129 
L 83.3 254.624556 
L 83.3 257.678423 
L 83.3 262.958442 
L 83.3 266.264274 
L 88.446002 266.894344 
L 93.591998 267.585504 
L 98.044488 268.238422 
L 98.738002 268.338663 
L 103.884001 269.124418 
L 109.029999 269.99102 
L 114.176 270.949369 
L 119.321997 272.012292 
L 124.467998 273.195134 
L 125.78324 273.518441 
L 129.613998 274.466956 
L 134.759998 275.875527 
L 139.905999 277.463153 
L 143.789424 278.798422 
L 145.052 279.246447 
L 150.198015 281.229344 
L 155.343996 283.511088 
L 156.51903 284.078437 
L 160.490016 286.127836 
L 165.635995 289.195395 
L 165.888155 289.358439 
L 170.782014 292.878284 
L 172.941128 294.638439 
L 175.927993 297.448944 
L 178.288898 299.91844 
L 181.074014 303.430913 
L 182.35873 305.19844 
L 185.457818 310.478441 
L 186.219993 312.109686 
L 187.83119 315.758438 
L 189.634535 321.038439 
L 190.995431 326.318437 
L 191.366011 328.140121 
L 192.053517 331.598435 
L 192.872268 336.878439 
L 193.501493 342.158436 
L 193.988806 347.438437 
z
" clip-path="url(#p4247693649)" style="fill: #25838e"/>
    <path d="M 211.950011 347.438437 
L 217.096014 347.438437 
L 221.67871 347.438437 
L 221.43546 342.158436 
L 221.124625 336.878439 
L 220.724346 331.598435 
L 220.205037 326.318437 
L 219.527357 321.038439 
L 218.638724 315.758438 
L 217.470015 310.478441 
L 217.096014 309.119169 
L 215.99862 305.19844 
L 214.08685 299.91844 
L 211.950011 295.371066 
L 211.589493 294.638439 
L 208.447464 289.358439 
L 206.804015 287.097988 
L 204.434142 284.078437 
L 201.658014 281.068136 
L 199.357797 278.798422 
L 196.511994 276.305668 
L 192.953956 273.518441 
L 191.366011 272.375282 
L 186.219993 269.035915 
L 184.861617 268.238422 
L 181.074014 266.116077 
L 175.927993 263.581771 
L 174.54757 262.958442 
L 170.782014 261.288734 
L 165.635995 259.25207 
L 161.152336 257.678423 
L 160.490016 257.445057 
L 155.343996 255.737454 
L 150.198015 254.219256 
L 145.052 252.863303 
L 143.156774 252.398445 
L 139.905999 251.579093 
L 134.759998 250.38565 
L 129.613998 249.308578 
L 124.467998 248.333805 
L 119.321997 247.449369 
L 117.267873 247.118424 
L 114.176 246.428087 
L 109.029999 244.375211 
L 103.884001 243.436851 
L 98.738002 243.849239 
L 95.486974 241.838445 
L 93.591998 239.44009 
L 88.446002 240.693564 
L 83.3 238.655698 
L 83.3 241.838445 
L 83.3 247.118424 
L 83.3 252.398445 
L 83.3 254.624556 
L 88.446002 255.191129 
L 93.591998 255.810474 
L 98.738002 256.488519 
L 103.884001 257.232036 
L 106.759417 257.678423 
L 109.029999 258.019959 
L 114.176 258.848483 
L 119.321997 259.761946 
L 124.467998 260.771675 
L 129.613998 261.891 
L 134.06222 262.958442 
L 134.759998 263.123672 
L 139.905999 264.417572 
L 145.052 265.867406 
L 150.198015 267.499625 
L 152.342298 268.238422 
L 155.343996 269.284451 
L 160.490016 271.270873 
L 165.568464 273.518441 
L 165.635995 273.549416 
L 170.782014 276.081494 
L 175.531427 278.798422 
L 175.927993 279.041183 
L 181.074014 282.481947 
L 183.188895 284.078437 
L 186.219993 286.634362 
L 189.113784 289.358439 
L 191.366011 291.821812 
L 193.715506 294.638439 
L 196.511994 298.723759 
L 197.272114 299.91844 
L 200.038073 305.19844 
L 201.658014 309.213388 
L 202.147179 310.478441 
L 203.796743 315.758438 
L 205.045031 321.038439 
L 205.992188 326.318437 
L 206.714089 331.598435 
L 206.804015 332.419166 
L 207.294501 336.878439 
L 207.747081 342.158436 
L 208.099569 347.438437 
z
" clip-path="url(#p4247693649)" style="fill: #21918c"/>
    <path d="M 222.242011 347.438437 
L 227.388013 347.438437 
L 232.534012 347.438437 
L 235.311333 347.438437 
L 235.130827 342.158436 
L 234.901608 336.878439 
L 234.608047 331.598435 
L 234.229485 326.318437 
L 233.738056 321.038439 
L 233.096831 315.758438 
L 232.534012 312.1486 
L 232.277552 310.478441 
L 231.255495 305.19844 
L 229.911544 299.91844 
L 228.148415 294.638439 
L 227.388013 292.784421 
L 225.939403 289.358439 
L 223.122091 284.078437 
L 222.242011 282.692513 
L 219.61615 278.798422 
L 217.096014 275.662827 
L 215.233577 273.518441 
L 211.950011 270.200272 
L 209.817014 268.238422 
L 206.804015 265.715699 
L 203.127138 262.958442 
L 201.658014 261.924961 
L 196.511994 258.634006 
L 194.860725 257.678423 
L 191.366011 255.716657 
L 186.219993 253.153985 
L 184.564623 252.398445 
L 181.074014 250.812826 
L 175.927993 248.711523 
L 171.543796 247.118424 
L 170.782014 246.837249 
L 165.635995 245.04551 
L 160.490016 243.450483 
L 155.343996 242.024318 
L 154.485196 241.838445 
L 150.198015 239.50562 
L 146.752322 236.558426 
L 145.052 235.229118 
L 140.861005 231.278444 
L 139.905999 230.67629 
L 134.759998 228.112267 
L 130.538507 225.998423 
L 129.613998 225.462101 
L 124.467998 223.042515 
L 119.321997 221.074342 
L 118.372661 220.718422 
L 114.176 215.981551 
L 113.60253 215.438426 
L 109.029999 214.360899 
L 103.884001 213.873678 
L 98.738002 210.953796 
L 95.249523 210.158424 
L 93.591998 209.908994 
L 88.446002 209.101367 
L 83.3 206.70906 
L 83.3 210.158424 
L 83.3 215.438426 
L 83.3 220.718422 
L 83.3 225.998423 
L 83.3 231.278444 
L 83.3 236.558426 
L 83.3 238.655698 
L 88.446002 240.693564 
L 93.591998 239.44009 
L 95.486974 241.838445 
L 98.738002 243.849239 
L 103.884001 243.436851 
L 109.029999 244.375211 
L 114.176 246.428087 
L 117.267873 247.118424 
L 119.321997 247.449369 
L 124.467998 248.333805 
L 129.613998 249.308578 
L 134.759998 250.38565 
L 139.905999 251.579093 
L 143.156774 252.398445 
L 145.052 252.863303 
L 150.198015 254.219256 
L 155.343996 255.737454 
L 160.490016 257.445057 
L 161.152336 257.678423 
L 165.635995 259.25207 
L 170.782014 261.288734 
L 174.54757 262.958442 
L 175.927993 263.581771 
L 181.074014 266.116077 
L 184.861617 268.238422 
L 186.219993 269.035915 
L 191.366011 272.375282 
L 192.953956 273.518441 
L 196.511994 276.305668 
L 199.357797 278.798422 
L 201.658014 281.068136 
L 204.434142 284.078437 
L 206.804015 287.097988 
L 208.447464 289.358439 
L 211.589493 294.638439 
L 211.950011 295.371066 
L 214.08685 299.91844 
L 215.99862 305.19844 
L 217.096014 309.119169 
L 217.470015 310.478441 
L 218.638724 315.758438 
L 219.527357 321.038439 
L 220.205037 326.318437 
L 220.724346 331.598435 
L 221.124625 336.878439 
L 221.43546 342.158436 
L 221.67871 347.438437 
z
" clip-path="url(#p4247693649)" style="fill: #1e9d89"/>
    <path d="M 237.68001 347.438437 
L 242.826011 347.438437 
L 247.971993 347.438437 
L 249.386725 347.438437 
L 249.25305 342.158436 
L 249.084377 336.878439 
L 248.869717 331.598435 
L 248.594503 326.318437 
L 248.23922 321.038439 
L 247.971993 317.914436 
L 247.794993 315.758438 
L 247.245559 310.478441 
L 246.525354 305.19844 
L 245.580639 299.91844 
L 244.343298 294.638439 
L 242.826011 289.653661 
L 242.735762 289.358439 
L 240.7933 284.078437 
L 238.281344 278.798422 
L 237.68001 277.723632 
L 235.224119 273.518441 
L 232.534012 269.710692 
L 231.429586 268.238422 
L 227.388013 263.568065 
L 226.818854 262.958442 
L 222.242011 258.54422 
L 221.25885 257.678423 
L 217.096014 254.272656 
L 214.550452 252.398445 
L 211.950011 250.572742 
L 206.804015 247.344595 
L 206.417249 247.118424 
L 201.658014 244.384389 
L 196.570955 241.838445 
L 196.511994 241.808936 
L 191.366011 239.360584 
L 186.219993 237.211883 
L 184.844334 236.558426 
L 181.074014 233.366952 
L 179.444311 231.278444 
L 175.927993 226.617754 
L 174.905593 225.998423 
L 171.398298 220.718422 
L 170.782014 219.805508 
L 166.483149 215.438426 
L 165.635995 214.424595 
L 160.874201 210.158424 
L 160.490016 209.943506 
L 155.343996 206.435019 
L 154.304346 204.878426 
L 150.198015 201.544968 
L 147.704692 199.598424 
L 145.052 196.687307 
L 139.905999 196.273749 
L 136.708605 194.318425 
L 134.759998 191.335735 
L 129.613998 190.927436 
L 124.467998 189.09593 
L 124.306074 189.038427 
L 121.86522 183.758427 
L 119.321997 182.406477 
L 114.176 180.441818 
L 109.029999 179.807436 
L 103.884001 178.641846 
L 100.905515 178.478445 
L 98.738002 178.357686 
L 93.591998 173.629732 
L 88.446002 173.759497 
L 87.795674 173.198448 
L 83.3 169.463978 
L 83.3 173.198448 
L 83.3 178.478445 
L 83.3 183.758427 
L 83.3 189.038427 
L 83.3 194.318425 
L 83.3 199.598424 
L 83.3 204.878426 
L 83.3 206.70906 
L 88.446002 209.101367 
L 93.591998 209.908994 
L 95.249523 210.158424 
L 98.738002 210.953796 
L 103.884001 213.873678 
L 109.029999 214.360899 
L 113.60253 215.438426 
L 114.176 215.981551 
L 118.372661 220.718422 
L 119.321997 221.074342 
L 124.467998 223.042515 
L 129.613998 225.462101 
L 130.538507 225.998423 
L 134.759998 228.112267 
L 139.905999 230.67629 
L 140.861005 231.278444 
L 145.052 235.229118 
L 146.752322 236.558426 
L 150.198015 239.50562 
L 154.485196 241.838445 
L 155.343996 242.024318 
L 160.490016 243.450483 
L 165.635995 245.04551 
L 170.782014 246.837249 
L 171.543796 247.118424 
L 175.927993 248.711523 
L 181.074014 250.812826 
L 184.564623 252.398445 
L 186.219993 253.153985 
L 191.366011 255.716657 
L 194.860725 257.678423 
L 196.511994 258.634006 
L 201.658014 261.924961 
L 203.127138 262.958442 
L 206.804015 265.715699 
L 209.817014 268.238422 
L 211.950011 270.200272 
L 215.233577 273.518441 
L 217.096014 275.662827 
L 219.61615 278.798422 
L 222.242011 282.692513 
L 223.122091 284.078437 
L 225.939403 289.358439 
L 227.388013 292.784421 
L 228.148415 294.638439 
L 229.911544 299.91844 
L 231.255495 305.19844 
L 232.277552 310.478441 
L 232.534012 312.1486 
L 233.096831 315.758438 
L 233.738056 321.038439 
L 234.229485 326.318437 
L 234.608047 331.598435 
L 234.901608 336.878439 
L 235.130827 342.158436 
L 235.311333 347.438437 
z
" clip-path="url(#p4247693649)" style="fill: #23a983"/>
    <path d="M 253.117989 347.438437 
L 258.26399 347.438437 
L 263.409992 347.438437 
L 264.482089 347.438437 
L 264.385104 342.158436 
L 264.263588 336.878439 
L 264.109937 331.598435 
L 263.914273 326.318437 
L 263.663112 321.038439 
L 263.409992 316.876612 
L 263.345751 315.758438 
L 262.965608 310.478441 
L 262.469073 305.19844 
L 261.81909 299.91844 
L 260.96833 294.638439 
L 259.857569 289.358439 
L 258.414382 284.078437 
L 258.26399 283.616975 
L 256.694898 278.798422 
L 254.503399 273.518441 
L 253.117989 270.761161 
L 251.817102 268.238422 
L 248.546194 262.958442 
L 247.971993 262.142765 
L 244.664075 257.678423 
L 242.826011 255.505426 
L 240.018115 252.398445 
L 237.68001 250.050683 
L 234.516013 247.118424 
L 232.534012 245.402201 
L 228.015133 241.838445 
L 227.388013 241.364844 
L 222.242011 237.738221 
L 220.398482 236.558426 
L 217.096014 234.475452 
L 211.950011 231.573347 
L 211.487506 231.278444 
L 208.250053 225.998423 
L 206.804015 223.875518 
L 205.099593 220.718422 
L 201.658014 215.517465 
L 201.609256 215.438426 
L 199.452156 210.158424 
L 196.914151 204.878426 
L 196.511994 204.150632 
L 192.580711 199.598424 
L 191.366011 198.404202 
L 188.164189 194.318425 
L 186.219993 191.729268 
L 183.520139 189.038427 
L 181.074014 185.439621 
L 179.738836 183.758427 
L 176.927687 178.478445 
L 175.927993 177.20086 
L 170.782014 174.746795 
L 169.28055 173.198448 
L 165.635995 169.059796 
L 164.412007 167.918447 
L 160.490016 164.464385 
L 157.81228 162.638446 
L 155.343996 160.386452 
L 152.152583 157.358448 
L 150.198015 155.418634 
L 145.052 152.462477 
L 144.473607 152.078451 
L 139.905999 148.895036 
L 135.388381 146.798449 
L 134.759998 146.477215 
L 129.613998 142.466456 
L 125.384508 141.51845 
L 124.467998 141.318119 
L 119.321997 140.246812 
L 114.176 139.269062 
L 109.029999 138.375181 
L 103.884001 137.556788 
L 98.738002 136.806518 
L 94.529292 136.238442 
L 93.591998 136.105488 
L 88.446002 135.408545 
L 83.3 134.767807 
L 83.3 136.238442 
L 83.3 141.51845 
L 83.3 146.798449 
L 83.3 152.078451 
L 83.3 157.358448 
L 83.3 162.638446 
L 83.3 167.918447 
L 83.3 169.463978 
L 87.795674 173.198448 
L 88.446002 173.759497 
L 93.591998 173.629732 
L 98.738002 178.357686 
L 100.905515 178.478445 
L 103.884001 178.641846 
L 109.029999 179.807436 
L 114.176 180.441818 
L 119.321997 182.406477 
L 121.86522 183.758427 
L 124.306074 189.038427 
L 124.467998 189.09593 
L 129.613998 190.927436 
L 134.759998 191.335735 
L 136.708605 194.318425 
L 139.905999 196.273749 
L 145.052 196.687307 
L 147.704692 199.598424 
L 150.198015 201.544968 
L 154.304346 204.878426 
L 155.343996 206.435019 
L 160.490016 209.943506 
L 160.874201 210.158424 
L 165.635995 214.424595 
L 166.483149 215.438426 
L 170.782014 219.805508 
L 171.398298 220.718422 
L 174.905593 225.998423 
L 175.927993 226.617754 
L 179.444311 231.278444 
L 181.074014 233.366952 
L 184.844334 236.558426 
L 186.219993 237.211883 
L 191.366011 239.360584 
L 196.511994 241.808936 
L 196.570955 241.838445 
L 201.658014 244.384389 
L 206.417249 247.118424 
L 206.804015 247.344595 
L 211.950011 250.572742 
L 214.550452 252.398445 
L 217.096014 254.272656 
L 221.25885 257.678423 
L 222.242011 258.54422 
L 226.818854 262.958442 
L 227.388013 263.568065 
L 231.429586 268.238422 
L 232.534012 269.710692 
L 235.224119 273.518441 
L 237.68001 277.723632 
L 238.281344 278.798422 
L 240.7933 284.078437 
L 242.735762 289.358439 
L 242.826011 289.653661 
L 244.343298 294.638439 
L 245.580639 299.91844 
L 246.525354 305.19844 
L 247.245559 310.478441 
L 247.794993 315.758438 
L 247.971993 317.914436 
L 248.23922 321.038439 
L 248.594503 326.318437 
L 248.869717 331.598435 
L 249.084377 336.878439 
L 249.25305 342.158436 
L 249.386725 347.438437 
z
" clip-path="url(#p4247693649)" style="fill: #32b67a"/>
    <path d="M 268.55599 347.438437 
L 273.701987 347.438437 
L 278.847989 347.438437 
L 281.344332 347.438437 
L 281.277046 342.158436 
L 281.193409 336.878439 
L 281.088459 331.598435 
L 280.955685 326.318437 
L 280.786469 321.038439 
L 280.56918 315.758438 
L 280.288343 310.478441 
L 279.923512 305.19844 
L 279.447943 299.91844 
L 278.847989 294.806912 
L 278.829223 294.638439 
L 278.101695 289.358439 
L 277.153549 284.078437 
L 275.925221 278.798422 
L 274.346292 273.518441 
L 273.701987 271.723158 
L 272.458448 268.238422 
L 270.144946 262.958442 
L 268.55599 259.931126 
L 267.351406 257.678423 
L 264.032539 252.398445 
L 263.409992 251.515342 
L 260.180073 247.118424 
L 258.26399 244.805373 
L 255.668212 241.838445 
L 253.117989 239.170802 
L 250.447113 236.558426 
L 247.971993 234.283433 
L 244.434919 231.278444 
L 242.826011 229.964387 
L 237.68001 226.108305 
L 237.524641 225.998423 
L 234.104607 220.718422 
L 232.534012 216.845539 
L 232.075777 215.438426 
L 232.198315 210.158424 
L 228.504554 204.878426 
L 227.920905 199.598424 
L 227.388013 198.730622 
L 225.112216 194.318425 
L 222.242011 189.081855 
L 222.208008 189.038427 
L 221.693598 183.758427 
L 218.647525 178.478445 
L 217.096014 174.366638 
L 216.394239 173.198448 
L 213.588646 167.918447 
L 211.950011 165.382796 
L 209.651851 162.638446 
L 206.804015 158.136223 
L 206.356934 157.358448 
L 206.804015 152.735557 
L 206.901377 152.078451 
L 206.804015 151.937899 
L 201.75327 146.798449 
L 201.658014 146.697837 
L 199.102121 141.51845 
L 196.511994 138.432511 
L 193.034778 136.238442 
L 191.366011 135.396257 
L 186.219993 132.970648 
L 181.447965 130.958438 
L 181.074014 130.796657 
L 175.927993 128.672105 
L 170.782014 126.767802 
L 167.586434 125.678439 
L 165.635995 124.986827 
L 160.490016 123.274499 
L 155.343996 121.726649 
L 150.487954 120.398439 
L 150.198015 120.315023 
L 145.052 118.894422 
L 139.905999 117.60252 
L 134.759998 116.425214 
L 129.613998 115.350193 
L 128.448032 115.11844 
L 124.467998 114.276705 
L 119.321997 113.268916 
L 114.176 112.345536 
L 109.029999 111.498289 
L 103.884001 110.720088 
L 98.738002 110.004369 
L 97.486132 109.83844 
L 93.591998 109.283991 
L 88.446002 108.601724 
L 83.3 107.973175 
L 83.3 109.83844 
L 83.3 115.11844 
L 83.3 120.398439 
L 83.3 125.678439 
L 83.3 130.958438 
L 83.3 134.767807 
L 88.446002 135.408545 
L 93.591998 136.105488 
L 94.529292 136.238442 
L 98.738002 136.806518 
L 103.884001 137.556788 
L 109.029999 138.375181 
L 114.176 139.269062 
L 119.321997 140.246812 
L 124.467998 141.318119 
L 125.384508 141.51845 
L 129.613998 142.466456 
L 134.759998 146.477215 
L 135.388381 146.798449 
L 139.905999 148.895036 
L 144.473607 152.078451 
L 145.052 152.462477 
L 150.198015 155.418634 
L 152.152583 157.358448 
L 155.343996 160.386452 
L 157.81228 162.638446 
L 160.490016 164.464385 
L 164.412007 167.918447 
L 165.635995 169.059796 
L 169.28055 173.198448 
L 170.782014 174.746795 
L 175.927993 177.20086 
L 176.927687 178.478445 
L 179.738836 183.758427 
L 181.074014 185.439621 
L 183.520139 189.038427 
L 186.219993 191.729268 
L 188.164189 194.318425 
L 191.366011 198.404202 
L 192.580711 199.598424 
L 196.511994 204.150632 
L 196.914151 204.878426 
L 199.452156 210.158424 
L 201.609256 215.438426 
L 201.658014 215.517465 
L 205.099593 220.718422 
L 206.804015 223.875518 
L 208.250053 225.998423 
L 211.487506 231.278444 
L 211.950011 231.573347 
L 217.096014 234.475452 
L 220.398482 236.558426 
L 222.242011 237.738221 
L 227.388013 241.364844 
L 228.015133 241.838445 
L 232.534012 245.402201 
L 234.516013 247.118424 
L 237.68001 250.050683 
L 240.018115 252.398445 
L 242.826011 255.505426 
L 244.664075 257.678423 
L 247.971993 262.142765 
L 248.546194 262.958442 
L 251.817102 268.238422 
L 253.117989 270.761161 
L 254.503399 273.518441 
L 256.694898 278.798422 
L 258.26399 283.616975 
L 258.414382 284.078437 
L 259.857569 289.358439 
L 260.96833 294.638439 
L 261.81909 299.91844 
L 262.469073 305.19844 
L 262.965608 310.478441 
L 263.345751 315.758438 
L 263.409992 316.876612 
L 263.663112 321.038439 
L 263.914273 326.318437 
L 264.109937 331.598435 
L 264.263588 336.878439 
L 264.385104 342.158436 
L 264.482089 347.438437 
z
" clip-path="url(#p4247693649)" style="fill: #48c16e"/>
    <path d="M 283.993988 347.438437 
L 289.139996 347.438437 
L 294.285999 347.438437 
L 299.431998 347.438437 
L 301.02196 347.438437 
L 300.973205 342.158436 
L 300.913112 336.878439 
L 300.838385 331.598435 
L 300.744684 326.318437 
L 300.626231 321.038439 
L 300.475319 315.758438 
L 300.281645 310.478441 
L 300.031531 305.19844 
L 299.706828 299.91844 
L 299.431998 296.427189 
L 299.300716 294.638439 
L 298.811014 289.358439 
L 298.172012 284.078437 
L 297.341349 278.798422 
L 296.268676 273.518441 
L 294.895282 268.238422 
L 294.285999 266.290119 
L 293.269248 262.958442 
L 291.304198 257.678423 
L 289.139996 252.954405 
L 288.885918 252.398445 
L 286.152412 247.118424 
L 283.993988 243.588176 
L 282.904627 241.838445 
L 279.171192 236.558426 
L 278.847989 236.137603 
L 274.976022 231.278444 
L 273.701987 229.817073 
L 270.209262 225.998423 
L 268.55599 224.304424 
L 264.847 220.718422 
L 263.409992 218.485457 
L 261.824782 215.438426 
L 259.613938 210.158424 
L 260.048413 204.878426 
L 258.26399 201.278858 
L 257.557457 199.598424 
L 257.919253 194.318425 
L 255.642322 189.038427 
L 255.843202 183.758427 
L 255.086804 178.478445 
L 253.117989 175.313894 
L 251.836306 173.198448 
L 250.747879 167.918447 
L 250.111289 162.638446 
L 248.202719 157.358448 
L 247.971993 156.801559 
L 245.980378 152.078451 
L 246.120034 146.798449 
L 242.826011 142.120057 
L 242.52501 141.51845 
L 241.743892 136.238442 
L 239.466171 130.958438 
L 237.68001 129.452927 
L 232.838128 125.678439 
L 232.534012 125.44264 
L 227.388013 121.656241 
L 225.531596 120.398439 
L 222.242011 118.146131 
L 217.375116 115.11844 
L 217.096014 114.941205 
L 211.950011 111.823979 
L 208.32317 109.83844 
L 206.804015 108.979373 
L 201.658014 106.249279 
L 198.159656 104.558439 
L 196.511994 103.727464 
L 191.366011 101.289945 
L 186.651795 99.27844 
L 186.219993 99.084479 
L 181.074014 96.872602 
L 175.927993 94.881709 
L 173.480922 93.998441 
L 170.782014 92.963551 
L 165.635995 91.124291 
L 160.490016 89.45774 
L 158.052326 88.718441 
L 155.343996 87.839149 
L 150.198015 86.277201 
L 145.052 84.854779 
L 139.905999 83.556759 
L 139.416918 83.438445 
L 134.759998 82.223427 
L 129.613998 80.98978 
L 124.467998 79.860379 
L 119.321997 78.82489 
L 115.768952 78.158445 
L 114.176 77.834163 
L 109.029999 76.838527 
L 103.884001 75.92365 
L 98.738002 75.082132 
L 93.591998 74.307245 
L 88.446002 73.593077 
L 83.3 72.934453 
L 83.3 78.158445 
L 83.3 83.438445 
L 83.3 88.718441 
L 83.3 93.998441 
L 83.3 99.27844 
L 83.3 104.558439 
L 83.3 107.973175 
L 88.446002 108.601724 
L 93.591998 109.283991 
L 97.486132 109.83844 
L 98.738002 110.004369 
L 103.884001 110.720088 
L 109.029999 111.498289 
L 114.176 112.345536 
L 119.321997 113.268916 
L 124.467998 114.276705 
L 128.448032 115.11844 
L 129.613998 115.350193 
L 134.759998 116.425214 
L 139.905999 117.60252 
L 145.052 118.894422 
L 150.198015 120.315023 
L 150.487954 120.398439 
L 155.343996 121.726649 
L 160.490016 123.274499 
L 165.635995 124.986827 
L 167.586434 125.678439 
L 170.782014 126.767802 
L 175.927993 128.672105 
L 181.074014 130.796657 
L 181.447965 130.958438 
L 186.219993 132.970648 
L 191.366011 135.396257 
L 193.034778 136.238442 
L 196.511994 138.432511 
L 199.102121 141.51845 
L 201.658014 146.697837 
L 201.75327 146.798449 
L 206.804015 151.937899 
L 206.901377 152.078451 
L 206.804015 152.735557 
L 206.356934 157.358448 
L 206.804015 158.136223 
L 209.651851 162.638446 
L 211.950011 165.382796 
L 213.588646 167.918447 
L 216.394239 173.198448 
L 217.096014 174.366638 
L 218.647525 178.478445 
L 221.693598 183.758427 
L 222.208008 189.038427 
L 222.242011 189.081855 
L 225.112216 194.318425 
L 227.388013 198.730622 
L 227.920905 199.598424 
L 228.504554 204.878426 
L 232.198315 210.158424 
L 232.075777 215.438426 
L 232.534012 216.845539 
L 234.104607 220.718422 
L 237.524641 225.998423 
L 237.68001 226.108305 
L 242.826011 229.964387 
L 244.434919 231.278444 
L 247.971993 234.283433 
L 250.447113 236.558426 
L 253.117989 239.170802 
L 255.668212 241.838445 
L 258.26399 244.805373 
L 260.180073 247.118424 
L 263.409992 251.515342 
L 264.032539 252.398445 
L 267.351406 257.678423 
L 268.55599 259.931126 
L 270.144946 262.958442 
L 272.458448 268.238422 
L 273.701987 271.723158 
L 274.346292 273.518441 
L 275.925221 278.798422 
L 277.153549 284.078437 
L 278.101695 289.358439 
L 278.829223 294.638439 
L 278.847989 294.806912 
L 279.447943 299.91844 
L 279.923512 305.19844 
L 280.288343 310.478441 
L 280.56918 315.758438 
L 280.786469 321.038439 
L 280.955685 326.318437 
L 281.088459 331.598435 
L 281.193409 336.878439 
L 281.277046 342.158436 
L 281.344332 347.438437 
z
" clip-path="url(#p4247693649)" style="fill: #65cb5e"/>
    <path d="M 304.577998 347.438437 
L 309.723998 347.438437 
L 314.869998 347.438437 
L 320.015998 347.438437 
L 325.161998 347.438437 
L 325.610163 347.438437 
L 325.57466 342.158436 
L 325.531461 336.878439 
L 325.478125 331.598435 
L 325.411909 326.318437 
L 325.329071 321.038439 
L 325.224564 315.758438 
L 325.161998 313.220906 
L 325.100232 310.478441 
L 324.950757 305.19844 
L 324.757875 299.91844 
L 324.507662 294.638439 
L 324.18181 289.358439 
L 323.756785 284.078437 
L 323.203013 278.798422 
L 322.484213 273.518441 
L 321.557474 268.238422 
L 320.373644 262.958442 
L 320.015998 261.622664 
L 319.005393 257.678423 
L 317.345224 252.398445 
L 315.292867 247.118424 
L 314.869998 246.158341 
L 313.002118 241.838445 
L 310.27545 236.558426 
L 309.723998 235.593074 
L 307.261475 231.278444 
L 304.577998 227.183176 
L 303.793852 225.998423 
L 299.956081 220.718422 
L 299.431998 220.045678 
L 295.753295 215.438426 
L 294.285999 213.39634 
L 291.444181 210.158424 
L 291.779787 204.878426 
L 291.178346 199.598424 
L 290.372276 194.318425 
L 289.241985 189.038427 
L 289.399984 183.758427 
L 289.139996 182.948387 
L 287.869502 178.478445 
L 288.448027 173.198448 
L 288.051915 167.918447 
L 286.946061 162.638446 
L 286.457943 157.358448 
L 286.365963 152.078451 
L 283.993988 147.021065 
L 283.907018 146.798449 
L 283.993988 145.50867 
L 284.315387 141.51845 
L 283.993988 140.24609 
L 282.768727 136.238442 
L 282.006194 130.958438 
L 281.667148 125.678439 
L 278.847989 122.188085 
L 277.350166 120.398439 
L 273.701987 116.198146 
L 272.724396 115.11844 
L 268.55599 110.624651 
L 267.791524 109.83844 
L 263.409992 105.386944 
L 262.550902 104.558439 
L 258.26399 100.43122 
L 256.996704 99.27844 
L 253.117989 95.7231 
L 251.117914 93.998441 
L 247.971993 91.241847 
L 244.898224 88.718441 
L 242.826011 86.97668 
L 238.315023 83.438445 
L 237.68001 82.925039 
L 232.534012 78.979043 
L 231.393426 78.158445 
L 227.388013 75.163059 
L 224.082678 72.878439 
L 222.242011 71.54884 
L 217.096014 68.084267 
L 216.334179 67.598438 
L 211.950011 64.657231 
L 208.142423 62.318442 
L 206.804015 61.449713 
L 201.658014 58.303435 
L 199.430829 57.038437 
L 196.511994 55.277076 
L 191.366011 52.41357 
L 190.118746 51.758443 
L 186.219993 49.57205 
L 181.074014 46.940798 
L 180.121144 46.478442 
L 175.927993 44.296402 
L 170.782014 41.857641 
L 169.307932 41.198439 
L 165.635995 39.430044 
L 160.490016 37.152191 
L 157.485025 35.918436 
L 155.343996 34.968077 
L 150.198015 32.825251 
L 145.052 30.882532 
L 144.37491 30.638441 
L 139.905999 28.88925 
L 134.759998 27.045536 
L 129.613998 25.367089 
L 129.586436 25.358437 
L 124.467998 23.607092 
L 119.321997 22.001971 
L 114.176 20.536054 
L 112.479182 20.07844 
L 109.029999 19.060797 
L 103.884001 17.648426 
L 98.738002 16.355545 
L 93.591998 15.170029 
L 91.890561 14.798437 
L 88.446002 14.798437 
L 83.3 14.798437 
L 83.3 20.07844 
L 83.3 25.358437 
L 83.3 30.638441 
L 83.3 35.918436 
L 83.3 41.198439 
L 83.3 46.478442 
L 83.3 51.758443 
L 83.3 57.038437 
L 83.3 62.318442 
L 83.3 67.598438 
L 83.3 72.878439 
L 83.3 72.934453 
L 88.446002 73.593077 
L 93.591998 74.307245 
L 98.738002 75.082132 
L 103.884001 75.92365 
L 109.029999 76.838527 
L 114.176 77.834163 
L 115.768952 78.158445 
L 119.321997 78.82489 
L 124.467998 79.860379 
L 129.613998 80.98978 
L 134.759998 82.223427 
L 139.416918 83.438445 
L 139.905999 83.556759 
L 145.052 84.854779 
L 150.198015 86.277201 
L 155.343996 87.839149 
L 158.052326 88.718441 
L 160.490016 89.45774 
L 165.635995 91.124291 
L 170.782014 92.963551 
L 173.480922 93.998441 
L 175.927993 94.881709 
L 181.074014 96.872602 
L 186.219993 99.084479 
L 186.651795 99.27844 
L 191.366011 101.289945 
L 196.511994 103.727464 
L 198.159656 104.558439 
L 201.658014 106.249279 
L 206.804015 108.979373 
L 208.32317 109.83844 
L 211.950011 111.823979 
L 217.096014 114.941205 
L 217.375116 115.11844 
L 222.242011 118.146131 
L 225.531596 120.398439 
L 227.388013 121.656241 
L 232.534012 125.44264 
L 232.838128 125.678439 
L 237.68001 129.452927 
L 239.466171 130.958438 
L 241.743892 136.238442 
L 242.52501 141.51845 
L 242.826011 142.120057 
L 246.120034 146.798449 
L 245.980378 152.078451 
L 247.971993 156.801559 
L 248.202719 157.358448 
L 250.111289 162.638446 
L 250.747879 167.918447 
L 251.836306 173.198448 
L 253.117989 175.313894 
L 255.086804 178.478445 
L 255.843202 183.758427 
L 255.642322 189.038427 
L 257.919253 194.318425 
L 257.557457 199.598424 
L 258.26399 201.278858 
L 260.048413 204.878426 
L 259.613938 210.158424 
L 261.824782 215.438426 
L 263.409992 218.485457 
L 264.847 220.718422 
L 268.55599 224.304424 
L 270.209262 225.998423 
L 273.701987 229.817073 
L 274.976022 231.278444 
L 278.847989 236.137603 
L 279.171192 236.558426 
L 282.904627 241.838445 
L 283.993988 243.588176 
L 286.152412 247.118424 
L 288.885918 252.398445 
L 289.139996 252.954405 
L 291.304198 257.678423 
L 293.269248 262.958442 
L 294.285999 266.290119 
L 294.895282 268.238422 
L 296.268676 273.518441 
L 297.341349 278.798422 
L 298.172012 284.078437 
L 298.811014 289.358439 
L 299.300716 294.638439 
L 299.431998 296.427189 
L 299.706828 299.91844 
L 300.031531 305.19844 
L 300.281645 310.478441 
L 300.475319 315.758438 
L 300.626231 321.038439 
L 300.744684 326.318437 
L 300.838385 331.598435 
L 300.913112 336.878439 
L 300.973205 342.158436 
L 301.02196 347.438437 
z
" clip-path="url(#p4247693649)" style="fill: #84d44b"/>
    <path d="M 330.307996 347.438437 
L 335.453997 347.438437 
L 340.599993 347.438437 
L 345.745992 347.438437 
L 350.891998 347.438437 
L 356.037999 347.438437 
L 360.209787 347.438437 
L 360.186723 342.158436 
L 360.158914 336.878439 
L 360.124999 331.598435 
L 360.083415 326.318437 
L 360.031922 321.038439 
L 359.967695 315.758438 
L 359.886894 310.478441 
L 359.784348 305.19844 
L 359.653398 299.91844 
L 359.484853 294.638439 
L 359.266677 289.358439 
L 358.983194 284.078437 
L 358.613827 278.798422 
L 358.132961 273.518441 
L 357.508714 268.238422 
L 356.703473 262.958442 
L 356.037999 259.469169 
L 355.719498 257.678423 
L 354.579693 252.398445 
L 353.157446 247.118424 
L 351.404849 241.838445 
L 350.891998 240.487814 
L 349.46276 236.558426 
L 347.196325 231.278444 
L 345.745992 228.3291 
L 344.631714 225.998423 
L 341.786828 220.718422 
L 340.599993 218.72619 
L 338.669894 215.438426 
L 335.453997 210.552734 
L 335.19609 210.158424 
L 331.538683 204.878426 
L 330.537978 199.598424 
L 330.307996 197.560588 
L 329.983291 194.318425 
L 329.840615 189.038427 
L 330.307996 184.651587 
L 330.414641 183.758427 
L 330.503917 178.478445 
L 330.307996 177.683332 
L 329.370593 173.198448 
L 329.185988 167.918447 
L 329.244905 162.638446 
L 329.799552 157.358448 
L 329.064999 152.078451 
L 329.480197 146.798449 
L 329.147335 141.51845 
L 328.707297 136.238442 
L 327.973587 130.958438 
L 327.816306 125.678439 
L 327.551746 120.398439 
L 325.491101 115.11844 
L 325.161998 114.565578 
L 322.358806 109.83844 
L 320.015998 106.135722 
L 319.016482 104.558439 
L 315.558239 99.27844 
L 314.869998 98.244514 
L 312.024997 93.998441 
L 309.723998 90.682353 
L 308.346765 88.718441 
L 304.577998 83.477934 
L 304.549194 83.438445 
L 300.7567 78.158445 
L 299.431998 76.33794 
L 296.872119 72.878439 
L 294.285999 69.406937 
L 292.912246 67.598438 
L 289.139996 62.63505 
L 288.894057 62.318442 
L 284.894805 57.038437 
L 283.993988 55.834296 
L 280.874671 51.758443 
L 278.847989 49.08174 
L 276.82779 46.478442 
L 273.701987 42.390553 
L 272.766284 41.198439 
L 268.710527 35.918436 
L 268.55599 35.708846 
L 264.718786 30.638441 
L 263.409992 28.871229 
L 260.736324 25.358437 
L 258.26399 22.030721 
L 256.77178 20.07844 
L 253.117989 15.16975 
L 252.833376 14.798437 
L 247.971993 14.798437 
L 242.826011 14.798437 
L 237.68001 14.798437 
L 232.534012 14.798437 
L 227.388013 14.798437 
L 222.242011 14.798437 
L 217.096014 14.798437 
L 211.950011 14.798437 
L 206.804015 14.798437 
L 201.658014 14.798437 
L 196.511994 14.798437 
L 191.366011 14.798437 
L 186.219993 14.798437 
L 181.074014 14.798437 
L 175.927993 14.798437 
L 170.782014 14.798437 
L 165.635995 14.798437 
L 160.490016 14.798437 
L 155.343996 14.798437 
L 150.198015 14.798437 
L 145.052 14.798437 
L 139.905999 14.798437 
L 134.759998 14.798437 
L 129.613998 14.798437 
L 124.467998 14.798437 
L 119.321997 14.798437 
L 114.176 14.798437 
L 109.029999 14.798437 
L 103.884001 14.798437 
L 98.738002 14.798437 
L 93.591998 14.798437 
L 91.890561 14.798437 
L 93.591998 15.170029 
L 98.738002 16.355545 
L 103.884001 17.648426 
L 109.029999 19.060797 
L 112.479182 20.07844 
L 114.176 20.536054 
L 119.321997 22.001971 
L 124.467998 23.607092 
L 129.586436 25.358437 
L 129.613998 25.367089 
L 134.759998 27.045536 
L 139.905999 28.88925 
L 144.37491 30.638441 
L 145.052 30.882532 
L 150.198015 32.825251 
L 155.343996 34.968077 
L 157.485025 35.918436 
L 160.490016 37.152191 
L 165.635995 39.430044 
L 169.307932 41.198439 
L 170.782014 41.857641 
L 175.927993 44.296402 
L 180.121144 46.478442 
L 181.074014 46.940798 
L 186.219993 49.57205 
L 190.118746 51.758443 
L 191.366011 52.41357 
L 196.511994 55.277076 
L 199.430829 57.038437 
L 201.658014 58.303435 
L 206.804015 61.449713 
L 208.142423 62.318442 
L 211.950011 64.657231 
L 216.334179 67.598438 
L 217.096014 68.084267 
L 222.242011 71.54884 
L 224.082678 72.878439 
L 227.388013 75.163059 
L 231.393426 78.158445 
L 232.534012 78.979043 
L 237.68001 82.925039 
L 238.315023 83.438445 
L 242.826011 86.97668 
L 244.898224 88.718441 
L 247.971993 91.241847 
L 251.117914 93.998441 
L 253.117989 95.7231 
L 256.996704 99.27844 
L 258.26399 100.43122 
L 262.550902 104.558439 
L 263.409992 105.386944 
L 267.791524 109.83844 
L 268.55599 110.624651 
L 272.724396 115.11844 
L 273.701987 116.198146 
L 277.350166 120.398439 
L 278.847989 122.188085 
L 281.667148 125.678439 
L 282.006194 130.958438 
L 282.768727 136.238442 
L 283.993988 140.24609 
L 284.315387 141.51845 
L 283.993988 145.50867 
L 283.907018 146.798449 
L 283.993988 147.021065 
L 286.365963 152.078451 
L 286.457943 157.358448 
L 286.946061 162.638446 
L 288.051915 167.918447 
L 288.448027 173.198448 
L 287.869502 178.478445 
L 289.139996 182.948387 
L 289.399984 183.758427 
L 289.241985 189.038427 
L 290.372276 194.318425 
L 291.178346 199.598424 
L 291.779787 204.878426 
L 291.444181 210.158424 
L 294.285999 213.39634 
L 295.753295 215.438426 
L 299.431998 220.045678 
L 299.956081 220.718422 
L 303.793852 225.998423 
L 304.577998 227.183176 
L 307.261475 231.278444 
L 309.723998 235.593074 
L 310.27545 236.558426 
L 313.002118 241.838445 
L 314.869998 246.158341 
L 315.292867 247.118424 
L 317.345224 252.398445 
L 319.005393 257.678423 
L 320.015998 261.622664 
L 320.373644 262.958442 
L 321.557474 268.238422 
L 322.484213 273.518441 
L 323.203013 278.798422 
L 323.756785 284.078437 
L 324.18181 289.358439 
L 324.507662 294.638439 
L 324.757875 299.91844 
L 324.950757 305.19844 
L 325.100232 310.478441 
L 325.161998 313.220906 
L 325.224564 315.758438 
L 325.329071 321.038439 
L 325.411909 326.318437 
L 325.478125 331.598435 
L 325.531461 336.878439 
L 325.57466 342.158436 
L 325.610163 347.438437 
z
" clip-path="url(#p4247693649)" style="fill: #a8db34"/>
    <path d="M 361.183996 347.438437 
L 366.33 347.438437 
L 371.475995 347.438437 
L 376.621996 347.438437 
L 381.767999 347.438437 
L 386.914001 347.438437 
L 392.059997 347.438437 
L 397.206001 347.438437 
L 402.351998 347.438437 
L 407.498 347.438437 
L 407.498 342.158436 
L 407.498 336.878439 
L 407.498 331.598435 
L 407.498 326.318437 
L 407.498 321.038439 
L 407.498 315.758438 
L 407.498 310.478441 
L 407.498 305.19844 
L 407.498 299.91844 
L 407.498 294.638439 
L 407.498 289.358439 
L 407.498 284.078437 
L 407.498 278.798422 
L 407.498 273.518441 
L 407.498 268.238422 
L 407.498 262.958442 
L 407.498 257.678423 
L 407.498 252.398445 
L 407.498 247.118424 
L 407.498 241.838445 
L 407.498 236.558426 
L 407.498 231.278444 
L 407.498 225.998423 
L 407.498 220.718422 
L 407.498 216.145384 
L 407.147407 215.438426 
L 404.301859 210.158424 
L 402.351998 206.932375 
L 401.161784 204.878426 
L 397.816293 199.598424 
L 397.206001 198.688749 
L 394.371064 194.318425 
L 394.775641 189.038427 
L 394.93644 183.758427 
L 395.305458 178.478445 
L 395.1598 173.198448 
L 395.456651 167.918447 
L 395.974318 162.638446 
L 395.694048 157.358448 
L 396.193725 152.078451 
L 396.80716 146.798449 
L 397.206001 142.086113 
L 397.263491 141.51845 
L 397.206001 140.827045 
L 396.845451 136.238442 
L 396.810505 130.958438 
L 397.206001 129.013317 
L 397.912233 125.678439 
L 397.683501 120.398439 
L 397.418507 115.11844 
L 397.206001 110.128563 
L 397.194572 109.83844 
L 394.737686 104.558439 
L 392.059997 99.293065 
L 392.052877 99.27844 
L 389.482234 93.998441 
L 386.914001 89.091567 
L 386.726324 88.718441 
L 384.085408 83.438445 
L 381.767999 79.046643 
L 381.31634 78.158445 
L 378.650239 72.878439 
L 376.621996 69.002089 
L 375.912876 67.598438 
L 373.267095 62.318442 
L 371.475995 58.816185 
L 370.597161 57.038437 
L 368.014517 51.758443 
L 366.33 48.349507 
L 365.435623 46.478442 
L 362.954797 41.198439 
L 361.183996 37.456001 
L 360.479936 35.918436 
L 358.132696 30.638441 
L 356.037999 25.984141 
L 355.765472 25.358437 
L 353.57664 20.07844 
L 351.35945 14.798437 
L 350.891998 14.798437 
L 345.745992 14.798437 
L 340.599993 14.798437 
L 335.453997 14.798437 
L 330.307996 14.798437 
L 325.161998 14.798437 
L 320.015998 14.798437 
L 314.869998 14.798437 
L 309.723998 14.798437 
L 304.577998 14.798437 
L 299.431998 14.798437 
L 294.285999 14.798437 
L 289.139996 14.798437 
L 283.993988 14.798437 
L 278.847989 14.798437 
L 273.701987 14.798437 
L 268.55599 14.798437 
L 263.409992 14.798437 
L 258.26399 14.798437 
L 253.117989 14.798437 
L 252.833376 14.798437 
L 253.117989 15.16975 
L 256.77178 20.07844 
L 258.26399 22.030721 
L 260.736324 25.358437 
L 263.409992 28.871229 
L 264.718786 30.638441 
L 268.55599 35.708846 
L 268.710527 35.918436 
L 272.766284 41.198439 
L 273.701987 42.390553 
L 276.82779 46.478442 
L 278.847989 49.08174 
L 280.874671 51.758443 
L 283.993988 55.834296 
L 284.894805 57.038437 
L 288.894057 62.318442 
L 289.139996 62.63505 
L 292.912246 67.598438 
L 294.285999 69.406937 
L 296.872119 72.878439 
L 299.431998 76.33794 
L 300.7567 78.158445 
L 304.549194 83.438445 
L 304.577998 83.477934 
L 308.346765 88.718441 
L 309.723998 90.682353 
L 312.024997 93.998441 
L 314.869998 98.244514 
L 315.558239 99.27844 
L 319.016482 104.558439 
L 320.015998 106.135722 
L 322.358806 109.83844 
L 325.161998 114.565578 
L 325.491101 115.11844 
L 327.551746 120.398439 
L 327.816306 125.678439 
L 327.973587 130.958438 
L 328.707297 136.238442 
L 329.147335 141.51845 
L 329.480197 146.798449 
L 329.064999 152.078451 
L 329.799552 157.358448 
L 329.244905 162.638446 
L 329.185988 167.918447 
L 329.370593 173.198448 
L 330.307996 177.683332 
L 330.503917 178.478445 
L 330.414641 183.758427 
L 330.307996 184.651587 
L 329.840615 189.038427 
L 329.983291 194.318425 
L 330.307996 197.560588 
L 330.537978 199.598424 
L 331.538683 204.878426 
L 335.19609 210.158424 
L 335.453997 210.552734 
L 338.669894 215.438426 
L 340.599993 218.72619 
L 341.786828 220.718422 
L 344.631714 225.998423 
L 345.745992 228.3291 
L 347.196325 231.278444 
L 349.46276 236.558426 
L 350.891998 240.487814 
L 351.404849 241.838445 
L 353.157446 247.118424 
L 354.579693 252.398445 
L 355.719498 257.678423 
L 356.037999 259.469169 
L 356.703473 262.958442 
L 357.508714 268.238422 
L 358.132961 273.518441 
L 358.613827 278.798422 
L 358.983194 284.078437 
L 359.266677 289.358439 
L 359.484853 294.638439 
L 359.653398 299.91844 
L 359.784348 305.19844 
L 359.886894 310.478441 
L 359.967695 315.758438 
L 360.031922 321.038439 
L 360.083415 326.318437 
L 360.124999 331.598435 
L 360.158914 336.878439 
L 360.186723 342.158436 
L 360.209787 347.438437 
z
" clip-path="url(#p4247693649)" style="fill: #cae11f"/>
    <path d="M 407.498 216.145384 
L 407.498 215.438426 
L 407.498 210.158424 
L 407.498 204.878426 
L 407.498 199.598424 
L 407.498 194.318425 
L 407.498 189.038427 
L 407.498 183.758427 
L 407.498 178.478445 
L 407.498 173.198448 
L 407.498 167.918447 
L 407.498 162.638446 
L 407.498 157.358448 
L 407.498 152.078451 
L 407.498 146.798449 
L 407.498 141.51845 
L 407.498 136.238442 
L 407.498 130.958438 
L 407.498 125.678439 
L 407.498 120.398439 
L 407.498 115.11844 
L 407.498 109.83844 
L 407.498 104.558439 
L 407.498 99.27844 
L 407.498 93.998441 
L 407.498 88.718441 
L 407.498 83.438445 
L 407.498 78.158445 
L 407.498 72.878439 
L 407.498 67.598438 
L 407.498 62.318442 
L 407.498 57.038437 
L 407.498 51.758443 
L 407.498 46.478442 
L 407.498 41.198439 
L 407.498 35.918436 
L 407.498 30.638441 
L 407.498 25.358437 
L 407.498 20.07844 
L 407.498 14.798437 
L 402.351998 14.798437 
L 397.206001 14.798437 
L 392.059997 14.798437 
L 386.914001 14.798437 
L 381.767999 14.798437 
L 376.621996 14.798437 
L 371.475995 14.798437 
L 366.33 14.798437 
L 361.183996 14.798437 
L 356.037999 14.798437 
L 351.35945 14.798437 
L 353.57664 20.07844 
L 355.765472 25.358437 
L 356.037999 25.984141 
L 358.132696 30.638441 
L 360.479936 35.918436 
L 361.183996 37.456001 
L 362.954797 41.198439 
L 365.435623 46.478442 
L 366.33 48.349507 
L 368.014517 51.758443 
L 370.597161 57.038437 
L 371.475995 58.816185 
L 373.267095 62.318442 
L 375.912876 67.598438 
L 376.621996 69.002089 
L 378.650239 72.878439 
L 381.31634 78.158445 
L 381.767999 79.046643 
L 384.085408 83.438445 
L 386.726324 88.718441 
L 386.914001 89.091567 
L 389.482234 93.998441 
L 392.052877 99.27844 
L 392.059997 99.293065 
L 394.737686 104.558439 
L 397.194572 109.83844 
L 397.206001 110.128563 
L 397.418507 115.11844 
L 397.683501 120.398439 
L 397.912233 125.678439 
L 397.206001 129.013317 
L 396.810505 130.958438 
L 396.845451 136.238442 
L 397.206001 140.827045 
L 397.263491 141.51845 
L 397.206001 142.086113 
L 396.80716 146.798449 
L 396.193725 152.078451 
L 395.694048 157.358448 
L 395.974318 162.638446 
L 395.456651 167.918447 
L 395.1598 173.198448 
L 395.305458 178.478445 
L 394.93644 183.758427 
L 394.775641 189.038427 
L 394.371064 194.318425 
L 397.206001 198.688749 
L 397.816293 199.598424 
L 401.161784 204.878426 
L 402.351998 206.932375 
L 404.301859 210.158424 
L 407.147407 215.438426 
z
" clip-path="url(#p4247693649)" style="fill: #efe51c"/>
   </g>
   <g id="matplotlib.axis_1">
    <g id="xtick_1">
     <g id="line2d_1">
      <defs>
       <path id="maa14f44e04" d="M 0 0 
L 0 2 
" style="stroke: #000000; stroke-width: 1.5"/>
      </defs>
      <g>
       <use xlink:href="#maa14f44e04" x="83.300002" y="347.438437" style="stroke: #000000; stroke-width: 1.5"/>
      </g>
     </g>
     <g id="text_1">
      <!-- $\mathdefault{10^{-2}}$ -->
      <g transform="translate(59.800002 368.135312) scale(0.2 -0.2)">
       <defs>
        <path id="DejaVuSans-31" d="M 794 531 
L 1825 531 
L 1825 4091 
L 703 3866 
L 703 4441 
L 1819 4666 
L 2450 4666 
L 2450 531 
L 3481 531 
L 3481 0 
L 794 0 
L 794 531 
z
" transform="scale(0.015625)"/>
        <path id="DejaVuSans-30" d="M 2034 4250 
Q 1547 4250 1301 3770 
Q 1056 3291 1056 2328 
Q 1056 1369 1301 889 
Q 1547 409 2034 409 
Q 2525 409 2770 889 
Q 3016 1369 3016 2328 
Q 3016 3291 2770 3770 
Q 2525 4250 2034 4250 
z
M 2034 4750 
Q 2819 4750 3233 4129 
Q 3647 3509 3647 2328 
Q 3647 1150 3233 529 
Q 2819 -91 2034 -91 
Q 1250 -91 836 529 
Q 422 1150 422 2328 
Q 422 3509 836 4129 
Q 1250 4750 2034 4750 
z
" transform="scale(0.015625)"/>
        <path id="DejaVuSans-2212" d="M 678 2272 
L 4684 2272 
L 4684 1741 
L 678 1741 
L 678 2272 
z
" transform="scale(0.015625)"/>
        <path id="DejaVuSans-32" d="M 1228 531 
L 3431 531 
L 3431 0 
L 469 0 
L 469 531 
Q 828 903 1448 1529 
Q 2069 2156 2228 2338 
Q 2531 2678 2651 2914 
Q 2772 3150 2772 3378 
Q 2772 3750 2511 3984 
Q 2250 4219 1831 4219 
Q 1534 4219 1204 4116 
Q 875 4013 500 3803 
L 500 4441 
Q 881 4594 1212 4672 
Q 1544 4750 1819 4750 
Q 2544 4750 2975 4387 
Q 3406 4025 3406 3419 
Q 3406 3131 3298 2873 
Q 3191 2616 2906 2266 
Q 2828 2175 2409 1742 
Q 1991 1309 1228 531 
z
" transform="scale(0.015625)"/>
       </defs>
       <use xlink:href="#DejaVuSans-31" transform="translate(0 0.765625)"/>
       <use xlink:href="#DejaVuSans-30" transform="translate(63.623047 0.765625)"/>
       <use xlink:href="#DejaVuSans-2212" transform="translate(128.203125 39.046875) scale(0.7)"/>
       <use xlink:href="#DejaVuSans-32" transform="translate(186.855469 39.046875) scale(0.7)"/>
      </g>
     </g>
    </g>
    <g id="xtick_2">
     <g id="line2d_2">
      <g>
       <use xlink:href="#maa14f44e04" x="245.399001" y="347.438437" style="stroke: #000000; stroke-width: 1.5"/>
      </g>
     </g>
     <g id="text_2">
      <!-- $\mathdefault{10^{-1}}$ -->
      <g transform="translate(221.899001 368.135312) scale(0.2 -0.2)">
       <use xlink:href="#DejaVuSans-31" transform="translate(0 0.684375)"/>
       <use xlink:href="#DejaVuSans-30" transform="translate(63.623047 0.684375)"/>
       <use xlink:href="#DejaVuSans-2212" transform="translate(128.203125 38.965625) scale(0.7)"/>
       <use xlink:href="#DejaVuSans-31" transform="translate(186.855469 38.965625) scale(0.7)"/>
      </g>
     </g>
    </g>
    <g id="xtick_3">
     <g id="line2d_3">
      <g>
       <use xlink:href="#maa14f44e04" x="407.498" y="347.438437" style="stroke: #000000; stroke-width: 1.5"/>
      </g>
     </g>
     <g id="text_3">
      <!-- $\mathdefault{10^{0}}$ -->
      <g transform="translate(389.898 368.135312) scale(0.2 -0.2)">
       <use xlink:href="#DejaVuSans-31" transform="translate(0 0.765625)"/>
       <use xlink:href="#DejaVuSans-30" transform="translate(63.623047 0.765625)"/>
       <use xlink:href="#DejaVuSans-30" transform="translate(128.203125 39.046875) scale(0.7)"/>
      </g>
     </g>
    </g>
    <g id="xtick_4">
     <g id="line2d_4">
      <defs>
       <path id="m7f38e57cc0" d="M 0 0 
L 0 2 
" style="stroke: #000000; stroke-width: 0.6"/>
      </defs>
      <g>
       <use xlink:href="#m7f38e57cc0" x="132.096663" y="347.438437" style="stroke: #000000; stroke-width: 0.6"/>
      </g>
     </g>
    </g>
    <g id="xtick_5">
     <g id="line2d_5">
      <g>
       <use xlink:href="#m7f38e57cc0" x="160.640879" y="347.438437" style="stroke: #000000; stroke-width: 0.6"/>
      </g>
     </g>
    </g>
    <g id="xtick_6">
     <g id="line2d_6">
      <g>
       <use xlink:href="#m7f38e57cc0" x="180.893324" y="347.438437" style="stroke: #000000; stroke-width: 0.6"/>
      </g>
     </g>
    </g>
    <g id="xtick_7">
     <g id="line2d_7">
      <g>
       <use xlink:href="#m7f38e57cc0" x="196.60234" y="347.438437" style="stroke: #000000; stroke-width: 0.6"/>
      </g>
     </g>
    </g>
    <g id="xtick_8">
     <g id="line2d_8">
      <g>
       <use xlink:href="#m7f38e57cc0" x="209.43754" y="347.438437" style="stroke: #000000; stroke-width: 0.6"/>
      </g>
     </g>
    </g>
    <g id="xtick_9">
     <g id="line2d_9">
      <g>
       <use xlink:href="#m7f38e57cc0" x="220.289548" y="347.438437" style="stroke: #000000; stroke-width: 0.6"/>
      </g>
     </g>
    </g>
    <g id="xtick_10">
     <g id="line2d_10">
      <g>
       <use xlink:href="#m7f38e57cc0" x="229.689985" y="347.438437" style="stroke: #000000; stroke-width: 0.6"/>
      </g>
     </g>
    </g>
    <g id="xtick_11">
     <g id="line2d_11">
      <g>
       <use xlink:href="#m7f38e57cc0" x="237.981757" y="347.438437" style="stroke: #000000; stroke-width: 0.6"/>
      </g>
     </g>
    </g>
    <g id="xtick_12">
     <g id="line2d_12">
      <g>
       <use xlink:href="#m7f38e57cc0" x="294.195662" y="347.438437" style="stroke: #000000; stroke-width: 0.6"/>
      </g>
     </g>
    </g>
    <g id="xtick_13">
     <g id="line2d_13">
      <g>
       <use xlink:href="#m7f38e57cc0" x="322.739879" y="347.438437" style="stroke: #000000; stroke-width: 0.6"/>
      </g>
     </g>
    </g>
    <g id="xtick_14">
     <g id="line2d_14">
      <g>
       <use xlink:href="#m7f38e57cc0" x="342.992323" y="347.438437" style="stroke: #000000; stroke-width: 0.6"/>
      </g>
     </g>
    </g>
    <g id="xtick_15">
     <g id="line2d_15">
      <g>
       <use xlink:href="#m7f38e57cc0" x="358.701339" y="347.438437" style="stroke: #000000; stroke-width: 0.6"/>
      </g>
     </g>
    </g>
    <g id="xtick_16">
     <g id="line2d_16">
      <g>
       <use xlink:href="#m7f38e57cc0" x="371.53654" y="347.438437" style="stroke: #000000; stroke-width: 0.6"/>
      </g>
     </g>
    </g>
    <g id="xtick_17">
     <g id="line2d_17">
      <g>
       <use xlink:href="#m7f38e57cc0" x="382.388547" y="347.438437" style="stroke: #000000; stroke-width: 0.6"/>
      </g>
     </g>
    </g>
    <g id="xtick_18">
     <g id="line2d_18">
      <g>
       <use xlink:href="#m7f38e57cc0" x="391.788984" y="347.438437" style="stroke: #000000; stroke-width: 0.6"/>
      </g>
     </g>
    </g>
    <g id="xtick_19">
     <g id="line2d_19">
      <g>
       <use xlink:href="#m7f38e57cc0" x="400.080757" y="347.438437" style="stroke: #000000; stroke-width: 0.6"/>
      </g>
     </g>
    </g>
    <g id="text_4">
     <!-- $\lambda$ -->
     <g transform="translate(239.399 391.491562) scale(0.2 -0.2)">
      <defs>
       <path id="DejaVuSans-Oblique-3bb" d="M 2350 4316 
L 3125 0 
L 2516 0 
L 2038 2588 
L 328 0 
L -281 0 
L 1903 3356 
L 1794 3975 
Q 1725 4369 1391 4369 
L 1091 4369 
L 1184 4863 
L 1550 4856 
Q 2253 4847 2350 4316 
z
" transform="scale(0.015625)"/>
      </defs>
      <use xlink:href="#DejaVuSans-Oblique-3bb" transform="translate(0 0.015625)"/>
     </g>
    </g>
   </g>
   <g id="matplotlib.axis_2">
    <g id="ytick_1">
     <g id="line2d_20">
      <defs>
       <path id="m5d0cda0ca1" d="M 0 0 
L -2 0 
" style="stroke: #000000; stroke-width: 1.5"/>
      </defs>
      <g>
       <use xlink:href="#m5d0cda0ca1" x="83.3" y="347.438436" style="stroke: #000000; stroke-width: 1.5"/>
      </g>
     </g>
     <g id="text_5">
      <!-- $\mathdefault{10^{-2}}$ -->
      <g transform="translate(30.8 355.036873) scale(0.2 -0.2)">
       <use xlink:href="#DejaVuSans-31" transform="translate(0 0.765625)"/>
       <use xlink:href="#DejaVuSans-30" transform="translate(63.623047 0.765625)"/>
       <use xlink:href="#DejaVuSans-2212" transform="translate(128.203125 39.046875) scale(0.7)"/>
       <use xlink:href="#DejaVuSans-32" transform="translate(186.855469 39.046875) scale(0.7)"/>
      </g>
     </g>
    </g>
    <g id="ytick_2">
     <g id="line2d_21">
      <g>
       <use xlink:href="#m5d0cda0ca1" x="83.3" y="181.118437" style="stroke: #000000; stroke-width: 1.5"/>
      </g>
     </g>
     <g id="text_6">
      <!-- $\mathdefault{10^{-1}}$ -->
      <g transform="translate(30.8 188.716874) scale(0.2 -0.2)">
       <use xlink:href="#DejaVuSans-31" transform="translate(0 0.684375)"/>
       <use xlink:href="#DejaVuSans-30" transform="translate(63.623047 0.684375)"/>
       <use xlink:href="#DejaVuSans-2212" transform="translate(128.203125 38.965625) scale(0.7)"/>
       <use xlink:href="#DejaVuSans-31" transform="translate(186.855469 38.965625) scale(0.7)"/>
      </g>
     </g>
    </g>
    <g id="ytick_3">
     <g id="line2d_22">
      <g>
       <use xlink:href="#m5d0cda0ca1" x="83.3" y="14.798437" style="stroke: #000000; stroke-width: 1.5"/>
      </g>
     </g>
     <g id="text_7">
      <!-- $\mathdefault{10^{0}}$ -->
      <g transform="translate(42.6 22.396875) scale(0.2 -0.2)">
       <use xlink:href="#DejaVuSans-31" transform="translate(0 0.765625)"/>
       <use xlink:href="#DejaVuSans-30" transform="translate(63.623047 0.765625)"/>
       <use xlink:href="#DejaVuSans-30" transform="translate(128.203125 39.046875) scale(0.7)"/>
      </g>
     </g>
    </g>
    <g id="ytick_4">
     <g id="line2d_23">
      <defs>
       <path id="m41c9a9819a" d="M 0 0 
L -2 0 
" style="stroke: #000000; stroke-width: 0.6"/>
      </defs>
      <g>
       <use xlink:href="#m41c9a9819a" x="83.3" y="297.371127" style="stroke: #000000; stroke-width: 0.6"/>
      </g>
     </g>
    </g>
    <g id="ytick_5">
     <g id="line2d_24">
      <g>
       <use xlink:href="#m41c9a9819a" x="83.3" y="268.083629" style="stroke: #000000; stroke-width: 0.6"/>
      </g>
     </g>
    </g>
    <g id="ytick_6">
     <g id="line2d_25">
      <g>
       <use xlink:href="#m41c9a9819a" x="83.3" y="247.303819" style="stroke: #000000; stroke-width: 0.6"/>
      </g>
     </g>
    </g>
    <g id="ytick_7">
     <g id="line2d_26">
      <g>
       <use xlink:href="#m41c9a9819a" x="83.3" y="231.185745" style="stroke: #000000; stroke-width: 0.6"/>
      </g>
     </g>
    </g>
    <g id="ytick_8">
     <g id="line2d_27">
      <g>
       <use xlink:href="#m41c9a9819a" x="83.3" y="218.016321" style="stroke: #000000; stroke-width: 0.6"/>
      </g>
     </g>
    </g>
    <g id="ytick_9">
     <g id="line2d_28">
      <g>
       <use xlink:href="#m41c9a9819a" x="83.3" y="206.881731" style="stroke: #000000; stroke-width: 0.6"/>
      </g>
     </g>
    </g>
    <g id="ytick_10">
     <g id="line2d_29">
      <g>
       <use xlink:href="#m41c9a9819a" x="83.3" y="197.23651" style="stroke: #000000; stroke-width: 0.6"/>
      </g>
     </g>
    </g>
    <g id="ytick_11">
     <g id="line2d_30">
      <g>
       <use xlink:href="#m41c9a9819a" x="83.3" y="188.728822" style="stroke: #000000; stroke-width: 0.6"/>
      </g>
     </g>
    </g>
    <g id="ytick_12">
     <g id="line2d_31">
      <g>
       <use xlink:href="#m41c9a9819a" x="83.3" y="131.051128" style="stroke: #000000; stroke-width: 0.6"/>
      </g>
     </g>
    </g>
    <g id="ytick_13">
     <g id="line2d_32">
      <g>
       <use xlink:href="#m41c9a9819a" x="83.3" y="101.76363" style="stroke: #000000; stroke-width: 0.6"/>
      </g>
     </g>
    </g>
    <g id="ytick_14">
     <g id="line2d_33">
      <g>
       <use xlink:href="#m41c9a9819a" x="83.3" y="80.983819" style="stroke: #000000; stroke-width: 0.6"/>
      </g>
     </g>
    </g>
    <g id="ytick_15">
     <g id="line2d_34">
      <g>
       <use xlink:href="#m41c9a9819a" x="83.3" y="64.865746" style="stroke: #000000; stroke-width: 0.6"/>
      </g>
     </g>
    </g>
    <g id="ytick_16">
     <g id="line2d_35">
      <g>
       <use xlink:href="#m41c9a9819a" x="83.3" y="51.696321" style="stroke: #000000; stroke-width: 0.6"/>
      </g>
     </g>
    </g>
    <g id="ytick_17">
     <g id="line2d_36">
      <g>
       <use xlink:href="#m41c9a9819a" x="83.3" y="40.561731" style="stroke: #000000; stroke-width: 0.6"/>
      </g>
     </g>
    </g>
    <g id="ytick_18">
     <g id="line2d_37">
      <g>
       <use xlink:href="#m41c9a9819a" x="83.3" y="30.916511" style="stroke: #000000; stroke-width: 0.6"/>
      </g>
     </g>
    </g>
    <g id="ytick_19">
     <g id="line2d_38">
      <g>
       <use xlink:href="#m41c9a9819a" x="83.3" y="22.408823" style="stroke: #000000; stroke-width: 0.6"/>
      </g>
     </g>
    </g>
    <g id="text_8">
     <!-- $\beta$ -->
     <g transform="translate(22.6 187.518437) rotate(-90) scale(0.2 -0.2)">
      <defs>
       <path id="DejaVuSans-Oblique-3b2" d="M 872 216 
L 572 -1331 
L -6 -1331 
L 928 3478 
Q 1206 4903 2538 4903 
Q 3888 4903 3659 3700 
Q 3503 2844 2894 2531 
Q 3713 2250 3553 1416 
Q 3272 -69 1759 -66 
Q 1097 -63 872 216 
z
M 1019 966 
Q 1259 422 1875 425 
Q 2775 425 2966 1406 
Q 3138 2288 1675 2219 
L 1778 2750 
Q 2909 2731 3106 3750 
Q 3241 4438 2509 4434 
Q 1691 4434 1503 3459 
L 1019 966 
z
" transform="scale(0.015625)"/>
      </defs>
      <use xlink:href="#DejaVuSans-Oblique-3b2" transform="translate(0 0.390625)"/>
     </g>
    </g>
   </g>
   <g id="patch_3">
    <path d="M 83.3 347.438437 
L 83.3 14.798437 
" style="fill: none; stroke: #000000; stroke-width: 0.8; stroke-linejoin: miter; stroke-linecap: square"/>
   </g>
   <g id="patch_4">
    <path d="M 407.498 347.438437 
L 407.498 14.798437 
" style="fill: none; stroke: #000000; stroke-width: 0.8; stroke-linejoin: miter; stroke-linecap: square"/>
   </g>
   <g id="patch_5">
    <path d="M 83.3 347.438437 
L 407.498 347.438437 
" style="fill: none; stroke: #000000; stroke-width: 0.8; stroke-linejoin: miter; stroke-linecap: square"/>
   </g>
   <g id="patch_6">
    <path d="M 83.3 14.798437 
L 407.498 14.798437 
" style="fill: none; stroke: #000000; stroke-width: 0.8; stroke-linejoin: miter; stroke-linecap: square"/>
   </g>
   <g id="text_9">
    <!-- $p_{A}$ -->
    <g transform="translate(358.701339 64.865746) scale(0.25 -0.25)">
     <defs>
      <path id="DejaVuSans-Oblique-70" d="M 3175 2156 
Q 3175 2616 2975 2859 
Q 2775 3103 2400 3103 
Q 2144 3103 1911 2972 
Q 1678 2841 1497 2591 
Q 1319 2344 1212 1994 
Q 1106 1644 1106 1300 
Q 1106 863 1306 627 
Q 1506 391 1875 391 
Q 2147 391 2380 519 
Q 2613 647 2778 891 
Q 2956 1147 3065 1494 
Q 3175 1841 3175 2156 
z
M 1394 2969 
Q 1625 3272 1939 3428 
Q 2253 3584 2638 3584 
Q 3175 3584 3472 3232 
Q 3769 2881 3769 2247 
Q 3769 1728 3584 1258 
Q 3400 788 3053 416 
Q 2822 169 2531 39 
Q 2241 -91 1919 -91 
Q 1547 -91 1294 64 
Q 1041 219 916 525 
L 556 -1331 
L -19 -1331 
L 922 3500 
L 1497 3500 
L 1394 2969 
z
" transform="scale(0.015625)"/>
      <path id="DejaVuSans-Oblique-41" d="M 2356 4666 
L 3072 4666 
L 3938 0 
L 3278 0 
L 3084 1197 
L 984 1197 
L 325 0 
L -341 0 
L 2356 4666 
z
M 2584 4044 
L 1275 1722 
L 2988 1722 
L 2584 4044 
z
" transform="scale(0.015625)"/>
     </defs>
     <use xlink:href="#DejaVuSans-Oblique-70"/>
     <use xlink:href="#DejaVuSans-Oblique-41" transform="translate(63.476562 -16.40625) scale(0.7)"/>
    </g>
   </g>
  </g>
  <g id="axes_2">
   <g id="patch_7">
    <path d="M 415.31 330.806438 
L 430.2788 330.806438 
L 430.2788 31.430438 
L 415.31 31.430438 
z
" style="fill: #ffffff"/>
   </g>
   <g id="QuadMesh_1">
    <path d="M 415.31 330.806438 
L 430.2788 330.806438 
L 430.2788 315.049806 
L 415.31 315.049806 
L 415.31 330.806438 
" clip-path="url(#pf13b5bd983)" style="fill: #460a5d"/>
    <path d="M 415.31 315.049806 
L 430.2788 315.049806 
L 430.2788 299.293174 
L 415.31 299.293174 
L 415.31 315.049806 
" clip-path="url(#pf13b5bd983)" style="fill: #481d6f"/>
    <path d="M 415.31 299.293174 
L 430.2788 299.293174 
L 430.2788 283.536543 
L 415.31 283.536543 
L 415.31 299.293174 
" clip-path="url(#pf13b5bd983)" style="fill: #472e7c"/>
    <path d="M 415.31 283.536543 
L 430.2788 283.536543 
L 430.2788 267.779911 
L 415.31 267.779911 
L 415.31 283.536543 
" clip-path="url(#pf13b5bd983)" style="fill: #423f85"/>
    <path d="M 415.31 267.779911 
L 430.2788 267.779911 
L 430.2788 252.02328 
L 415.31 252.02328 
L 415.31 267.779911 
" clip-path="url(#pf13b5bd983)" style="fill: #3d4e8a"/>
    <path d="M 415.31 252.02328 
L 430.2788 252.02328 
L 430.2788 236.266648 
L 415.31 236.266648 
L 415.31 252.02328 
" clip-path="url(#pf13b5bd983)" style="fill: #365d8d"/>
    <path d="M 415.31 236.266648 
L 430.2788 236.266648 
L 430.2788 220.510016 
L 415.31 220.510016 
L 415.31 236.266648 
" clip-path="url(#pf13b5bd983)" style="fill: #306a8e"/>
    <path d="M 415.31 220.510016 
L 430.2788 220.510016 
L 430.2788 204.753385 
L 415.31 204.753385 
L 415.31 220.510016 
" clip-path="url(#pf13b5bd983)" style="fill: #2a778e"/>
    <path d="M 415.31 204.753385 
L 430.2788 204.753385 
L 430.2788 188.996753 
L 415.31 188.996753 
L 415.31 204.753385 
" clip-path="url(#pf13b5bd983)" style="fill: #25838e"/>
    <path d="M 415.31 188.996753 
L 430.2788 188.996753 
L 430.2788 173.240122 
L 415.31 173.240122 
L 415.31 188.996753 
" clip-path="url(#pf13b5bd983)" style="fill: #21918c"/>
    <path d="M 415.31 173.240122 
L 430.2788 173.240122 
L 430.2788 157.48349 
L 415.31 157.48349 
L 415.31 173.240122 
" clip-path="url(#pf13b5bd983)" style="fill: #1e9d89"/>
    <path d="M 415.31 157.48349 
L 430.2788 157.48349 
L 430.2788 141.726859 
L 415.31 141.726859 
L 415.31 157.48349 
" clip-path="url(#pf13b5bd983)" style="fill: #23a983"/>
    <path d="M 415.31 141.726859 
L 430.2788 141.726859 
L 430.2788 125.970227 
L 415.31 125.970227 
L 415.31 141.726859 
" clip-path="url(#pf13b5bd983)" style="fill: #32b67a"/>
    <path d="M 415.31 125.970227 
L 430.2788 125.970227 
L 430.2788 110.213595 
L 415.31 110.213595 
L 415.31 125.970227 
" clip-path="url(#pf13b5bd983)" style="fill: #48c16e"/>
    <path d="M 415.31 110.213595 
L 430.2788 110.213595 
L 430.2788 94.456964 
L 415.31 94.456964 
L 415.31 110.213595 
" clip-path="url(#pf13b5bd983)" style="fill: #65cb5e"/>
    <path d="M 415.31 94.456964 
L 430.2788 94.456964 
L 430.2788 78.700332 
L 415.31 78.700332 
L 415.31 94.456964 
" clip-path="url(#pf13b5bd983)" style="fill: #84d44b"/>
    <path d="M 415.31 78.700332 
L 430.2788 78.700332 
L 430.2788 62.943701 
L 415.31 62.943701 
L 415.31 78.700332 
" clip-path="url(#pf13b5bd983)" style="fill: #a8db34"/>
    <path d="M 415.31 62.943701 
L 430.2788 62.943701 
L 430.2788 47.187069 
L 415.31 47.187069 
L 415.31 62.943701 
" clip-path="url(#pf13b5bd983)" style="fill: #cae11f"/>
    <path d="M 415.31 47.187069 
L 430.2788 47.187069 
L 430.2788 31.430438 
L 415.31 31.430438 
L 415.31 47.187069 
" clip-path="url(#pf13b5bd983)" style="fill: #efe51c"/>
   </g>
   <g id="matplotlib.axis_3"/>
   <g id="matplotlib.axis_4">
    <g id="ytick_20">
     <g id="line2d_39">
      <defs>
       <path id="m3fd15e341c" d="M 0 0 
L 6 0 
" style="stroke: #000000; stroke-width: 1.5"/>
      </defs>
      <g>
       <use xlink:href="#m3fd15e341c" x="430.2788" y="330.806438" style="stroke: #000000; stroke-width: 1.5"/>
      </g>
     </g>
     <g id="text_10">
      <!-- 0.00 -->
      <g transform="translate(439.7788 335.745422) scale(0.13 -0.13)">
       <defs>
        <path id="DejaVuSans-2e" d="M 684 794 
L 1344 794 
L 1344 0 
L 684 0 
L 684 794 
z
" transform="scale(0.015625)"/>
       </defs>
       <use xlink:href="#DejaVuSans-30"/>
       <use xlink:href="#DejaVuSans-2e" transform="translate(63.623047 0)"/>
       <use xlink:href="#DejaVuSans-30" transform="translate(95.410156 0)"/>
       <use xlink:href="#DejaVuSans-30" transform="translate(159.033203 0)"/>
      </g>
     </g>
    </g>
    <g id="ytick_21">
     <g id="line2d_40">
      <g>
       <use xlink:href="#m3fd15e341c" x="430.2788" y="255.962438" style="stroke: #000000; stroke-width: 1.5"/>
      </g>
     </g>
     <g id="text_11">
      <!-- 0.25 -->
      <g transform="translate(439.7788 260.901422) scale(0.13 -0.13)">
       <defs>
        <path id="DejaVuSans-35" d="M 691 4666 
L 3169 4666 
L 3169 4134 
L 1269 4134 
L 1269 2991 
Q 1406 3038 1543 3061 
Q 1681 3084 1819 3084 
Q 2600 3084 3056 2656 
Q 3513 2228 3513 1497 
Q 3513 744 3044 326 
Q 2575 -91 1722 -91 
Q 1428 -91 1123 -41 
Q 819 9 494 109 
L 494 744 
Q 775 591 1075 516 
Q 1375 441 1709 441 
Q 2250 441 2565 725 
Q 2881 1009 2881 1497 
Q 2881 1984 2565 2268 
Q 2250 2553 1709 2553 
Q 1456 2553 1204 2497 
Q 953 2441 691 2322 
L 691 4666 
z
" transform="scale(0.015625)"/>
       </defs>
       <use xlink:href="#DejaVuSans-30"/>
       <use xlink:href="#DejaVuSans-2e" transform="translate(63.623047 0)"/>
       <use xlink:href="#DejaVuSans-32" transform="translate(95.410156 0)"/>
       <use xlink:href="#DejaVuSans-35" transform="translate(159.033203 0)"/>
      </g>
     </g>
    </g>
    <g id="ytick_22">
     <g id="line2d_41">
      <g>
       <use xlink:href="#m3fd15e341c" x="430.2788" y="181.118438" style="stroke: #000000; stroke-width: 1.5"/>
      </g>
     </g>
     <g id="text_12">
      <!-- 0.50 -->
      <g transform="translate(439.7788 186.057422) scale(0.13 -0.13)">
       <use xlink:href="#DejaVuSans-30"/>
       <use xlink:href="#DejaVuSans-2e" transform="translate(63.623047 0)"/>
       <use xlink:href="#DejaVuSans-35" transform="translate(95.410156 0)"/>
       <use xlink:href="#DejaVuSans-30" transform="translate(159.033203 0)"/>
      </g>
     </g>
    </g>
    <g id="ytick_23">
     <g id="line2d_42">
      <g>
       <use xlink:href="#m3fd15e341c" x="430.2788" y="106.274438" style="stroke: #000000; stroke-width: 1.5"/>
      </g>
     </g>
     <g id="text_13">
      <!-- 0.75 -->
      <g transform="translate(439.7788 111.213422) scale(0.13 -0.13)">
       <defs>
        <path id="DejaVuSans-37" d="M 525 4666 
L 3525 4666 
L 3525 4397 
L 1831 0 
L 1172 0 
L 2766 4134 
L 525 4134 
L 525 4666 
z
" transform="scale(0.015625)"/>
       </defs>
       <use xlink:href="#DejaVuSans-30"/>
       <use xlink:href="#DejaVuSans-2e" transform="translate(63.623047 0)"/>
       <use xlink:href="#DejaVuSans-37" transform="translate(95.410156 0)"/>
       <use xlink:href="#DejaVuSans-35" transform="translate(159.033203 0)"/>
      </g>
     </g>
    </g>
    <g id="ytick_24">
     <g id="line2d_43">
      <g>
       <use xlink:href="#m3fd15e341c" x="430.2788" y="31.430438" style="stroke: #000000; stroke-width: 1.5"/>
      </g>
     </g>
     <g id="text_14">
      <!-- 1.00 -->
      <g transform="translate(439.7788 36.369422) scale(0.13 -0.13)">
       <use xlink:href="#DejaVuSans-31"/>
       <use xlink:href="#DejaVuSans-2e" transform="translate(63.623047 0)"/>
       <use xlink:href="#DejaVuSans-30" transform="translate(95.410156 0)"/>
       <use xlink:href="#DejaVuSans-30" transform="translate(159.033203 0)"/>
      </g>
     </g>
    </g>
    <g id="text_15">
     <!-- Proportion -->
     <g transform="translate(484.121769 219.812578) rotate(-90) scale(0.15 -0.15)">
      <defs>
       <path id="DejaVuSans-50" d="M 1259 4147 
L 1259 2394 
L 2053 2394 
Q 2494 2394 2734 2622 
Q 2975 2850 2975 3272 
Q 2975 3691 2734 3919 
Q 2494 4147 2053 4147 
L 1259 4147 
z
M 628 4666 
L 2053 4666 
Q 2838 4666 3239 4311 
Q 3641 3956 3641 3272 
Q 3641 2581 3239 2228 
Q 2838 1875 2053 1875 
L 1259 1875 
L 1259 0 
L 628 0 
L 628 4666 
z
" transform="scale(0.015625)"/>
       <path id="DejaVuSans-72" d="M 2631 2963 
Q 2534 3019 2420 3045 
Q 2306 3072 2169 3072 
Q 1681 3072 1420 2755 
Q 1159 2438 1159 1844 
L 1159 0 
L 581 0 
L 581 3500 
L 1159 3500 
L 1159 2956 
Q 1341 3275 1631 3429 
Q 1922 3584 2338 3584 
Q 2397 3584 2469 3576 
Q 2541 3569 2628 3553 
L 2631 2963 
z
" transform="scale(0.015625)"/>
       <path id="DejaVuSans-6f" d="M 1959 3097 
Q 1497 3097 1228 2736 
Q 959 2375 959 1747 
Q 959 1119 1226 758 
Q 1494 397 1959 397 
Q 2419 397 2687 759 
Q 2956 1122 2956 1747 
Q 2956 2369 2687 2733 
Q 2419 3097 1959 3097 
z
M 1959 3584 
Q 2709 3584 3137 3096 
Q 3566 2609 3566 1747 
Q 3566 888 3137 398 
Q 2709 -91 1959 -91 
Q 1206 -91 779 398 
Q 353 888 353 1747 
Q 353 2609 779 3096 
Q 1206 3584 1959 3584 
z
" transform="scale(0.015625)"/>
       <path id="DejaVuSans-70" d="M 1159 525 
L 1159 -1331 
L 581 -1331 
L 581 3500 
L 1159 3500 
L 1159 2969 
Q 1341 3281 1617 3432 
Q 1894 3584 2278 3584 
Q 2916 3584 3314 3078 
Q 3713 2572 3713 1747 
Q 3713 922 3314 415 
Q 2916 -91 2278 -91 
Q 1894 -91 1617 61 
Q 1341 213 1159 525 
z
M 3116 1747 
Q 3116 2381 2855 2742 
Q 2594 3103 2138 3103 
Q 1681 3103 1420 2742 
Q 1159 2381 1159 1747 
Q 1159 1113 1420 752 
Q 1681 391 2138 391 
Q 2594 391 2855 752 
Q 3116 1113 3116 1747 
z
" transform="scale(0.015625)"/>
       <path id="DejaVuSans-74" d="M 1172 4494 
L 1172 3500 
L 2356 3500 
L 2356 3053 
L 1172 3053 
L 1172 1153 
Q 1172 725 1289 603 
Q 1406 481 1766 481 
L 2356 481 
L 2356 0 
L 1766 0 
Q 1100 0 847 248 
Q 594 497 594 1153 
L 594 3053 
L 172 3053 
L 172 3500 
L 594 3500 
L 594 4494 
L 1172 4494 
z
" transform="scale(0.015625)"/>
       <path id="DejaVuSans-69" d="M 603 3500 
L 1178 3500 
L 1178 0 
L 603 0 
L 603 3500 
z
M 603 4863 
L 1178 4863 
L 1178 4134 
L 603 4134 
L 603 4863 
z
" transform="scale(0.015625)"/>
       <path id="DejaVuSans-6e" d="M 3513 2113 
L 3513 0 
L 2938 0 
L 2938 2094 
Q 2938 2591 2744 2837 
Q 2550 3084 2163 3084 
Q 1697 3084 1428 2787 
Q 1159 2491 1159 1978 
L 1159 0 
L 581 0 
L 581 3500 
L 1159 3500 
L 1159 2956 
Q 1366 3272 1645 3428 
Q 1925 3584 2291 3584 
Q 2894 3584 3203 3211 
Q 3513 2838 3513 2113 
z
" transform="scale(0.015625)"/>
      </defs>
      <use xlink:href="#DejaVuSans-50"/>
      <use xlink:href="#DejaVuSans-72" transform="translate(58.552734 0)"/>
      <use xlink:href="#DejaVuSans-6f" transform="translate(97.416016 0)"/>
      <use xlink:href="#DejaVuSans-70" transform="translate(158.597656 0)"/>
      <use xlink:href="#DejaVuSans-6f" transform="translate(222.074219 0)"/>
      <use xlink:href="#DejaVuSans-72" transform="translate(283.255859 0)"/>
      <use xlink:href="#DejaVuSans-74" transform="translate(324.369141 0)"/>
      <use xlink:href="#DejaVuSans-69" transform="translate(363.578125 0)"/>
      <use xlink:href="#DejaVuSans-6f" transform="translate(391.361328 0)"/>
      <use xlink:href="#DejaVuSans-6e" transform="translate(452.542969 0)"/>
     </g>
    </g>
   </g>
   <g id="LineCollection_1"/>
   <g id="patch_8">
    <path d="M 415.31 330.806438 
L 422.7944 330.806438 
L 430.2788 330.806438 
L 430.2788 31.430438 
L 422.7944 31.430438 
L 415.31 31.430438 
L 415.31 330.806438 
z
" style="fill: none; stroke: #000000; stroke-width: 0.8; stroke-linejoin: miter; stroke-linecap: square"/>
   </g>
  </g>
 </g>
 <defs>
  <clipPath id="p4247693649">
   <rect x="83.3" y="14.798437" width="324.198" height="332.64"/>
  </clipPath>
  <clipPath id="pf13b5bd983">
   <rect x="415.31" y="31.430438" width="14.9688" height="299.376"/>
  </clipPath>
 </defs>
</svg>
