<?xml version="1.0" encoding="utf-8" standalone="no"?>
<!DOCTYPE svg PUBLIC "-//W3C//DTD SVG 1.1//EN"
  "http://www.w3.org/Graphics/SVG/1.1/DTD/svg11.dtd">
<svg xmlns:xlink="http://www.w3.org/1999/xlink" width="442.9pt" height="402.850937pt" viewBox="0 0 442.9 402.850937" xmlns="http://www.w3.org/2000/svg" version="1.1">
 <metadata>
  <rdf:RDF xmlns:dc="http://purl.org/dc/elements/1.1/" xmlns:cc="http://creativecommons.org/ns#" xmlns:rdf="http://www.w3.org/1999/02/22-rdf-syntax-ns#">
   <cc:Work>
    <dc:type rdf:resource="http://purl.org/dc/dcmitype/StillImage"/>
    <dc:date>2025-05-11T12:54:16.130992</dc:date>
    <dc:format>image/svg+xml</dc:format>
    <dc:creator>
     <cc:Agent>
      <dc:title>Matplotlib v3.10.1, https://matplotlib.org/</dc:title>
     </cc:Agent>
    </dc:creator>
   </cc:Work>
  </rdf:RDF>
 </metadata>
 <defs>
  <style type="text/css">*{stroke-linejoin: round; stroke-linecap: butt}</style>
 </defs>
 <g id="figure_1">
  <g id="patch_1">
   <path d="M 0 402.850937 
L 442.9 402.850937 
L 442.9 0 
L 0 0 
z
" style="fill: #ffffff"/>
  </g>
  <g id="axes_1">
   <g id="patch_2">
    <path d="M 83.3 347.438437 
L 418.1 347.438437 
L 418.1 14.798437 
L 83.3 14.798437 
z
" style="fill: #ffffff"/>
   </g>
   <g id="QuadContourSet_1">
    <path d="M 88.614287 347.438437 
L 93.92857 347.438437 
L 99.242859 347.438437 
L 104.557144 347.438437 
L 109.871427 347.438437 
L 115.185714 347.438437 
L 120.499997 347.438437 
L 125.814283 347.438437 
L 131.128569 347.438437 
L 136.442855 347.438437 
L 141.757141 347.438437 
L 147.071429 347.438437 
L 152.38573 347.438437 
L 157.699996 347.438437 
L 163.014302 347.438437 
L 168.328567 347.438437 
L 173.642872 347.438437 
L 178.957135 347.438437 
L 184.271443 347.438437 
L 189.585707 347.438437 
L 194.900012 347.438437 
L 200.214279 347.438437 
L 205.528586 347.438437 
L 210.842872 347.438437 
L 216.157154 347.438437 
L 221.471443 347.438437 
L 226.785726 347.438437 
L 232.100013 347.438437 
L 237.414298 347.438437 
L 242.728582 347.438437 
L 248.042868 347.438437 
L 253.357135 347.438437 
L 258.671418 347.438437 
L 263.985704 347.438437 
L 269.299992 347.438437 
L 274.614275 347.438437 
L 279.928558 347.438437 
L 285.242845 347.438437 
L 290.557131 347.438437 
L 295.871424 347.438437 
L 301.185713 347.438437 
L 306.499998 347.438437 
L 311.814284 347.438437 
L 317.128569 347.438437 
L 322.442855 347.438437 
L 327.757141 347.438437 
L 333.071426 347.438437 
L 338.385711 347.438437 
L 343.699997 347.438437 
L 349.014278 347.438437 
L 354.328564 347.438437 
L 359.642855 347.438437 
L 364.957142 347.438437 
L 370.271424 347.438437 
L 375.585714 347.438437 
L 380.899995 347.438437 
L 386.214281 347.438437 
L 391.52857 347.438437 
L 396.842859 347.438437 
L 402.15714 347.438437 
L 407.471429 347.438437 
L 412.785712 347.438437 
L 418.1 347.438437 
L 418.1 342.158436 
L 418.1 336.878439 
L 418.1 331.598435 
L 418.1 326.318437 
L 418.1 321.038439 
L 418.1 315.758438 
L 418.1 310.478441 
L 418.1 305.19844 
L 418.1 299.91844 
L 418.1 294.638439 
L 418.1 289.358439 
L 418.1 284.078437 
L 418.1 278.798422 
L 418.1 273.518441 
L 418.1 268.238422 
L 418.1 262.958442 
L 418.1 257.678423 
L 418.1 252.398445 
L 418.1 247.533298 
L 412.785712 248.102419 
L 407.471429 248.700087 
L 402.15714 249.326759 
L 396.842859 249.982828 
L 391.52857 250.66873 
L 386.214281 251.384877 
L 380.899995 252.131767 
L 379.141837 252.398445 
L 375.585714 252.958953 
L 370.271424 253.841309 
L 364.957142 254.75201 
L 359.642855 255.691051 
L 354.328564 256.658394 
L 349.014278 257.65426 
L 348.895786 257.678423 
L 343.699997 258.769392 
L 338.385711 259.908074 
L 333.071426 261.067576 
L 327.757141 262.247851 
L 324.692291 262.958442 
L 322.442855 263.493259 
L 317.128569 264.815914 
L 311.814284 266.147608 
L 306.499998 267.488416 
L 303.631572 268.238422 
L 301.185713 268.890593 
L 295.871424 270.356178 
L 290.557131 271.815945 
L 285.242845 273.270527 
L 284.381495 273.518441 
L 279.928558 274.817732 
L 274.614275 276.36361 
L 269.299992 277.887578 
L 266.163173 278.798422 
L 263.985704 279.438548 
L 258.671418 281.027804 
L 253.357135 282.577519 
L 248.08351 284.078437 
L 248.042868 284.090141 
L 242.728582 285.674182 
L 237.414298 287.20145 
L 232.100013 288.673914 
L 229.620651 289.358439 
L 226.785726 290.148402 
L 221.471443 291.606104 
L 216.157154 292.994415 
L 210.842872 294.315772 
L 209.537846 294.638439 
L 205.528586 295.639391 
L 200.214279 296.907698 
L 194.900012 298.099162 
L 189.585707 299.216914 
L 186.092024 299.91844 
L 184.271443 300.289019 
L 178.957135 301.333839 
L 173.642872 302.301461 
L 168.328567 303.196028 
L 163.014302 304.021474 
L 157.699996 304.781653 
L 154.595664 305.19844 
L 152.38573 305.501037 
L 147.071429 306.186714 
L 141.757141 306.811819 
L 136.442855 307.380879 
L 131.128569 307.898321 
L 125.814283 308.368342 
L 120.499997 308.794903 
L 115.185714 309.181792 
L 109.871427 309.532547 
L 104.557144 309.850469 
L 99.242859 310.13864 
L 93.92857 310.399893 
L 92.216369 310.478441 
L 88.614287 310.649025 
L 83.3 310.880316 
L 83.3 315.758438 
L 83.3 321.038439 
L 83.3 326.318437 
L 83.3 331.598435 
L 83.3 336.878439 
L 83.3 342.158436 
L 83.3 347.438437 
z
" clip-path="url(#p64f1c7a7c0)" style="fill: #470e61"/>
    <path d="M 88.614287 310.649025 
L 92.216369 310.478441 
L 93.92857 310.399893 
L 99.242859 310.13864 
L 104.557144 309.850469 
L 109.871427 309.532547 
L 115.185714 309.181792 
L 120.499997 308.794903 
L 125.814283 308.368342 
L 131.128569 307.898321 
L 136.442855 307.380879 
L 141.757141 306.811819 
L 147.071429 306.186714 
L 152.38573 305.501037 
L 154.595664 305.19844 
L 157.699996 304.781653 
L 163.014302 304.021474 
L 168.328567 303.196028 
L 173.642872 302.301461 
L 178.957135 301.333839 
L 184.271443 300.289019 
L 186.092024 299.91844 
L 189.585707 299.216914 
L 194.900012 298.099162 
L 200.214279 296.907698 
L 205.528586 295.639391 
L 209.537846 294.638439 
L 210.842872 294.315772 
L 216.157154 292.994415 
L 221.471443 291.606104 
L 226.785726 290.148402 
L 229.620651 289.358439 
L 232.100013 288.673914 
L 237.414298 287.20145 
L 242.728582 285.674182 
L 248.042868 284.090141 
L 248.08351 284.078437 
L 253.357135 282.577519 
L 258.671418 281.027804 
L 263.985704 279.438548 
L 266.163173 278.798422 
L 269.299992 277.887578 
L 274.614275 276.36361 
L 279.928558 274.817732 
L 284.381495 273.518441 
L 285.242845 273.270527 
L 290.557131 271.815945 
L 295.871424 270.356178 
L 301.185713 268.890593 
L 303.631572 268.238422 
L 306.499998 267.488416 
L 311.814284 266.147608 
L 317.128569 264.815914 
L 322.442855 263.493259 
L 324.692291 262.958442 
L 327.757141 262.247851 
L 333.071426 261.067576 
L 338.385711 259.908074 
L 343.699997 258.769392 
L 348.895786 257.678423 
L 349.014278 257.65426 
L 354.328564 256.658394 
L 359.642855 255.691051 
L 364.957142 254.75201 
L 370.271424 253.841309 
L 375.585714 252.958953 
L 379.141837 252.398445 
L 380.899995 252.131767 
L 386.214281 251.384877 
L 391.52857 250.66873 
L 396.842859 249.982828 
L 402.15714 249.326759 
L 407.471429 248.700087 
L 412.785712 248.102419 
L 418.1 247.533298 
L 418.1 247.118424 
L 418.1 241.838445 
L 418.1 236.558426 
L 418.1 231.278444 
L 418.1 228.811381 
L 412.785712 229.337052 
L 407.471429 229.894741 
L 402.15714 230.485746 
L 396.842859 231.111399 
L 395.541383 231.278444 
L 391.52857 231.780775 
L 386.214281 232.487746 
L 380.899995 233.230403 
L 375.585714 234.00989 
L 370.271424 234.827375 
L 364.957142 235.684084 
L 359.784402 236.558426 
L 359.642855 236.581724 
L 354.328564 237.532251 
L 349.014278 238.52003 
L 343.699997 239.546011 
L 338.385711 240.611242 
L 333.071426 241.716853 
L 332.52884 241.838445 
L 327.757141 242.874446 
L 322.442855 244.067487 
L 317.128569 245.295023 
L 311.814284 246.557882 
L 309.576454 247.118424 
L 306.499998 247.863861 
L 301.185713 249.203133 
L 295.871424 250.568489 
L 290.557131 251.960516 
L 288.964727 252.398445 
L 285.242845 253.386041 
L 279.928558 254.830491 
L 274.614275 256.289113 
L 269.613957 257.678423 
L 269.299992 257.762586 
L 263.985704 259.25269 
L 258.671418 260.742081 
L 253.357135 262.230407 
L 250.810281 262.958442 
L 248.042868 263.719225 
L 242.728582 265.19666 
L 237.414298 266.656351 
L 232.100013 268.09726 
L 231.591171 268.238422 
L 226.785726 269.516834 
L 221.471443 270.902644 
L 216.157154 272.253227 
L 211.048872 273.518441 
L 210.842872 273.567405 
L 205.528586 274.839366 
L 200.214279 276.062357 
L 194.900012 277.235873 
L 189.585707 278.359352 
L 187.463445 278.798422 
L 184.271443 279.430465 
L 178.957135 280.444279 
L 173.642872 281.401395 
L 168.328567 282.302724 
L 163.014302 283.149305 
L 157.699996 283.942356 
L 156.755956 284.078437 
L 152.38573 284.680957 
L 147.071429 285.366221 
L 141.757141 286.000861 
L 136.442855 286.587461 
L 131.128569 287.128662 
L 125.814283 287.627148 
L 120.499997 288.085619 
L 115.185714 288.50675 
L 109.871427 288.893164 
L 104.557144 289.247439 
L 102.787017 289.358439 
L 99.242859 289.571605 
L 93.92857 289.867912 
L 88.614287 290.138835 
L 83.3 290.386559 
L 83.3 294.638439 
L 83.3 299.91844 
L 83.3 305.19844 
L 83.3 310.478441 
L 83.3 310.880316 
z
" clip-path="url(#p64f1c7a7c0)" style="fill: #482677"/>
    <path d="M 88.614287 290.138835 
L 93.92857 289.867912 
L 99.242859 289.571605 
L 102.787017 289.358439 
L 104.557144 289.247439 
L 109.871427 288.893164 
L 115.185714 288.50675 
L 120.499997 288.085619 
L 125.814283 287.627148 
L 131.128569 287.128662 
L 136.442855 286.587461 
L 141.757141 286.000861 
L 147.071429 285.366221 
L 152.38573 284.680957 
L 156.755956 284.078437 
L 157.699996 283.942356 
L 163.014302 283.149305 
L 168.328567 282.302724 
L 173.642872 281.401395 
L 178.957135 280.444279 
L 184.271443 279.430465 
L 187.463445 278.798422 
L 189.585707 278.359352 
L 194.900012 277.235873 
L 200.214279 276.062357 
L 205.528586 274.839366 
L 210.842872 273.567405 
L 211.048872 273.518441 
L 216.157154 272.253227 
L 221.471443 270.902644 
L 226.785726 269.516834 
L 231.591171 268.238422 
L 232.100013 268.09726 
L 237.414298 266.656351 
L 242.728582 265.19666 
L 248.042868 263.719225 
L 250.810281 262.958442 
L 253.357135 262.230407 
L 258.671418 260.742081 
L 263.985704 259.25269 
L 269.299992 257.762586 
L 269.613957 257.678423 
L 274.614275 256.289113 
L 279.928558 254.830491 
L 285.242845 253.386041 
L 288.964727 252.398445 
L 290.557131 251.960516 
L 295.871424 250.568489 
L 301.185713 249.203133 
L 306.499998 247.863861 
L 309.576454 247.118424 
L 311.814284 246.557882 
L 317.128569 245.295023 
L 322.442855 244.067487 
L 327.757141 242.874446 
L 332.52884 241.838445 
L 333.071426 241.716853 
L 338.385711 240.611242 
L 343.699997 239.546011 
L 349.014278 238.52003 
L 354.328564 237.532251 
L 359.642855 236.581724 
L 359.784402 236.558426 
L 364.957142 235.684084 
L 370.271424 234.827375 
L 375.585714 234.00989 
L 380.899995 233.230403 
L 386.214281 232.487746 
L 391.52857 231.780775 
L 395.541383 231.278444 
L 396.842859 231.111399 
L 402.15714 230.485746 
L 407.471429 229.894741 
L 412.785712 229.337052 
L 418.1 228.811381 
L 418.1 225.998423 
L 418.1 220.718422 
L 418.1 215.438426 
L 418.1 214.887533 
L 412.785712 215.403305 
L 412.457305 215.438426 
L 407.471429 215.940107 
L 402.15714 216.509082 
L 396.842859 217.112456 
L 391.52857 217.751695 
L 386.214281 218.428293 
L 380.899995 219.143849 
L 375.585714 219.900007 
L 370.271424 220.698514 
L 370.150022 220.718422 
L 364.957142 221.519007 
L 359.642855 222.379818 
L 354.328564 223.282839 
L 349.014278 224.229557 
L 343.699997 225.221531 
L 339.760468 225.998423 
L 338.385711 226.253471 
L 333.071426 227.30834 
L 327.757141 228.405667 
L 322.442855 229.546636 
L 317.128569 230.732496 
L 314.816694 231.278444 
L 311.814284 231.944719 
L 306.499998 233.180895 
L 301.185713 234.455641 
L 295.871424 235.769646 
L 292.817059 236.558426 
L 290.557131 237.106614 
L 285.242845 238.452289 
L 279.928558 239.827512 
L 274.614275 241.232119 
L 272.407289 241.838445 
L 269.299992 242.639246 
L 263.985704 244.046296 
L 258.671418 245.469606 
L 253.357135 246.908009 
L 252.606926 247.118424 
L 248.042868 248.316913 
L 242.728582 249.720457 
L 237.414298 251.123351 
L 232.588255 252.398445 
L 232.100013 252.519216 
L 226.785726 253.861985 
L 221.471443 255.188075 
L 216.157154 256.495134 
L 211.278047 257.678423 
L 210.842872 257.777 
L 205.528586 258.989568 
L 200.214279 260.169119 
L 194.900012 261.313671 
L 189.585707 262.421309 
L 186.959359 262.958442 
L 184.271443 263.469958 
L 178.957135 264.455659 
L 173.642872 265.396785 
L 168.328567 266.292875 
L 163.014302 267.143678 
L 157.699996 267.949224 
L 155.723489 268.238422 
L 152.38573 268.691295 
L 147.071429 269.37749 
L 141.757141 270.019972 
L 136.442855 270.620197 
L 131.128569 271.179811 
L 125.814283 271.700564 
L 120.499997 272.184323 
L 115.185714 272.633047 
L 109.871427 273.04869 
L 104.557144 273.433265 
L 103.319564 273.518441 
L 99.242859 273.778074 
L 93.92857 274.093032 
L 88.614287 274.383351 
L 83.3 274.650861 
L 83.3 278.798422 
L 83.3 284.078437 
L 83.3 289.358439 
L 83.3 290.386559 
z
" clip-path="url(#p64f1c7a7c0)" style="fill: #433d84"/>
    <path d="M 88.614287 274.383351 
L 93.92857 274.093032 
L 99.242859 273.778074 
L 103.319564 273.518441 
L 104.557144 273.433265 
L 109.871427 273.04869 
L 115.185714 272.633047 
L 120.499997 272.184323 
L 125.814283 271.700564 
L 131.128569 271.179811 
L 136.442855 270.620197 
L 141.757141 270.019972 
L 147.071429 269.37749 
L 152.38573 268.691295 
L 155.723489 268.238422 
L 157.699996 267.949224 
L 163.014302 267.143678 
L 168.328567 266.292875 
L 173.642872 265.396785 
L 178.957135 264.455659 
L 184.271443 263.469958 
L 186.959359 262.958442 
L 189.585707 262.421309 
L 194.900012 261.313671 
L 200.214279 260.169119 
L 205.528586 258.989568 
L 210.842872 257.777 
L 211.278047 257.678423 
L 216.157154 256.495134 
L 221.471443 255.188075 
L 226.785726 253.861985 
L 232.100013 252.519216 
L 232.588255 252.398445 
L 237.414298 251.123351 
L 242.728582 249.720457 
L 248.042868 248.316913 
L 252.606926 247.118424 
L 253.357135 246.908009 
L 258.671418 245.469606 
L 263.985704 244.046296 
L 269.299992 242.639246 
L 272.407289 241.838445 
L 274.614275 241.232119 
L 279.928558 239.827512 
L 285.242845 238.452289 
L 290.557131 237.106614 
L 292.817059 236.558426 
L 295.871424 235.769646 
L 301.185713 234.455641 
L 306.499998 233.180895 
L 311.814284 231.944719 
L 314.816694 231.278444 
L 317.128569 230.732496 
L 322.442855 229.546636 
L 327.757141 228.405667 
L 333.071426 227.30834 
L 338.385711 226.253471 
L 339.760468 225.998423 
L 343.699997 225.221531 
L 349.014278 224.229557 
L 354.328564 223.282839 
L 359.642855 222.379818 
L 364.957142 221.519007 
L 370.150022 220.718422 
L 370.271424 220.698514 
L 375.585714 219.900007 
L 380.899995 219.143849 
L 386.214281 218.428293 
L 391.52857 217.751695 
L 396.842859 217.112456 
L 402.15714 216.509082 
L 407.471429 215.940107 
L 412.457305 215.438426 
L 412.785712 215.403305 
L 418.1 214.887533 
L 418.1 210.158424 
L 418.1 204.878426 
L 418.1 202.600643 
L 412.785712 203.096589 
L 407.471429 203.625791 
L 402.15714 204.189917 
L 396.842859 204.790724 
L 396.133797 204.878426 
L 391.52857 205.401785 
L 386.214281 206.044922 
L 380.899995 206.726104 
L 375.585714 207.446999 
L 370.271424 208.209359 
L 364.957142 209.014977 
L 359.642855 209.865802 
L 357.945932 210.158424 
L 354.328564 210.732309 
L 349.014278 211.627117 
L 343.699997 212.566405 
L 338.385711 213.551783 
L 333.071426 214.584927 
L 328.907391 215.438426 
L 327.757141 215.655643 
L 322.442855 216.72726 
L 317.128569 217.843228 
L 311.814284 219.004727 
L 306.499998 220.212908 
L 304.394612 220.718422 
L 301.185713 221.428275 
L 295.871424 222.656876 
L 290.557131 223.925105 
L 285.242845 225.233271 
L 282.259999 225.998423 
L 279.928558 226.549589 
L 274.614275 227.856186 
L 269.299992 229.192262 
L 263.985704 230.557043 
L 261.264979 231.278444 
L 258.671418 231.911816 
L 253.357135 233.244937 
L 248.042868 234.593218 
L 242.728582 235.954743 
L 240.423129 236.558426 
L 237.414298 237.283026 
L 232.100013 238.578715 
L 226.785726 239.872437 
L 221.471443 241.161505 
L 218.69801 241.838445 
L 216.157154 242.407663 
L 210.842872 243.599622 
L 205.528586 244.772689 
L 200.214279 245.924228 
L 194.900012 247.051609 
L 194.585594 247.118424 
L 189.585707 248.089529 
L 184.271443 249.091662 
L 178.957135 250.060276 
L 173.642872 250.993851 
L 168.328567 251.891159 
L 165.233363 252.398445 
L 163.014302 252.729699 
L 157.699996 253.499759 
L 152.38573 254.231325 
L 147.071429 254.924613 
L 141.757141 255.580075 
L 136.442855 256.198379 
L 131.128569 256.780374 
L 125.814283 257.327129 
L 122.212749 257.678423 
L 120.499997 257.829788 
L 115.185714 258.279264 
L 109.871427 258.698532 
L 104.557144 259.089132 
L 99.242859 259.452634 
L 93.92857 259.790576 
L 88.614287 260.104505 
L 83.3 260.39592 
L 83.3 262.958442 
L 83.3 268.238422 
L 83.3 273.518441 
L 83.3 274.650861 
z
" clip-path="url(#p64f1c7a7c0)" style="fill: #3b528b"/>
    <path d="M 88.614287 260.104505 
L 93.92857 259.790576 
L 99.242859 259.452634 
L 104.557144 259.089132 
L 109.871427 258.698532 
L 115.185714 258.279264 
L 120.499997 257.829788 
L 122.212749 257.678423 
L 125.814283 257.327129 
L 131.128569 256.780374 
L 136.442855 256.198379 
L 141.757141 255.580075 
L 147.071429 254.924613 
L 152.38573 254.231325 
L 157.699996 253.499759 
L 163.014302 252.729699 
L 165.233363 252.398445 
L 168.328567 251.891159 
L 173.642872 250.993851 
L 178.957135 250.060276 
L 184.271443 249.091662 
L 189.585707 248.089529 
L 194.585594 247.118424 
L 194.900012 247.051609 
L 200.214279 245.924228 
L 205.528586 244.772689 
L 210.842872 243.599622 
L 216.157154 242.407663 
L 218.69801 241.838445 
L 221.471443 241.161505 
L 226.785726 239.872437 
L 232.100013 238.578715 
L 237.414298 237.283026 
L 240.423129 236.558426 
L 242.728582 235.954743 
L 248.042868 234.593218 
L 253.357135 233.244937 
L 258.671418 231.911816 
L 261.264979 231.278444 
L 263.985704 230.557043 
L 269.299992 229.192262 
L 274.614275 227.856186 
L 279.928558 226.549589 
L 282.259999 225.998423 
L 285.242845 225.233271 
L 290.557131 223.925105 
L 295.871424 222.656876 
L 301.185713 221.428275 
L 304.394612 220.718422 
L 306.499998 220.212908 
L 311.814284 219.004727 
L 317.128569 217.843228 
L 322.442855 216.72726 
L 327.757141 215.655643 
L 328.907391 215.438426 
L 333.071426 214.584927 
L 338.385711 213.551783 
L 343.699997 212.566405 
L 349.014278 211.627117 
L 354.328564 210.732309 
L 357.945932 210.158424 
L 359.642855 209.865802 
L 364.957142 209.014977 
L 370.271424 208.209359 
L 375.585714 207.446999 
L 380.899995 206.726104 
L 386.214281 206.044922 
L 391.52857 205.401785 
L 396.133797 204.878426 
L 396.842859 204.790724 
L 402.15714 204.189917 
L 407.471429 203.625791 
L 412.785712 203.096589 
L 418.1 202.600643 
L 418.1 199.598424 
L 418.1 194.318425 
L 418.1 189.038427 
L 418.1 183.758427 
L 418.1 178.478445 
L 418.1 173.198448 
L 418.1 167.918447 
L 418.1 162.638446 
L 418.1 157.358448 
L 418.1 152.078451 
L 418.1 146.798449 
L 418.1 141.51845 
L 418.1 136.238442 
L 418.1 130.958438 
L 418.1 125.678439 
L 418.1 120.398439 
L 418.1 115.11844 
L 418.1 109.83844 
L 418.1 109.063349 
L 412.785712 109.472157 
L 408.321753 109.83844 
L 407.471429 110.102871 
L 402.15714 112.38025 
L 396.842859 112.360136 
L 391.52857 112.156704 
L 386.214281 113.267488 
L 380.899995 112.978518 
L 375.585714 114.592395 
L 370.271424 113.42661 
L 364.957142 114.034279 
L 359.642855 114.668722 
L 356.066242 115.11844 
L 354.328564 115.897285 
L 349.014278 117.529848 
L 343.699997 118.43845 
L 338.385711 119.327625 
L 333.071426 119.774735 
L 327.757141 118.763071 
L 322.442855 119.520236 
L 317.128569 120.30011 
L 316.491365 120.398439 
L 311.814284 122.829071 
L 306.499998 125.013101 
L 301.185713 123.399595 
L 295.871424 123.911515 
L 290.557131 124.178523 
L 285.242845 124.991212 
L 280.81916 125.678439 
L 279.928558 127.174863 
L 274.614275 130.092792 
L 269.299992 128.188728 
L 263.985704 128.711245 
L 258.671418 129.109978 
L 253.357135 129.669222 
L 248.042868 130.437719 
L 244.447995 130.958438 
L 242.728582 132.021533 
L 237.414298 133.348831 
L 232.100013 133.639334 
L 226.785726 135.812855 
L 221.471443 134.899238 
L 216.157154 134.573328 
L 210.842872 135.210537 
L 205.528586 135.831525 
L 201.98251 136.238442 
L 200.214279 138.10896 
L 194.900012 137.900223 
L 189.585707 139.281058 
L 184.271443 140.468974 
L 178.957135 141.248401 
L 173.642872 139.306231 
L 168.328567 139.679242 
L 163.014302 139.830785 
L 157.699996 140.24197 
L 152.38573 140.634371 
L 147.071429 141.008281 
L 141.757141 141.364027 
L 139.371981 141.51845 
L 136.442855 142.017752 
L 131.128569 145.126961 
L 125.814283 144.06622 
L 120.499997 143.617577 
L 115.185714 145.69826 
L 109.871427 144.347377 
L 104.557144 146.335062 
L 99.242859 144.651961 
L 93.92857 145.988551 
L 88.614287 144.613056 
L 83.3 145.502829 
L 83.3 146.798449 
L 83.3 152.078451 
L 83.3 157.358448 
L 83.3 162.638446 
L 83.3 167.918447 
L 83.3 173.198448 
L 83.3 178.478445 
L 83.3 183.758427 
L 83.3 189.038427 
L 83.3 194.318425 
L 83.3 199.598424 
L 83.3 204.878426 
L 83.3 210.158424 
L 83.3 215.438426 
L 83.3 220.718422 
L 83.3 225.998423 
L 83.3 231.278444 
L 83.3 236.558426 
L 83.3 241.838445 
L 83.3 247.118424 
L 83.3 252.398445 
L 83.3 257.678423 
L 83.3 260.39592 
z
" clip-path="url(#p64f1c7a7c0)" style="fill: #32658e"/>
    <path d="M 88.614287 144.613056 
L 93.92857 145.988551 
L 99.242859 144.651961 
L 104.557144 146.335062 
L 109.871427 144.347377 
L 115.185714 145.69826 
L 120.499997 143.617577 
L 125.814283 144.06622 
L 131.128569 145.126961 
L 136.442855 142.017752 
L 139.371981 141.51845 
L 141.757141 141.364027 
L 147.071429 141.008281 
L 152.38573 140.634371 
L 157.699996 140.24197 
L 163.014302 139.830785 
L 168.328567 139.679242 
L 173.642872 139.306231 
L 178.957135 141.248401 
L 184.271443 140.468974 
L 189.585707 139.281058 
L 194.900012 137.900223 
L 200.214279 138.10896 
L 201.98251 136.238442 
L 205.528586 135.831525 
L 210.842872 135.210537 
L 216.157154 134.573328 
L 221.471443 134.899238 
L 226.785726 135.812855 
L 232.100013 133.639334 
L 237.414298 133.348831 
L 242.728582 132.021533 
L 244.447995 130.958438 
L 248.042868 130.437719 
L 253.357135 129.669222 
L 258.671418 129.109978 
L 263.985704 128.711245 
L 269.299992 128.188728 
L 274.614275 130.092792 
L 279.928558 127.174863 
L 280.81916 125.678439 
L 285.242845 124.991212 
L 290.557131 124.178523 
L 295.871424 123.911515 
L 301.185713 123.399595 
L 306.499998 125.013101 
L 311.814284 122.829071 
L 316.491365 120.398439 
L 317.128569 120.30011 
L 322.442855 119.520236 
L 327.757141 118.763071 
L 333.071426 119.774735 
L 338.385711 119.327625 
L 343.699997 118.43845 
L 349.014278 117.529848 
L 354.328564 115.897285 
L 356.066242 115.11844 
L 359.642855 114.668722 
L 364.957142 114.034279 
L 370.271424 113.42661 
L 375.585714 114.592395 
L 380.899995 112.978518 
L 386.214281 113.267488 
L 391.52857 112.156704 
L 396.842859 112.360136 
L 402.15714 112.38025 
L 407.471429 110.102871 
L 408.321753 109.83844 
L 412.785712 109.472157 
L 418.1 109.063349 
L 418.1 104.558439 
L 418.1 99.27844 
L 418.1 96.362648 
L 412.785712 96.74926 
L 407.471429 97.158744 
L 402.15714 97.591798 
L 396.842859 98.049264 
L 391.52857 98.532279 
L 386.214281 99.040424 
L 383.886096 99.27844 
L 380.899995 99.550683 
L 375.585714 100.065715 
L 370.271424 100.60418 
L 364.957142 101.166989 
L 359.642855 101.75404 
L 354.328564 102.365326 
L 349.014278 103.001269 
L 343.699997 103.661409 
L 338.385711 104.345175 
L 336.814342 104.558439 
L 333.071426 105.012407 
L 327.757141 105.68191 
L 322.442855 106.370651 
L 317.128569 107.077795 
L 311.814284 107.802462 
L 306.499998 108.543681 
L 301.185713 109.300328 
L 297.502578 109.83844 
L 295.871424 110.051628 
L 290.557131 110.769466 
L 285.242845 111.495725 
L 279.928558 112.229236 
L 274.614275 112.968383 
L 269.299992 113.711555 
L 263.985704 114.457081 
L 259.289168 115.11844 
L 258.671418 115.196217 
L 253.357135 115.878502 
L 248.042868 116.556662 
L 242.728582 117.229203 
L 237.414298 117.894642 
L 232.100013 118.551529 
L 226.785726 119.198496 
L 221.471443 119.834233 
L 216.673299 120.398439 
L 216.157154 120.452565 
L 210.842872 121.010541 
L 205.528586 121.554146 
L 200.214279 122.082605 
L 194.900012 122.5953 
L 189.585707 123.091671 
L 184.271443 123.571273 
L 178.957135 124.033777 
L 173.642872 124.478952 
L 168.328567 124.906659 
L 163.014302 125.316862 
L 158.133836 125.678439 
L 157.699996 125.706965 
L 152.38573 126.050234 
L 147.071429 126.377458 
L 141.757141 126.688908 
L 136.442855 126.984942 
L 131.128569 127.265923 
L 125.814283 127.532291 
L 120.499997 127.784499 
L 115.185714 128.023026 
L 109.871427 128.248345 
L 104.557144 128.460994 
L 99.242859 128.661478 
L 93.92857 128.850314 
L 88.614287 129.028034 
L 83.3 129.19514 
L 83.3 130.958438 
L 83.3 136.238442 
L 83.3 141.51845 
L 83.3 145.502829 
z
" clip-path="url(#p64f1c7a7c0)" style="fill: #2a768e"/>
    <path d="M 88.614287 129.028034 
L 93.92857 128.850314 
L 99.242859 128.661478 
L 104.557144 128.460994 
L 109.871427 128.248345 
L 115.185714 128.023026 
L 120.499997 127.784499 
L 125.814283 127.532291 
L 131.128569 127.265923 
L 136.442855 126.984942 
L 141.757141 126.688908 
L 147.071429 126.377458 
L 152.38573 126.050234 
L 157.699996 125.706965 
L 158.133836 125.678439 
L 163.014302 125.316862 
L 168.328567 124.906659 
L 173.642872 124.478952 
L 178.957135 124.033777 
L 184.271443 123.571273 
L 189.585707 123.091671 
L 194.900012 122.5953 
L 200.214279 122.082605 
L 205.528586 121.554146 
L 210.842872 121.010541 
L 216.157154 120.452565 
L 216.673299 120.398439 
L 221.471443 119.834233 
L 226.785726 119.198496 
L 232.100013 118.551529 
L 237.414298 117.894642 
L 242.728582 117.229203 
L 248.042868 116.556662 
L 253.357135 115.878502 
L 258.671418 115.196217 
L 259.289168 115.11844 
L 263.985704 114.457081 
L 269.299992 113.711555 
L 274.614275 112.968383 
L 279.928558 112.229236 
L 285.242845 111.495725 
L 290.557131 110.769466 
L 295.871424 110.051628 
L 297.502578 109.83844 
L 301.185713 109.300328 
L 306.499998 108.543681 
L 311.814284 107.802462 
L 317.128569 107.077795 
L 322.442855 106.370651 
L 327.757141 105.68191 
L 333.071426 105.012407 
L 336.814342 104.558439 
L 338.385711 104.345175 
L 343.699997 103.661409 
L 349.014278 103.001269 
L 354.328564 102.365326 
L 359.642855 101.75404 
L 364.957142 101.166989 
L 370.271424 100.60418 
L 375.585714 100.065715 
L 380.899995 99.550683 
L 383.886096 99.27844 
L 386.214281 99.040424 
L 391.52857 98.532279 
L 396.842859 98.049264 
L 402.15714 97.591798 
L 407.471429 97.158744 
L 412.785712 96.74926 
L 418.1 96.362648 
L 418.1 93.998441 
L 418.1 88.718441 
L 418.1 83.438445 
L 418.1 83.412167 
L 417.755316 83.438445 
L 412.785712 83.771684 
L 407.471429 84.149484 
L 402.15714 84.548422 
L 396.842859 84.969059 
L 391.52857 85.411861 
L 386.214281 85.877204 
L 380.899995 86.36555 
L 375.585714 86.877169 
L 370.271424 87.412269 
L 364.957142 87.971202 
L 359.642855 88.553997 
L 358.230108 88.718441 
L 354.328564 89.119276 
L 349.014278 89.689784 
L 343.699997 90.280661 
L 338.385711 90.891528 
L 333.071426 91.521954 
L 327.757141 92.171363 
L 322.442855 92.839111 
L 317.128569 93.524407 
L 313.568341 93.998441 
L 311.814284 94.205041 
L 306.499998 94.854593 
L 301.185713 95.5159 
L 295.871424 96.187858 
L 290.557131 96.869181 
L 285.242845 97.558498 
L 279.928558 98.254395 
L 274.614275 98.955363 
L 272.208201 99.27844 
L 269.299992 99.624017 
L 263.985704 100.263133 
L 258.671418 100.90133 
L 253.357135 101.537152 
L 248.042868 102.169154 
L 242.728582 102.795896 
L 237.414298 103.415995 
L 232.100013 104.028079 
L 227.43873 104.558439 
L 226.785726 104.624093 
L 221.471443 105.160491 
L 216.157154 105.68554 
L 210.842872 106.198392 
L 205.528586 106.698234 
L 200.214279 107.184373 
L 194.900012 107.656185 
L 189.585707 108.113189 
L 184.271443 108.554932 
L 178.957135 108.981123 
L 173.642872 109.391508 
L 168.328567 109.785973 
L 167.61029 109.83844 
L 163.014302 110.133727 
L 157.699996 110.461787 
L 152.38573 110.775219 
L 147.071429 111.074219 
L 141.757141 111.359019 
L 136.442855 111.629907 
L 131.128569 111.887217 
L 125.814283 112.131336 
L 120.499997 112.362613 
L 115.185714 112.581503 
L 109.871427 112.788422 
L 104.557144 112.98383 
L 99.242859 113.168153 
L 93.92857 113.341893 
L 88.614287 113.505483 
L 83.3 113.659424 
L 83.3 115.11844 
L 83.3 120.398439 
L 83.3 125.678439 
L 83.3 129.19514 
z
" clip-path="url(#p64f1c7a7c0)" style="fill: #24878e"/>
    <path d="M 88.614287 113.505483 
L 93.92857 113.341893 
L 99.242859 113.168153 
L 104.557144 112.98383 
L 109.871427 112.788422 
L 115.185714 112.581503 
L 120.499997 112.362613 
L 125.814283 112.131336 
L 131.128569 111.887217 
L 136.442855 111.629907 
L 141.757141 111.359019 
L 147.071429 111.074219 
L 152.38573 110.775219 
L 157.699996 110.461787 
L 163.014302 110.133727 
L 167.61029 109.83844 
L 168.328567 109.785973 
L 173.642872 109.391508 
L 178.957135 108.981123 
L 184.271443 108.554932 
L 189.585707 108.113189 
L 194.900012 107.656185 
L 200.214279 107.184373 
L 205.528586 106.698234 
L 210.842872 106.198392 
L 216.157154 105.68554 
L 221.471443 105.160491 
L 226.785726 104.624093 
L 227.43873 104.558439 
L 232.100013 104.028079 
L 237.414298 103.415995 
L 242.728582 102.795896 
L 248.042868 102.169154 
L 253.357135 101.537152 
L 258.671418 100.90133 
L 263.985704 100.263133 
L 269.299992 99.624017 
L 272.208201 99.27844 
L 274.614275 98.955363 
L 279.928558 98.254395 
L 285.242845 97.558498 
L 290.557131 96.869181 
L 295.871424 96.187858 
L 301.185713 95.5159 
L 306.499998 94.854593 
L 311.814284 94.205041 
L 313.568341 93.998441 
L 317.128569 93.524407 
L 322.442855 92.839111 
L 327.757141 92.171363 
L 333.071426 91.521954 
L 338.385711 90.891528 
L 343.699997 90.280661 
L 349.014278 89.689784 
L 354.328564 89.119276 
L 358.230108 88.718441 
L 359.642855 88.553997 
L 364.957142 87.971202 
L 370.271424 87.412269 
L 375.585714 86.877169 
L 380.899995 86.36555 
L 386.214281 85.877204 
L 391.52857 85.411861 
L 396.842859 84.969059 
L 402.15714 84.548422 
L 407.471429 84.149484 
L 412.785712 83.771684 
L 417.755316 83.438445 
L 418.1 83.412167 
L 418.1 78.158445 
L 418.1 72.878439 
L 418.1 69.524914 
L 412.785712 69.877962 
L 407.471429 70.250959 
L 402.15714 70.644309 
L 396.842859 71.058471 
L 391.52857 71.493752 
L 386.214281 71.950494 
L 380.899995 72.428955 
L 376.139739 72.878439 
L 375.585714 72.924104 
L 370.271424 73.392583 
L 364.957142 73.880203 
L 359.642855 74.386888 
L 354.328564 74.912442 
L 349.014278 75.45667 
L 343.699997 76.019175 
L 338.385711 76.599559 
L 333.071426 77.197237 
L 327.757141 77.811583 
L 324.863938 78.158445 
L 322.442855 78.412694 
L 317.128569 78.991026 
L 311.814284 79.581074 
L 306.499998 80.181813 
L 301.185713 80.792206 
L 295.871424 81.411044 
L 290.557131 82.037089 
L 285.242845 82.669055 
L 279.928558 83.305529 
L 278.844206 83.438445 
L 274.614275 83.893258 
L 269.299992 84.46816 
L 263.985704 85.042494 
L 258.671418 85.614898 
L 253.357135 86.184117 
L 248.042868 86.748824 
L 242.728582 87.307768 
L 237.414298 87.859756 
L 232.100013 88.403576 
L 229.002431 88.718441 
L 226.785726 88.915926 
L 221.471443 89.386811 
L 216.157154 89.847187 
L 210.842872 90.296316 
L 205.528586 90.73353 
L 200.214279 91.15829 
L 194.900012 91.570067 
L 189.585707 91.968487 
L 184.271443 92.353234 
L 178.957135 92.724082 
L 173.642872 93.080868 
L 168.328567 93.423478 
L 163.014302 93.751986 
L 158.875775 93.998441 
L 157.699996 94.05957 
L 152.38573 94.32971 
L 147.071429 94.587334 
L 141.757141 94.832657 
L 136.442855 95.065938 
L 131.128569 95.287448 
L 125.814283 95.497572 
L 120.499997 95.696585 
L 115.185714 95.884917 
L 109.871427 96.062902 
L 104.557144 96.230986 
L 99.242859 96.389503 
L 93.92857 96.538899 
L 88.614287 96.679566 
L 83.3 96.81189 
L 83.3 99.27844 
L 83.3 104.558439 
L 83.3 109.83844 
L 83.3 113.659424 
z
" clip-path="url(#p64f1c7a7c0)" style="fill: #1f998a"/>
    <path d="M 88.614287 96.679566 
L 93.92857 96.538899 
L 99.242859 96.389503 
L 104.557144 96.230986 
L 109.871427 96.062902 
L 115.185714 95.884917 
L 120.499997 95.696585 
L 125.814283 95.497572 
L 131.128569 95.287448 
L 136.442855 95.065938 
L 141.757141 94.832657 
L 147.071429 94.587334 
L 152.38573 94.32971 
L 157.699996 94.05957 
L 158.875775 93.998441 
L 163.014302 93.751986 
L 168.328567 93.423478 
L 173.642872 93.080868 
L 178.957135 92.724082 
L 184.271443 92.353234 
L 189.585707 91.968487 
L 194.900012 91.570067 
L 200.214279 91.15829 
L 205.528586 90.73353 
L 210.842872 90.296316 
L 216.157154 89.847187 
L 221.471443 89.386811 
L 226.785726 88.915926 
L 229.002431 88.718441 
L 232.100013 88.403576 
L 237.414298 87.859756 
L 242.728582 87.307768 
L 248.042868 86.748824 
L 253.357135 86.184117 
L 258.671418 85.614898 
L 263.985704 85.042494 
L 269.299992 84.46816 
L 274.614275 83.893258 
L 278.844206 83.438445 
L 279.928558 83.305529 
L 285.242845 82.669055 
L 290.557131 82.037089 
L 295.871424 81.411044 
L 301.185713 80.792206 
L 306.499998 80.181813 
L 311.814284 79.581074 
L 317.128569 78.991026 
L 322.442855 78.412694 
L 324.863938 78.158445 
L 327.757141 77.811583 
L 333.071426 77.197237 
L 338.385711 76.599559 
L 343.699997 76.019175 
L 349.014278 75.45667 
L 354.328564 74.912442 
L 359.642855 74.386888 
L 364.957142 73.880203 
L 370.271424 73.392583 
L 375.585714 72.924104 
L 376.139739 72.878439 
L 380.899995 72.428955 
L 386.214281 71.950494 
L 391.52857 71.493752 
L 396.842859 71.058471 
L 402.15714 70.644309 
L 407.471429 70.250959 
L 412.785712 69.877962 
L 418.1 69.524914 
L 418.1 67.598438 
L 418.1 62.318442 
L 418.1 57.038437 
L 418.1 54.293628 
L 412.785712 54.630186 
L 407.471429 54.984799 
L 402.15714 55.357737 
L 396.842859 55.749214 
L 391.52857 56.159409 
L 386.214281 56.588466 
L 380.899995 57.036428 
L 380.877725 57.038437 
L 375.585714 57.451717 
L 370.271424 57.88306 
L 364.957142 58.330528 
L 359.642855 58.793845 
L 354.328564 59.272691 
L 349.014278 59.766662 
L 343.699997 60.275257 
L 338.385711 60.797871 
L 333.071426 61.33388 
L 327.757141 61.882491 
L 323.644864 62.318442 
L 322.442855 62.429174 
L 317.128569 62.937331 
L 311.814284 63.453671 
L 306.499998 63.977214 
L 301.185713 64.506919 
L 295.871424 65.041691 
L 290.557131 65.580372 
L 285.242845 66.12178 
L 279.928558 66.664691 
L 274.614275 67.207855 
L 270.811489 67.598438 
L 269.299992 67.733625 
L 263.985704 68.214928 
L 258.671418 68.692781 
L 253.357135 69.166132 
L 248.042868 69.634002 
L 242.728582 70.095365 
L 237.414298 70.549309 
L 232.100013 70.994959 
L 226.785726 71.431476 
L 221.471443 71.858137 
L 216.157154 72.274275 
L 210.842872 72.679266 
L 208.188134 72.878439 
L 205.528586 73.052049 
L 200.214279 73.39276 
L 194.900012 73.722237 
L 189.585707 74.04023 
L 184.271443 74.346595 
L 178.957135 74.641206 
L 173.642872 74.924023 
L 168.328567 75.195053 
L 163.014302 75.454374 
L 157.699996 75.702115 
L 152.38573 75.938425 
L 147.071429 76.163502 
L 141.757141 76.377583 
L 136.442855 76.580926 
L 131.128569 76.773848 
L 125.814283 76.956629 
L 120.499997 77.129644 
L 115.185714 77.293188 
L 109.871427 77.447657 
L 104.557144 77.593392 
L 99.242859 77.730744 
L 93.92857 77.860122 
L 88.614287 77.981846 
L 83.3 78.096301 
L 83.3 78.158445 
L 83.3 83.438445 
L 83.3 88.718441 
L 83.3 93.998441 
L 83.3 96.81189 
z
" clip-path="url(#p64f1c7a7c0)" style="fill: #24aa83"/>
    <path d="M 88.614287 77.981846 
L 93.92857 77.860122 
L 99.242859 77.730744 
L 104.557144 77.593392 
L 109.871427 77.447657 
L 115.185714 77.293188 
L 120.499997 77.129644 
L 125.814283 76.956629 
L 131.128569 76.773848 
L 136.442855 76.580926 
L 141.757141 76.377583 
L 147.071429 76.163502 
L 152.38573 75.938425 
L 157.699996 75.702115 
L 163.014302 75.454374 
L 168.328567 75.195053 
L 173.642872 74.924023 
L 178.957135 74.641206 
L 184.271443 74.346595 
L 189.585707 74.04023 
L 194.900012 73.722237 
L 200.214279 73.39276 
L 205.528586 73.052049 
L 208.188134 72.878439 
L 210.842872 72.679266 
L 216.157154 72.274275 
L 221.471443 71.858137 
L 226.785726 71.431476 
L 232.100013 70.994959 
L 237.414298 70.549309 
L 242.728582 70.095365 
L 248.042868 69.634002 
L 253.357135 69.166132 
L 258.671418 68.692781 
L 263.985704 68.214928 
L 269.299992 67.733625 
L 270.811489 67.598438 
L 274.614275 67.207855 
L 279.928558 66.664691 
L 285.242845 66.12178 
L 290.557131 65.580372 
L 295.871424 65.041691 
L 301.185713 64.506919 
L 306.499998 63.977214 
L 311.814284 63.453671 
L 317.128569 62.937331 
L 322.442855 62.429174 
L 323.644864 62.318442 
L 327.757141 61.882491 
L 333.071426 61.33388 
L 338.385711 60.797871 
L 343.699997 60.275257 
L 349.014278 59.766662 
L 354.328564 59.272691 
L 359.642855 58.793845 
L 364.957142 58.330528 
L 370.271424 57.88306 
L 375.585714 57.451717 
L 380.877725 57.038437 
L 380.899995 57.036428 
L 386.214281 56.588466 
L 391.52857 56.159409 
L 396.842859 55.749214 
L 402.15714 55.357737 
L 407.471429 54.984799 
L 412.785712 54.630186 
L 418.1 54.293628 
L 418.1 51.758443 
L 418.1 46.478442 
L 418.1 41.198439 
L 418.1 36.875612 
L 412.785712 37.173526 
L 407.471429 37.486036 
L 402.15714 37.813219 
L 396.842859 38.154998 
L 391.52857 38.511389 
L 386.214281 38.882226 
L 380.899995 39.267361 
L 375.585714 39.666566 
L 370.271424 40.079521 
L 364.957142 40.505864 
L 359.642855 40.945131 
L 356.696579 41.198439 
L 354.328564 41.373713 
L 349.014278 41.783038 
L 343.699997 42.201905 
L 338.385711 42.629671 
L 333.071426 43.065614 
L 327.757141 43.50896 
L 322.442855 43.958853 
L 317.128569 44.414391 
L 311.814284 44.874682 
L 306.499998 45.338677 
L 301.185713 45.805429 
L 295.871424 46.273816 
L 293.584927 46.478442 
L 290.557131 46.712682 
L 285.242845 47.127641 
L 279.928558 47.541143 
L 274.614275 47.952226 
L 269.299992 48.35997 
L 263.985704 48.763545 
L 258.671418 49.162043 
L 253.357135 49.5547 
L 248.042868 49.94069 
L 242.728582 50.319329 
L 237.414298 50.68994 
L 232.100013 51.051917 
L 226.785726 51.404717 
L 221.471443 51.74788 
L 221.307315 51.758443 
L 216.157154 52.045346 
L 210.842872 52.332396 
L 205.528586 52.609905 
L 200.214279 52.877737 
L 194.900012 53.135702 
L 189.585707 53.383768 
L 184.271443 53.621901 
L 178.957135 53.85008 
L 173.642872 54.068399 
L 168.328567 54.276974 
L 163.014302 54.475913 
L 157.699996 54.665399 
L 152.38573 54.845618 
L 147.071429 55.016803 
L 141.757141 55.179238 
L 136.442855 55.33313 
L 131.128569 55.478801 
L 125.814283 55.616503 
L 120.499997 55.746556 
L 115.185714 55.869281 
L 109.871427 55.984951 
L 104.557144 56.093885 
L 99.242859 56.196382 
L 93.92857 56.292773 
L 88.614287 56.383332 
L 83.3 56.468358 
L 83.3 57.038437 
L 83.3 62.318442 
L 83.3 67.598438 
L 83.3 72.878439 
L 83.3 78.096301 
z
" clip-path="url(#p64f1c7a7c0)" style="fill: #3aba76"/>
    <path d="M 88.614287 56.383332 
L 93.92857 56.292773 
L 99.242859 56.196382 
L 104.557144 56.093885 
L 109.871427 55.984951 
L 115.185714 55.869281 
L 120.499997 55.746556 
L 125.814283 55.616503 
L 131.128569 55.478801 
L 136.442855 55.33313 
L 141.757141 55.179238 
L 147.071429 55.016803 
L 152.38573 54.845618 
L 157.699996 54.665399 
L 163.014302 54.475913 
L 168.328567 54.276974 
L 173.642872 54.068399 
L 178.957135 53.85008 
L 184.271443 53.621901 
L 189.585707 53.383768 
L 194.900012 53.135702 
L 200.214279 52.877737 
L 205.528586 52.609905 
L 210.842872 52.332396 
L 216.157154 52.045346 
L 221.307315 51.758443 
L 221.471443 51.74788 
L 226.785726 51.404717 
L 232.100013 51.051917 
L 237.414298 50.68994 
L 242.728582 50.319329 
L 248.042868 49.94069 
L 253.357135 49.5547 
L 258.671418 49.162043 
L 263.985704 48.763545 
L 269.299992 48.35997 
L 274.614275 47.952226 
L 279.928558 47.541143 
L 285.242845 47.127641 
L 290.557131 46.712682 
L 293.584927 46.478442 
L 295.871424 46.273816 
L 301.185713 45.805429 
L 306.499998 45.338677 
L 311.814284 44.874682 
L 317.128569 44.414391 
L 322.442855 43.958853 
L 327.757141 43.50896 
L 333.071426 43.065614 
L 338.385711 42.629671 
L 343.699997 42.201905 
L 349.014278 41.783038 
L 354.328564 41.373713 
L 356.696579 41.198439 
L 359.642855 40.945131 
L 364.957142 40.505864 
L 370.271424 40.079521 
L 375.585714 39.666566 
L 380.899995 39.267361 
L 386.214281 38.882226 
L 391.52857 38.511389 
L 396.842859 38.154998 
L 402.15714 37.813219 
L 407.471429 37.486036 
L 412.785712 37.173526 
L 418.1 36.875612 
L 418.1 35.918436 
L 418.1 30.638441 
L 418.1 25.358437 
L 418.1 20.07844 
L 418.1 15.824305 
L 412.785712 16.086757 
L 407.471429 16.360363 
L 402.15714 16.644914 
L 396.842859 16.940212 
L 391.52857 17.245961 
L 386.214281 17.561846 
L 380.899995 17.887477 
L 375.585714 18.222434 
L 370.271424 18.566229 
L 364.957142 18.918353 
L 359.642855 19.278185 
L 354.328564 19.645079 
L 349.014278 20.018358 
L 348.190256 20.07844 
L 343.699997 20.358773 
L 338.385711 20.696139 
L 333.071426 21.037036 
L 327.757141 21.380702 
L 322.442855 21.726415 
L 317.128569 22.073383 
L 311.814284 22.420887 
L 306.499998 22.768054 
L 301.185713 23.114194 
L 295.871424 23.458458 
L 290.557131 23.800155 
L 285.242845 24.138486 
L 279.928558 24.472773 
L 274.614275 24.802303 
L 269.299992 25.12644 
L 265.453965 25.358437 
L 263.985704 25.434601 
L 258.671418 25.710062 
L 253.357135 25.979308 
L 248.042868 26.241968 
L 242.728582 26.497635 
L 237.414298 26.746077 
L 232.100013 26.986961 
L 226.785726 27.220096 
L 221.471443 27.445265 
L 216.157154 27.662407 
L 210.842872 27.871397 
L 205.528586 28.072205 
L 200.214279 28.264784 
L 194.900012 28.449221 
L 189.585707 28.625597 
L 184.271443 28.79396 
L 178.957135 28.954477 
L 173.642872 29.107271 
L 168.328567 29.252515 
L 163.014302 29.390417 
L 157.699996 29.521191 
L 152.38573 29.645058 
L 147.071429 29.762255 
L 141.757141 29.873003 
L 136.442855 29.977509 
L 131.128569 30.076098 
L 125.814283 30.169026 
L 120.499997 30.256483 
L 115.185714 30.338723 
L 109.871427 30.416077 
L 104.557144 30.488738 
L 99.242859 30.556927 
L 93.92857 30.620846 
L 92.406402 30.638441 
L 88.614287 30.67618 
L 83.3 30.726252 
L 83.3 35.918436 
L 83.3 41.198439 
L 83.3 46.478442 
L 83.3 51.758443 
L 83.3 56.468358 
z
" clip-path="url(#p64f1c7a7c0)" style="fill: #5ec962"/>
    <path d="M 88.614287 30.67618 
L 92.406402 30.638441 
L 93.92857 30.620846 
L 99.242859 30.556927 
L 104.557144 30.488738 
L 109.871427 30.416077 
L 115.185714 30.338723 
L 120.499997 30.256483 
L 125.814283 30.169026 
L 131.128569 30.076098 
L 136.442855 29.977509 
L 141.757141 29.873003 
L 147.071429 29.762255 
L 152.38573 29.645058 
L 157.699996 29.521191 
L 163.014302 29.390417 
L 168.328567 29.252515 
L 173.642872 29.107271 
L 178.957135 28.954477 
L 184.271443 28.79396 
L 189.585707 28.625597 
L 194.900012 28.449221 
L 200.214279 28.264784 
L 205.528586 28.072205 
L 210.842872 27.871397 
L 216.157154 27.662407 
L 221.471443 27.445265 
L 226.785726 27.220096 
L 232.100013 26.986961 
L 237.414298 26.746077 
L 242.728582 26.497635 
L 248.042868 26.241968 
L 253.357135 25.979308 
L 258.671418 25.710062 
L 263.985704 25.434601 
L 265.453965 25.358437 
L 269.299992 25.12644 
L 274.614275 24.802303 
L 279.928558 24.472773 
L 285.242845 24.138486 
L 290.557131 23.800155 
L 295.871424 23.458458 
L 301.185713 23.114194 
L 306.499998 22.768054 
L 311.814284 22.420887 
L 317.128569 22.073383 
L 322.442855 21.726415 
L 327.757141 21.380702 
L 333.071426 21.037036 
L 338.385711 20.696139 
L 343.699997 20.358773 
L 348.190256 20.07844 
L 349.014278 20.018358 
L 354.328564 19.645079 
L 359.642855 19.278185 
L 364.957142 18.918353 
L 370.271424 18.566229 
L 375.585714 18.222434 
L 380.899995 17.887477 
L 386.214281 17.561846 
L 391.52857 17.245961 
L 396.842859 16.940212 
L 402.15714 16.644914 
L 407.471429 16.360363 
L 412.785712 16.086757 
L 418.1 15.824305 
L 418.1 14.798437 
L 412.785712 14.798437 
L 407.471429 14.798437 
L 402.15714 14.798437 
L 396.842859 14.798437 
L 391.52857 14.798437 
L 386.214281 14.798437 
L 380.899995 14.798437 
L 375.585714 14.798437 
L 370.271424 14.798437 
L 364.957142 14.798437 
L 359.642855 14.798437 
L 354.328564 14.798437 
L 349.014278 14.798437 
L 343.699997 14.798437 
L 338.385711 14.798437 
L 333.071426 14.798437 
L 327.757141 14.798437 
L 322.442855 14.798437 
L 317.128569 14.798437 
L 311.814284 14.798437 
L 306.499998 14.798437 
L 301.185713 14.798437 
L 295.871424 14.798437 
L 290.557131 14.798437 
L 285.242845 14.798437 
L 279.928558 14.798437 
L 274.614275 14.798437 
L 269.299992 14.798437 
L 263.985704 14.798437 
L 258.671418 14.798437 
L 253.357135 14.798437 
L 248.042868 14.798437 
L 242.728582 14.798437 
L 237.414298 14.798437 
L 232.100013 14.798437 
L 226.785726 14.798437 
L 221.471443 14.798437 
L 216.157154 14.798437 
L 210.842872 14.798437 
L 205.528586 14.798437 
L 200.214279 14.798437 
L 194.900012 14.798437 
L 189.585707 14.798437 
L 184.271443 14.798437 
L 178.957135 14.798437 
L 173.642872 14.798437 
L 168.328567 14.798437 
L 163.014302 14.798437 
L 157.699996 14.798437 
L 152.38573 14.798437 
L 147.071429 14.798437 
L 141.757141 14.798437 
L 136.442855 14.798437 
L 131.128569 14.798437 
L 125.814283 14.798437 
L 120.499997 14.798437 
L 115.185714 14.798437 
L 109.871427 14.798437 
L 104.557144 14.798437 
L 99.242859 14.798437 
L 93.92857 14.798437 
L 88.614287 14.798437 
L 83.3 14.798437 
L 83.3 20.07844 
L 83.3 25.358437 
L 83.3 30.638441 
L 83.3 30.726252 
z
" clip-path="url(#p64f1c7a7c0)" style="fill: #89d548"/>
    <path clip-path="url(#p64f1c7a7c0)" style="fill: #b8de29"/>
    <path clip-path="url(#p64f1c7a7c0)" style="fill: #e7e419"/>
   </g>
   <g id="matplotlib.axis_1">
    <g id="xtick_1">
     <g id="line2d_1">
      <defs>
       <path id="mb66d2b3d8b" d="M 0 0 
L 0 2 
" style="stroke: #000000; stroke-width: 1.5"/>
      </defs>
      <g>
       <use xlink:href="#mb66d2b3d8b" x="83.300002" y="347.438437" style="stroke: #000000; stroke-width: 1.5"/>
      </g>
     </g>
     <g id="text_1">
      <!-- $\mathdefault{10^{-2}}$ -->
      <g transform="translate(59.800002 368.135312) scale(0.2 -0.2)">
       <defs>
        <path id="DejaVuSans-31" d="M 794 531 
L 1825 531 
L 1825 4091 
L 703 3866 
L 703 4441 
L 1819 4666 
L 2450 4666 
L 2450 531 
L 3481 531 
L 3481 0 
L 794 0 
L 794 531 
z
" transform="scale(0.015625)"/>
        <path id="DejaVuSans-30" d="M 2034 4250 
Q 1547 4250 1301 3770 
Q 1056 3291 1056 2328 
Q 1056 1369 1301 889 
Q 1547 409 2034 409 
Q 2525 409 2770 889 
Q 3016 1369 3016 2328 
Q 3016 3291 2770 3770 
Q 2525 4250 2034 4250 
z
M 2034 4750 
Q 2819 4750 3233 4129 
Q 3647 3509 3647 2328 
Q 3647 1150 3233 529 
Q 2819 -91 2034 -91 
Q 1250 -91 836 529 
Q 422 1150 422 2328 
Q 422 3509 836 4129 
Q 1250 4750 2034 4750 
z
" transform="scale(0.015625)"/>
        <path id="DejaVuSans-2212" d="M 678 2272 
L 4684 2272 
L 4684 1741 
L 678 1741 
L 678 2272 
z
" transform="scale(0.015625)"/>
        <path id="DejaVuSans-32" d="M 1228 531 
L 3431 531 
L 3431 0 
L 469 0 
L 469 531 
Q 828 903 1448 1529 
Q 2069 2156 2228 2338 
Q 2531 2678 2651 2914 
Q 2772 3150 2772 3378 
Q 2772 3750 2511 3984 
Q 2250 4219 1831 4219 
Q 1534 4219 1204 4116 
Q 875 4013 500 3803 
L 500 4441 
Q 881 4594 1212 4672 
Q 1544 4750 1819 4750 
Q 2544 4750 2975 4387 
Q 3406 4025 3406 3419 
Q 3406 3131 3298 2873 
Q 3191 2616 2906 2266 
Q 2828 2175 2409 1742 
Q 1991 1309 1228 531 
z
" transform="scale(0.015625)"/>
       </defs>
       <use xlink:href="#DejaVuSans-31" transform="translate(0 0.765625)"/>
       <use xlink:href="#DejaVuSans-30" transform="translate(63.623047 0.765625)"/>
       <use xlink:href="#DejaVuSans-2212" transform="translate(128.203125 39.046875) scale(0.7)"/>
       <use xlink:href="#DejaVuSans-32" transform="translate(186.855469 39.046875) scale(0.7)"/>
      </g>
     </g>
    </g>
    <g id="xtick_2">
     <g id="line2d_2">
      <g>
       <use xlink:href="#mb66d2b3d8b" x="250.700001" y="347.438437" style="stroke: #000000; stroke-width: 1.5"/>
      </g>
     </g>
     <g id="text_2">
      <!-- $\mathdefault{10^{-1}}$ -->
      <g transform="translate(227.200001 368.135312) scale(0.2 -0.2)">
       <use xlink:href="#DejaVuSans-31" transform="translate(0 0.684375)"/>
       <use xlink:href="#DejaVuSans-30" transform="translate(63.623047 0.684375)"/>
       <use xlink:href="#DejaVuSans-2212" transform="translate(128.203125 38.965625) scale(0.7)"/>
       <use xlink:href="#DejaVuSans-31" transform="translate(186.855469 38.965625) scale(0.7)"/>
      </g>
     </g>
    </g>
    <g id="xtick_3">
     <g id="line2d_3">
      <g>
       <use xlink:href="#mb66d2b3d8b" x="418.1" y="347.438437" style="stroke: #000000; stroke-width: 1.5"/>
      </g>
     </g>
     <g id="text_3">
      <!-- $\mathdefault{10^{0}}$ -->
      <g transform="translate(400.5 368.135312) scale(0.2 -0.2)">
       <use xlink:href="#DejaVuSans-31" transform="translate(0 0.765625)"/>
       <use xlink:href="#DejaVuSans-30" transform="translate(63.623047 0.765625)"/>
       <use xlink:href="#DejaVuSans-30" transform="translate(128.203125 39.046875) scale(0.7)"/>
      </g>
     </g>
    </g>
    <g id="xtick_4">
     <g id="line2d_4">
      <defs>
       <path id="m8482c4d0e7" d="M 0 0 
L 0 2 
" style="stroke: #000000; stroke-width: 0.6"/>
      </defs>
      <g>
       <use xlink:href="#m8482c4d0e7" x="133.692423" y="347.438437" style="stroke: #000000; stroke-width: 0.6"/>
      </g>
     </g>
    </g>
    <g id="xtick_5">
     <g id="line2d_5">
      <g>
       <use xlink:href="#m8482c4d0e7" x="163.170099" y="347.438437" style="stroke: #000000; stroke-width: 0.6"/>
      </g>
     </g>
    </g>
    <g id="xtick_6">
     <g id="line2d_6">
      <g>
       <use xlink:href="#m8482c4d0e7" x="184.084844" y="347.438437" style="stroke: #000000; stroke-width: 0.6"/>
      </g>
     </g>
    </g>
    <g id="xtick_7">
     <g id="line2d_7">
      <g>
       <use xlink:href="#m8482c4d0e7" x="200.30758" y="347.438437" style="stroke: #000000; stroke-width: 0.6"/>
      </g>
     </g>
    </g>
    <g id="xtick_8">
     <g id="line2d_8">
      <g>
       <use xlink:href="#m8482c4d0e7" x="213.56252" y="347.438437" style="stroke: #000000; stroke-width: 0.6"/>
      </g>
     </g>
    </g>
    <g id="xtick_9">
     <g id="line2d_9">
      <g>
       <use xlink:href="#m8482c4d0e7" x="224.769413" y="347.438437" style="stroke: #000000; stroke-width: 0.6"/>
      </g>
     </g>
    </g>
    <g id="xtick_10">
     <g id="line2d_10">
      <g>
       <use xlink:href="#m8482c4d0e7" x="234.477265" y="347.438437" style="stroke: #000000; stroke-width: 0.6"/>
      </g>
     </g>
    </g>
    <g id="xtick_11">
     <g id="line2d_11">
      <g>
       <use xlink:href="#m8482c4d0e7" x="243.040197" y="347.438437" style="stroke: #000000; stroke-width: 0.6"/>
      </g>
     </g>
    </g>
    <g id="xtick_12">
     <g id="line2d_12">
      <g>
       <use xlink:href="#m8482c4d0e7" x="301.092422" y="347.438437" style="stroke: #000000; stroke-width: 0.6"/>
      </g>
     </g>
    </g>
    <g id="xtick_13">
     <g id="line2d_13">
      <g>
       <use xlink:href="#m8482c4d0e7" x="330.570098" y="347.438437" style="stroke: #000000; stroke-width: 0.6"/>
      </g>
     </g>
    </g>
    <g id="xtick_14">
     <g id="line2d_14">
      <g>
       <use xlink:href="#m8482c4d0e7" x="351.484843" y="347.438437" style="stroke: #000000; stroke-width: 0.6"/>
      </g>
     </g>
    </g>
    <g id="xtick_15">
     <g id="line2d_15">
      <g>
       <use xlink:href="#m8482c4d0e7" x="367.707579" y="347.438437" style="stroke: #000000; stroke-width: 0.6"/>
      </g>
     </g>
    </g>
    <g id="xtick_16">
     <g id="line2d_16">
      <g>
       <use xlink:href="#m8482c4d0e7" x="380.962519" y="347.438437" style="stroke: #000000; stroke-width: 0.6"/>
      </g>
     </g>
    </g>
    <g id="xtick_17">
     <g id="line2d_17">
      <g>
       <use xlink:href="#m8482c4d0e7" x="392.169412" y="347.438437" style="stroke: #000000; stroke-width: 0.6"/>
      </g>
     </g>
    </g>
    <g id="xtick_18">
     <g id="line2d_18">
      <g>
       <use xlink:href="#m8482c4d0e7" x="401.877264" y="347.438437" style="stroke: #000000; stroke-width: 0.6"/>
      </g>
     </g>
    </g>
    <g id="xtick_19">
     <g id="line2d_19">
      <g>
       <use xlink:href="#m8482c4d0e7" x="410.440196" y="347.438437" style="stroke: #000000; stroke-width: 0.6"/>
      </g>
     </g>
    </g>
    <g id="text_4">
     <!-- $\lambda$ -->
     <g transform="translate(244.7 391.491562) scale(0.2 -0.2)">
      <defs>
       <path id="DejaVuSans-Oblique-3bb" d="M 2350 4316 
L 3125 0 
L 2516 0 
L 2038 2588 
L 328 0 
L -281 0 
L 1903 3356 
L 1794 3975 
Q 1725 4369 1391 4369 
L 1091 4369 
L 1184 4863 
L 1550 4856 
Q 2253 4847 2350 4316 
z
" transform="scale(0.015625)"/>
      </defs>
      <use xlink:href="#DejaVuSans-Oblique-3bb" transform="translate(0 0.015625)"/>
     </g>
    </g>
   </g>
   <g id="matplotlib.axis_2">
    <g id="ytick_1">
     <g id="line2d_20">
      <defs>
       <path id="mdcbe1f9092" d="M 0 0 
L -2 0 
" style="stroke: #000000; stroke-width: 1.5"/>
      </defs>
      <g>
       <use xlink:href="#mdcbe1f9092" x="83.3" y="347.438436" style="stroke: #000000; stroke-width: 1.5"/>
      </g>
     </g>
     <g id="text_5">
      <!-- $\mathdefault{10^{-2}}$ -->
      <g transform="translate(30.8 355.036873) scale(0.2 -0.2)">
       <use xlink:href="#DejaVuSans-31" transform="translate(0 0.765625)"/>
       <use xlink:href="#DejaVuSans-30" transform="translate(63.623047 0.765625)"/>
       <use xlink:href="#DejaVuSans-2212" transform="translate(128.203125 39.046875) scale(0.7)"/>
       <use xlink:href="#DejaVuSans-32" transform="translate(186.855469 39.046875) scale(0.7)"/>
      </g>
     </g>
    </g>
    <g id="ytick_2">
     <g id="line2d_21">
      <g>
       <use xlink:href="#mdcbe1f9092" x="83.3" y="181.118437" style="stroke: #000000; stroke-width: 1.5"/>
      </g>
     </g>
     <g id="text_6">
      <!-- $\mathdefault{10^{-1}}$ -->
      <g transform="translate(30.8 188.716874) scale(0.2 -0.2)">
       <use xlink:href="#DejaVuSans-31" transform="translate(0 0.684375)"/>
       <use xlink:href="#DejaVuSans-30" transform="translate(63.623047 0.684375)"/>
       <use xlink:href="#DejaVuSans-2212" transform="translate(128.203125 38.965625) scale(0.7)"/>
       <use xlink:href="#DejaVuSans-31" transform="translate(186.855469 38.965625) scale(0.7)"/>
      </g>
     </g>
    </g>
    <g id="ytick_3">
     <g id="line2d_22">
      <g>
       <use xlink:href="#mdcbe1f9092" x="83.3" y="14.798437" style="stroke: #000000; stroke-width: 1.5"/>
      </g>
     </g>
     <g id="text_7">
      <!-- $\mathdefault{10^{0}}$ -->
      <g transform="translate(42.6 22.396875) scale(0.2 -0.2)">
       <use xlink:href="#DejaVuSans-31" transform="translate(0 0.765625)"/>
       <use xlink:href="#DejaVuSans-30" transform="translate(63.623047 0.765625)"/>
       <use xlink:href="#DejaVuSans-30" transform="translate(128.203125 39.046875) scale(0.7)"/>
      </g>
     </g>
    </g>
    <g id="ytick_4">
     <g id="line2d_23">
      <defs>
       <path id="m0400a530a2" d="M 0 0 
L -2 0 
" style="stroke: #000000; stroke-width: 0.6"/>
      </defs>
      <g>
       <use xlink:href="#m0400a530a2" x="83.3" y="297.371127" style="stroke: #000000; stroke-width: 0.6"/>
      </g>
     </g>
    </g>
    <g id="ytick_5">
     <g id="line2d_24">
      <g>
       <use xlink:href="#m0400a530a2" x="83.3" y="268.083629" style="stroke: #000000; stroke-width: 0.6"/>
      </g>
     </g>
    </g>
    <g id="ytick_6">
     <g id="line2d_25">
      <g>
       <use xlink:href="#m0400a530a2" x="83.3" y="247.303819" style="stroke: #000000; stroke-width: 0.6"/>
      </g>
     </g>
    </g>
    <g id="ytick_7">
     <g id="line2d_26">
      <g>
       <use xlink:href="#m0400a530a2" x="83.3" y="231.185745" style="stroke: #000000; stroke-width: 0.6"/>
      </g>
     </g>
    </g>
    <g id="ytick_8">
     <g id="line2d_27">
      <g>
       <use xlink:href="#m0400a530a2" x="83.3" y="218.016321" style="stroke: #000000; stroke-width: 0.6"/>
      </g>
     </g>
    </g>
    <g id="ytick_9">
     <g id="line2d_28">
      <g>
       <use xlink:href="#m0400a530a2" x="83.3" y="206.881731" style="stroke: #000000; stroke-width: 0.6"/>
      </g>
     </g>
    </g>
    <g id="ytick_10">
     <g id="line2d_29">
      <g>
       <use xlink:href="#m0400a530a2" x="83.3" y="197.23651" style="stroke: #000000; stroke-width: 0.6"/>
      </g>
     </g>
    </g>
    <g id="ytick_11">
     <g id="line2d_30">
      <g>
       <use xlink:href="#m0400a530a2" x="83.3" y="188.728822" style="stroke: #000000; stroke-width: 0.6"/>
      </g>
     </g>
    </g>
    <g id="ytick_12">
     <g id="line2d_31">
      <g>
       <use xlink:href="#m0400a530a2" x="83.3" y="131.051128" style="stroke: #000000; stroke-width: 0.6"/>
      </g>
     </g>
    </g>
    <g id="ytick_13">
     <g id="line2d_32">
      <g>
       <use xlink:href="#m0400a530a2" x="83.3" y="101.76363" style="stroke: #000000; stroke-width: 0.6"/>
      </g>
     </g>
    </g>
    <g id="ytick_14">
     <g id="line2d_33">
      <g>
       <use xlink:href="#m0400a530a2" x="83.3" y="80.983819" style="stroke: #000000; stroke-width: 0.6"/>
      </g>
     </g>
    </g>
    <g id="ytick_15">
     <g id="line2d_34">
      <g>
       <use xlink:href="#m0400a530a2" x="83.3" y="64.865746" style="stroke: #000000; stroke-width: 0.6"/>
      </g>
     </g>
    </g>
    <g id="ytick_16">
     <g id="line2d_35">
      <g>
       <use xlink:href="#m0400a530a2" x="83.3" y="51.696321" style="stroke: #000000; stroke-width: 0.6"/>
      </g>
     </g>
    </g>
    <g id="ytick_17">
     <g id="line2d_36">
      <g>
       <use xlink:href="#m0400a530a2" x="83.3" y="40.561731" style="stroke: #000000; stroke-width: 0.6"/>
      </g>
     </g>
    </g>
    <g id="ytick_18">
     <g id="line2d_37">
      <g>
       <use xlink:href="#m0400a530a2" x="83.3" y="30.916511" style="stroke: #000000; stroke-width: 0.6"/>
      </g>
     </g>
    </g>
    <g id="ytick_19">
     <g id="line2d_38">
      <g>
       <use xlink:href="#m0400a530a2" x="83.3" y="22.408823" style="stroke: #000000; stroke-width: 0.6"/>
      </g>
     </g>
    </g>
    <g id="text_8">
     <!-- $\beta$ -->
     <g transform="translate(22.6 187.518437) rotate(-90) scale(0.2 -0.2)">
      <defs>
       <path id="DejaVuSans-Oblique-3b2" d="M 872 216 
L 572 -1331 
L -6 -1331 
L 928 3478 
Q 1206 4903 2538 4903 
Q 3888 4903 3659 3700 
Q 3503 2844 2894 2531 
Q 3713 2250 3553 1416 
Q 3272 -69 1759 -66 
Q 1097 -63 872 216 
z
M 1019 966 
Q 1259 422 1875 425 
Q 2775 425 2966 1406 
Q 3138 2288 1675 2219 
L 1778 2750 
Q 2909 2731 3106 3750 
Q 3241 4438 2509 4434 
Q 1691 4434 1503 3459 
L 1019 966 
z
" transform="scale(0.015625)"/>
      </defs>
      <use xlink:href="#DejaVuSans-Oblique-3b2" transform="translate(0 0.390625)"/>
     </g>
    </g>
   </g>
   <g id="patch_3">
    <path d="M 83.3 347.438437 
L 83.3 14.798437 
" style="fill: none; stroke: #000000; stroke-width: 0.8; stroke-linejoin: miter; stroke-linecap: square"/>
   </g>
   <g id="patch_4">
    <path d="M 418.1 347.438437 
L 418.1 14.798437 
" style="fill: none; stroke: #000000; stroke-width: 0.8; stroke-linejoin: miter; stroke-linecap: square"/>
   </g>
   <g id="patch_5">
    <path d="M 83.3 347.438437 
L 418.1 347.438437 
" style="fill: none; stroke: #000000; stroke-width: 0.8; stroke-linejoin: miter; stroke-linecap: square"/>
   </g>
   <g id="patch_6">
    <path d="M 83.3 14.798437 
L 418.1 14.798437 
" style="fill: none; stroke: #000000; stroke-width: 0.8; stroke-linejoin: miter; stroke-linecap: square"/>
   </g>
   <g id="text_9">
    <!-- $p_{EI}$ -->
    <g transform="translate(367.707579 64.865746) scale(0.25 -0.25)">
     <defs>
      <path id="DejaVuSans-Oblique-70" d="M 3175 2156 
Q 3175 2616 2975 2859 
Q 2775 3103 2400 3103 
Q 2144 3103 1911 2972 
Q 1678 2841 1497 2591 
Q 1319 2344 1212 1994 
Q 1106 1644 1106 1300 
Q 1106 863 1306 627 
Q 1506 391 1875 391 
Q 2147 391 2380 519 
Q 2613 647 2778 891 
Q 2956 1147 3065 1494 
Q 3175 1841 3175 2156 
z
M 1394 2969 
Q 1625 3272 1939 3428 
Q 2253 3584 2638 3584 
Q 3175 3584 3472 3232 
Q 3769 2881 3769 2247 
Q 3769 1728 3584 1258 
Q 3400 788 3053 416 
Q 2822 169 2531 39 
Q 2241 -91 1919 -91 
Q 1547 -91 1294 64 
Q 1041 219 916 525 
L 556 -1331 
L -19 -1331 
L 922 3500 
L 1497 3500 
L 1394 2969 
z
" transform="scale(0.015625)"/>
      <path id="DejaVuSans-Oblique-45" d="M 1081 4666 
L 4031 4666 
L 3928 4134 
L 1606 4134 
L 1338 2753 
L 3566 2753 
L 3463 2222 
L 1234 2222 
L 909 531 
L 3284 531 
L 3181 0 
L 172 0 
L 1081 4666 
z
" transform="scale(0.015625)"/>
      <path id="DejaVuSans-Oblique-49" d="M 1081 4666 
L 1716 4666 
L 806 0 
L 172 0 
L 1081 4666 
z
" transform="scale(0.015625)"/>
     </defs>
     <use xlink:href="#DejaVuSans-Oblique-70"/>
     <use xlink:href="#DejaVuSans-Oblique-45" transform="translate(63.476562 -16.40625) scale(0.7)"/>
     <use xlink:href="#DejaVuSans-Oblique-49" transform="translate(107.705078 -16.40625) scale(0.7)"/>
    </g>
   </g>
  </g>
 </g>
 <defs>
  <clipPath id="p64f1c7a7c0">
   <rect x="83.3" y="14.798437" width="334.8" height="332.64"/>
  </clipPath>
 </defs>
</svg>
