<?xml version="1.0" encoding="utf-8" standalone="no"?>
<!DOCTYPE svg PUBLIC "-//W3C//DTD SVG 1.1//EN"
  "http://www.w3.org/Graphics/SVG/1.1/DTD/svg11.dtd">
<svg xmlns:xlink="http://www.w3.org/1999/xlink" width="442.9pt" height="402.850937pt" viewBox="0 0 442.9 402.850937" xmlns="http://www.w3.org/2000/svg" version="1.1">
 <metadata>
  <rdf:RDF xmlns:dc="http://purl.org/dc/elements/1.1/" xmlns:cc="http://creativecommons.org/ns#" xmlns:rdf="http://www.w3.org/1999/02/22-rdf-syntax-ns#">
   <cc:Work>
    <dc:type rdf:resource="http://purl.org/dc/dcmitype/StillImage"/>
    <dc:date>2025-05-12T14:41:55.278979</dc:date>
    <dc:format>image/svg+xml</dc:format>
    <dc:creator>
     <cc:Agent>
      <dc:title>Matplotlib v3.10.1, https://matplotlib.org/</dc:title>
     </cc:Agent>
    </dc:creator>
   </cc:Work>
  </rdf:RDF>
 </metadata>
 <defs>
  <style type="text/css">*{stroke-linejoin: round; stroke-linecap: butt}</style>
 </defs>
 <g id="figure_1">
  <g id="patch_1">
   <path d="M 0 402.850937 
L 442.9 402.850937 
L 442.9 0 
L 0 0 
z
" style="fill: #ffffff"/>
  </g>
  <g id="axes_1">
   <g id="patch_2">
    <path d="M 83.3 347.438437 
L 418.1 347.438437 
L 418.1 14.798437 
L 83.3 14.798437 
z
" style="fill: #ffffff"/>
   </g>
   <g id="QuadContourSet_1">
    <path d="M 88.614287 347.438437 
L 93.92857 347.438437 
L 99.242859 347.438437 
L 104.557144 347.438437 
L 109.871427 347.438437 
L 115.185714 347.438437 
L 120.499997 347.438437 
L 125.814283 347.438437 
L 131.128569 347.438437 
L 136.442855 347.438437 
L 141.757141 347.438437 
L 147.071429 347.438437 
L 152.38573 347.438437 
L 157.699996 347.438437 
L 163.014302 347.438437 
L 168.328567 347.438437 
L 173.642872 347.438437 
L 178.957135 347.438437 
L 184.271443 347.438437 
L 189.585707 347.438437 
L 194.900012 347.438437 
L 200.214279 347.438437 
L 205.528586 347.438437 
L 210.842872 347.438437 
L 216.157154 347.438437 
L 221.471443 347.438437 
L 226.785726 347.438437 
L 232.100013 347.438437 
L 237.414298 347.438437 
L 242.728582 347.438437 
L 248.042868 347.438437 
L 253.357135 347.438437 
L 258.671418 347.438437 
L 263.985704 347.438437 
L 269.299992 347.438437 
L 274.614275 347.438437 
L 279.928558 347.438437 
L 285.242845 347.438437 
L 290.557131 347.438437 
L 295.871424 347.438437 
L 301.185713 347.438437 
L 306.499998 347.438437 
L 311.814284 347.438437 
L 317.128569 347.438437 
L 322.442855 347.438437 
L 327.757141 347.438437 
L 333.071426 347.438437 
L 338.385711 347.438437 
L 343.699997 347.438437 
L 349.014278 347.438437 
L 354.328564 347.438437 
L 359.642855 347.438437 
L 364.957142 347.438437 
L 370.271424 347.438437 
L 375.585714 347.438437 
L 380.899995 347.438437 
L 386.214281 347.438437 
L 391.52857 347.438437 
L 396.842859 347.438437 
L 402.15714 347.438437 
L 407.471429 347.438437 
L 412.785712 347.438437 
L 418.1 347.438437 
L 418.1 342.158436 
L 418.1 336.878439 
L 418.1 331.598435 
L 418.1 326.318437 
L 418.1 321.038439 
L 418.1 315.758438 
L 418.1 310.478441 
L 418.1 305.19844 
L 418.1 299.91844 
L 418.1 294.638439 
L 418.1 289.358439 
L 418.1 284.078437 
L 418.1 278.798422 
L 418.1 273.518441 
L 418.1 268.238422 
L 418.1 262.958442 
L 418.1 257.678423 
L 418.1 252.398445 
L 418.1 247.533296 
L 412.785712 248.102419 
L 407.471429 248.700089 
L 402.15714 249.326759 
L 396.842859 249.982825 
L 391.52857 250.668727 
L 386.214281 251.384876 
L 380.899995 252.131767 
L 379.141837 252.398445 
L 375.585714 252.958954 
L 370.271424 253.84131 
L 364.957142 254.752013 
L 359.642855 255.691055 
L 354.328564 256.658394 
L 349.014278 257.65426 
L 348.895786 257.678423 
L 343.699997 258.769392 
L 338.385711 259.908074 
L 333.071426 261.067577 
L 327.757141 262.247849 
L 324.692279 262.958442 
L 322.442855 263.493257 
L 317.128569 264.815914 
L 311.814284 266.147608 
L 306.499998 267.488416 
L 303.631566 268.238422 
L 301.185713 268.89059 
L 295.871424 270.356177 
L 290.557131 271.815945 
L 285.242845 273.270529 
L 284.381503 273.518441 
L 279.928558 274.817732 
L 274.614275 276.363609 
L 269.299992 277.887578 
L 266.163173 278.798422 
L 263.985704 279.438548 
L 258.671418 281.027804 
L 253.357135 282.577521 
L 248.08351 284.078437 
L 248.042868 284.090141 
L 242.728582 285.674183 
L 237.414298 287.201451 
L 232.100013 288.673914 
L 229.620646 289.358439 
L 226.785726 290.148399 
L 221.471443 291.606102 
L 216.157154 292.994415 
L 210.842872 294.315772 
L 209.537846 294.638439 
L 205.528586 295.639392 
L 200.214279 296.907698 
L 194.900012 298.099163 
L 189.585707 299.216914 
L 186.092024 299.91844 
L 184.271443 300.289019 
L 178.957135 301.333837 
L 173.642872 302.301463 
L 168.328567 303.196032 
L 163.014302 304.021472 
L 157.699996 304.781653 
L 154.595664 305.19844 
L 152.38573 305.501037 
L 147.071429 306.186717 
L 141.757141 306.811816 
L 136.442855 307.380879 
L 131.128569 307.898321 
L 125.814283 308.368339 
L 120.499997 308.794901 
L 115.185714 309.18179 
L 109.871427 309.532547 
L 104.557144 309.850469 
L 99.242859 310.13864 
L 93.92857 310.399893 
L 92.216369 310.478441 
L 88.614287 310.649025 
L 83.3 310.880311 
L 83.3 315.758438 
L 83.3 321.038439 
L 83.3 326.318437 
L 83.3 331.598435 
L 83.3 336.878439 
L 83.3 342.158436 
L 83.3 347.438437 
z
" clip-path="url(#pb269e01ed7)" style="fill: #470e61"/>
    <path d="M 88.614287 310.649025 
L 92.216369 310.478441 
L 93.92857 310.399893 
L 99.242859 310.13864 
L 104.557144 309.850469 
L 109.871427 309.532547 
L 115.185714 309.18179 
L 120.499997 308.794901 
L 125.814283 308.368339 
L 131.128569 307.898321 
L 136.442855 307.380879 
L 141.757141 306.811816 
L 147.071429 306.186717 
L 152.38573 305.501037 
L 154.595664 305.19844 
L 157.699996 304.781653 
L 163.014302 304.021472 
L 168.328567 303.196032 
L 173.642872 302.301463 
L 178.957135 301.333837 
L 184.271443 300.289019 
L 186.092024 299.91844 
L 189.585707 299.216914 
L 194.900012 298.099163 
L 200.214279 296.907698 
L 205.528586 295.639392 
L 209.537846 294.638439 
L 210.842872 294.315772 
L 216.157154 292.994415 
L 221.471443 291.606102 
L 226.785726 290.148399 
L 229.620646 289.358439 
L 232.100013 288.673914 
L 237.414298 287.201451 
L 242.728582 285.674183 
L 248.042868 284.090141 
L 248.08351 284.078437 
L 253.357135 282.577521 
L 258.671418 281.027804 
L 263.985704 279.438548 
L 266.163173 278.798422 
L 269.299992 277.887578 
L 274.614275 276.363609 
L 279.928558 274.817732 
L 284.381503 273.518441 
L 285.242845 273.270529 
L 290.557131 271.815945 
L 295.871424 270.356177 
L 301.185713 268.89059 
L 303.631566 268.238422 
L 306.499998 267.488416 
L 311.814284 266.147608 
L 317.128569 264.815914 
L 322.442855 263.493257 
L 324.692279 262.958442 
L 327.757141 262.247849 
L 333.071426 261.067577 
L 338.385711 259.908074 
L 343.699997 258.769392 
L 348.895786 257.678423 
L 349.014278 257.65426 
L 354.328564 256.658394 
L 359.642855 255.691055 
L 364.957142 254.752013 
L 370.271424 253.84131 
L 375.585714 252.958954 
L 379.141837 252.398445 
L 380.899995 252.131767 
L 386.214281 251.384876 
L 391.52857 250.668727 
L 396.842859 249.982825 
L 402.15714 249.326759 
L 407.471429 248.700089 
L 412.785712 248.102419 
L 418.1 247.533296 
L 418.1 247.118424 
L 418.1 241.838445 
L 418.1 236.558426 
L 418.1 231.278444 
L 418.1 228.811383 
L 412.785712 229.337052 
L 407.471429 229.894742 
L 402.15714 230.485746 
L 396.842859 231.111402 
L 395.541409 231.278444 
L 391.52857 231.780778 
L 386.214281 232.487746 
L 380.899995 233.230404 
L 375.585714 234.009892 
L 370.271424 234.827376 
L 364.957142 235.684084 
L 359.784402 236.558426 
L 359.642855 236.581724 
L 354.328564 237.532249 
L 349.014278 238.52003 
L 343.699997 239.546011 
L 338.385711 240.611242 
L 333.071426 241.716853 
L 332.528839 241.838445 
L 327.757141 242.874443 
L 322.442855 244.067487 
L 317.128569 245.295023 
L 311.814284 246.557882 
L 309.576448 247.118424 
L 306.499998 247.863859 
L 301.185713 249.203131 
L 295.871424 250.568489 
L 290.557131 251.960516 
L 288.964731 252.398445 
L 285.242845 253.386044 
L 279.928558 254.830489 
L 274.614275 256.289114 
L 269.613957 257.678423 
L 269.299992 257.762587 
L 263.985704 259.25269 
L 258.671418 260.742081 
L 253.357135 262.230407 
L 250.810281 262.958442 
L 248.042868 263.719225 
L 242.728582 265.19666 
L 237.414298 266.656351 
L 232.100013 268.097256 
L 231.591159 268.238422 
L 226.785726 269.516834 
L 221.471443 270.902645 
L 216.157154 272.253227 
L 211.048872 273.518441 
L 210.842872 273.567405 
L 205.528586 274.839366 
L 200.214279 276.062357 
L 194.900012 277.235872 
L 189.585707 278.359363 
L 187.463478 278.798422 
L 184.271443 279.430465 
L 178.957135 280.444279 
L 173.642872 281.401393 
L 168.328567 282.302719 
L 163.014302 283.149302 
L 157.699996 283.942356 
L 156.755956 284.078437 
L 152.38573 284.680957 
L 147.071429 285.366221 
L 141.757141 286.000858 
L 136.442855 286.587461 
L 131.128569 287.12866 
L 125.814283 287.627149 
L 120.499997 288.085619 
L 115.185714 288.50675 
L 109.871427 288.893165 
L 104.557144 289.247439 
L 102.787017 289.358439 
L 99.242859 289.571605 
L 93.92857 289.867912 
L 88.614287 290.138838 
L 83.3 290.386559 
L 83.3 294.638439 
L 83.3 299.91844 
L 83.3 305.19844 
L 83.3 310.478441 
L 83.3 310.880311 
z
" clip-path="url(#pb269e01ed7)" style="fill: #482677"/>
    <path d="M 88.614287 290.138838 
L 93.92857 289.867912 
L 99.242859 289.571605 
L 102.787017 289.358439 
L 104.557144 289.247439 
L 109.871427 288.893165 
L 115.185714 288.50675 
L 120.499997 288.085619 
L 125.814283 287.627149 
L 131.128569 287.12866 
L 136.442855 286.587461 
L 141.757141 286.000858 
L 147.071429 285.366221 
L 152.38573 284.680957 
L 156.755956 284.078437 
L 157.699996 283.942356 
L 163.014302 283.149302 
L 168.328567 282.302719 
L 173.642872 281.401393 
L 178.957135 280.444279 
L 184.271443 279.430465 
L 187.463478 278.798422 
L 189.585707 278.359363 
L 194.900012 277.235872 
L 200.214279 276.062357 
L 205.528586 274.839366 
L 210.842872 273.567405 
L 211.048872 273.518441 
L 216.157154 272.253227 
L 221.471443 270.902645 
L 226.785726 269.516834 
L 231.591159 268.238422 
L 232.100013 268.097256 
L 237.414298 266.656351 
L 242.728582 265.19666 
L 248.042868 263.719225 
L 250.810281 262.958442 
L 253.357135 262.230407 
L 258.671418 260.742081 
L 263.985704 259.25269 
L 269.299992 257.762587 
L 269.613957 257.678423 
L 274.614275 256.289114 
L 279.928558 254.830489 
L 285.242845 253.386044 
L 288.964731 252.398445 
L 290.557131 251.960516 
L 295.871424 250.568489 
L 301.185713 249.203131 
L 306.499998 247.863859 
L 309.576448 247.118424 
L 311.814284 246.557882 
L 317.128569 245.295023 
L 322.442855 244.067487 
L 327.757141 242.874443 
L 332.528839 241.838445 
L 333.071426 241.716853 
L 338.385711 240.611242 
L 343.699997 239.546011 
L 349.014278 238.52003 
L 354.328564 237.532249 
L 359.642855 236.581724 
L 359.784402 236.558426 
L 364.957142 235.684084 
L 370.271424 234.827376 
L 375.585714 234.009892 
L 380.899995 233.230404 
L 386.214281 232.487746 
L 391.52857 231.780778 
L 395.541409 231.278444 
L 396.842859 231.111402 
L 402.15714 230.485746 
L 407.471429 229.894742 
L 412.785712 229.337052 
L 418.1 228.811383 
L 418.1 225.998423 
L 418.1 220.718422 
L 418.1 215.438426 
L 418.1 214.887533 
L 412.785712 215.403305 
L 412.457305 215.438426 
L 407.471429 215.940107 
L 402.15714 216.509084 
L 396.842859 217.112456 
L 391.52857 217.751696 
L 386.214281 218.428293 
L 380.899995 219.143849 
L 375.585714 219.900007 
L 370.271424 220.698514 
L 370.150022 220.718422 
L 364.957142 221.519007 
L 359.642855 222.379818 
L 354.328564 223.282839 
L 349.014278 224.229554 
L 343.699997 225.221531 
L 339.760468 225.998423 
L 338.385711 226.253471 
L 333.071426 227.308336 
L 327.757141 228.405664 
L 322.442855 229.546637 
L 317.128569 230.732496 
L 314.816694 231.278444 
L 311.814284 231.944718 
L 306.499998 233.180896 
L 301.185713 234.455642 
L 295.871424 235.769647 
L 292.817059 236.558426 
L 290.557131 237.106614 
L 285.242845 238.452288 
L 279.928558 239.827513 
L 274.614275 241.232119 
L 272.407289 241.838445 
L 269.299992 242.639246 
L 263.985704 244.046296 
L 258.671418 245.469607 
L 253.357135 246.908009 
L 252.606928 247.118424 
L 248.042868 248.316916 
L 242.728582 249.72046 
L 237.414298 251.123351 
L 232.588255 252.398445 
L 232.100013 252.519216 
L 226.785726 253.861985 
L 221.471443 255.188075 
L 216.157154 256.495134 
L 211.278047 257.678423 
L 210.842872 257.777 
L 205.528586 258.989568 
L 200.214279 260.16912 
L 194.900012 261.313671 
L 189.585707 262.421309 
L 186.959359 262.958442 
L 184.271443 263.469958 
L 178.957135 264.455659 
L 173.642872 265.396782 
L 168.328567 266.292875 
L 163.014302 267.143678 
L 157.699996 267.949224 
L 155.723489 268.238422 
L 152.38573 268.691295 
L 147.071429 269.377492 
L 141.757141 270.01997 
L 136.442855 270.620197 
L 131.128569 271.179811 
L 125.814283 271.700564 
L 120.499997 272.184329 
L 115.185714 272.633046 
L 109.871427 273.04869 
L 104.557144 273.433262 
L 103.319528 273.518441 
L 99.242859 273.778074 
L 93.92857 274.093032 
L 88.614287 274.383351 
L 83.3 274.650856 
L 83.3 278.798422 
L 83.3 284.078437 
L 83.3 289.358439 
L 83.3 290.386559 
z
" clip-path="url(#pb269e01ed7)" style="fill: #433d84"/>
    <path d="M 88.614287 274.383351 
L 93.92857 274.093032 
L 99.242859 273.778074 
L 103.319528 273.518441 
L 104.557144 273.433262 
L 109.871427 273.04869 
L 115.185714 272.633046 
L 120.499997 272.184329 
L 125.814283 271.700564 
L 131.128569 271.179811 
L 136.442855 270.620197 
L 141.757141 270.01997 
L 147.071429 269.377492 
L 152.38573 268.691295 
L 155.723489 268.238422 
L 157.699996 267.949224 
L 163.014302 267.143678 
L 168.328567 266.292875 
L 173.642872 265.396782 
L 178.957135 264.455659 
L 184.271443 263.469958 
L 186.959359 262.958442 
L 189.585707 262.421309 
L 194.900012 261.313671 
L 200.214279 260.16912 
L 205.528586 258.989568 
L 210.842872 257.777 
L 211.278047 257.678423 
L 216.157154 256.495134 
L 221.471443 255.188075 
L 226.785726 253.861985 
L 232.100013 252.519216 
L 232.588255 252.398445 
L 237.414298 251.123351 
L 242.728582 249.72046 
L 248.042868 248.316916 
L 252.606928 247.118424 
L 253.357135 246.908009 
L 258.671418 245.469607 
L 263.985704 244.046296 
L 269.299992 242.639246 
L 272.407289 241.838445 
L 274.614275 241.232119 
L 279.928558 239.827513 
L 285.242845 238.452288 
L 290.557131 237.106614 
L 292.817059 236.558426 
L 295.871424 235.769647 
L 301.185713 234.455642 
L 306.499998 233.180896 
L 311.814284 231.944718 
L 314.816694 231.278444 
L 317.128569 230.732496 
L 322.442855 229.546637 
L 327.757141 228.405664 
L 333.071426 227.308336 
L 338.385711 226.253471 
L 339.760468 225.998423 
L 343.699997 225.221531 
L 349.014278 224.229554 
L 354.328564 223.282839 
L 359.642855 222.379818 
L 364.957142 221.519007 
L 370.150022 220.718422 
L 370.271424 220.698514 
L 375.585714 219.900007 
L 380.899995 219.143849 
L 386.214281 218.428293 
L 391.52857 217.751696 
L 396.842859 217.112456 
L 402.15714 216.509084 
L 407.471429 215.940107 
L 412.457305 215.438426 
L 412.785712 215.403305 
L 418.1 214.887533 
L 418.1 210.158424 
L 418.1 204.878426 
L 418.1 202.600646 
L 412.785712 203.096593 
L 407.471429 203.625791 
L 402.15714 204.189917 
L 396.842859 204.790724 
L 396.133803 204.878426 
L 391.52857 205.40179 
L 386.214281 206.044923 
L 380.899995 206.726104 
L 375.585714 207.446996 
L 370.271424 208.209359 
L 364.957142 209.014977 
L 359.642855 209.865797 
L 357.945911 210.158424 
L 354.328564 210.732309 
L 349.014278 211.627117 
L 343.699997 212.566403 
L 338.385711 213.551783 
L 333.071426 214.584927 
L 328.907391 215.438426 
L 327.757141 215.655643 
L 322.442855 216.72726 
L 317.128569 217.843231 
L 311.814284 219.004723 
L 306.499998 220.212903 
L 304.394598 220.718422 
L 301.185713 221.428275 
L 295.871424 222.656876 
L 290.557131 223.925107 
L 285.242845 225.233271 
L 282.259999 225.998423 
L 279.928558 226.549589 
L 274.614275 227.856189 
L 269.299992 229.192262 
L 263.985704 230.557043 
L 261.264979 231.278444 
L 258.671418 231.911816 
L 253.357135 233.244937 
L 248.042868 234.593218 
L 242.728582 235.954743 
L 240.423129 236.558426 
L 237.414298 237.283026 
L 232.100013 238.578715 
L 226.785726 239.872435 
L 221.471443 241.161505 
L 218.69801 241.838445 
L 216.157154 242.407663 
L 210.842872 243.599624 
L 205.528586 244.772686 
L 200.214279 245.924228 
L 194.900012 247.051609 
L 194.585594 247.118424 
L 189.585707 248.089529 
L 184.271443 249.091662 
L 178.957135 250.060276 
L 173.642872 250.993851 
L 168.328567 251.891159 
L 165.233363 252.398445 
L 163.014302 252.729699 
L 157.699996 253.49976 
L 152.38573 254.231323 
L 147.071429 254.924613 
L 141.757141 255.580072 
L 136.442855 256.198377 
L 131.128569 256.780374 
L 125.814283 257.327129 
L 122.212749 257.678423 
L 120.499997 257.829788 
L 115.185714 258.279264 
L 109.871427 258.698532 
L 104.557144 259.089132 
L 99.242859 259.452634 
L 93.92857 259.79058 
L 88.614287 260.104505 
L 83.3 260.39592 
L 83.3 262.958442 
L 83.3 268.238422 
L 83.3 273.518441 
L 83.3 274.650856 
z
" clip-path="url(#pb269e01ed7)" style="fill: #3b528b"/>
    <path d="M 88.614287 260.104505 
L 93.92857 259.79058 
L 99.242859 259.452634 
L 104.557144 259.089132 
L 109.871427 258.698532 
L 115.185714 258.279264 
L 120.499997 257.829788 
L 122.212749 257.678423 
L 125.814283 257.327129 
L 131.128569 256.780374 
L 136.442855 256.198377 
L 141.757141 255.580072 
L 147.071429 254.924613 
L 152.38573 254.231323 
L 157.699996 253.49976 
L 163.014302 252.729699 
L 165.233363 252.398445 
L 168.328567 251.891159 
L 173.642872 250.993851 
L 178.957135 250.060276 
L 184.271443 249.091662 
L 189.585707 248.089529 
L 194.585594 247.118424 
L 194.900012 247.051609 
L 200.214279 245.924228 
L 205.528586 244.772686 
L 210.842872 243.599624 
L 216.157154 242.407663 
L 218.69801 241.838445 
L 221.471443 241.161505 
L 226.785726 239.872435 
L 232.100013 238.578715 
L 237.414298 237.283026 
L 240.423129 236.558426 
L 242.728582 235.954743 
L 248.042868 234.593218 
L 253.357135 233.244937 
L 258.671418 231.911816 
L 261.264979 231.278444 
L 263.985704 230.557043 
L 269.299992 229.192262 
L 274.614275 227.856189 
L 279.928558 226.549589 
L 282.259999 225.998423 
L 285.242845 225.233271 
L 290.557131 223.925107 
L 295.871424 222.656876 
L 301.185713 221.428275 
L 304.394598 220.718422 
L 306.499998 220.212903 
L 311.814284 219.004723 
L 317.128569 217.843231 
L 322.442855 216.72726 
L 327.757141 215.655643 
L 328.907391 215.438426 
L 333.071426 214.584927 
L 338.385711 213.551783 
L 343.699997 212.566403 
L 349.014278 211.627117 
L 354.328564 210.732309 
L 357.945911 210.158424 
L 359.642855 209.865797 
L 364.957142 209.014977 
L 370.271424 208.209359 
L 375.585714 207.446996 
L 380.899995 206.726104 
L 386.214281 206.044923 
L 391.52857 205.40179 
L 396.133803 204.878426 
L 396.842859 204.790724 
L 402.15714 204.189917 
L 407.471429 203.625791 
L 412.785712 203.096593 
L 418.1 202.600646 
L 418.1 199.598424 
L 418.1 194.318425 
L 418.1 189.038427 
L 418.1 183.758427 
L 418.1 178.478445 
L 418.1 173.198448 
L 418.1 167.918447 
L 418.1 162.638446 
L 418.1 157.358448 
L 418.1 152.078451 
L 418.1 146.798449 
L 418.1 141.51845 
L 418.1 136.238442 
L 418.1 130.958438 
L 418.1 125.678439 
L 418.1 120.398439 
L 418.1 115.11844 
L 418.1 109.83844 
L 418.1 109.063349 
L 412.785712 109.472157 
L 408.321813 109.83844 
L 407.471429 110.102892 
L 402.15714 112.38025 
L 396.842859 112.360143 
L 391.52857 112.156704 
L 386.214281 113.267481 
L 380.899995 112.978518 
L 375.585714 114.592395 
L 370.271424 113.42661 
L 364.957142 114.034279 
L 359.642855 114.668722 
L 356.06621 115.11844 
L 354.328564 115.897264 
L 349.014278 117.529856 
L 343.699997 118.438446 
L 338.385711 119.327642 
L 333.071426 119.774735 
L 327.757141 118.763067 
L 322.442855 119.520236 
L 317.128569 120.300104 
L 316.491332 120.398439 
L 311.814284 122.829071 
L 306.499998 125.013101 
L 301.185713 123.399595 
L 295.871424 123.911515 
L 290.557131 124.178523 
L 285.242845 124.991212 
L 280.81916 125.678439 
L 279.928558 127.174863 
L 274.614275 130.092841 
L 269.299992 128.188728 
L 263.985704 128.711245 
L 258.671418 129.109975 
L 253.357135 129.669222 
L 248.042868 130.437719 
L 244.448025 130.958438 
L 242.728582 132.021554 
L 237.414298 133.348824 
L 232.100013 133.639334 
L 226.785726 135.812855 
L 221.471443 134.899238 
L 216.157154 134.573332 
L 210.842872 135.210537 
L 205.528586 135.831525 
L 201.98251 136.238442 
L 200.214279 138.10896 
L 194.900012 137.900232 
L 189.585707 139.281058 
L 184.271443 140.468971 
L 178.957135 141.2484 
L 173.642872 139.306231 
L 168.328567 139.679242 
L 163.014302 139.830789 
L 157.699996 140.24197 
L 152.38573 140.634372 
L 147.071429 141.008281 
L 141.757141 141.364027 
L 139.372028 141.51845 
L 136.442855 142.017769 
L 131.128569 145.126961 
L 125.814283 144.06623 
L 120.499997 143.617577 
L 115.185714 145.69826 
L 109.871427 144.347377 
L 104.557144 146.335062 
L 99.242859 144.651965 
L 93.92857 145.988551 
L 88.614287 144.613056 
L 83.3 145.502829 
L 83.3 146.798449 
L 83.3 152.078451 
L 83.3 157.358448 
L 83.3 162.638446 
L 83.3 167.918447 
L 83.3 173.198448 
L 83.3 178.478445 
L 83.3 183.758427 
L 83.3 189.038427 
L 83.3 194.318425 
L 83.3 199.598424 
L 83.3 204.878426 
L 83.3 210.158424 
L 83.3 215.438426 
L 83.3 220.718422 
L 83.3 225.998423 
L 83.3 231.278444 
L 83.3 236.558426 
L 83.3 241.838445 
L 83.3 247.118424 
L 83.3 252.398445 
L 83.3 257.678423 
L 83.3 260.39592 
z
" clip-path="url(#pb269e01ed7)" style="fill: #32658e"/>
    <path d="M 88.614287 144.613056 
L 93.92857 145.988551 
L 99.242859 144.651965 
L 104.557144 146.335062 
L 109.871427 144.347377 
L 115.185714 145.69826 
L 120.499997 143.617577 
L 125.814283 144.06623 
L 131.128569 145.126961 
L 136.442855 142.017769 
L 139.372028 141.51845 
L 141.757141 141.364027 
L 147.071429 141.008281 
L 152.38573 140.634372 
L 157.699996 140.24197 
L 163.014302 139.830789 
L 168.328567 139.679242 
L 173.642872 139.306231 
L 178.957135 141.2484 
L 184.271443 140.468971 
L 189.585707 139.281058 
L 194.900012 137.900232 
L 200.214279 138.10896 
L 201.98251 136.238442 
L 205.528586 135.831525 
L 210.842872 135.210537 
L 216.157154 134.573332 
L 221.471443 134.899238 
L 226.785726 135.812855 
L 232.100013 133.639334 
L 237.414298 133.348824 
L 242.728582 132.021554 
L 244.448025 130.958438 
L 248.042868 130.437719 
L 253.357135 129.669222 
L 258.671418 129.109975 
L 263.985704 128.711245 
L 269.299992 128.188728 
L 274.614275 130.092841 
L 279.928558 127.174863 
L 280.81916 125.678439 
L 285.242845 124.991212 
L 290.557131 124.178523 
L 295.871424 123.911515 
L 301.185713 123.399595 
L 306.499998 125.013101 
L 311.814284 122.829071 
L 316.491332 120.398439 
L 317.128569 120.300104 
L 322.442855 119.520236 
L 327.757141 118.763067 
L 333.071426 119.774735 
L 338.385711 119.327642 
L 343.699997 118.438446 
L 349.014278 117.529856 
L 354.328564 115.897264 
L 356.06621 115.11844 
L 359.642855 114.668722 
L 364.957142 114.034279 
L 370.271424 113.42661 
L 375.585714 114.592395 
L 380.899995 112.978518 
L 386.214281 113.267481 
L 391.52857 112.156704 
L 396.842859 112.360143 
L 402.15714 112.38025 
L 407.471429 110.102892 
L 408.321813 109.83844 
L 412.785712 109.472157 
L 418.1 109.063349 
L 418.1 104.558439 
L 418.1 99.27844 
L 418.1 96.362648 
L 412.785712 96.749265 
L 407.471429 97.158744 
L 402.15714 97.591798 
L 396.842859 98.049264 
L 391.52857 98.53228 
L 386.214281 99.040424 
L 383.88607 99.27844 
L 380.899995 99.550678 
L 375.585714 100.065717 
L 370.271424 100.60418 
L 364.957142 101.166992 
L 359.642855 101.75404 
L 354.328564 102.36533 
L 349.014278 103.001269 
L 343.699997 103.661409 
L 338.385711 104.345175 
L 336.814328 104.558439 
L 333.071426 105.012402 
L 327.757141 105.68191 
L 322.442855 106.370651 
L 317.128569 107.077795 
L 311.814284 107.802462 
L 306.499998 108.543681 
L 301.185713 109.300328 
L 297.502608 109.83844 
L 295.871424 110.051634 
L 290.557131 110.769461 
L 285.242845 111.495723 
L 279.928558 112.229236 
L 274.614275 112.968383 
L 269.299992 113.711559 
L 263.985704 114.457081 
L 259.289209 115.11844 
L 258.671418 115.196222 
L 253.357135 115.878511 
L 248.042868 116.556658 
L 242.728582 117.229203 
L 237.414298 117.894642 
L 232.100013 118.551529 
L 226.785726 119.198495 
L 221.471443 119.834234 
L 216.673351 120.398439 
L 216.157154 120.452571 
L 210.842872 121.010541 
L 205.528586 121.554141 
L 200.214279 122.08261 
L 194.900012 122.5953 
L 189.585707 123.091664 
L 184.271443 123.571273 
L 178.957135 124.033779 
L 173.642872 124.478952 
L 168.328567 124.906659 
L 163.014302 125.316868 
L 158.133757 125.678439 
L 157.699996 125.706959 
L 152.38573 126.050228 
L 147.071429 126.377452 
L 141.757141 126.688908 
L 136.442855 126.984942 
L 131.128569 127.265923 
L 125.814283 127.532289 
L 120.499997 127.784501 
L 115.185714 128.023026 
L 109.871427 128.248352 
L 104.557144 128.460998 
L 99.242859 128.661478 
L 93.92857 128.850314 
L 88.614287 129.028034 
L 83.3 129.195146 
L 83.3 130.958438 
L 83.3 136.238442 
L 83.3 141.51845 
L 83.3 145.502829 
z
" clip-path="url(#pb269e01ed7)" style="fill: #2a768e"/>
    <path d="M 88.614287 129.028034 
L 93.92857 128.850314 
L 99.242859 128.661478 
L 104.557144 128.460998 
L 109.871427 128.248352 
L 115.185714 128.023026 
L 120.499997 127.784501 
L 125.814283 127.532289 
L 131.128569 127.265923 
L 136.442855 126.984942 
L 141.757141 126.688908 
L 147.071429 126.377452 
L 152.38573 126.050228 
L 157.699996 125.706959 
L 158.133757 125.678439 
L 163.014302 125.316868 
L 168.328567 124.906659 
L 173.642872 124.478952 
L 178.957135 124.033779 
L 184.271443 123.571273 
L 189.585707 123.091664 
L 194.900012 122.5953 
L 200.214279 122.08261 
L 205.528586 121.554141 
L 210.842872 121.010541 
L 216.157154 120.452571 
L 216.673351 120.398439 
L 221.471443 119.834234 
L 226.785726 119.198495 
L 232.100013 118.551529 
L 237.414298 117.894642 
L 242.728582 117.229203 
L 248.042868 116.556658 
L 253.357135 115.878511 
L 258.671418 115.196222 
L 259.289209 115.11844 
L 263.985704 114.457081 
L 269.299992 113.711559 
L 274.614275 112.968383 
L 279.928558 112.229236 
L 285.242845 111.495723 
L 290.557131 110.769461 
L 295.871424 110.051634 
L 297.502608 109.83844 
L 301.185713 109.300328 
L 306.499998 108.543681 
L 311.814284 107.802462 
L 317.128569 107.077795 
L 322.442855 106.370651 
L 327.757141 105.68191 
L 333.071426 105.012402 
L 336.814328 104.558439 
L 338.385711 104.345175 
L 343.699997 103.661409 
L 349.014278 103.001269 
L 354.328564 102.36533 
L 359.642855 101.75404 
L 364.957142 101.166992 
L 370.271424 100.60418 
L 375.585714 100.065717 
L 380.899995 99.550678 
L 383.88607 99.27844 
L 386.214281 99.040424 
L 391.52857 98.53228 
L 396.842859 98.049264 
L 402.15714 97.591798 
L 407.471429 97.158744 
L 412.785712 96.749265 
L 418.1 96.362648 
L 418.1 93.998441 
L 418.1 88.718441 
L 418.1 83.438445 
L 418.1 83.412167 
L 417.755316 83.438445 
L 412.785712 83.771684 
L 407.471429 84.149484 
L 402.15714 84.548426 
L 396.842859 84.969058 
L 391.52857 85.411865 
L 386.214281 85.87721 
L 380.899995 86.365547 
L 375.585714 86.877167 
L 370.271424 87.412269 
L 364.957142 87.971207 
L 359.642855 88.553985 
L 358.23003 88.718441 
L 354.328564 89.119276 
L 349.014278 89.689784 
L 343.699997 90.280661 
L 338.385711 90.891531 
L 333.071426 91.521957 
L 327.757141 92.171363 
L 322.442855 92.839111 
L 317.128569 93.524407 
L 313.568341 93.998441 
L 311.814284 94.205041 
L 306.499998 94.854603 
L 301.185713 95.5159 
L 295.871424 96.187863 
L 290.557131 96.869182 
L 285.242845 97.5585 
L 279.928558 98.254393 
L 274.614275 98.955363 
L 272.208201 99.27844 
L 269.299992 99.624017 
L 263.985704 100.263138 
L 258.671418 100.901332 
L 253.357135 101.537152 
L 248.042868 102.169151 
L 242.728582 102.795893 
L 237.414298 103.415994 
L 232.100013 104.028079 
L 227.438785 104.558439 
L 226.785726 104.624099 
L 221.471443 105.160485 
L 216.157154 105.68554 
L 210.842872 106.198388 
L 205.528586 106.698233 
L 200.214279 107.184376 
L 194.900012 107.656191 
L 189.585707 108.113189 
L 184.271443 108.554928 
L 178.957135 108.981123 
L 173.642872 109.391508 
L 168.328567 109.785973 
L 167.61029 109.83844 
L 163.014302 110.133727 
L 157.699996 110.461787 
L 152.38573 110.775219 
L 147.071429 111.074214 
L 141.757141 111.359019 
L 136.442855 111.629907 
L 131.128569 111.887219 
L 125.814283 112.131332 
L 120.499997 112.36262 
L 115.185714 112.581503 
L 109.871427 112.788422 
L 104.557144 112.983824 
L 99.242859 113.168155 
L 93.92857 113.341891 
L 88.614287 113.505483 
L 83.3 113.659413 
L 83.3 115.11844 
L 83.3 120.398439 
L 83.3 125.678439 
L 83.3 129.195146 
z
" clip-path="url(#pb269e01ed7)" style="fill: #24878e"/>
    <path d="M 88.614287 113.505483 
L 93.92857 113.341891 
L 99.242859 113.168155 
L 104.557144 112.983824 
L 109.871427 112.788422 
L 115.185714 112.581503 
L 120.499997 112.36262 
L 125.814283 112.131332 
L 131.128569 111.887219 
L 136.442855 111.629907 
L 141.757141 111.359019 
L 147.071429 111.074214 
L 152.38573 110.775219 
L 157.699996 110.461787 
L 163.014302 110.133727 
L 167.61029 109.83844 
L 168.328567 109.785973 
L 173.642872 109.391508 
L 178.957135 108.981123 
L 184.271443 108.554928 
L 189.585707 108.113189 
L 194.900012 107.656191 
L 200.214279 107.184376 
L 205.528586 106.698233 
L 210.842872 106.198388 
L 216.157154 105.68554 
L 221.471443 105.160485 
L 226.785726 104.624099 
L 227.438785 104.558439 
L 232.100013 104.028079 
L 237.414298 103.415994 
L 242.728582 102.795893 
L 248.042868 102.169151 
L 253.357135 101.537152 
L 258.671418 100.901332 
L 263.985704 100.263138 
L 269.299992 99.624017 
L 272.208201 99.27844 
L 274.614275 98.955363 
L 279.928558 98.254393 
L 285.242845 97.5585 
L 290.557131 96.869182 
L 295.871424 96.187863 
L 301.185713 95.5159 
L 306.499998 94.854603 
L 311.814284 94.205041 
L 313.568341 93.998441 
L 317.128569 93.524407 
L 322.442855 92.839111 
L 327.757141 92.171363 
L 333.071426 91.521957 
L 338.385711 90.891531 
L 343.699997 90.280661 
L 349.014278 89.689784 
L 354.328564 89.119276 
L 358.23003 88.718441 
L 359.642855 88.553985 
L 364.957142 87.971207 
L 370.271424 87.412269 
L 375.585714 86.877167 
L 380.899995 86.365547 
L 386.214281 85.87721 
L 391.52857 85.411865 
L 396.842859 84.969058 
L 402.15714 84.548426 
L 407.471429 84.149484 
L 412.785712 83.771684 
L 417.755316 83.438445 
L 418.1 83.412167 
L 418.1 78.158445 
L 418.1 72.878439 
L 418.1 69.524914 
L 412.785712 69.877974 
L 407.471429 70.250959 
L 402.15714 70.644314 
L 396.842859 71.058471 
L 391.52857 71.493742 
L 386.214281 71.950494 
L 380.899995 72.428955 
L 376.139739 72.878439 
L 375.585714 72.924104 
L 370.271424 73.392583 
L 364.957142 73.880203 
L 359.642855 74.386888 
L 354.328564 74.912442 
L 349.014278 75.456663 
L 343.699997 76.019183 
L 338.385711 76.599559 
L 333.071426 77.197237 
L 327.757141 77.811583 
L 324.864003 78.158445 
L 322.442855 78.412706 
L 317.128569 78.991026 
L 311.814284 79.581071 
L 306.499998 80.181821 
L 301.185713 80.792199 
L 295.871424 81.411044 
L 290.557131 82.037089 
L 285.242845 82.669055 
L 279.928558 83.305529 
L 278.844206 83.438445 
L 274.614275 83.893258 
L 269.299992 84.46816 
L 263.985704 85.042484 
L 258.671418 85.614898 
L 253.357135 86.184117 
L 248.042868 86.748824 
L 242.728582 87.307768 
L 237.414298 87.859756 
L 232.100013 88.403577 
L 229.002342 88.718441 
L 226.785726 88.915913 
L 221.471443 89.386811 
L 216.157154 89.847184 
L 210.842872 90.296316 
L 205.528586 90.73353 
L 200.214279 91.15829 
L 194.900012 91.57006 
L 189.585707 91.968487 
L 184.271443 92.353239 
L 178.957135 92.724079 
L 173.642872 93.080868 
L 168.328567 93.423478 
L 163.014302 93.751986 
L 158.875349 93.998441 
L 157.699996 94.059542 
L 152.38573 94.32971 
L 147.071429 94.587336 
L 141.757141 94.832657 
L 136.442855 95.065938 
L 131.128569 95.287448 
L 125.814283 95.497561 
L 120.499997 95.696585 
L 115.185714 95.884917 
L 109.871427 96.062902 
L 104.557144 96.230986 
L 99.242859 96.389503 
L 93.92857 96.538899 
L 88.614287 96.679574 
L 83.3 96.811907 
L 83.3 99.27844 
L 83.3 104.558439 
L 83.3 109.83844 
L 83.3 113.659413 
z
" clip-path="url(#pb269e01ed7)" style="fill: #1f998a"/>
    <path d="M 88.614287 96.679574 
L 93.92857 96.538899 
L 99.242859 96.389503 
L 104.557144 96.230986 
L 109.871427 96.062902 
L 115.185714 95.884917 
L 120.499997 95.696585 
L 125.814283 95.497561 
L 131.128569 95.287448 
L 136.442855 95.065938 
L 141.757141 94.832657 
L 147.071429 94.587336 
L 152.38573 94.32971 
L 157.699996 94.059542 
L 158.875349 93.998441 
L 163.014302 93.751986 
L 168.328567 93.423478 
L 173.642872 93.080868 
L 178.957135 92.724079 
L 184.271443 92.353239 
L 189.585707 91.968487 
L 194.900012 91.57006 
L 200.214279 91.15829 
L 205.528586 90.73353 
L 210.842872 90.296316 
L 216.157154 89.847184 
L 221.471443 89.386811 
L 226.785726 88.915913 
L 229.002342 88.718441 
L 232.100013 88.403577 
L 237.414298 87.859756 
L 242.728582 87.307768 
L 248.042868 86.748824 
L 253.357135 86.184117 
L 258.671418 85.614898 
L 263.985704 85.042484 
L 269.299992 84.46816 
L 274.614275 83.893258 
L 278.844206 83.438445 
L 279.928558 83.305529 
L 285.242845 82.669055 
L 290.557131 82.037089 
L 295.871424 81.411044 
L 301.185713 80.792199 
L 306.499998 80.181821 
L 311.814284 79.581071 
L 317.128569 78.991026 
L 322.442855 78.412706 
L 324.864003 78.158445 
L 327.757141 77.811583 
L 333.071426 77.197237 
L 338.385711 76.599559 
L 343.699997 76.019183 
L 349.014278 75.456663 
L 354.328564 74.912442 
L 359.642855 74.386888 
L 364.957142 73.880203 
L 370.271424 73.392583 
L 375.585714 72.924104 
L 376.139739 72.878439 
L 380.899995 72.428955 
L 386.214281 71.950494 
L 391.52857 71.493742 
L 396.842859 71.058471 
L 402.15714 70.644314 
L 407.471429 70.250959 
L 412.785712 69.877974 
L 418.1 69.524914 
L 418.1 67.598438 
L 418.1 62.318442 
L 418.1 57.038437 
L 418.1 54.293628 
L 412.785712 54.630186 
L 407.471429 54.984799 
L 402.15714 55.357737 
L 396.842859 55.749214 
L 391.52857 56.159409 
L 386.214281 56.588466 
L 380.899995 57.036428 
L 380.877725 57.038437 
L 375.585714 57.451717 
L 370.271424 57.88306 
L 364.957142 58.330528 
L 359.642855 58.79385 
L 354.328564 59.272691 
L 349.014278 59.766655 
L 343.699997 60.275257 
L 338.385711 60.797875 
L 333.071426 61.33388 
L 327.757141 61.88249 
L 323.644864 62.318442 
L 322.442855 62.429174 
L 317.128569 62.937319 
L 311.814284 63.453671 
L 306.499998 63.97721 
L 301.185713 64.506917 
L 295.871424 65.041698 
L 290.557131 65.580372 
L 285.242845 66.12178 
L 279.928558 66.664691 
L 274.614275 67.207854 
L 270.811489 67.598438 
L 269.299992 67.733625 
L 263.985704 68.214915 
L 258.671418 68.692769 
L 253.357135 69.166132 
L 248.042868 69.633989 
L 242.728582 70.095365 
L 237.414298 70.549309 
L 232.100013 70.994954 
L 226.785726 71.431464 
L 221.471443 71.85813 
L 216.157154 72.274271 
L 210.842872 72.679265 
L 208.187896 72.878439 
L 205.528586 73.052018 
L 200.214279 73.392745 
L 194.900012 73.722237 
L 189.585707 74.04023 
L 184.271443 74.346595 
L 178.957135 74.641212 
L 173.642872 74.924003 
L 168.328567 75.195043 
L 163.014302 75.454374 
L 157.699996 75.702115 
L 152.38573 75.938425 
L 147.071429 76.163502 
L 141.757141 76.377589 
L 136.442855 76.580932 
L 131.128569 76.773843 
L 125.814283 76.956629 
L 120.499997 77.129648 
L 115.185714 77.293194 
L 109.871427 77.447657 
L 104.557144 77.593394 
L 99.242859 77.730744 
L 93.92857 77.86014 
L 88.614287 77.981865 
L 83.3 78.09632 
L 83.3 78.158445 
L 83.3 83.438445 
L 83.3 88.718441 
L 83.3 93.998441 
L 83.3 96.811907 
z
" clip-path="url(#pb269e01ed7)" style="fill: #24aa83"/>
    <path d="M 88.614287 77.981865 
L 93.92857 77.86014 
L 99.242859 77.730744 
L 104.557144 77.593394 
L 109.871427 77.447657 
L 115.185714 77.293194 
L 120.499997 77.129648 
L 125.814283 76.956629 
L 131.128569 76.773843 
L 136.442855 76.580932 
L 141.757141 76.377589 
L 147.071429 76.163502 
L 152.38573 75.938425 
L 157.699996 75.702115 
L 163.014302 75.454374 
L 168.328567 75.195043 
L 173.642872 74.924003 
L 178.957135 74.641212 
L 184.271443 74.346595 
L 189.585707 74.04023 
L 194.900012 73.722237 
L 200.214279 73.392745 
L 205.528586 73.052018 
L 208.187896 72.878439 
L 210.842872 72.679265 
L 216.157154 72.274271 
L 221.471443 71.85813 
L 226.785726 71.431464 
L 232.100013 70.994954 
L 237.414298 70.549309 
L 242.728582 70.095365 
L 248.042868 69.633989 
L 253.357135 69.166132 
L 258.671418 68.692769 
L 263.985704 68.214915 
L 269.299992 67.733625 
L 270.811489 67.598438 
L 274.614275 67.207854 
L 279.928558 66.664691 
L 285.242845 66.12178 
L 290.557131 65.580372 
L 295.871424 65.041698 
L 301.185713 64.506917 
L 306.499998 63.97721 
L 311.814284 63.453671 
L 317.128569 62.937319 
L 322.442855 62.429174 
L 323.644864 62.318442 
L 327.757141 61.88249 
L 333.071426 61.33388 
L 338.385711 60.797875 
L 343.699997 60.275257 
L 349.014278 59.766655 
L 354.328564 59.272691 
L 359.642855 58.79385 
L 364.957142 58.330528 
L 370.271424 57.88306 
L 375.585714 57.451717 
L 380.877725 57.038437 
L 380.899995 57.036428 
L 386.214281 56.588466 
L 391.52857 56.159409 
L 396.842859 55.749214 
L 402.15714 55.357737 
L 407.471429 54.984799 
L 412.785712 54.630186 
L 418.1 54.293628 
L 418.1 51.758443 
L 418.1 46.478442 
L 418.1 41.198439 
L 418.1 35.918436 
L 418.1 30.638441 
L 418.1 25.358437 
L 418.1 20.07844 
L 418.1 14.798437 
L 412.785712 14.798437 
L 407.471429 14.798437 
L 402.15714 14.798437 
L 396.842859 14.798437 
L 391.52857 14.798437 
L 386.214281 14.798437 
L 380.899995 14.798437 
L 375.585714 14.798437 
L 370.271424 14.798437 
L 364.957142 14.798437 
L 359.642855 14.798437 
L 354.328564 14.798437 
L 349.014278 14.798437 
L 343.699997 14.798437 
L 338.385711 14.798437 
L 333.071426 14.798437 
L 327.757141 14.798437 
L 322.442855 14.798437 
L 317.128569 14.798437 
L 311.814284 14.798437 
L 306.499998 14.798437 
L 301.185713 14.798437 
L 295.871424 14.798437 
L 290.557131 14.798437 
L 285.242845 14.798437 
L 279.928558 14.798437 
L 274.614275 14.798437 
L 269.299992 14.798437 
L 263.985704 14.798437 
L 258.671418 14.798437 
L 253.357135 14.798437 
L 248.042868 14.798437 
L 242.728582 14.798437 
L 237.414298 14.798437 
L 232.100013 14.798437 
L 226.785726 14.798437 
L 221.471443 14.798437 
L 216.157154 14.798437 
L 210.842872 14.798437 
L 205.528586 14.798437 
L 200.214279 14.798437 
L 194.900012 14.798437 
L 189.585707 14.798437 
L 184.271443 14.798437 
L 178.957135 14.798437 
L 173.642872 14.798437 
L 168.328567 14.798437 
L 163.014302 14.798437 
L 157.699996 14.798437 
L 152.38573 14.798437 
L 147.071429 14.798437 
L 141.757141 14.798437 
L 136.442855 14.798437 
L 131.128569 14.798437 
L 125.814283 14.798437 
L 120.499997 14.798437 
L 115.185714 14.798437 
L 109.871427 14.798437 
L 104.557144 14.798437 
L 99.242859 14.798437 
L 93.92857 14.798437 
L 88.614287 14.798437 
L 83.3 14.798437 
L 83.3 20.07844 
L 83.3 25.358437 
L 83.3 30.638441 
L 83.3 35.918436 
L 83.3 41.198439 
L 83.3 46.478442 
L 83.3 51.758443 
L 83.3 57.038437 
L 83.3 62.318442 
L 83.3 67.598438 
L 83.3 72.878439 
L 83.3 78.09632 
z
" clip-path="url(#pb269e01ed7)" style="fill: #3aba76"/>
    <path clip-path="url(#pb269e01ed7)" style="fill: #5ec962"/>
    <path clip-path="url(#pb269e01ed7)" style="fill: #89d548"/>
    <path clip-path="url(#pb269e01ed7)" style="fill: #b8de29"/>
    <path clip-path="url(#pb269e01ed7)" style="fill: #e7e419"/>
   </g>
   <g id="matplotlib.axis_1">
    <g id="xtick_1">
     <g id="line2d_1">
      <defs>
       <path id="m631a66d923" d="M 0 0 
L 0 2 
" style="stroke: #000000; stroke-width: 1.5"/>
      </defs>
      <g>
       <use xlink:href="#m631a66d923" x="83.300002" y="347.438437" style="stroke: #000000; stroke-width: 1.5"/>
      </g>
     </g>
     <g id="text_1">
      <!-- $\mathdefault{10^{-2}}$ -->
      <g transform="translate(59.800002 368.135312) scale(0.2 -0.2)">
       <defs>
        <path id="DejaVuSans-31" d="M 794 531 
L 1825 531 
L 1825 4091 
L 703 3866 
L 703 4441 
L 1819 4666 
L 2450 4666 
L 2450 531 
L 3481 531 
L 3481 0 
L 794 0 
L 794 531 
z
" transform="scale(0.015625)"/>
        <path id="DejaVuSans-30" d="M 2034 4250 
Q 1547 4250 1301 3770 
Q 1056 3291 1056 2328 
Q 1056 1369 1301 889 
Q 1547 409 2034 409 
Q 2525 409 2770 889 
Q 3016 1369 3016 2328 
Q 3016 3291 2770 3770 
Q 2525 4250 2034 4250 
z
M 2034 4750 
Q 2819 4750 3233 4129 
Q 3647 3509 3647 2328 
Q 3647 1150 3233 529 
Q 2819 -91 2034 -91 
Q 1250 -91 836 529 
Q 422 1150 422 2328 
Q 422 3509 836 4129 
Q 1250 4750 2034 4750 
z
" transform="scale(0.015625)"/>
        <path id="DejaVuSans-2212" d="M 678 2272 
L 4684 2272 
L 4684 1741 
L 678 1741 
L 678 2272 
z
" transform="scale(0.015625)"/>
        <path id="DejaVuSans-32" d="M 1228 531 
L 3431 531 
L 3431 0 
L 469 0 
L 469 531 
Q 828 903 1448 1529 
Q 2069 2156 2228 2338 
Q 2531 2678 2651 2914 
Q 2772 3150 2772 3378 
Q 2772 3750 2511 3984 
Q 2250 4219 1831 4219 
Q 1534 4219 1204 4116 
Q 875 4013 500 3803 
L 500 4441 
Q 881 4594 1212 4672 
Q 1544 4750 1819 4750 
Q 2544 4750 2975 4387 
Q 3406 4025 3406 3419 
Q 3406 3131 3298 2873 
Q 3191 2616 2906 2266 
Q 2828 2175 2409 1742 
Q 1991 1309 1228 531 
z
" transform="scale(0.015625)"/>
       </defs>
       <use xlink:href="#DejaVuSans-31" transform="translate(0 0.765625)"/>
       <use xlink:href="#DejaVuSans-30" transform="translate(63.623047 0.765625)"/>
       <use xlink:href="#DejaVuSans-2212" transform="translate(128.203125 39.046875) scale(0.7)"/>
       <use xlink:href="#DejaVuSans-32" transform="translate(186.855469 39.046875) scale(0.7)"/>
      </g>
     </g>
    </g>
    <g id="xtick_2">
     <g id="line2d_2">
      <g>
       <use xlink:href="#m631a66d923" x="250.700001" y="347.438437" style="stroke: #000000; stroke-width: 1.5"/>
      </g>
     </g>
     <g id="text_2">
      <!-- $\mathdefault{10^{-1}}$ -->
      <g transform="translate(227.200001 368.135312) scale(0.2 -0.2)">
       <use xlink:href="#DejaVuSans-31" transform="translate(0 0.684375)"/>
       <use xlink:href="#DejaVuSans-30" transform="translate(63.623047 0.684375)"/>
       <use xlink:href="#DejaVuSans-2212" transform="translate(128.203125 38.965625) scale(0.7)"/>
       <use xlink:href="#DejaVuSans-31" transform="translate(186.855469 38.965625) scale(0.7)"/>
      </g>
     </g>
    </g>
    <g id="xtick_3">
     <g id="line2d_3">
      <g>
       <use xlink:href="#m631a66d923" x="418.1" y="347.438437" style="stroke: #000000; stroke-width: 1.5"/>
      </g>
     </g>
     <g id="text_3">
      <!-- $\mathdefault{10^{0}}$ -->
      <g transform="translate(400.5 368.135312) scale(0.2 -0.2)">
       <use xlink:href="#DejaVuSans-31" transform="translate(0 0.765625)"/>
       <use xlink:href="#DejaVuSans-30" transform="translate(63.623047 0.765625)"/>
       <use xlink:href="#DejaVuSans-30" transform="translate(128.203125 39.046875) scale(0.7)"/>
      </g>
     </g>
    </g>
    <g id="xtick_4">
     <g id="line2d_4">
      <defs>
       <path id="m9bb9417b74" d="M 0 0 
L 0 2 
" style="stroke: #000000; stroke-width: 0.6"/>
      </defs>
      <g>
       <use xlink:href="#m9bb9417b74" x="133.692423" y="347.438437" style="stroke: #000000; stroke-width: 0.6"/>
      </g>
     </g>
    </g>
    <g id="xtick_5">
     <g id="line2d_5">
      <g>
       <use xlink:href="#m9bb9417b74" x="163.170099" y="347.438437" style="stroke: #000000; stroke-width: 0.6"/>
      </g>
     </g>
    </g>
    <g id="xtick_6">
     <g id="line2d_6">
      <g>
       <use xlink:href="#m9bb9417b74" x="184.084844" y="347.438437" style="stroke: #000000; stroke-width: 0.6"/>
      </g>
     </g>
    </g>
    <g id="xtick_7">
     <g id="line2d_7">
      <g>
       <use xlink:href="#m9bb9417b74" x="200.30758" y="347.438437" style="stroke: #000000; stroke-width: 0.6"/>
      </g>
     </g>
    </g>
    <g id="xtick_8">
     <g id="line2d_8">
      <g>
       <use xlink:href="#m9bb9417b74" x="213.56252" y="347.438437" style="stroke: #000000; stroke-width: 0.6"/>
      </g>
     </g>
    </g>
    <g id="xtick_9">
     <g id="line2d_9">
      <g>
       <use xlink:href="#m9bb9417b74" x="224.769413" y="347.438437" style="stroke: #000000; stroke-width: 0.6"/>
      </g>
     </g>
    </g>
    <g id="xtick_10">
     <g id="line2d_10">
      <g>
       <use xlink:href="#m9bb9417b74" x="234.477265" y="347.438437" style="stroke: #000000; stroke-width: 0.6"/>
      </g>
     </g>
    </g>
    <g id="xtick_11">
     <g id="line2d_11">
      <g>
       <use xlink:href="#m9bb9417b74" x="243.040197" y="347.438437" style="stroke: #000000; stroke-width: 0.6"/>
      </g>
     </g>
    </g>
    <g id="xtick_12">
     <g id="line2d_12">
      <g>
       <use xlink:href="#m9bb9417b74" x="301.092422" y="347.438437" style="stroke: #000000; stroke-width: 0.6"/>
      </g>
     </g>
    </g>
    <g id="xtick_13">
     <g id="line2d_13">
      <g>
       <use xlink:href="#m9bb9417b74" x="330.570098" y="347.438437" style="stroke: #000000; stroke-width: 0.6"/>
      </g>
     </g>
    </g>
    <g id="xtick_14">
     <g id="line2d_14">
      <g>
       <use xlink:href="#m9bb9417b74" x="351.484843" y="347.438437" style="stroke: #000000; stroke-width: 0.6"/>
      </g>
     </g>
    </g>
    <g id="xtick_15">
     <g id="line2d_15">
      <g>
       <use xlink:href="#m9bb9417b74" x="367.707579" y="347.438437" style="stroke: #000000; stroke-width: 0.6"/>
      </g>
     </g>
    </g>
    <g id="xtick_16">
     <g id="line2d_16">
      <g>
       <use xlink:href="#m9bb9417b74" x="380.962519" y="347.438437" style="stroke: #000000; stroke-width: 0.6"/>
      </g>
     </g>
    </g>
    <g id="xtick_17">
     <g id="line2d_17">
      <g>
       <use xlink:href="#m9bb9417b74" x="392.169412" y="347.438437" style="stroke: #000000; stroke-width: 0.6"/>
      </g>
     </g>
    </g>
    <g id="xtick_18">
     <g id="line2d_18">
      <g>
       <use xlink:href="#m9bb9417b74" x="401.877264" y="347.438437" style="stroke: #000000; stroke-width: 0.6"/>
      </g>
     </g>
    </g>
    <g id="xtick_19">
     <g id="line2d_19">
      <g>
       <use xlink:href="#m9bb9417b74" x="410.440196" y="347.438437" style="stroke: #000000; stroke-width: 0.6"/>
      </g>
     </g>
    </g>
    <g id="text_4">
     <!-- $\lambda$ -->
     <g transform="translate(244.7 391.491562) scale(0.2 -0.2)">
      <defs>
       <path id="DejaVuSans-Oblique-3bb" d="M 2350 4316 
L 3125 0 
L 2516 0 
L 2038 2588 
L 328 0 
L -281 0 
L 1903 3356 
L 1794 3975 
Q 1725 4369 1391 4369 
L 1091 4369 
L 1184 4863 
L 1550 4856 
Q 2253 4847 2350 4316 
z
" transform="scale(0.015625)"/>
      </defs>
      <use xlink:href="#DejaVuSans-Oblique-3bb" transform="translate(0 0.015625)"/>
     </g>
    </g>
   </g>
   <g id="matplotlib.axis_2">
    <g id="ytick_1">
     <g id="line2d_20">
      <defs>
       <path id="mf37c2efa6a" d="M 0 0 
L -2 0 
" style="stroke: #000000; stroke-width: 1.5"/>
      </defs>
      <g>
       <use xlink:href="#mf37c2efa6a" x="83.3" y="347.438436" style="stroke: #000000; stroke-width: 1.5"/>
      </g>
     </g>
     <g id="text_5">
      <!-- $\mathdefault{10^{-2}}$ -->
      <g transform="translate(30.8 355.036873) scale(0.2 -0.2)">
       <use xlink:href="#DejaVuSans-31" transform="translate(0 0.765625)"/>
       <use xlink:href="#DejaVuSans-30" transform="translate(63.623047 0.765625)"/>
       <use xlink:href="#DejaVuSans-2212" transform="translate(128.203125 39.046875) scale(0.7)"/>
       <use xlink:href="#DejaVuSans-32" transform="translate(186.855469 39.046875) scale(0.7)"/>
      </g>
     </g>
    </g>
    <g id="ytick_2">
     <g id="line2d_21">
      <g>
       <use xlink:href="#mf37c2efa6a" x="83.3" y="181.118437" style="stroke: #000000; stroke-width: 1.5"/>
      </g>
     </g>
     <g id="text_6">
      <!-- $\mathdefault{10^{-1}}$ -->
      <g transform="translate(30.8 188.716874) scale(0.2 -0.2)">
       <use xlink:href="#DejaVuSans-31" transform="translate(0 0.684375)"/>
       <use xlink:href="#DejaVuSans-30" transform="translate(63.623047 0.684375)"/>
       <use xlink:href="#DejaVuSans-2212" transform="translate(128.203125 38.965625) scale(0.7)"/>
       <use xlink:href="#DejaVuSans-31" transform="translate(186.855469 38.965625) scale(0.7)"/>
      </g>
     </g>
    </g>
    <g id="ytick_3">
     <g id="line2d_22">
      <g>
       <use xlink:href="#mf37c2efa6a" x="83.3" y="14.798437" style="stroke: #000000; stroke-width: 1.5"/>
      </g>
     </g>
     <g id="text_7">
      <!-- $\mathdefault{10^{0}}$ -->
      <g transform="translate(42.6 22.396875) scale(0.2 -0.2)">
       <use xlink:href="#DejaVuSans-31" transform="translate(0 0.765625)"/>
       <use xlink:href="#DejaVuSans-30" transform="translate(63.623047 0.765625)"/>
       <use xlink:href="#DejaVuSans-30" transform="translate(128.203125 39.046875) scale(0.7)"/>
      </g>
     </g>
    </g>
    <g id="ytick_4">
     <g id="line2d_23">
      <defs>
       <path id="mf204b22fb5" d="M 0 0 
L -2 0 
" style="stroke: #000000; stroke-width: 0.6"/>
      </defs>
      <g>
       <use xlink:href="#mf204b22fb5" x="83.3" y="297.371127" style="stroke: #000000; stroke-width: 0.6"/>
      </g>
     </g>
    </g>
    <g id="ytick_5">
     <g id="line2d_24">
      <g>
       <use xlink:href="#mf204b22fb5" x="83.3" y="268.083629" style="stroke: #000000; stroke-width: 0.6"/>
      </g>
     </g>
    </g>
    <g id="ytick_6">
     <g id="line2d_25">
      <g>
       <use xlink:href="#mf204b22fb5" x="83.3" y="247.303819" style="stroke: #000000; stroke-width: 0.6"/>
      </g>
     </g>
    </g>
    <g id="ytick_7">
     <g id="line2d_26">
      <g>
       <use xlink:href="#mf204b22fb5" x="83.3" y="231.185745" style="stroke: #000000; stroke-width: 0.6"/>
      </g>
     </g>
    </g>
    <g id="ytick_8">
     <g id="line2d_27">
      <g>
       <use xlink:href="#mf204b22fb5" x="83.3" y="218.016321" style="stroke: #000000; stroke-width: 0.6"/>
      </g>
     </g>
    </g>
    <g id="ytick_9">
     <g id="line2d_28">
      <g>
       <use xlink:href="#mf204b22fb5" x="83.3" y="206.881731" style="stroke: #000000; stroke-width: 0.6"/>
      </g>
     </g>
    </g>
    <g id="ytick_10">
     <g id="line2d_29">
      <g>
       <use xlink:href="#mf204b22fb5" x="83.3" y="197.23651" style="stroke: #000000; stroke-width: 0.6"/>
      </g>
     </g>
    </g>
    <g id="ytick_11">
     <g id="line2d_30">
      <g>
       <use xlink:href="#mf204b22fb5" x="83.3" y="188.728822" style="stroke: #000000; stroke-width: 0.6"/>
      </g>
     </g>
    </g>
    <g id="ytick_12">
     <g id="line2d_31">
      <g>
       <use xlink:href="#mf204b22fb5" x="83.3" y="131.051128" style="stroke: #000000; stroke-width: 0.6"/>
      </g>
     </g>
    </g>
    <g id="ytick_13">
     <g id="line2d_32">
      <g>
       <use xlink:href="#mf204b22fb5" x="83.3" y="101.76363" style="stroke: #000000; stroke-width: 0.6"/>
      </g>
     </g>
    </g>
    <g id="ytick_14">
     <g id="line2d_33">
      <g>
       <use xlink:href="#mf204b22fb5" x="83.3" y="80.983819" style="stroke: #000000; stroke-width: 0.6"/>
      </g>
     </g>
    </g>
    <g id="ytick_15">
     <g id="line2d_34">
      <g>
       <use xlink:href="#mf204b22fb5" x="83.3" y="64.865746" style="stroke: #000000; stroke-width: 0.6"/>
      </g>
     </g>
    </g>
    <g id="ytick_16">
     <g id="line2d_35">
      <g>
       <use xlink:href="#mf204b22fb5" x="83.3" y="51.696321" style="stroke: #000000; stroke-width: 0.6"/>
      </g>
     </g>
    </g>
    <g id="ytick_17">
     <g id="line2d_36">
      <g>
       <use xlink:href="#mf204b22fb5" x="83.3" y="40.561731" style="stroke: #000000; stroke-width: 0.6"/>
      </g>
     </g>
    </g>
    <g id="ytick_18">
     <g id="line2d_37">
      <g>
       <use xlink:href="#mf204b22fb5" x="83.3" y="30.916511" style="stroke: #000000; stroke-width: 0.6"/>
      </g>
     </g>
    </g>
    <g id="ytick_19">
     <g id="line2d_38">
      <g>
       <use xlink:href="#mf204b22fb5" x="83.3" y="22.408823" style="stroke: #000000; stroke-width: 0.6"/>
      </g>
     </g>
    </g>
    <g id="text_8">
     <!-- $\beta$ -->
     <g transform="translate(22.6 187.518437) rotate(-90) scale(0.2 -0.2)">
      <defs>
       <path id="DejaVuSans-Oblique-3b2" d="M 872 216 
L 572 -1331 
L -6 -1331 
L 928 3478 
Q 1206 4903 2538 4903 
Q 3888 4903 3659 3700 
Q 3503 2844 2894 2531 
Q 3713 2250 3553 1416 
Q 3272 -69 1759 -66 
Q 1097 -63 872 216 
z
M 1019 966 
Q 1259 422 1875 425 
Q 2775 425 2966 1406 
Q 3138 2288 1675 2219 
L 1778 2750 
Q 2909 2731 3106 3750 
Q 3241 4438 2509 4434 
Q 1691 4434 1503 3459 
L 1019 966 
z
" transform="scale(0.015625)"/>
      </defs>
      <use xlink:href="#DejaVuSans-Oblique-3b2" transform="translate(0 0.390625)"/>
     </g>
    </g>
   </g>
   <g id="patch_3">
    <path d="M 83.3 347.438437 
L 83.3 14.798437 
" style="fill: none; stroke: #000000; stroke-width: 0.8; stroke-linejoin: miter; stroke-linecap: square"/>
   </g>
   <g id="patch_4">
    <path d="M 418.1 347.438437 
L 418.1 14.798437 
" style="fill: none; stroke: #000000; stroke-width: 0.8; stroke-linejoin: miter; stroke-linecap: square"/>
   </g>
   <g id="patch_5">
    <path d="M 83.3 347.438437 
L 418.1 347.438437 
" style="fill: none; stroke: #000000; stroke-width: 0.8; stroke-linejoin: miter; stroke-linecap: square"/>
   </g>
   <g id="patch_6">
    <path d="M 83.3 14.798437 
L 418.1 14.798437 
" style="fill: none; stroke: #000000; stroke-width: 0.8; stroke-linejoin: miter; stroke-linecap: square"/>
   </g>
   <g id="text_9">
    <!-- $p^{EI}$ -->
    <g transform="translate(367.707579 64.865746) scale(0.25 -0.25)">
     <defs>
      <path id="DejaVuSans-Oblique-70" d="M 3175 2156 
Q 3175 2616 2975 2859 
Q 2775 3103 2400 3103 
Q 2144 3103 1911 2972 
Q 1678 2841 1497 2591 
Q 1319 2344 1212 1994 
Q 1106 1644 1106 1300 
Q 1106 863 1306 627 
Q 1506 391 1875 391 
Q 2147 391 2380 519 
Q 2613 647 2778 891 
Q 2956 1147 3065 1494 
Q 3175 1841 3175 2156 
z
M 1394 2969 
Q 1625 3272 1939 3428 
Q 2253 3584 2638 3584 
Q 3175 3584 3472 3232 
Q 3769 2881 3769 2247 
Q 3769 1728 3584 1258 
Q 3400 788 3053 416 
Q 2822 169 2531 39 
Q 2241 -91 1919 -91 
Q 1547 -91 1294 64 
Q 1041 219 916 525 
L 556 -1331 
L -19 -1331 
L 922 3500 
L 1497 3500 
L 1394 2969 
z
" transform="scale(0.015625)"/>
      <path id="DejaVuSans-Oblique-45" d="M 1081 4666 
L 4031 4666 
L 3928 4134 
L 1606 4134 
L 1338 2753 
L 3566 2753 
L 3463 2222 
L 1234 2222 
L 909 531 
L 3284 531 
L 3181 0 
L 172 0 
L 1081 4666 
z
" transform="scale(0.015625)"/>
      <path id="DejaVuSans-Oblique-49" d="M 1081 4666 
L 1716 4666 
L 806 0 
L 172 0 
L 1081 4666 
z
" transform="scale(0.015625)"/>
     </defs>
     <use xlink:href="#DejaVuSans-Oblique-70" transform="translate(0 0.684375)"/>
     <use xlink:href="#DejaVuSans-Oblique-45" transform="translate(68.126458 38.965625) scale(0.7)"/>
     <use xlink:href="#DejaVuSans-Oblique-49" transform="translate(112.354974 38.965625) scale(0.7)"/>
    </g>
   </g>
  </g>
 </g>
 <defs>
  <clipPath id="pb269e01ed7">
   <rect x="83.3" y="14.798437" width="334.8" height="332.64"/>
  </clipPath>
 </defs>
</svg>
