<?xml version="1.0" encoding="utf-8" standalone="no"?>
<!DOCTYPE svg PUBLIC "-//W3C//DTD SVG 1.1//EN"
  "http://www.w3.org/Graphics/SVG/1.1/DTD/svg11.dtd">
<svg xmlns:xlink="http://www.w3.org/1999/xlink" width="494.4413pt" height="402.850937pt" viewBox="0 0 494.4413 402.850937" xmlns="http://www.w3.org/2000/svg" version="1.1">
 <metadata>
  <rdf:RDF xmlns:dc="http://purl.org/dc/elements/1.1/" xmlns:cc="http://creativecommons.org/ns#" xmlns:rdf="http://www.w3.org/1999/02/22-rdf-syntax-ns#">
   <cc:Work>
    <dc:type rdf:resource="http://purl.org/dc/dcmitype/StillImage"/>
    <dc:date>2025-05-11T12:53:51.263131</dc:date>
    <dc:format>image/svg+xml</dc:format>
    <dc:creator>
     <cc:Agent>
      <dc:title>Matplotlib v3.10.1, https://matplotlib.org/</dc:title>
     </cc:Agent>
    </dc:creator>
   </cc:Work>
  </rdf:RDF>
 </metadata>
 <defs>
  <style type="text/css">*{stroke-linejoin: round; stroke-linecap: butt}</style>
 </defs>
 <g id="figure_1">
  <g id="patch_1">
   <path d="M 0 402.850937 
L 494.4413 402.850937 
L 494.4413 0 
L 0 0 
z
" style="fill: #ffffff"/>
  </g>
  <g id="axes_1">
   <g id="patch_2">
    <path d="M 83.3 347.438437 
L 407.498 347.438437 
L 407.498 14.798437 
L 83.3 14.798437 
z
" style="fill: #ffffff"/>
   </g>
   <g id="QuadContourSet_1">
    <path clip-path="url(#p5fdb71698d)" style="fill: #460a5d"/>
    <path clip-path="url(#p5fdb71698d)" style="fill: #481d6f"/>
    <path clip-path="url(#p5fdb71698d)" style="fill: #472e7c"/>
    <path d="M 88.446002 347.438437 
L 93.591998 347.438437 
L 98.738002 347.438437 
L 100.259422 347.438437 
L 98.738002 345.48301 
L 95.883603 342.158436 
L 93.591998 340.045303 
L 89.754779 336.878439 
L 88.446002 336.008707 
L 83.3 332.920864 
L 83.3 336.878439 
L 83.3 342.158436 
L 83.3 347.438437 
z
" clip-path="url(#p5fdb71698d)" style="fill: #423f85"/>
    <path d="M 98.738002 345.48301 
L 100.259422 347.438437 
L 103.884001 347.438437 
L 109.029999 347.438437 
L 114.176 347.438437 
L 119.321997 347.438437 
L 124.467998 347.438437 
L 129.613998 347.438437 
L 134.759998 347.438437 
L 139.200712 347.438437 
L 137.324705 342.158436 
L 134.846302 336.878439 
L 134.759998 336.730243 
L 131.49387 331.598435 
L 129.613998 329.29393 
L 126.926912 326.318437 
L 124.467998 324.123882 
L 120.578923 321.038439 
L 119.321997 320.211356 
L 114.176 317.161728 
L 111.502835 315.758438 
L 109.029999 314.643811 
L 103.884001 312.557673 
L 98.738002 310.729466 
L 97.9718 310.478441 
L 93.591998 309.204979 
L 88.446002 307.865704 
L 83.3 306.671067 
L 83.3 310.478441 
L 83.3 315.758438 
L 83.3 321.038439 
L 83.3 326.318437 
L 83.3 331.598435 
L 83.3 332.920864 
L 88.446002 336.008707 
L 89.754779 336.878439 
L 93.591998 340.045303 
L 95.883603 342.158436 
z
" clip-path="url(#p5fdb71698d)" style="fill: #3d4e8a"/>
    <path d="M 139.905999 347.438437 
L 145.052 347.438437 
L 150.198015 347.438437 
L 155.343996 347.438437 
L 160.490016 347.438437 
L 162.564729 347.438437 
L 161.457168 342.158436 
L 160.490016 338.563422 
L 160.011261 336.878439 
L 158.112049 331.598435 
L 155.588544 326.318437 
L 155.343996 325.904478 
L 152.217062 321.038439 
L 150.198015 318.563853 
L 147.66897 315.758438 
L 145.052 313.377595 
L 141.46832 310.478441 
L 139.905999 309.404407 
L 134.759998 306.23728 
L 132.868237 305.19844 
L 129.613998 303.61682 
L 124.467998 301.396233 
L 120.597642 299.91844 
L 119.321997 299.473126 
L 114.176 297.817952 
L 109.029999 296.353925 
L 103.884001 295.052225 
L 102.111788 294.638439 
L 98.738002 293.894904 
L 93.591998 292.859656 
L 88.446002 291.928061 
L 83.3 291.087165 
L 83.3 294.638439 
L 83.3 299.91844 
L 83.3 305.19844 
L 83.3 306.671067 
L 88.446002 307.865704 
L 93.591998 309.204979 
L 97.9718 310.478441 
L 98.738002 310.729466 
L 103.884001 312.557673 
L 109.029999 314.643811 
L 111.502835 315.758438 
L 114.176 317.161728 
L 119.321997 320.211356 
L 120.578923 321.038439 
L 124.467998 324.123882 
L 126.926912 326.318437 
L 129.613998 329.29393 
L 131.49387 331.598435 
L 134.759998 336.730243 
L 134.846302 336.878439 
L 137.324705 342.158436 
L 139.200712 347.438437 
z
" clip-path="url(#p5fdb71698d)" style="fill: #365d8d"/>
    <path d="M 165.635995 347.438437 
L 170.782014 347.438437 
L 175.927993 347.438437 
L 180.484616 347.438437 
L 179.759848 342.158436 
L 178.817884 336.878439 
L 177.584469 331.598435 
L 175.958732 326.318437 
L 175.927993 326.237184 
L 173.845271 321.038439 
L 171.030366 315.758438 
L 170.782014 315.376635 
L 167.315196 310.478441 
L 165.635995 308.565774 
L 162.362073 305.19844 
L 160.490016 303.576473 
L 155.725336 299.91844 
L 155.343996 299.66229 
L 150.198015 296.49583 
L 146.735555 294.638439 
L 145.052 293.814697 
L 139.905999 291.525946 
L 134.759998 289.535697 
L 134.266135 289.358439 
L 129.613998 287.778101 
L 124.467998 286.224964 
L 119.321997 284.846081 
L 116.177207 284.078437 
L 114.176 283.603947 
L 109.029999 282.473429 
L 103.884001 281.457086 
L 98.738002 280.540455 
L 93.591998 279.711356 
L 88.446002 278.959508 
L 87.274301 278.798422 
L 83.3 278.255598 
L 83.3 278.798422 
L 83.3 284.078437 
L 83.3 289.358439 
L 83.3 291.087165 
L 88.446002 291.928061 
L 93.591998 292.859656 
L 98.738002 293.894904 
L 102.111788 294.638439 
L 103.884001 295.052225 
L 109.029999 296.353925 
L 114.176 297.817952 
L 119.321997 299.473126 
L 120.597642 299.91844 
L 124.467998 301.396233 
L 129.613998 303.61682 
L 132.868237 305.19844 
L 134.759998 306.23728 
L 139.905999 309.404407 
L 141.46832 310.478441 
L 145.052 313.377595 
L 147.66897 315.758438 
L 150.198015 318.563853 
L 152.217062 321.038439 
L 155.343996 325.904478 
L 155.588544 326.318437 
L 158.112049 331.598435 
L 160.011261 336.878439 
L 160.490016 338.563422 
L 161.457168 342.158436 
L 162.564729 347.438437 
z
" clip-path="url(#p5fdb71698d)" style="fill: #306a8e"/>
    <path d="M 181.074014 347.438437 
L 186.219993 347.438437 
L 191.366011 347.438437 
L 195.850664 347.438437 
L 195.35004 342.158436 
L 194.702855 336.878439 
L 193.860069 331.598435 
L 192.755577 326.318437 
L 191.366011 321.260028 
L 191.302984 321.038439 
L 189.443532 315.758438 
L 186.976 310.478441 
L 186.219993 309.165952 
L 183.763923 305.19844 
L 181.074014 301.721584 
L 179.547848 299.91844 
L 175.927993 296.32607 
L 174.033821 294.638439 
L 170.782014 292.103406 
L 166.785912 289.358439 
L 165.635995 288.642824 
L 160.490016 285.728836 
L 157.174281 284.078437 
L 155.343996 283.221643 
L 150.198015 281.025748 
L 145.052 279.109909 
L 144.149916 278.798422 
L 139.905999 277.374074 
L 134.759998 275.827897 
L 129.613998 274.452788 
L 125.754926 273.518441 
L 124.467998 273.208519 
L 119.321997 272.048003 
L 114.176 271.003598 
L 109.029999 270.060788 
L 103.884001 269.207275 
L 98.738002 268.432664 
L 97.367148 268.238422 
L 93.591998 267.695191 
L 88.446002 267.012224 
L 83.3 266.389264 
L 83.3 268.238422 
L 83.3 273.518441 
L 83.3 278.255598 
L 87.274301 278.798422 
L 88.446002 278.959508 
L 93.591998 279.711356 
L 98.738002 280.540455 
L 103.884001 281.457086 
L 109.029999 282.473429 
L 114.176 283.603947 
L 116.177207 284.078437 
L 119.321997 284.846081 
L 124.467998 286.224964 
L 129.613998 287.778101 
L 134.266135 289.358439 
L 134.759998 289.535697 
L 139.905999 291.525946 
L 145.052 293.814697 
L 146.735555 294.638439 
L 150.198015 296.49583 
L 155.343996 299.66229 
L 155.725336 299.91844 
L 160.490016 303.576473 
L 162.362073 305.19844 
L 165.635995 308.565774 
L 167.315196 310.478441 
L 170.782014 315.376635 
L 171.030366 315.758438 
L 173.845271 321.038439 
L 175.927993 326.237184 
L 175.958732 326.318437 
L 177.584469 331.598435 
L 178.817884 336.878439 
L 179.759848 342.158436 
L 180.484616 347.438437 
z
" clip-path="url(#p5fdb71698d)" style="fill: #2a778e"/>
    <path d="M 196.511994 347.438437 
L 201.658014 347.438437 
L 206.804015 347.438437 
L 209.947013 347.438437 
L 209.587249 342.158436 
L 209.124619 336.878439 
L 208.525351 331.598435 
L 207.744085 326.318437 
L 206.804015 321.445527 
L 206.724518 321.038439 
L 205.443541 315.758438 
L 203.752283 310.478441 
L 201.658014 305.503308 
L 201.523521 305.19844 
L 198.690331 299.91844 
L 196.511994 296.703337 
L 195.00146 294.638439 
L 191.366011 290.502895 
L 190.260247 289.358439 
L 186.219993 285.720054 
L 184.18093 284.078437 
L 181.074014 281.819816 
L 176.339985 278.798422 
L 175.927993 278.55352 
L 170.782014 275.718011 
L 166.166656 273.518441 
L 165.635995 273.274954 
L 160.490016 271.070566 
L 155.343996 269.143699 
L 152.684343 268.238422 
L 150.198015 267.399206 
L 145.052 265.804924 
L 139.905999 264.385984 
L 134.759998 263.117424 
L 134.075991 262.958442 
L 129.613998 261.905591 
L 124.467998 260.803887 
L 119.321997 259.809006 
L 114.176 258.908166 
L 109.029999 258.090417 
L 106.242857 257.678423 
L 103.884001 257.31815 
L 98.738002 256.58263 
L 93.591998 255.911557 
L 88.446002 255.298324 
L 83.3 254.737125 
L 83.3 257.678423 
L 83.3 262.958442 
L 83.3 266.389264 
L 88.446002 267.012224 
L 93.591998 267.695191 
L 97.367148 268.238422 
L 98.738002 268.432664 
L 103.884001 269.207275 
L 109.029999 270.060788 
L 114.176 271.003598 
L 119.321997 272.048003 
L 124.467998 273.208519 
L 125.754926 273.518441 
L 129.613998 274.452788 
L 134.759998 275.827897 
L 139.905999 277.374074 
L 144.149916 278.798422 
L 145.052 279.109909 
L 150.198015 281.025748 
L 155.343996 283.221643 
L 157.174281 284.078437 
L 160.490016 285.728836 
L 165.635995 288.642824 
L 166.785912 289.358439 
L 170.782014 292.103406 
L 174.033821 294.638439 
L 175.927993 296.32607 
L 179.547848 299.91844 
L 181.074014 301.721584 
L 183.763923 305.19844 
L 186.219993 309.165952 
L 186.976 310.478441 
L 189.443532 315.758438 
L 191.302984 321.038439 
L 191.366011 321.260028 
L 192.755577 326.318437 
L 193.860069 331.598435 
L 194.702855 336.878439 
L 195.35004 342.158436 
L 195.850664 347.438437 
z
" clip-path="url(#p5fdb71698d)" style="fill: #25838e"/>
    <path d="M 211.950011 347.438437 
L 217.096014 347.438437 
L 222.242011 347.438437 
L 223.467357 347.438437 
L 223.201668 342.158436 
L 222.861931 336.878439 
L 222.424211 331.598435 
L 222.242011 329.842235 
L 221.882091 326.318437 
L 221.190057 321.038439 
L 220.282373 315.758438 
L 219.089122 310.478441 
L 217.519279 305.19844 
L 217.096014 304.037873 
L 215.544766 299.91844 
L 212.981566 294.638439 
L 211.950011 292.890869 
L 209.731809 289.358439 
L 206.804015 285.534758 
L 205.596292 284.078437 
L 201.658014 279.989306 
L 200.394416 278.798422 
L 196.511994 275.519854 
L 193.857014 273.518441 
L 191.366011 271.779778 
L 186.219993 268.591841 
L 185.599656 268.238422 
L 181.074014 265.76428 
L 175.927993 263.316591 
L 175.115801 262.958442 
L 170.782014 261.074552 
L 165.635995 259.091237 
L 161.532318 257.678423 
L 160.490016 257.317182 
L 155.343996 255.644566 
L 150.198015 254.155117 
L 145.052 252.822985 
L 143.294513 252.398445 
L 139.905999 251.555947 
L 134.759998 250.379662 
L 129.613998 249.317215 
L 124.467998 248.35497 
L 119.321997 247.481374 
L 117.037093 247.118424 
L 114.176 246.642438 
L 109.029999 245.844288 
L 103.884001 245.115854 
L 98.738002 244.45001 
L 93.591998 243.840502 
L 88.446002 243.281813 
L 83.3 242.769098 
L 83.3 247.118424 
L 83.3 252.398445 
L 83.3 254.737125 
L 88.446002 255.298324 
L 93.591998 255.911557 
L 98.738002 256.58263 
L 103.884001 257.31815 
L 106.242857 257.678423 
L 109.029999 258.090417 
L 114.176 258.908166 
L 119.321997 259.809006 
L 124.467998 260.803887 
L 129.613998 261.905591 
L 134.075991 262.958442 
L 134.759998 263.117424 
L 139.905999 264.385984 
L 145.052 265.804924 
L 150.198015 267.399206 
L 152.684343 268.238422 
L 155.343996 269.143699 
L 160.490016 271.070566 
L 165.635995 273.274954 
L 166.166656 273.518441 
L 170.782014 275.718011 
L 175.927993 278.55352 
L 176.339985 278.798422 
L 181.074014 281.819816 
L 184.18093 284.078437 
L 186.219993 285.720054 
L 190.260247 289.358439 
L 191.366011 290.502895 
L 195.00146 294.638439 
L 196.511994 296.703337 
L 198.690331 299.91844 
L 201.523521 305.19844 
L 201.658014 305.503308 
L 203.752283 310.478441 
L 205.443541 315.758438 
L 206.724518 321.038439 
L 206.804015 321.445527 
L 207.744085 326.318437 
L 208.525351 331.598435 
L 209.124619 336.878439 
L 209.587249 342.158436 
L 209.947013 347.438437 
z
" clip-path="url(#p5fdb71698d)" style="fill: #21918c"/>
    <path d="M 227.388013 347.438437 
L 232.534012 347.438437 
L 236.967286 347.438437 
L 236.784719 342.158436 
L 236.552443 336.878439 
L 236.254556 331.598435 
L 235.86979 326.318437 
L 235.369862 321.038439 
L 234.717148 315.758438 
L 233.862477 310.478441 
L 232.741938 305.19844 
L 232.534012 304.399725 
L 231.360355 299.91844 
L 229.569553 294.638439 
L 227.388013 289.677916 
L 227.24256 289.358439 
L 224.38625 284.078437 
L 222.242011 280.868237 
L 220.768748 278.798422 
L 217.096014 274.415866 
L 216.280973 273.518441 
L 211.950011 269.292112 
L 210.761109 268.238422 
L 206.804015 265.020601 
L 203.968271 262.958442 
L 201.658014 261.372272 
L 196.511994 258.207761 
L 195.57536 257.678423 
L 191.366011 255.359976 
L 186.219993 252.872006 
L 185.163262 252.398445 
L 181.074014 250.568475 
L 175.927993 248.514655 
L 172.029466 247.118424 
L 170.782014 246.663569 
L 165.635995 244.9043 
L 160.490016 243.336299 
L 155.343996 241.932835 
L 154.97993 241.838445 
L 150.198015 240.549054 
L 145.052 239.293176 
L 139.905999 238.158142 
L 134.759998 237.129574 
L 131.680594 236.558426 
L 129.613998 236.153547 
L 124.467998 235.205762 
L 119.321997 234.341766 
L 114.176 233.552778 
L 109.029999 232.83116 
L 103.884001 232.170181 
L 98.738002 231.563963 
L 96.157923 231.278444 
L 93.591998 230.974056 
L 88.446002 230.399872 
L 83.3 229.871819 
L 83.3 231.278444 
L 83.3 236.558426 
L 83.3 241.838445 
L 83.3 242.769098 
L 88.446002 243.281813 
L 93.591998 243.840502 
L 98.738002 244.45001 
L 103.884001 245.115854 
L 109.029999 245.844288 
L 114.176 246.642438 
L 117.037093 247.118424 
L 119.321997 247.481374 
L 124.467998 248.35497 
L 129.613998 249.317215 
L 134.759998 250.379662 
L 139.905999 251.555947 
L 143.294513 252.398445 
L 145.052 252.822985 
L 150.198015 254.155117 
L 155.343996 255.644566 
L 160.490016 257.317182 
L 161.532318 257.678423 
L 165.635995 259.091237 
L 170.782014 261.074552 
L 175.115801 262.958442 
L 175.927993 263.316591 
L 181.074014 265.76428 
L 185.599656 268.238422 
L 186.219993 268.591841 
L 191.366011 271.779778 
L 193.857014 273.518441 
L 196.511994 275.519854 
L 200.394416 278.798422 
L 201.658014 279.989306 
L 205.596292 284.078437 
L 206.804015 285.534758 
L 209.731809 289.358439 
L 211.950011 292.890869 
L 212.981566 294.638439 
L 215.544766 299.91844 
L 217.096014 304.037873 
L 217.519279 305.19844 
L 219.089122 310.478441 
L 220.282373 315.758438 
L 221.190057 321.038439 
L 221.882091 326.318437 
L 222.242011 329.842235 
L 222.424211 331.598435 
L 222.861931 336.878439 
L 223.201668 342.158436 
L 223.467357 347.438437 
z
" clip-path="url(#p5fdb71698d)" style="fill: #1e9d89"/>
    <path d="M 237.68001 347.438437 
L 242.826011 347.438437 
L 247.971993 347.438437 
L 250.982511 347.438437 
L 250.847732 342.158436 
L 250.677347 336.878439 
L 250.460096 331.598435 
L 250.181124 326.318437 
L 249.82057 321.038439 
L 249.351992 315.758438 
L 248.740715 310.478441 
L 247.971993 305.387433 
L 247.94419 305.19844 
L 246.985497 299.91844 
L 245.73136 294.638439 
L 244.097443 289.358439 
L 242.826011 286.071578 
L 242.04073 284.078437 
L 239.505238 278.798422 
L 237.68001 275.690674 
L 236.343704 273.518441 
L 232.534012 268.334988 
L 232.458432 268.238422 
L 227.786261 262.958442 
L 227.388013 262.555417 
L 222.242011 257.773085 
L 222.131382 257.678423 
L 217.096014 253.649307 
L 215.357082 252.398445 
L 211.950011 250.048987 
L 207.155422 247.118424 
L 206.804015 246.908127 
L 201.658014 244.010115 
L 197.259182 241.838445 
L 196.511994 241.468476 
L 191.366011 239.07187 
L 186.219993 236.965207 
L 185.159552 236.558426 
L 181.074014 234.949482 
L 175.927993 233.12002 
L 170.782014 231.486721 
L 170.089791 231.278444 
L 165.635995 229.878168 
L 160.490016 228.410059 
L 155.343996 227.085395 
L 150.703899 225.998423 
L 150.198015 225.872885 
L 145.052 224.651477 
L 139.905999 223.541496 
L 134.759998 222.530491 
L 129.613998 221.607891 
L 124.467998 220.764468 
L 124.175244 220.718422 
L 119.321997 219.898114 
L 114.176 219.098867 
L 109.029999 218.365617 
L 103.884001 217.692101 
L 98.738002 217.072762 
L 93.591998 216.502694 
L 88.446002 215.97751 
L 83.3 215.493275 
L 83.3 220.718422 
L 83.3 225.998423 
L 83.3 229.871819 
L 88.446002 230.399872 
L 93.591998 230.974056 
L 96.157923 231.278444 
L 98.738002 231.563963 
L 103.884001 232.170181 
L 109.029999 232.83116 
L 114.176 233.552778 
L 119.321997 234.341766 
L 124.467998 235.205762 
L 129.613998 236.153547 
L 131.680594 236.558426 
L 134.759998 237.129574 
L 139.905999 238.158142 
L 145.052 239.293176 
L 150.198015 240.549054 
L 154.97993 241.838445 
L 155.343996 241.932835 
L 160.490016 243.336299 
L 165.635995 244.9043 
L 170.782014 246.663569 
L 172.029466 247.118424 
L 175.927993 248.514655 
L 181.074014 250.568475 
L 185.163262 252.398445 
L 186.219993 252.872006 
L 191.366011 255.359976 
L 195.57536 257.678423 
L 196.511994 258.207761 
L 201.658014 261.372272 
L 203.968271 262.958442 
L 206.804015 265.020601 
L 210.761109 268.238422 
L 211.950011 269.292112 
L 216.280973 273.518441 
L 217.096014 274.415866 
L 220.768748 278.798422 
L 222.242011 280.868237 
L 224.38625 284.078437 
L 227.24256 289.358439 
L 227.388013 289.677916 
L 229.569553 294.638439 
L 231.360355 299.91844 
L 232.534012 304.399725 
L 232.741938 305.19844 
L 233.862477 310.478441 
L 234.717148 315.758438 
L 235.369862 321.038439 
L 235.86979 326.318437 
L 236.254556 331.598435 
L 236.552443 336.878439 
L 236.784719 342.158436 
L 236.967286 347.438437 
z
" clip-path="url(#p5fdb71698d)" style="fill: #23a983"/>
    <path d="M 253.117989 347.438437 
L 258.26399 347.438437 
L 263.409992 347.438437 
L 265.983547 347.438437 
L 265.885979 342.158436 
L 265.763502 336.878439 
L 265.608361 331.598435 
L 265.410378 326.318437 
L 265.155923 321.038439 
L 264.826891 315.758438 
L 264.399313 310.478441 
L 263.841831 305.19844 
L 263.409992 301.989553 
L 263.141968 299.91844 
L 262.280469 294.638439 
L 261.157445 289.358439 
L 259.701272 284.078437 
L 258.26399 279.950811 
L 257.861676 278.798422 
L 255.657385 273.518441 
L 253.117989 268.688284 
L 252.874496 268.238422 
L 249.593087 262.958442 
L 247.971993 260.728769 
L 245.631914 257.678423 
L 242.826011 254.447038 
L 240.921803 252.398445 
L 237.68001 249.211464 
L 235.370194 247.118424 
L 232.534012 244.703437 
L 228.836836 241.838445 
L 227.388013 240.758353 
L 222.242011 237.235595 
L 221.170664 236.558426 
L 217.096014 234.011876 
L 212.155648 231.278444 
L 211.950011 231.164088 
L 206.804015 228.441449 
L 201.658014 226.053805 
L 201.532676 225.998423 
L 196.511994 223.716466 
L 191.366011 221.637753 
L 188.90503 220.718422 
L 186.219993 219.671696 
L 181.074014 217.813004 
L 175.927993 216.143663 
L 173.597878 215.438426 
L 170.782014 214.536627 
L 165.635995 213.003276 
L 160.490016 211.614432 
L 155.343996 210.353081 
L 154.511807 210.158424 
L 150.198015 209.078218 
L 145.052 207.893084 
L 139.905999 206.811249 
L 134.759998 205.821886 
L 129.613998 204.915606 
L 129.394654 204.878426 
L 124.467998 203.976615 
L 119.321997 203.110562 
L 114.176 202.315023 
L 109.029999 201.583439 
L 103.884001 200.909962 
L 98.738002 200.289383 
L 93.591998 199.717056 
L 92.475913 199.598424 
L 88.446002 199.132865 
L 83.3 198.578829 
L 83.3 199.598424 
L 83.3 204.878426 
L 83.3 210.158424 
L 83.3 215.438426 
L 83.3 215.493275 
L 88.446002 215.97751 
L 93.591998 216.502694 
L 98.738002 217.072762 
L 103.884001 217.692101 
L 109.029999 218.365617 
L 114.176 219.098867 
L 119.321997 219.898114 
L 124.175244 220.718422 
L 124.467998 220.764468 
L 129.613998 221.607891 
L 134.759998 222.530491 
L 139.905999 223.541496 
L 145.052 224.651477 
L 150.198015 225.872885 
L 150.703899 225.998423 
L 155.343996 227.085395 
L 160.490016 228.410059 
L 165.635995 229.878168 
L 170.089791 231.278444 
L 170.782014 231.486721 
L 175.927993 233.12002 
L 181.074014 234.949482 
L 185.159552 236.558426 
L 186.219993 236.965207 
L 191.366011 239.07187 
L 196.511994 241.468476 
L 197.259182 241.838445 
L 201.658014 244.010115 
L 206.804015 246.908127 
L 207.155422 247.118424 
L 211.950011 250.048987 
L 215.357082 252.398445 
L 217.096014 253.649307 
L 222.131382 257.678423 
L 222.242011 257.773085 
L 227.388013 262.555417 
L 227.786261 262.958442 
L 232.458432 268.238422 
L 232.534012 268.334988 
L 236.343704 273.518441 
L 237.68001 275.690674 
L 239.505238 278.798422 
L 242.04073 284.078437 
L 242.826011 286.071578 
L 244.097443 289.358439 
L 245.73136 294.638439 
L 246.985497 299.91844 
L 247.94419 305.19844 
L 247.971993 305.387433 
L 248.740715 310.478441 
L 249.351992 315.758438 
L 249.82057 321.038439 
L 250.181124 326.318437 
L 250.460096 331.598435 
L 250.677347 336.878439 
L 250.847732 342.158436 
L 250.982511 347.438437 
z
" clip-path="url(#p5fdb71698d)" style="fill: #32b67a"/>
    <path d="M 268.55599 347.438437 
L 273.701987 347.438437 
L 278.847989 347.438437 
L 282.692305 347.438437 
L 282.624773 342.158436 
L 282.540639 336.878439 
L 282.434857 331.598435 
L 282.300832 326.318437 
L 282.129696 321.038439 
L 281.90963 315.758438 
L 281.624937 310.478441 
L 281.254947 305.19844 
L 280.772716 299.91844 
L 280.143734 294.638439 
L 279.324496 289.358439 
L 278.847989 286.901386 
L 278.319727 284.078437 
L 277.082551 278.798422 
L 275.496254 273.518441 
L 273.701987 268.774149 
L 273.499962 268.238422 
L 271.183831 262.958442 
L 268.55599 258.127099 
L 268.306742 257.678423 
L 264.993446 252.398445 
L 263.409992 250.207588 
L 261.07905 247.118424 
L 258.26399 243.786746 
L 256.522832 241.838445 
L 253.117989 238.331613 
L 251.275137 236.558426 
L 247.971993 233.557684 
L 245.256411 231.278444 
L 242.826011 229.310007 
L 238.354179 225.998423 
L 237.68001 225.507442 
L 232.534012 221.979349 
L 230.524141 220.718422 
L 227.388013 218.739598 
L 222.242011 215.801075 
L 221.569902 215.438426 
L 217.096014 212.966249 
L 211.950011 210.429516 
L 211.371582 210.158424 
L 206.804015 207.934269 
L 201.658014 205.683492 
L 199.688908 204.878426 
L 196.511994 203.513582 
L 191.366011 201.474363 
L 186.219993 199.640021 
L 186.098746 199.598424 
L 181.074014 197.768121 
L 175.927993 196.071924 
L 170.782014 194.534888 
L 170.024162 194.318425 
L 165.635995 192.977684 
L 160.490016 191.535714 
L 155.343996 190.222396 
L 150.264403 189.038427 
L 150.198015 189.021781 
L 145.052 187.775483 
L 139.905999 186.636299 
L 134.759998 185.593189 
L 129.613998 184.63659 
L 124.469649 183.758427 
L 124.467998 183.758122 
L 119.321997 182.839095 
L 114.176 181.994547 
L 109.029999 181.217508 
L 103.884001 180.501856 
L 98.738002 179.84215 
L 93.591998 179.233449 
L 88.446002 178.671423 
L 86.586745 178.478445 
L 83.3 178.106915 
L 83.3 178.478445 
L 83.3 183.758427 
L 83.3 189.038427 
L 83.3 194.318425 
L 83.3 198.578829 
L 88.446002 199.132865 
L 92.475913 199.598424 
L 93.591998 199.717056 
L 98.738002 200.289383 
L 103.884001 200.909962 
L 109.029999 201.583439 
L 114.176 202.315023 
L 119.321997 203.110562 
L 124.467998 203.976615 
L 129.394654 204.878426 
L 129.613998 204.915606 
L 134.759998 205.821886 
L 139.905999 206.811249 
L 145.052 207.893084 
L 150.198015 209.078218 
L 154.511807 210.158424 
L 155.343996 210.353081 
L 160.490016 211.614432 
L 165.635995 213.003276 
L 170.782014 214.536627 
L 173.597878 215.438426 
L 175.927993 216.143663 
L 181.074014 217.813004 
L 186.219993 219.671696 
L 188.90503 220.718422 
L 191.366011 221.637753 
L 196.511994 223.716466 
L 201.532676 225.998423 
L 201.658014 226.053805 
L 206.804015 228.441449 
L 211.950011 231.164088 
L 212.155648 231.278444 
L 217.096014 234.011876 
L 221.170664 236.558426 
L 222.242011 237.235595 
L 227.388013 240.758353 
L 228.836836 241.838445 
L 232.534012 244.703437 
L 235.370194 247.118424 
L 237.68001 249.211464 
L 240.921803 252.398445 
L 242.826011 254.447038 
L 245.631914 257.678423 
L 247.971993 260.728769 
L 249.593087 262.958442 
L 252.874496 268.238422 
L 253.117989 268.688284 
L 255.657385 273.518441 
L 257.861676 278.798422 
L 258.26399 279.950811 
L 259.701272 284.078437 
L 261.157445 289.358439 
L 262.280469 294.638439 
L 263.141968 299.91844 
L 263.409992 301.989553 
L 263.841831 305.19844 
L 264.399313 310.478441 
L 264.826891 315.758438 
L 265.155923 321.038439 
L 265.410378 326.318437 
L 265.608361 331.598435 
L 265.763502 336.878439 
L 265.885979 342.158436 
L 265.983547 347.438437 
z
" clip-path="url(#p5fdb71698d)" style="fill: #48c16e"/>
    <path d="M 283.993988 347.438437 
L 289.139996 347.438437 
L 294.285999 347.438437 
L 299.431998 347.438437 
L 302.28449 347.438437 
L 302.235606 342.158436 
L 302.175281 336.878439 
L 302.100023 331.598435 
L 302.005543 326.318437 
L 301.885847 321.038439 
L 301.733157 315.758438 
L 301.536899 310.478441 
L 301.283233 305.19844 
L 300.953866 299.91844 
L 300.525077 294.638439 
L 299.966479 289.358439 
L 299.431998 285.413344 
L 299.261311 284.078437 
L 298.423558 278.798422 
L 297.344482 273.518441 
L 295.966985 268.238422 
L 294.285999 263.1266 
L 294.231915 262.958442 
L 292.26962 257.678423 
L 289.833885 252.398445 
L 289.139996 251.076666 
L 287.048064 247.118424 
L 283.993988 242.234974 
L 283.741045 241.838445 
L 280.035116 236.558426 
L 278.847989 235.035845 
L 275.805469 231.278444 
L 273.701987 228.892547 
L 271.023366 225.998423 
L 268.55599 223.490092 
L 265.665922 220.718422 
L 263.409992 218.639861 
L 259.694321 215.438426 
L 258.26399 214.232502 
L 253.117989 210.202294 
L 253.059257 210.158424 
L 247.971993 206.357835 
L 245.816309 204.878426 
L 242.826011 202.798912 
L 237.782063 199.598424 
L 237.68001 199.532072 
L 232.534012 196.310243 
L 229.022387 194.318425 
L 227.388013 193.356833 
L 222.242011 190.510196 
L 219.351269 189.038427 
L 217.096014 187.836376 
L 211.950011 185.276623 
L 208.625418 183.758427 
L 206.804015 182.881515 
L 201.658014 180.549076 
L 196.576845 178.478445 
L 196.511994 178.450419 
L 191.366011 176.301811 
L 186.219993 174.364901 
L 182.869292 173.198448 
L 181.074014 172.531389 
L 175.927993 170.724024 
L 170.782014 169.085251 
L 166.806034 167.918447 
L 165.635995 167.549735 
L 160.490016 166.002688 
L 155.343996 164.593447 
L 150.198015 163.307076 
L 147.343757 162.638446 
L 145.052 162.058147 
L 139.905999 160.828406 
L 134.759998 159.702306 
L 129.613998 158.669436 
L 124.467998 157.720699 
L 122.3938 157.358448 
L 119.321997 156.774741 
L 114.176 155.856945 
L 109.029999 155.012278 
L 103.884001 154.234153 
L 98.738002 153.51661 
L 93.591998 152.854446 
L 88.446002 152.24288 
L 86.996307 152.078451 
L 83.3 151.619367 
L 83.3 152.078451 
L 83.3 157.358448 
L 83.3 162.638446 
L 83.3 167.918447 
L 83.3 173.198448 
L 83.3 178.106915 
L 86.586745 178.478445 
L 88.446002 178.671423 
L 93.591998 179.233449 
L 98.738002 179.84215 
L 103.884001 180.501856 
L 109.029999 181.217508 
L 114.176 181.994547 
L 119.321997 182.839095 
L 124.467998 183.758122 
L 124.469649 183.758427 
L 129.613998 184.63659 
L 134.759998 185.593189 
L 139.905999 186.636299 
L 145.052 187.775483 
L 150.198015 189.021781 
L 150.264403 189.038427 
L 155.343996 190.222396 
L 160.490016 191.535714 
L 165.635995 192.977684 
L 170.024162 194.318425 
L 170.782014 194.534888 
L 175.927993 196.071924 
L 181.074014 197.768121 
L 186.098746 199.598424 
L 186.219993 199.640021 
L 191.366011 201.474363 
L 196.511994 203.513582 
L 199.688908 204.878426 
L 201.658014 205.683492 
L 206.804015 207.934269 
L 211.371582 210.158424 
L 211.950011 210.429516 
L 217.096014 212.966249 
L 221.569902 215.438426 
L 222.242011 215.801075 
L 227.388013 218.739598 
L 230.524141 220.718422 
L 232.534012 221.979349 
L 237.68001 225.507442 
L 238.354179 225.998423 
L 242.826011 229.310007 
L 245.256411 231.278444 
L 247.971993 233.557684 
L 251.275137 236.558426 
L 253.117989 238.331613 
L 256.522832 241.838445 
L 258.26399 243.786746 
L 261.07905 247.118424 
L 263.409992 250.207588 
L 264.993446 252.398445 
L 268.306742 257.678423 
L 268.55599 258.127099 
L 271.183831 262.958442 
L 273.499962 268.238422 
L 273.701987 268.774149 
L 275.496254 273.518441 
L 277.082551 278.798422 
L 278.319727 284.078437 
L 278.847989 286.901386 
L 279.324496 289.358439 
L 280.143734 294.638439 
L 280.772716 299.91844 
L 281.254947 305.19844 
L 281.624937 310.478441 
L 281.90963 315.758438 
L 282.129696 321.038439 
L 282.300832 326.318437 
L 282.434857 331.598435 
L 282.540639 336.878439 
L 282.624773 342.158436 
L 282.692305 347.438437 
z
" clip-path="url(#p5fdb71698d)" style="fill: #65cb5e"/>
    <path d="M 304.577998 347.438437 
L 309.723998 347.438437 
L 314.869998 347.438437 
L 320.015998 347.438437 
L 325.161998 347.438437 
L 326.788562 347.438437 
L 326.753014 342.158436 
L 326.709617 336.878439 
L 326.656063 331.598435 
L 326.589418 326.318437 
L 326.505845 321.038439 
L 326.400195 315.758438 
L 326.265616 310.478441 
L 326.092922 305.19844 
L 325.870099 299.91844 
L 325.581115 294.638439 
L 325.205231 289.358439 
L 325.161998 288.869551 
L 324.769612 284.078437 
L 324.209654 278.798422 
L 323.484735 273.518441 
L 322.552878 268.238422 
L 321.366399 262.958442 
L 320.015998 258.154299 
L 319.88777 257.678423 
L 318.232525 252.398445 
L 316.191345 247.118424 
L 314.869998 244.196919 
L 313.821192 241.838445 
L 311.117358 236.558426 
L 309.723998 234.161821 
L 308.047022 231.278444 
L 304.577998 226.055301 
L 304.539805 225.998423 
L 300.748666 220.718422 
L 299.431998 219.041481 
L 296.53127 215.438426 
L 294.285999 212.832609 
L 291.903556 210.158424 
L 289.139996 207.202302 
L 286.877175 204.878426 
L 283.993988 202.007062 
L 281.458648 199.598424 
L 278.847989 197.156265 
L 275.650104 194.318425 
L 273.701987 192.593478 
L 269.448152 189.038427 
L 268.55599 188.286145 
L 263.409992 184.164797 
L 262.87817 183.758427 
L 258.26399 180.157199 
L 255.957384 178.478445 
L 253.117989 176.353523 
L 248.573809 173.198448 
L 247.971993 172.766481 
L 242.826011 169.230015 
L 240.775472 167.918447 
L 237.68001 165.858306 
L 232.534012 162.716968 
L 232.400533 162.638446 
L 227.388013 159.552372 
L 223.462039 157.358448 
L 222.242011 156.641944 
L 217.096014 153.774208 
L 213.779725 152.078451 
L 211.950011 151.089548 
L 206.804015 148.471965 
L 203.215668 146.798449 
L 201.658014 146.026282 
L 196.511994 143.612349 
L 191.568447 141.51845 
L 191.366011 141.426824 
L 186.219993 139.179244 
L 181.074014 137.148771 
L 178.611237 136.238442 
L 175.927993 135.17228 
L 170.782014 133.259461 
L 165.635995 131.521956 
L 163.873553 130.958438 
L 160.490016 129.789344 
L 155.343996 128.136025 
L 150.198015 126.627929 
L 146.716508 125.678439 
L 145.052 125.18554 
L 139.905999 123.737655 
L 134.759998 122.412709 
L 129.613998 121.198301 
L 125.977142 120.398439 
L 124.467998 120.036308 
L 119.321997 118.859655 
L 114.176 117.778798 
L 109.029999 116.784738 
L 103.884001 115.869454 
L 99.327867 115.11844 
L 98.738002 115.011862 
L 93.591998 114.117301 
L 88.446002 113.292684 
L 83.3 112.531698 
L 83.3 115.11844 
L 83.3 120.398439 
L 83.3 125.678439 
L 83.3 130.958438 
L 83.3 136.238442 
L 83.3 141.51845 
L 83.3 146.798449 
L 83.3 151.619367 
L 86.996307 152.078451 
L 88.446002 152.24288 
L 93.591998 152.854446 
L 98.738002 153.51661 
L 103.884001 154.234153 
L 109.029999 155.012278 
L 114.176 155.856945 
L 119.321997 156.774741 
L 122.3938 157.358448 
L 124.467998 157.720699 
L 129.613998 158.669436 
L 134.759998 159.702306 
L 139.905999 160.828406 
L 145.052 162.058147 
L 147.343757 162.638446 
L 150.198015 163.307076 
L 155.343996 164.593447 
L 160.490016 166.002688 
L 165.635995 167.549735 
L 166.806034 167.918447 
L 170.782014 169.085251 
L 175.927993 170.724024 
L 181.074014 172.531389 
L 182.869292 173.198448 
L 186.219993 174.364901 
L 191.366011 176.301811 
L 196.511994 178.450419 
L 196.576845 178.478445 
L 201.658014 180.549076 
L 206.804015 182.881515 
L 208.625418 183.758427 
L 211.950011 185.276623 
L 217.096014 187.836376 
L 219.351269 189.038427 
L 222.242011 190.510196 
L 227.388013 193.356833 
L 229.022387 194.318425 
L 232.534012 196.310243 
L 237.68001 199.532072 
L 237.782063 199.598424 
L 242.826011 202.798912 
L 245.816309 204.878426 
L 247.971993 206.357835 
L 253.059257 210.158424 
L 253.117989 210.202294 
L 258.26399 214.232502 
L 259.694321 215.438426 
L 263.409992 218.639861 
L 265.665922 220.718422 
L 268.55599 223.490092 
L 271.023366 225.998423 
L 273.701987 228.892547 
L 275.805469 231.278444 
L 278.847989 235.035845 
L 280.035116 236.558426 
L 283.741045 241.838445 
L 283.993988 242.234974 
L 287.048064 247.118424 
L 289.139996 251.076666 
L 289.833885 252.398445 
L 292.26962 257.678423 
L 294.231915 262.958442 
L 294.285999 263.1266 
L 295.966985 268.238422 
L 297.344482 273.518441 
L 298.423558 278.798422 
L 299.261311 284.078437 
L 299.431998 285.413344 
L 299.966479 289.358439 
L 300.525077 294.638439 
L 300.953866 299.91844 
L 301.283233 305.19844 
L 301.536899 310.478441 
L 301.733157 315.758438 
L 301.885847 321.038439 
L 302.005543 326.318437 
L 302.100023 331.598435 
L 302.175281 336.878439 
L 302.235606 342.158436 
L 302.28449 347.438437 
z
" clip-path="url(#p5fdb71698d)" style="fill: #84d44b"/>
    <path d="M 330.307996 347.438437 
L 335.453997 347.438437 
L 340.599993 347.438437 
L 345.745992 347.438437 
L 350.891998 347.438437 
L 356.037999 347.438437 
L 361.158542 347.438437 
L 361.135454 342.158436 
L 361.107633 336.878439 
L 361.073727 331.598435 
L 361.031867 326.318437 
L 360.980141 321.038439 
L 360.915371 315.758438 
L 360.833683 310.478441 
L 360.729944 305.19844 
L 360.597367 299.91844 
L 360.42648 294.638439 
L 360.205309 289.358439 
L 359.9179 284.078437 
L 359.543647 278.798422 
L 359.057392 273.518441 
L 358.427787 268.238422 
L 357.618064 262.958442 
L 356.586844 257.678423 
L 356.037999 255.358848 
L 355.380338 252.398445 
L 353.963357 247.118424 
L 352.222121 241.838445 
L 350.891998 238.417352 
L 350.198863 236.558426 
L 347.954002 231.278444 
L 345.745992 226.856293 
L 345.329138 225.998423 
L 342.517504 220.718422 
L 340.599993 217.53117 
L 339.358422 215.438426 
L 335.903982 210.158424 
L 335.453997 209.508789 
L 332.25531 204.878426 
L 330.307996 202.269971 
L 328.305192 199.598424 
L 325.161998 195.647806 
L 324.093472 194.318425 
L 320.015998 189.46196 
L 319.654879 189.038427 
L 315.036286 183.758427 
L 314.869998 183.570642 
L 310.267823 178.478445 
L 309.723998 177.883462 
L 305.337802 173.198448 
L 304.577998 172.388988 
L 300.265332 167.918447 
L 299.431998 167.050992 
L 295.061016 162.638446 
L 294.285999 161.848758 
L 289.726606 157.358448 
L 289.139996 156.772949 
L 284.257087 152.078451 
L 283.993988 151.821212 
L 278.847989 146.970892 
L 278.657919 146.798449 
L 273.701987 142.200498 
L 272.931537 141.51845 
L 268.55599 137.543403 
L 267.046027 136.238442 
L 263.409992 133.001847 
L 260.990095 130.958438 
L 258.26399 128.578422 
L 254.752781 125.678439 
L 253.117989 124.27737 
L 248.321423 120.398439 
L 247.971993 120.104177 
L 242.826011 115.943424 
L 241.746559 115.11844 
L 237.68001 111.866331 
L 234.973537 109.83844 
L 232.534012 107.919965 
L 227.960249 104.558439 
L 227.388013 104.115708 
L 222.242011 100.310348 
L 220.75684 99.27844 
L 217.096014 96.590465 
L 213.292566 93.998441 
L 211.950011 93.029016 
L 206.804015 89.521407 
L 205.55636 88.718441 
L 201.658014 86.050908 
L 197.515175 83.438445 
L 196.511994 82.764209 
L 191.366011 79.480978 
L 189.140405 78.158445 
L 186.219993 76.303076 
L 181.074014 73.283046 
L 180.350322 72.878439 
L 175.927993 70.227317 
L 171.108162 67.598438 
L 170.782014 67.407226 
L 165.635995 64.515059 
L 161.336004 62.318442 
L 160.490016 61.852614 
L 155.343996 59.154557 
L 150.906412 57.038437 
L 150.198015 56.673313 
L 145.052 54.14255 
L 139.905999 51.855512 
L 139.678429 51.758443 
L 134.759998 49.484184 
L 129.613998 47.323654 
L 127.470007 46.478442 
L 124.467998 45.19193 
L 119.321997 43.140644 
L 114.176 41.275427 
L 113.954816 41.198439 
L 109.029999 39.329339 
L 103.884001 37.546936 
L 98.738002 35.92103 
L 98.729474 35.918436 
L 93.591998 34.209626 
L 88.446002 32.646817 
L 83.3 31.217488 
L 83.3 35.918436 
L 83.3 41.198439 
L 83.3 46.478442 
L 83.3 51.758443 
L 83.3 57.038437 
L 83.3 62.318442 
L 83.3 67.598438 
L 83.3 72.878439 
L 83.3 78.158445 
L 83.3 83.438445 
L 83.3 88.718441 
L 83.3 93.998441 
L 83.3 99.27844 
L 83.3 104.558439 
L 83.3 109.83844 
L 83.3 112.531698 
L 88.446002 113.292684 
L 93.591998 114.117301 
L 98.738002 115.011862 
L 99.327867 115.11844 
L 103.884001 115.869454 
L 109.029999 116.784738 
L 114.176 117.778798 
L 119.321997 118.859655 
L 124.467998 120.036308 
L 125.977142 120.398439 
L 129.613998 121.198301 
L 134.759998 122.412709 
L 139.905999 123.737655 
L 145.052 125.18554 
L 146.716508 125.678439 
L 150.198015 126.627929 
L 155.343996 128.136025 
L 160.490016 129.789344 
L 163.873553 130.958438 
L 165.635995 131.521956 
L 170.782014 133.259461 
L 175.927993 135.17228 
L 178.611237 136.238442 
L 181.074014 137.148771 
L 186.219993 139.179244 
L 191.366011 141.426824 
L 191.568447 141.51845 
L 196.511994 143.612349 
L 201.658014 146.026282 
L 203.215668 146.798449 
L 206.804015 148.471965 
L 211.950011 151.089548 
L 213.779725 152.078451 
L 217.096014 153.774208 
L 222.242011 156.641944 
L 223.462039 157.358448 
L 227.388013 159.552372 
L 232.400533 162.638446 
L 232.534012 162.716968 
L 237.68001 165.858306 
L 240.775472 167.918447 
L 242.826011 169.230015 
L 247.971993 172.766481 
L 248.573809 173.198448 
L 253.117989 176.353523 
L 255.957384 178.478445 
L 258.26399 180.157199 
L 262.87817 183.758427 
L 263.409992 184.164797 
L 268.55599 188.286145 
L 269.448152 189.038427 
L 273.701987 192.593478 
L 275.650104 194.318425 
L 278.847989 197.156265 
L 281.458648 199.598424 
L 283.993988 202.007062 
L 286.877175 204.878426 
L 289.139996 207.202302 
L 291.903556 210.158424 
L 294.285999 212.832609 
L 296.53127 215.438426 
L 299.431998 219.041481 
L 300.748666 220.718422 
L 304.539805 225.998423 
L 304.577998 226.055301 
L 308.047022 231.278444 
L 309.723998 234.161821 
L 311.117358 236.558426 
L 313.821192 241.838445 
L 314.869998 244.196919 
L 316.191345 247.118424 
L 318.232525 252.398445 
L 319.88777 257.678423 
L 320.015998 258.154299 
L 321.366399 262.958442 
L 322.552878 268.238422 
L 323.484735 273.518441 
L 324.209654 278.798422 
L 324.769612 284.078437 
L 325.161998 288.869551 
L 325.205231 289.358439 
L 325.581115 294.638439 
L 325.870099 299.91844 
L 326.092922 305.19844 
L 326.265616 310.478441 
L 326.400195 315.758438 
L 326.505845 321.038439 
L 326.589418 326.318437 
L 326.656063 331.598435 
L 326.709617 336.878439 
L 326.753014 342.158436 
L 326.788562 347.438437 
z
" clip-path="url(#p5fdb71698d)" style="fill: #a8db34"/>
    <path d="M 361.183996 347.438437 
L 366.33 347.438437 
L 371.475995 347.438437 
L 376.621996 347.438437 
L 381.767999 347.438437 
L 386.914001 347.438437 
L 392.059997 347.438437 
L 397.206001 347.438437 
L 402.351998 347.438437 
L 407.498 347.438437 
L 407.498 342.158436 
L 407.498 336.878439 
L 407.498 331.598435 
L 407.498 326.318437 
L 407.498 321.038439 
L 407.498 315.758438 
L 407.498 310.478441 
L 407.498 305.19844 
L 407.498 299.91844 
L 407.498 294.638439 
L 407.498 289.358439 
L 407.498 284.078437 
L 407.498 278.798422 
L 407.498 273.518441 
L 407.498 268.238422 
L 407.498 262.958442 
L 407.498 257.678423 
L 407.498 252.398445 
L 407.498 247.118424 
L 407.498 241.838445 
L 407.498 236.558426 
L 407.498 231.278444 
L 407.498 225.998423 
L 407.498 220.718422 
L 407.498 215.438426 
L 407.498 215.038608 
L 404.885022 210.158424 
L 402.351998 205.9808 
L 401.710775 204.878426 
L 398.4145 199.598424 
L 397.206001 197.798315 
L 394.946519 194.318425 
L 392.059997 190.202223 
L 391.26671 189.038427 
L 387.49011 183.758427 
L 386.914001 182.977416 
L 383.672026 178.478445 
L 381.767999 175.947147 
L 379.741655 173.198448 
L 376.621996 169.105096 
L 375.733223 167.918447 
L 371.701818 162.638446 
L 371.475995 162.341179 
L 367.751258 157.358448 
L 366.33 155.485774 
L 363.78076 152.078451 
L 361.183996 148.648289 
L 359.800931 146.798449 
L 356.037999 141.81283 
L 355.818162 141.51845 
L 351.947468 136.238442 
L 350.891998 134.801861 
L 348.096443 130.958438 
L 345.745992 127.750302 
L 344.240486 125.678439 
L 340.599993 120.697661 
L 340.382707 120.398439 
L 336.645898 115.11844 
L 335.453997 113.431039 
L 332.933055 109.83844 
L 330.307996 106.105815 
L 329.225378 104.558439 
L 325.56759 99.27844 
L 325.161998 98.6754 
L 322.034855 93.998441 
L 320.015998 90.97641 
L 318.514455 88.718441 
L 315.024953 83.438445 
L 314.869998 83.193623 
L 311.700865 78.158445 
L 309.723998 75.010639 
L 308.390782 72.878439 
L 305.147609 67.598438 
L 304.577998 66.634031 
L 302.042715 62.318442 
L 299.431998 57.864852 
L 298.949601 57.038437 
L 296.009731 51.758443 
L 294.285999 48.61873 
L 293.117065 46.478442 
L 290.324246 41.198439 
L 289.139996 38.886963 
L 287.628197 35.918436 
L 285.006688 30.638441 
L 283.993988 28.515413 
L 282.49815 25.358437 
L 280.06643 20.07844 
L 278.847989 17.332935 
L 277.73144 14.798437 
L 273.701987 14.798437 
L 268.55599 14.798437 
L 263.409992 14.798437 
L 258.26399 14.798437 
L 253.117989 14.798437 
L 247.971993 14.798437 
L 242.826011 14.798437 
L 237.68001 14.798437 
L 232.534012 14.798437 
L 227.388013 14.798437 
L 222.242011 14.798437 
L 217.096014 14.798437 
L 211.950011 14.798437 
L 206.804015 14.798437 
L 201.658014 14.798437 
L 196.511994 14.798437 
L 191.366011 14.798437 
L 186.219993 14.798437 
L 181.074014 14.798437 
L 175.927993 14.798437 
L 170.782014 14.798437 
L 165.635995 14.798437 
L 160.490016 14.798437 
L 155.343996 14.798437 
L 150.198015 14.798437 
L 145.052 14.798437 
L 139.905999 14.798437 
L 134.759998 14.798437 
L 129.613998 14.798437 
L 124.467998 14.798437 
L 119.321997 14.798437 
L 114.176 14.798437 
L 109.029999 14.798437 
L 103.884001 14.798437 
L 98.738002 14.798437 
L 93.591998 14.798437 
L 88.446002 14.798437 
L 83.3 14.798437 
L 83.3 20.07844 
L 83.3 25.358437 
L 83.3 30.638441 
L 83.3 31.217488 
L 88.446002 32.646817 
L 93.591998 34.209626 
L 98.729474 35.918436 
L 98.738002 35.92103 
L 103.884001 37.546936 
L 109.029999 39.329339 
L 113.954816 41.198439 
L 114.176 41.275427 
L 119.321997 43.140644 
L 124.467998 45.19193 
L 127.470007 46.478442 
L 129.613998 47.323654 
L 134.759998 49.484184 
L 139.678429 51.758443 
L 139.905999 51.855512 
L 145.052 54.14255 
L 150.198015 56.673313 
L 150.906412 57.038437 
L 155.343996 59.154557 
L 160.490016 61.852614 
L 161.336004 62.318442 
L 165.635995 64.515059 
L 170.782014 67.407226 
L 171.108162 67.598438 
L 175.927993 70.227317 
L 180.350322 72.878439 
L 181.074014 73.283046 
L 186.219993 76.303076 
L 189.140405 78.158445 
L 191.366011 79.480978 
L 196.511994 82.764209 
L 197.515175 83.438445 
L 201.658014 86.050908 
L 205.55636 88.718441 
L 206.804015 89.521407 
L 211.950011 93.029016 
L 213.292566 93.998441 
L 217.096014 96.590465 
L 220.75684 99.27844 
L 222.242011 100.310348 
L 227.388013 104.115708 
L 227.960249 104.558439 
L 232.534012 107.919965 
L 234.973537 109.83844 
L 237.68001 111.866331 
L 241.746559 115.11844 
L 242.826011 115.943424 
L 247.971993 120.104177 
L 248.321423 120.398439 
L 253.117989 124.27737 
L 254.752781 125.678439 
L 258.26399 128.578422 
L 260.990095 130.958438 
L 263.409992 133.001847 
L 267.046027 136.238442 
L 268.55599 137.543403 
L 272.931537 141.51845 
L 273.701987 142.200498 
L 278.657919 146.798449 
L 278.847989 146.970892 
L 283.993988 151.821212 
L 284.257087 152.078451 
L 289.139996 156.772949 
L 289.726606 157.358448 
L 294.285999 161.848758 
L 295.061016 162.638446 
L 299.431998 167.050992 
L 300.265332 167.918447 
L 304.577998 172.388988 
L 305.337802 173.198448 
L 309.723998 177.883462 
L 310.267823 178.478445 
L 314.869998 183.570642 
L 315.036286 183.758427 
L 319.654879 189.038427 
L 320.015998 189.46196 
L 324.093472 194.318425 
L 325.161998 195.647806 
L 328.305192 199.598424 
L 330.307996 202.269971 
L 332.25531 204.878426 
L 335.453997 209.508789 
L 335.903982 210.158424 
L 339.358422 215.438426 
L 340.599993 217.53117 
L 342.517504 220.718422 
L 345.329138 225.998423 
L 345.745992 226.856293 
L 347.954002 231.278444 
L 350.198863 236.558426 
L 350.891998 238.417352 
L 352.222121 241.838445 
L 353.963357 247.118424 
L 355.380338 252.398445 
L 356.037999 255.358848 
L 356.586844 257.678423 
L 357.618064 262.958442 
L 358.427787 268.238422 
L 359.057392 273.518441 
L 359.543647 278.798422 
L 359.9179 284.078437 
L 360.205309 289.358439 
L 360.42648 294.638439 
L 360.597367 299.91844 
L 360.729944 305.19844 
L 360.833683 310.478441 
L 360.915371 315.758438 
L 360.980141 321.038439 
L 361.031867 326.318437 
L 361.073727 331.598435 
L 361.107633 336.878439 
L 361.135454 342.158436 
L 361.158542 347.438437 
z
" clip-path="url(#p5fdb71698d)" style="fill: #cae11f"/>
    <path d="M 407.498 215.038608 
L 407.498 210.158424 
L 407.498 204.878426 
L 407.498 199.598424 
L 407.498 194.318425 
L 407.498 189.038427 
L 407.498 183.758427 
L 407.498 178.478445 
L 407.498 173.198448 
L 407.498 167.918447 
L 407.498 162.638446 
L 407.498 157.358448 
L 407.498 152.078451 
L 407.498 146.798449 
L 407.498 141.51845 
L 407.498 136.238442 
L 407.498 130.958438 
L 407.498 125.678439 
L 407.498 120.398439 
L 407.498 115.11844 
L 407.498 109.83844 
L 407.498 104.558439 
L 407.498 99.27844 
L 407.498 93.998441 
L 407.498 88.718441 
L 407.498 83.438445 
L 407.498 78.158445 
L 407.498 72.878439 
L 407.498 67.598438 
L 407.498 62.318442 
L 407.498 57.038437 
L 407.498 51.758443 
L 407.498 46.478442 
L 407.498 41.198439 
L 407.498 35.918436 
L 407.498 30.638441 
L 407.498 25.358437 
L 407.498 20.07844 
L 407.498 14.798437 
L 402.351998 14.798437 
L 397.206001 14.798437 
L 392.059997 14.798437 
L 386.914001 14.798437 
L 381.767999 14.798437 
L 376.621996 14.798437 
L 371.475995 14.798437 
L 366.33 14.798437 
L 361.183996 14.798437 
L 356.037999 14.798437 
L 350.891998 14.798437 
L 345.745992 14.798437 
L 340.599993 14.798437 
L 335.453997 14.798437 
L 330.307996 14.798437 
L 325.161998 14.798437 
L 320.015998 14.798437 
L 314.869998 14.798437 
L 309.723998 14.798437 
L 304.577998 14.798437 
L 299.431998 14.798437 
L 294.285999 14.798437 
L 289.139996 14.798437 
L 283.993988 14.798437 
L 278.847989 14.798437 
L 277.73144 14.798437 
L 278.847989 17.332935 
L 280.06643 20.07844 
L 282.49815 25.358437 
L 283.993988 28.515413 
L 285.006688 30.638441 
L 287.628197 35.918436 
L 289.139996 38.886963 
L 290.324246 41.198439 
L 293.117065 46.478442 
L 294.285999 48.61873 
L 296.009731 51.758443 
L 298.949601 57.038437 
L 299.431998 57.864852 
L 302.042715 62.318442 
L 304.577998 66.634031 
L 305.147609 67.598438 
L 308.390782 72.878439 
L 309.723998 75.010639 
L 311.700865 78.158445 
L 314.869998 83.193623 
L 315.024953 83.438445 
L 318.514455 88.718441 
L 320.015998 90.97641 
L 322.034855 93.998441 
L 325.161998 98.6754 
L 325.56759 99.27844 
L 329.225378 104.558439 
L 330.307996 106.105815 
L 332.933055 109.83844 
L 335.453997 113.431039 
L 336.645898 115.11844 
L 340.382707 120.398439 
L 340.599993 120.697661 
L 344.240486 125.678439 
L 345.745992 127.750302 
L 348.096443 130.958438 
L 350.891998 134.801861 
L 351.947468 136.238442 
L 355.818162 141.51845 
L 356.037999 141.81283 
L 359.800931 146.798449 
L 361.183996 148.648289 
L 363.78076 152.078451 
L 366.33 155.485774 
L 367.751258 157.358448 
L 371.475995 162.341179 
L 371.701818 162.638446 
L 375.733223 167.918447 
L 376.621996 169.105096 
L 379.741655 173.198448 
L 381.767999 175.947147 
L 383.672026 178.478445 
L 386.914001 182.977416 
L 387.49011 183.758427 
L 391.26671 189.038427 
L 392.059997 190.202223 
L 394.946519 194.318425 
L 397.206001 197.798315 
L 398.4145 199.598424 
L 401.710775 204.878426 
L 402.351998 205.9808 
L 404.885022 210.158424 
z
" clip-path="url(#p5fdb71698d)" style="fill: #efe51c"/>
   </g>
   <g id="matplotlib.axis_1">
    <g id="xtick_1">
     <g id="line2d_1">
      <defs>
       <path id="me54c61197d" d="M 0 0 
L 0 2 
" style="stroke: #000000; stroke-width: 1.5"/>
      </defs>
      <g>
       <use xlink:href="#me54c61197d" x="83.300002" y="347.438437" style="stroke: #000000; stroke-width: 1.5"/>
      </g>
     </g>
     <g id="text_1">
      <!-- $\mathdefault{10^{-2}}$ -->
      <g transform="translate(59.800002 368.135312) scale(0.2 -0.2)">
       <defs>
        <path id="DejaVuSans-31" d="M 794 531 
L 1825 531 
L 1825 4091 
L 703 3866 
L 703 4441 
L 1819 4666 
L 2450 4666 
L 2450 531 
L 3481 531 
L 3481 0 
L 794 0 
L 794 531 
z
" transform="scale(0.015625)"/>
        <path id="DejaVuSans-30" d="M 2034 4250 
Q 1547 4250 1301 3770 
Q 1056 3291 1056 2328 
Q 1056 1369 1301 889 
Q 1547 409 2034 409 
Q 2525 409 2770 889 
Q 3016 1369 3016 2328 
Q 3016 3291 2770 3770 
Q 2525 4250 2034 4250 
z
M 2034 4750 
Q 2819 4750 3233 4129 
Q 3647 3509 3647 2328 
Q 3647 1150 3233 529 
Q 2819 -91 2034 -91 
Q 1250 -91 836 529 
Q 422 1150 422 2328 
Q 422 3509 836 4129 
Q 1250 4750 2034 4750 
z
" transform="scale(0.015625)"/>
        <path id="DejaVuSans-2212" d="M 678 2272 
L 4684 2272 
L 4684 1741 
L 678 1741 
L 678 2272 
z
" transform="scale(0.015625)"/>
        <path id="DejaVuSans-32" d="M 1228 531 
L 3431 531 
L 3431 0 
L 469 0 
L 469 531 
Q 828 903 1448 1529 
Q 2069 2156 2228 2338 
Q 2531 2678 2651 2914 
Q 2772 3150 2772 3378 
Q 2772 3750 2511 3984 
Q 2250 4219 1831 4219 
Q 1534 4219 1204 4116 
Q 875 4013 500 3803 
L 500 4441 
Q 881 4594 1212 4672 
Q 1544 4750 1819 4750 
Q 2544 4750 2975 4387 
Q 3406 4025 3406 3419 
Q 3406 3131 3298 2873 
Q 3191 2616 2906 2266 
Q 2828 2175 2409 1742 
Q 1991 1309 1228 531 
z
" transform="scale(0.015625)"/>
       </defs>
       <use xlink:href="#DejaVuSans-31" transform="translate(0 0.765625)"/>
       <use xlink:href="#DejaVuSans-30" transform="translate(63.623047 0.765625)"/>
       <use xlink:href="#DejaVuSans-2212" transform="translate(128.203125 39.046875) scale(0.7)"/>
       <use xlink:href="#DejaVuSans-32" transform="translate(186.855469 39.046875) scale(0.7)"/>
      </g>
     </g>
    </g>
    <g id="xtick_2">
     <g id="line2d_2">
      <g>
       <use xlink:href="#me54c61197d" x="245.399001" y="347.438437" style="stroke: #000000; stroke-width: 1.5"/>
      </g>
     </g>
     <g id="text_2">
      <!-- $\mathdefault{10^{-1}}$ -->
      <g transform="translate(221.899001 368.135312) scale(0.2 -0.2)">
       <use xlink:href="#DejaVuSans-31" transform="translate(0 0.684375)"/>
       <use xlink:href="#DejaVuSans-30" transform="translate(63.623047 0.684375)"/>
       <use xlink:href="#DejaVuSans-2212" transform="translate(128.203125 38.965625) scale(0.7)"/>
       <use xlink:href="#DejaVuSans-31" transform="translate(186.855469 38.965625) scale(0.7)"/>
      </g>
     </g>
    </g>
    <g id="xtick_3">
     <g id="line2d_3">
      <g>
       <use xlink:href="#me54c61197d" x="407.498" y="347.438437" style="stroke: #000000; stroke-width: 1.5"/>
      </g>
     </g>
     <g id="text_3">
      <!-- $\mathdefault{10^{0}}$ -->
      <g transform="translate(389.898 368.135312) scale(0.2 -0.2)">
       <use xlink:href="#DejaVuSans-31" transform="translate(0 0.765625)"/>
       <use xlink:href="#DejaVuSans-30" transform="translate(63.623047 0.765625)"/>
       <use xlink:href="#DejaVuSans-30" transform="translate(128.203125 39.046875) scale(0.7)"/>
      </g>
     </g>
    </g>
    <g id="xtick_4">
     <g id="line2d_4">
      <defs>
       <path id="m79be4fb16d" d="M 0 0 
L 0 2 
" style="stroke: #000000; stroke-width: 0.6"/>
      </defs>
      <g>
       <use xlink:href="#m79be4fb16d" x="132.096663" y="347.438437" style="stroke: #000000; stroke-width: 0.6"/>
      </g>
     </g>
    </g>
    <g id="xtick_5">
     <g id="line2d_5">
      <g>
       <use xlink:href="#m79be4fb16d" x="160.640879" y="347.438437" style="stroke: #000000; stroke-width: 0.6"/>
      </g>
     </g>
    </g>
    <g id="xtick_6">
     <g id="line2d_6">
      <g>
       <use xlink:href="#m79be4fb16d" x="180.893324" y="347.438437" style="stroke: #000000; stroke-width: 0.6"/>
      </g>
     </g>
    </g>
    <g id="xtick_7">
     <g id="line2d_7">
      <g>
       <use xlink:href="#m79be4fb16d" x="196.60234" y="347.438437" style="stroke: #000000; stroke-width: 0.6"/>
      </g>
     </g>
    </g>
    <g id="xtick_8">
     <g id="line2d_8">
      <g>
       <use xlink:href="#m79be4fb16d" x="209.43754" y="347.438437" style="stroke: #000000; stroke-width: 0.6"/>
      </g>
     </g>
    </g>
    <g id="xtick_9">
     <g id="line2d_9">
      <g>
       <use xlink:href="#m79be4fb16d" x="220.289548" y="347.438437" style="stroke: #000000; stroke-width: 0.6"/>
      </g>
     </g>
    </g>
    <g id="xtick_10">
     <g id="line2d_10">
      <g>
       <use xlink:href="#m79be4fb16d" x="229.689985" y="347.438437" style="stroke: #000000; stroke-width: 0.6"/>
      </g>
     </g>
    </g>
    <g id="xtick_11">
     <g id="line2d_11">
      <g>
       <use xlink:href="#m79be4fb16d" x="237.981757" y="347.438437" style="stroke: #000000; stroke-width: 0.6"/>
      </g>
     </g>
    </g>
    <g id="xtick_12">
     <g id="line2d_12">
      <g>
       <use xlink:href="#m79be4fb16d" x="294.195662" y="347.438437" style="stroke: #000000; stroke-width: 0.6"/>
      </g>
     </g>
    </g>
    <g id="xtick_13">
     <g id="line2d_13">
      <g>
       <use xlink:href="#m79be4fb16d" x="322.739879" y="347.438437" style="stroke: #000000; stroke-width: 0.6"/>
      </g>
     </g>
    </g>
    <g id="xtick_14">
     <g id="line2d_14">
      <g>
       <use xlink:href="#m79be4fb16d" x="342.992323" y="347.438437" style="stroke: #000000; stroke-width: 0.6"/>
      </g>
     </g>
    </g>
    <g id="xtick_15">
     <g id="line2d_15">
      <g>
       <use xlink:href="#m79be4fb16d" x="358.701339" y="347.438437" style="stroke: #000000; stroke-width: 0.6"/>
      </g>
     </g>
    </g>
    <g id="xtick_16">
     <g id="line2d_16">
      <g>
       <use xlink:href="#m79be4fb16d" x="371.53654" y="347.438437" style="stroke: #000000; stroke-width: 0.6"/>
      </g>
     </g>
    </g>
    <g id="xtick_17">
     <g id="line2d_17">
      <g>
       <use xlink:href="#m79be4fb16d" x="382.388547" y="347.438437" style="stroke: #000000; stroke-width: 0.6"/>
      </g>
     </g>
    </g>
    <g id="xtick_18">
     <g id="line2d_18">
      <g>
       <use xlink:href="#m79be4fb16d" x="391.788984" y="347.438437" style="stroke: #000000; stroke-width: 0.6"/>
      </g>
     </g>
    </g>
    <g id="xtick_19">
     <g id="line2d_19">
      <g>
       <use xlink:href="#m79be4fb16d" x="400.080757" y="347.438437" style="stroke: #000000; stroke-width: 0.6"/>
      </g>
     </g>
    </g>
    <g id="text_4">
     <!-- $\lambda$ -->
     <g transform="translate(239.399 391.491562) scale(0.2 -0.2)">
      <defs>
       <path id="DejaVuSans-Oblique-3bb" d="M 2350 4316 
L 3125 0 
L 2516 0 
L 2038 2588 
L 328 0 
L -281 0 
L 1903 3356 
L 1794 3975 
Q 1725 4369 1391 4369 
L 1091 4369 
L 1184 4863 
L 1550 4856 
Q 2253 4847 2350 4316 
z
" transform="scale(0.015625)"/>
      </defs>
      <use xlink:href="#DejaVuSans-Oblique-3bb" transform="translate(0 0.015625)"/>
     </g>
    </g>
   </g>
   <g id="matplotlib.axis_2">
    <g id="ytick_1">
     <g id="line2d_20">
      <defs>
       <path id="m63f4af981a" d="M 0 0 
L -2 0 
" style="stroke: #000000; stroke-width: 1.5"/>
      </defs>
      <g>
       <use xlink:href="#m63f4af981a" x="83.3" y="347.438436" style="stroke: #000000; stroke-width: 1.5"/>
      </g>
     </g>
     <g id="text_5">
      <!-- $\mathdefault{10^{-2}}$ -->
      <g transform="translate(30.8 355.036873) scale(0.2 -0.2)">
       <use xlink:href="#DejaVuSans-31" transform="translate(0 0.765625)"/>
       <use xlink:href="#DejaVuSans-30" transform="translate(63.623047 0.765625)"/>
       <use xlink:href="#DejaVuSans-2212" transform="translate(128.203125 39.046875) scale(0.7)"/>
       <use xlink:href="#DejaVuSans-32" transform="translate(186.855469 39.046875) scale(0.7)"/>
      </g>
     </g>
    </g>
    <g id="ytick_2">
     <g id="line2d_21">
      <g>
       <use xlink:href="#m63f4af981a" x="83.3" y="181.118437" style="stroke: #000000; stroke-width: 1.5"/>
      </g>
     </g>
     <g id="text_6">
      <!-- $\mathdefault{10^{-1}}$ -->
      <g transform="translate(30.8 188.716874) scale(0.2 -0.2)">
       <use xlink:href="#DejaVuSans-31" transform="translate(0 0.684375)"/>
       <use xlink:href="#DejaVuSans-30" transform="translate(63.623047 0.684375)"/>
       <use xlink:href="#DejaVuSans-2212" transform="translate(128.203125 38.965625) scale(0.7)"/>
       <use xlink:href="#DejaVuSans-31" transform="translate(186.855469 38.965625) scale(0.7)"/>
      </g>
     </g>
    </g>
    <g id="ytick_3">
     <g id="line2d_22">
      <g>
       <use xlink:href="#m63f4af981a" x="83.3" y="14.798437" style="stroke: #000000; stroke-width: 1.5"/>
      </g>
     </g>
     <g id="text_7">
      <!-- $\mathdefault{10^{0}}$ -->
      <g transform="translate(42.6 22.396875) scale(0.2 -0.2)">
       <use xlink:href="#DejaVuSans-31" transform="translate(0 0.765625)"/>
       <use xlink:href="#DejaVuSans-30" transform="translate(63.623047 0.765625)"/>
       <use xlink:href="#DejaVuSans-30" transform="translate(128.203125 39.046875) scale(0.7)"/>
      </g>
     </g>
    </g>
    <g id="ytick_4">
     <g id="line2d_23">
      <defs>
       <path id="mfc4fca165f" d="M 0 0 
L -2 0 
" style="stroke: #000000; stroke-width: 0.6"/>
      </defs>
      <g>
       <use xlink:href="#mfc4fca165f" x="83.3" y="297.371127" style="stroke: #000000; stroke-width: 0.6"/>
      </g>
     </g>
    </g>
    <g id="ytick_5">
     <g id="line2d_24">
      <g>
       <use xlink:href="#mfc4fca165f" x="83.3" y="268.083629" style="stroke: #000000; stroke-width: 0.6"/>
      </g>
     </g>
    </g>
    <g id="ytick_6">
     <g id="line2d_25">
      <g>
       <use xlink:href="#mfc4fca165f" x="83.3" y="247.303819" style="stroke: #000000; stroke-width: 0.6"/>
      </g>
     </g>
    </g>
    <g id="ytick_7">
     <g id="line2d_26">
      <g>
       <use xlink:href="#mfc4fca165f" x="83.3" y="231.185745" style="stroke: #000000; stroke-width: 0.6"/>
      </g>
     </g>
    </g>
    <g id="ytick_8">
     <g id="line2d_27">
      <g>
       <use xlink:href="#mfc4fca165f" x="83.3" y="218.016321" style="stroke: #000000; stroke-width: 0.6"/>
      </g>
     </g>
    </g>
    <g id="ytick_9">
     <g id="line2d_28">
      <g>
       <use xlink:href="#mfc4fca165f" x="83.3" y="206.881731" style="stroke: #000000; stroke-width: 0.6"/>
      </g>
     </g>
    </g>
    <g id="ytick_10">
     <g id="line2d_29">
      <g>
       <use xlink:href="#mfc4fca165f" x="83.3" y="197.23651" style="stroke: #000000; stroke-width: 0.6"/>
      </g>
     </g>
    </g>
    <g id="ytick_11">
     <g id="line2d_30">
      <g>
       <use xlink:href="#mfc4fca165f" x="83.3" y="188.728822" style="stroke: #000000; stroke-width: 0.6"/>
      </g>
     </g>
    </g>
    <g id="ytick_12">
     <g id="line2d_31">
      <g>
       <use xlink:href="#mfc4fca165f" x="83.3" y="131.051128" style="stroke: #000000; stroke-width: 0.6"/>
      </g>
     </g>
    </g>
    <g id="ytick_13">
     <g id="line2d_32">
      <g>
       <use xlink:href="#mfc4fca165f" x="83.3" y="101.76363" style="stroke: #000000; stroke-width: 0.6"/>
      </g>
     </g>
    </g>
    <g id="ytick_14">
     <g id="line2d_33">
      <g>
       <use xlink:href="#mfc4fca165f" x="83.3" y="80.983819" style="stroke: #000000; stroke-width: 0.6"/>
      </g>
     </g>
    </g>
    <g id="ytick_15">
     <g id="line2d_34">
      <g>
       <use xlink:href="#mfc4fca165f" x="83.3" y="64.865746" style="stroke: #000000; stroke-width: 0.6"/>
      </g>
     </g>
    </g>
    <g id="ytick_16">
     <g id="line2d_35">
      <g>
       <use xlink:href="#mfc4fca165f" x="83.3" y="51.696321" style="stroke: #000000; stroke-width: 0.6"/>
      </g>
     </g>
    </g>
    <g id="ytick_17">
     <g id="line2d_36">
      <g>
       <use xlink:href="#mfc4fca165f" x="83.3" y="40.561731" style="stroke: #000000; stroke-width: 0.6"/>
      </g>
     </g>
    </g>
    <g id="ytick_18">
     <g id="line2d_37">
      <g>
       <use xlink:href="#mfc4fca165f" x="83.3" y="30.916511" style="stroke: #000000; stroke-width: 0.6"/>
      </g>
     </g>
    </g>
    <g id="ytick_19">
     <g id="line2d_38">
      <g>
       <use xlink:href="#mfc4fca165f" x="83.3" y="22.408823" style="stroke: #000000; stroke-width: 0.6"/>
      </g>
     </g>
    </g>
    <g id="text_8">
     <!-- $\beta$ -->
     <g transform="translate(22.6 187.518437) rotate(-90) scale(0.2 -0.2)">
      <defs>
       <path id="DejaVuSans-Oblique-3b2" d="M 872 216 
L 572 -1331 
L -6 -1331 
L 928 3478 
Q 1206 4903 2538 4903 
Q 3888 4903 3659 3700 
Q 3503 2844 2894 2531 
Q 3713 2250 3553 1416 
Q 3272 -69 1759 -66 
Q 1097 -63 872 216 
z
M 1019 966 
Q 1259 422 1875 425 
Q 2775 425 2966 1406 
Q 3138 2288 1675 2219 
L 1778 2750 
Q 2909 2731 3106 3750 
Q 3241 4438 2509 4434 
Q 1691 4434 1503 3459 
L 1019 966 
z
" transform="scale(0.015625)"/>
      </defs>
      <use xlink:href="#DejaVuSans-Oblique-3b2" transform="translate(0 0.390625)"/>
     </g>
    </g>
   </g>
   <g id="patch_3">
    <path d="M 83.3 347.438437 
L 83.3 14.798437 
" style="fill: none; stroke: #000000; stroke-width: 0.8; stroke-linejoin: miter; stroke-linecap: square"/>
   </g>
   <g id="patch_4">
    <path d="M 407.498 347.438437 
L 407.498 14.798437 
" style="fill: none; stroke: #000000; stroke-width: 0.8; stroke-linejoin: miter; stroke-linecap: square"/>
   </g>
   <g id="patch_5">
    <path d="M 83.3 347.438437 
L 407.498 347.438437 
" style="fill: none; stroke: #000000; stroke-width: 0.8; stroke-linejoin: miter; stroke-linecap: square"/>
   </g>
   <g id="patch_6">
    <path d="M 83.3 14.798437 
L 407.498 14.798437 
" style="fill: none; stroke: #000000; stroke-width: 0.8; stroke-linejoin: miter; stroke-linecap: square"/>
   </g>
   <g id="text_9">
    <!-- $p_{A}$ -->
    <g transform="translate(358.701339 64.865746) scale(0.25 -0.25)">
     <defs>
      <path id="DejaVuSans-Oblique-70" d="M 3175 2156 
Q 3175 2616 2975 2859 
Q 2775 3103 2400 3103 
Q 2144 3103 1911 2972 
Q 1678 2841 1497 2591 
Q 1319 2344 1212 1994 
Q 1106 1644 1106 1300 
Q 1106 863 1306 627 
Q 1506 391 1875 391 
Q 2147 391 2380 519 
Q 2613 647 2778 891 
Q 2956 1147 3065 1494 
Q 3175 1841 3175 2156 
z
M 1394 2969 
Q 1625 3272 1939 3428 
Q 2253 3584 2638 3584 
Q 3175 3584 3472 3232 
Q 3769 2881 3769 2247 
Q 3769 1728 3584 1258 
Q 3400 788 3053 416 
Q 2822 169 2531 39 
Q 2241 -91 1919 -91 
Q 1547 -91 1294 64 
Q 1041 219 916 525 
L 556 -1331 
L -19 -1331 
L 922 3500 
L 1497 3500 
L 1394 2969 
z
" transform="scale(0.015625)"/>
      <path id="DejaVuSans-Oblique-41" d="M 2356 4666 
L 3072 4666 
L 3938 0 
L 3278 0 
L 3084 1197 
L 984 1197 
L 325 0 
L -341 0 
L 2356 4666 
z
M 2584 4044 
L 1275 1722 
L 2988 1722 
L 2584 4044 
z
" transform="scale(0.015625)"/>
     </defs>
     <use xlink:href="#DejaVuSans-Oblique-70"/>
     <use xlink:href="#DejaVuSans-Oblique-41" transform="translate(63.476562 -16.40625) scale(0.7)"/>
    </g>
   </g>
  </g>
  <g id="axes_2">
   <g id="patch_7">
    <path d="M 415.31 330.806438 
L 430.2788 330.806438 
L 430.2788 31.430438 
L 415.31 31.430438 
z
" style="fill: #ffffff"/>
   </g>
   <g id="QuadMesh_1">
    <path d="M 415.31 330.806438 
L 430.2788 330.806438 
L 430.2788 315.049806 
L 415.31 315.049806 
L 415.31 330.806438 
" clip-path="url(#pfa20b89c60)" style="fill: #460a5d"/>
    <path d="M 415.31 315.049806 
L 430.2788 315.049806 
L 430.2788 299.293174 
L 415.31 299.293174 
L 415.31 315.049806 
" clip-path="url(#pfa20b89c60)" style="fill: #481d6f"/>
    <path d="M 415.31 299.293174 
L 430.2788 299.293174 
L 430.2788 283.536543 
L 415.31 283.536543 
L 415.31 299.293174 
" clip-path="url(#pfa20b89c60)" style="fill: #472e7c"/>
    <path d="M 415.31 283.536543 
L 430.2788 283.536543 
L 430.2788 267.779911 
L 415.31 267.779911 
L 415.31 283.536543 
" clip-path="url(#pfa20b89c60)" style="fill: #423f85"/>
    <path d="M 415.31 267.779911 
L 430.2788 267.779911 
L 430.2788 252.02328 
L 415.31 252.02328 
L 415.31 267.779911 
" clip-path="url(#pfa20b89c60)" style="fill: #3d4e8a"/>
    <path d="M 415.31 252.02328 
L 430.2788 252.02328 
L 430.2788 236.266648 
L 415.31 236.266648 
L 415.31 252.02328 
" clip-path="url(#pfa20b89c60)" style="fill: #365d8d"/>
    <path d="M 415.31 236.266648 
L 430.2788 236.266648 
L 430.2788 220.510016 
L 415.31 220.510016 
L 415.31 236.266648 
" clip-path="url(#pfa20b89c60)" style="fill: #306a8e"/>
    <path d="M 415.31 220.510016 
L 430.2788 220.510016 
L 430.2788 204.753385 
L 415.31 204.753385 
L 415.31 220.510016 
" clip-path="url(#pfa20b89c60)" style="fill: #2a778e"/>
    <path d="M 415.31 204.753385 
L 430.2788 204.753385 
L 430.2788 188.996753 
L 415.31 188.996753 
L 415.31 204.753385 
" clip-path="url(#pfa20b89c60)" style="fill: #25838e"/>
    <path d="M 415.31 188.996753 
L 430.2788 188.996753 
L 430.2788 173.240122 
L 415.31 173.240122 
L 415.31 188.996753 
" clip-path="url(#pfa20b89c60)" style="fill: #21918c"/>
    <path d="M 415.31 173.240122 
L 430.2788 173.240122 
L 430.2788 157.48349 
L 415.31 157.48349 
L 415.31 173.240122 
" clip-path="url(#pfa20b89c60)" style="fill: #1e9d89"/>
    <path d="M 415.31 157.48349 
L 430.2788 157.48349 
L 430.2788 141.726859 
L 415.31 141.726859 
L 415.31 157.48349 
" clip-path="url(#pfa20b89c60)" style="fill: #23a983"/>
    <path d="M 415.31 141.726859 
L 430.2788 141.726859 
L 430.2788 125.970227 
L 415.31 125.970227 
L 415.31 141.726859 
" clip-path="url(#pfa20b89c60)" style="fill: #32b67a"/>
    <path d="M 415.31 125.970227 
L 430.2788 125.970227 
L 430.2788 110.213595 
L 415.31 110.213595 
L 415.31 125.970227 
" clip-path="url(#pfa20b89c60)" style="fill: #48c16e"/>
    <path d="M 415.31 110.213595 
L 430.2788 110.213595 
L 430.2788 94.456964 
L 415.31 94.456964 
L 415.31 110.213595 
" clip-path="url(#pfa20b89c60)" style="fill: #65cb5e"/>
    <path d="M 415.31 94.456964 
L 430.2788 94.456964 
L 430.2788 78.700332 
L 415.31 78.700332 
L 415.31 94.456964 
" clip-path="url(#pfa20b89c60)" style="fill: #84d44b"/>
    <path d="M 415.31 78.700332 
L 430.2788 78.700332 
L 430.2788 62.943701 
L 415.31 62.943701 
L 415.31 78.700332 
" clip-path="url(#pfa20b89c60)" style="fill: #a8db34"/>
    <path d="M 415.31 62.943701 
L 430.2788 62.943701 
L 430.2788 47.187069 
L 415.31 47.187069 
L 415.31 62.943701 
" clip-path="url(#pfa20b89c60)" style="fill: #cae11f"/>
    <path d="M 415.31 47.187069 
L 430.2788 47.187069 
L 430.2788 31.430438 
L 415.31 31.430438 
L 415.31 47.187069 
" clip-path="url(#pfa20b89c60)" style="fill: #efe51c"/>
   </g>
   <g id="matplotlib.axis_3"/>
   <g id="matplotlib.axis_4">
    <g id="ytick_20">
     <g id="line2d_39">
      <defs>
       <path id="m5f2518b3c4" d="M 0 0 
L 6 0 
" style="stroke: #000000; stroke-width: 1.5"/>
      </defs>
      <g>
       <use xlink:href="#m5f2518b3c4" x="430.2788" y="330.806438" style="stroke: #000000; stroke-width: 1.5"/>
      </g>
     </g>
     <g id="text_10">
      <!-- 0.00 -->
      <g transform="translate(439.7788 335.745422) scale(0.13 -0.13)">
       <defs>
        <path id="DejaVuSans-2e" d="M 684 794 
L 1344 794 
L 1344 0 
L 684 0 
L 684 794 
z
" transform="scale(0.015625)"/>
       </defs>
       <use xlink:href="#DejaVuSans-30"/>
       <use xlink:href="#DejaVuSans-2e" transform="translate(63.623047 0)"/>
       <use xlink:href="#DejaVuSans-30" transform="translate(95.410156 0)"/>
       <use xlink:href="#DejaVuSans-30" transform="translate(159.033203 0)"/>
      </g>
     </g>
    </g>
    <g id="ytick_21">
     <g id="line2d_40">
      <g>
       <use xlink:href="#m5f2518b3c4" x="430.2788" y="255.962438" style="stroke: #000000; stroke-width: 1.5"/>
      </g>
     </g>
     <g id="text_11">
      <!-- 0.25 -->
      <g transform="translate(439.7788 260.901422) scale(0.13 -0.13)">
       <defs>
        <path id="DejaVuSans-35" d="M 691 4666 
L 3169 4666 
L 3169 4134 
L 1269 4134 
L 1269 2991 
Q 1406 3038 1543 3061 
Q 1681 3084 1819 3084 
Q 2600 3084 3056 2656 
Q 3513 2228 3513 1497 
Q 3513 744 3044 326 
Q 2575 -91 1722 -91 
Q 1428 -91 1123 -41 
Q 819 9 494 109 
L 494 744 
Q 775 591 1075 516 
Q 1375 441 1709 441 
Q 2250 441 2565 725 
Q 2881 1009 2881 1497 
Q 2881 1984 2565 2268 
Q 2250 2553 1709 2553 
Q 1456 2553 1204 2497 
Q 953 2441 691 2322 
L 691 4666 
z
" transform="scale(0.015625)"/>
       </defs>
       <use xlink:href="#DejaVuSans-30"/>
       <use xlink:href="#DejaVuSans-2e" transform="translate(63.623047 0)"/>
       <use xlink:href="#DejaVuSans-32" transform="translate(95.410156 0)"/>
       <use xlink:href="#DejaVuSans-35" transform="translate(159.033203 0)"/>
      </g>
     </g>
    </g>
    <g id="ytick_22">
     <g id="line2d_41">
      <g>
       <use xlink:href="#m5f2518b3c4" x="430.2788" y="181.118438" style="stroke: #000000; stroke-width: 1.5"/>
      </g>
     </g>
     <g id="text_12">
      <!-- 0.50 -->
      <g transform="translate(439.7788 186.057422) scale(0.13 -0.13)">
       <use xlink:href="#DejaVuSans-30"/>
       <use xlink:href="#DejaVuSans-2e" transform="translate(63.623047 0)"/>
       <use xlink:href="#DejaVuSans-35" transform="translate(95.410156 0)"/>
       <use xlink:href="#DejaVuSans-30" transform="translate(159.033203 0)"/>
      </g>
     </g>
    </g>
    <g id="ytick_23">
     <g id="line2d_42">
      <g>
       <use xlink:href="#m5f2518b3c4" x="430.2788" y="106.274438" style="stroke: #000000; stroke-width: 1.5"/>
      </g>
     </g>
     <g id="text_13">
      <!-- 0.75 -->
      <g transform="translate(439.7788 111.213422) scale(0.13 -0.13)">
       <defs>
        <path id="DejaVuSans-37" d="M 525 4666 
L 3525 4666 
L 3525 4397 
L 1831 0 
L 1172 0 
L 2766 4134 
L 525 4134 
L 525 4666 
z
" transform="scale(0.015625)"/>
       </defs>
       <use xlink:href="#DejaVuSans-30"/>
       <use xlink:href="#DejaVuSans-2e" transform="translate(63.623047 0)"/>
       <use xlink:href="#DejaVuSans-37" transform="translate(95.410156 0)"/>
       <use xlink:href="#DejaVuSans-35" transform="translate(159.033203 0)"/>
      </g>
     </g>
    </g>
    <g id="ytick_24">
     <g id="line2d_43">
      <g>
       <use xlink:href="#m5f2518b3c4" x="430.2788" y="31.430438" style="stroke: #000000; stroke-width: 1.5"/>
      </g>
     </g>
     <g id="text_14">
      <!-- 1.00 -->
      <g transform="translate(439.7788 36.369422) scale(0.13 -0.13)">
       <use xlink:href="#DejaVuSans-31"/>
       <use xlink:href="#DejaVuSans-2e" transform="translate(63.623047 0)"/>
       <use xlink:href="#DejaVuSans-30" transform="translate(95.410156 0)"/>
       <use xlink:href="#DejaVuSans-30" transform="translate(159.033203 0)"/>
      </g>
     </g>
    </g>
    <g id="text_15">
     <!-- Proportion -->
     <g transform="translate(484.121769 219.812578) rotate(-90) scale(0.15 -0.15)">
      <defs>
       <path id="DejaVuSans-50" d="M 1259 4147 
L 1259 2394 
L 2053 2394 
Q 2494 2394 2734 2622 
Q 2975 2850 2975 3272 
Q 2975 3691 2734 3919 
Q 2494 4147 2053 4147 
L 1259 4147 
z
M 628 4666 
L 2053 4666 
Q 2838 4666 3239 4311 
Q 3641 3956 3641 3272 
Q 3641 2581 3239 2228 
Q 2838 1875 2053 1875 
L 1259 1875 
L 1259 0 
L 628 0 
L 628 4666 
z
" transform="scale(0.015625)"/>
       <path id="DejaVuSans-72" d="M 2631 2963 
Q 2534 3019 2420 3045 
Q 2306 3072 2169 3072 
Q 1681 3072 1420 2755 
Q 1159 2438 1159 1844 
L 1159 0 
L 581 0 
L 581 3500 
L 1159 3500 
L 1159 2956 
Q 1341 3275 1631 3429 
Q 1922 3584 2338 3584 
Q 2397 3584 2469 3576 
Q 2541 3569 2628 3553 
L 2631 2963 
z
" transform="scale(0.015625)"/>
       <path id="DejaVuSans-6f" d="M 1959 3097 
Q 1497 3097 1228 2736 
Q 959 2375 959 1747 
Q 959 1119 1226 758 
Q 1494 397 1959 397 
Q 2419 397 2687 759 
Q 2956 1122 2956 1747 
Q 2956 2369 2687 2733 
Q 2419 3097 1959 3097 
z
M 1959 3584 
Q 2709 3584 3137 3096 
Q 3566 2609 3566 1747 
Q 3566 888 3137 398 
Q 2709 -91 1959 -91 
Q 1206 -91 779 398 
Q 353 888 353 1747 
Q 353 2609 779 3096 
Q 1206 3584 1959 3584 
z
" transform="scale(0.015625)"/>
       <path id="DejaVuSans-70" d="M 1159 525 
L 1159 -1331 
L 581 -1331 
L 581 3500 
L 1159 3500 
L 1159 2969 
Q 1341 3281 1617 3432 
Q 1894 3584 2278 3584 
Q 2916 3584 3314 3078 
Q 3713 2572 3713 1747 
Q 3713 922 3314 415 
Q 2916 -91 2278 -91 
Q 1894 -91 1617 61 
Q 1341 213 1159 525 
z
M 3116 1747 
Q 3116 2381 2855 2742 
Q 2594 3103 2138 3103 
Q 1681 3103 1420 2742 
Q 1159 2381 1159 1747 
Q 1159 1113 1420 752 
Q 1681 391 2138 391 
Q 2594 391 2855 752 
Q 3116 1113 3116 1747 
z
" transform="scale(0.015625)"/>
       <path id="DejaVuSans-74" d="M 1172 4494 
L 1172 3500 
L 2356 3500 
L 2356 3053 
L 1172 3053 
L 1172 1153 
Q 1172 725 1289 603 
Q 1406 481 1766 481 
L 2356 481 
L 2356 0 
L 1766 0 
Q 1100 0 847 248 
Q 594 497 594 1153 
L 594 3053 
L 172 3053 
L 172 3500 
L 594 3500 
L 594 4494 
L 1172 4494 
z
" transform="scale(0.015625)"/>
       <path id="DejaVuSans-69" d="M 603 3500 
L 1178 3500 
L 1178 0 
L 603 0 
L 603 3500 
z
M 603 4863 
L 1178 4863 
L 1178 4134 
L 603 4134 
L 603 4863 
z
" transform="scale(0.015625)"/>
       <path id="DejaVuSans-6e" d="M 3513 2113 
L 3513 0 
L 2938 0 
L 2938 2094 
Q 2938 2591 2744 2837 
Q 2550 3084 2163 3084 
Q 1697 3084 1428 2787 
Q 1159 2491 1159 1978 
L 1159 0 
L 581 0 
L 581 3500 
L 1159 3500 
L 1159 2956 
Q 1366 3272 1645 3428 
Q 1925 3584 2291 3584 
Q 2894 3584 3203 3211 
Q 3513 2838 3513 2113 
z
" transform="scale(0.015625)"/>
      </defs>
      <use xlink:href="#DejaVuSans-50"/>
      <use xlink:href="#DejaVuSans-72" transform="translate(58.552734 0)"/>
      <use xlink:href="#DejaVuSans-6f" transform="translate(97.416016 0)"/>
      <use xlink:href="#DejaVuSans-70" transform="translate(158.597656 0)"/>
      <use xlink:href="#DejaVuSans-6f" transform="translate(222.074219 0)"/>
      <use xlink:href="#DejaVuSans-72" transform="translate(283.255859 0)"/>
      <use xlink:href="#DejaVuSans-74" transform="translate(324.369141 0)"/>
      <use xlink:href="#DejaVuSans-69" transform="translate(363.578125 0)"/>
      <use xlink:href="#DejaVuSans-6f" transform="translate(391.361328 0)"/>
      <use xlink:href="#DejaVuSans-6e" transform="translate(452.542969 0)"/>
     </g>
    </g>
   </g>
   <g id="LineCollection_1"/>
   <g id="patch_8">
    <path d="M 415.31 330.806438 
L 422.7944 330.806438 
L 430.2788 330.806438 
L 430.2788 31.430438 
L 422.7944 31.430438 
L 415.31 31.430438 
L 415.31 330.806438 
z
" style="fill: none; stroke: #000000; stroke-width: 0.8; stroke-linejoin: miter; stroke-linecap: square"/>
   </g>
  </g>
 </g>
 <defs>
  <clipPath id="p5fdb71698d">
   <rect x="83.3" y="14.798437" width="324.198" height="332.64"/>
  </clipPath>
  <clipPath id="pfa20b89c60">
   <rect x="415.31" y="31.430438" width="14.9688" height="299.376"/>
  </clipPath>
 </defs>
</svg>
