<?xml version="1.0" encoding="utf-8" standalone="no"?>
<!DOCTYPE svg PUBLIC "-//W3C//DTD SVG 1.1//EN"
  "http://www.w3.org/Graphics/SVG/1.1/DTD/svg11.dtd">
<svg xmlns:xlink="http://www.w3.org/1999/xlink" width="442.9pt" height="402.850937pt" viewBox="0 0 442.9 402.850937" xmlns="http://www.w3.org/2000/svg" version="1.1">
 <metadata>
  <rdf:RDF xmlns:dc="http://purl.org/dc/elements/1.1/" xmlns:cc="http://creativecommons.org/ns#" xmlns:rdf="http://www.w3.org/1999/02/22-rdf-syntax-ns#">
   <cc:Work>
    <dc:type rdf:resource="http://purl.org/dc/dcmitype/StillImage"/>
    <dc:date>2025-05-11T12:53:29.301344</dc:date>
    <dc:format>image/svg+xml</dc:format>
    <dc:creator>
     <cc:Agent>
      <dc:title>Matplotlib v3.10.1, https://matplotlib.org/</dc:title>
     </cc:Agent>
    </dc:creator>
   </cc:Work>
  </rdf:RDF>
 </metadata>
 <defs>
  <style type="text/css">*{stroke-linejoin: round; stroke-linecap: butt}</style>
 </defs>
 <g id="figure_1">
  <g id="patch_1">
   <path d="M 0 402.850937 
L 442.9 402.850937 
L 442.9 0 
L 0 0 
z
" style="fill: #ffffff"/>
  </g>
  <g id="axes_1">
   <g id="patch_2">
    <path d="M 83.3 347.438437 
L 418.1 347.438437 
L 418.1 14.798437 
L 83.3 14.798437 
z
" style="fill: #ffffff"/>
   </g>
   <g id="QuadContourSet_1">
    <path d="M 88.614287 347.438437 
L 93.92857 347.438437 
L 99.242859 347.438437 
L 104.557144 347.438437 
L 109.871427 347.438437 
L 115.185714 347.438437 
L 120.499997 347.438437 
L 125.814283 347.438437 
L 131.128569 347.438437 
L 136.442855 347.438437 
L 141.757141 347.438437 
L 147.071429 347.438437 
L 152.38573 347.438437 
L 157.699996 347.438437 
L 163.014302 347.438437 
L 168.328567 347.438437 
L 173.642872 347.438437 
L 178.957135 347.438437 
L 184.271443 347.438437 
L 189.585707 347.438437 
L 194.900012 347.438437 
L 200.214279 347.438437 
L 205.528586 347.438437 
L 210.842872 347.438437 
L 216.157154 347.438437 
L 221.471443 347.438437 
L 226.785726 347.438437 
L 232.100013 347.438437 
L 237.414298 347.438437 
L 242.728582 347.438437 
L 248.042868 347.438437 
L 253.357135 347.438437 
L 258.671418 347.438437 
L 263.985704 347.438437 
L 269.299992 347.438437 
L 274.614275 347.438437 
L 279.928558 347.438437 
L 285.242845 347.438437 
L 290.557131 347.438437 
L 295.871424 347.438437 
L 301.185713 347.438437 
L 306.499998 347.438437 
L 311.814284 347.438437 
L 317.128569 347.438437 
L 322.442855 347.438437 
L 327.757141 347.438437 
L 333.071426 347.438437 
L 338.385711 347.438437 
L 343.699997 347.438437 
L 349.014278 347.438437 
L 354.328564 347.438437 
L 359.642855 347.438437 
L 364.957142 347.438437 
L 370.271424 347.438437 
L 375.585714 347.438437 
L 380.899995 347.438437 
L 386.214281 347.438437 
L 391.52857 347.438437 
L 396.842859 347.438437 
L 402.15714 347.438437 
L 407.471429 347.438437 
L 412.785712 347.438437 
L 418.1 347.438437 
L 418.1 342.158436 
L 418.1 336.878439 
L 418.1 331.598435 
L 418.1 326.318437 
L 418.1 321.038439 
L 418.1 315.758438 
L 418.1 310.478441 
L 418.1 305.19844 
L 418.1 299.91844 
L 418.1 294.638439 
L 418.1 289.358439 
L 418.1 284.078437 
L 418.1 278.798422 
L 418.1 273.518441 
L 418.1 268.238422 
L 418.1 262.958442 
L 418.1 257.678423 
L 418.1 252.398445 
L 418.1 248.171526 
L 412.785712 248.747818 
L 407.471429 249.353065 
L 402.15714 249.987744 
L 396.842859 250.652345 
L 391.52857 251.347382 
L 386.214281 252.073358 
L 384.001739 252.398445 
L 380.899995 252.871808 
L 375.585714 253.731576 
L 370.271424 254.620538 
L 364.957142 255.538682 
L 359.642855 256.486062 
L 354.328564 257.462825 
L 353.240324 257.678423 
L 349.014278 258.540523 
L 343.699997 259.661476 
L 338.385711 260.804928 
L 333.071426 261.970713 
L 328.700121 262.958442 
L 327.757141 263.176961 
L 322.442855 264.488887 
L 317.128569 265.812021 
L 311.814284 267.146267 
L 307.553555 268.238422 
L 306.499998 268.513857 
L 301.185713 269.978959 
L 295.871424 271.440546 
L 290.557131 272.899072 
L 288.379637 273.518441 
L 285.242845 274.422983 
L 279.928558 275.980344 
L 274.614275 277.517873 
L 270.180398 278.798422 
L 269.299992 279.055792 
L 263.985704 280.666357 
L 258.671418 282.239054 
L 253.357135 283.775319 
L 252.337421 284.078437 
L 248.042868 285.364839 
L 242.728582 286.922961 
L 237.414298 288.427145 
L 234.083538 289.358439 
L 232.100013 289.917713 
L 226.785726 291.411221 
L 221.471443 292.835202 
L 216.157154 294.191947 
L 214.391408 294.638439 
L 210.842872 295.543346 
L 205.528586 296.84759 
L 200.214279 298.073812 
L 194.900012 299.225031 
L 191.55521 299.91844 
L 189.585707 300.331643 
L 184.271443 301.407609 
L 178.957135 302.404651 
L 173.642872 303.326847 
L 168.328567 304.178245 
L 163.014302 304.96268 
L 161.336457 305.19844 
L 157.699996 305.718479 
L 152.38573 306.42455 
L 147.071429 307.068333 
L 141.757141 307.654414 
L 136.442855 308.187264 
L 131.128569 308.67112 
L 125.814283 309.110045 
L 120.499997 309.50785 
L 115.185714 309.868206 
L 109.871427 310.194466 
L 104.770787 310.478441 
L 104.557144 310.490687 
L 99.242859 310.778073 
L 93.92857 311.037933 
L 88.614287 311.273031 
L 83.3 311.485877 
L 83.3 315.758438 
L 83.3 321.038439 
L 83.3 326.318437 
L 83.3 331.598435 
L 83.3 336.878439 
L 83.3 342.158436 
L 83.3 347.438437 
z
" clip-path="url(#p378fa691df)" style="fill: #470e61"/>
    <path d="M 88.614287 311.273031 
L 93.92857 311.037933 
L 99.242859 310.778073 
L 104.557144 310.490687 
L 104.770787 310.478441 
L 109.871427 310.194466 
L 115.185714 309.868206 
L 120.499997 309.50785 
L 125.814283 309.110045 
L 131.128569 308.67112 
L 136.442855 308.187264 
L 141.757141 307.654414 
L 147.071429 307.068333 
L 152.38573 306.42455 
L 157.699996 305.718479 
L 161.336457 305.19844 
L 163.014302 304.96268 
L 168.328567 304.178245 
L 173.642872 303.326847 
L 178.957135 302.404651 
L 184.271443 301.407609 
L 189.585707 300.331643 
L 191.55521 299.91844 
L 194.900012 299.225031 
L 200.214279 298.073812 
L 205.528586 296.84759 
L 210.842872 295.543346 
L 214.391408 294.638439 
L 216.157154 294.191947 
L 221.471443 292.835202 
L 226.785726 291.411221 
L 232.100013 289.917713 
L 234.083538 289.358439 
L 237.414298 288.427145 
L 242.728582 286.922961 
L 248.042868 285.364839 
L 252.337421 284.078437 
L 253.357135 283.775319 
L 258.671418 282.239054 
L 263.985704 280.666357 
L 269.299992 279.055792 
L 270.180398 278.798422 
L 274.614275 277.517873 
L 279.928558 275.980344 
L 285.242845 274.422983 
L 288.379637 273.518441 
L 290.557131 272.899072 
L 295.871424 271.440546 
L 301.185713 269.978959 
L 306.499998 268.513857 
L 307.553555 268.238422 
L 311.814284 267.146267 
L 317.128569 265.812021 
L 322.442855 264.488887 
L 327.757141 263.176961 
L 328.700121 262.958442 
L 333.071426 261.970713 
L 338.385711 260.804928 
L 343.699997 259.661476 
L 349.014278 258.540523 
L 353.240324 257.678423 
L 354.328564 257.462825 
L 359.642855 256.486062 
L 364.957142 255.538682 
L 370.271424 254.620538 
L 375.585714 253.731576 
L 380.899995 252.871808 
L 384.001739 252.398445 
L 386.214281 252.073358 
L 391.52857 251.347382 
L 396.842859 250.652345 
L 402.15714 249.987744 
L 407.471429 249.353065 
L 412.785712 248.747818 
L 418.1 248.171526 
L 418.1 247.118424 
L 418.1 241.838445 
L 418.1 236.558426 
L 418.1 231.278444 
L 418.1 229.291377 
L 412.785712 229.829195 
L 407.471429 230.399754 
L 402.15714 231.004432 
L 399.934727 231.278444 
L 396.842859 231.650481 
L 391.52857 232.335911 
L 386.214281 233.05675 
L 380.899995 233.814168 
L 375.585714 234.609333 
L 370.271424 235.443515 
L 364.957142 236.318047 
L 363.605076 236.558426 
L 359.642855 237.243268 
L 354.328564 238.209928 
L 349.014278 239.215037 
L 343.699997 240.25967 
L 338.385711 241.344986 
L 336.114281 241.838445 
L 333.071426 242.479505 
L 327.757141 243.656086 
L 322.442855 244.867948 
L 317.128569 246.115988 
L 313.023039 247.118424 
L 311.814284 247.404184 
L 306.499998 248.73434 
L 301.185713 250.091849 
L 295.871424 251.477346 
L 292.461702 252.398445 
L 290.557131 252.895266 
L 285.242845 254.340354 
L 279.928558 255.801266 
L 274.614275 257.278166 
L 273.232588 257.678423 
L 269.299992 258.774852 
L 263.985704 260.276 
L 258.671418 261.7779 
L 254.533095 262.958442 
L 253.357135 263.2812 
L 248.042868 264.77936 
L 242.728582 266.261346 
L 237.414298 267.726167 
L 235.581857 268.238422 
L 232.100013 269.171988 
L 226.785726 270.586691 
L 221.471443 271.967087 
L 216.157154 273.311847 
L 215.345887 273.518441 
L 210.842872 274.615942 
L 205.528586 275.87128 
L 200.214279 277.077081 
L 194.900012 278.232595 
L 192.232307 278.798422 
L 189.585707 279.335439 
L 184.271443 280.380008 
L 178.957135 281.366914 
L 173.642872 282.29695 
L 168.328567 283.171078 
L 163.014302 283.990435 
L 162.425365 284.078437 
L 157.699996 284.753264 
L 152.38573 285.461316 
L 147.071429 286.117268 
L 141.757141 286.723687 
L 136.442855 287.283221 
L 131.128569 287.798539 
L 125.814283 288.272385 
L 120.499997 288.707462 
L 115.185714 289.106449 
L 111.568247 289.358439 
L 109.871427 289.471746 
L 104.557144 289.805302 
L 99.242859 290.110026 
L 93.92857 290.388324 
L 88.614287 290.6425 
L 83.3 290.874631 
L 83.3 294.638439 
L 83.3 299.91844 
L 83.3 305.19844 
L 83.3 310.478441 
L 83.3 311.485877 
z
" clip-path="url(#p378fa691df)" style="fill: #482677"/>
    <path d="M 88.614287 290.6425 
L 93.92857 290.388324 
L 99.242859 290.110026 
L 104.557144 289.805302 
L 109.871427 289.471746 
L 111.568247 289.358439 
L 115.185714 289.106449 
L 120.499997 288.707462 
L 125.814283 288.272385 
L 131.128569 287.798539 
L 136.442855 287.283221 
L 141.757141 286.723687 
L 147.071429 286.117268 
L 152.38573 285.461316 
L 157.699996 284.753264 
L 162.425365 284.078437 
L 163.014302 283.990435 
L 168.328567 283.171078 
L 173.642872 282.29695 
L 178.957135 281.366914 
L 184.271443 280.380008 
L 189.585707 279.335439 
L 192.232307 278.798422 
L 194.900012 278.232595 
L 200.214279 277.077081 
L 205.528586 275.87128 
L 210.842872 274.615942 
L 215.345887 273.518441 
L 216.157154 273.311847 
L 221.471443 271.967087 
L 226.785726 270.586691 
L 232.100013 269.171988 
L 235.581857 268.238422 
L 237.414298 267.726167 
L 242.728582 266.261346 
L 248.042868 264.77936 
L 253.357135 263.2812 
L 254.533095 262.958442 
L 258.671418 261.7779 
L 263.985704 260.276 
L 269.299992 258.774852 
L 273.232588 257.678423 
L 274.614275 257.278166 
L 279.928558 255.801266 
L 285.242845 254.340354 
L 290.557131 252.895266 
L 292.461702 252.398445 
L 295.871424 251.477346 
L 301.185713 250.091849 
L 306.499998 248.73434 
L 311.814284 247.404184 
L 313.023039 247.118424 
L 317.128569 246.115988 
L 322.442855 244.867948 
L 327.757141 243.656086 
L 333.071426 242.479505 
L 336.114281 241.838445 
L 338.385711 241.344986 
L 343.699997 240.25967 
L 349.014278 239.215037 
L 354.328564 238.209928 
L 359.642855 237.243268 
L 363.605076 236.558426 
L 364.957142 236.318047 
L 370.271424 235.443515 
L 375.585714 234.609333 
L 380.899995 233.814168 
L 386.214281 233.05675 
L 391.52857 232.335911 
L 396.842859 231.650481 
L 399.934727 231.278444 
L 402.15714 231.004432 
L 407.471429 230.399754 
L 412.785712 229.829195 
L 418.1 229.291377 
L 418.1 225.998423 
L 418.1 220.718422 
L 418.1 215.438426 
L 418.1 215.295707 
L 416.701951 215.438426 
L 412.785712 215.81484 
L 407.471429 216.36303 
L 402.15714 216.94494 
L 396.842859 217.562023 
L 391.52857 218.215806 
L 386.214281 218.907848 
L 380.899995 219.639829 
L 375.585714 220.413464 
L 373.64533 220.718422 
L 370.271424 221.217376 
L 364.957142 222.0545 
L 359.642855 222.933493 
L 354.328564 223.855853 
L 349.014278 224.823179 
L 343.699997 225.837139 
L 342.915852 225.998423 
L 338.385711 226.874288 
L 333.071426 227.949974 
L 327.757141 229.069486 
L 322.442855 230.234171 
L 317.882217 231.278444 
L 317.128569 231.440762 
L 311.814284 232.660641 
L 306.499998 233.919871 
L 301.185713 235.219204 
L 295.875397 236.558426 
L 295.871424 236.559368 
L 290.557131 237.896765 
L 285.242845 239.265037 
L 279.928558 240.664178 
L 275.589112 241.838445 
L 274.614275 242.086111 
L 269.299992 243.494968 
L 263.985704 244.921892 
L 258.671418 246.365824 
L 255.972179 247.118424 
L 253.357135 247.801574 
L 248.042868 249.217742 
L 242.728582 250.635184 
L 237.414298 252.051762 
L 236.140555 252.398445 
L 232.100013 253.426357 
L 226.785726 254.774443 
L 221.471443 256.105006 
L 216.157154 257.415415 
L 215.09839 257.678423 
L 210.842872 258.664035 
L 205.528586 259.871264 
L 200.214279 261.044174 
L 194.900012 262.180647 
L 191.172518 262.958442 
L 189.585707 263.266562 
L 184.271443 264.28096 
L 178.957135 265.250546 
L 173.642872 266.174668 
L 168.328567 267.05297 
L 163.014302 267.885326 
L 160.675233 268.238422 
L 157.699996 268.65478 
L 152.38573 269.364876 
L 147.071429 270.030152 
L 141.757141 270.652035 
L 136.442855 271.23207 
L 131.128569 271.772004 
L 125.814283 272.273683 
L 120.499997 272.739048 
L 115.185714 273.17007 
L 110.564917 273.518441 
L 109.871427 273.566815 
L 104.557144 273.920462 
L 99.242859 274.246444 
L 93.92857 274.546742 
L 88.614287 274.823242 
L 83.3 275.077742 
L 83.3 278.798422 
L 83.3 284.078437 
L 83.3 289.358439 
L 83.3 290.874631 
z
" clip-path="url(#p378fa691df)" style="fill: #433d84"/>
    <path d="M 88.614287 274.823242 
L 93.92857 274.546742 
L 99.242859 274.246444 
L 104.557144 273.920462 
L 109.871427 273.566815 
L 110.564917 273.518441 
L 115.185714 273.17007 
L 120.499997 272.739048 
L 125.814283 272.273683 
L 131.128569 271.772004 
L 136.442855 271.23207 
L 141.757141 270.652035 
L 147.071429 270.030152 
L 152.38573 269.364876 
L 157.699996 268.65478 
L 160.675233 268.238422 
L 163.014302 267.885326 
L 168.328567 267.05297 
L 173.642872 266.174668 
L 178.957135 265.250546 
L 184.271443 264.28096 
L 189.585707 263.266562 
L 191.172518 262.958442 
L 194.900012 262.180647 
L 200.214279 261.044174 
L 205.528586 259.871264 
L 210.842872 258.664035 
L 215.09839 257.678423 
L 216.157154 257.415415 
L 221.471443 256.105006 
L 226.785726 254.774443 
L 232.100013 253.426357 
L 236.140555 252.398445 
L 237.414298 252.051762 
L 242.728582 250.635184 
L 248.042868 249.217742 
L 253.357135 247.801574 
L 255.972179 247.118424 
L 258.671418 246.365824 
L 263.985704 244.921892 
L 269.299992 243.494968 
L 274.614275 242.086111 
L 275.589112 241.838445 
L 279.928558 240.664178 
L 285.242845 239.265037 
L 290.557131 237.896765 
L 295.871424 236.559368 
L 295.875397 236.558426 
L 301.185713 235.219204 
L 306.499998 233.919871 
L 311.814284 232.660641 
L 317.128569 231.440762 
L 317.882217 231.278444 
L 322.442855 230.234171 
L 327.757141 229.069486 
L 333.071426 227.949974 
L 338.385711 226.874288 
L 342.915852 225.998423 
L 343.699997 225.837139 
L 349.014278 224.823179 
L 354.328564 223.855853 
L 359.642855 222.933493 
L 364.957142 222.0545 
L 370.271424 221.217376 
L 373.64533 220.718422 
L 375.585714 220.413464 
L 380.899995 219.639829 
L 386.214281 218.907848 
L 391.52857 218.215806 
L 396.842859 217.562023 
L 402.15714 216.94494 
L 407.471429 216.36303 
L 412.785712 215.81484 
L 416.701951 215.438426 
L 418.1 215.295707 
L 418.1 210.158424 
L 418.1 204.878426 
L 418.1 202.955808 
L 412.785712 203.463111 
L 407.471429 204.004421 
L 402.15714 204.581462 
L 399.6323 204.878426 
L 396.842859 205.179991 
L 391.52857 205.799549 
L 386.214281 206.456359 
L 380.899995 207.152081 
L 375.585714 207.888472 
L 370.271424 208.667353 
L 364.957142 209.490608 
L 360.905297 210.158424 
L 359.642855 210.349967 
L 354.328564 211.218975 
L 349.014278 212.132021 
L 343.699997 213.090728 
L 338.385711 214.096826 
L 333.071426 215.152067 
L 331.723817 215.438426 
L 327.757141 216.214629 
L 322.442855 217.307078 
L 317.128569 218.445214 
L 311.814284 219.630242 
L 307.139671 220.718422 
L 306.499998 220.855734 
L 301.185713 222.066584 
L 295.871424 223.317836 
L 290.557131 224.609913 
L 285.242845 225.943078 
L 285.033788 225.998423 
L 279.928558 227.243201 
L 274.614275 228.57123 
L 269.299992 229.929459 
L 264.136847 231.278444 
L 263.985704 231.314851 
L 258.671418 232.648671 
L 253.357135 233.999454 
L 248.042868 235.365363 
L 243.460077 236.558426 
L 242.728582 236.733746 
L 237.414298 238.04054 
L 232.100013 239.347186 
L 226.785726 240.651013 
L 221.935179 241.838445 
L 221.471443 241.942739 
L 216.157154 243.154402 
L 210.842872 244.348575 
L 205.528586 245.522527 
L 200.214279 246.673516 
L 198.147871 247.118424 
L 194.900012 247.758026 
L 189.585707 248.785624 
L 184.271443 249.780181 
L 178.957135 250.740082 
L 173.642872 251.663897 
L 169.263237 252.398445 
L 168.328567 252.541276 
L 163.014302 253.336727 
L 157.699996 254.093279 
L 152.38573 254.811022 
L 147.071429 255.490296 
L 141.757141 256.131665 
L 136.442855 256.73589 
L 131.128569 257.303962 
L 127.433846 257.678423 
L 125.814283 257.827117 
L 120.499997 258.294579 
L 115.185714 258.730791 
L 109.871427 259.137276 
L 104.557144 259.515608 
L 99.242859 259.867356 
L 93.92857 260.194079 
L 88.614287 260.497319 
L 83.3 260.778567 
L 83.3 262.958442 
L 83.3 268.238422 
L 83.3 273.518441 
L 83.3 275.077742 
z
" clip-path="url(#p378fa691df)" style="fill: #3b528b"/>
    <path d="M 88.614287 260.497319 
L 93.92857 260.194079 
L 99.242859 259.867356 
L 104.557144 259.515608 
L 109.871427 259.137276 
L 115.185714 258.730791 
L 120.499997 258.294579 
L 125.814283 257.827117 
L 127.433846 257.678423 
L 131.128569 257.303962 
L 136.442855 256.73589 
L 141.757141 256.131665 
L 147.071429 255.490296 
L 152.38573 254.811022 
L 157.699996 254.093279 
L 163.014302 253.336727 
L 168.328567 252.541276 
L 169.263237 252.398445 
L 173.642872 251.663897 
L 178.957135 250.740082 
L 184.271443 249.780181 
L 189.585707 248.785624 
L 194.900012 247.758026 
L 198.147871 247.118424 
L 200.214279 246.673516 
L 205.528586 245.522527 
L 210.842872 244.348575 
L 216.157154 243.154402 
L 221.471443 241.942739 
L 221.935179 241.838445 
L 226.785726 240.651013 
L 232.100013 239.347186 
L 237.414298 238.04054 
L 242.728582 236.733746 
L 243.460077 236.558426 
L 248.042868 235.365363 
L 253.357135 233.999454 
L 258.671418 232.648671 
L 263.985704 231.314851 
L 264.136847 231.278444 
L 269.299992 229.929459 
L 274.614275 228.57123 
L 279.928558 227.243201 
L 285.033788 225.998423 
L 285.242845 225.943078 
L 290.557131 224.609913 
L 295.871424 223.317836 
L 301.185713 222.066584 
L 306.499998 220.855734 
L 307.139671 220.718422 
L 311.814284 219.630242 
L 317.128569 218.445214 
L 322.442855 217.307078 
L 327.757141 216.214629 
L 331.723817 215.438426 
L 333.071426 215.152067 
L 338.385711 214.096826 
L 343.699997 213.090728 
L 349.014278 212.132021 
L 354.328564 211.218975 
L 359.642855 210.349967 
L 360.905297 210.158424 
L 364.957142 209.490608 
L 370.271424 208.667353 
L 375.585714 207.888472 
L 380.899995 207.152081 
L 386.214281 206.456359 
L 391.52857 205.799549 
L 396.842859 205.179991 
L 399.6323 204.878426 
L 402.15714 204.581462 
L 407.471429 204.004421 
L 412.785712 203.463111 
L 418.1 202.955808 
L 418.1 199.598424 
L 418.1 194.318425 
L 418.1 191.250743 
L 412.785712 191.734602 
L 407.471429 192.251283 
L 402.15714 192.802465 
L 396.842859 193.389939 
L 391.52857 194.015577 
L 389.149677 194.318425 
L 386.214281 194.655697 
L 380.899995 195.312162 
L 375.585714 196.007646 
L 370.271424 196.743946 
L 364.957142 197.522885 
L 359.642855 198.346398 
L 354.328564 199.216487 
L 352.152761 199.598424 
L 349.014278 200.096905 
L 343.699997 200.994455 
L 338.385711 201.937306 
L 333.071426 202.927093 
L 327.757141 203.965504 
L 323.318207 204.878426 
L 322.442855 205.041697 
L 317.128569 206.098357 
L 311.814284 207.199604 
L 306.499998 208.346472 
L 301.185713 209.539877 
L 298.564781 210.158424 
L 295.871424 210.735488 
L 290.557131 211.92632 
L 285.242845 213.155942 
L 279.928558 214.424286 
L 275.823087 215.438426 
L 274.614275 215.709764 
L 269.299992 216.95276 
L 263.985704 218.223537 
L 258.671418 219.520808 
L 253.866887 220.718422 
L 253.357135 220.83387 
L 248.042868 222.077452 
L 242.728582 223.334129 
L 237.414298 224.601617 
L 232.100013 225.877313 
L 231.606733 225.998423 
L 226.785726 227.070843 
L 221.471443 228.252306 
L 216.157154 229.427844 
L 210.842872 230.59459 
L 207.725486 231.278444 
L 205.528586 231.714171 
L 200.214279 232.765685 
L 194.900012 233.79692 
L 189.585707 234.805585 
L 184.271443 235.789506 
L 180.024411 236.558426 
L 178.957135 236.732387 
L 173.642872 237.588558 
L 168.328567 238.41415 
L 163.014302 239.20821 
L 157.699996 239.970042 
L 152.38573 240.699181 
L 147.071429 241.395389 
L 143.557326 241.838445 
L 141.757141 242.041401 
L 136.442855 242.621487 
L 131.128569 243.170327 
L 125.814283 243.688644 
L 120.499997 244.177295 
L 115.185714 244.637224 
L 109.871427 245.069461 
L 104.557144 245.475117 
L 99.242859 245.85535 
L 93.92857 246.211334 
L 88.614287 246.544276 
L 83.3 246.855362 
L 83.3 247.118424 
L 83.3 252.398445 
L 83.3 257.678423 
L 83.3 260.778567 
z
" clip-path="url(#p378fa691df)" style="fill: #32658e"/>
    <path d="M 88.614287 246.544276 
L 93.92857 246.211334 
L 99.242859 245.85535 
L 104.557144 245.475117 
L 109.871427 245.069461 
L 115.185714 244.637224 
L 120.499997 244.177295 
L 125.814283 243.688644 
L 131.128569 243.170327 
L 136.442855 242.621487 
L 141.757141 242.041401 
L 143.557326 241.838445 
L 147.071429 241.395389 
L 152.38573 240.699181 
L 157.699996 239.970042 
L 163.014302 239.20821 
L 168.328567 238.41415 
L 173.642872 237.588558 
L 178.957135 236.732387 
L 180.024411 236.558426 
L 184.271443 235.789506 
L 189.585707 234.805585 
L 194.900012 233.79692 
L 200.214279 232.765685 
L 205.528586 231.714171 
L 207.725486 231.278444 
L 210.842872 230.59459 
L 216.157154 229.427844 
L 221.471443 228.252306 
L 226.785726 227.070843 
L 231.606733 225.998423 
L 232.100013 225.877313 
L 237.414298 224.601617 
L 242.728582 223.334129 
L 248.042868 222.077452 
L 253.357135 220.83387 
L 253.866887 220.718422 
L 258.671418 219.520808 
L 263.985704 218.223537 
L 269.299992 216.95276 
L 274.614275 215.709764 
L 275.823087 215.438426 
L 279.928558 214.424286 
L 285.242845 213.155942 
L 290.557131 211.92632 
L 295.871424 210.735488 
L 298.564781 210.158424 
L 301.185713 209.539877 
L 306.499998 208.346472 
L 311.814284 207.199604 
L 317.128569 206.098357 
L 322.442855 205.041697 
L 323.318207 204.878426 
L 327.757141 203.965504 
L 333.071426 202.927093 
L 338.385711 201.937306 
L 343.699997 200.994455 
L 349.014278 200.096905 
L 352.152761 199.598424 
L 354.328564 199.216487 
L 359.642855 198.346398 
L 364.957142 197.522885 
L 370.271424 196.743946 
L 375.585714 196.007646 
L 380.899995 195.312162 
L 386.214281 194.655697 
L 389.149677 194.318425 
L 391.52857 194.015577 
L 396.842859 193.389939 
L 402.15714 192.802465 
L 407.471429 192.251283 
L 412.785712 191.734602 
L 418.1 191.250743 
L 418.1 189.038427 
L 418.1 183.758427 
L 418.1 179.591371 
L 412.785712 180.048731 
L 407.471429 180.537231 
L 402.15714 181.058464 
L 396.842859 181.614101 
L 391.52857 182.205892 
L 386.214281 182.83568 
L 380.899995 183.50537 
L 379.041997 183.758427 
L 375.585714 184.176931 
L 370.271424 184.864983 
L 364.957142 185.593009 
L 359.642855 186.362736 
L 354.328564 187.175971 
L 349.014278 188.034565 
L 343.699997 188.940405 
L 343.165241 189.038427 
L 338.385711 189.820004 
L 333.071426 190.734509 
L 327.757141 191.693795 
L 322.442855 192.699256 
L 317.128569 193.752247 
L 314.423681 194.318425 
L 311.814284 194.807147 
L 306.499998 195.854995 
L 301.185713 196.944988 
L 295.871424 198.077627 
L 290.557131 199.253268 
L 289.070624 199.598424 
L 285.242845 200.395033 
L 279.928558 201.541582 
L 274.614275 202.722163 
L 269.299992 203.935996 
L 265.297042 204.878426 
L 263.985704 205.155495 
L 258.671418 206.317889 
L 253.357135 207.502132 
L 248.042868 208.706388 
L 242.728582 209.928544 
L 241.754949 210.158424 
L 237.414298 211.077081 
L 232.100013 212.213167 
L 226.785726 213.354218 
L 221.471443 214.497583 
L 217.111373 215.438426 
L 216.157154 215.622787 
L 210.842872 216.660379 
L 205.528586 217.68876 
L 200.214279 218.705453 
L 194.900012 219.707984 
L 189.585707 220.694048 
L 189.454626 220.718422 
L 184.271443 221.576993 
L 178.957135 222.436175 
L 173.642872 223.272134 
L 168.328567 224.083531 
L 163.014302 224.869125 
L 157.699996 225.627948 
L 155.042803 225.998423 
L 152.38573 226.326644 
L 147.071429 226.965013 
L 141.757141 227.575911 
L 136.442855 228.159295 
L 131.128569 228.715346 
L 125.814283 229.244342 
L 120.499997 229.746721 
L 115.185714 230.223005 
L 109.871427 230.673867 
L 104.557144 231.100005 
L 102.241265 231.278444 
L 99.242859 231.481339 
L 93.92857 231.824629 
L 88.614287 232.147307 
L 83.3 232.450281 
L 83.3 236.558426 
L 83.3 241.838445 
L 83.3 246.855362 
z
" clip-path="url(#p378fa691df)" style="fill: #2a768e"/>
    <path d="M 88.614287 232.147307 
L 93.92857 231.824629 
L 99.242859 231.481339 
L 102.241265 231.278444 
L 104.557144 231.100005 
L 109.871427 230.673867 
L 115.185714 230.223005 
L 120.499997 229.746721 
L 125.814283 229.244342 
L 131.128569 228.715346 
L 136.442855 228.159295 
L 141.757141 227.575911 
L 147.071429 226.965013 
L 152.38573 226.326644 
L 155.042803 225.998423 
L 157.699996 225.627948 
L 163.014302 224.869125 
L 168.328567 224.083531 
L 173.642872 223.272134 
L 178.957135 222.436175 
L 184.271443 221.576993 
L 189.454626 220.718422 
L 189.585707 220.694048 
L 194.900012 219.707984 
L 200.214279 218.705453 
L 205.528586 217.68876 
L 210.842872 216.660379 
L 216.157154 215.622787 
L 217.111373 215.438426 
L 221.471443 214.497583 
L 226.785726 213.354218 
L 232.100013 212.213167 
L 237.414298 211.077081 
L 241.754949 210.158424 
L 242.728582 209.928544 
L 248.042868 208.706388 
L 253.357135 207.502132 
L 258.671418 206.317889 
L 263.985704 205.155495 
L 265.297042 204.878426 
L 269.299992 203.935996 
L 274.614275 202.722163 
L 279.928558 201.541582 
L 285.242845 200.395033 
L 289.070624 199.598424 
L 290.557131 199.253268 
L 295.871424 198.077627 
L 301.185713 196.944988 
L 306.499998 195.854995 
L 311.814284 194.807147 
L 314.423681 194.318425 
L 317.128569 193.752247 
L 322.442855 192.699256 
L 327.757141 191.693795 
L 333.071426 190.734509 
L 338.385711 189.820004 
L 343.165241 189.038427 
L 343.699997 188.940405 
L 349.014278 188.034565 
L 354.328564 187.175971 
L 359.642855 186.362736 
L 364.957142 185.593009 
L 370.271424 184.864983 
L 375.585714 184.176931 
L 379.041997 183.758427 
L 380.899995 183.50537 
L 386.214281 182.83568 
L 391.52857 182.205892 
L 396.842859 181.614101 
L 402.15714 181.058464 
L 407.471429 180.537231 
L 412.785712 180.048731 
L 418.1 179.591371 
L 418.1 178.478445 
L 418.1 173.198448 
L 418.1 167.918447 
L 418.1 167.476253 
L 413.128115 167.918447 
L 412.785712 167.945057 
L 407.471429 168.398434 
L 402.15714 168.881939 
L 396.842859 169.397056 
L 391.52857 169.945317 
L 386.214281 170.528319 
L 380.899995 171.147713 
L 375.585714 171.805189 
L 370.271424 172.502503 
L 365.273518 173.198448 
L 364.957142 173.237156 
L 359.642855 173.940393 
L 354.328564 174.6826 
L 349.014278 175.465256 
L 343.699997 176.28983 
L 338.385711 177.157802 
L 333.071426 178.070595 
L 330.836392 178.478445 
L 327.757141 178.974331 
L 322.442855 179.877925 
L 317.128569 180.822638 
L 311.814284 181.809258 
L 306.499998 182.838435 
L 301.951378 183.758427 
L 301.185713 183.895574 
L 295.871424 184.898778 
L 290.557131 185.938042 
L 285.242845 187.013083 
L 279.928558 188.123403 
L 275.694382 189.038427 
L 274.614275 189.245598 
L 269.299992 190.305858 
L 263.985704 191.392021 
L 258.671418 192.502612 
L 253.357135 193.635897 
L 250.233611 194.318425 
L 248.042868 194.743569 
L 242.728582 195.798814 
L 237.414298 196.865668 
L 232.100013 197.941771 
L 226.785726 199.024621 
L 224.002481 199.598424 
L 221.471443 200.061389 
L 216.157154 201.041492 
L 210.842872 202.017951 
L 205.528586 202.988317 
L 200.214279 203.950201 
L 195.029777 204.878426 
L 194.900012 204.89899 
L 189.585707 205.744734 
L 184.271443 206.574769 
L 178.957135 207.387406 
L 173.642872 208.181035 
L 168.328567 208.954248 
L 163.014302 209.705759 
L 159.743681 210.158424 
L 157.699996 210.407377 
L 152.38573 211.042328 
L 147.071429 211.654121 
L 141.757141 212.242367 
L 136.442855 212.806851 
L 131.128569 213.347491 
L 125.814283 213.864305 
L 120.499997 214.357494 
L 115.185714 214.827336 
L 109.871427 215.274212 
L 107.852769 215.438426 
L 104.557144 215.672436 
L 99.242859 216.033979 
L 93.92857 216.375889 
L 88.614287 216.698836 
L 83.3 217.003505 
L 83.3 220.718422 
L 83.3 225.998423 
L 83.3 231.278444 
L 83.3 232.450281 
z
" clip-path="url(#p378fa691df)" style="fill: #24878e"/>
    <path d="M 88.614287 216.698836 
L 93.92857 216.375889 
L 99.242859 216.033979 
L 104.557144 215.672436 
L 107.852769 215.438426 
L 109.871427 215.274212 
L 115.185714 214.827336 
L 120.499997 214.357494 
L 125.814283 213.864305 
L 131.128569 213.347491 
L 136.442855 212.806851 
L 141.757141 212.242367 
L 147.071429 211.654121 
L 152.38573 211.042328 
L 157.699996 210.407377 
L 159.743681 210.158424 
L 163.014302 209.705759 
L 168.328567 208.954248 
L 173.642872 208.181035 
L 178.957135 207.387406 
L 184.271443 206.574769 
L 189.585707 205.744734 
L 194.900012 204.89899 
L 195.029777 204.878426 
L 200.214279 203.950201 
L 205.528586 202.988317 
L 210.842872 202.017951 
L 216.157154 201.041492 
L 221.471443 200.061389 
L 224.002481 199.598424 
L 226.785726 199.024621 
L 232.100013 197.941771 
L 237.414298 196.865668 
L 242.728582 195.798814 
L 248.042868 194.743569 
L 250.233611 194.318425 
L 253.357135 193.635897 
L 258.671418 192.502612 
L 263.985704 191.392021 
L 269.299992 190.305858 
L 274.614275 189.245598 
L 275.694382 189.038427 
L 279.928558 188.123403 
L 285.242845 187.013083 
L 290.557131 185.938042 
L 295.871424 184.898778 
L 301.185713 183.895574 
L 301.951378 183.758427 
L 306.499998 182.838435 
L 311.814284 181.809258 
L 317.128569 180.822638 
L 322.442855 179.877925 
L 327.757141 178.974331 
L 330.836392 178.478445 
L 333.071426 178.070595 
L 338.385711 177.157802 
L 343.699997 176.28983 
L 349.014278 175.465256 
L 354.328564 174.6826 
L 359.642855 173.940393 
L 364.957142 173.237156 
L 365.273518 173.198448 
L 370.271424 172.502503 
L 375.585714 171.805189 
L 380.899995 171.147713 
L 386.214281 170.528319 
L 391.52857 169.945317 
L 396.842859 169.397056 
L 402.15714 168.881939 
L 407.471429 168.398434 
L 412.785712 167.945057 
L 413.128115 167.918447 
L 418.1 167.476253 
L 418.1 162.638446 
L 418.1 157.358448 
L 418.1 154.298473 
L 412.785712 154.725461 
L 407.471429 155.181281 
L 402.15714 155.667349 
L 396.842859 156.185063 
L 391.52857 156.735917 
L 386.214281 157.321395 
L 385.904803 157.358448 
L 380.899995 157.878353 
L 375.585714 158.463998 
L 370.271424 159.083712 
L 364.957142 159.738826 
L 359.642855 160.430626 
L 354.328564 161.160417 
L 349.014278 161.929481 
L 344.372436 162.638446 
L 343.699997 162.728058 
L 338.385711 163.485637 
L 333.071426 164.279906 
L 327.757141 165.111682 
L 322.442855 165.981616 
L 317.128569 166.89027 
L 311.814284 167.838064 
L 311.388096 167.918447 
L 306.499998 168.726811 
L 301.185713 169.640459 
L 295.871424 170.58746 
L 290.557131 171.567415 
L 285.242845 172.579698 
L 282.112299 173.198448 
L 279.928558 173.578145 
L 274.614275 174.536598 
L 269.299992 175.519358 
L 263.985704 176.525012 
L 258.671418 177.551929 
L 253.973918 178.478445 
L 253.357135 178.585662 
L 248.042868 179.536739 
L 242.728582 180.499782 
L 237.414298 181.472641 
L 232.100013 182.453054 
L 226.785726 183.43861 
L 225.085427 183.758427 
L 221.471443 184.357339 
L 216.157154 185.241857 
L 210.842872 186.122982 
L 205.528586 186.998519 
L 200.214279 187.866319 
L 194.900012 188.724231 
L 192.951141 189.038427 
L 189.585707 189.515436 
L 184.271443 190.260994 
L 178.957135 190.991576 
L 173.642872 191.705729 
L 168.328567 192.402226 
L 163.014302 193.079872 
L 157.699996 193.737725 
L 152.867813 194.318425 
L 152.38573 194.369151 
L 147.071429 194.921555 
L 141.757141 195.453747 
L 136.442855 195.965475 
L 131.128569 196.456588 
L 125.814283 196.927043 
L 120.499997 197.376933 
L 115.185714 197.806412 
L 109.871427 198.215775 
L 104.557144 198.605349 
L 99.242859 198.975564 
L 93.92857 199.326907 
L 89.619687 199.598424 
L 88.614287 199.65349 
L 83.3 199.93586 
L 83.3 204.878426 
L 83.3 210.158424 
L 83.3 215.438426 
L 83.3 217.003505 
z
" clip-path="url(#p378fa691df)" style="fill: #1f998a"/>
    <path d="M 88.614287 199.65349 
L 89.619687 199.598424 
L 93.92857 199.326907 
L 99.242859 198.975564 
L 104.557144 198.605349 
L 109.871427 198.215775 
L 115.185714 197.806412 
L 120.499997 197.376933 
L 125.814283 196.927043 
L 131.128569 196.456588 
L 136.442855 195.965475 
L 141.757141 195.453747 
L 147.071429 194.921555 
L 152.38573 194.369151 
L 152.867813 194.318425 
L 157.699996 193.737725 
L 163.014302 193.079872 
L 168.328567 192.402226 
L 173.642872 191.705729 
L 178.957135 190.991576 
L 184.271443 190.260994 
L 189.585707 189.515436 
L 192.951141 189.038427 
L 194.900012 188.724231 
L 200.214279 187.866319 
L 205.528586 186.998519 
L 210.842872 186.122982 
L 216.157154 185.241857 
L 221.471443 184.357339 
L 225.085427 183.758427 
L 226.785726 183.43861 
L 232.100013 182.453054 
L 237.414298 181.472641 
L 242.728582 180.499782 
L 248.042868 179.536739 
L 253.357135 178.585662 
L 253.973918 178.478445 
L 258.671418 177.551929 
L 263.985704 176.525012 
L 269.299992 175.519358 
L 274.614275 174.536598 
L 279.928558 173.578145 
L 282.112299 173.198448 
L 285.242845 172.579698 
L 290.557131 171.567415 
L 295.871424 170.58746 
L 301.185713 169.640459 
L 306.499998 168.726811 
L 311.388096 167.918447 
L 311.814284 167.838064 
L 317.128569 166.89027 
L 322.442855 165.981616 
L 327.757141 165.111682 
L 333.071426 164.279906 
L 338.385711 163.485637 
L 343.699997 162.728058 
L 344.372436 162.638446 
L 349.014278 161.929481 
L 354.328564 161.160417 
L 359.642855 160.430626 
L 364.957142 159.738826 
L 370.271424 159.083712 
L 375.585714 158.463998 
L 380.899995 157.878353 
L 385.904803 157.358448 
L 386.214281 157.321395 
L 391.52857 156.735917 
L 396.842859 156.185063 
L 402.15714 155.667349 
L 407.471429 155.181281 
L 412.785712 154.725461 
L 418.1 154.298473 
L 418.1 152.078451 
L 418.1 146.798449 
L 418.1 141.51845 
L 418.1 139.562626 
L 412.785712 139.978483 
L 407.471429 140.421603 
L 402.15714 140.893168 
L 396.842859 141.394397 
L 395.628345 141.51845 
L 391.52857 141.879225 
L 386.214281 142.377697 
L 380.899995 142.905155 
L 375.585714 143.462591 
L 370.271424 144.051023 
L 364.957142 144.671421 
L 359.642855 145.324749 
L 354.328564 146.011888 
L 349.014278 146.733707 
L 348.568517 146.798449 
L 343.699997 147.411682 
L 338.385711 148.113582 
L 333.071426 148.847194 
L 327.757141 149.612931 
L 322.442855 150.411019 
L 317.128569 151.241607 
L 311.978486 152.078451 
L 311.814284 152.101702 
L 306.499998 152.895903 
L 301.185713 153.717538 
L 295.871424 154.566081 
L 290.557131 155.440829 
L 285.242845 156.340942 
L 279.928558 157.265376 
L 279.414049 157.358448 
L 274.614275 158.117998 
L 269.299992 158.978676 
L 263.985704 159.856208 
L 258.671418 160.749016 
L 253.357135 161.655357 
L 248.042868 162.573407 
L 247.675939 162.638446 
L 242.728582 163.406878 
L 237.414298 164.239165 
L 232.100013 165.075323 
L 226.785726 165.913406 
L 221.471443 166.751353 
L 216.157154 167.587176 
L 214.064034 167.918447 
L 210.842872 168.36507 
L 205.528586 169.101236 
L 200.214279 169.829392 
L 194.900012 170.547883 
L 189.585707 171.255142 
L 184.271443 171.949699 
L 178.957135 172.630164 
L 174.431957 173.198448 
L 173.642872 173.285057 
L 168.328567 173.864698 
L 163.014302 174.428226 
L 157.699996 174.974901 
L 152.38573 175.504122 
L 147.071429 176.015417 
L 141.757141 176.508391 
L 136.442855 176.982821 
L 131.128569 177.438546 
L 125.814283 177.875561 
L 120.499997 178.293862 
L 118.083579 178.478445 
L 115.185714 178.670874 
L 109.871427 179.011837 
L 104.557144 179.33646 
L 99.242859 179.64509 
L 93.92857 179.938097 
L 88.614287 180.215923 
L 83.3 180.479061 
L 83.3 183.758427 
L 83.3 189.038427 
L 83.3 194.318425 
L 83.3 199.598424 
L 83.3 199.93586 
z
" clip-path="url(#p378fa691df)" style="fill: #24aa83"/>
    <path d="M 88.614287 180.215923 
L 93.92857 179.938097 
L 99.242859 179.64509 
L 104.557144 179.33646 
L 109.871427 179.011837 
L 115.185714 178.670874 
L 118.083579 178.478445 
L 120.499997 178.293862 
L 125.814283 177.875561 
L 131.128569 177.438546 
L 136.442855 176.982821 
L 141.757141 176.508391 
L 147.071429 176.015417 
L 152.38573 175.504122 
L 157.699996 174.974901 
L 163.014302 174.428226 
L 168.328567 173.864698 
L 173.642872 173.285057 
L 174.431957 173.198448 
L 178.957135 172.630164 
L 184.271443 171.949699 
L 189.585707 171.255142 
L 194.900012 170.547883 
L 200.214279 169.829392 
L 205.528586 169.101236 
L 210.842872 168.36507 
L 214.064034 167.918447 
L 216.157154 167.587176 
L 221.471443 166.751353 
L 226.785726 165.913406 
L 232.100013 165.075323 
L 237.414298 164.239165 
L 242.728582 163.406878 
L 247.675939 162.638446 
L 248.042868 162.573407 
L 253.357135 161.655357 
L 258.671418 160.749016 
L 263.985704 159.856208 
L 269.299992 158.978676 
L 274.614275 158.117998 
L 279.414049 157.358448 
L 279.928558 157.265376 
L 285.242845 156.340942 
L 290.557131 155.440829 
L 295.871424 154.566081 
L 301.185713 153.717538 
L 306.499998 152.895903 
L 311.814284 152.101702 
L 311.978486 152.078451 
L 317.128569 151.241607 
L 322.442855 150.411019 
L 327.757141 149.612931 
L 333.071426 148.847194 
L 338.385711 148.113582 
L 343.699997 147.411682 
L 348.568517 146.798449 
L 349.014278 146.733707 
L 354.328564 146.011888 
L 359.642855 145.324749 
L 364.957142 144.671421 
L 370.271424 144.051023 
L 375.585714 143.462591 
L 380.899995 142.905155 
L 386.214281 142.377697 
L 391.52857 141.879225 
L 395.628345 141.51845 
L 396.842859 141.394397 
L 402.15714 140.893168 
L 407.471429 140.421603 
L 412.785712 139.978483 
L 418.1 139.562626 
L 418.1 136.238442 
L 418.1 130.958438 
L 418.1 125.678439 
L 418.1 122.431089 
L 412.785712 122.810615 
L 407.471429 123.213726 
L 402.15714 123.641218 
L 396.842859 124.093932 
L 391.52857 124.572703 
L 386.214281 125.078367 
L 380.899995 125.611695 
L 380.282252 125.678439 
L 375.585714 126.114976 
L 370.271424 126.635629 
L 364.957142 127.182104 
L 359.642855 127.754909 
L 354.328564 128.354445 
L 349.014278 128.981136 
L 343.699997 129.635256 
L 338.385711 130.316997 
L 333.591353 130.958438 
L 333.071426 131.018607 
L 327.757141 131.669577 
L 322.442855 132.344321 
L 317.128569 133.042567 
L 311.814284 133.763937 
L 306.499998 134.508001 
L 301.185713 135.274035 
L 295.871424 136.061372 
L 294.722609 136.238442 
L 290.557131 136.796364 
L 285.242845 137.527369 
L 279.928558 138.273682 
L 274.614275 139.034107 
L 269.299992 139.807291 
L 263.985704 140.591858 
L 258.671418 141.386253 
L 257.808917 141.51845 
L 253.357135 142.112866 
L 248.042868 142.829697 
L 242.728582 143.550087 
L 237.414298 144.272432 
L 232.100013 144.995094 
L 226.785726 145.716383 
L 221.471443 146.434673 
L 218.788605 146.798449 
L 216.157154 147.109415 
L 210.842872 147.737813 
L 205.528586 148.358772 
L 200.214279 148.971015 
L 194.900012 149.573268 
L 189.585707 150.16438 
L 184.271443 150.743241 
L 178.957135 151.308902 
L 173.642872 151.860462 
L 171.51485 152.078451 
L 168.328567 152.362283 
L 163.014302 152.82616 
L 157.699996 153.275364 
L 152.38573 153.709563 
L 147.071429 154.128453 
L 141.757141 154.531799 
L 136.442855 154.919491 
L 131.128569 155.291479 
L 125.814283 155.647794 
L 120.499997 155.988591 
L 115.185714 156.313993 
L 109.871427 156.62426 
L 104.557144 156.919653 
L 99.242859 157.200497 
L 96.134273 157.358448 
L 93.92857 157.455403 
L 88.614287 157.680898 
L 83.3 157.894419 
L 83.3 162.638446 
L 83.3 167.918447 
L 83.3 173.198448 
L 83.3 178.478445 
L 83.3 180.479061 
z
" clip-path="url(#p378fa691df)" style="fill: #3aba76"/>
    <path d="M 88.614287 157.680898 
L 93.92857 157.455403 
L 96.134273 157.358448 
L 99.242859 157.200497 
L 104.557144 156.919653 
L 109.871427 156.62426 
L 115.185714 156.313993 
L 120.499997 155.988591 
L 125.814283 155.647794 
L 131.128569 155.291479 
L 136.442855 154.919491 
L 141.757141 154.531799 
L 147.071429 154.128453 
L 152.38573 153.709563 
L 157.699996 153.275364 
L 163.014302 152.82616 
L 168.328567 152.362283 
L 171.51485 152.078451 
L 173.642872 151.860462 
L 178.957135 151.308902 
L 184.271443 150.743241 
L 189.585707 150.16438 
L 194.900012 149.573268 
L 200.214279 148.971015 
L 205.528586 148.358772 
L 210.842872 147.737813 
L 216.157154 147.109415 
L 218.788605 146.798449 
L 221.471443 146.434673 
L 226.785726 145.716383 
L 232.100013 144.995094 
L 237.414298 144.272432 
L 242.728582 143.550087 
L 248.042868 142.829697 
L 253.357135 142.112866 
L 257.808917 141.51845 
L 258.671418 141.386253 
L 263.985704 140.591858 
L 269.299992 139.807291 
L 274.614275 139.034107 
L 279.928558 138.273682 
L 285.242845 137.527369 
L 290.557131 136.796364 
L 294.722609 136.238442 
L 295.871424 136.061372 
L 301.185713 135.274035 
L 306.499998 134.508001 
L 311.814284 133.763937 
L 317.128569 133.042567 
L 322.442855 132.344321 
L 327.757141 131.669577 
L 333.071426 131.018607 
L 333.591353 130.958438 
L 338.385711 130.316997 
L 343.699997 129.635256 
L 349.014278 128.981136 
L 354.328564 128.354445 
L 359.642855 127.754909 
L 364.957142 127.182104 
L 370.271424 126.635629 
L 375.585714 126.114976 
L 380.282252 125.678439 
L 380.899995 125.611695 
L 386.214281 125.078367 
L 391.52857 124.572703 
L 396.842859 124.093932 
L 402.15714 123.641218 
L 407.471429 123.213726 
L 412.785712 122.810615 
L 418.1 122.431089 
L 418.1 120.398439 
L 418.1 115.11844 
L 418.1 109.83844 
L 418.1 104.558439 
L 418.1 101.716503 
L 412.785712 102.069511 
L 407.471429 102.442794 
L 402.15714 102.836831 
L 396.842859 103.252144 
L 391.52857 103.689125 
L 386.214281 104.148268 
L 381.705939 104.558439 
L 380.899995 104.62118 
L 375.585714 105.063921 
L 370.271424 105.526541 
L 364.957142 106.009199 
L 359.642855 106.511969 
L 354.328564 107.034848 
L 349.014278 107.577797 
L 343.699997 108.140682 
L 338.385711 108.723249 
L 333.071426 109.325205 
L 328.695576 109.83844 
L 327.757141 109.933175 
L 322.442855 110.495251 
L 317.128569 111.072544 
L 311.814284 111.664414 
L 306.499998 112.270089 
L 301.185713 112.888721 
L 295.871424 113.519384 
L 290.557131 114.161075 
L 285.242845 114.812584 
L 282.806721 115.11844 
L 279.928558 115.43085 
L 274.614275 116.019266 
L 269.299992 116.612677 
L 263.985704 117.209891 
L 258.671418 117.80963 
L 253.357135 118.410561 
L 248.042868 119.011392 
L 242.728582 119.610777 
L 237.414298 120.207335 
L 235.724617 120.398439 
L 232.100013 120.75369 
L 226.785726 121.273167 
L 221.471443 121.786662 
L 216.157154 122.293114 
L 210.842872 122.791548 
L 205.528586 123.280985 
L 200.214279 123.760576 
L 194.900012 124.22951 
L 189.585707 124.687074 
L 184.271443 125.132602 
L 178.957135 125.565559 
L 177.554687 125.678439 
L 173.642872 125.951204 
L 168.328567 126.312308 
L 163.014302 126.661157 
L 157.699996 126.997503 
L 152.38573 127.321278 
L 147.071429 127.632358 
L 141.757141 127.930764 
L 136.442855 128.216519 
L 131.128569 128.489817 
L 125.814283 128.750698 
L 120.499997 128.999398 
L 115.185714 129.236174 
L 109.871427 129.461323 
L 104.557144 129.675063 
L 99.242859 129.877752 
L 93.92857 130.069736 
L 88.614287 130.251405 
L 83.3 130.423102 
L 83.3 130.958438 
L 83.3 136.238442 
L 83.3 141.51845 
L 83.3 146.798449 
L 83.3 152.078451 
L 83.3 157.358448 
L 83.3 157.894419 
z
" clip-path="url(#p378fa691df)" style="fill: #5ec962"/>
    <path d="M 88.614287 130.251405 
L 93.92857 130.069736 
L 99.242859 129.877752 
L 104.557144 129.675063 
L 109.871427 129.461323 
L 115.185714 129.236174 
L 120.499997 128.999398 
L 125.814283 128.750698 
L 131.128569 128.489817 
L 136.442855 128.216519 
L 141.757141 127.930764 
L 147.071429 127.632358 
L 152.38573 127.321278 
L 157.699996 126.997503 
L 163.014302 126.661157 
L 168.328567 126.312308 
L 173.642872 125.951204 
L 177.554687 125.678439 
L 178.957135 125.565559 
L 184.271443 125.132602 
L 189.585707 124.687074 
L 194.900012 124.22951 
L 200.214279 123.760576 
L 205.528586 123.280985 
L 210.842872 122.791548 
L 216.157154 122.293114 
L 221.471443 121.786662 
L 226.785726 121.273167 
L 232.100013 120.75369 
L 235.724617 120.398439 
L 237.414298 120.207335 
L 242.728582 119.610777 
L 248.042868 119.011392 
L 253.357135 118.410561 
L 258.671418 117.80963 
L 263.985704 117.209891 
L 269.299992 116.612677 
L 274.614275 116.019266 
L 279.928558 115.43085 
L 282.806721 115.11844 
L 285.242845 114.812584 
L 290.557131 114.161075 
L 295.871424 113.519384 
L 301.185713 112.888721 
L 306.499998 112.270089 
L 311.814284 111.664414 
L 317.128569 111.072544 
L 322.442855 110.495251 
L 327.757141 109.933175 
L 328.695576 109.83844 
L 333.071426 109.325205 
L 338.385711 108.723249 
L 343.699997 108.140682 
L 349.014278 107.577797 
L 354.328564 107.034848 
L 359.642855 106.511969 
L 364.957142 106.009199 
L 370.271424 105.526541 
L 375.585714 105.063921 
L 380.899995 104.62118 
L 381.705939 104.558439 
L 386.214281 104.148268 
L 391.52857 103.689125 
L 396.842859 103.252144 
L 402.15714 102.836831 
L 407.471429 102.442794 
L 412.785712 102.069511 
L 418.1 101.716503 
L 418.1 99.27844 
L 418.1 93.998441 
L 418.1 88.718441 
L 418.1 83.438445 
L 418.1 78.158445 
L 418.1 74.933619 
L 412.785712 75.238887 
L 407.471429 75.559279 
L 402.15714 75.894918 
L 396.842859 76.245757 
L 391.52857 76.611929 
L 386.214281 76.993267 
L 380.899995 77.389715 
L 375.585714 77.800993 
L 371.145199 78.158445 
L 370.271424 78.218358 
L 364.957142 78.603209 
L 359.642855 79.000093 
L 354.328564 79.408627 
L 349.014278 79.828379 
L 343.699997 80.258803 
L 338.385711 80.699351 
L 333.071426 81.149388 
L 327.757141 81.608146 
L 322.442855 82.074936 
L 317.128569 82.548847 
L 311.814284 83.029055 
L 307.350099 83.438445 
L 306.499998 83.505267 
L 301.185713 83.935066 
L 295.871424 84.367759 
L 290.557131 84.802514 
L 285.242845 85.238451 
L 279.928558 85.674528 
L 274.614275 86.109839 
L 269.299992 86.543489 
L 263.985704 86.974526 
L 258.671418 87.402011 
L 253.357135 87.825091 
L 248.042868 88.242889 
L 242.728582 88.654604 
L 241.90768 88.718441 
L 237.414298 89.019339 
L 232.100013 89.370033 
L 226.785726 89.713492 
L 221.471443 90.049207 
L 216.157154 90.376755 
L 210.842872 90.695591 
L 205.528586 91.005365 
L 200.214279 91.305817 
L 194.900012 91.596651 
L 189.585707 91.877633 
L 184.271443 92.148605 
L 178.957135 92.409524 
L 173.642872 92.660258 
L 168.328567 92.900895 
L 163.014302 93.131383 
L 157.699996 93.351892 
L 152.38573 93.562447 
L 147.071429 93.763276 
L 141.757141 93.954597 
L 140.505988 93.998441 
L 136.442855 94.121245 
L 131.128569 94.275016 
L 125.814283 94.420965 
L 120.499997 94.55931 
L 115.185714 94.690255 
L 109.871427 94.81415 
L 104.557144 94.931173 
L 99.242859 95.041608 
L 93.92857 95.145797 
L 88.614287 95.243879 
L 83.3 95.3363 
L 83.3 99.27844 
L 83.3 104.558439 
L 83.3 109.83844 
L 83.3 115.11844 
L 83.3 120.398439 
L 83.3 125.678439 
L 83.3 130.423102 
z
" clip-path="url(#p378fa691df)" style="fill: #89d548"/>
    <path d="M 88.614287 95.243879 
L 93.92857 95.145797 
L 99.242859 95.041608 
L 104.557144 94.931173 
L 109.871427 94.81415 
L 115.185714 94.690255 
L 120.499997 94.55931 
L 125.814283 94.420965 
L 131.128569 94.275016 
L 136.442855 94.121245 
L 140.505988 93.998441 
L 141.757141 93.954597 
L 147.071429 93.763276 
L 152.38573 93.562447 
L 157.699996 93.351892 
L 163.014302 93.131383 
L 168.328567 92.900895 
L 173.642872 92.660258 
L 178.957135 92.409524 
L 184.271443 92.148605 
L 189.585707 91.877633 
L 194.900012 91.596651 
L 200.214279 91.305817 
L 205.528586 91.005365 
L 210.842872 90.695591 
L 216.157154 90.376755 
L 221.471443 90.049207 
L 226.785726 89.713492 
L 232.100013 89.370033 
L 237.414298 89.019339 
L 241.90768 88.718441 
L 242.728582 88.654604 
L 248.042868 88.242889 
L 253.357135 87.825091 
L 258.671418 87.402011 
L 263.985704 86.974526 
L 269.299992 86.543489 
L 274.614275 86.109839 
L 279.928558 85.674528 
L 285.242845 85.238451 
L 290.557131 84.802514 
L 295.871424 84.367759 
L 301.185713 83.935066 
L 306.499998 83.505267 
L 307.350099 83.438445 
L 311.814284 83.029055 
L 317.128569 82.548847 
L 322.442855 82.074936 
L 327.757141 81.608146 
L 333.071426 81.149388 
L 338.385711 80.699351 
L 343.699997 80.258803 
L 349.014278 79.828379 
L 354.328564 79.408627 
L 359.642855 79.000093 
L 364.957142 78.603209 
L 370.271424 78.218358 
L 371.145199 78.158445 
L 375.585714 77.800993 
L 380.899995 77.389715 
L 386.214281 76.993267 
L 391.52857 76.611929 
L 396.842859 76.245757 
L 402.15714 75.894918 
L 407.471429 75.559279 
L 412.785712 75.238887 
L 418.1 74.933619 
L 418.1 72.878439 
L 418.1 67.598438 
L 418.1 62.318442 
L 418.1 57.038437 
L 418.1 51.758443 
L 418.1 46.478442 
L 418.1 41.198439 
L 418.1 35.918436 
L 418.1 35.537727 
L 412.785712 35.785778 
L 410.079497 35.918436 
L 407.471429 36.026389 
L 402.15714 36.256874 
L 396.842859 36.494106 
L 391.52857 36.737794 
L 386.214281 36.987379 
L 380.899995 37.242621 
L 375.585714 37.502838 
L 370.271424 37.767645 
L 364.957142 38.036482 
L 359.642855 38.30879 
L 354.328564 38.584075 
L 349.014278 38.861647 
L 343.699997 39.140915 
L 338.385711 39.421316 
L 333.071426 39.702189 
L 327.757141 39.982876 
L 322.442855 40.2629 
L 317.128569 40.541518 
L 311.814284 40.818126 
L 306.499998 41.092238 
L 304.452742 41.198439 
L 301.185713 41.342691 
L 295.871424 41.576696 
L 290.557131 41.807312 
L 285.242845 42.033866 
L 279.928558 42.256192 
L 274.614275 42.473799 
L 269.299992 42.686383 
L 263.985704 42.893653 
L 258.671418 43.095368 
L 253.357135 43.291305 
L 248.042868 43.481315 
L 242.728582 43.665081 
L 237.414298 43.842709 
L 232.100013 44.013982 
L 226.785726 44.178886 
L 221.471443 44.337416 
L 216.157154 44.489506 
L 210.842872 44.635195 
L 205.528586 44.774635 
L 200.214279 44.907814 
L 194.900012 45.034948 
L 189.585707 45.155954 
L 184.271443 45.271096 
L 178.957135 45.38056 
L 173.642872 45.484411 
L 168.328567 45.582841 
L 163.014302 45.676031 
L 157.699996 45.764262 
L 152.38573 45.847624 
L 147.071429 45.926193 
L 141.757141 46.000343 
L 136.442855 46.070287 
L 131.128569 46.136016 
L 125.814283 46.197899 
L 120.499997 46.256166 
L 115.185714 46.310822 
L 109.871427 46.362159 
L 104.557144 46.410248 
L 99.242859 46.455334 
L 96.380531 46.478442 
L 93.92857 46.495393 
L 88.614287 46.530575 
L 83.3 46.563427 
L 83.3 51.758443 
L 83.3 57.038437 
L 83.3 62.318442 
L 83.3 67.598438 
L 83.3 72.878439 
L 83.3 78.158445 
L 83.3 83.438445 
L 83.3 88.718441 
L 83.3 93.998441 
L 83.3 95.3363 
z
" clip-path="url(#p378fa691df)" style="fill: #b8de29"/>
    <path d="M 88.614287 46.530575 
L 93.92857 46.495393 
L 96.380531 46.478442 
L 99.242859 46.455334 
L 104.557144 46.410248 
L 109.871427 46.362159 
L 115.185714 46.310822 
L 120.499997 46.256166 
L 125.814283 46.197899 
L 131.128569 46.136016 
L 136.442855 46.070287 
L 141.757141 46.000343 
L 147.071429 45.926193 
L 152.38573 45.847624 
L 157.699996 45.764262 
L 163.014302 45.676031 
L 168.328567 45.582841 
L 173.642872 45.484411 
L 178.957135 45.38056 
L 184.271443 45.271096 
L 189.585707 45.155954 
L 194.900012 45.034948 
L 200.214279 44.907814 
L 205.528586 44.774635 
L 210.842872 44.635195 
L 216.157154 44.489506 
L 221.471443 44.337416 
L 226.785726 44.178886 
L 232.100013 44.013982 
L 237.414298 43.842709 
L 242.728582 43.665081 
L 248.042868 43.481315 
L 253.357135 43.291305 
L 258.671418 43.095368 
L 263.985704 42.893653 
L 269.299992 42.686383 
L 274.614275 42.473799 
L 279.928558 42.256192 
L 285.242845 42.033866 
L 290.557131 41.807312 
L 295.871424 41.576696 
L 301.185713 41.342691 
L 304.452742 41.198439 
L 306.499998 41.092238 
L 311.814284 40.818126 
L 317.128569 40.541518 
L 322.442855 40.2629 
L 327.757141 39.982876 
L 333.071426 39.702189 
L 338.385711 39.421316 
L 343.699997 39.140915 
L 349.014278 38.861647 
L 354.328564 38.584075 
L 359.642855 38.30879 
L 364.957142 38.036482 
L 370.271424 37.767645 
L 375.585714 37.502838 
L 380.899995 37.242621 
L 386.214281 36.987379 
L 391.52857 36.737794 
L 396.842859 36.494106 
L 402.15714 36.256874 
L 407.471429 36.026389 
L 410.079497 35.918436 
L 412.785712 35.785778 
L 418.1 35.537727 
L 418.1 30.638441 
L 418.1 25.358437 
L 418.1 20.07844 
L 418.1 14.798437 
L 412.785712 14.798437 
L 407.471429 14.798437 
L 402.15714 14.798437 
L 396.842859 14.798437 
L 391.52857 14.798437 
L 386.214281 14.798437 
L 380.899995 14.798437 
L 375.585714 14.798437 
L 370.271424 14.798437 
L 364.957142 14.798437 
L 359.642855 14.798437 
L 354.328564 14.798437 
L 349.014278 14.798437 
L 343.699997 14.798437 
L 338.385711 14.798437 
L 333.071426 14.798437 
L 327.757141 14.798437 
L 322.442855 14.798437 
L 317.128569 14.798437 
L 311.814284 14.798437 
L 306.499998 14.798437 
L 301.185713 14.798437 
L 295.871424 14.798437 
L 290.557131 14.798437 
L 285.242845 14.798437 
L 279.928558 14.798437 
L 274.614275 14.798437 
L 269.299992 14.798437 
L 263.985704 14.798437 
L 258.671418 14.798437 
L 253.357135 14.798437 
L 248.042868 14.798437 
L 242.728582 14.798437 
L 237.414298 14.798437 
L 232.100013 14.798437 
L 226.785726 14.798437 
L 221.471443 14.798437 
L 216.157154 14.798437 
L 210.842872 14.798437 
L 205.528586 14.798437 
L 200.214279 14.798437 
L 194.900012 14.798437 
L 189.585707 14.798437 
L 184.271443 14.798437 
L 178.957135 14.798437 
L 173.642872 14.798437 
L 168.328567 14.798437 
L 163.014302 14.798437 
L 157.699996 14.798437 
L 152.38573 14.798437 
L 147.071429 14.798437 
L 141.757141 14.798437 
L 136.442855 14.798437 
L 131.128569 14.798437 
L 125.814283 14.798437 
L 120.499997 14.798437 
L 115.185714 14.798437 
L 109.871427 14.798437 
L 104.557144 14.798437 
L 99.242859 14.798437 
L 93.92857 14.798437 
L 88.614287 14.798437 
L 83.3 14.798437 
L 83.3 20.07844 
L 83.3 25.358437 
L 83.3 30.638441 
L 83.3 35.918436 
L 83.3 41.198439 
L 83.3 46.478442 
L 83.3 46.563427 
z
" clip-path="url(#p378fa691df)" style="fill: #e7e419"/>
   </g>
   <g id="matplotlib.axis_1">
    <g id="xtick_1">
     <g id="line2d_1">
      <defs>
       <path id="mcc5757c029" d="M 0 0 
L 0 2 
" style="stroke: #000000; stroke-width: 1.5"/>
      </defs>
      <g>
       <use xlink:href="#mcc5757c029" x="83.300002" y="347.438437" style="stroke: #000000; stroke-width: 1.5"/>
      </g>
     </g>
     <g id="text_1">
      <!-- $\mathdefault{10^{-2}}$ -->
      <g transform="translate(59.800002 368.135312) scale(0.2 -0.2)">
       <defs>
        <path id="DejaVuSans-31" d="M 794 531 
L 1825 531 
L 1825 4091 
L 703 3866 
L 703 4441 
L 1819 4666 
L 2450 4666 
L 2450 531 
L 3481 531 
L 3481 0 
L 794 0 
L 794 531 
z
" transform="scale(0.015625)"/>
        <path id="DejaVuSans-30" d="M 2034 4250 
Q 1547 4250 1301 3770 
Q 1056 3291 1056 2328 
Q 1056 1369 1301 889 
Q 1547 409 2034 409 
Q 2525 409 2770 889 
Q 3016 1369 3016 2328 
Q 3016 3291 2770 3770 
Q 2525 4250 2034 4250 
z
M 2034 4750 
Q 2819 4750 3233 4129 
Q 3647 3509 3647 2328 
Q 3647 1150 3233 529 
Q 2819 -91 2034 -91 
Q 1250 -91 836 529 
Q 422 1150 422 2328 
Q 422 3509 836 4129 
Q 1250 4750 2034 4750 
z
" transform="scale(0.015625)"/>
        <path id="DejaVuSans-2212" d="M 678 2272 
L 4684 2272 
L 4684 1741 
L 678 1741 
L 678 2272 
z
" transform="scale(0.015625)"/>
        <path id="DejaVuSans-32" d="M 1228 531 
L 3431 531 
L 3431 0 
L 469 0 
L 469 531 
Q 828 903 1448 1529 
Q 2069 2156 2228 2338 
Q 2531 2678 2651 2914 
Q 2772 3150 2772 3378 
Q 2772 3750 2511 3984 
Q 2250 4219 1831 4219 
Q 1534 4219 1204 4116 
Q 875 4013 500 3803 
L 500 4441 
Q 881 4594 1212 4672 
Q 1544 4750 1819 4750 
Q 2544 4750 2975 4387 
Q 3406 4025 3406 3419 
Q 3406 3131 3298 2873 
Q 3191 2616 2906 2266 
Q 2828 2175 2409 1742 
Q 1991 1309 1228 531 
z
" transform="scale(0.015625)"/>
       </defs>
       <use xlink:href="#DejaVuSans-31" transform="translate(0 0.765625)"/>
       <use xlink:href="#DejaVuSans-30" transform="translate(63.623047 0.765625)"/>
       <use xlink:href="#DejaVuSans-2212" transform="translate(128.203125 39.046875) scale(0.7)"/>
       <use xlink:href="#DejaVuSans-32" transform="translate(186.855469 39.046875) scale(0.7)"/>
      </g>
     </g>
    </g>
    <g id="xtick_2">
     <g id="line2d_2">
      <g>
       <use xlink:href="#mcc5757c029" x="250.700001" y="347.438437" style="stroke: #000000; stroke-width: 1.5"/>
      </g>
     </g>
     <g id="text_2">
      <!-- $\mathdefault{10^{-1}}$ -->
      <g transform="translate(227.200001 368.135312) scale(0.2 -0.2)">
       <use xlink:href="#DejaVuSans-31" transform="translate(0 0.684375)"/>
       <use xlink:href="#DejaVuSans-30" transform="translate(63.623047 0.684375)"/>
       <use xlink:href="#DejaVuSans-2212" transform="translate(128.203125 38.965625) scale(0.7)"/>
       <use xlink:href="#DejaVuSans-31" transform="translate(186.855469 38.965625) scale(0.7)"/>
      </g>
     </g>
    </g>
    <g id="xtick_3">
     <g id="line2d_3">
      <g>
       <use xlink:href="#mcc5757c029" x="418.1" y="347.438437" style="stroke: #000000; stroke-width: 1.5"/>
      </g>
     </g>
     <g id="text_3">
      <!-- $\mathdefault{10^{0}}$ -->
      <g transform="translate(400.5 368.135312) scale(0.2 -0.2)">
       <use xlink:href="#DejaVuSans-31" transform="translate(0 0.765625)"/>
       <use xlink:href="#DejaVuSans-30" transform="translate(63.623047 0.765625)"/>
       <use xlink:href="#DejaVuSans-30" transform="translate(128.203125 39.046875) scale(0.7)"/>
      </g>
     </g>
    </g>
    <g id="xtick_4">
     <g id="line2d_4">
      <defs>
       <path id="m914f297083" d="M 0 0 
L 0 2 
" style="stroke: #000000; stroke-width: 0.6"/>
      </defs>
      <g>
       <use xlink:href="#m914f297083" x="133.692423" y="347.438437" style="stroke: #000000; stroke-width: 0.6"/>
      </g>
     </g>
    </g>
    <g id="xtick_5">
     <g id="line2d_5">
      <g>
       <use xlink:href="#m914f297083" x="163.170099" y="347.438437" style="stroke: #000000; stroke-width: 0.6"/>
      </g>
     </g>
    </g>
    <g id="xtick_6">
     <g id="line2d_6">
      <g>
       <use xlink:href="#m914f297083" x="184.084844" y="347.438437" style="stroke: #000000; stroke-width: 0.6"/>
      </g>
     </g>
    </g>
    <g id="xtick_7">
     <g id="line2d_7">
      <g>
       <use xlink:href="#m914f297083" x="200.30758" y="347.438437" style="stroke: #000000; stroke-width: 0.6"/>
      </g>
     </g>
    </g>
    <g id="xtick_8">
     <g id="line2d_8">
      <g>
       <use xlink:href="#m914f297083" x="213.56252" y="347.438437" style="stroke: #000000; stroke-width: 0.6"/>
      </g>
     </g>
    </g>
    <g id="xtick_9">
     <g id="line2d_9">
      <g>
       <use xlink:href="#m914f297083" x="224.769413" y="347.438437" style="stroke: #000000; stroke-width: 0.6"/>
      </g>
     </g>
    </g>
    <g id="xtick_10">
     <g id="line2d_10">
      <g>
       <use xlink:href="#m914f297083" x="234.477265" y="347.438437" style="stroke: #000000; stroke-width: 0.6"/>
      </g>
     </g>
    </g>
    <g id="xtick_11">
     <g id="line2d_11">
      <g>
       <use xlink:href="#m914f297083" x="243.040197" y="347.438437" style="stroke: #000000; stroke-width: 0.6"/>
      </g>
     </g>
    </g>
    <g id="xtick_12">
     <g id="line2d_12">
      <g>
       <use xlink:href="#m914f297083" x="301.092422" y="347.438437" style="stroke: #000000; stroke-width: 0.6"/>
      </g>
     </g>
    </g>
    <g id="xtick_13">
     <g id="line2d_13">
      <g>
       <use xlink:href="#m914f297083" x="330.570098" y="347.438437" style="stroke: #000000; stroke-width: 0.6"/>
      </g>
     </g>
    </g>
    <g id="xtick_14">
     <g id="line2d_14">
      <g>
       <use xlink:href="#m914f297083" x="351.484843" y="347.438437" style="stroke: #000000; stroke-width: 0.6"/>
      </g>
     </g>
    </g>
    <g id="xtick_15">
     <g id="line2d_15">
      <g>
       <use xlink:href="#m914f297083" x="367.707579" y="347.438437" style="stroke: #000000; stroke-width: 0.6"/>
      </g>
     </g>
    </g>
    <g id="xtick_16">
     <g id="line2d_16">
      <g>
       <use xlink:href="#m914f297083" x="380.962519" y="347.438437" style="stroke: #000000; stroke-width: 0.6"/>
      </g>
     </g>
    </g>
    <g id="xtick_17">
     <g id="line2d_17">
      <g>
       <use xlink:href="#m914f297083" x="392.169412" y="347.438437" style="stroke: #000000; stroke-width: 0.6"/>
      </g>
     </g>
    </g>
    <g id="xtick_18">
     <g id="line2d_18">
      <g>
       <use xlink:href="#m914f297083" x="401.877264" y="347.438437" style="stroke: #000000; stroke-width: 0.6"/>
      </g>
     </g>
    </g>
    <g id="xtick_19">
     <g id="line2d_19">
      <g>
       <use xlink:href="#m914f297083" x="410.440196" y="347.438437" style="stroke: #000000; stroke-width: 0.6"/>
      </g>
     </g>
    </g>
    <g id="text_4">
     <!-- $\lambda$ -->
     <g transform="translate(244.7 391.491562) scale(0.2 -0.2)">
      <defs>
       <path id="DejaVuSans-Oblique-3bb" d="M 2350 4316 
L 3125 0 
L 2516 0 
L 2038 2588 
L 328 0 
L -281 0 
L 1903 3356 
L 1794 3975 
Q 1725 4369 1391 4369 
L 1091 4369 
L 1184 4863 
L 1550 4856 
Q 2253 4847 2350 4316 
z
" transform="scale(0.015625)"/>
      </defs>
      <use xlink:href="#DejaVuSans-Oblique-3bb" transform="translate(0 0.015625)"/>
     </g>
    </g>
   </g>
   <g id="matplotlib.axis_2">
    <g id="ytick_1">
     <g id="line2d_20">
      <defs>
       <path id="m380a96dc24" d="M 0 0 
L -2 0 
" style="stroke: #000000; stroke-width: 1.5"/>
      </defs>
      <g>
       <use xlink:href="#m380a96dc24" x="83.3" y="347.438436" style="stroke: #000000; stroke-width: 1.5"/>
      </g>
     </g>
     <g id="text_5">
      <!-- $\mathdefault{10^{-2}}$ -->
      <g transform="translate(30.8 355.036873) scale(0.2 -0.2)">
       <use xlink:href="#DejaVuSans-31" transform="translate(0 0.765625)"/>
       <use xlink:href="#DejaVuSans-30" transform="translate(63.623047 0.765625)"/>
       <use xlink:href="#DejaVuSans-2212" transform="translate(128.203125 39.046875) scale(0.7)"/>
       <use xlink:href="#DejaVuSans-32" transform="translate(186.855469 39.046875) scale(0.7)"/>
      </g>
     </g>
    </g>
    <g id="ytick_2">
     <g id="line2d_21">
      <g>
       <use xlink:href="#m380a96dc24" x="83.3" y="181.118437" style="stroke: #000000; stroke-width: 1.5"/>
      </g>
     </g>
     <g id="text_6">
      <!-- $\mathdefault{10^{-1}}$ -->
      <g transform="translate(30.8 188.716874) scale(0.2 -0.2)">
       <use xlink:href="#DejaVuSans-31" transform="translate(0 0.684375)"/>
       <use xlink:href="#DejaVuSans-30" transform="translate(63.623047 0.684375)"/>
       <use xlink:href="#DejaVuSans-2212" transform="translate(128.203125 38.965625) scale(0.7)"/>
       <use xlink:href="#DejaVuSans-31" transform="translate(186.855469 38.965625) scale(0.7)"/>
      </g>
     </g>
    </g>
    <g id="ytick_3">
     <g id="line2d_22">
      <g>
       <use xlink:href="#m380a96dc24" x="83.3" y="14.798437" style="stroke: #000000; stroke-width: 1.5"/>
      </g>
     </g>
     <g id="text_7">
      <!-- $\mathdefault{10^{0}}$ -->
      <g transform="translate(42.6 22.396875) scale(0.2 -0.2)">
       <use xlink:href="#DejaVuSans-31" transform="translate(0 0.765625)"/>
       <use xlink:href="#DejaVuSans-30" transform="translate(63.623047 0.765625)"/>
       <use xlink:href="#DejaVuSans-30" transform="translate(128.203125 39.046875) scale(0.7)"/>
      </g>
     </g>
    </g>
    <g id="ytick_4">
     <g id="line2d_23">
      <defs>
       <path id="m04619f7a08" d="M 0 0 
L -2 0 
" style="stroke: #000000; stroke-width: 0.6"/>
      </defs>
      <g>
       <use xlink:href="#m04619f7a08" x="83.3" y="297.371127" style="stroke: #000000; stroke-width: 0.6"/>
      </g>
     </g>
    </g>
    <g id="ytick_5">
     <g id="line2d_24">
      <g>
       <use xlink:href="#m04619f7a08" x="83.3" y="268.083629" style="stroke: #000000; stroke-width: 0.6"/>
      </g>
     </g>
    </g>
    <g id="ytick_6">
     <g id="line2d_25">
      <g>
       <use xlink:href="#m04619f7a08" x="83.3" y="247.303819" style="stroke: #000000; stroke-width: 0.6"/>
      </g>
     </g>
    </g>
    <g id="ytick_7">
     <g id="line2d_26">
      <g>
       <use xlink:href="#m04619f7a08" x="83.3" y="231.185745" style="stroke: #000000; stroke-width: 0.6"/>
      </g>
     </g>
    </g>
    <g id="ytick_8">
     <g id="line2d_27">
      <g>
       <use xlink:href="#m04619f7a08" x="83.3" y="218.016321" style="stroke: #000000; stroke-width: 0.6"/>
      </g>
     </g>
    </g>
    <g id="ytick_9">
     <g id="line2d_28">
      <g>
       <use xlink:href="#m04619f7a08" x="83.3" y="206.881731" style="stroke: #000000; stroke-width: 0.6"/>
      </g>
     </g>
    </g>
    <g id="ytick_10">
     <g id="line2d_29">
      <g>
       <use xlink:href="#m04619f7a08" x="83.3" y="197.23651" style="stroke: #000000; stroke-width: 0.6"/>
      </g>
     </g>
    </g>
    <g id="ytick_11">
     <g id="line2d_30">
      <g>
       <use xlink:href="#m04619f7a08" x="83.3" y="188.728822" style="stroke: #000000; stroke-width: 0.6"/>
      </g>
     </g>
    </g>
    <g id="ytick_12">
     <g id="line2d_31">
      <g>
       <use xlink:href="#m04619f7a08" x="83.3" y="131.051128" style="stroke: #000000; stroke-width: 0.6"/>
      </g>
     </g>
    </g>
    <g id="ytick_13">
     <g id="line2d_32">
      <g>
       <use xlink:href="#m04619f7a08" x="83.3" y="101.76363" style="stroke: #000000; stroke-width: 0.6"/>
      </g>
     </g>
    </g>
    <g id="ytick_14">
     <g id="line2d_33">
      <g>
       <use xlink:href="#m04619f7a08" x="83.3" y="80.983819" style="stroke: #000000; stroke-width: 0.6"/>
      </g>
     </g>
    </g>
    <g id="ytick_15">
     <g id="line2d_34">
      <g>
       <use xlink:href="#m04619f7a08" x="83.3" y="64.865746" style="stroke: #000000; stroke-width: 0.6"/>
      </g>
     </g>
    </g>
    <g id="ytick_16">
     <g id="line2d_35">
      <g>
       <use xlink:href="#m04619f7a08" x="83.3" y="51.696321" style="stroke: #000000; stroke-width: 0.6"/>
      </g>
     </g>
    </g>
    <g id="ytick_17">
     <g id="line2d_36">
      <g>
       <use xlink:href="#m04619f7a08" x="83.3" y="40.561731" style="stroke: #000000; stroke-width: 0.6"/>
      </g>
     </g>
    </g>
    <g id="ytick_18">
     <g id="line2d_37">
      <g>
       <use xlink:href="#m04619f7a08" x="83.3" y="30.916511" style="stroke: #000000; stroke-width: 0.6"/>
      </g>
     </g>
    </g>
    <g id="ytick_19">
     <g id="line2d_38">
      <g>
       <use xlink:href="#m04619f7a08" x="83.3" y="22.408823" style="stroke: #000000; stroke-width: 0.6"/>
      </g>
     </g>
    </g>
    <g id="text_8">
     <!-- $\beta$ -->
     <g transform="translate(22.6 187.518437) rotate(-90) scale(0.2 -0.2)">
      <defs>
       <path id="DejaVuSans-Oblique-3b2" d="M 872 216 
L 572 -1331 
L -6 -1331 
L 928 3478 
Q 1206 4903 2538 4903 
Q 3888 4903 3659 3700 
Q 3503 2844 2894 2531 
Q 3713 2250 3553 1416 
Q 3272 -69 1759 -66 
Q 1097 -63 872 216 
z
M 1019 966 
Q 1259 422 1875 425 
Q 2775 425 2966 1406 
Q 3138 2288 1675 2219 
L 1778 2750 
Q 2909 2731 3106 3750 
Q 3241 4438 2509 4434 
Q 1691 4434 1503 3459 
L 1019 966 
z
" transform="scale(0.015625)"/>
      </defs>
      <use xlink:href="#DejaVuSans-Oblique-3b2" transform="translate(0 0.390625)"/>
     </g>
    </g>
   </g>
   <g id="patch_3">
    <path d="M 83.3 347.438437 
L 83.3 14.798437 
" style="fill: none; stroke: #000000; stroke-width: 0.8; stroke-linejoin: miter; stroke-linecap: square"/>
   </g>
   <g id="patch_4">
    <path d="M 418.1 347.438437 
L 418.1 14.798437 
" style="fill: none; stroke: #000000; stroke-width: 0.8; stroke-linejoin: miter; stroke-linecap: square"/>
   </g>
   <g id="patch_5">
    <path d="M 83.3 347.438437 
L 418.1 347.438437 
" style="fill: none; stroke: #000000; stroke-width: 0.8; stroke-linejoin: miter; stroke-linecap: square"/>
   </g>
   <g id="patch_6">
    <path d="M 83.3 14.798437 
L 418.1 14.798437 
" style="fill: none; stroke: #000000; stroke-width: 0.8; stroke-linejoin: miter; stroke-linecap: square"/>
   </g>
   <g id="text_9">
    <!-- $p_{EI}$ -->
    <g transform="translate(367.707579 64.865746) scale(0.25 -0.25)">
     <defs>
      <path id="DejaVuSans-Oblique-70" d="M 3175 2156 
Q 3175 2616 2975 2859 
Q 2775 3103 2400 3103 
Q 2144 3103 1911 2972 
Q 1678 2841 1497 2591 
Q 1319 2344 1212 1994 
Q 1106 1644 1106 1300 
Q 1106 863 1306 627 
Q 1506 391 1875 391 
Q 2147 391 2380 519 
Q 2613 647 2778 891 
Q 2956 1147 3065 1494 
Q 3175 1841 3175 2156 
z
M 1394 2969 
Q 1625 3272 1939 3428 
Q 2253 3584 2638 3584 
Q 3175 3584 3472 3232 
Q 3769 2881 3769 2247 
Q 3769 1728 3584 1258 
Q 3400 788 3053 416 
Q 2822 169 2531 39 
Q 2241 -91 1919 -91 
Q 1547 -91 1294 64 
Q 1041 219 916 525 
L 556 -1331 
L -19 -1331 
L 922 3500 
L 1497 3500 
L 1394 2969 
z
" transform="scale(0.015625)"/>
      <path id="DejaVuSans-Oblique-45" d="M 1081 4666 
L 4031 4666 
L 3928 4134 
L 1606 4134 
L 1338 2753 
L 3566 2753 
L 3463 2222 
L 1234 2222 
L 909 531 
L 3284 531 
L 3181 0 
L 172 0 
L 1081 4666 
z
" transform="scale(0.015625)"/>
      <path id="DejaVuSans-Oblique-49" d="M 1081 4666 
L 1716 4666 
L 806 0 
L 172 0 
L 1081 4666 
z
" transform="scale(0.015625)"/>
     </defs>
     <use xlink:href="#DejaVuSans-Oblique-70"/>
     <use xlink:href="#DejaVuSans-Oblique-45" transform="translate(63.476562 -16.40625) scale(0.7)"/>
     <use xlink:href="#DejaVuSans-Oblique-49" transform="translate(107.705078 -16.40625) scale(0.7)"/>
    </g>
   </g>
  </g>
 </g>
 <defs>
  <clipPath id="p378fa691df">
   <rect x="83.3" y="14.798437" width="334.8" height="332.64"/>
  </clipPath>
 </defs>
</svg>
