<?xml version="1.0" encoding="utf-8" standalone="no"?>
<!DOCTYPE svg PUBLIC "-//W3C//DTD SVG 1.1//EN"
  "http://www.w3.org/Graphics/SVG/1.1/DTD/svg11.dtd">
<svg xmlns:xlink="http://www.w3.org/1999/xlink" width="442.9pt" height="402.850937pt" viewBox="0 0 442.9 402.850937" xmlns="http://www.w3.org/2000/svg" version="1.1">
 <metadata>
  <rdf:RDF xmlns:dc="http://purl.org/dc/elements/1.1/" xmlns:cc="http://creativecommons.org/ns#" xmlns:rdf="http://www.w3.org/1999/02/22-rdf-syntax-ns#">
   <cc:Work>
    <dc:type rdf:resource="http://purl.org/dc/dcmitype/StillImage"/>
    <dc:date>2025-05-12T14:37:36.676566</dc:date>
    <dc:format>image/svg+xml</dc:format>
    <dc:creator>
     <cc:Agent>
      <dc:title>Matplotlib v3.10.1, https://matplotlib.org/</dc:title>
     </cc:Agent>
    </dc:creator>
   </cc:Work>
  </rdf:RDF>
 </metadata>
 <defs>
  <style type="text/css">*{stroke-linejoin: round; stroke-linecap: butt}</style>
 </defs>
 <g id="figure_1">
  <g id="patch_1">
   <path d="M 0 402.850937 
L 442.9 402.850937 
L 442.9 0 
L 0 0 
z
" style="fill: #ffffff"/>
  </g>
  <g id="axes_1">
   <g id="patch_2">
    <path d="M 83.3 347.438437 
L 418.1 347.438437 
L 418.1 14.798437 
L 83.3 14.798437 
z
" style="fill: #ffffff"/>
   </g>
   <g id="QuadContourSet_1">
    <path d="M 88.614287 347.438437 
L 93.92857 347.438437 
L 99.242859 347.438437 
L 104.557144 347.438437 
L 109.871427 347.438437 
L 115.185714 347.438437 
L 120.499997 347.438437 
L 125.814283 347.438437 
L 131.128569 347.438437 
L 136.442855 347.438437 
L 141.757141 347.438437 
L 147.071429 347.438437 
L 152.38573 347.438437 
L 157.699996 347.438437 
L 163.014302 347.438437 
L 168.328567 347.438437 
L 173.642872 347.438437 
L 178.957135 347.438437 
L 184.271443 347.438437 
L 189.585707 347.438437 
L 194.900012 347.438437 
L 200.214279 347.438437 
L 205.528586 347.438437 
L 210.842872 347.438437 
L 216.157154 347.438437 
L 221.471443 347.438437 
L 226.785726 347.438437 
L 232.100013 347.438437 
L 237.414298 347.438437 
L 242.728582 347.438437 
L 248.042868 347.438437 
L 253.357135 347.438437 
L 258.671418 347.438437 
L 263.985704 347.438437 
L 269.299992 347.438437 
L 274.614275 347.438437 
L 279.928558 347.438437 
L 285.242845 347.438437 
L 290.557131 347.438437 
L 295.871424 347.438437 
L 301.185713 347.438437 
L 306.499998 347.438437 
L 311.814284 347.438437 
L 317.128569 347.438437 
L 322.442855 347.438437 
L 327.757141 347.438437 
L 333.071426 347.438437 
L 338.385711 347.438437 
L 343.699997 347.438437 
L 349.014278 347.438437 
L 354.328564 347.438437 
L 359.642855 347.438437 
L 364.957142 347.438437 
L 370.271424 347.438437 
L 375.585714 347.438437 
L 380.899995 347.438437 
L 386.214281 347.438437 
L 391.52857 347.438437 
L 396.842859 347.438437 
L 402.15714 347.438437 
L 407.471429 347.438437 
L 412.785712 347.438437 
L 418.1 347.438437 
L 418.1 342.158436 
L 418.1 336.878439 
L 418.1 331.598435 
L 418.1 326.318437 
L 418.1 321.038439 
L 418.1 315.758438 
L 418.1 310.478441 
L 418.1 305.19844 
L 418.1 299.91844 
L 418.1 294.638439 
L 418.1 289.358439 
L 418.1 284.078437 
L 418.1 278.798422 
L 418.1 273.518441 
L 418.1 268.238422 
L 418.1 262.958442 
L 418.1 257.678423 
L 418.1 252.398445 
L 418.1 247.118424 
L 418.1 241.838445 
L 418.1 238.096636 
L 412.785712 238.066492 
L 407.471429 239.492351 
L 402.15714 240.828238 
L 396.842859 241.041327 
L 391.52857 241.32593 
L 389.698856 241.838445 
L 386.214281 242.924069 
L 380.899995 243.234736 
L 375.585714 244.579718 
L 370.271424 245.716723 
L 364.957142 246.331093 
L 361.856389 247.118424 
L 359.642855 247.61876 
L 354.328564 247.63529 
L 349.014278 249.437354 
L 343.699997 250.870947 
L 338.385711 251.491666 
L 333.323466 252.398445 
L 333.071426 252.459623 
L 327.757141 253.867698 
L 322.442855 255.765674 
L 317.128569 256.98476 
L 312.930416 257.678423 
L 311.814284 257.891803 
L 306.499998 259.763504 
L 301.185713 260.686793 
L 295.871424 262.702641 
L 293.519513 262.958442 
L 290.557131 263.374371 
L 285.242845 265.920551 
L 279.928558 267.097329 
L 275.790449 268.238422 
L 274.614275 268.506669 
L 269.299992 270.150878 
L 263.985704 271.511439 
L 258.671418 272.940519 
L 256.783784 273.518441 
L 253.357135 274.550035 
L 248.042868 276.514277 
L 242.728582 277.962573 
L 238.903167 278.798422 
L 237.414298 279.191195 
L 232.100013 280.699748 
L 226.785726 282.014145 
L 221.471443 283.707121 
L 216.157154 283.958373 
L 215.85336 284.078437 
L 210.842872 286.171829 
L 205.528586 287.605945 
L 200.214279 288.885444 
L 198.631362 289.358439 
L 194.900012 290.15992 
L 189.585707 290.578485 
L 184.271443 291.522019 
L 178.957135 292.694712 
L 173.642872 293.357603 
L 168.328567 293.853797 
L 165.158481 294.638439 
L 163.014302 295.279382 
L 157.699996 295.749778 
L 152.38573 295.989362 
L 147.071429 296.869403 
L 141.757141 297.236408 
L 136.442855 297.106991 
L 131.128569 298.434396 
L 125.814283 298.198411 
L 120.499997 299.301229 
L 115.185714 299.364744 
L 109.871427 299.596597 
L 106.908115 299.91844 
L 104.557144 300.104768 
L 99.242859 300.331766 
L 93.92857 300.363215 
L 88.614287 300.593055 
L 83.3 300.309781 
L 83.3 305.19844 
L 83.3 310.478441 
L 83.3 315.758438 
L 83.3 321.038439 
L 83.3 326.318437 
L 83.3 331.598435 
L 83.3 336.878439 
L 83.3 342.158436 
L 83.3 347.438437 
z
" clip-path="url(#p3cdcdfadc4)" style="fill: #470e61"/>
    <path d="M 88.614287 300.593055 
L 93.92857 300.363215 
L 99.242859 300.331766 
L 104.557144 300.104768 
L 106.908115 299.91844 
L 109.871427 299.596597 
L 115.185714 299.364744 
L 120.499997 299.301229 
L 125.814283 298.198411 
L 131.128569 298.434396 
L 136.442855 297.106991 
L 141.757141 297.236408 
L 147.071429 296.869403 
L 152.38573 295.989362 
L 157.699996 295.749778 
L 163.014302 295.279382 
L 165.158481 294.638439 
L 168.328567 293.853797 
L 173.642872 293.357603 
L 178.957135 292.694712 
L 184.271443 291.522019 
L 189.585707 290.578485 
L 194.900012 290.15992 
L 198.631362 289.358439 
L 200.214279 288.885444 
L 205.528586 287.605945 
L 210.842872 286.171829 
L 215.85336 284.078437 
L 216.157154 283.958373 
L 221.471443 283.707121 
L 226.785726 282.014145 
L 232.100013 280.699748 
L 237.414298 279.191195 
L 238.903167 278.798422 
L 242.728582 277.962573 
L 248.042868 276.514277 
L 253.357135 274.550035 
L 256.783784 273.518441 
L 258.671418 272.940519 
L 263.985704 271.511439 
L 269.299992 270.150878 
L 274.614275 268.506669 
L 275.790449 268.238422 
L 279.928558 267.097329 
L 285.242845 265.920551 
L 290.557131 263.374371 
L 293.519513 262.958442 
L 295.871424 262.702641 
L 301.185713 260.686793 
L 306.499998 259.763504 
L 311.814284 257.891803 
L 312.930416 257.678423 
L 317.128569 256.98476 
L 322.442855 255.765674 
L 327.757141 253.867698 
L 333.071426 252.459623 
L 333.323466 252.398445 
L 338.385711 251.491666 
L 343.699997 250.870947 
L 349.014278 249.437354 
L 354.328564 247.63529 
L 359.642855 247.61876 
L 361.856389 247.118424 
L 364.957142 246.331093 
L 370.271424 245.716723 
L 375.585714 244.579718 
L 380.899995 243.234736 
L 386.214281 242.924069 
L 389.698856 241.838445 
L 391.52857 241.32593 
L 396.842859 241.041327 
L 402.15714 240.828238 
L 407.471429 239.492351 
L 412.785712 238.066492 
L 418.1 238.096636 
L 418.1 236.558426 
L 418.1 231.278444 
L 418.1 225.998423 
L 418.1 220.718422 
L 418.1 218.489092 
L 412.785712 218.627262 
L 407.471429 220.015372 
L 402.15714 219.776086 
L 396.842859 220.629587 
L 396.341516 220.718422 
L 391.52857 221.68977 
L 386.214281 222.648915 
L 380.899995 223.576494 
L 375.585714 224.366273 
L 370.271424 224.814854 
L 364.957142 225.945345 
L 364.663162 225.998423 
L 359.642855 226.69586 
L 354.328564 227.47311 
L 349.014278 228.809165 
L 343.699997 229.531008 
L 338.410992 231.278444 
L 338.385711 231.287306 
L 333.071426 232.310684 
L 327.757141 233.308847 
L 322.442855 234.350592 
L 317.128569 235.917371 
L 315.28722 236.558426 
L 311.814284 237.711418 
L 306.499998 238.838155 
L 301.185713 239.903115 
L 295.871424 241.081547 
L 293.85341 241.838445 
L 290.557131 243.027301 
L 285.242845 244.310919 
L 279.928558 245.615699 
L 275.762133 247.118424 
L 274.614275 247.547001 
L 269.299992 249.009087 
L 263.985704 249.868791 
L 258.671418 251.551941 
L 255.632231 252.398445 
L 253.357135 252.968188 
L 248.042868 254.40981 
L 242.728582 256.025018 
L 237.414298 257.624714 
L 237.225347 257.678423 
L 232.100013 259.021494 
L 226.785726 260.527712 
L 221.471443 261.443154 
L 216.157154 262.587487 
L 215.280287 262.958442 
L 210.842872 264.411818 
L 205.528586 265.7461 
L 200.214279 266.274712 
L 194.900012 267.753392 
L 189.585707 267.939598 
L 188.285079 268.238422 
L 184.271443 269.258276 
L 178.957135 270.291311 
L 173.642872 271.446315 
L 168.328567 272.149427 
L 163.014302 272.82954 
L 158.694618 273.518441 
L 157.699996 273.678993 
L 152.38573 274.228689 
L 147.071429 274.806667 
L 141.757141 275.02402 
L 136.442855 275.835034 
L 131.128569 276.581763 
L 125.814283 276.997261 
L 120.499997 277.456992 
L 115.185714 277.698362 
L 109.871427 277.725962 
L 104.557144 278.009494 
L 99.35653 278.798422 
L 99.242859 278.814748 
L 93.92857 278.910156 
L 88.614287 279.172884 
L 83.3 279.338586 
L 83.3 284.078437 
L 83.3 289.358439 
L 83.3 294.638439 
L 83.3 299.91844 
L 83.3 300.309781 
z
" clip-path="url(#p3cdcdfadc4)" style="fill: #482677"/>
    <path d="M 88.614287 279.172884 
L 93.92857 278.910156 
L 99.242859 278.814748 
L 99.35653 278.798422 
L 104.557144 278.009494 
L 109.871427 277.725962 
L 115.185714 277.698362 
L 120.499997 277.456992 
L 125.814283 276.997261 
L 131.128569 276.581763 
L 136.442855 275.835034 
L 141.757141 275.02402 
L 147.071429 274.806667 
L 152.38573 274.228689 
L 157.699996 273.678993 
L 158.694618 273.518441 
L 163.014302 272.82954 
L 168.328567 272.149427 
L 173.642872 271.446315 
L 178.957135 270.291311 
L 184.271443 269.258276 
L 188.285079 268.238422 
L 189.585707 267.939598 
L 194.900012 267.753392 
L 200.214279 266.274712 
L 205.528586 265.7461 
L 210.842872 264.411818 
L 215.280287 262.958442 
L 216.157154 262.587487 
L 221.471443 261.443154 
L 226.785726 260.527712 
L 232.100013 259.021494 
L 237.225347 257.678423 
L 237.414298 257.624714 
L 242.728582 256.025018 
L 248.042868 254.40981 
L 253.357135 252.968188 
L 255.632231 252.398445 
L 258.671418 251.551941 
L 263.985704 249.868791 
L 269.299992 249.009087 
L 274.614275 247.547001 
L 275.762133 247.118424 
L 279.928558 245.615699 
L 285.242845 244.310919 
L 290.557131 243.027301 
L 293.85341 241.838445 
L 295.871424 241.081547 
L 301.185713 239.903115 
L 306.499998 238.838155 
L 311.814284 237.711418 
L 315.28722 236.558426 
L 317.128569 235.917371 
L 322.442855 234.350592 
L 327.757141 233.308847 
L 333.071426 232.310684 
L 338.385711 231.287306 
L 338.410992 231.278444 
L 343.699997 229.531008 
L 349.014278 228.809165 
L 354.328564 227.47311 
L 359.642855 226.69586 
L 364.663162 225.998423 
L 364.957142 225.945345 
L 370.271424 224.814854 
L 375.585714 224.366273 
L 380.899995 223.576494 
L 386.214281 222.648915 
L 391.52857 221.68977 
L 396.341516 220.718422 
L 396.842859 220.629587 
L 402.15714 219.776086 
L 407.471429 220.015372 
L 412.785712 218.627262 
L 418.1 218.489092 
L 418.1 215.438426 
L 418.1 210.158424 
L 418.1 204.878426 
L 418.1 204.465985 
L 412.785712 204.861087 
L 412.636971 204.878426 
L 407.471429 205.474365 
L 402.15714 205.833897 
L 396.842859 206.71994 
L 391.52857 207.483282 
L 386.214281 208.026881 
L 380.899995 208.570092 
L 375.585714 209.494272 
L 372.685279 210.158424 
L 370.271424 210.707629 
L 364.957142 211.149412 
L 359.642855 212.173474 
L 354.328564 213.45614 
L 349.014278 214.621486 
L 343.699997 215.189539 
L 342.42311 215.438426 
L 338.385711 216.231879 
L 333.071426 217.674845 
L 327.757141 218.417816 
L 322.442855 219.778476 
L 319.229988 220.718422 
L 317.128569 221.296329 
L 311.814284 222.004601 
L 306.499998 223.538246 
L 301.185713 225.173614 
L 296.965916 225.998423 
L 295.871424 226.182011 
L 290.557131 227.42001 
L 285.242845 229.338849 
L 279.928558 230.062212 
L 274.614275 231.237995 
L 274.48976 231.278444 
L 269.299992 233.064308 
L 263.985704 234.655478 
L 258.671418 236.251832 
L 257.569027 236.558426 
L 253.357135 237.600045 
L 248.042868 238.570903 
L 242.728582 240.304138 
L 237.414298 241.681642 
L 236.770297 241.838445 
L 232.100013 242.942254 
L 226.785726 244.128003 
L 221.471443 245.872972 
L 216.157154 247.025271 
L 215.790509 247.118424 
L 210.842872 248.067159 
L 205.528586 249.374562 
L 200.214279 250.150129 
L 194.900012 251.65608 
L 190.811607 252.398445 
L 189.585707 252.599904 
L 184.271443 253.425093 
L 178.957135 254.581913 
L 173.642872 255.10335 
L 168.328567 256.151261 
L 163.014302 256.855655 
L 157.699996 257.193109 
L 154.786529 257.678423 
L 152.38573 258.07834 
L 147.071429 258.535848 
L 141.757141 259.333481 
L 136.442855 259.917137 
L 131.128569 260.135377 
L 125.814283 260.924281 
L 120.499997 261.474495 
L 115.185714 261.883187 
L 109.871427 261.922408 
L 104.557144 262.586303 
L 99.242859 262.952353 
L 98.800477 262.958442 
L 93.92857 263.020163 
L 88.614287 263.084268 
L 83.3 263.341744 
L 83.3 268.238422 
L 83.3 273.518441 
L 83.3 278.798422 
L 83.3 279.338586 
z
" clip-path="url(#p3cdcdfadc4)" style="fill: #433d84"/>
    <path d="M 88.614287 263.084268 
L 93.92857 263.020163 
L 98.800477 262.958442 
L 99.242859 262.952353 
L 104.557144 262.586303 
L 109.871427 261.922408 
L 115.185714 261.883187 
L 120.499997 261.474495 
L 125.814283 260.924281 
L 131.128569 260.135377 
L 136.442855 259.917137 
L 141.757141 259.333481 
L 147.071429 258.535848 
L 152.38573 258.07834 
L 154.786529 257.678423 
L 157.699996 257.193109 
L 163.014302 256.855655 
L 168.328567 256.151261 
L 173.642872 255.10335 
L 178.957135 254.581913 
L 184.271443 253.425093 
L 189.585707 252.599904 
L 190.811607 252.398445 
L 194.900012 251.65608 
L 200.214279 250.150129 
L 205.528586 249.374562 
L 210.842872 248.067159 
L 215.790509 247.118424 
L 216.157154 247.025271 
L 221.471443 245.872972 
L 226.785726 244.128003 
L 232.100013 242.942254 
L 236.770297 241.838445 
L 237.414298 241.681642 
L 242.728582 240.304138 
L 248.042868 238.570903 
L 253.357135 237.600045 
L 257.569027 236.558426 
L 258.671418 236.251832 
L 263.985704 234.655478 
L 269.299992 233.064308 
L 274.48976 231.278444 
L 274.614275 231.237995 
L 279.928558 230.062212 
L 285.242845 229.338849 
L 290.557131 227.42001 
L 295.871424 226.182011 
L 296.965916 225.998423 
L 301.185713 225.173614 
L 306.499998 223.538246 
L 311.814284 222.004601 
L 317.128569 221.296329 
L 319.229988 220.718422 
L 322.442855 219.778476 
L 327.757141 218.417816 
L 333.071426 217.674845 
L 338.385711 216.231879 
L 342.42311 215.438426 
L 343.699997 215.189539 
L 349.014278 214.621486 
L 354.328564 213.45614 
L 359.642855 212.173474 
L 364.957142 211.149412 
L 370.271424 210.707629 
L 372.685279 210.158424 
L 375.585714 209.494272 
L 380.899995 208.570092 
L 386.214281 208.026881 
L 391.52857 207.483282 
L 396.842859 206.71994 
L 402.15714 205.833897 
L 407.471429 205.474365 
L 412.636971 204.878426 
L 412.785712 204.861087 
L 418.1 204.465985 
L 418.1 199.598424 
L 418.1 194.318425 
L 418.1 192.041237 
L 412.785712 192.509236 
L 407.471429 193.265913 
L 402.15714 193.925613 
L 399.60594 194.318425 
L 396.842859 194.674717 
L 391.52857 195.008924 
L 386.214281 195.813087 
L 380.899995 196.406237 
L 375.585714 197.147863 
L 370.271424 198.106265 
L 364.957142 198.763477 
L 359.642855 199.442652 
L 358.998454 199.598424 
L 354.328564 200.626625 
L 349.014278 201.831686 
L 343.699997 202.578515 
L 338.385711 203.57117 
L 333.071426 204.850643 
L 332.953658 204.878426 
L 327.757141 205.884717 
L 322.442855 206.911224 
L 317.128569 208.430681 
L 311.814284 209.131429 
L 308.175749 210.158424 
L 306.499998 210.560676 
L 301.185713 211.526834 
L 295.871424 213.232286 
L 290.557131 214.644442 
L 286.366126 215.438426 
L 285.242845 215.627811 
L 279.928558 217.157076 
L 274.614275 218.250445 
L 269.299992 219.760179 
L 266.126952 220.718422 
L 263.985704 221.249851 
L 258.671418 222.143945 
L 253.357135 223.893216 
L 248.042868 224.982305 
L 243.748644 225.998423 
L 242.728582 226.20877 
L 237.414298 227.81721 
L 232.100013 229.08214 
L 226.785726 230.178454 
L 223.009196 231.278444 
L 221.471443 231.669481 
L 216.157154 232.699946 
L 210.842872 233.84198 
L 205.528586 235.123295 
L 200.214279 235.712455 
L 196.748974 236.558426 
L 194.900012 236.988116 
L 189.585707 238.01799 
L 184.271443 239.002985 
L 178.957135 239.695637 
L 173.642872 240.58513 
L 168.379034 241.838445 
L 168.328567 241.849813 
L 163.014302 242.163868 
L 157.699996 243.115291 
L 152.38573 244.126714 
L 147.071429 244.503081 
L 141.757141 245.196424 
L 136.442855 245.559861 
L 131.128569 246.587507 
L 125.814283 246.916477 
L 120.499997 247.102172 
L 120.333102 247.118424 
L 115.185714 247.535436 
L 109.871427 247.933806 
L 104.557144 248.017196 
L 99.242859 248.494076 
L 93.92857 248.600173 
L 88.614287 249.118567 
L 83.3 249.434874 
L 83.3 252.398445 
L 83.3 257.678423 
L 83.3 262.958442 
L 83.3 263.341744 
z
" clip-path="url(#p3cdcdfadc4)" style="fill: #3b528b"/>
    <path d="M 88.614287 249.118567 
L 93.92857 248.600173 
L 99.242859 248.494076 
L 104.557144 248.017196 
L 109.871427 247.933806 
L 115.185714 247.535436 
L 120.333102 247.118424 
L 120.499997 247.102172 
L 125.814283 246.916477 
L 131.128569 246.587507 
L 136.442855 245.559861 
L 141.757141 245.196424 
L 147.071429 244.503081 
L 152.38573 244.126714 
L 157.699996 243.115291 
L 163.014302 242.163868 
L 168.328567 241.849813 
L 168.379034 241.838445 
L 173.642872 240.58513 
L 178.957135 239.695637 
L 184.271443 239.002985 
L 189.585707 238.01799 
L 194.900012 236.988116 
L 196.748974 236.558426 
L 200.214279 235.712455 
L 205.528586 235.123295 
L 210.842872 233.84198 
L 216.157154 232.699946 
L 221.471443 231.669481 
L 223.009196 231.278444 
L 226.785726 230.178454 
L 232.100013 229.08214 
L 237.414298 227.81721 
L 242.728582 226.20877 
L 243.748644 225.998423 
L 248.042868 224.982305 
L 253.357135 223.893216 
L 258.671418 222.143945 
L 263.985704 221.249851 
L 266.126952 220.718422 
L 269.299992 219.760179 
L 274.614275 218.250445 
L 279.928558 217.157076 
L 285.242845 215.627811 
L 286.366126 215.438426 
L 290.557131 214.644442 
L 295.871424 213.232286 
L 301.185713 211.526834 
L 306.499998 210.560676 
L 308.175749 210.158424 
L 311.814284 209.131429 
L 317.128569 208.430681 
L 322.442855 206.911224 
L 327.757141 205.884717 
L 332.953658 204.878426 
L 333.071426 204.850643 
L 338.385711 203.57117 
L 343.699997 202.578515 
L 349.014278 201.831686 
L 354.328564 200.626625 
L 358.998454 199.598424 
L 359.642855 199.442652 
L 364.957142 198.763477 
L 370.271424 198.106265 
L 375.585714 197.147863 
L 380.899995 196.406237 
L 386.214281 195.813087 
L 391.52857 195.008924 
L 396.842859 194.674717 
L 399.60594 194.318425 
L 402.15714 193.925613 
L 407.471429 193.265913 
L 412.785712 192.509236 
L 418.1 192.041237 
L 418.1 189.038427 
L 418.1 183.758427 
L 418.1 178.478445 
L 418.1 173.198448 
L 418.1 167.918447 
L 418.1 162.638446 
L 418.1 157.358448 
L 418.1 152.078451 
L 418.1 146.798449 
L 418.1 141.51845 
L 418.1 136.238442 
L 418.1 130.958438 
L 418.1 125.678439 
L 418.1 120.398439 
L 418.1 115.11844 
L 418.1 109.83844 
L 418.1 104.558439 
L 418.1 101.888921 
L 412.785712 102.268858 
L 407.471429 102.544861 
L 402.15714 103.074663 
L 396.842859 103.471701 
L 391.52857 103.94927 
L 386.214281 104.320788 
L 384.423448 104.558439 
L 380.899995 105.207716 
L 375.585714 105.866286 
L 370.271424 106.435045 
L 364.957142 106.925037 
L 359.642855 107.581211 
L 354.328564 107.790358 
L 349.014278 108.60773 
L 343.699997 109.151477 
L 338.385711 109.821176 
L 338.233253 109.83844 
L 333.071426 110.651725 
L 327.757141 111.240651 
L 322.442855 112.054061 
L 317.128569 112.966378 
L 311.814284 113.693607 
L 306.499998 114.189096 
L 301.185713 115.07644 
L 300.665943 115.11844 
L 295.871424 115.682489 
L 290.557131 116.81841 
L 285.242845 117.629181 
L 279.928558 118.055282 
L 274.614275 118.955513 
L 269.299992 119.696526 
L 265.62559 120.398439 
L 263.985704 120.836616 
L 258.671418 121.36823 
L 253.357135 122.127023 
L 248.042868 123.00427 
L 242.728582 123.340251 
L 237.414298 124.002718 
L 232.100013 124.548315 
L 226.785726 124.981399 
L 221.819341 125.678439 
L 221.471443 125.75528 
L 216.157154 126.42893 
L 210.842872 127.324784 
L 205.528586 127.780006 
L 200.214279 128.259274 
L 194.900012 128.843451 
L 189.585707 129.347549 
L 184.271443 129.78443 
L 178.957135 129.887415 
L 173.642872 130.85981 
L 170.159734 130.958438 
L 168.328567 131.0234 
L 163.014302 131.188291 
L 157.699996 131.996387 
L 152.38573 132.416019 
L 147.071429 133.052957 
L 141.757141 133.06224 
L 136.442855 133.384052 
L 131.128569 133.623476 
L 125.814283 133.755499 
L 120.499997 134.190941 
L 115.185714 134.1898 
L 109.871427 134.188959 
L 104.557144 134.539663 
L 99.242859 134.786092 
L 93.92857 134.852101 
L 88.614287 135.234516 
L 83.3 135.16893 
L 83.3 136.238442 
L 83.3 141.51845 
L 83.3 146.798449 
L 83.3 152.078451 
L 83.3 157.358448 
L 83.3 162.638446 
L 83.3 167.918447 
L 83.3 173.198448 
L 83.3 178.478445 
L 83.3 183.758427 
L 83.3 189.038427 
L 83.3 194.318425 
L 83.3 199.598424 
L 83.3 204.878426 
L 83.3 210.158424 
L 83.3 215.438426 
L 83.3 220.718422 
L 83.3 225.998423 
L 83.3 231.278444 
L 83.3 236.558426 
L 83.3 241.838445 
L 83.3 247.118424 
L 83.3 249.434874 
z
" clip-path="url(#p3cdcdfadc4)" style="fill: #32658e"/>
    <path d="M 88.614287 135.234516 
L 93.92857 134.852101 
L 99.242859 134.786092 
L 104.557144 134.539663 
L 109.871427 134.188959 
L 115.185714 134.1898 
L 120.499997 134.190941 
L 125.814283 133.755499 
L 131.128569 133.623476 
L 136.442855 133.384052 
L 141.757141 133.06224 
L 147.071429 133.052957 
L 152.38573 132.416019 
L 157.699996 131.996387 
L 163.014302 131.188291 
L 168.328567 131.0234 
L 170.159734 130.958438 
L 173.642872 130.85981 
L 178.957135 129.887415 
L 184.271443 129.78443 
L 189.585707 129.347549 
L 194.900012 128.843451 
L 200.214279 128.259274 
L 205.528586 127.780006 
L 210.842872 127.324784 
L 216.157154 126.42893 
L 221.471443 125.75528 
L 221.819341 125.678439 
L 226.785726 124.981399 
L 232.100013 124.548315 
L 237.414298 124.002718 
L 242.728582 123.340251 
L 248.042868 123.00427 
L 253.357135 122.127023 
L 258.671418 121.36823 
L 263.985704 120.836616 
L 265.62559 120.398439 
L 269.299992 119.696526 
L 274.614275 118.955513 
L 279.928558 118.055282 
L 285.242845 117.629181 
L 290.557131 116.81841 
L 295.871424 115.682489 
L 300.665943 115.11844 
L 301.185713 115.07644 
L 306.499998 114.189096 
L 311.814284 113.693607 
L 317.128569 112.966378 
L 322.442855 112.054061 
L 327.757141 111.240651 
L 333.071426 110.651725 
L 338.233253 109.83844 
L 338.385711 109.821176 
L 343.699997 109.151477 
L 349.014278 108.60773 
L 354.328564 107.790358 
L 359.642855 107.581211 
L 364.957142 106.925037 
L 370.271424 106.435045 
L 375.585714 105.866286 
L 380.899995 105.207716 
L 384.423448 104.558439 
L 386.214281 104.320788 
L 391.52857 103.94927 
L 396.842859 103.471701 
L 402.15714 103.074663 
L 407.471429 102.544861 
L 412.785712 102.268858 
L 418.1 101.888921 
L 418.1 99.27844 
L 418.1 93.998441 
L 418.1 88.718441 
L 418.1 88.486243 
L 412.785712 88.615741 
L 412.083214 88.718441 
L 407.471429 89.382842 
L 402.15714 89.724169 
L 396.842859 89.943165 
L 391.52857 90.495206 
L 386.214281 90.82284 
L 380.899995 91.433718 
L 375.585714 92.029423 
L 370.271424 92.570483 
L 364.957142 93.07923 
L 359.642855 93.669887 
L 357.909238 93.998441 
L 354.328564 94.603998 
L 349.014278 94.876776 
L 343.699997 95.729443 
L 338.385711 96.253435 
L 333.071426 97.00319 
L 327.757141 97.501975 
L 322.442855 98.247339 
L 317.128569 99.065026 
L 315.962752 99.27844 
L 311.814284 99.900626 
L 306.499998 100.311599 
L 301.185713 101.109835 
L 295.871424 101.852587 
L 290.557131 102.289013 
L 285.242845 103.224508 
L 279.928558 103.981968 
L 276.386521 104.558439 
L 274.614275 104.804448 
L 269.299992 105.494981 
L 263.985704 106.097263 
L 258.671418 106.452795 
L 253.357135 107.340335 
L 248.042868 108.164154 
L 242.728582 108.754258 
L 237.414298 109.320321 
L 232.517994 109.83844 
L 232.100013 109.881219 
L 226.785726 110.55358 
L 221.471443 110.848029 
L 216.157154 111.837815 
L 210.842872 112.130027 
L 205.528586 112.838083 
L 200.214279 113.282809 
L 194.900012 113.923396 
L 189.585707 114.158533 
L 184.271443 114.504865 
L 180.461243 115.11844 
L 178.957135 115.324494 
L 173.642872 115.483377 
L 168.328567 115.892761 
L 163.014302 116.32244 
L 157.699996 116.644429 
L 152.38573 116.864858 
L 147.071429 116.889642 
L 141.757141 117.429444 
L 136.442855 117.720017 
L 131.128569 118.107777 
L 125.814283 118.477291 
L 120.499997 118.535315 
L 115.185714 118.934101 
L 109.871427 118.951237 
L 104.557144 119.339825 
L 99.242859 119.419089 
L 93.92857 119.707344 
L 88.614287 119.59257 
L 83.3 120.031175 
L 83.3 120.398439 
L 83.3 125.678439 
L 83.3 130.958438 
L 83.3 135.16893 
z
" clip-path="url(#p3cdcdfadc4)" style="fill: #2a768e"/>
    <path d="M 88.614287 119.59257 
L 93.92857 119.707344 
L 99.242859 119.419089 
L 104.557144 119.339825 
L 109.871427 118.951237 
L 115.185714 118.934101 
L 120.499997 118.535315 
L 125.814283 118.477291 
L 131.128569 118.107777 
L 136.442855 117.720017 
L 141.757141 117.429444 
L 147.071429 116.889642 
L 152.38573 116.864858 
L 157.699996 116.644429 
L 163.014302 116.32244 
L 168.328567 115.892761 
L 173.642872 115.483377 
L 178.957135 115.324494 
L 180.461243 115.11844 
L 184.271443 114.504865 
L 189.585707 114.158533 
L 194.900012 113.923396 
L 200.214279 113.282809 
L 205.528586 112.838083 
L 210.842872 112.130027 
L 216.157154 111.837815 
L 221.471443 110.848029 
L 226.785726 110.55358 
L 232.100013 109.881219 
L 232.517994 109.83844 
L 237.414298 109.320321 
L 242.728582 108.754258 
L 248.042868 108.164154 
L 253.357135 107.340335 
L 258.671418 106.452795 
L 263.985704 106.097263 
L 269.299992 105.494981 
L 274.614275 104.804448 
L 276.386521 104.558439 
L 279.928558 103.981968 
L 285.242845 103.224508 
L 290.557131 102.289013 
L 295.871424 101.852587 
L 301.185713 101.109835 
L 306.499998 100.311599 
L 311.814284 99.900626 
L 315.962752 99.27844 
L 317.128569 99.065026 
L 322.442855 98.247339 
L 327.757141 97.501975 
L 333.071426 97.00319 
L 338.385711 96.253435 
L 343.699997 95.729443 
L 349.014278 94.876776 
L 354.328564 94.603998 
L 357.909238 93.998441 
L 359.642855 93.669887 
L 364.957142 93.07923 
L 370.271424 92.570483 
L 375.585714 92.029423 
L 380.899995 91.433718 
L 386.214281 90.82284 
L 391.52857 90.495206 
L 396.842859 89.943165 
L 402.15714 89.724169 
L 407.471429 89.382842 
L 412.083214 88.718441 
L 412.785712 88.615741 
L 418.1 88.486243 
L 418.1 83.438445 
L 418.1 78.158445 
L 418.1 75.01192 
L 412.785712 75.186534 
L 407.471429 75.661711 
L 402.15714 75.920748 
L 396.842859 76.656181 
L 391.52857 76.991951 
L 386.214281 77.402413 
L 380.899995 77.828596 
L 378.816644 78.158445 
L 375.585714 78.612748 
L 370.271424 78.889135 
L 364.957142 79.323041 
L 359.642855 80.247316 
L 354.328564 80.580779 
L 349.014278 81.222749 
L 343.699997 81.855678 
L 338.385711 82.090971 
L 333.071426 83.063441 
L 329.812896 83.438445 
L 327.757141 83.649341 
L 322.442855 84.233345 
L 317.128569 84.793709 
L 311.814284 85.452636 
L 306.499998 86.173797 
L 301.185713 86.762792 
L 295.871424 87.263573 
L 290.557131 88.054873 
L 285.242845 88.551754 
L 284.353823 88.718441 
L 279.928558 89.459373 
L 274.614275 89.976092 
L 269.299992 90.660416 
L 263.985704 91.16151 
L 258.671418 91.903876 
L 253.357135 92.497663 
L 248.042868 92.744292 
L 242.728582 93.514807 
L 239.982643 93.998441 
L 237.414298 94.370584 
L 232.100013 94.989709 
L 226.785726 95.094942 
L 221.471443 95.727478 
L 216.157154 96.309181 
L 210.842872 96.714672 
L 205.528586 97.494756 
L 200.214279 97.780796 
L 194.900012 98.195475 
L 189.585707 98.576475 
L 184.271443 98.945925 
L 180.800678 99.27844 
L 178.957135 99.439558 
L 173.642872 99.693212 
L 168.328567 100.233657 
L 163.014302 100.404661 
L 157.699996 100.936235 
L 152.38573 100.987242 
L 147.071429 101.267424 
L 141.757141 101.534793 
L 136.442855 101.901793 
L 131.128569 102.104798 
L 125.814283 102.279747 
L 120.499997 102.671696 
L 115.185714 102.671543 
L 109.871427 102.840206 
L 104.557144 103.268758 
L 99.242859 103.055661 
L 93.92857 103.343873 
L 88.614287 103.592684 
L 83.3 104.018893 
L 83.3 104.558439 
L 83.3 109.83844 
L 83.3 115.11844 
L 83.3 120.031175 
z
" clip-path="url(#p3cdcdfadc4)" style="fill: #24878e"/>
    <path d="M 88.614287 103.592684 
L 93.92857 103.343873 
L 99.242859 103.055661 
L 104.557144 103.268758 
L 109.871427 102.840206 
L 115.185714 102.671543 
L 120.499997 102.671696 
L 125.814283 102.279747 
L 131.128569 102.104798 
L 136.442855 101.901793 
L 141.757141 101.534793 
L 147.071429 101.267424 
L 152.38573 100.987242 
L 157.699996 100.936235 
L 163.014302 100.404661 
L 168.328567 100.233657 
L 173.642872 99.693212 
L 178.957135 99.439558 
L 180.800678 99.27844 
L 184.271443 98.945925 
L 189.585707 98.576475 
L 194.900012 98.195475 
L 200.214279 97.780796 
L 205.528586 97.494756 
L 210.842872 96.714672 
L 216.157154 96.309181 
L 221.471443 95.727478 
L 226.785726 95.094942 
L 232.100013 94.989709 
L 237.414298 94.370584 
L 239.982643 93.998441 
L 242.728582 93.514807 
L 248.042868 92.744292 
L 253.357135 92.497663 
L 258.671418 91.903876 
L 263.985704 91.16151 
L 269.299992 90.660416 
L 274.614275 89.976092 
L 279.928558 89.459373 
L 284.353823 88.718441 
L 285.242845 88.551754 
L 290.557131 88.054873 
L 295.871424 87.263573 
L 301.185713 86.762792 
L 306.499998 86.173797 
L 311.814284 85.452636 
L 317.128569 84.793709 
L 322.442855 84.233345 
L 327.757141 83.649341 
L 329.812896 83.438445 
L 333.071426 83.063441 
L 338.385711 82.090971 
L 343.699997 81.855678 
L 349.014278 81.222749 
L 354.328564 80.580779 
L 359.642855 80.247316 
L 364.957142 79.323041 
L 370.271424 78.889135 
L 375.585714 78.612748 
L 378.816644 78.158445 
L 380.899995 77.828596 
L 386.214281 77.402413 
L 391.52857 76.991951 
L 396.842859 76.656181 
L 402.15714 75.920748 
L 407.471429 75.661711 
L 412.785712 75.186534 
L 418.1 75.01192 
L 418.1 72.878439 
L 418.1 67.598438 
L 418.1 62.318442 
L 418.1 60.340423 
L 412.785712 60.754256 
L 407.471429 61.052256 
L 402.15714 61.490467 
L 396.842859 61.77396 
L 393.20838 62.318442 
L 391.52857 62.557012 
L 386.214281 62.803567 
L 380.899995 63.357231 
L 375.585714 63.768421 
L 370.271424 64.010523 
L 364.957142 64.684244 
L 359.642855 65.240899 
L 354.328564 65.694375 
L 349.014278 66.393892 
L 343.699997 66.695656 
L 338.385711 67.181599 
L 335.97222 67.598438 
L 333.071426 68.025075 
L 327.757141 68.64917 
L 322.442855 69.201567 
L 317.128569 69.485556 
L 311.814284 70.039757 
L 306.499998 70.498125 
L 301.185713 71.293932 
L 295.871424 72.066992 
L 290.557131 72.673941 
L 287.459062 72.878439 
L 285.242845 73.002879 
L 279.928558 73.744519 
L 274.614275 74.24319 
L 269.299992 74.584906 
L 263.985704 75.250616 
L 258.671418 75.98502 
L 253.357135 76.217269 
L 248.042868 77.021524 
L 242.728582 77.484243 
L 237.414298 77.936222 
L 236.066867 78.158445 
L 232.100013 78.694623 
L 226.785726 78.810719 
L 221.471443 79.389712 
L 216.157154 79.672944 
L 210.842872 80.061149 
L 205.528586 80.586253 
L 200.214279 80.91972 
L 194.900012 81.463752 
L 189.585707 81.704699 
L 184.271443 82.038747 
L 178.957135 82.616473 
L 173.642872 82.846122 
L 168.328567 83.093193 
L 163.014302 83.418206 
L 162.663346 83.438445 
L 157.699996 83.680173 
L 152.38573 83.632981 
L 147.071429 83.958094 
L 141.757141 84.460412 
L 136.442855 84.63851 
L 131.128569 84.745347 
L 125.814283 84.837951 
L 120.499997 84.940052 
L 115.185714 85.311469 
L 109.871427 85.292337 
L 104.557144 85.563365 
L 99.242859 85.913795 
L 93.92857 85.763877 
L 88.614287 86.086056 
L 83.3 86.222364 
L 83.3 88.718441 
L 83.3 93.998441 
L 83.3 99.27844 
L 83.3 104.018893 
z
" clip-path="url(#p3cdcdfadc4)" style="fill: #1f998a"/>
    <path d="M 88.614287 86.086056 
L 93.92857 85.763877 
L 99.242859 85.913795 
L 104.557144 85.563365 
L 109.871427 85.292337 
L 115.185714 85.311469 
L 120.499997 84.940052 
L 125.814283 84.837951 
L 131.128569 84.745347 
L 136.442855 84.63851 
L 141.757141 84.460412 
L 147.071429 83.958094 
L 152.38573 83.632981 
L 157.699996 83.680173 
L 162.663346 83.438445 
L 163.014302 83.418206 
L 168.328567 83.093193 
L 173.642872 82.846122 
L 178.957135 82.616473 
L 184.271443 82.038747 
L 189.585707 81.704699 
L 194.900012 81.463752 
L 200.214279 80.91972 
L 205.528586 80.586253 
L 210.842872 80.061149 
L 216.157154 79.672944 
L 221.471443 79.389712 
L 226.785726 78.810719 
L 232.100013 78.694623 
L 236.066867 78.158445 
L 237.414298 77.936222 
L 242.728582 77.484243 
L 248.042868 77.021524 
L 253.357135 76.217269 
L 258.671418 75.98502 
L 263.985704 75.250616 
L 269.299992 74.584906 
L 274.614275 74.24319 
L 279.928558 73.744519 
L 285.242845 73.002879 
L 287.459062 72.878439 
L 290.557131 72.673941 
L 295.871424 72.066992 
L 301.185713 71.293932 
L 306.499998 70.498125 
L 311.814284 70.039757 
L 317.128569 69.485556 
L 322.442855 69.201567 
L 327.757141 68.64917 
L 333.071426 68.025075 
L 335.97222 67.598438 
L 338.385711 67.181599 
L 343.699997 66.695656 
L 349.014278 66.393892 
L 354.328564 65.694375 
L 359.642855 65.240899 
L 364.957142 64.684244 
L 370.271424 64.010523 
L 375.585714 63.768421 
L 380.899995 63.357231 
L 386.214281 62.803567 
L 391.52857 62.557012 
L 393.20838 62.318442 
L 396.842859 61.77396 
L 402.15714 61.490467 
L 407.471429 61.052256 
L 412.785712 60.754256 
L 418.1 60.340423 
L 418.1 57.038437 
L 418.1 51.758443 
L 418.1 46.478442 
L 418.1 43.958868 
L 412.785712 44.301111 
L 407.471429 44.600834 
L 402.15714 44.965181 
L 396.842859 45.444329 
L 391.52857 45.703306 
L 386.717021 46.478442 
L 386.214281 46.530017 
L 380.899995 47.119839 
L 375.585714 47.381952 
L 370.271424 47.496473 
L 364.957142 48.236155 
L 359.642855 48.430399 
L 354.328564 48.988959 
L 349.014278 49.267768 
L 343.699997 49.733855 
L 338.385711 50.350429 
L 333.071426 50.65329 
L 327.836035 51.758443 
L 327.757141 51.768713 
L 322.442855 51.93718 
L 317.128569 52.534171 
L 311.814284 52.638623 
L 306.499998 53.492792 
L 301.185713 53.901272 
L 295.871424 54.433995 
L 290.557131 54.627983 
L 285.242845 55.347998 
L 279.928558 55.645916 
L 274.614275 56.102218 
L 269.465286 57.038437 
L 269.299992 57.058136 
L 263.985704 57.490161 
L 258.671418 57.770463 
L 253.357135 58.309459 
L 248.042868 58.710464 
L 242.728582 59.078122 
L 237.414298 59.269911 
L 232.100013 59.758935 
L 226.785726 60.003369 
L 221.471443 60.614369 
L 216.157154 60.975802 
L 210.842872 61.329654 
L 205.528586 61.758251 
L 200.214279 62.214608 
L 198.498571 62.318442 
L 194.900012 62.443333 
L 189.585707 62.531322 
L 184.271443 63.090958 
L 178.957135 63.10532 
L 173.642872 63.467904 
L 168.328567 63.7574 
L 163.014302 64.096508 
L 157.699996 64.059664 
L 152.38573 64.412052 
L 147.071429 64.564077 
L 141.757141 64.608587 
L 136.442855 64.76 
L 131.128569 64.862653 
L 125.814283 65.134673 
L 120.499997 65.169597 
L 115.185714 65.147217 
L 109.871427 65.653431 
L 104.557144 65.9016 
L 99.242859 66.008724 
L 93.92857 66.035035 
L 88.614287 66.259203 
L 83.3 66.303244 
L 83.3 67.598438 
L 83.3 72.878439 
L 83.3 78.158445 
L 83.3 83.438445 
L 83.3 86.222364 
z
" clip-path="url(#p3cdcdfadc4)" style="fill: #24aa83"/>
    <path d="M 88.614287 66.259203 
L 93.92857 66.035035 
L 99.242859 66.008724 
L 104.557144 65.9016 
L 109.871427 65.653431 
L 115.185714 65.147217 
L 120.499997 65.169597 
L 125.814283 65.134673 
L 131.128569 64.862653 
L 136.442855 64.76 
L 141.757141 64.608587 
L 147.071429 64.564077 
L 152.38573 64.412052 
L 157.699996 64.059664 
L 163.014302 64.096508 
L 168.328567 63.7574 
L 173.642872 63.467904 
L 178.957135 63.10532 
L 184.271443 63.090958 
L 189.585707 62.531322 
L 194.900012 62.443333 
L 198.498571 62.318442 
L 200.214279 62.214608 
L 205.528586 61.758251 
L 210.842872 61.329654 
L 216.157154 60.975802 
L 221.471443 60.614369 
L 226.785726 60.003369 
L 232.100013 59.758935 
L 237.414298 59.269911 
L 242.728582 59.078122 
L 248.042868 58.710464 
L 253.357135 58.309459 
L 258.671418 57.770463 
L 263.985704 57.490161 
L 269.299992 57.058136 
L 269.465286 57.038437 
L 274.614275 56.102218 
L 279.928558 55.645916 
L 285.242845 55.347998 
L 290.557131 54.627983 
L 295.871424 54.433995 
L 301.185713 53.901272 
L 306.499998 53.492792 
L 311.814284 52.638623 
L 317.128569 52.534171 
L 322.442855 51.93718 
L 327.757141 51.768713 
L 327.836035 51.758443 
L 333.071426 50.65329 
L 338.385711 50.350429 
L 343.699997 49.733855 
L 349.014278 49.267768 
L 354.328564 48.988959 
L 359.642855 48.430399 
L 364.957142 48.236155 
L 370.271424 47.496473 
L 375.585714 47.381952 
L 380.899995 47.119839 
L 386.214281 46.530017 
L 386.717021 46.478442 
L 391.52857 45.703306 
L 396.842859 45.444329 
L 402.15714 44.965181 
L 407.471429 44.600834 
L 412.785712 44.301111 
L 418.1 43.958868 
L 418.1 41.198439 
L 418.1 35.918436 
L 418.1 30.638441 
L 418.1 25.358437 
L 418.1 20.07844 
L 418.1 14.798437 
L 412.785712 14.798437 
L 407.471429 14.798437 
L 402.15714 14.798437 
L 396.842859 14.798437 
L 391.52857 14.798437 
L 386.214281 14.798437 
L 380.899995 14.798437 
L 375.585714 14.798437 
L 370.271424 14.798437 
L 364.957142 14.798437 
L 359.642855 14.798437 
L 354.328564 14.798437 
L 349.014278 14.798437 
L 343.699997 14.798437 
L 338.385711 14.798437 
L 333.071426 14.798437 
L 327.757141 14.798437 
L 322.442855 14.798437 
L 317.128569 14.798437 
L 311.814284 14.798437 
L 306.499998 14.798437 
L 301.185713 14.798437 
L 295.871424 14.798437 
L 290.557131 14.798437 
L 285.242845 14.798437 
L 279.928558 14.798437 
L 274.614275 14.798437 
L 269.299992 14.798437 
L 263.985704 14.798437 
L 258.671418 14.798437 
L 253.357135 14.798437 
L 248.042868 14.798437 
L 242.728582 14.798437 
L 237.414298 14.798437 
L 232.100013 14.798437 
L 226.785726 14.798437 
L 221.471443 14.798437 
L 216.157154 14.798437 
L 210.842872 14.798437 
L 205.528586 14.798437 
L 200.214279 14.798437 
L 194.900012 14.798437 
L 189.585707 14.798437 
L 184.271443 14.798437 
L 178.957135 14.798437 
L 173.642872 14.798437 
L 168.328567 14.798437 
L 163.014302 14.798437 
L 157.699996 14.798437 
L 152.38573 14.798437 
L 147.071429 14.798437 
L 141.757141 14.798437 
L 136.442855 14.798437 
L 131.128569 14.798437 
L 125.814283 14.798437 
L 120.499997 14.798437 
L 115.185714 14.798437 
L 109.871427 14.798437 
L 104.557144 14.798437 
L 99.242859 14.798437 
L 93.92857 14.798437 
L 88.614287 14.798437 
L 83.3 14.798437 
L 83.3 20.07844 
L 83.3 25.358437 
L 83.3 30.638441 
L 83.3 35.918436 
L 83.3 41.198439 
L 83.3 46.478442 
L 83.3 51.758443 
L 83.3 57.038437 
L 83.3 62.318442 
L 83.3 66.303244 
z
" clip-path="url(#p3cdcdfadc4)" style="fill: #3aba76"/>
    <path clip-path="url(#p3cdcdfadc4)" style="fill: #5ec962"/>
    <path clip-path="url(#p3cdcdfadc4)" style="fill: #89d548"/>
    <path clip-path="url(#p3cdcdfadc4)" style="fill: #b8de29"/>
    <path clip-path="url(#p3cdcdfadc4)" style="fill: #e7e419"/>
   </g>
   <g id="matplotlib.axis_1">
    <g id="xtick_1">
     <g id="line2d_1">
      <defs>
       <path id="mf40f5d3d87" d="M 0 0 
L 0 2 
" style="stroke: #000000; stroke-width: 1.5"/>
      </defs>
      <g>
       <use xlink:href="#mf40f5d3d87" x="83.300002" y="347.438437" style="stroke: #000000; stroke-width: 1.5"/>
      </g>
     </g>
     <g id="text_1">
      <!-- $\mathdefault{10^{-2}}$ -->
      <g transform="translate(59.800002 368.135312) scale(0.2 -0.2)">
       <defs>
        <path id="DejaVuSans-31" d="M 794 531 
L 1825 531 
L 1825 4091 
L 703 3866 
L 703 4441 
L 1819 4666 
L 2450 4666 
L 2450 531 
L 3481 531 
L 3481 0 
L 794 0 
L 794 531 
z
" transform="scale(0.015625)"/>
        <path id="DejaVuSans-30" d="M 2034 4250 
Q 1547 4250 1301 3770 
Q 1056 3291 1056 2328 
Q 1056 1369 1301 889 
Q 1547 409 2034 409 
Q 2525 409 2770 889 
Q 3016 1369 3016 2328 
Q 3016 3291 2770 3770 
Q 2525 4250 2034 4250 
z
M 2034 4750 
Q 2819 4750 3233 4129 
Q 3647 3509 3647 2328 
Q 3647 1150 3233 529 
Q 2819 -91 2034 -91 
Q 1250 -91 836 529 
Q 422 1150 422 2328 
Q 422 3509 836 4129 
Q 1250 4750 2034 4750 
z
" transform="scale(0.015625)"/>
        <path id="DejaVuSans-2212" d="M 678 2272 
L 4684 2272 
L 4684 1741 
L 678 1741 
L 678 2272 
z
" transform="scale(0.015625)"/>
        <path id="DejaVuSans-32" d="M 1228 531 
L 3431 531 
L 3431 0 
L 469 0 
L 469 531 
Q 828 903 1448 1529 
Q 2069 2156 2228 2338 
Q 2531 2678 2651 2914 
Q 2772 3150 2772 3378 
Q 2772 3750 2511 3984 
Q 2250 4219 1831 4219 
Q 1534 4219 1204 4116 
Q 875 4013 500 3803 
L 500 4441 
Q 881 4594 1212 4672 
Q 1544 4750 1819 4750 
Q 2544 4750 2975 4387 
Q 3406 4025 3406 3419 
Q 3406 3131 3298 2873 
Q 3191 2616 2906 2266 
Q 2828 2175 2409 1742 
Q 1991 1309 1228 531 
z
" transform="scale(0.015625)"/>
       </defs>
       <use xlink:href="#DejaVuSans-31" transform="translate(0 0.765625)"/>
       <use xlink:href="#DejaVuSans-30" transform="translate(63.623047 0.765625)"/>
       <use xlink:href="#DejaVuSans-2212" transform="translate(128.203125 39.046875) scale(0.7)"/>
       <use xlink:href="#DejaVuSans-32" transform="translate(186.855469 39.046875) scale(0.7)"/>
      </g>
     </g>
    </g>
    <g id="xtick_2">
     <g id="line2d_2">
      <g>
       <use xlink:href="#mf40f5d3d87" x="250.700001" y="347.438437" style="stroke: #000000; stroke-width: 1.5"/>
      </g>
     </g>
     <g id="text_2">
      <!-- $\mathdefault{10^{-1}}$ -->
      <g transform="translate(227.200001 368.135312) scale(0.2 -0.2)">
       <use xlink:href="#DejaVuSans-31" transform="translate(0 0.684375)"/>
       <use xlink:href="#DejaVuSans-30" transform="translate(63.623047 0.684375)"/>
       <use xlink:href="#DejaVuSans-2212" transform="translate(128.203125 38.965625) scale(0.7)"/>
       <use xlink:href="#DejaVuSans-31" transform="translate(186.855469 38.965625) scale(0.7)"/>
      </g>
     </g>
    </g>
    <g id="xtick_3">
     <g id="line2d_3">
      <g>
       <use xlink:href="#mf40f5d3d87" x="418.1" y="347.438437" style="stroke: #000000; stroke-width: 1.5"/>
      </g>
     </g>
     <g id="text_3">
      <!-- $\mathdefault{10^{0}}$ -->
      <g transform="translate(400.5 368.135312) scale(0.2 -0.2)">
       <use xlink:href="#DejaVuSans-31" transform="translate(0 0.765625)"/>
       <use xlink:href="#DejaVuSans-30" transform="translate(63.623047 0.765625)"/>
       <use xlink:href="#DejaVuSans-30" transform="translate(128.203125 39.046875) scale(0.7)"/>
      </g>
     </g>
    </g>
    <g id="xtick_4">
     <g id="line2d_4">
      <defs>
       <path id="mcdec89bb8d" d="M 0 0 
L 0 2 
" style="stroke: #000000; stroke-width: 0.6"/>
      </defs>
      <g>
       <use xlink:href="#mcdec89bb8d" x="133.692423" y="347.438437" style="stroke: #000000; stroke-width: 0.6"/>
      </g>
     </g>
    </g>
    <g id="xtick_5">
     <g id="line2d_5">
      <g>
       <use xlink:href="#mcdec89bb8d" x="163.170099" y="347.438437" style="stroke: #000000; stroke-width: 0.6"/>
      </g>
     </g>
    </g>
    <g id="xtick_6">
     <g id="line2d_6">
      <g>
       <use xlink:href="#mcdec89bb8d" x="184.084844" y="347.438437" style="stroke: #000000; stroke-width: 0.6"/>
      </g>
     </g>
    </g>
    <g id="xtick_7">
     <g id="line2d_7">
      <g>
       <use xlink:href="#mcdec89bb8d" x="200.30758" y="347.438437" style="stroke: #000000; stroke-width: 0.6"/>
      </g>
     </g>
    </g>
    <g id="xtick_8">
     <g id="line2d_8">
      <g>
       <use xlink:href="#mcdec89bb8d" x="213.56252" y="347.438437" style="stroke: #000000; stroke-width: 0.6"/>
      </g>
     </g>
    </g>
    <g id="xtick_9">
     <g id="line2d_9">
      <g>
       <use xlink:href="#mcdec89bb8d" x="224.769413" y="347.438437" style="stroke: #000000; stroke-width: 0.6"/>
      </g>
     </g>
    </g>
    <g id="xtick_10">
     <g id="line2d_10">
      <g>
       <use xlink:href="#mcdec89bb8d" x="234.477265" y="347.438437" style="stroke: #000000; stroke-width: 0.6"/>
      </g>
     </g>
    </g>
    <g id="xtick_11">
     <g id="line2d_11">
      <g>
       <use xlink:href="#mcdec89bb8d" x="243.040197" y="347.438437" style="stroke: #000000; stroke-width: 0.6"/>
      </g>
     </g>
    </g>
    <g id="xtick_12">
     <g id="line2d_12">
      <g>
       <use xlink:href="#mcdec89bb8d" x="301.092422" y="347.438437" style="stroke: #000000; stroke-width: 0.6"/>
      </g>
     </g>
    </g>
    <g id="xtick_13">
     <g id="line2d_13">
      <g>
       <use xlink:href="#mcdec89bb8d" x="330.570098" y="347.438437" style="stroke: #000000; stroke-width: 0.6"/>
      </g>
     </g>
    </g>
    <g id="xtick_14">
     <g id="line2d_14">
      <g>
       <use xlink:href="#mcdec89bb8d" x="351.484843" y="347.438437" style="stroke: #000000; stroke-width: 0.6"/>
      </g>
     </g>
    </g>
    <g id="xtick_15">
     <g id="line2d_15">
      <g>
       <use xlink:href="#mcdec89bb8d" x="367.707579" y="347.438437" style="stroke: #000000; stroke-width: 0.6"/>
      </g>
     </g>
    </g>
    <g id="xtick_16">
     <g id="line2d_16">
      <g>
       <use xlink:href="#mcdec89bb8d" x="380.962519" y="347.438437" style="stroke: #000000; stroke-width: 0.6"/>
      </g>
     </g>
    </g>
    <g id="xtick_17">
     <g id="line2d_17">
      <g>
       <use xlink:href="#mcdec89bb8d" x="392.169412" y="347.438437" style="stroke: #000000; stroke-width: 0.6"/>
      </g>
     </g>
    </g>
    <g id="xtick_18">
     <g id="line2d_18">
      <g>
       <use xlink:href="#mcdec89bb8d" x="401.877264" y="347.438437" style="stroke: #000000; stroke-width: 0.6"/>
      </g>
     </g>
    </g>
    <g id="xtick_19">
     <g id="line2d_19">
      <g>
       <use xlink:href="#mcdec89bb8d" x="410.440196" y="347.438437" style="stroke: #000000; stroke-width: 0.6"/>
      </g>
     </g>
    </g>
    <g id="text_4">
     <!-- $\lambda$ -->
     <g transform="translate(244.7 391.491562) scale(0.2 -0.2)">
      <defs>
       <path id="DejaVuSans-Oblique-3bb" d="M 2350 4316 
L 3125 0 
L 2516 0 
L 2038 2588 
L 328 0 
L -281 0 
L 1903 3356 
L 1794 3975 
Q 1725 4369 1391 4369 
L 1091 4369 
L 1184 4863 
L 1550 4856 
Q 2253 4847 2350 4316 
z
" transform="scale(0.015625)"/>
      </defs>
      <use xlink:href="#DejaVuSans-Oblique-3bb" transform="translate(0 0.015625)"/>
     </g>
    </g>
   </g>
   <g id="matplotlib.axis_2">
    <g id="ytick_1">
     <g id="line2d_20">
      <defs>
       <path id="m0957fe7a0e" d="M 0 0 
L -2 0 
" style="stroke: #000000; stroke-width: 1.5"/>
      </defs>
      <g>
       <use xlink:href="#m0957fe7a0e" x="83.3" y="347.438436" style="stroke: #000000; stroke-width: 1.5"/>
      </g>
     </g>
     <g id="text_5">
      <!-- $\mathdefault{10^{-2}}$ -->
      <g transform="translate(30.8 355.036873) scale(0.2 -0.2)">
       <use xlink:href="#DejaVuSans-31" transform="translate(0 0.765625)"/>
       <use xlink:href="#DejaVuSans-30" transform="translate(63.623047 0.765625)"/>
       <use xlink:href="#DejaVuSans-2212" transform="translate(128.203125 39.046875) scale(0.7)"/>
       <use xlink:href="#DejaVuSans-32" transform="translate(186.855469 39.046875) scale(0.7)"/>
      </g>
     </g>
    </g>
    <g id="ytick_2">
     <g id="line2d_21">
      <g>
       <use xlink:href="#m0957fe7a0e" x="83.3" y="181.118437" style="stroke: #000000; stroke-width: 1.5"/>
      </g>
     </g>
     <g id="text_6">
      <!-- $\mathdefault{10^{-1}}$ -->
      <g transform="translate(30.8 188.716874) scale(0.2 -0.2)">
       <use xlink:href="#DejaVuSans-31" transform="translate(0 0.684375)"/>
       <use xlink:href="#DejaVuSans-30" transform="translate(63.623047 0.684375)"/>
       <use xlink:href="#DejaVuSans-2212" transform="translate(128.203125 38.965625) scale(0.7)"/>
       <use xlink:href="#DejaVuSans-31" transform="translate(186.855469 38.965625) scale(0.7)"/>
      </g>
     </g>
    </g>
    <g id="ytick_3">
     <g id="line2d_22">
      <g>
       <use xlink:href="#m0957fe7a0e" x="83.3" y="14.798437" style="stroke: #000000; stroke-width: 1.5"/>
      </g>
     </g>
     <g id="text_7">
      <!-- $\mathdefault{10^{0}}$ -->
      <g transform="translate(42.6 22.396875) scale(0.2 -0.2)">
       <use xlink:href="#DejaVuSans-31" transform="translate(0 0.765625)"/>
       <use xlink:href="#DejaVuSans-30" transform="translate(63.623047 0.765625)"/>
       <use xlink:href="#DejaVuSans-30" transform="translate(128.203125 39.046875) scale(0.7)"/>
      </g>
     </g>
    </g>
    <g id="ytick_4">
     <g id="line2d_23">
      <defs>
       <path id="maed8f76542" d="M 0 0 
L -2 0 
" style="stroke: #000000; stroke-width: 0.6"/>
      </defs>
      <g>
       <use xlink:href="#maed8f76542" x="83.3" y="297.371127" style="stroke: #000000; stroke-width: 0.6"/>
      </g>
     </g>
    </g>
    <g id="ytick_5">
     <g id="line2d_24">
      <g>
       <use xlink:href="#maed8f76542" x="83.3" y="268.083629" style="stroke: #000000; stroke-width: 0.6"/>
      </g>
     </g>
    </g>
    <g id="ytick_6">
     <g id="line2d_25">
      <g>
       <use xlink:href="#maed8f76542" x="83.3" y="247.303819" style="stroke: #000000; stroke-width: 0.6"/>
      </g>
     </g>
    </g>
    <g id="ytick_7">
     <g id="line2d_26">
      <g>
       <use xlink:href="#maed8f76542" x="83.3" y="231.185745" style="stroke: #000000; stroke-width: 0.6"/>
      </g>
     </g>
    </g>
    <g id="ytick_8">
     <g id="line2d_27">
      <g>
       <use xlink:href="#maed8f76542" x="83.3" y="218.016321" style="stroke: #000000; stroke-width: 0.6"/>
      </g>
     </g>
    </g>
    <g id="ytick_9">
     <g id="line2d_28">
      <g>
       <use xlink:href="#maed8f76542" x="83.3" y="206.881731" style="stroke: #000000; stroke-width: 0.6"/>
      </g>
     </g>
    </g>
    <g id="ytick_10">
     <g id="line2d_29">
      <g>
       <use xlink:href="#maed8f76542" x="83.3" y="197.23651" style="stroke: #000000; stroke-width: 0.6"/>
      </g>
     </g>
    </g>
    <g id="ytick_11">
     <g id="line2d_30">
      <g>
       <use xlink:href="#maed8f76542" x="83.3" y="188.728822" style="stroke: #000000; stroke-width: 0.6"/>
      </g>
     </g>
    </g>
    <g id="ytick_12">
     <g id="line2d_31">
      <g>
       <use xlink:href="#maed8f76542" x="83.3" y="131.051128" style="stroke: #000000; stroke-width: 0.6"/>
      </g>
     </g>
    </g>
    <g id="ytick_13">
     <g id="line2d_32">
      <g>
       <use xlink:href="#maed8f76542" x="83.3" y="101.76363" style="stroke: #000000; stroke-width: 0.6"/>
      </g>
     </g>
    </g>
    <g id="ytick_14">
     <g id="line2d_33">
      <g>
       <use xlink:href="#maed8f76542" x="83.3" y="80.983819" style="stroke: #000000; stroke-width: 0.6"/>
      </g>
     </g>
    </g>
    <g id="ytick_15">
     <g id="line2d_34">
      <g>
       <use xlink:href="#maed8f76542" x="83.3" y="64.865746" style="stroke: #000000; stroke-width: 0.6"/>
      </g>
     </g>
    </g>
    <g id="ytick_16">
     <g id="line2d_35">
      <g>
       <use xlink:href="#maed8f76542" x="83.3" y="51.696321" style="stroke: #000000; stroke-width: 0.6"/>
      </g>
     </g>
    </g>
    <g id="ytick_17">
     <g id="line2d_36">
      <g>
       <use xlink:href="#maed8f76542" x="83.3" y="40.561731" style="stroke: #000000; stroke-width: 0.6"/>
      </g>
     </g>
    </g>
    <g id="ytick_18">
     <g id="line2d_37">
      <g>
       <use xlink:href="#maed8f76542" x="83.3" y="30.916511" style="stroke: #000000; stroke-width: 0.6"/>
      </g>
     </g>
    </g>
    <g id="ytick_19">
     <g id="line2d_38">
      <g>
       <use xlink:href="#maed8f76542" x="83.3" y="22.408823" style="stroke: #000000; stroke-width: 0.6"/>
      </g>
     </g>
    </g>
    <g id="text_8">
     <!-- $\beta$ -->
     <g transform="translate(22.6 187.518437) rotate(-90) scale(0.2 -0.2)">
      <defs>
       <path id="DejaVuSans-Oblique-3b2" d="M 872 216 
L 572 -1331 
L -6 -1331 
L 928 3478 
Q 1206 4903 2538 4903 
Q 3888 4903 3659 3700 
Q 3503 2844 2894 2531 
Q 3713 2250 3553 1416 
Q 3272 -69 1759 -66 
Q 1097 -63 872 216 
z
M 1019 966 
Q 1259 422 1875 425 
Q 2775 425 2966 1406 
Q 3138 2288 1675 2219 
L 1778 2750 
Q 2909 2731 3106 3750 
Q 3241 4438 2509 4434 
Q 1691 4434 1503 3459 
L 1019 966 
z
" transform="scale(0.015625)"/>
      </defs>
      <use xlink:href="#DejaVuSans-Oblique-3b2" transform="translate(0 0.390625)"/>
     </g>
    </g>
   </g>
   <g id="patch_3">
    <path d="M 83.3 347.438437 
L 83.3 14.798437 
" style="fill: none; stroke: #000000; stroke-width: 0.8; stroke-linejoin: miter; stroke-linecap: square"/>
   </g>
   <g id="patch_4">
    <path d="M 418.1 347.438437 
L 418.1 14.798437 
" style="fill: none; stroke: #000000; stroke-width: 0.8; stroke-linejoin: miter; stroke-linecap: square"/>
   </g>
   <g id="patch_5">
    <path d="M 83.3 347.438437 
L 418.1 347.438437 
" style="fill: none; stroke: #000000; stroke-width: 0.8; stroke-linejoin: miter; stroke-linecap: square"/>
   </g>
   <g id="patch_6">
    <path d="M 83.3 14.798437 
L 418.1 14.798437 
" style="fill: none; stroke: #000000; stroke-width: 0.8; stroke-linejoin: miter; stroke-linecap: square"/>
   </g>
   <g id="text_9">
    <!-- $p^{EI}$ -->
    <g transform="translate(367.707579 72.476132) scale(0.25 -0.25)">
     <defs>
      <path id="DejaVuSans-Oblique-70" d="M 3175 2156 
Q 3175 2616 2975 2859 
Q 2775 3103 2400 3103 
Q 2144 3103 1911 2972 
Q 1678 2841 1497 2591 
Q 1319 2344 1212 1994 
Q 1106 1644 1106 1300 
Q 1106 863 1306 627 
Q 1506 391 1875 391 
Q 2147 391 2380 519 
Q 2613 647 2778 891 
Q 2956 1147 3065 1494 
Q 3175 1841 3175 2156 
z
M 1394 2969 
Q 1625 3272 1939 3428 
Q 2253 3584 2638 3584 
Q 3175 3584 3472 3232 
Q 3769 2881 3769 2247 
Q 3769 1728 3584 1258 
Q 3400 788 3053 416 
Q 2822 169 2531 39 
Q 2241 -91 1919 -91 
Q 1547 -91 1294 64 
Q 1041 219 916 525 
L 556 -1331 
L -19 -1331 
L 922 3500 
L 1497 3500 
L 1394 2969 
z
" transform="scale(0.015625)"/>
      <path id="DejaVuSans-Oblique-45" d="M 1081 4666 
L 4031 4666 
L 3928 4134 
L 1606 4134 
L 1338 2753 
L 3566 2753 
L 3463 2222 
L 1234 2222 
L 909 531 
L 3284 531 
L 3181 0 
L 172 0 
L 1081 4666 
z
" transform="scale(0.015625)"/>
      <path id="DejaVuSans-Oblique-49" d="M 1081 4666 
L 1716 4666 
L 806 0 
L 172 0 
L 1081 4666 
z
" transform="scale(0.015625)"/>
     </defs>
     <use xlink:href="#DejaVuSans-Oblique-70" transform="translate(0 0.684375)"/>
     <use xlink:href="#DejaVuSans-Oblique-45" transform="translate(68.126458 38.965625) scale(0.7)"/>
     <use xlink:href="#DejaVuSans-Oblique-49" transform="translate(112.354974 38.965625) scale(0.7)"/>
    </g>
   </g>
   <g id="text_10">
    <!-- MC -->
    <g transform="translate(367.707579 40.561731) scale(0.25 -0.25)">
     <defs>
      <path id="DejaVuSans-4d" d="M 628 4666 
L 1569 4666 
L 2759 1491 
L 3956 4666 
L 4897 4666 
L 4897 0 
L 4281 0 
L 4281 4097 
L 3078 897 
L 2444 897 
L 1241 4097 
L 1241 0 
L 628 0 
L 628 4666 
z
" transform="scale(0.015625)"/>
      <path id="DejaVuSans-43" d="M 4122 4306 
L 4122 3641 
Q 3803 3938 3442 4084 
Q 3081 4231 2675 4231 
Q 1875 4231 1450 3742 
Q 1025 3253 1025 2328 
Q 1025 1406 1450 917 
Q 1875 428 2675 428 
Q 3081 428 3442 575 
Q 3803 722 4122 1019 
L 4122 359 
Q 3791 134 3420 21 
Q 3050 -91 2638 -91 
Q 1578 -91 968 557 
Q 359 1206 359 2328 
Q 359 3453 968 4101 
Q 1578 4750 2638 4750 
Q 3056 4750 3426 4639 
Q 3797 4528 4122 4306 
z
" transform="scale(0.015625)"/>
     </defs>
     <use xlink:href="#DejaVuSans-4d"/>
     <use xlink:href="#DejaVuSans-43" transform="translate(86.279297 0)"/>
    </g>
   </g>
  </g>
 </g>
 <defs>
  <clipPath id="p3cdcdfadc4">
   <rect x="83.3" y="14.798437" width="334.8" height="332.64"/>
  </clipPath>
 </defs>
</svg>
