<?xml version="1.0" encoding="utf-8" standalone="no"?>
<!DOCTYPE svg PUBLIC "-//W3C//DTD SVG 1.1//EN"
  "http://www.w3.org/Graphics/SVG/1.1/DTD/svg11.dtd">
<svg xmlns:xlink="http://www.w3.org/1999/xlink" width="503.9273pt" height="402.850937pt" viewBox="0 0 503.9273 402.850937" xmlns="http://www.w3.org/2000/svg" version="1.1">
 <metadata>
  <rdf:RDF xmlns:dc="http://purl.org/dc/elements/1.1/" xmlns:cc="http://creativecommons.org/ns#" xmlns:rdf="http://www.w3.org/1999/02/22-rdf-syntax-ns#">
   <cc:Work>
    <dc:type rdf:resource="http://purl.org/dc/dcmitype/StillImage"/>
    <dc:date>2025-05-12T14:38:22.062469</dc:date>
    <dc:format>image/svg+xml</dc:format>
    <dc:creator>
     <cc:Agent>
      <dc:title>Matplotlib v3.10.1, https://matplotlib.org/</dc:title>
     </cc:Agent>
    </dc:creator>
   </cc:Work>
  </rdf:RDF>
 </metadata>
 <defs>
  <style type="text/css">*{stroke-linejoin: round; stroke-linecap: butt}</style>
 </defs>
 <g id="figure_1">
  <g id="patch_1">
   <path d="M 0 402.850937 
L 503.9273 402.850937 
L 503.9273 0 
L 0 0 
z
" style="fill: #ffffff"/>
  </g>
  <g id="axes_1">
   <g id="patch_2">
    <path d="M 83.3 347.438437 
L 416.7608 347.438437 
L 416.7608 14.798437 
L 83.3 14.798437 
z
" style="fill: #ffffff"/>
   </g>
   <g id="QuadContourSet_1">
    <path clip-path="url(#pa47ac0737a)" style="fill: #460a5d"/>
    <path clip-path="url(#pa47ac0737a)" style="fill: #481d6f"/>
    <path clip-path="url(#pa47ac0737a)" style="fill: #472e7c"/>
    <path d="M 88.59303 347.438437 
L 93.886056 347.438437 
L 99.179088 347.438437 
L 101.170488 347.438437 
L 99.179088 344.873616 
L 96.854786 342.158436 
L 93.886056 339.413236 
L 90.828124 336.878439 
L 88.59303 335.387327 
L 83.3 332.236461 
L 83.3 336.878439 
L 83.3 342.158436 
L 83.3 347.438437 
z
" clip-path="url(#pa47ac0737a)" style="fill: #423f85"/>
    <path d="M 99.179088 344.873616 
L 101.170488 347.438437 
L 104.472115 347.438437 
L 109.765142 347.438437 
L 115.058171 347.438437 
L 120.351197 347.438437 
L 125.644226 347.438437 
L 130.937255 347.438437 
L 136.230284 347.438437 
L 140.871073 347.438437 
L 139.017345 342.158436 
L 136.573327 336.878439 
L 136.230284 336.284241 
L 133.275624 331.598435 
L 130.937255 328.711691 
L 128.793182 326.318437 
L 125.644226 323.492184 
L 122.573206 321.038439 
L 120.351197 319.569638 
L 115.058171 316.46521 
L 113.719208 315.758438 
L 109.765142 313.971217 
L 104.472115 311.858407 
L 100.57938 310.478441 
L 99.179088 310.040925 
L 93.886056 308.520453 
L 88.59303 307.17131 
L 83.3 305.968648 
L 83.3 310.478441 
L 83.3 315.758438 
L 83.3 321.038439 
L 83.3 326.318437 
L 83.3 331.598435 
L 83.3 332.236461 
L 88.59303 335.387327 
L 90.828124 336.878439 
L 93.886056 339.413236 
L 96.854786 342.158436 
z
" clip-path="url(#pa47ac0737a)" style="fill: #3d4e8a"/>
    <path d="M 141.523313 347.438437 
L 146.816343 347.438437 
L 152.109387 347.438437 
L 157.402396 347.438437 
L 162.695445 347.438437 
L 164.716799 347.438437 
L 163.622823 342.158436 
L 162.695445 338.6593 
L 162.197399 336.878439 
L 160.328249 331.598435 
L 157.848443 326.318437 
L 157.402396 325.554369 
L 154.538574 321.038439 
L 152.109387 318.034183 
L 150.079188 315.758438 
L 146.816343 312.770854 
L 144.005421 310.478441 
L 141.523313 308.765194 
L 136.230284 305.547692 
L 135.59702 305.19844 
L 130.937255 302.932381 
L 125.644226 300.692134 
L 123.622333 299.91844 
L 120.351197 298.778058 
L 115.058171 297.118151 
L 109.765142 295.651612 
L 105.6977 294.638439 
L 104.472115 294.351959 
L 99.179088 293.201318 
L 93.886056 292.169986 
L 88.59303 291.242364 
L 83.3 290.405396 
L 83.3 294.638439 
L 83.3 299.91844 
L 83.3 305.19844 
L 83.3 305.968648 
L 88.59303 307.17131 
L 93.886056 308.520453 
L 99.179088 310.040925 
L 100.57938 310.478441 
L 104.472115 311.858407 
L 109.765142 313.971217 
L 113.719208 315.758438 
L 115.058171 316.46521 
L 120.351197 319.569638 
L 122.573206 321.038439 
L 125.644226 323.492184 
L 128.793182 326.318437 
L 130.937255 328.711691 
L 133.275624 331.598435 
L 136.230284 336.284241 
L 136.573327 336.878439 
L 139.017345 342.158436 
L 140.871073 347.438437 
z
" clip-path="url(#pa47ac0737a)" style="fill: #365d8d"/>
    <path d="M 167.988452 347.438437 
L 173.281501 347.438437 
L 178.574507 347.438437 
L 183.048205 347.438437 
L 182.331633 342.158436 
L 181.401964 336.878439 
L 180.186701 331.598435 
L 178.587211 326.318437 
L 178.574507 326.284284 
L 176.511783 321.038439 
L 173.749486 315.758438 
L 173.281501 315.03046 
L 170.103801 310.478441 
L 167.988452 308.049335 
L 165.244341 305.19844 
L 162.695445 302.979456 
L 158.734972 299.91844 
L 157.402396 299.02186 
L 152.109387 295.818162 
L 149.914299 294.638439 
L 146.816343 293.126532 
L 141.523313 290.829048 
L 137.691222 289.358439 
L 136.230284 288.832495 
L 130.937255 287.078302 
L 125.644226 285.531401 
L 120.351197 284.159516 
L 120.017714 284.078437 
L 115.058171 282.910827 
L 109.765142 281.7914 
L 104.472115 280.785584 
L 99.179088 279.878856 
L 93.886056 279.059025 
L 92.085552 278.798422 
L 88.59303 278.29797 
L 83.3 277.598137 
L 83.3 278.798422 
L 83.3 284.078437 
L 83.3 289.358439 
L 83.3 290.405396 
L 88.59303 291.242364 
L 93.886056 292.169986 
L 99.179088 293.201318 
L 104.472115 294.351959 
L 105.6977 294.638439 
L 109.765142 295.651612 
L 115.058171 297.118151 
L 120.351197 298.778058 
L 123.622333 299.91844 
L 125.644226 300.692134 
L 130.937255 302.932381 
L 135.59702 305.19844 
L 136.230284 305.547692 
L 141.523313 308.765194 
L 144.005421 310.478441 
L 146.816343 312.770854 
L 150.079188 315.758438 
L 152.109387 318.034183 
L 154.538574 321.038439 
L 157.402396 325.554369 
L 157.848443 326.318437 
L 160.328249 331.598435 
L 162.197399 336.878439 
L 162.695445 338.6593 
L 163.622823 342.158436 
L 164.716799 347.438437 
z
" clip-path="url(#pa47ac0737a)" style="fill: #306a8e"/>
    <path d="M 183.867557 347.438437 
L 189.160564 347.438437 
L 194.453612 347.438437 
L 198.8055 347.438437 
L 198.309729 342.158436 
L 197.67 336.878439 
L 196.838359 331.598435 
L 195.750165 326.318437 
L 194.453612 321.506538 
L 194.323278 321.038439 
L 192.49675 315.758438 
L 190.074441 310.478441 
L 189.160564 308.872622 
L 186.91865 305.19844 
L 183.867557 301.223572 
L 182.773952 299.91844 
L 178.574507 295.734086 
L 177.352085 294.638439 
L 173.281501 291.464273 
L 170.222042 289.358439 
L 167.988452 287.973029 
L 162.695445 285.045774 
L 160.745751 284.078437 
L 157.402396 282.525441 
L 152.109387 280.336306 
L 147.899897 278.798422 
L 146.816343 278.41687 
L 141.523313 276.685279 
L 136.230284 275.154873 
L 130.937255 273.795048 
L 129.783614 273.518441 
L 125.644226 272.533874 
L 120.351197 271.390972 
L 115.058171 270.362867 
L 109.765142 269.435059 
L 104.472115 268.595361 
L 102.056012 268.238422 
L 99.179088 267.808079 
L 93.886056 267.072263 
L 88.59303 266.402349 
L 83.3 265.791324 
L 83.3 268.238422 
L 83.3 273.518441 
L 83.3 277.598137 
L 88.59303 278.29797 
L 92.085552 278.798422 
L 93.886056 279.059025 
L 99.179088 279.878856 
L 104.472115 280.785584 
L 109.765142 281.7914 
L 115.058171 282.910827 
L 120.017714 284.078437 
L 120.351197 284.159516 
L 125.644226 285.531401 
L 130.937255 287.078302 
L 136.230284 288.832495 
L 137.691222 289.358439 
L 141.523313 290.829048 
L 146.816343 293.126532 
L 149.914299 294.638439 
L 152.109387 295.818162 
L 157.402396 299.02186 
L 158.734972 299.91844 
L 162.695445 302.979456 
L 165.244341 305.19844 
L 167.988452 308.049335 
L 170.103801 310.478441 
L 173.281501 315.03046 
L 173.749486 315.758438 
L 176.511783 321.038439 
L 178.574507 326.284284 
L 178.587211 326.318437 
L 180.186701 331.598435 
L 181.401964 336.878439 
L 182.331633 342.158436 
L 183.048205 347.438437 
z
" clip-path="url(#pa47ac0737a)" style="fill: #2a778e"/>
    <path d="M 199.746622 347.438437 
L 205.039672 347.438437 
L 210.332701 347.438437 
L 213.286214 347.438437 
L 212.92931 342.158436 
L 212.471258 336.878439 
L 211.878952 331.598435 
L 211.108018 326.318437 
L 210.332701 322.203397 
L 210.110952 321.038439 
L 208.850972 315.758438 
L 207.188687 310.478441 
L 205.039672 305.300937 
L 204.995196 305.19844 
L 202.213512 299.91844 
L 199.746622 296.249827 
L 198.579524 294.638439 
L 194.453612 289.929759 
L 193.904524 289.358439 
L 189.160564 285.090553 
L 187.904263 284.078437 
L 183.867557 281.158981 
L 180.154899 278.798422 
L 178.574507 277.867461 
L 173.281501 275.039316 
L 170.060716 273.518441 
L 167.988452 272.58028 
L 162.695445 270.396625 
L 157.402396 268.490355 
L 156.651834 268.238422 
L 152.109387 266.730877 
L 146.816343 265.160807 
L 141.523313 263.764267 
L 138.178037 262.958442 
L 136.230284 262.484235 
L 130.937255 261.283477 
L 125.644226 260.202727 
L 120.351197 259.226927 
L 115.058171 258.34345 
L 110.707105 257.678423 
L 109.765142 257.530023 
L 104.472115 256.739509 
L 99.179088 256.019532 
L 93.886056 255.362615 
L 88.59303 254.762272 
L 83.3 254.212839 
L 83.3 257.678423 
L 83.3 262.958442 
L 83.3 265.791324 
L 88.59303 266.402349 
L 93.886056 267.072263 
L 99.179088 267.808079 
L 102.056012 268.238422 
L 104.472115 268.595361 
L 109.765142 269.435059 
L 115.058171 270.362867 
L 120.351197 271.390972 
L 125.644226 272.533874 
L 129.783614 273.518441 
L 130.937255 273.795048 
L 136.230284 275.154873 
L 141.523313 276.685279 
L 146.816343 278.41687 
L 147.899897 278.798422 
L 152.109387 280.336306 
L 157.402396 282.525441 
L 160.745751 284.078437 
L 162.695445 285.045774 
L 167.988452 287.973029 
L 170.222042 289.358439 
L 173.281501 291.464273 
L 177.352085 294.638439 
L 178.574507 295.734086 
L 182.773952 299.91844 
L 183.867557 301.223572 
L 186.91865 305.19844 
L 189.160564 308.872622 
L 190.074441 310.478441 
L 192.49675 315.758438 
L 194.323278 321.038439 
L 194.453612 321.506538 
L 195.750165 326.318437 
L 196.838359 331.598435 
L 197.67 336.878439 
L 198.309729 342.158436 
L 198.8055 347.438437 
z
" clip-path="url(#pa47ac0737a)" style="fill: #25838e"/>
    <path d="M 215.625726 347.438437 
L 220.918757 347.438437 
L 226.211783 347.438437 
L 227.190279 347.438437 
L 226.926365 342.158436 
L 226.589512 336.878439 
L 226.211783 332.245921 
L 226.160111 331.598435 
L 225.636843 326.318437 
L 224.954452 321.038439 
L 224.060483 315.758438 
L 222.886258 310.478441 
L 221.342162 305.19844 
L 220.918757 304.020009 
L 219.400992 299.91844 
L 216.881093 294.638439 
L 215.625726 292.496514 
L 213.673966 289.358439 
L 210.332701 284.984696 
L 209.584474 284.078437 
L 205.039672 279.370299 
L 204.432487 278.798422 
L 199.746622 274.868444 
L 197.945556 273.518441 
L 194.453612 271.108413 
L 189.718024 268.238422 
L 189.160564 267.918509 
L 183.867557 265.099163 
L 179.236363 262.958442 
L 178.574507 262.659698 
L 173.281501 260.426781 
L 167.988452 258.473832 
L 165.632234 257.678423 
L 162.695445 256.682515 
L 157.402396 255.040754 
L 152.109387 253.57921 
L 147.356408 252.398445 
L 146.816343 252.260864 
L 141.523313 250.981417 
L 136.230284 249.829229 
L 130.937255 248.788497 
L 125.644226 247.845875 
L 121.181262 247.118424 
L 120.351197 246.918412 
L 115.058171 245.951526 
L 109.765142 243.822371 
L 104.472115 243.44463 
L 101.564258 241.838445 
L 99.179088 240.708208 
L 93.886056 239.660371 
L 88.59303 238.57817 
L 84.38321 236.558426 
L 83.3 235.791794 
L 83.3 236.558426 
L 83.3 241.838445 
L 83.3 247.118424 
L 83.3 252.398445 
L 83.3 254.212839 
L 88.59303 254.762272 
L 93.886056 255.362615 
L 99.179088 256.019532 
L 104.472115 256.739509 
L 109.765142 257.530023 
L 110.707105 257.678423 
L 115.058171 258.34345 
L 120.351197 259.226927 
L 125.644226 260.202727 
L 130.937255 261.283477 
L 136.230284 262.484235 
L 138.178037 262.958442 
L 141.523313 263.764267 
L 146.816343 265.160807 
L 152.109387 266.730877 
L 156.651834 268.238422 
L 157.402396 268.490355 
L 162.695445 270.396625 
L 167.988452 272.58028 
L 170.060716 273.518441 
L 173.281501 275.039316 
L 178.574507 277.867461 
L 180.154899 278.798422 
L 183.867557 281.158981 
L 187.904263 284.078437 
L 189.160564 285.090553 
L 193.904524 289.358439 
L 194.453612 289.929759 
L 198.579524 294.638439 
L 199.746622 296.249827 
L 202.213512 299.91844 
L 204.995196 305.19844 
L 205.039672 305.300937 
L 207.188687 310.478441 
L 208.850972 315.758438 
L 210.110952 321.038439 
L 210.332701 322.203397 
L 211.108018 326.318437 
L 211.878952 331.598435 
L 212.471258 336.878439 
L 212.92931 342.158436 
L 213.286214 347.438437 
z
" clip-path="url(#pa47ac0737a)" style="fill: #21918c"/>
    <path d="M 231.504813 347.438437 
L 236.797841 347.438437 
L 241.10737 347.438437 
L 240.925887 342.158436 
L 240.695446 336.878439 
L 240.400416 331.598435 
L 240.020082 326.318437 
L 239.526608 321.038439 
L 238.883188 315.758438 
L 238.041439 310.478441 
L 236.938448 305.19844 
L 236.797841 304.64847 
L 235.583973 299.91844 
L 233.822183 294.638439 
L 231.522364 289.358439 
L 231.504813 289.324065 
L 228.708304 284.078437 
L 226.211783 280.336355 
L 225.120715 278.798422 
L 220.918757 273.802757 
L 220.660007 273.518441 
L 215.625726 268.647341 
L 215.16087 268.238422 
L 210.332701 264.363703 
L 208.375717 262.958442 
L 205.039672 260.707557 
L 199.939728 257.678423 
L 199.746622 257.567936 
L 194.453612 254.725252 
L 189.450105 252.398445 
L 189.160564 252.265078 
L 183.867557 249.96451 
L 178.574507 247.948168 
L 176.199721 247.118424 
L 173.281501 246.081635 
L 167.988452 244.357366 
L 162.695445 242.820494 
L 158.986384 241.838445 
L 157.402396 241.147317 
L 152.109387 238.6439 
L 149.401878 236.558426 
L 146.816343 234.62504 
L 142.637485 231.278444 
L 141.523313 230.668393 
L 136.230284 228.153805 
L 131.377281 225.998423 
L 130.937255 225.784198 
L 125.644226 223.865839 
L 120.351197 221.7223 
L 117.239781 220.718422 
L 115.058171 218.614723 
L 109.765142 215.520374 
L 109.015062 215.438426 
L 104.472115 214.147721 
L 99.179088 213.540324 
L 93.886056 211.178996 
L 92.153832 210.158424 
L 88.59303 207.16525 
L 83.3 208.504512 
L 83.3 210.158424 
L 83.3 215.438426 
L 83.3 220.718422 
L 83.3 225.998423 
L 83.3 231.278444 
L 83.3 235.791794 
L 84.38321 236.558426 
L 88.59303 238.57817 
L 93.886056 239.660371 
L 99.179088 240.708208 
L 101.564258 241.838445 
L 104.472115 243.44463 
L 109.765142 243.822371 
L 115.058171 245.951526 
L 120.351197 246.918412 
L 121.181262 247.118424 
L 125.644226 247.845875 
L 130.937255 248.788497 
L 136.230284 249.829229 
L 141.523313 250.981417 
L 146.816343 252.260864 
L 147.356408 252.398445 
L 152.109387 253.57921 
L 157.402396 255.040754 
L 162.695445 256.682515 
L 165.632234 257.678423 
L 167.988452 258.473832 
L 173.281501 260.426781 
L 178.574507 262.659698 
L 179.236363 262.958442 
L 183.867557 265.099163 
L 189.160564 267.918509 
L 189.718024 268.238422 
L 194.453612 271.108413 
L 197.945556 273.518441 
L 199.746622 274.868444 
L 204.432487 278.798422 
L 205.039672 279.370299 
L 209.584474 284.078437 
L 210.332701 284.984696 
L 213.673966 289.358439 
L 215.625726 292.496514 
L 216.881093 294.638439 
L 219.400992 299.91844 
L 220.918757 304.020009 
L 221.342162 305.19844 
L 222.886258 310.478441 
L 224.060483 315.758438 
L 224.954452 321.038439 
L 225.636843 326.318437 
L 226.160111 331.598435 
L 226.211783 332.245921 
L 226.589512 336.878439 
L 226.926365 342.158436 
L 227.190279 347.438437 
z
" clip-path="url(#pa47ac0737a)" style="fill: #1e9d89"/>
    <path d="M 242.090867 347.438437 
L 247.383897 347.438437 
L 252.676907 347.438437 
L 255.543673 347.438437 
L 255.409581 342.158436 
L 255.240367 336.878439 
L 255.025097 331.598435 
L 254.74914 326.318437 
L 254.393055 321.038439 
L 253.930921 315.758438 
L 253.32867 310.478441 
L 252.676907 306.060045 
L 252.553282 305.19844 
L 251.609988 299.91844 
L 250.375735 294.638439 
L 248.76672 289.358439 
L 247.383897 285.754181 
L 246.730574 284.078437 
L 244.22938 278.798422 
L 242.090867 275.157818 
L 241.084221 273.518441 
L 237.232347 268.238422 
L 236.797841 267.713742 
L 232.568039 262.958442 
L 231.504813 261.896969 
L 226.893624 257.678423 
L 226.211783 257.105251 
L 220.918757 253.013721 
L 220.046703 252.398445 
L 215.625726 249.419255 
L 211.772704 247.118424 
L 210.332701 246.278726 
L 205.039672 243.431176 
L 201.725937 241.838445 
L 199.746622 240.88569 
L 194.453612 238.535502 
L 189.405497 236.558426 
L 189.160564 236.307885 
L 183.867557 231.910245 
L 183.357644 231.278444 
L 179.514272 225.998423 
L 178.574507 224.925386 
L 175.471314 220.718422 
L 173.281501 218.060288 
L 170.21378 215.438426 
L 167.988452 213.257018 
L 163.63015 210.158424 
L 162.695445 209.6225 
L 157.402396 207.406424 
L 155.278435 204.878426 
L 152.109387 202.474577 
L 148.498915 199.598424 
L 146.816343 197.844264 
L 143.236396 194.318425 
L 141.523313 192.655446 
L 136.230284 193.485855 
L 131.185988 189.038427 
L 130.937255 188.891849 
L 125.644226 186.053582 
L 120.351197 184.60676 
L 117.153535 183.758427 
L 115.058171 183.029906 
L 111.332074 178.478445 
L 109.765142 177.441055 
L 104.472115 175.718078 
L 99.179088 175.771027 
L 93.886056 176.169795 
L 90.208213 173.198448 
L 88.59303 171.682928 
L 83.3 172.055497 
L 83.3 173.198448 
L 83.3 178.478445 
L 83.3 183.758427 
L 83.3 189.038427 
L 83.3 194.318425 
L 83.3 199.598424 
L 83.3 204.878426 
L 83.3 208.504512 
L 88.59303 207.16525 
L 92.153832 210.158424 
L 93.886056 211.178996 
L 99.179088 213.540324 
L 104.472115 214.147721 
L 109.015062 215.438426 
L 109.765142 215.520374 
L 115.058171 218.614723 
L 117.239781 220.718422 
L 120.351197 221.7223 
L 125.644226 223.865839 
L 130.937255 225.784198 
L 131.377281 225.998423 
L 136.230284 228.153805 
L 141.523313 230.668393 
L 142.637485 231.278444 
L 146.816343 234.62504 
L 149.401878 236.558426 
L 152.109387 238.6439 
L 157.402396 241.147317 
L 158.986384 241.838445 
L 162.695445 242.820494 
L 167.988452 244.357366 
L 173.281501 246.081635 
L 176.199721 247.118424 
L 178.574507 247.948168 
L 183.867557 249.96451 
L 189.160564 252.265078 
L 189.450105 252.398445 
L 194.453612 254.725252 
L 199.746622 257.567936 
L 199.939728 257.678423 
L 205.039672 260.707557 
L 208.375717 262.958442 
L 210.332701 264.363703 
L 215.16087 268.238422 
L 215.625726 268.647341 
L 220.660007 273.518441 
L 220.918757 273.802757 
L 225.120715 278.798422 
L 226.211783 280.336355 
L 228.708304 284.078437 
L 231.504813 289.324065 
L 231.522364 289.358439 
L 233.822183 294.638439 
L 235.583973 299.91844 
L 236.797841 304.64847 
L 236.938448 305.19844 
L 238.041439 310.478441 
L 238.883188 315.758438 
L 239.526608 321.038439 
L 240.020082 326.318437 
L 240.400416 331.598435 
L 240.695446 336.878439 
L 240.925887 342.158436 
L 241.10737 347.438437 
z
" clip-path="url(#pa47ac0737a)" style="fill: #23a983"/>
    <path d="M 257.969932 347.438437 
L 263.262961 347.438437 
L 268.555992 347.438437 
L 271.003008 347.438437 
L 270.905887 342.158436 
L 270.784171 336.878439 
L 270.630347 331.598435 
L 270.434396 326.318437 
L 270.183031 321.038439 
L 269.858431 315.758438 
L 269.437136 310.478441 
L 268.888279 305.19844 
L 268.555992 302.671507 
L 268.208348 299.91844 
L 267.360693 294.638439 
L 266.255067 289.358439 
L 264.820072 284.078437 
L 263.262961 279.576839 
L 262.993566 278.798422 
L 260.815962 273.518441 
L 258.041891 268.238422 
L 257.969932 268.117663 
L 254.780865 262.958442 
L 252.676907 260.094285 
L 250.806271 257.678423 
L 247.383897 253.796592 
L 246.064981 252.398445 
L 242.090867 248.567883 
L 240.459285 247.118424 
L 236.797841 244.073845 
L 233.842691 241.838445 
L 231.504813 240.141936 
L 226.211783 236.678407 
L 226.016539 236.558426 
L 220.918757 233.465781 
L 216.843971 231.278444 
L 215.625726 229.568561 
L 213.57853 225.998423 
L 210.626755 220.718422 
L 210.332701 220.011978 
L 208.163672 215.438426 
L 205.039672 212.091295 
L 204.069282 210.158424 
L 201.293328 204.878426 
L 199.746622 202.308419 
L 197.256298 199.598424 
L 194.453612 197.038411 
L 192.056198 194.318425 
L 189.160564 190.870468 
L 187.098345 189.038427 
L 183.867557 184.443692 
L 183.329579 183.758427 
L 179.566619 178.478445 
L 178.574507 177.954108 
L 175.049216 173.198448 
L 173.281501 171.188942 
L 170.060724 167.918447 
L 167.988452 165.986684 
L 164.129652 162.638446 
L 162.695445 160.936228 
L 158.086928 157.358448 
L 157.402396 156.171855 
L 152.109387 154.350851 
L 146.816343 152.621768 
L 146.26833 152.078451 
L 141.523313 147.884376 
L 140.001029 146.798449 
L 136.230284 143.528168 
L 130.937255 142.193768 
L 129.101996 141.51845 
L 125.644226 140.787603 
L 120.351197 139.748504 
L 115.058171 138.799617 
L 109.765142 137.931711 
L 104.472115 137.13676 
L 99.179088 136.407681 
L 97.887235 136.238442 
L 93.886056 135.687403 
L 88.59303 135.009877 
L 83.3 134.386832 
L 83.3 136.238442 
L 83.3 141.51845 
L 83.3 146.798449 
L 83.3 152.078451 
L 83.3 157.358448 
L 83.3 162.638446 
L 83.3 167.918447 
L 83.3 172.055497 
L 88.59303 171.682928 
L 90.208213 173.198448 
L 93.886056 176.169795 
L 99.179088 175.771027 
L 104.472115 175.718078 
L 109.765142 177.441055 
L 111.332074 178.478445 
L 115.058171 183.029906 
L 117.153535 183.758427 
L 120.351197 184.60676 
L 125.644226 186.053582 
L 130.937255 188.891849 
L 131.185988 189.038427 
L 136.230284 193.485855 
L 141.523313 192.655446 
L 143.236396 194.318425 
L 146.816343 197.844264 
L 148.498915 199.598424 
L 152.109387 202.474577 
L 155.278435 204.878426 
L 157.402396 207.406424 
L 162.695445 209.6225 
L 163.63015 210.158424 
L 167.988452 213.257018 
L 170.21378 215.438426 
L 173.281501 218.060288 
L 175.471314 220.718422 
L 178.574507 224.925386 
L 179.514272 225.998423 
L 183.357644 231.278444 
L 183.867557 231.910245 
L 189.160564 236.307885 
L 189.405497 236.558426 
L 194.453612 238.535502 
L 199.746622 240.88569 
L 201.725937 241.838445 
L 205.039672 243.431176 
L 210.332701 246.278726 
L 211.772704 247.118424 
L 215.625726 249.419255 
L 220.046703 252.398445 
L 220.918757 253.013721 
L 226.211783 257.105251 
L 226.893624 257.678423 
L 231.504813 261.896969 
L 232.568039 262.958442 
L 236.797841 267.713742 
L 237.232347 268.238422 
L 241.084221 273.518441 
L 242.090867 275.157818 
L 244.22938 278.798422 
L 246.730574 284.078437 
L 247.383897 285.754181 
L 248.76672 289.358439 
L 250.375735 294.638439 
L 251.609988 299.91844 
L 252.553282 305.19844 
L 252.676907 306.060045 
L 253.32867 310.478441 
L 253.930921 315.758438 
L 254.393055 321.038439 
L 254.74914 326.318437 
L 255.025097 331.598435 
L 255.240367 336.878439 
L 255.409581 342.158436 
L 255.543673 347.438437 
z
" clip-path="url(#pa47ac0737a)" style="fill: #32b67a"/>
    <path d="M 273.849018 347.438437 
L 279.142044 347.438437 
L 284.435074 347.438437 
L 288.228813 347.438437 
L 288.161529 342.158436 
L 288.077903 336.878439 
L 287.972912 331.598435 
L 287.840166 326.318437 
L 287.670977 321.038439 
L 287.453808 315.758438 
L 287.173246 310.478441 
L 286.809018 305.19844 
L 286.334603 299.91844 
L 285.715912 294.638439 
L 284.909729 289.358439 
L 284.435074 286.875983 
L 283.919752 284.078437 
L 282.700081 278.798422 
L 281.133552 273.518441 
L 279.142044 268.246417 
L 279.139038 268.238422 
L 276.842935 262.958442 
L 273.961253 257.678423 
L 273.849018 257.494591 
L 270.649287 252.398445 
L 268.555992 249.546854 
L 266.695833 247.118424 
L 263.262961 243.136428 
L 262.079471 241.838445 
L 257.969932 237.706559 
L 256.747114 236.558426 
L 252.676907 232.960927 
L 250.61524 231.278444 
L 247.383897 228.738819 
L 243.56768 225.998423 
L 242.090867 224.04538 
L 240.13373 220.718422 
L 238.211677 215.438426 
L 236.797841 213.083573 
L 235.353673 210.158424 
L 234.376238 204.878426 
L 233.565341 199.598424 
L 231.504813 196.727009 
L 229.498023 194.318425 
L 227.537739 189.038427 
L 226.91584 183.758427 
L 226.211783 182.16181 
L 224.37325 178.478445 
L 222.525876 173.198448 
L 220.918757 171.838767 
L 218.038092 167.918447 
L 216.88397 162.638446 
L 215.625726 160.29573 
L 213.678519 157.358448 
L 210.332701 152.689229 
L 209.850187 152.078451 
L 205.039672 147.167404 
L 204.565773 146.798449 
L 202.614897 141.51845 
L 199.746622 137.591834 
L 198.006871 136.238442 
L 194.453612 134.512543 
L 189.160564 132.172805 
L 186.168612 130.958438 
L 183.867557 129.999575 
L 178.574507 127.94664 
L 173.281501 126.104622 
L 171.984031 125.678439 
L 167.988452 124.312561 
L 162.695445 122.654254 
L 157.402396 121.154111 
L 154.538787 120.398439 
L 152.109387 119.723794 
L 146.816343 118.345827 
L 141.523313 117.091912 
L 136.230284 115.948507 
L 132.070032 115.11844 
L 130.937255 114.878118 
L 125.644226 113.807842 
L 120.351197 112.828221 
L 115.058171 111.930259 
L 109.765142 111.106056 
L 104.472115 110.348686 
L 100.644678 109.83844 
L 99.179088 109.628657 
L 93.886056 108.907168 
L 88.59303 108.242907 
L 83.3 107.630781 
L 83.3 109.83844 
L 83.3 115.11844 
L 83.3 120.398439 
L 83.3 125.678439 
L 83.3 130.958438 
L 83.3 134.386832 
L 88.59303 135.009877 
L 93.886056 135.687403 
L 97.887235 136.238442 
L 99.179088 136.407681 
L 104.472115 137.13676 
L 109.765142 137.931711 
L 115.058171 138.799617 
L 120.351197 139.748504 
L 125.644226 140.787603 
L 129.101996 141.51845 
L 130.937255 142.193768 
L 136.230284 143.528168 
L 140.001029 146.798449 
L 141.523313 147.884376 
L 146.26833 152.078451 
L 146.816343 152.621768 
L 152.109387 154.350851 
L 157.402396 156.171855 
L 158.086928 157.358448 
L 162.695445 160.936228 
L 164.129652 162.638446 
L 167.988452 165.986684 
L 170.060724 167.918447 
L 173.281501 171.188942 
L 175.049216 173.198448 
L 178.574507 177.954108 
L 179.566619 178.478445 
L 183.329579 183.758427 
L 183.867557 184.443692 
L 187.098345 189.038427 
L 189.160564 190.870468 
L 192.056198 194.318425 
L 194.453612 197.038411 
L 197.256298 199.598424 
L 199.746622 202.308419 
L 201.293328 204.878426 
L 204.069282 210.158424 
L 205.039672 212.091295 
L 208.163672 215.438426 
L 210.332701 220.011978 
L 210.626755 220.718422 
L 213.57853 225.998423 
L 215.625726 229.568561 
L 216.843971 231.278444 
L 220.918757 233.465781 
L 226.016539 236.558426 
L 226.211783 236.678407 
L 231.504813 240.141936 
L 233.842691 241.838445 
L 236.797841 244.073845 
L 240.459285 247.118424 
L 242.090867 248.567883 
L 246.064981 252.398445 
L 247.383897 253.796592 
L 250.806271 257.678423 
L 252.676907 260.094285 
L 254.780865 262.958442 
L 257.969932 268.117663 
L 258.041891 268.238422 
L 260.815962 273.518441 
L 262.993566 278.798422 
L 263.262961 279.576839 
L 264.820072 284.078437 
L 266.255067 289.358439 
L 267.360693 294.638439 
L 268.208348 299.91844 
L 268.555992 302.671507 
L 268.888279 305.19844 
L 269.437136 310.478441 
L 269.858431 315.758438 
L 270.183031 321.038439 
L 270.434396 326.318437 
L 270.630347 331.598435 
L 270.784171 336.878439 
L 270.905887 342.158436 
L 271.003008 347.438437 
z
" clip-path="url(#pa47ac0737a)" style="fill: #48c16e"/>
    <path d="M 289.728102 347.438437 
L 295.021139 347.438437 
L 300.314171 347.438437 
L 305.607198 347.438437 
L 308.413956 347.438437 
L 308.365203 342.158436 
L 308.30514 336.878439 
L 308.230454 331.598435 
L 308.136733 326.318437 
L 308.018327 321.038439 
L 307.867474 315.758438 
L 307.673977 310.478441 
L 307.424189 305.19844 
L 307.100178 299.91844 
L 306.678584 294.638439 
L 306.129335 289.358439 
L 305.607198 285.440751 
L 305.436035 284.078437 
L 304.611086 278.798422 
L 303.546834 273.518441 
L 302.18553 268.238422 
L 300.461068 262.958442 
L 300.314171 262.568997 
L 298.498569 257.678423 
L 296.074305 252.398445 
L 295.021139 250.415271 
L 293.260167 247.118424 
L 289.924621 241.838445 
L 289.728102 241.554191 
L 286.183536 236.558426 
L 284.435074 234.368075 
L 281.873152 231.278444 
L 279.142044 228.263238 
L 276.987355 225.998423 
L 273.849018 222.901767 
L 271.501813 220.718422 
L 268.555992 216.029636 
L 268.250979 215.438426 
L 266.500366 210.158424 
L 266.55463 204.878426 
L 264.192556 199.598424 
L 264.172783 194.318425 
L 263.262961 191.418355 
L 262.357015 189.038427 
L 262.38223 183.758427 
L 260.356939 178.478445 
L 257.969932 173.365447 
L 257.859677 173.198448 
L 257.95921 167.918447 
L 256.577725 162.638446 
L 253.965541 157.358448 
L 252.676907 154.168252 
L 251.745109 152.078451 
L 251.520031 146.798449 
L 249.949784 141.51845 
L 247.383897 136.706006 
L 247.010011 136.238442 
L 245.499627 130.958438 
L 242.090867 128.195925 
L 238.729921 125.678439 
L 236.797841 124.237434 
L 231.504813 120.597264 
L 231.199636 120.398439 
L 226.211783 117.111541 
L 222.881709 115.11844 
L 220.918757 113.918152 
L 215.625726 110.910891 
L 213.5908 109.83844 
L 210.332701 108.063603 
L 205.039672 105.424935 
L 203.178402 104.558439 
L 199.746622 102.890439 
L 194.453612 100.531206 
L 191.407098 99.27844 
L 189.160564 98.305475 
L 183.867557 96.162272 
L 178.574507 94.231478 
L 177.904984 93.998441 
L 173.281501 92.288319 
L 167.988452 90.503458 
L 162.695445 88.88499 
L 162.126282 88.718441 
L 157.402396 87.238242 
L 152.109387 85.720659 
L 146.816343 84.33789 
L 143.10454 83.438445 
L 141.523313 83.025439 
L 136.230284 81.713049 
L 130.937255 80.513004 
L 125.644226 79.413917 
L 120.351197 78.405788 
L 118.987392 78.158445 
L 115.058171 77.384918 
L 109.765142 76.415578 
L 104.472115 75.52463 
L 99.179088 74.704876 
L 93.886056 73.949887 
L 88.59303 73.253899 
L 85.555949 72.878439 
L 83.3 72.57382 
L 83.3 72.878439 
L 83.3 78.158445 
L 83.3 83.438445 
L 83.3 88.718441 
L 83.3 93.998441 
L 83.3 99.27844 
L 83.3 104.558439 
L 83.3 107.630781 
L 88.59303 108.242907 
L 93.886056 108.907168 
L 99.179088 109.628657 
L 100.644678 109.83844 
L 104.472115 110.348686 
L 109.765142 111.106056 
L 115.058171 111.930259 
L 120.351197 112.828221 
L 125.644226 113.807842 
L 130.937255 114.878118 
L 132.070032 115.11844 
L 136.230284 115.948507 
L 141.523313 117.091912 
L 146.816343 118.345827 
L 152.109387 119.723794 
L 154.538787 120.398439 
L 157.402396 121.154111 
L 162.695445 122.654254 
L 167.988452 124.312561 
L 171.984031 125.678439 
L 173.281501 126.104622 
L 178.574507 127.94664 
L 183.867557 129.999575 
L 186.168612 130.958438 
L 189.160564 132.172805 
L 194.453612 134.512543 
L 198.006871 136.238442 
L 199.746622 137.591834 
L 202.614897 141.51845 
L 204.565773 146.798449 
L 205.039672 147.167404 
L 209.850187 152.078451 
L 210.332701 152.689229 
L 213.678519 157.358448 
L 215.625726 160.29573 
L 216.88397 162.638446 
L 218.038092 167.918447 
L 220.918757 171.838767 
L 222.525876 173.198448 
L 224.37325 178.478445 
L 226.211783 182.16181 
L 226.91584 183.758427 
L 227.537739 189.038427 
L 229.498023 194.318425 
L 231.504813 196.727009 
L 233.565341 199.598424 
L 234.376238 204.878426 
L 235.353673 210.158424 
L 236.797841 213.083573 
L 238.211677 215.438426 
L 240.13373 220.718422 
L 242.090867 224.04538 
L 243.56768 225.998423 
L 247.383897 228.738819 
L 250.61524 231.278444 
L 252.676907 232.960927 
L 256.747114 236.558426 
L 257.969932 237.706559 
L 262.079471 241.838445 
L 263.262961 243.136428 
L 266.695833 247.118424 
L 268.555992 249.546854 
L 270.649287 252.398445 
L 273.849018 257.494591 
L 273.961253 257.678423 
L 276.842935 262.958442 
L 279.139038 268.238422 
L 279.142044 268.246417 
L 281.133552 273.518441 
L 282.700081 278.798422 
L 283.919752 284.078437 
L 284.435074 286.875983 
L 284.909729 289.358439 
L 285.715912 294.638439 
L 286.334603 299.91844 
L 286.809018 305.19844 
L 287.173246 310.478441 
L 287.453808 315.758438 
L 287.670977 321.038439 
L 287.840166 326.318437 
L 287.972912 331.598435 
L 288.077903 336.878439 
L 288.161529 342.158436 
L 288.228813 347.438437 
z
" clip-path="url(#pa47ac0737a)" style="fill: #65cb5e"/>
    <path d="M 310.900227 347.438437 
L 316.193255 347.438437 
L 321.486283 347.438437 
L 326.779312 347.438437 
L 332.07234 347.438437 
L 333.653777 347.438437 
L 333.618306 342.158436 
L 333.575079 336.878439 
L 333.521729 331.598435 
L 333.4556 326.318437 
L 333.372705 321.038439 
L 333.268207 315.758438 
L 333.13534 310.478441 
L 332.965104 305.19844 
L 332.745661 299.91844 
L 332.461487 294.638439 
L 332.09203 289.358439 
L 332.07234 289.131529 
L 331.666561 284.078437 
L 331.115882 278.798422 
L 330.402026 273.518441 
L 329.482858 268.238422 
L 328.309866 262.958442 
L 326.828637 257.678423 
L 326.779312 257.526096 
L 325.178839 252.398445 
L 323.145518 247.118424 
L 321.486283 243.493322 
L 320.742171 241.838445 
L 318.032835 236.558426 
L 316.193255 233.455332 
L 314.902682 231.278444 
L 311.361663 225.998423 
L 310.900227 225.361578 
L 307.481608 220.718422 
L 305.607198 218.399249 
L 303.152185 215.438426 
L 300.314171 211.663219 
L 298.937559 210.158424 
L 298.977176 204.878426 
L 298.308344 199.598424 
L 297.405009 194.318425 
L 296.449626 189.038427 
L 296.781317 183.758427 
L 295.273469 178.478445 
L 295.496466 173.198448 
L 295.353792 167.918447 
L 295.021139 166.852054 
L 293.774458 162.638446 
L 293.737038 157.358448 
L 293.340451 152.078451 
L 291.982091 146.798449 
L 291.114342 141.51845 
L 289.728102 137.65206 
L 289.305441 136.238442 
L 289.728102 134.113475 
L 290.273121 130.958438 
L 289.728102 128.757115 
L 288.691533 125.678439 
L 284.435074 120.611613 
L 284.249344 120.398439 
L 279.522236 115.11844 
L 279.142044 114.704037 
L 274.474935 109.83844 
L 273.849018 109.196476 
L 269.096356 104.558439 
L 268.555992 104.033878 
L 263.382458 99.27844 
L 263.262961 99.168093 
L 257.969932 94.505162 
L 257.359536 93.998441 
L 252.676907 90.045073 
L 250.998771 88.718441 
L 247.383897 85.790686 
L 244.27009 83.438445 
L 242.090867 81.740493 
L 237.142807 78.158445 
L 236.797841 77.899296 
L 231.504813 74.105995 
L 229.661328 72.878439 
L 226.211783 70.47694 
L 221.719408 67.598438 
L 220.918757 67.059402 
L 215.625726 63.678599 
L 213.327518 62.318442 
L 210.332701 57.988631 
L 209.825601 57.038437 
L 210.248863 51.758443 
L 205.039672 47.117992 
L 204.446492 46.478442 
L 204.757825 41.198439 
L 203.250476 35.918436 
L 204.643274 30.638441 
L 203.910365 25.358437 
L 201.011768 20.07844 
L 199.746622 18.304505 
L 198.784809 14.798437 
L 194.453612 14.798437 
L 189.160564 14.798437 
L 183.867557 14.798437 
L 178.574507 14.798437 
L 173.281501 14.798437 
L 167.988452 14.798437 
L 162.695445 14.798437 
L 157.402396 14.798437 
L 152.109387 14.798437 
L 146.816343 14.798437 
L 141.523313 14.798437 
L 136.230284 14.798437 
L 130.937255 14.798437 
L 125.644226 14.798437 
L 120.351197 14.798437 
L 115.058171 14.798437 
L 109.765142 14.798437 
L 104.472115 14.798437 
L 99.179088 14.798437 
L 93.886056 14.798437 
L 88.59303 14.798437 
L 83.3 14.798437 
L 83.3 20.07844 
L 83.3 25.358437 
L 83.3 30.638441 
L 83.3 35.918436 
L 83.3 41.198439 
L 83.3 46.478442 
L 83.3 51.758443 
L 83.3 57.038437 
L 83.3 62.318442 
L 83.3 67.598438 
L 83.3 72.57382 
L 85.555949 72.878439 
L 88.59303 73.253899 
L 93.886056 73.949887 
L 99.179088 74.704876 
L 104.472115 75.52463 
L 109.765142 76.415578 
L 115.058171 77.384918 
L 118.987392 78.158445 
L 120.351197 78.405788 
L 125.644226 79.413917 
L 130.937255 80.513004 
L 136.230284 81.713049 
L 141.523313 83.025439 
L 143.10454 83.438445 
L 146.816343 84.33789 
L 152.109387 85.720659 
L 157.402396 87.238242 
L 162.126282 88.718441 
L 162.695445 88.88499 
L 167.988452 90.503458 
L 173.281501 92.288319 
L 177.904984 93.998441 
L 178.574507 94.231478 
L 183.867557 96.162272 
L 189.160564 98.305475 
L 191.407098 99.27844 
L 194.453612 100.531206 
L 199.746622 102.890439 
L 203.178402 104.558439 
L 205.039672 105.424935 
L 210.332701 108.063603 
L 213.5908 109.83844 
L 215.625726 110.910891 
L 220.918757 113.918152 
L 222.881709 115.11844 
L 226.211783 117.111541 
L 231.199636 120.398439 
L 231.504813 120.597264 
L 236.797841 124.237434 
L 238.729921 125.678439 
L 242.090867 128.195925 
L 245.499627 130.958438 
L 247.010011 136.238442 
L 247.383897 136.706006 
L 249.949784 141.51845 
L 251.520031 146.798449 
L 251.745109 152.078451 
L 252.676907 154.168252 
L 253.965541 157.358448 
L 256.577725 162.638446 
L 257.95921 167.918447 
L 257.859677 173.198448 
L 257.969932 173.365447 
L 260.356939 178.478445 
L 262.38223 183.758427 
L 262.357015 189.038427 
L 263.262961 191.418355 
L 264.172783 194.318425 
L 264.192556 199.598424 
L 266.55463 204.878426 
L 266.500366 210.158424 
L 268.250979 215.438426 
L 268.555992 216.029636 
L 271.501813 220.718422 
L 273.849018 222.901767 
L 276.987355 225.998423 
L 279.142044 228.263238 
L 281.873152 231.278444 
L 284.435074 234.368075 
L 286.183536 236.558426 
L 289.728102 241.554191 
L 289.924621 241.838445 
L 293.260167 247.118424 
L 295.021139 250.415271 
L 296.074305 252.398445 
L 298.498569 257.678423 
L 300.314171 262.568997 
L 300.461068 262.958442 
L 302.18553 268.238422 
L 303.546834 273.518441 
L 304.611086 278.798422 
L 305.436035 284.078437 
L 305.607198 285.440751 
L 306.129335 289.358439 
L 306.678584 294.638439 
L 307.100178 299.91844 
L 307.424189 305.19844 
L 307.673977 310.478441 
L 307.867474 315.758438 
L 308.018327 321.038439 
L 308.136733 326.318437 
L 308.230454 331.598435 
L 308.30514 336.878439 
L 308.365203 342.158436 
L 308.413956 347.438437 
z
" clip-path="url(#pa47ac0737a)" style="fill: #84d44b"/>
    <path d="M 337.365368 347.438437 
L 342.658397 347.438437 
L 347.951421 347.438437 
L 353.244449 347.438437 
L 358.537484 347.438437 
L 363.830514 347.438437 
L 369.052362 347.438437 
L 369.029243 342.158436 
L 369.001522 336.878439 
L 368.967531 331.598435 
L 368.925904 326.318437 
L 368.874398 321.038439 
L 368.810199 315.758438 
L 368.72944 310.478441 
L 368.626855 305.19844 
L 368.495835 299.91844 
L 368.327538 294.638439 
L 368.109738 289.358439 
L 367.827101 284.078437 
L 367.459217 278.798422 
L 366.980758 273.518441 
L 366.360561 268.238422 
L 365.561883 262.958442 
L 364.542277 257.678423 
L 363.830514 254.671121 
L 363.325955 252.398445 
L 361.917693 247.118424 
L 360.182577 241.838445 
L 358.537484 237.656524 
L 358.123517 236.558426 
L 355.873746 231.278444 
L 353.244449 226.110273 
L 353.189092 225.998423 
L 350.354463 220.718422 
L 347.951421 216.822631 
L 347.109393 215.438426 
L 343.60667 210.158424 
L 342.658397 208.829802 
L 339.844483 204.878426 
L 338.589249 199.598424 
L 337.365368 194.83212 
L 337.253075 194.318425 
L 337.365368 193.049701 
L 337.914762 189.038427 
L 338.644897 183.758427 
L 338.373149 178.478445 
L 338.416235 173.198448 
L 337.365368 169.322839 
L 337.050206 167.918447 
L 336.949283 162.638446 
L 337.365368 159.882165 
L 337.799944 157.358448 
L 337.860254 152.078451 
L 337.525295 146.798449 
L 337.365368 145.759268 
L 336.678028 141.51845 
L 336.642058 136.238442 
L 335.815312 130.958438 
L 335.755625 125.678439 
L 335.551575 120.398439 
L 333.653345 115.11844 
L 332.07234 112.56375 
L 330.390871 109.83844 
L 326.935041 104.558439 
L 326.779312 104.322157 
L 323.445632 99.27844 
L 321.486283 96.443793 
L 319.783635 93.998441 
L 316.193255 89.0128 
L 315.978857 88.718441 
L 312.156934 83.438445 
L 310.900227 81.727949 
L 308.239429 78.158445 
L 305.607198 74.672325 
L 304.228859 72.878439 
L 300.314171 67.813428 
L 300.144626 67.598438 
L 296.079012 62.318442 
L 295.021139 60.936289 
L 291.97322 57.038437 
L 289.752354 51.758443 
L 290.643693 46.478442 
L 290.857244 41.198439 
L 289.728102 38.528398 
L 288.562544 35.918436 
L 289.728102 31.724543 
L 290.001063 30.638441 
L 289.865828 25.358437 
L 290.153637 20.07844 
L 289.728102 15.227605 
L 289.694957 14.798437 
L 284.435074 14.798437 
L 279.142044 14.798437 
L 273.849018 14.798437 
L 268.555992 14.798437 
L 263.262961 14.798437 
L 257.969932 14.798437 
L 252.676907 14.798437 
L 247.383897 14.798437 
L 242.090867 14.798437 
L 236.797841 14.798437 
L 231.504813 14.798437 
L 226.211783 14.798437 
L 220.918757 14.798437 
L 215.625726 14.798437 
L 210.332701 14.798437 
L 205.039672 14.798437 
L 199.746622 14.798437 
L 198.784809 14.798437 
L 199.746622 18.304505 
L 201.011768 20.07844 
L 203.910365 25.358437 
L 204.643274 30.638441 
L 203.250476 35.918436 
L 204.757825 41.198439 
L 204.446492 46.478442 
L 205.039672 47.117992 
L 210.248863 51.758443 
L 209.825601 57.038437 
L 210.332701 57.988631 
L 213.327518 62.318442 
L 215.625726 63.678599 
L 220.918757 67.059402 
L 221.719408 67.598438 
L 226.211783 70.47694 
L 229.661328 72.878439 
L 231.504813 74.105995 
L 236.797841 77.899296 
L 237.142807 78.158445 
L 242.090867 81.740493 
L 244.27009 83.438445 
L 247.383897 85.790686 
L 250.998771 88.718441 
L 252.676907 90.045073 
L 257.359536 93.998441 
L 257.969932 94.505162 
L 263.262961 99.168093 
L 263.382458 99.27844 
L 268.555992 104.033878 
L 269.096356 104.558439 
L 273.849018 109.196476 
L 274.474935 109.83844 
L 279.142044 114.704037 
L 279.522236 115.11844 
L 284.249344 120.398439 
L 284.435074 120.611613 
L 288.691533 125.678439 
L 289.728102 128.757115 
L 290.273121 130.958438 
L 289.728102 134.113475 
L 289.305441 136.238442 
L 289.728102 137.65206 
L 291.114342 141.51845 
L 291.982091 146.798449 
L 293.340451 152.078451 
L 293.737038 157.358448 
L 293.774458 162.638446 
L 295.021139 166.852054 
L 295.353792 167.918447 
L 295.496466 173.198448 
L 295.273469 178.478445 
L 296.781317 183.758427 
L 296.449626 189.038427 
L 297.405009 194.318425 
L 298.308344 199.598424 
L 298.977176 204.878426 
L 298.937559 210.158424 
L 300.314171 211.663219 
L 303.152185 215.438426 
L 305.607198 218.399249 
L 307.481608 220.718422 
L 310.900227 225.361578 
L 311.361663 225.998423 
L 314.902682 231.278444 
L 316.193255 233.455332 
L 318.032835 236.558426 
L 320.742171 241.838445 
L 321.486283 243.493322 
L 323.145518 247.118424 
L 325.178839 252.398445 
L 326.779312 257.526096 
L 326.828637 257.678423 
L 328.309866 262.958442 
L 329.482858 268.238422 
L 330.402026 273.518441 
L 331.115882 278.798422 
L 331.666561 284.078437 
L 332.07234 289.131529 
L 332.09203 289.358439 
L 332.461487 294.638439 
L 332.745661 299.91844 
L 332.965104 305.19844 
L 333.13534 310.478441 
L 333.268207 315.758438 
L 333.372705 321.038439 
L 333.4556 326.318437 
L 333.521729 331.598435 
L 333.575079 336.878439 
L 333.618306 342.158436 
L 333.653777 347.438437 
z
" clip-path="url(#pa47ac0737a)" style="fill: #a8db34"/>
    <path d="M 369.123539 347.438437 
L 374.416572 347.438437 
L 379.709595 347.438437 
L 385.002624 347.438437 
L 390.295656 347.438437 
L 395.588687 347.438437 
L 400.881711 347.438437 
L 406.174744 347.438437 
L 411.467769 347.438437 
L 416.7608 347.438437 
L 416.7608 342.158436 
L 416.7608 336.878439 
L 416.7608 331.598435 
L 416.7608 326.318437 
L 416.7608 321.038439 
L 416.7608 315.758438 
L 416.7608 310.478441 
L 416.7608 305.19844 
L 416.7608 299.91844 
L 416.7608 294.638439 
L 416.7608 289.358439 
L 416.7608 284.078437 
L 416.7608 278.798422 
L 416.7608 273.518441 
L 416.7608 268.238422 
L 416.7608 262.958442 
L 416.7608 257.678423 
L 416.7608 252.398445 
L 416.7608 247.118424 
L 416.7608 241.838445 
L 416.7608 236.558426 
L 416.7608 231.278444 
L 416.7608 225.998423 
L 416.7608 220.718422 
L 416.7608 215.438426 
L 416.7608 214.244816 
L 414.521924 210.158424 
L 411.467769 205.249129 
L 411.246551 204.878426 
L 407.901776 199.598424 
L 406.174744 197.101472 
L 404.312524 194.318425 
L 403.255819 189.038427 
L 404.384022 183.758427 
L 404.972133 178.478445 
L 405.237838 173.198448 
L 405.672006 167.918447 
L 405.187412 162.638446 
L 405.520144 157.358448 
L 406.174744 153.874009 
L 406.5142 152.078451 
L 406.174744 149.760274 
L 405.731431 146.798449 
L 406.039765 141.51845 
L 406.174744 140.815345 
L 407.154286 136.238442 
L 406.642391 130.958438 
L 406.822351 125.678439 
L 407.31607 120.398439 
L 407.257137 115.11844 
L 407.234627 109.83844 
L 406.174744 107.740926 
L 404.640663 104.558439 
L 401.947408 99.27844 
L 400.881711 97.254136 
L 399.239757 93.998441 
L 396.45021 88.718441 
L 395.588687 87.110264 
L 393.697986 83.438445 
L 390.86073 78.158445 
L 390.295656 77.102072 
L 388.118981 72.878439 
L 385.282233 67.598438 
L 385.002624 67.066591 
L 382.594141 62.318442 
L 379.805612 57.038437 
L 379.709595 56.850195 
L 377.201412 51.758443 
L 374.504611 46.478442 
L 375.370119 41.198439 
L 376.322135 35.918436 
L 375.786894 30.638441 
L 377.293463 25.358437 
L 377.542751 20.07844 
L 377.823001 14.798437 
L 374.416572 14.798437 
L 369.123539 14.798437 
L 363.830514 14.798437 
L 358.537484 14.798437 
L 353.244449 14.798437 
L 347.951421 14.798437 
L 342.658397 14.798437 
L 337.365368 14.798437 
L 332.07234 14.798437 
L 326.779312 14.798437 
L 321.486283 14.798437 
L 316.193255 14.798437 
L 310.900227 14.798437 
L 305.607198 14.798437 
L 300.314171 14.798437 
L 295.021139 14.798437 
L 289.728102 14.798437 
L 289.694957 14.798437 
L 289.728102 15.227605 
L 290.153637 20.07844 
L 289.865828 25.358437 
L 290.001063 30.638441 
L 289.728102 31.724543 
L 288.562544 35.918436 
L 289.728102 38.528398 
L 290.857244 41.198439 
L 290.643693 46.478442 
L 289.752354 51.758443 
L 291.97322 57.038437 
L 295.021139 60.936289 
L 296.079012 62.318442 
L 300.144626 67.598438 
L 300.314171 67.813428 
L 304.228859 72.878439 
L 305.607198 74.672325 
L 308.239429 78.158445 
L 310.900227 81.727949 
L 312.156934 83.438445 
L 315.978857 88.718441 
L 316.193255 89.0128 
L 319.783635 93.998441 
L 321.486283 96.443793 
L 323.445632 99.27844 
L 326.779312 104.322157 
L 326.935041 104.558439 
L 330.390871 109.83844 
L 332.07234 112.56375 
L 333.653345 115.11844 
L 335.551575 120.398439 
L 335.755625 125.678439 
L 335.815312 130.958438 
L 336.642058 136.238442 
L 336.678028 141.51845 
L 337.365368 145.759268 
L 337.525295 146.798449 
L 337.860254 152.078451 
L 337.799944 157.358448 
L 337.365368 159.882165 
L 336.949283 162.638446 
L 337.050206 167.918447 
L 337.365368 169.322839 
L 338.416235 173.198448 
L 338.373149 178.478445 
L 338.644897 183.758427 
L 337.914762 189.038427 
L 337.365368 193.049701 
L 337.253075 194.318425 
L 337.365368 194.83212 
L 338.589249 199.598424 
L 339.844483 204.878426 
L 342.658397 208.829802 
L 343.60667 210.158424 
L 347.109393 215.438426 
L 347.951421 216.822631 
L 350.354463 220.718422 
L 353.189092 225.998423 
L 353.244449 226.110273 
L 355.873746 231.278444 
L 358.123517 236.558426 
L 358.537484 237.656524 
L 360.182577 241.838445 
L 361.917693 247.118424 
L 363.325955 252.398445 
L 363.830514 254.671121 
L 364.542277 257.678423 
L 365.561883 262.958442 
L 366.360561 268.238422 
L 366.980758 273.518441 
L 367.459217 278.798422 
L 367.827101 284.078437 
L 368.109738 289.358439 
L 368.327538 294.638439 
L 368.495835 299.91844 
L 368.626855 305.19844 
L 368.72944 310.478441 
L 368.810199 315.758438 
L 368.874398 321.038439 
L 368.925904 326.318437 
L 368.967531 331.598435 
L 369.001522 336.878439 
L 369.029243 342.158436 
L 369.052362 347.438437 
z
" clip-path="url(#pa47ac0737a)" style="fill: #cae11f"/>
    <path d="M 416.7608 214.244816 
L 416.7608 210.158424 
L 416.7608 204.878426 
L 416.7608 199.598424 
L 416.7608 194.318425 
L 416.7608 189.038427 
L 416.7608 183.758427 
L 416.7608 178.478445 
L 416.7608 173.198448 
L 416.7608 167.918447 
L 416.7608 162.638446 
L 416.7608 157.358448 
L 416.7608 152.078451 
L 416.7608 146.798449 
L 416.7608 141.51845 
L 416.7608 136.238442 
L 416.7608 130.958438 
L 416.7608 125.678439 
L 416.7608 120.398439 
L 416.7608 115.11844 
L 416.7608 109.83844 
L 416.7608 104.558439 
L 416.7608 99.27844 
L 416.7608 93.998441 
L 416.7608 88.718441 
L 416.7608 83.438445 
L 416.7608 78.158445 
L 416.7608 72.878439 
L 416.7608 67.598438 
L 416.7608 62.318442 
L 416.7608 57.038437 
L 416.7608 51.758443 
L 416.7608 46.478442 
L 416.7608 41.198439 
L 416.7608 35.918436 
L 416.7608 30.638441 
L 416.7608 25.358437 
L 416.7608 20.07844 
L 416.7608 14.798437 
L 411.467769 14.798437 
L 406.174744 14.798437 
L 400.881711 14.798437 
L 395.588687 14.798437 
L 390.295656 14.798437 
L 385.002624 14.798437 
L 379.709595 14.798437 
L 377.823001 14.798437 
L 377.542751 20.07844 
L 377.293463 25.358437 
L 375.786894 30.638441 
L 376.322135 35.918436 
L 375.370119 41.198439 
L 374.504611 46.478442 
L 377.201412 51.758443 
L 379.709595 56.850195 
L 379.805612 57.038437 
L 382.594141 62.318442 
L 385.002624 67.066591 
L 385.282233 67.598438 
L 388.118981 72.878439 
L 390.295656 77.102072 
L 390.86073 78.158445 
L 393.697986 83.438445 
L 395.588687 87.110264 
L 396.45021 88.718441 
L 399.239757 93.998441 
L 400.881711 97.254136 
L 401.947408 99.27844 
L 404.640663 104.558439 
L 406.174744 107.740926 
L 407.234627 109.83844 
L 407.257137 115.11844 
L 407.31607 120.398439 
L 406.822351 125.678439 
L 406.642391 130.958438 
L 407.154286 136.238442 
L 406.174744 140.815345 
L 406.039765 141.51845 
L 405.731431 146.798449 
L 406.174744 149.760274 
L 406.5142 152.078451 
L 406.174744 153.874009 
L 405.520144 157.358448 
L 405.187412 162.638446 
L 405.672006 167.918447 
L 405.237838 173.198448 
L 404.972133 178.478445 
L 404.384022 183.758427 
L 403.255819 189.038427 
L 404.312524 194.318425 
L 406.174744 197.101472 
L 407.901776 199.598424 
L 411.246551 204.878426 
L 411.467769 205.249129 
L 414.521924 210.158424 
z
" clip-path="url(#pa47ac0737a)" style="fill: #efe51c"/>
   </g>
   <g id="matplotlib.axis_1">
    <g id="xtick_1">
     <g id="line2d_1">
      <defs>
       <path id="me6aca791d9" d="M 0 0 
L 0 2 
" style="stroke: #000000; stroke-width: 1.5"/>
      </defs>
      <g>
       <use xlink:href="#me6aca791d9" x="83.300002" y="347.438437" style="stroke: #000000; stroke-width: 1.5"/>
      </g>
     </g>
     <g id="text_1">
      <!-- $\mathdefault{10^{-2}}$ -->
      <g transform="translate(59.800002 368.135312) scale(0.2 -0.2)">
       <defs>
        <path id="DejaVuSans-31" d="M 794 531 
L 1825 531 
L 1825 4091 
L 703 3866 
L 703 4441 
L 1819 4666 
L 2450 4666 
L 2450 531 
L 3481 531 
L 3481 0 
L 794 0 
L 794 531 
z
" transform="scale(0.015625)"/>
        <path id="DejaVuSans-30" d="M 2034 4250 
Q 1547 4250 1301 3770 
Q 1056 3291 1056 2328 
Q 1056 1369 1301 889 
Q 1547 409 2034 409 
Q 2525 409 2770 889 
Q 3016 1369 3016 2328 
Q 3016 3291 2770 3770 
Q 2525 4250 2034 4250 
z
M 2034 4750 
Q 2819 4750 3233 4129 
Q 3647 3509 3647 2328 
Q 3647 1150 3233 529 
Q 2819 -91 2034 -91 
Q 1250 -91 836 529 
Q 422 1150 422 2328 
Q 422 3509 836 4129 
Q 1250 4750 2034 4750 
z
" transform="scale(0.015625)"/>
        <path id="DejaVuSans-2212" d="M 678 2272 
L 4684 2272 
L 4684 1741 
L 678 1741 
L 678 2272 
z
" transform="scale(0.015625)"/>
        <path id="DejaVuSans-32" d="M 1228 531 
L 3431 531 
L 3431 0 
L 469 0 
L 469 531 
Q 828 903 1448 1529 
Q 2069 2156 2228 2338 
Q 2531 2678 2651 2914 
Q 2772 3150 2772 3378 
Q 2772 3750 2511 3984 
Q 2250 4219 1831 4219 
Q 1534 4219 1204 4116 
Q 875 4013 500 3803 
L 500 4441 
Q 881 4594 1212 4672 
Q 1544 4750 1819 4750 
Q 2544 4750 2975 4387 
Q 3406 4025 3406 3419 
Q 3406 3131 3298 2873 
Q 3191 2616 2906 2266 
Q 2828 2175 2409 1742 
Q 1991 1309 1228 531 
z
" transform="scale(0.015625)"/>
       </defs>
       <use xlink:href="#DejaVuSans-31" transform="translate(0 0.765625)"/>
       <use xlink:href="#DejaVuSans-30" transform="translate(63.623047 0.765625)"/>
       <use xlink:href="#DejaVuSans-2212" transform="translate(128.203125 39.046875) scale(0.7)"/>
       <use xlink:href="#DejaVuSans-32" transform="translate(186.855469 39.046875) scale(0.7)"/>
      </g>
     </g>
    </g>
    <g id="xtick_2">
     <g id="line2d_2">
      <g>
       <use xlink:href="#me6aca791d9" x="250.030401" y="347.438437" style="stroke: #000000; stroke-width: 1.5"/>
      </g>
     </g>
     <g id="text_2">
      <!-- $\mathdefault{10^{-1}}$ -->
      <g transform="translate(226.530401 368.135312) scale(0.2 -0.2)">
       <use xlink:href="#DejaVuSans-31" transform="translate(0 0.684375)"/>
       <use xlink:href="#DejaVuSans-30" transform="translate(63.623047 0.684375)"/>
       <use xlink:href="#DejaVuSans-2212" transform="translate(128.203125 38.965625) scale(0.7)"/>
       <use xlink:href="#DejaVuSans-31" transform="translate(186.855469 38.965625) scale(0.7)"/>
      </g>
     </g>
    </g>
    <g id="xtick_3">
     <g id="line2d_3">
      <g>
       <use xlink:href="#me6aca791d9" x="416.7608" y="347.438437" style="stroke: #000000; stroke-width: 1.5"/>
      </g>
     </g>
     <g id="text_3">
      <!-- $\mathdefault{10^{0}}$ -->
      <g transform="translate(399.1608 368.135312) scale(0.2 -0.2)">
       <use xlink:href="#DejaVuSans-31" transform="translate(0 0.765625)"/>
       <use xlink:href="#DejaVuSans-30" transform="translate(63.623047 0.765625)"/>
       <use xlink:href="#DejaVuSans-30" transform="translate(128.203125 39.046875) scale(0.7)"/>
      </g>
     </g>
    </g>
    <g id="xtick_4">
     <g id="line2d_4">
      <defs>
       <path id="me53123cb90" d="M 0 0 
L 0 2 
" style="stroke: #000000; stroke-width: 0.6"/>
      </defs>
      <g>
       <use xlink:href="#me53123cb90" x="133.490853" y="347.438437" style="stroke: #000000; stroke-width: 0.6"/>
      </g>
     </g>
    </g>
    <g id="xtick_5">
     <g id="line2d_5">
      <g>
       <use xlink:href="#me53123cb90" x="162.850619" y="347.438437" style="stroke: #000000; stroke-width: 0.6"/>
      </g>
     </g>
    </g>
    <g id="xtick_6">
     <g id="line2d_6">
      <g>
       <use xlink:href="#me53123cb90" x="183.681704" y="347.438437" style="stroke: #000000; stroke-width: 0.6"/>
      </g>
     </g>
    </g>
    <g id="xtick_7">
     <g id="line2d_7">
      <g>
       <use xlink:href="#me53123cb90" x="199.839549" y="347.438437" style="stroke: #000000; stroke-width: 0.6"/>
      </g>
     </g>
    </g>
    <g id="xtick_8">
     <g id="line2d_8">
      <g>
       <use xlink:href="#me53123cb90" x="213.04147" y="347.438437" style="stroke: #000000; stroke-width: 0.6"/>
      </g>
     </g>
    </g>
    <g id="xtick_9">
     <g id="line2d_9">
      <g>
       <use xlink:href="#me53123cb90" x="224.203535" y="347.438437" style="stroke: #000000; stroke-width: 0.6"/>
      </g>
     </g>
    </g>
    <g id="xtick_10">
     <g id="line2d_10">
      <g>
       <use xlink:href="#me53123cb90" x="233.872556" y="347.438437" style="stroke: #000000; stroke-width: 0.6"/>
      </g>
     </g>
    </g>
    <g id="xtick_11">
     <g id="line2d_11">
      <g>
       <use xlink:href="#me53123cb90" x="242.401236" y="347.438437" style="stroke: #000000; stroke-width: 0.6"/>
      </g>
     </g>
    </g>
    <g id="xtick_12">
     <g id="line2d_12">
      <g>
       <use xlink:href="#me53123cb90" x="300.221252" y="347.438437" style="stroke: #000000; stroke-width: 0.6"/>
      </g>
     </g>
    </g>
    <g id="xtick_13">
     <g id="line2d_13">
      <g>
       <use xlink:href="#me53123cb90" x="329.581018" y="347.438437" style="stroke: #000000; stroke-width: 0.6"/>
      </g>
     </g>
    </g>
    <g id="xtick_14">
     <g id="line2d_14">
      <g>
       <use xlink:href="#me53123cb90" x="350.412104" y="347.438437" style="stroke: #000000; stroke-width: 0.6"/>
      </g>
     </g>
    </g>
    <g id="xtick_15">
     <g id="line2d_15">
      <g>
       <use xlink:href="#me53123cb90" x="366.569949" y="347.438437" style="stroke: #000000; stroke-width: 0.6"/>
      </g>
     </g>
    </g>
    <g id="xtick_16">
     <g id="line2d_16">
      <g>
       <use xlink:href="#me53123cb90" x="379.771869" y="347.438437" style="stroke: #000000; stroke-width: 0.6"/>
      </g>
     </g>
    </g>
    <g id="xtick_17">
     <g id="line2d_17">
      <g>
       <use xlink:href="#me53123cb90" x="390.933934" y="347.438437" style="stroke: #000000; stroke-width: 0.6"/>
      </g>
     </g>
    </g>
    <g id="xtick_18">
     <g id="line2d_18">
      <g>
       <use xlink:href="#me53123cb90" x="400.602955" y="347.438437" style="stroke: #000000; stroke-width: 0.6"/>
      </g>
     </g>
    </g>
    <g id="xtick_19">
     <g id="line2d_19">
      <g>
       <use xlink:href="#me53123cb90" x="409.131635" y="347.438437" style="stroke: #000000; stroke-width: 0.6"/>
      </g>
     </g>
    </g>
    <g id="text_4">
     <!-- $\lambda$ -->
     <g transform="translate(244.0304 391.491562) scale(0.2 -0.2)">
      <defs>
       <path id="DejaVuSans-Oblique-3bb" d="M 2350 4316 
L 3125 0 
L 2516 0 
L 2038 2588 
L 328 0 
L -281 0 
L 1903 3356 
L 1794 3975 
Q 1725 4369 1391 4369 
L 1091 4369 
L 1184 4863 
L 1550 4856 
Q 2253 4847 2350 4316 
z
" transform="scale(0.015625)"/>
      </defs>
      <use xlink:href="#DejaVuSans-Oblique-3bb" transform="translate(0 0.015625)"/>
     </g>
    </g>
   </g>
   <g id="matplotlib.axis_2">
    <g id="ytick_1">
     <g id="line2d_20">
      <defs>
       <path id="maf17c3dfad" d="M 0 0 
L -2 0 
" style="stroke: #000000; stroke-width: 1.5"/>
      </defs>
      <g>
       <use xlink:href="#maf17c3dfad" x="83.3" y="347.438436" style="stroke: #000000; stroke-width: 1.5"/>
      </g>
     </g>
     <g id="text_5">
      <!-- $\mathdefault{10^{-2}}$ -->
      <g transform="translate(30.8 355.036873) scale(0.2 -0.2)">
       <use xlink:href="#DejaVuSans-31" transform="translate(0 0.765625)"/>
       <use xlink:href="#DejaVuSans-30" transform="translate(63.623047 0.765625)"/>
       <use xlink:href="#DejaVuSans-2212" transform="translate(128.203125 39.046875) scale(0.7)"/>
       <use xlink:href="#DejaVuSans-32" transform="translate(186.855469 39.046875) scale(0.7)"/>
      </g>
     </g>
    </g>
    <g id="ytick_2">
     <g id="line2d_21">
      <g>
       <use xlink:href="#maf17c3dfad" x="83.3" y="181.118437" style="stroke: #000000; stroke-width: 1.5"/>
      </g>
     </g>
     <g id="text_6">
      <!-- $\mathdefault{10^{-1}}$ -->
      <g transform="translate(30.8 188.716874) scale(0.2 -0.2)">
       <use xlink:href="#DejaVuSans-31" transform="translate(0 0.684375)"/>
       <use xlink:href="#DejaVuSans-30" transform="translate(63.623047 0.684375)"/>
       <use xlink:href="#DejaVuSans-2212" transform="translate(128.203125 38.965625) scale(0.7)"/>
       <use xlink:href="#DejaVuSans-31" transform="translate(186.855469 38.965625) scale(0.7)"/>
      </g>
     </g>
    </g>
    <g id="ytick_3">
     <g id="line2d_22">
      <g>
       <use xlink:href="#maf17c3dfad" x="83.3" y="14.798437" style="stroke: #000000; stroke-width: 1.5"/>
      </g>
     </g>
     <g id="text_7">
      <!-- $\mathdefault{10^{0}}$ -->
      <g transform="translate(42.6 22.396875) scale(0.2 -0.2)">
       <use xlink:href="#DejaVuSans-31" transform="translate(0 0.765625)"/>
       <use xlink:href="#DejaVuSans-30" transform="translate(63.623047 0.765625)"/>
       <use xlink:href="#DejaVuSans-30" transform="translate(128.203125 39.046875) scale(0.7)"/>
      </g>
     </g>
    </g>
    <g id="ytick_4">
     <g id="line2d_23">
      <defs>
       <path id="m66e4b8eca9" d="M 0 0 
L -2 0 
" style="stroke: #000000; stroke-width: 0.6"/>
      </defs>
      <g>
       <use xlink:href="#m66e4b8eca9" x="83.3" y="297.371127" style="stroke: #000000; stroke-width: 0.6"/>
      </g>
     </g>
    </g>
    <g id="ytick_5">
     <g id="line2d_24">
      <g>
       <use xlink:href="#m66e4b8eca9" x="83.3" y="268.083629" style="stroke: #000000; stroke-width: 0.6"/>
      </g>
     </g>
    </g>
    <g id="ytick_6">
     <g id="line2d_25">
      <g>
       <use xlink:href="#m66e4b8eca9" x="83.3" y="247.303819" style="stroke: #000000; stroke-width: 0.6"/>
      </g>
     </g>
    </g>
    <g id="ytick_7">
     <g id="line2d_26">
      <g>
       <use xlink:href="#m66e4b8eca9" x="83.3" y="231.185745" style="stroke: #000000; stroke-width: 0.6"/>
      </g>
     </g>
    </g>
    <g id="ytick_8">
     <g id="line2d_27">
      <g>
       <use xlink:href="#m66e4b8eca9" x="83.3" y="218.016321" style="stroke: #000000; stroke-width: 0.6"/>
      </g>
     </g>
    </g>
    <g id="ytick_9">
     <g id="line2d_28">
      <g>
       <use xlink:href="#m66e4b8eca9" x="83.3" y="206.881731" style="stroke: #000000; stroke-width: 0.6"/>
      </g>
     </g>
    </g>
    <g id="ytick_10">
     <g id="line2d_29">
      <g>
       <use xlink:href="#m66e4b8eca9" x="83.3" y="197.23651" style="stroke: #000000; stroke-width: 0.6"/>
      </g>
     </g>
    </g>
    <g id="ytick_11">
     <g id="line2d_30">
      <g>
       <use xlink:href="#m66e4b8eca9" x="83.3" y="188.728822" style="stroke: #000000; stroke-width: 0.6"/>
      </g>
     </g>
    </g>
    <g id="ytick_12">
     <g id="line2d_31">
      <g>
       <use xlink:href="#m66e4b8eca9" x="83.3" y="131.051128" style="stroke: #000000; stroke-width: 0.6"/>
      </g>
     </g>
    </g>
    <g id="ytick_13">
     <g id="line2d_32">
      <g>
       <use xlink:href="#m66e4b8eca9" x="83.3" y="101.76363" style="stroke: #000000; stroke-width: 0.6"/>
      </g>
     </g>
    </g>
    <g id="ytick_14">
     <g id="line2d_33">
      <g>
       <use xlink:href="#m66e4b8eca9" x="83.3" y="80.983819" style="stroke: #000000; stroke-width: 0.6"/>
      </g>
     </g>
    </g>
    <g id="ytick_15">
     <g id="line2d_34">
      <g>
       <use xlink:href="#m66e4b8eca9" x="83.3" y="64.865746" style="stroke: #000000; stroke-width: 0.6"/>
      </g>
     </g>
    </g>
    <g id="ytick_16">
     <g id="line2d_35">
      <g>
       <use xlink:href="#m66e4b8eca9" x="83.3" y="51.696321" style="stroke: #000000; stroke-width: 0.6"/>
      </g>
     </g>
    </g>
    <g id="ytick_17">
     <g id="line2d_36">
      <g>
       <use xlink:href="#m66e4b8eca9" x="83.3" y="40.561731" style="stroke: #000000; stroke-width: 0.6"/>
      </g>
     </g>
    </g>
    <g id="ytick_18">
     <g id="line2d_37">
      <g>
       <use xlink:href="#m66e4b8eca9" x="83.3" y="30.916511" style="stroke: #000000; stroke-width: 0.6"/>
      </g>
     </g>
    </g>
    <g id="ytick_19">
     <g id="line2d_38">
      <g>
       <use xlink:href="#m66e4b8eca9" x="83.3" y="22.408823" style="stroke: #000000; stroke-width: 0.6"/>
      </g>
     </g>
    </g>
    <g id="text_8">
     <!-- $\beta$ -->
     <g transform="translate(22.6 187.518437) rotate(-90) scale(0.2 -0.2)">
      <defs>
       <path id="DejaVuSans-Oblique-3b2" d="M 872 216 
L 572 -1331 
L -6 -1331 
L 928 3478 
Q 1206 4903 2538 4903 
Q 3888 4903 3659 3700 
Q 3503 2844 2894 2531 
Q 3713 2250 3553 1416 
Q 3272 -69 1759 -66 
Q 1097 -63 872 216 
z
M 1019 966 
Q 1259 422 1875 425 
Q 2775 425 2966 1406 
Q 3138 2288 1675 2219 
L 1778 2750 
Q 2909 2731 3106 3750 
Q 3241 4438 2509 4434 
Q 1691 4434 1503 3459 
L 1019 966 
z
" transform="scale(0.015625)"/>
      </defs>
      <use xlink:href="#DejaVuSans-Oblique-3b2" transform="translate(0 0.390625)"/>
     </g>
    </g>
   </g>
   <g id="patch_3">
    <path d="M 83.3 347.438437 
L 83.3 14.798437 
" style="fill: none; stroke: #000000; stroke-width: 0.8; stroke-linejoin: miter; stroke-linecap: square"/>
   </g>
   <g id="patch_4">
    <path d="M 416.7608 347.438437 
L 416.7608 14.798437 
" style="fill: none; stroke: #000000; stroke-width: 0.8; stroke-linejoin: miter; stroke-linecap: square"/>
   </g>
   <g id="patch_5">
    <path d="M 83.3 347.438437 
L 416.7608 347.438437 
" style="fill: none; stroke: #000000; stroke-width: 0.8; stroke-linejoin: miter; stroke-linecap: square"/>
   </g>
   <g id="patch_6">
    <path d="M 83.3 14.798437 
L 416.7608 14.798437 
" style="fill: none; stroke: #000000; stroke-width: 0.8; stroke-linejoin: miter; stroke-linecap: square"/>
   </g>
   <g id="text_9">
    <!-- $p^{A}$ -->
    <g transform="translate(366.569949 72.476132) scale(0.25 -0.25)">
     <defs>
      <path id="DejaVuSans-Oblique-70" d="M 3175 2156 
Q 3175 2616 2975 2859 
Q 2775 3103 2400 3103 
Q 2144 3103 1911 2972 
Q 1678 2841 1497 2591 
Q 1319 2344 1212 1994 
Q 1106 1644 1106 1300 
Q 1106 863 1306 627 
Q 1506 391 1875 391 
Q 2147 391 2380 519 
Q 2613 647 2778 891 
Q 2956 1147 3065 1494 
Q 3175 1841 3175 2156 
z
M 1394 2969 
Q 1625 3272 1939 3428 
Q 2253 3584 2638 3584 
Q 3175 3584 3472 3232 
Q 3769 2881 3769 2247 
Q 3769 1728 3584 1258 
Q 3400 788 3053 416 
Q 2822 169 2531 39 
Q 2241 -91 1919 -91 
Q 1547 -91 1294 64 
Q 1041 219 916 525 
L 556 -1331 
L -19 -1331 
L 922 3500 
L 1497 3500 
L 1394 2969 
z
" transform="scale(0.015625)"/>
      <path id="DejaVuSans-Oblique-41" d="M 2356 4666 
L 3072 4666 
L 3938 0 
L 3278 0 
L 3084 1197 
L 984 1197 
L 325 0 
L -341 0 
L 2356 4666 
z
M 2584 4044 
L 1275 1722 
L 2988 1722 
L 2584 4044 
z
" transform="scale(0.015625)"/>
     </defs>
     <use xlink:href="#DejaVuSans-Oblique-70" transform="translate(0 0.684375)"/>
     <use xlink:href="#DejaVuSans-Oblique-41" transform="translate(68.126458 38.965625) scale(0.7)"/>
    </g>
   </g>
   <g id="text_10">
    <!-- MMCA -->
    <g transform="translate(329.581018 40.561731) scale(0.25 -0.25)">
     <defs>
      <path id="DejaVuSans-4d" d="M 628 4666 
L 1569 4666 
L 2759 1491 
L 3956 4666 
L 4897 4666 
L 4897 0 
L 4281 0 
L 4281 4097 
L 3078 897 
L 2444 897 
L 1241 4097 
L 1241 0 
L 628 0 
L 628 4666 
z
" transform="scale(0.015625)"/>
      <path id="DejaVuSans-43" d="M 4122 4306 
L 4122 3641 
Q 3803 3938 3442 4084 
Q 3081 4231 2675 4231 
Q 1875 4231 1450 3742 
Q 1025 3253 1025 2328 
Q 1025 1406 1450 917 
Q 1875 428 2675 428 
Q 3081 428 3442 575 
Q 3803 722 4122 1019 
L 4122 359 
Q 3791 134 3420 21 
Q 3050 -91 2638 -91 
Q 1578 -91 968 557 
Q 359 1206 359 2328 
Q 359 3453 968 4101 
Q 1578 4750 2638 4750 
Q 3056 4750 3426 4639 
Q 3797 4528 4122 4306 
z
" transform="scale(0.015625)"/>
      <path id="DejaVuSans-41" d="M 2188 4044 
L 1331 1722 
L 3047 1722 
L 2188 4044 
z
M 1831 4666 
L 2547 4666 
L 4325 0 
L 3669 0 
L 3244 1197 
L 1141 1197 
L 716 0 
L 50 0 
L 1831 4666 
z
" transform="scale(0.015625)"/>
     </defs>
     <use xlink:href="#DejaVuSans-4d"/>
     <use xlink:href="#DejaVuSans-4d" transform="translate(86.279297 0)"/>
     <use xlink:href="#DejaVuSans-43" transform="translate(172.558594 0)"/>
     <use xlink:href="#DejaVuSans-41" transform="translate(242.382812 0)"/>
    </g>
   </g>
   <g id="patch_7">
    <path d="M 147.690544 278.262729 
Q 207.304374 218.795636 266.918203 159.328544 
L 262.327676 154.726689 
Q 272.93875 151.204105 283.549824 147.681521 
Q 280.001099 158.283881 276.452374 168.886241 
L 271.861847 164.284387 
Q 212.248018 223.751479 152.634189 283.218572 
L 147.690544 278.262729 
z
" style="fill: #add8e6; opacity: 0.8; stroke: #000000; stroke-linecap: round"/>
   </g>
   <g id="text_11">
    <!-- More aware -->
    <g transform="translate(233.872556 247.303819) scale(0.2 -0.2)">
     <defs>
      <path id="DejaVuSans-6f" d="M 1959 3097 
Q 1497 3097 1228 2736 
Q 959 2375 959 1747 
Q 959 1119 1226 758 
Q 1494 397 1959 397 
Q 2419 397 2687 759 
Q 2956 1122 2956 1747 
Q 2956 2369 2687 2733 
Q 2419 3097 1959 3097 
z
M 1959 3584 
Q 2709 3584 3137 3096 
Q 3566 2609 3566 1747 
Q 3566 888 3137 398 
Q 2709 -91 1959 -91 
Q 1206 -91 779 398 
Q 353 888 353 1747 
Q 353 2609 779 3096 
Q 1206 3584 1959 3584 
z
" transform="scale(0.015625)"/>
      <path id="DejaVuSans-72" d="M 2631 2963 
Q 2534 3019 2420 3045 
Q 2306 3072 2169 3072 
Q 1681 3072 1420 2755 
Q 1159 2438 1159 1844 
L 1159 0 
L 581 0 
L 581 3500 
L 1159 3500 
L 1159 2956 
Q 1341 3275 1631 3429 
Q 1922 3584 2338 3584 
Q 2397 3584 2469 3576 
Q 2541 3569 2628 3553 
L 2631 2963 
z
" transform="scale(0.015625)"/>
      <path id="DejaVuSans-65" d="M 3597 1894 
L 3597 1613 
L 953 1613 
Q 991 1019 1311 708 
Q 1631 397 2203 397 
Q 2534 397 2845 478 
Q 3156 559 3463 722 
L 3463 178 
Q 3153 47 2828 -22 
Q 2503 -91 2169 -91 
Q 1331 -91 842 396 
Q 353 884 353 1716 
Q 353 2575 817 3079 
Q 1281 3584 2069 3584 
Q 2775 3584 3186 3129 
Q 3597 2675 3597 1894 
z
M 3022 2063 
Q 3016 2534 2758 2815 
Q 2500 3097 2075 3097 
Q 1594 3097 1305 2825 
Q 1016 2553 972 2059 
L 3022 2063 
z
" transform="scale(0.015625)"/>
      <path id="DejaVuSans-20" transform="scale(0.015625)"/>
      <path id="DejaVuSans-61" d="M 2194 1759 
Q 1497 1759 1228 1600 
Q 959 1441 959 1056 
Q 959 750 1161 570 
Q 1363 391 1709 391 
Q 2188 391 2477 730 
Q 2766 1069 2766 1631 
L 2766 1759 
L 2194 1759 
z
M 3341 1997 
L 3341 0 
L 2766 0 
L 2766 531 
Q 2569 213 2275 61 
Q 1981 -91 1556 -91 
Q 1019 -91 701 211 
Q 384 513 384 1019 
Q 384 1609 779 1909 
Q 1175 2209 1959 2209 
L 2766 2209 
L 2766 2266 
Q 2766 2663 2505 2880 
Q 2244 3097 1772 3097 
Q 1472 3097 1187 3025 
Q 903 2953 641 2809 
L 641 3341 
Q 956 3463 1253 3523 
Q 1550 3584 1831 3584 
Q 2591 3584 2966 3190 
Q 3341 2797 3341 1997 
z
" transform="scale(0.015625)"/>
      <path id="DejaVuSans-77" d="M 269 3500 
L 844 3500 
L 1563 769 
L 2278 3500 
L 2956 3500 
L 3675 769 
L 4391 3500 
L 4966 3500 
L 4050 0 
L 3372 0 
L 2619 2869 
L 1863 0 
L 1184 0 
L 269 3500 
z
" transform="scale(0.015625)"/>
     </defs>
     <use xlink:href="#DejaVuSans-4d"/>
     <use xlink:href="#DejaVuSans-6f" transform="translate(86.279297 0)"/>
     <use xlink:href="#DejaVuSans-72" transform="translate(147.460938 0)"/>
     <use xlink:href="#DejaVuSans-65" transform="translate(186.324219 0)"/>
     <use xlink:href="#DejaVuSans-20" transform="translate(247.847656 0)"/>
     <use xlink:href="#DejaVuSans-61" transform="translate(279.634766 0)"/>
     <use xlink:href="#DejaVuSans-77" transform="translate(340.914062 0)"/>
     <use xlink:href="#DejaVuSans-61" transform="translate(422.701172 0)"/>
     <use xlink:href="#DejaVuSans-72" transform="translate(483.980469 0)"/>
     <use xlink:href="#DejaVuSans-65" transform="translate(522.84375 0)"/>
    </g>
   </g>
  </g>
  <g id="axes_2">
   <g id="patch_8">
    <path d="M 424.796 330.806438 
L 439.7648 330.806438 
L 439.7648 31.430438 
L 424.796 31.430438 
z
" style="fill: #ffffff"/>
   </g>
   <g id="QuadMesh_1">
    <path d="M 424.796 330.806438 
L 439.7648 330.806438 
L 439.7648 315.049806 
L 424.796 315.049806 
L 424.796 330.806438 
" clip-path="url(#p234b828fcd)" style="fill: #460a5d"/>
    <path d="M 424.796 315.049806 
L 439.7648 315.049806 
L 439.7648 299.293174 
L 424.796 299.293174 
L 424.796 315.049806 
" clip-path="url(#p234b828fcd)" style="fill: #481d6f"/>
    <path d="M 424.796 299.293174 
L 439.7648 299.293174 
L 439.7648 283.536543 
L 424.796 283.536543 
L 424.796 299.293174 
" clip-path="url(#p234b828fcd)" style="fill: #472e7c"/>
    <path d="M 424.796 283.536543 
L 439.7648 283.536543 
L 439.7648 267.779911 
L 424.796 267.779911 
L 424.796 283.536543 
" clip-path="url(#p234b828fcd)" style="fill: #423f85"/>
    <path d="M 424.796 267.779911 
L 439.7648 267.779911 
L 439.7648 252.02328 
L 424.796 252.02328 
L 424.796 267.779911 
" clip-path="url(#p234b828fcd)" style="fill: #3d4e8a"/>
    <path d="M 424.796 252.02328 
L 439.7648 252.02328 
L 439.7648 236.266648 
L 424.796 236.266648 
L 424.796 252.02328 
" clip-path="url(#p234b828fcd)" style="fill: #365d8d"/>
    <path d="M 424.796 236.266648 
L 439.7648 236.266648 
L 439.7648 220.510016 
L 424.796 220.510016 
L 424.796 236.266648 
" clip-path="url(#p234b828fcd)" style="fill: #306a8e"/>
    <path d="M 424.796 220.510016 
L 439.7648 220.510016 
L 439.7648 204.753385 
L 424.796 204.753385 
L 424.796 220.510016 
" clip-path="url(#p234b828fcd)" style="fill: #2a778e"/>
    <path d="M 424.796 204.753385 
L 439.7648 204.753385 
L 439.7648 188.996753 
L 424.796 188.996753 
L 424.796 204.753385 
" clip-path="url(#p234b828fcd)" style="fill: #25838e"/>
    <path d="M 424.796 188.996753 
L 439.7648 188.996753 
L 439.7648 173.240122 
L 424.796 173.240122 
L 424.796 188.996753 
" clip-path="url(#p234b828fcd)" style="fill: #21918c"/>
    <path d="M 424.796 173.240122 
L 439.7648 173.240122 
L 439.7648 157.48349 
L 424.796 157.48349 
L 424.796 173.240122 
" clip-path="url(#p234b828fcd)" style="fill: #1e9d89"/>
    <path d="M 424.796 157.48349 
L 439.7648 157.48349 
L 439.7648 141.726859 
L 424.796 141.726859 
L 424.796 157.48349 
" clip-path="url(#p234b828fcd)" style="fill: #23a983"/>
    <path d="M 424.796 141.726859 
L 439.7648 141.726859 
L 439.7648 125.970227 
L 424.796 125.970227 
L 424.796 141.726859 
" clip-path="url(#p234b828fcd)" style="fill: #32b67a"/>
    <path d="M 424.796 125.970227 
L 439.7648 125.970227 
L 439.7648 110.213595 
L 424.796 110.213595 
L 424.796 125.970227 
" clip-path="url(#p234b828fcd)" style="fill: #48c16e"/>
    <path d="M 424.796 110.213595 
L 439.7648 110.213595 
L 439.7648 94.456964 
L 424.796 94.456964 
L 424.796 110.213595 
" clip-path="url(#p234b828fcd)" style="fill: #65cb5e"/>
    <path d="M 424.796 94.456964 
L 439.7648 94.456964 
L 439.7648 78.700332 
L 424.796 78.700332 
L 424.796 94.456964 
" clip-path="url(#p234b828fcd)" style="fill: #84d44b"/>
    <path d="M 424.796 78.700332 
L 439.7648 78.700332 
L 439.7648 62.943701 
L 424.796 62.943701 
L 424.796 78.700332 
" clip-path="url(#p234b828fcd)" style="fill: #a8db34"/>
    <path d="M 424.796 62.943701 
L 439.7648 62.943701 
L 439.7648 47.187069 
L 424.796 47.187069 
L 424.796 62.943701 
" clip-path="url(#p234b828fcd)" style="fill: #cae11f"/>
    <path d="M 424.796 47.187069 
L 439.7648 47.187069 
L 439.7648 31.430438 
L 424.796 31.430438 
L 424.796 47.187069 
" clip-path="url(#p234b828fcd)" style="fill: #efe51c"/>
   </g>
   <g id="matplotlib.axis_3"/>
   <g id="matplotlib.axis_4">
    <g id="ytick_20">
     <g id="line2d_39">
      <defs>
       <path id="m88441ed060" d="M 0 0 
L 6 0 
" style="stroke: #000000; stroke-width: 1.5"/>
      </defs>
      <g>
       <use xlink:href="#m88441ed060" x="439.7648" y="330.806438" style="stroke: #000000; stroke-width: 1.5"/>
      </g>
     </g>
     <g id="text_12">
      <!-- 0.00 -->
      <g transform="translate(449.2648 335.745422) scale(0.13 -0.13)">
       <defs>
        <path id="DejaVuSans-2e" d="M 684 794 
L 1344 794 
L 1344 0 
L 684 0 
L 684 794 
z
" transform="scale(0.015625)"/>
       </defs>
       <use xlink:href="#DejaVuSans-30"/>
       <use xlink:href="#DejaVuSans-2e" transform="translate(63.623047 0)"/>
       <use xlink:href="#DejaVuSans-30" transform="translate(95.410156 0)"/>
       <use xlink:href="#DejaVuSans-30" transform="translate(159.033203 0)"/>
      </g>
     </g>
    </g>
    <g id="ytick_21">
     <g id="line2d_40">
      <g>
       <use xlink:href="#m88441ed060" x="439.7648" y="255.962438" style="stroke: #000000; stroke-width: 1.5"/>
      </g>
     </g>
     <g id="text_13">
      <!-- 0.25 -->
      <g transform="translate(449.2648 260.901422) scale(0.13 -0.13)">
       <defs>
        <path id="DejaVuSans-35" d="M 691 4666 
L 3169 4666 
L 3169 4134 
L 1269 4134 
L 1269 2991 
Q 1406 3038 1543 3061 
Q 1681 3084 1819 3084 
Q 2600 3084 3056 2656 
Q 3513 2228 3513 1497 
Q 3513 744 3044 326 
Q 2575 -91 1722 -91 
Q 1428 -91 1123 -41 
Q 819 9 494 109 
L 494 744 
Q 775 591 1075 516 
Q 1375 441 1709 441 
Q 2250 441 2565 725 
Q 2881 1009 2881 1497 
Q 2881 1984 2565 2268 
Q 2250 2553 1709 2553 
Q 1456 2553 1204 2497 
Q 953 2441 691 2322 
L 691 4666 
z
" transform="scale(0.015625)"/>
       </defs>
       <use xlink:href="#DejaVuSans-30"/>
       <use xlink:href="#DejaVuSans-2e" transform="translate(63.623047 0)"/>
       <use xlink:href="#DejaVuSans-32" transform="translate(95.410156 0)"/>
       <use xlink:href="#DejaVuSans-35" transform="translate(159.033203 0)"/>
      </g>
     </g>
    </g>
    <g id="ytick_22">
     <g id="line2d_41">
      <g>
       <use xlink:href="#m88441ed060" x="439.7648" y="181.118438" style="stroke: #000000; stroke-width: 1.5"/>
      </g>
     </g>
     <g id="text_14">
      <!-- 0.50 -->
      <g transform="translate(449.2648 186.057422) scale(0.13 -0.13)">
       <use xlink:href="#DejaVuSans-30"/>
       <use xlink:href="#DejaVuSans-2e" transform="translate(63.623047 0)"/>
       <use xlink:href="#DejaVuSans-35" transform="translate(95.410156 0)"/>
       <use xlink:href="#DejaVuSans-30" transform="translate(159.033203 0)"/>
      </g>
     </g>
    </g>
    <g id="ytick_23">
     <g id="line2d_42">
      <g>
       <use xlink:href="#m88441ed060" x="439.7648" y="106.274438" style="stroke: #000000; stroke-width: 1.5"/>
      </g>
     </g>
     <g id="text_15">
      <!-- 0.75 -->
      <g transform="translate(449.2648 111.213422) scale(0.13 -0.13)">
       <defs>
        <path id="DejaVuSans-37" d="M 525 4666 
L 3525 4666 
L 3525 4397 
L 1831 0 
L 1172 0 
L 2766 4134 
L 525 4134 
L 525 4666 
z
" transform="scale(0.015625)"/>
       </defs>
       <use xlink:href="#DejaVuSans-30"/>
       <use xlink:href="#DejaVuSans-2e" transform="translate(63.623047 0)"/>
       <use xlink:href="#DejaVuSans-37" transform="translate(95.410156 0)"/>
       <use xlink:href="#DejaVuSans-35" transform="translate(159.033203 0)"/>
      </g>
     </g>
    </g>
    <g id="ytick_24">
     <g id="line2d_43">
      <g>
       <use xlink:href="#m88441ed060" x="439.7648" y="31.430438" style="stroke: #000000; stroke-width: 1.5"/>
      </g>
     </g>
     <g id="text_16">
      <!-- 1.00 -->
      <g transform="translate(449.2648 36.369422) scale(0.13 -0.13)">
       <use xlink:href="#DejaVuSans-31"/>
       <use xlink:href="#DejaVuSans-2e" transform="translate(63.623047 0)"/>
       <use xlink:href="#DejaVuSans-30" transform="translate(95.410156 0)"/>
       <use xlink:href="#DejaVuSans-30" transform="translate(159.033203 0)"/>
      </g>
     </g>
    </g>
    <g id="text_17">
     <!-- Proportion -->
     <g transform="translate(493.607769 219.812578) rotate(-90) scale(0.15 -0.15)">
      <defs>
       <path id="DejaVuSans-50" d="M 1259 4147 
L 1259 2394 
L 2053 2394 
Q 2494 2394 2734 2622 
Q 2975 2850 2975 3272 
Q 2975 3691 2734 3919 
Q 2494 4147 2053 4147 
L 1259 4147 
z
M 628 4666 
L 2053 4666 
Q 2838 4666 3239 4311 
Q 3641 3956 3641 3272 
Q 3641 2581 3239 2228 
Q 2838 1875 2053 1875 
L 1259 1875 
L 1259 0 
L 628 0 
L 628 4666 
z
" transform="scale(0.015625)"/>
       <path id="DejaVuSans-70" d="M 1159 525 
L 1159 -1331 
L 581 -1331 
L 581 3500 
L 1159 3500 
L 1159 2969 
Q 1341 3281 1617 3432 
Q 1894 3584 2278 3584 
Q 2916 3584 3314 3078 
Q 3713 2572 3713 1747 
Q 3713 922 3314 415 
Q 2916 -91 2278 -91 
Q 1894 -91 1617 61 
Q 1341 213 1159 525 
z
M 3116 1747 
Q 3116 2381 2855 2742 
Q 2594 3103 2138 3103 
Q 1681 3103 1420 2742 
Q 1159 2381 1159 1747 
Q 1159 1113 1420 752 
Q 1681 391 2138 391 
Q 2594 391 2855 752 
Q 3116 1113 3116 1747 
z
" transform="scale(0.015625)"/>
       <path id="DejaVuSans-74" d="M 1172 4494 
L 1172 3500 
L 2356 3500 
L 2356 3053 
L 1172 3053 
L 1172 1153 
Q 1172 725 1289 603 
Q 1406 481 1766 481 
L 2356 481 
L 2356 0 
L 1766 0 
Q 1100 0 847 248 
Q 594 497 594 1153 
L 594 3053 
L 172 3053 
L 172 3500 
L 594 3500 
L 594 4494 
L 1172 4494 
z
" transform="scale(0.015625)"/>
       <path id="DejaVuSans-69" d="M 603 3500 
L 1178 3500 
L 1178 0 
L 603 0 
L 603 3500 
z
M 603 4863 
L 1178 4863 
L 1178 4134 
L 603 4134 
L 603 4863 
z
" transform="scale(0.015625)"/>
       <path id="DejaVuSans-6e" d="M 3513 2113 
L 3513 0 
L 2938 0 
L 2938 2094 
Q 2938 2591 2744 2837 
Q 2550 3084 2163 3084 
Q 1697 3084 1428 2787 
Q 1159 2491 1159 1978 
L 1159 0 
L 581 0 
L 581 3500 
L 1159 3500 
L 1159 2956 
Q 1366 3272 1645 3428 
Q 1925 3584 2291 3584 
Q 2894 3584 3203 3211 
Q 3513 2838 3513 2113 
z
" transform="scale(0.015625)"/>
      </defs>
      <use xlink:href="#DejaVuSans-50"/>
      <use xlink:href="#DejaVuSans-72" transform="translate(58.552734 0)"/>
      <use xlink:href="#DejaVuSans-6f" transform="translate(97.416016 0)"/>
      <use xlink:href="#DejaVuSans-70" transform="translate(158.597656 0)"/>
      <use xlink:href="#DejaVuSans-6f" transform="translate(222.074219 0)"/>
      <use xlink:href="#DejaVuSans-72" transform="translate(283.255859 0)"/>
      <use xlink:href="#DejaVuSans-74" transform="translate(324.369141 0)"/>
      <use xlink:href="#DejaVuSans-69" transform="translate(363.578125 0)"/>
      <use xlink:href="#DejaVuSans-6f" transform="translate(391.361328 0)"/>
      <use xlink:href="#DejaVuSans-6e" transform="translate(452.542969 0)"/>
     </g>
    </g>
   </g>
   <g id="LineCollection_1"/>
   <g id="patch_9">
    <path d="M 424.796 330.806438 
L 432.2804 330.806438 
L 439.7648 330.806438 
L 439.7648 31.430438 
L 432.2804 31.430438 
L 424.796 31.430438 
L 424.796 330.806438 
z
" style="fill: none; stroke: #000000; stroke-width: 0.8; stroke-linejoin: miter; stroke-linecap: square"/>
   </g>
  </g>
 </g>
 <defs>
  <clipPath id="pa47ac0737a">
   <rect x="83.3" y="14.798437" width="333.4608" height="332.64"/>
  </clipPath>
  <clipPath id="p234b828fcd">
   <rect x="424.796" y="31.430438" width="14.9688" height="299.376"/>
  </clipPath>
 </defs>
</svg>
