<?xml version="1.0" encoding="utf-8" standalone="no"?>
<!DOCTYPE svg PUBLIC "-//W3C//DTD SVG 1.1//EN"
  "http://www.w3.org/Graphics/SVG/1.1/DTD/svg11.dtd">
<svg xmlns:xlink="http://www.w3.org/1999/xlink" width="442.9pt" height="402.850937pt" viewBox="0 0 442.9 402.850937" xmlns="http://www.w3.org/2000/svg" version="1.1">
 <metadata>
  <rdf:RDF xmlns:dc="http://purl.org/dc/elements/1.1/" xmlns:cc="http://creativecommons.org/ns#" xmlns:rdf="http://www.w3.org/1999/02/22-rdf-syntax-ns#">
   <cc:Work>
    <dc:type rdf:resource="http://purl.org/dc/dcmitype/StillImage"/>
    <dc:date>2025-05-12T14:37:52.619336</dc:date>
    <dc:format>image/svg+xml</dc:format>
    <dc:creator>
     <cc:Agent>
      <dc:title>Matplotlib v3.10.1, https://matplotlib.org/</dc:title>
     </cc:Agent>
    </dc:creator>
   </cc:Work>
  </rdf:RDF>
 </metadata>
 <defs>
  <style type="text/css">*{stroke-linejoin: round; stroke-linecap: butt}</style>
 </defs>
 <g id="figure_1">
  <g id="patch_1">
   <path d="M 0 402.850937 
L 442.9 402.850937 
L 442.9 0 
L 0 0 
z
" style="fill: #ffffff"/>
  </g>
  <g id="axes_1">
   <g id="patch_2">
    <path d="M 83.3 347.438437 
L 418.1 347.438437 
L 418.1 14.798437 
L 83.3 14.798437 
z
" style="fill: #ffffff"/>
   </g>
   <g id="QuadContourSet_1">
    <path clip-path="url(#p338f70f2b0)" style="fill: #460a5d"/>
    <path clip-path="url(#p338f70f2b0)" style="fill: #481d6f"/>
    <path clip-path="url(#p338f70f2b0)" style="fill: #472e7c"/>
    <path d="M 88.614287 347.438437 
L 93.92857 347.438437 
L 99.242859 347.438437 
L 103.010158 347.438437 
L 99.26759 342.158436 
L 99.242859 342.124935 
L 96.702577 336.878439 
L 93.92857 333.477116 
L 91.940197 331.598435 
L 88.614287 328.699636 
L 84.9009 326.318437 
L 83.3 325.321097 
L 83.3 326.318437 
L 83.3 331.598435 
L 83.3 336.878439 
L 83.3 342.158436 
L 83.3 347.438437 
z
" clip-path="url(#p338f70f2b0)" style="fill: #423f85"/>
    <path d="M 104.557144 347.438437 
L 109.871427 347.438437 
L 115.185714 347.438437 
L 120.499997 347.438437 
L 125.814283 347.438437 
L 131.128569 347.438437 
L 136.442855 347.438437 
L 141.757141 347.438437 
L 143.45428 347.438437 
L 142.512962 342.158436 
L 141.757141 338.746315 
L 141.141485 336.878439 
L 137.931242 331.598435 
L 136.442855 327.741306 
L 135.423975 326.318437 
L 131.449961 321.038439 
L 131.128569 320.543396 
L 127.411829 315.758438 
L 125.814283 314.540087 
L 120.499997 311.089555 
L 119.698796 310.478441 
L 115.185714 307.021651 
L 111.097604 305.19844 
L 109.871427 304.742276 
L 104.557144 302.202046 
L 99.242859 300.519047 
L 97.305858 299.91844 
L 93.92857 298.972741 
L 88.614287 297.913587 
L 83.3 296.280425 
L 83.3 299.91844 
L 83.3 305.19844 
L 83.3 310.478441 
L 83.3 315.758438 
L 83.3 321.038439 
L 83.3 325.321097 
L 84.9009 326.318437 
L 88.614287 328.699636 
L 91.940197 331.598435 
L 93.92857 333.477116 
L 96.702577 336.878439 
L 99.242859 342.124935 
L 99.26759 342.158436 
L 103.010158 347.438437 
z
" clip-path="url(#p338f70f2b0)" style="fill: #3d4e8a"/>
    <path d="M 147.071429 347.438437 
L 152.38573 347.438437 
L 157.699996 347.438437 
L 163.014302 347.438437 
L 167.26173 347.438437 
L 166.514219 342.158436 
L 165.507145 336.878439 
L 163.751725 331.598435 
L 163.014302 327.7665 
L 162.778511 326.318437 
L 160.935956 321.038439 
L 157.825906 315.758438 
L 157.699996 315.449144 
L 155.420826 310.478441 
L 152.38573 307.509477 
L 149.95796 305.19844 
L 147.071429 302.748296 
L 143.636681 299.91844 
L 141.757141 298.472067 
L 136.628827 294.638439 
L 136.442855 294.537254 
L 131.128569 292.42735 
L 125.814283 289.995368 
L 123.49866 289.358439 
L 120.499997 288.614815 
L 115.185714 286.76502 
L 109.871427 285.28611 
L 107.254213 284.078437 
L 104.557144 283.009998 
L 99.242859 282.610558 
L 93.92857 281.662142 
L 88.614287 280.843232 
L 83.3 280.167323 
L 83.3 284.078437 
L 83.3 289.358439 
L 83.3 294.638439 
L 83.3 296.280425 
L 88.614287 297.913587 
L 93.92857 298.972741 
L 97.305858 299.91844 
L 99.242859 300.519047 
L 104.557144 302.202046 
L 109.871427 304.742276 
L 111.097604 305.19844 
L 115.185714 307.021651 
L 119.698796 310.478441 
L 120.499997 311.089555 
L 125.814283 314.540087 
L 127.411829 315.758438 
L 131.128569 320.543396 
L 131.449961 321.038439 
L 135.423975 326.318437 
L 136.442855 327.741306 
L 137.931242 331.598435 
L 141.141485 336.878439 
L 141.757141 338.746315 
L 142.512962 342.158436 
L 143.45428 347.438437 
z
" clip-path="url(#p338f70f2b0)" style="fill: #365d8d"/>
    <path d="M 168.328567 347.438437 
L 173.642872 347.438437 
L 178.957135 347.438437 
L 184.271443 347.438437 
L 185.754481 347.438437 
L 185.303656 342.158436 
L 184.63972 336.878439 
L 184.271443 335.007642 
L 183.686081 331.598435 
L 182.738397 326.318437 
L 180.974632 321.038439 
L 179.791262 315.758438 
L 178.957135 314.056053 
L 177.217824 310.478441 
L 174.722221 305.19844 
L 173.642872 303.746487 
L 170.693896 299.91844 
L 168.328567 296.667156 
L 166.248944 294.638439 
L 163.014302 291.915523 
L 159.603898 289.358439 
L 157.699996 288.252608 
L 152.48181 284.078437 
L 152.38573 284.017442 
L 147.071429 282.318235 
L 141.757141 279.794101 
L 139.292575 278.798422 
L 136.442855 277.774301 
L 131.128569 276.549808 
L 125.814283 275.128147 
L 120.499997 273.795584 
L 119.586294 273.518441 
L 115.185714 272.365316 
L 109.871427 271.36689 
L 104.557144 269.95601 
L 99.242859 269.310678 
L 93.92857 268.88262 
L 88.614287 268.348343 
L 88.291866 268.238422 
L 83.3 266.630418 
L 83.3 268.238422 
L 83.3 273.518441 
L 83.3 278.798422 
L 83.3 280.167323 
L 88.614287 280.843232 
L 93.92857 281.662142 
L 99.242859 282.610558 
L 104.557144 283.009998 
L 107.254213 284.078437 
L 109.871427 285.28611 
L 115.185714 286.76502 
L 120.499997 288.614815 
L 123.49866 289.358439 
L 125.814283 289.995368 
L 131.128569 292.42735 
L 136.442855 294.537254 
L 136.628827 294.638439 
L 141.757141 298.472067 
L 143.636681 299.91844 
L 147.071429 302.748296 
L 149.95796 305.19844 
L 152.38573 307.509477 
L 155.420826 310.478441 
L 157.699996 315.449144 
L 157.825906 315.758438 
L 160.935956 321.038439 
L 162.778511 326.318437 
L 163.014302 327.7665 
L 163.751725 331.598435 
L 165.507145 336.878439 
L 166.514219 342.158436 
L 167.26173 347.438437 
z
" clip-path="url(#p338f70f2b0)" style="fill: #306a8e"/>
    <path d="M 189.585707 347.438437 
L 194.900012 347.438437 
L 200.214279 347.438437 
L 201.956805 347.438437 
L 201.083034 342.158436 
L 200.809752 336.878439 
L 200.47028 331.598435 
L 200.214279 330.451804 
L 199.27448 326.318437 
L 198.550421 321.038439 
L 197.434968 315.758438 
L 195.75395 310.478441 
L 194.900012 308.179069 
L 193.635821 305.19844 
L 191.266703 299.91844 
L 189.585707 296.922297 
L 188.391626 294.638439 
L 184.271443 290.127145 
L 183.600809 289.358439 
L 178.957135 284.591956 
L 178.290029 284.078437 
L 173.642872 280.19057 
L 171.553263 278.798422 
L 168.328567 277.076223 
L 163.014302 273.964312 
L 161.859374 273.518441 
L 157.699996 272.082815 
L 152.38573 269.321003 
L 148.680165 268.238422 
L 147.071429 267.829038 
L 141.757141 266.074544 
L 136.442855 264.788694 
L 131.128569 263.012874 
L 130.878737 262.958442 
L 125.814283 262.015261 
L 120.499997 261.128645 
L 115.185714 260.248233 
L 109.871427 259.098976 
L 104.557144 258.216033 
L 100.47501 257.678423 
L 99.242859 257.512948 
L 93.92857 257.001379 
L 88.614287 256.18657 
L 83.3 255.690685 
L 83.3 257.678423 
L 83.3 262.958442 
L 83.3 266.630418 
L 88.291866 268.238422 
L 88.614287 268.348343 
L 93.92857 268.88262 
L 99.242859 269.310678 
L 104.557144 269.95601 
L 109.871427 271.36689 
L 115.185714 272.365316 
L 119.586294 273.518441 
L 120.499997 273.795584 
L 125.814283 275.128147 
L 131.128569 276.549808 
L 136.442855 277.774301 
L 139.292575 278.798422 
L 141.757141 279.794101 
L 147.071429 282.318235 
L 152.38573 284.017442 
L 152.48181 284.078437 
L 157.699996 288.252608 
L 159.603898 289.358439 
L 163.014302 291.915523 
L 166.248944 294.638439 
L 168.328567 296.667156 
L 170.693896 299.91844 
L 173.642872 303.746487 
L 174.722221 305.19844 
L 177.217824 310.478441 
L 178.957135 314.056053 
L 179.791262 315.758438 
L 180.974632 321.038439 
L 182.738397 326.318437 
L 183.686081 331.598435 
L 184.271443 335.007642 
L 184.63972 336.878439 
L 185.303656 342.158436 
L 185.754481 347.438437 
z
" clip-path="url(#p338f70f2b0)" style="fill: #2a778e"/>
    <path d="M 205.528586 347.438437 
L 210.842872 347.438437 
L 216.063772 347.438437 
L 215.993442 342.158436 
L 215.735173 336.878439 
L 215.378745 331.598435 
L 214.599275 326.318437 
L 213.806652 321.038439 
L 212.852417 315.758438 
L 212.096283 310.478441 
L 210.842872 306.22861 
L 210.55715 305.19844 
L 209.036466 299.91844 
L 206.793973 294.638439 
L 205.528586 292.368444 
L 203.560164 289.358439 
L 200.231327 284.078437 
L 200.214279 284.05487 
L 195.628028 278.798422 
L 194.900012 278.205864 
L 189.585707 273.596456 
L 189.488456 273.518441 
L 184.271443 269.830064 
L 180.917545 268.238422 
L 178.957135 267.336641 
L 173.642872 264.422799 
L 170.016612 262.958442 
L 168.328567 262.242093 
L 163.014302 259.925897 
L 157.699996 258.040972 
L 156.395746 257.678423 
L 152.38573 256.46854 
L 147.071429 254.60234 
L 141.757141 253.606399 
L 137.494411 252.398445 
L 136.442855 252.095849 
L 131.128569 251.473833 
L 125.814283 250.318539 
L 120.499997 249.402311 
L 115.185714 248.540302 
L 109.871427 247.682094 
L 106.251836 247.118424 
L 104.557144 246.875188 
L 99.242859 246.616743 
L 93.92857 245.486312 
L 88.614287 245.434023 
L 83.3 244.806845 
L 83.3 247.118424 
L 83.3 252.398445 
L 83.3 255.690685 
L 88.614287 256.18657 
L 93.92857 257.001379 
L 99.242859 257.512948 
L 100.47501 257.678423 
L 104.557144 258.216033 
L 109.871427 259.098976 
L 115.185714 260.248233 
L 120.499997 261.128645 
L 125.814283 262.015261 
L 130.878737 262.958442 
L 131.128569 263.012874 
L 136.442855 264.788694 
L 141.757141 266.074544 
L 147.071429 267.829038 
L 148.680165 268.238422 
L 152.38573 269.321003 
L 157.699996 272.082815 
L 161.859374 273.518441 
L 163.014302 273.964312 
L 168.328567 277.076223 
L 171.553263 278.798422 
L 173.642872 280.19057 
L 178.290029 284.078437 
L 178.957135 284.591956 
L 183.600809 289.358439 
L 184.271443 290.127145 
L 188.391626 294.638439 
L 189.585707 296.922297 
L 191.266703 299.91844 
L 193.635821 305.19844 
L 194.900012 308.179069 
L 195.75395 310.478441 
L 197.434968 315.758438 
L 198.550421 321.038439 
L 199.27448 326.318437 
L 200.214279 330.451804 
L 200.47028 331.598435 
L 200.809752 336.878439 
L 201.083034 342.158436 
L 201.956805 347.438437 
z
" clip-path="url(#p338f70f2b0)" style="fill: #25838e"/>
    <path d="M 216.157154 347.438437 
L 221.471443 347.438437 
L 226.785726 347.438437 
L 230.214663 347.438437 
L 229.982774 342.158436 
L 229.716195 336.878439 
L 229.239595 331.598435 
L 229.106885 326.318437 
L 228.539774 321.038439 
L 228.035537 315.758438 
L 227.136667 310.478441 
L 226.785726 308.39642 
L 226.197058 305.19844 
L 225.154536 299.91844 
L 223.302044 294.638439 
L 221.471443 289.619813 
L 221.351673 289.358439 
L 218.759433 284.078437 
L 216.157154 279.546178 
L 215.56727 278.798422 
L 211.720769 273.518441 
L 210.842872 272.57365 
L 205.528586 268.667276 
L 205.03511 268.238422 
L 200.214279 263.325745 
L 199.675299 262.958442 
L 194.900012 260.253187 
L 189.585707 257.810444 
L 189.352236 257.678423 
L 184.271443 254.685581 
L 178.957135 252.843161 
L 178.146124 252.398445 
L 173.642872 249.972914 
L 168.328567 248.520461 
L 163.594129 247.118424 
L 163.014302 246.930622 
L 157.699996 245.717789 
L 152.38573 244.088634 
L 147.071429 242.74822 
L 143.21173 241.838445 
L 141.757141 241.512189 
L 136.442855 240.780749 
L 131.128569 239.415739 
L 125.814283 238.573537 
L 120.499997 237.652308 
L 115.185714 237.198402 
L 111.811685 236.558426 
L 109.871427 235.959114 
L 104.557144 234.922498 
L 99.242859 233.715082 
L 93.92857 232.351441 
L 88.638625 231.278444 
L 88.614287 231.272656 
L 83.3 229.881983 
L 83.3 231.278444 
L 83.3 236.558426 
L 83.3 241.838445 
L 83.3 244.806845 
L 88.614287 245.434023 
L 93.92857 245.486312 
L 99.242859 246.616743 
L 104.557144 246.875188 
L 106.251836 247.118424 
L 109.871427 247.682094 
L 115.185714 248.540302 
L 120.499997 249.402311 
L 125.814283 250.318539 
L 131.128569 251.473833 
L 136.442855 252.095849 
L 137.494411 252.398445 
L 141.757141 253.606399 
L 147.071429 254.60234 
L 152.38573 256.46854 
L 156.395746 257.678423 
L 157.699996 258.040972 
L 163.014302 259.925897 
L 168.328567 262.242093 
L 170.016612 262.958442 
L 173.642872 264.422799 
L 178.957135 267.336641 
L 180.917545 268.238422 
L 184.271443 269.830064 
L 189.488456 273.518441 
L 189.585707 273.596456 
L 194.900012 278.205864 
L 195.628028 278.798422 
L 200.214279 284.05487 
L 200.231327 284.078437 
L 203.560164 289.358439 
L 205.528586 292.368444 
L 206.793973 294.638439 
L 209.036466 299.91844 
L 210.55715 305.19844 
L 210.842872 306.22861 
L 212.096283 310.478441 
L 212.852417 315.758438 
L 213.806652 321.038439 
L 214.599275 326.318437 
L 215.378745 331.598435 
L 215.735173 336.878439 
L 215.993442 342.158436 
L 216.063772 347.438437 
z
" clip-path="url(#p338f70f2b0)" style="fill: #21918c"/>
    <path d="M 232.100013 347.438437 
L 237.414298 347.438437 
L 242.728582 347.438437 
L 243.99928 347.438437 
L 243.776723 342.158436 
L 243.678644 336.878439 
L 243.755928 331.598435 
L 242.992861 326.318437 
L 242.728582 323.590087 
L 242.5042 321.038439 
L 242.213658 315.758438 
L 241.560945 310.478441 
L 240.932941 305.19844 
L 239.851159 299.91844 
L 239.135761 294.638439 
L 237.440686 289.358439 
L 237.414298 289.288181 
L 235.642685 284.078437 
L 233.394918 278.798422 
L 232.100013 276.292711 
L 230.497818 273.518441 
L 226.960589 268.238422 
L 226.785726 268.041939 
L 221.951681 262.958442 
L 221.471443 262.429658 
L 216.905111 257.678423 
L 216.157154 257.097816 
L 210.842872 253.384535 
L 209.294815 252.398445 
L 205.528586 250.182163 
L 200.214279 247.346576 
L 199.749193 247.118424 
L 194.900012 244.549402 
L 189.585707 242.635234 
L 187.769925 241.838445 
L 184.271443 240.265608 
L 178.957135 238.209362 
L 173.642872 237.063682 
L 172.310145 236.558426 
L 168.328567 234.810612 
L 163.014302 233.711511 
L 157.699996 232.035472 
L 155.379846 231.278444 
L 152.38573 229.637008 
L 147.071429 226.686376 
L 144.932373 225.998423 
L 141.757141 224.541003 
L 136.764659 220.718422 
L 136.442855 220.535928 
L 131.128569 218.454864 
L 125.814283 215.859573 
L 125.0136 215.438426 
L 120.499997 212.64823 
L 115.185714 210.722727 
L 113.84866 210.158424 
L 109.871427 208.50669 
L 104.557144 206.61639 
L 99.242859 205.21942 
L 98.076069 204.878426 
L 93.92857 203.611406 
L 88.614287 201.999769 
L 83.3 200.652343 
L 83.3 204.878426 
L 83.3 210.158424 
L 83.3 215.438426 
L 83.3 220.718422 
L 83.3 225.998423 
L 83.3 229.881983 
L 88.614287 231.272656 
L 88.638625 231.278444 
L 93.92857 232.351441 
L 99.242859 233.715082 
L 104.557144 234.922498 
L 109.871427 235.959114 
L 111.811685 236.558426 
L 115.185714 237.198402 
L 120.499997 237.652308 
L 125.814283 238.573537 
L 131.128569 239.415739 
L 136.442855 240.780749 
L 141.757141 241.512189 
L 143.21173 241.838445 
L 147.071429 242.74822 
L 152.38573 244.088634 
L 157.699996 245.717789 
L 163.014302 246.930622 
L 163.594129 247.118424 
L 168.328567 248.520461 
L 173.642872 249.972914 
L 178.146124 252.398445 
L 178.957135 252.843161 
L 184.271443 254.685581 
L 189.352236 257.678423 
L 189.585707 257.810444 
L 194.900012 260.253187 
L 199.675299 262.958442 
L 200.214279 263.325745 
L 205.03511 268.238422 
L 205.528586 268.667276 
L 210.842872 272.57365 
L 211.720769 273.518441 
L 215.56727 278.798422 
L 216.157154 279.546178 
L 218.759433 284.078437 
L 221.351673 289.358439 
L 221.471443 289.619813 
L 223.302044 294.638439 
L 225.154536 299.91844 
L 226.197058 305.19844 
L 226.785726 308.39642 
L 227.136667 310.478441 
L 228.035537 315.758438 
L 228.539774 321.038439 
L 229.106885 326.318437 
L 229.239595 331.598435 
L 229.716195 336.878439 
L 229.982774 342.158436 
L 230.214663 347.438437 
z
" clip-path="url(#p338f70f2b0)" style="fill: #1e9d89"/>
    <path d="M 248.042868 347.438437 
L 253.357135 347.438437 
L 258.232924 347.438437 
L 258.380818 342.158436 
L 257.996412 336.878439 
L 257.991845 331.598435 
L 257.799321 326.318437 
L 257.540451 321.038439 
L 257.011456 315.758438 
L 256.982123 310.478441 
L 256.284884 305.19844 
L 255.365288 299.91844 
L 254.751036 294.638439 
L 253.51651 289.358439 
L 253.357135 288.415011 
L 252.621354 284.078437 
L 250.636482 278.798422 
L 248.47286 273.518441 
L 248.042868 272.705304 
L 245.861428 268.238422 
L 242.805969 262.958442 
L 242.728582 262.842442 
L 238.915037 257.678423 
L 237.414298 256.198844 
L 233.677331 252.398445 
L 232.100013 250.937539 
L 227.943031 247.118424 
L 226.785726 246.129223 
L 221.471443 242.53494 
L 220.623319 241.838445 
L 216.157154 239.210035 
L 210.842872 236.597492 
L 210.751335 236.558426 
L 205.528586 233.915619 
L 200.465759 231.278444 
L 200.214279 231.169233 
L 194.900012 229.162576 
L 189.585707 226.724699 
L 188.095724 225.998423 
L 184.271443 222.53096 
L 182.477758 220.718422 
L 178.957135 217.286997 
L 176.963806 215.438426 
L 173.642872 211.767858 
L 171.851645 210.158424 
L 168.328567 207.210833 
L 165.863278 204.878426 
L 163.014302 201.986777 
L 159.587671 199.598424 
L 157.699996 198.162489 
L 153.07038 194.318425 
L 152.38573 193.859682 
L 147.071429 190.790627 
L 144.643918 189.038427 
L 141.757141 187.322643 
L 136.442855 184.559003 
L 134.885289 183.758427 
L 131.128569 182.116063 
L 125.814283 179.269941 
L 124.056358 178.478445 
L 120.499997 176.994272 
L 115.185714 174.830136 
L 110.502137 173.198448 
L 109.871427 172.936618 
L 104.557144 171.215791 
L 99.242859 169.240054 
L 95.050504 167.918447 
L 93.92857 167.446743 
L 88.614287 165.399337 
L 83.3 164.701539 
L 83.3 167.918447 
L 83.3 173.198448 
L 83.3 178.478445 
L 83.3 183.758427 
L 83.3 189.038427 
L 83.3 194.318425 
L 83.3 199.598424 
L 83.3 200.652343 
L 88.614287 201.999769 
L 93.92857 203.611406 
L 98.076069 204.878426 
L 99.242859 205.21942 
L 104.557144 206.61639 
L 109.871427 208.50669 
L 113.84866 210.158424 
L 115.185714 210.722727 
L 120.499997 212.64823 
L 125.0136 215.438426 
L 125.814283 215.859573 
L 131.128569 218.454864 
L 136.442855 220.535928 
L 136.764659 220.718422 
L 141.757141 224.541003 
L 144.932373 225.998423 
L 147.071429 226.686376 
L 152.38573 229.637008 
L 155.379846 231.278444 
L 157.699996 232.035472 
L 163.014302 233.711511 
L 168.328567 234.810612 
L 172.310145 236.558426 
L 173.642872 237.063682 
L 178.957135 238.209362 
L 184.271443 240.265608 
L 187.769925 241.838445 
L 189.585707 242.635234 
L 194.900012 244.549402 
L 199.749193 247.118424 
L 200.214279 247.346576 
L 205.528586 250.182163 
L 209.294815 252.398445 
L 210.842872 253.384535 
L 216.157154 257.097816 
L 216.905111 257.678423 
L 221.471443 262.429658 
L 221.951681 262.958442 
L 226.785726 268.041939 
L 226.960589 268.238422 
L 230.497818 273.518441 
L 232.100013 276.292711 
L 233.394918 278.798422 
L 235.642685 284.078437 
L 237.414298 289.288181 
L 237.440686 289.358439 
L 239.135761 294.638439 
L 239.851159 299.91844 
L 240.932941 305.19844 
L 241.560945 310.478441 
L 242.213658 315.758438 
L 242.5042 321.038439 
L 242.728582 323.590087 
L 242.992861 326.318437 
L 243.755928 331.598435 
L 243.678644 336.878439 
L 243.776723 342.158436 
L 243.99928 347.438437 
z
" clip-path="url(#p338f70f2b0)" style="fill: #23a983"/>
    <path d="M 258.671418 347.438437 
L 263.985704 347.438437 
L 269.299992 347.438437 
L 273.854462 347.438437 
L 273.794255 342.158436 
L 273.520982 336.878439 
L 273.410479 331.598435 
L 273.237366 326.318437 
L 273.073565 321.038439 
L 272.849551 315.758438 
L 272.33602 310.478441 
L 272.127966 305.19844 
L 271.752808 299.91844 
L 271.037942 294.638439 
L 270.345125 289.358439 
L 269.398934 284.078437 
L 269.299992 283.710737 
L 267.975823 278.798422 
L 267.000345 273.518441 
L 264.473879 268.238422 
L 263.985704 266.846802 
L 262.723934 262.958442 
L 259.16254 257.678423 
L 258.671418 256.822221 
L 256.25731 252.398445 
L 253.357135 248.336157 
L 252.392741 247.118424 
L 248.042868 242.761348 
L 247.027659 241.838445 
L 242.728582 238.30503 
L 240.565049 236.558426 
L 237.414298 233.97717 
L 233.241729 231.278444 
L 232.100013 230.540471 
L 226.785726 226.888336 
L 224.704317 225.998423 
L 221.471443 224.427039 
L 216.157154 220.962293 
L 215.836988 220.718422 
L 212.820885 215.438426 
L 210.842872 211.677857 
L 209.954091 210.158424 
L 207.062595 204.878426 
L 205.528586 202.611016 
L 203.201628 199.598424 
L 200.214279 195.694221 
L 199.099203 194.318425 
L 195.486072 189.038427 
L 194.900012 188.233002 
L 191.473169 183.758427 
L 189.585707 181.260059 
L 187.598868 178.478445 
L 184.271443 175.208551 
L 181.793238 173.198448 
L 178.957135 170.527505 
L 176.386702 167.918447 
L 173.642872 164.693587 
L 170.921784 162.638446 
L 168.328567 160.583609 
L 164.783543 157.358448 
L 163.014302 155.785858 
L 157.699996 152.167477 
L 157.588952 152.078451 
L 152.38573 147.369186 
L 151.192308 146.798449 
L 147.071429 144.588318 
L 143.334326 141.51845 
L 141.757141 140.571793 
L 136.442855 138.779606 
L 131.128569 136.240428 
L 131.123176 136.238442 
L 125.814283 135.03048 
L 120.499997 134.058071 
L 115.185714 132.852735 
L 109.871427 132.148912 
L 104.557144 131.637012 
L 100.988102 130.958438 
L 99.242859 130.623984 
L 93.92857 129.607316 
L 88.614287 129.308082 
L 83.3 128.405734 
L 83.3 130.958438 
L 83.3 136.238442 
L 83.3 141.51845 
L 83.3 146.798449 
L 83.3 152.078451 
L 83.3 157.358448 
L 83.3 162.638446 
L 83.3 164.701539 
L 88.614287 165.399337 
L 93.92857 167.446743 
L 95.050504 167.918447 
L 99.242859 169.240054 
L 104.557144 171.215791 
L 109.871427 172.936618 
L 110.502137 173.198448 
L 115.185714 174.830136 
L 120.499997 176.994272 
L 124.056358 178.478445 
L 125.814283 179.269941 
L 131.128569 182.116063 
L 134.885289 183.758427 
L 136.442855 184.559003 
L 141.757141 187.322643 
L 144.643918 189.038427 
L 147.071429 190.790627 
L 152.38573 193.859682 
L 153.07038 194.318425 
L 157.699996 198.162489 
L 159.587671 199.598424 
L 163.014302 201.986777 
L 165.863278 204.878426 
L 168.328567 207.210833 
L 171.851645 210.158424 
L 173.642872 211.767858 
L 176.963806 215.438426 
L 178.957135 217.286997 
L 182.477758 220.718422 
L 184.271443 222.53096 
L 188.095724 225.998423 
L 189.585707 226.724699 
L 194.900012 229.162576 
L 200.214279 231.169233 
L 200.465759 231.278444 
L 205.528586 233.915619 
L 210.751335 236.558426 
L 210.842872 236.597492 
L 216.157154 239.210035 
L 220.623319 241.838445 
L 221.471443 242.53494 
L 226.785726 246.129223 
L 227.943031 247.118424 
L 232.100013 250.937539 
L 233.677331 252.398445 
L 237.414298 256.198844 
L 238.915037 257.678423 
L 242.728582 262.842442 
L 242.805969 262.958442 
L 245.861428 268.238422 
L 248.042868 272.705304 
L 248.47286 273.518441 
L 250.636482 278.798422 
L 252.621354 284.078437 
L 253.357135 288.415011 
L 253.51651 289.358439 
L 254.751036 294.638439 
L 255.365288 299.91844 
L 256.284884 305.19844 
L 256.982123 310.478441 
L 257.011456 315.758438 
L 257.540451 321.038439 
L 257.799321 326.318437 
L 257.991845 331.598435 
L 257.996412 336.878439 
L 258.380818 342.158436 
L 258.232924 347.438437 
z
" clip-path="url(#p338f70f2b0)" style="fill: #32b67a"/>
    <path d="M 274.614275 347.438437 
L 279.928558 347.438437 
L 285.242845 347.438437 
L 290.557131 347.438437 
L 290.623962 347.438437 
L 290.627062 342.158436 
L 290.666744 336.878439 
L 290.700987 331.598435 
L 290.557131 329.227739 
L 290.392532 326.318437 
L 290.241862 321.038439 
L 290.00582 315.758438 
L 289.748459 310.478441 
L 289.868337 305.19844 
L 289.280703 299.91844 
L 288.818237 294.638439 
L 288.469887 289.358439 
L 287.582928 284.078437 
L 287.20664 278.798422 
L 285.94786 273.518441 
L 285.242845 270.865829 
L 284.565664 268.238422 
L 282.750931 262.958442 
L 280.795525 257.678423 
L 279.928558 255.73075 
L 278.441892 252.398445 
L 275.719413 247.118424 
L 274.614275 245.320246 
L 272.279806 241.838445 
L 269.299992 238.426449 
L 267.459612 236.558426 
L 263.985704 232.521536 
L 262.860839 231.278444 
L 258.671418 227.41685 
L 256.971629 225.998423 
L 253.357135 223.138735 
L 250.525677 220.718422 
L 248.042868 218.723841 
L 243.96937 215.438426 
L 242.728582 213.533272 
L 240.772995 210.158424 
L 239.269929 204.878426 
L 237.414298 200.541556 
L 236.978458 199.598424 
L 235.26249 194.318425 
L 232.668437 189.038427 
L 232.100013 187.294062 
L 230.911205 183.758427 
L 228.233591 178.478445 
L 226.785726 175.528152 
L 225.611092 173.198448 
L 223.466017 167.918447 
L 221.471443 164.556845 
L 220.134648 162.638446 
L 217.599961 157.358448 
L 216.157154 154.182317 
L 214.861349 152.078451 
L 211.850823 146.798449 
L 210.842872 145.270903 
L 207.725499 141.51845 
L 205.528586 137.244531 
L 204.875101 136.238442 
L 200.214279 132.220303 
L 198.931989 130.958438 
L 194.900012 128.639369 
L 189.585707 126.434904 
L 187.826228 125.678439 
L 184.271443 124.129268 
L 178.957135 122.259904 
L 174.371361 120.398439 
L 173.642872 120.088897 
L 168.328567 118.312331 
L 163.014302 117.31995 
L 157.699996 115.76417 
L 155.605284 115.11844 
L 152.38573 114.078541 
L 147.071429 112.482966 
L 141.757141 111.165762 
L 136.442855 110.466602 
L 133.697279 109.83844 
L 131.128569 109.228333 
L 125.814283 108.133352 
L 120.499997 107.292404 
L 115.185714 106.575362 
L 109.871427 105.060411 
L 104.557144 104.671352 
L 103.593305 104.558439 
L 99.242859 104.079044 
L 93.92857 103.504295 
L 88.614287 102.872006 
L 83.3 102.512344 
L 83.3 104.558439 
L 83.3 109.83844 
L 83.3 115.11844 
L 83.3 120.398439 
L 83.3 125.678439 
L 83.3 128.405734 
L 88.614287 129.308082 
L 93.92857 129.607316 
L 99.242859 130.623984 
L 100.988102 130.958438 
L 104.557144 131.637012 
L 109.871427 132.148912 
L 115.185714 132.852735 
L 120.499997 134.058071 
L 125.814283 135.03048 
L 131.123176 136.238442 
L 131.128569 136.240428 
L 136.442855 138.779606 
L 141.757141 140.571793 
L 143.334326 141.51845 
L 147.071429 144.588318 
L 151.192308 146.798449 
L 152.38573 147.369186 
L 157.588952 152.078451 
L 157.699996 152.167477 
L 163.014302 155.785858 
L 164.783543 157.358448 
L 168.328567 160.583609 
L 170.921784 162.638446 
L 173.642872 164.693587 
L 176.386702 167.918447 
L 178.957135 170.527505 
L 181.793238 173.198448 
L 184.271443 175.208551 
L 187.598868 178.478445 
L 189.585707 181.260059 
L 191.473169 183.758427 
L 194.900012 188.233002 
L 195.486072 189.038427 
L 199.099203 194.318425 
L 200.214279 195.694221 
L 203.201628 199.598424 
L 205.528586 202.611016 
L 207.062595 204.878426 
L 209.954091 210.158424 
L 210.842872 211.677857 
L 212.820885 215.438426 
L 215.836988 220.718422 
L 216.157154 220.962293 
L 221.471443 224.427039 
L 224.704317 225.998423 
L 226.785726 226.888336 
L 232.100013 230.540471 
L 233.241729 231.278444 
L 237.414298 233.97717 
L 240.565049 236.558426 
L 242.728582 238.30503 
L 247.027659 241.838445 
L 248.042868 242.761348 
L 252.392741 247.118424 
L 253.357135 248.336157 
L 256.25731 252.398445 
L 258.671418 256.822221 
L 259.16254 257.678423 
L 262.723934 262.958442 
L 263.985704 266.846802 
L 264.473879 268.238422 
L 267.000345 273.518441 
L 267.975823 278.798422 
L 269.299992 283.710737 
L 269.398934 284.078437 
L 270.345125 289.358439 
L 271.037942 294.638439 
L 271.752808 299.91844 
L 272.127966 305.19844 
L 272.33602 310.478441 
L 272.849551 315.758438 
L 273.073565 321.038439 
L 273.237366 326.318437 
L 273.410479 331.598435 
L 273.520982 336.878439 
L 273.794255 342.158436 
L 273.854462 347.438437 
z
" clip-path="url(#p338f70f2b0)" style="fill: #48c16e"/>
    <path d="M 295.871424 347.438437 
L 301.185713 347.438437 
L 306.499998 347.438437 
L 310.748822 347.438437 
L 310.770672 342.158436 
L 310.743637 336.878439 
L 310.583145 331.598435 
L 310.556273 326.318437 
L 310.463578 321.038439 
L 310.334179 315.758438 
L 310.035823 310.478441 
L 309.995184 305.19844 
L 309.533484 299.91844 
L 309.46111 294.638439 
L 309.002509 289.358439 
L 308.568254 284.078437 
L 307.908915 278.798422 
L 307.11824 273.518441 
L 306.499998 270.392277 
L 306.119433 268.238422 
L 305.105985 262.958442 
L 304.059839 257.678423 
L 302.241668 252.398445 
L 301.185713 249.370515 
L 300.377994 247.118424 
L 297.672207 241.838445 
L 295.871424 238.507219 
L 294.775423 236.558426 
L 291.237416 231.278444 
L 290.557131 230.302552 
L 286.992037 225.998423 
L 285.242845 224.07227 
L 282.349048 220.718422 
L 279.928558 218.24309 
L 276.863559 215.438426 
L 274.614275 213.233787 
L 271.683243 210.158424 
L 269.299992 205.0382 
L 269.228704 204.878426 
L 268.313307 199.598424 
L 266.890175 194.318425 
L 266.140221 189.038427 
L 264.838619 183.758427 
L 263.985704 180.70158 
L 263.380425 178.478445 
L 262.009706 173.198448 
L 260.633281 167.918447 
L 259.037241 162.638446 
L 258.671418 161.174283 
L 257.680583 157.358448 
L 256.313648 152.078451 
L 254.0987 146.798449 
L 253.357135 144.126826 
L 252.721607 141.51845 
L 251.210497 136.238442 
L 249.524311 130.958438 
L 248.042868 128.243402 
L 246.417919 125.678439 
L 242.728582 122.349564 
L 240.170267 120.398439 
L 237.414298 118.214734 
L 232.100013 115.125786 
L 232.08896 115.11844 
L 226.785726 111.212821 
L 224.321569 109.83844 
L 221.471443 108.160006 
L 216.157154 105.383743 
L 214.839213 104.558439 
L 210.842872 102.097197 
L 205.528586 100.018089 
L 203.903468 99.27844 
L 200.214279 97.484904 
L 194.900012 94.839931 
L 192.399938 93.998441 
L 189.585707 93.013771 
L 184.271443 90.843205 
L 178.957135 89.118358 
L 177.772137 88.718441 
L 173.642872 87.300539 
L 168.328567 85.454543 
L 163.014302 84.298675 
L 160.384729 83.438445 
L 157.699996 82.465038 
L 152.38573 81.080598 
L 147.071429 79.783273 
L 141.757141 78.435474 
L 140.271037 78.158445 
L 136.442855 77.276168 
L 131.128569 76.040182 
L 125.814283 74.872649 
L 120.499997 73.695276 
L 115.185714 73.048164 
L 114.336381 72.878439 
L 109.871427 71.841755 
L 104.557144 71.205215 
L 99.242859 70.352109 
L 93.92857 69.308411 
L 88.614287 68.700269 
L 83.3 68.484803 
L 83.3 72.878439 
L 83.3 78.158445 
L 83.3 83.438445 
L 83.3 88.718441 
L 83.3 93.998441 
L 83.3 99.27844 
L 83.3 102.512344 
L 88.614287 102.872006 
L 93.92857 103.504295 
L 99.242859 104.079044 
L 103.593305 104.558439 
L 104.557144 104.671352 
L 109.871427 105.060411 
L 115.185714 106.575362 
L 120.499997 107.292404 
L 125.814283 108.133352 
L 131.128569 109.228333 
L 133.697279 109.83844 
L 136.442855 110.466602 
L 141.757141 111.165762 
L 147.071429 112.482966 
L 152.38573 114.078541 
L 155.605284 115.11844 
L 157.699996 115.76417 
L 163.014302 117.31995 
L 168.328567 118.312331 
L 173.642872 120.088897 
L 174.371361 120.398439 
L 178.957135 122.259904 
L 184.271443 124.129268 
L 187.826228 125.678439 
L 189.585707 126.434904 
L 194.900012 128.639369 
L 198.931989 130.958438 
L 200.214279 132.220303 
L 204.875101 136.238442 
L 205.528586 137.244531 
L 207.725499 141.51845 
L 210.842872 145.270903 
L 211.850823 146.798449 
L 214.861349 152.078451 
L 216.157154 154.182317 
L 217.599961 157.358448 
L 220.134648 162.638446 
L 221.471443 164.556845 
L 223.466017 167.918447 
L 225.611092 173.198448 
L 226.785726 175.528152 
L 228.233591 178.478445 
L 230.911205 183.758427 
L 232.100013 187.294062 
L 232.668437 189.038427 
L 235.26249 194.318425 
L 236.978458 199.598424 
L 237.414298 200.541556 
L 239.269929 204.878426 
L 240.772995 210.158424 
L 242.728582 213.533272 
L 243.96937 215.438426 
L 248.042868 218.723841 
L 250.525677 220.718422 
L 253.357135 223.138735 
L 256.971629 225.998423 
L 258.671418 227.41685 
L 262.860839 231.278444 
L 263.985704 232.521536 
L 267.459612 236.558426 
L 269.299992 238.426449 
L 272.279806 241.838445 
L 274.614275 245.320246 
L 275.719413 247.118424 
L 278.441892 252.398445 
L 279.928558 255.73075 
L 280.795525 257.678423 
L 282.750931 262.958442 
L 284.565664 268.238422 
L 285.242845 270.865829 
L 285.94786 273.518441 
L 287.20664 278.798422 
L 287.582928 284.078437 
L 288.469887 289.358439 
L 288.818237 294.638439 
L 289.280703 299.91844 
L 289.868337 305.19844 
L 289.748459 310.478441 
L 290.00582 315.758438 
L 290.241862 321.038439 
L 290.392532 326.318437 
L 290.557131 329.227739 
L 290.700987 331.598435 
L 290.666744 336.878439 
L 290.627062 342.158436 
L 290.623962 347.438437 
z
" clip-path="url(#p338f70f2b0)" style="fill: #65cb5e"/>
    <path d="M 311.814284 347.438437 
L 317.128569 347.438437 
L 322.442855 347.438437 
L 327.757141 347.438437 
L 333.071426 347.438437 
L 335.733678 347.438437 
L 335.744411 342.158436 
L 335.594693 336.878439 
L 335.602208 331.598435 
L 335.540133 326.318437 
L 335.569172 321.038439 
L 335.210202 315.758438 
L 335.008762 310.478441 
L 335.193636 305.19844 
L 335.12124 299.91844 
L 334.678638 294.638439 
L 334.776087 289.358439 
L 334.095717 284.078437 
L 333.558935 278.798422 
L 333.379733 273.518441 
L 333.071426 270.517051 
L 332.835924 268.238422 
L 331.982531 262.958442 
L 330.939806 257.678423 
L 329.983675 252.398445 
L 328.346932 247.118424 
L 327.757141 244.98757 
L 326.895136 241.838445 
L 324.804366 236.558426 
L 322.442855 231.905045 
L 322.085224 231.278444 
L 319.148939 225.998423 
L 317.128569 222.834869 
L 315.814938 220.718422 
L 311.814284 215.582954 
L 311.701444 215.438426 
L 307.755735 210.158424 
L 306.499998 208.628002 
L 303.523461 204.878426 
L 301.185713 200.740919 
L 300.616884 199.598424 
L 300.175026 194.318425 
L 299.424727 189.038427 
L 298.970711 183.758427 
L 298.617413 178.478445 
L 298.053689 173.198448 
L 297.341689 167.918447 
L 296.560656 162.638446 
L 295.871424 158.828077 
L 295.627634 157.358448 
L 295.070362 152.078451 
L 294.117157 146.798449 
L 293.670358 141.51845 
L 292.814324 136.238442 
L 291.910563 130.958438 
L 290.878394 125.678439 
L 290.557131 124.363389 
L 289.496684 120.398439 
L 285.678232 115.11844 
L 285.242845 114.615751 
L 281.195075 109.83844 
L 279.928558 108.561574 
L 275.811569 104.558439 
L 274.614275 103.273404 
L 270.787672 99.27844 
L 269.299992 97.798068 
L 264.881212 93.998441 
L 263.985704 93.232429 
L 258.671418 89.323694 
L 257.964569 88.718441 
L 253.357135 84.634899 
L 251.941003 83.438445 
L 248.042868 80.447781 
L 244.639928 78.158445 
L 242.728582 76.715375 
L 237.414298 72.937966 
L 237.322719 72.878439 
L 232.100013 69.307405 
L 229.441503 67.598438 
L 226.785726 65.814944 
L 221.471443 62.808759 
L 220.700836 62.318442 
L 216.157154 59.128106 
L 213.423545 57.038437 
L 211.545896 51.758443 
L 210.842872 47.945281 
L 210.524964 46.478442 
L 208.032526 41.198439 
L 207.05919 35.918436 
L 206.240136 30.638441 
L 205.528586 28.400238 
L 204.09461 25.358437 
L 202.920477 20.07844 
L 201.333203 14.798437 
L 200.214279 14.798437 
L 194.900012 14.798437 
L 189.585707 14.798437 
L 184.271443 14.798437 
L 178.957135 14.798437 
L 173.642872 14.798437 
L 168.328567 14.798437 
L 163.014302 14.798437 
L 157.699996 14.798437 
L 152.38573 14.798437 
L 147.071429 14.798437 
L 141.757141 14.798437 
L 136.442855 14.798437 
L 131.128569 14.798437 
L 125.814283 14.798437 
L 120.499997 14.798437 
L 115.185714 14.798437 
L 109.871427 14.798437 
L 104.557144 14.798437 
L 99.242859 14.798437 
L 93.92857 14.798437 
L 88.614287 14.798437 
L 83.3 14.798437 
L 83.3 20.07844 
L 83.3 25.358437 
L 83.3 30.638441 
L 83.3 35.918436 
L 83.3 41.198439 
L 83.3 46.478442 
L 83.3 51.758443 
L 83.3 57.038437 
L 83.3 62.318442 
L 83.3 67.598438 
L 83.3 68.484803 
L 88.614287 68.700269 
L 93.92857 69.308411 
L 99.242859 70.352109 
L 104.557144 71.205215 
L 109.871427 71.841755 
L 114.336381 72.878439 
L 115.185714 73.048164 
L 120.499997 73.695276 
L 125.814283 74.872649 
L 131.128569 76.040182 
L 136.442855 77.276168 
L 140.271037 78.158445 
L 141.757141 78.435474 
L 147.071429 79.783273 
L 152.38573 81.080598 
L 157.699996 82.465038 
L 160.384729 83.438445 
L 163.014302 84.298675 
L 168.328567 85.454543 
L 173.642872 87.300539 
L 177.772137 88.718441 
L 178.957135 89.118358 
L 184.271443 90.843205 
L 189.585707 93.013771 
L 192.399938 93.998441 
L 194.900012 94.839931 
L 200.214279 97.484904 
L 203.903468 99.27844 
L 205.528586 100.018089 
L 210.842872 102.097197 
L 214.839213 104.558439 
L 216.157154 105.383743 
L 221.471443 108.160006 
L 224.321569 109.83844 
L 226.785726 111.212821 
L 232.08896 115.11844 
L 232.100013 115.125786 
L 237.414298 118.214734 
L 240.170267 120.398439 
L 242.728582 122.349564 
L 246.417919 125.678439 
L 248.042868 128.243402 
L 249.524311 130.958438 
L 251.210497 136.238442 
L 252.721607 141.51845 
L 253.357135 144.126826 
L 254.0987 146.798449 
L 256.313648 152.078451 
L 257.680583 157.358448 
L 258.671418 161.174283 
L 259.037241 162.638446 
L 260.633281 167.918447 
L 262.009706 173.198448 
L 263.380425 178.478445 
L 263.985704 180.70158 
L 264.838619 183.758427 
L 266.140221 189.038427 
L 266.890175 194.318425 
L 268.313307 199.598424 
L 269.228704 204.878426 
L 269.299992 205.0382 
L 271.683243 210.158424 
L 274.614275 213.233787 
L 276.863559 215.438426 
L 279.928558 218.24309 
L 282.349048 220.718422 
L 285.242845 224.07227 
L 286.992037 225.998423 
L 290.557131 230.302552 
L 291.237416 231.278444 
L 294.775423 236.558426 
L 295.871424 238.507219 
L 297.672207 241.838445 
L 300.377994 247.118424 
L 301.185713 249.370515 
L 302.241668 252.398445 
L 304.059839 257.678423 
L 305.105985 262.958442 
L 306.119433 268.238422 
L 306.499998 270.392277 
L 307.11824 273.518441 
L 307.908915 278.798422 
L 308.568254 284.078437 
L 309.002509 289.358439 
L 309.46111 294.638439 
L 309.533484 299.91844 
L 309.995184 305.19844 
L 310.035823 310.478441 
L 310.334179 315.758438 
L 310.463578 321.038439 
L 310.556273 326.318437 
L 310.583145 331.598435 
L 310.743637 336.878439 
L 310.770672 342.158436 
L 310.748822 347.438437 
z
" clip-path="url(#p338f70f2b0)" style="fill: #84d44b"/>
    <path d="M 338.385711 347.438437 
L 343.699997 347.438437 
L 349.014278 347.438437 
L 354.328564 347.438437 
L 359.642855 347.438437 
L 364.957142 347.438437 
L 370.271424 347.438437 
L 370.886211 347.438437 
L 370.89956 342.158436 
L 370.76014 336.878439 
L 370.775008 331.598435 
L 370.815237 326.318437 
L 370.577635 321.038439 
L 370.841089 315.758438 
L 370.475214 310.478441 
L 370.271424 305.746157 
L 370.251249 305.19844 
L 370.271424 304.639806 
L 370.476666 299.91844 
L 370.271424 295.967372 
L 370.206458 294.638439 
L 370.045422 289.358439 
L 369.732829 284.078437 
L 369.578282 278.798422 
L 369.234231 273.518441 
L 368.699832 268.238422 
L 368.442179 262.958442 
L 367.712495 257.678423 
L 366.825054 252.398445 
L 365.919386 247.118424 
L 364.957142 242.956054 
L 364.699151 241.838445 
L 362.876184 236.558426 
L 361.582866 231.278444 
L 359.642855 226.6934 
L 359.351829 225.998423 
L 356.732741 220.718422 
L 354.328564 215.905213 
L 354.096564 215.438426 
L 351.029323 210.158424 
L 349.014278 207.149237 
L 347.5328 204.878426 
L 344.30419 199.598424 
L 343.699997 198.72962 
L 340.816588 194.318425 
L 340.140588 189.038427 
L 339.973409 183.758427 
L 339.838406 178.478445 
L 339.757099 173.198448 
L 339.880408 167.918447 
L 339.471371 162.638446 
L 339.1776 157.358448 
L 339.412192 152.078451 
L 338.841131 146.798449 
L 338.773126 141.51845 
L 338.562422 136.238442 
L 338.385711 134.894555 
L 337.882174 130.958438 
L 338.022827 125.678439 
L 337.617344 120.398439 
L 337.08549 115.11844 
L 335.124639 109.83844 
L 333.071426 106.426806 
L 331.913436 104.558439 
L 328.345947 99.27844 
L 327.757141 98.34099 
L 325.100971 93.998441 
L 322.442855 90.828482 
L 320.713177 88.718441 
L 317.128569 83.508505 
L 317.075809 83.438445 
L 313.036509 78.158445 
L 311.814284 76.575515 
L 309.256475 72.878439 
L 306.499998 69.665135 
L 304.87011 67.598438 
L 301.185713 62.64491 
L 300.904228 62.318442 
L 296.212937 57.038437 
L 295.871424 56.508426 
L 292.480892 51.758443 
L 291.725115 46.478442 
L 291.843267 41.198439 
L 291.476209 35.918436 
L 291.472786 30.638441 
L 291.456185 25.358437 
L 290.889241 20.07844 
L 291.147333 14.798437 
L 290.557131 14.798437 
L 285.242845 14.798437 
L 279.928558 14.798437 
L 274.614275 14.798437 
L 269.299992 14.798437 
L 263.985704 14.798437 
L 258.671418 14.798437 
L 253.357135 14.798437 
L 248.042868 14.798437 
L 242.728582 14.798437 
L 237.414298 14.798437 
L 232.100013 14.798437 
L 226.785726 14.798437 
L 221.471443 14.798437 
L 216.157154 14.798437 
L 210.842872 14.798437 
L 205.528586 14.798437 
L 201.333203 14.798437 
L 202.920477 20.07844 
L 204.09461 25.358437 
L 205.528586 28.400238 
L 206.240136 30.638441 
L 207.05919 35.918436 
L 208.032526 41.198439 
L 210.524964 46.478442 
L 210.842872 47.945281 
L 211.545896 51.758443 
L 213.423545 57.038437 
L 216.157154 59.128106 
L 220.700836 62.318442 
L 221.471443 62.808759 
L 226.785726 65.814944 
L 229.441503 67.598438 
L 232.100013 69.307405 
L 237.322719 72.878439 
L 237.414298 72.937966 
L 242.728582 76.715375 
L 244.639928 78.158445 
L 248.042868 80.447781 
L 251.941003 83.438445 
L 253.357135 84.634899 
L 257.964569 88.718441 
L 258.671418 89.323694 
L 263.985704 93.232429 
L 264.881212 93.998441 
L 269.299992 97.798068 
L 270.787672 99.27844 
L 274.614275 103.273404 
L 275.811569 104.558439 
L 279.928558 108.561574 
L 281.195075 109.83844 
L 285.242845 114.615751 
L 285.678232 115.11844 
L 289.496684 120.398439 
L 290.557131 124.363389 
L 290.878394 125.678439 
L 291.910563 130.958438 
L 292.814324 136.238442 
L 293.670358 141.51845 
L 294.117157 146.798449 
L 295.070362 152.078451 
L 295.627634 157.358448 
L 295.871424 158.828077 
L 296.560656 162.638446 
L 297.341689 167.918447 
L 298.053689 173.198448 
L 298.617413 178.478445 
L 298.970711 183.758427 
L 299.424727 189.038427 
L 300.175026 194.318425 
L 300.616884 199.598424 
L 301.185713 200.740919 
L 303.523461 204.878426 
L 306.499998 208.628002 
L 307.755735 210.158424 
L 311.701444 215.438426 
L 311.814284 215.582954 
L 315.814938 220.718422 
L 317.128569 222.834869 
L 319.148939 225.998423 
L 322.085224 231.278444 
L 322.442855 231.905045 
L 324.804366 236.558426 
L 326.895136 241.838445 
L 327.757141 244.98757 
L 328.346932 247.118424 
L 329.983675 252.398445 
L 330.939806 257.678423 
L 331.982531 262.958442 
L 332.835924 268.238422 
L 333.071426 270.517051 
L 333.379733 273.518441 
L 333.558935 278.798422 
L 334.095717 284.078437 
L 334.776087 289.358439 
L 334.678638 294.638439 
L 335.12124 299.91844 
L 335.193636 305.19844 
L 335.008762 310.478441 
L 335.210202 315.758438 
L 335.569172 321.038439 
L 335.540133 326.318437 
L 335.602208 331.598435 
L 335.594693 336.878439 
L 335.744411 342.158436 
L 335.733678 347.438437 
z
" clip-path="url(#p338f70f2b0)" style="fill: #a8db34"/>
    <path d="M 375.585714 347.438437 
L 380.899995 347.438437 
L 386.214281 347.438437 
L 391.52857 347.438437 
L 396.842859 347.438437 
L 402.15714 347.438437 
L 407.471429 347.438437 
L 412.785712 347.438437 
L 418.1 347.438437 
L 418.1 342.158436 
L 418.1 336.878439 
L 418.1 331.598435 
L 418.1 326.318437 
L 418.1 321.038439 
L 418.1 315.758438 
L 418.1 310.478441 
L 418.1 305.19844 
L 418.1 299.91844 
L 418.1 294.638439 
L 418.1 289.358439 
L 418.1 284.078437 
L 418.1 278.798422 
L 418.1 273.518441 
L 418.1 268.238422 
L 418.1 262.958442 
L 418.1 257.678423 
L 418.1 252.398445 
L 418.1 247.118424 
L 418.1 241.838445 
L 418.1 236.558426 
L 418.1 231.278444 
L 418.1 225.998423 
L 418.1 220.718422 
L 418.1 215.438426 
L 418.1 210.158424 
L 418.1 204.878426 
L 418.1 204.717981 
L 415.200665 199.598424 
L 412.785712 195.663107 
L 411.921398 194.318425 
L 408.505385 189.038427 
L 407.471429 186.990567 
L 406.111653 183.758427 
L 406.080857 178.478445 
L 406.324411 173.198448 
L 406.642508 167.918447 
L 406.977339 162.638446 
L 407.262572 157.358448 
L 407.471429 154.566444 
L 407.695997 152.078451 
L 407.580499 146.798449 
L 408.036496 141.51845 
L 408.186331 136.238442 
L 408.290431 130.958438 
L 408.529916 125.678439 
L 408.887102 120.398439 
L 409.211062 115.11844 
L 408.783587 109.83844 
L 408.394887 104.558439 
L 407.471429 102.367108 
L 406.128531 99.27844 
L 403.163284 93.998441 
L 402.15714 92.148327 
L 400.413072 88.718441 
L 397.509605 83.438445 
L 396.842859 82.122491 
L 394.852225 78.158445 
L 391.891004 72.878439 
L 391.52857 72.187878 
L 389.016259 67.598438 
L 386.214281 62.693717 
L 386.020142 62.318442 
L 383.595884 57.038437 
L 380.899995 52.162439 
L 380.680024 51.758443 
L 378.066659 46.478442 
L 377.070278 41.198439 
L 377.240949 35.918436 
L 377.679391 30.638441 
L 378.247869 25.358437 
L 378.560064 20.07844 
L 378.867096 14.798437 
L 375.585714 14.798437 
L 370.271424 14.798437 
L 364.957142 14.798437 
L 359.642855 14.798437 
L 354.328564 14.798437 
L 349.014278 14.798437 
L 343.699997 14.798437 
L 338.385711 14.798437 
L 333.071426 14.798437 
L 327.757141 14.798437 
L 322.442855 14.798437 
L 317.128569 14.798437 
L 311.814284 14.798437 
L 306.499998 14.798437 
L 301.185713 14.798437 
L 295.871424 14.798437 
L 291.147333 14.798437 
L 290.889241 20.07844 
L 291.456185 25.358437 
L 291.472786 30.638441 
L 291.476209 35.918436 
L 291.843267 41.198439 
L 291.725115 46.478442 
L 292.480892 51.758443 
L 295.871424 56.508426 
L 296.212937 57.038437 
L 300.904228 62.318442 
L 301.185713 62.64491 
L 304.87011 67.598438 
L 306.499998 69.665135 
L 309.256475 72.878439 
L 311.814284 76.575515 
L 313.036509 78.158445 
L 317.075809 83.438445 
L 317.128569 83.508505 
L 320.713177 88.718441 
L 322.442855 90.828482 
L 325.100971 93.998441 
L 327.757141 98.34099 
L 328.345947 99.27844 
L 331.913436 104.558439 
L 333.071426 106.426806 
L 335.124639 109.83844 
L 337.08549 115.11844 
L 337.617344 120.398439 
L 338.022827 125.678439 
L 337.882174 130.958438 
L 338.385711 134.894555 
L 338.562422 136.238442 
L 338.773126 141.51845 
L 338.841131 146.798449 
L 339.412192 152.078451 
L 339.1776 157.358448 
L 339.471371 162.638446 
L 339.880408 167.918447 
L 339.757099 173.198448 
L 339.838406 178.478445 
L 339.973409 183.758427 
L 340.140588 189.038427 
L 340.816588 194.318425 
L 343.699997 198.72962 
L 344.30419 199.598424 
L 347.5328 204.878426 
L 349.014278 207.149237 
L 351.029323 210.158424 
L 354.096564 215.438426 
L 354.328564 215.905213 
L 356.732741 220.718422 
L 359.351829 225.998423 
L 359.642855 226.6934 
L 361.582866 231.278444 
L 362.876184 236.558426 
L 364.699151 241.838445 
L 364.957142 242.956054 
L 365.919386 247.118424 
L 366.825054 252.398445 
L 367.712495 257.678423 
L 368.442179 262.958442 
L 368.699832 268.238422 
L 369.234231 273.518441 
L 369.578282 278.798422 
L 369.732829 284.078437 
L 370.045422 289.358439 
L 370.206458 294.638439 
L 370.271424 295.967372 
L 370.476666 299.91844 
L 370.271424 304.639806 
L 370.251249 305.19844 
L 370.271424 305.746157 
L 370.475214 310.478441 
L 370.841089 315.758438 
L 370.577635 321.038439 
L 370.815237 326.318437 
L 370.775008 331.598435 
L 370.76014 336.878439 
L 370.89956 342.158436 
L 370.886211 347.438437 
z
" clip-path="url(#p338f70f2b0)" style="fill: #cae11f"/>
    <path d="M 418.1 204.717981 
L 418.1 199.598424 
L 418.1 194.318425 
L 418.1 189.038427 
L 418.1 183.758427 
L 418.1 178.478445 
L 418.1 173.198448 
L 418.1 167.918447 
L 418.1 162.638446 
L 418.1 157.358448 
L 418.1 152.078451 
L 418.1 146.798449 
L 418.1 141.51845 
L 418.1 136.238442 
L 418.1 130.958438 
L 418.1 125.678439 
L 418.1 120.398439 
L 418.1 115.11844 
L 418.1 109.83844 
L 418.1 104.558439 
L 418.1 99.27844 
L 418.1 93.998441 
L 418.1 88.718441 
L 418.1 83.438445 
L 418.1 78.158445 
L 418.1 72.878439 
L 418.1 67.598438 
L 418.1 62.318442 
L 418.1 57.038437 
L 418.1 51.758443 
L 418.1 46.478442 
L 418.1 41.198439 
L 418.1 35.918436 
L 418.1 30.638441 
L 418.1 25.358437 
L 418.1 20.07844 
L 418.1 14.798437 
L 412.785712 14.798437 
L 407.471429 14.798437 
L 402.15714 14.798437 
L 396.842859 14.798437 
L 391.52857 14.798437 
L 386.214281 14.798437 
L 380.899995 14.798437 
L 378.867096 14.798437 
L 378.560064 20.07844 
L 378.247869 25.358437 
L 377.679391 30.638441 
L 377.240949 35.918436 
L 377.070278 41.198439 
L 378.066659 46.478442 
L 380.680024 51.758443 
L 380.899995 52.162439 
L 383.595884 57.038437 
L 386.020142 62.318442 
L 386.214281 62.693717 
L 389.016259 67.598438 
L 391.52857 72.187878 
L 391.891004 72.878439 
L 394.852225 78.158445 
L 396.842859 82.122491 
L 397.509605 83.438445 
L 400.413072 88.718441 
L 402.15714 92.148327 
L 403.163284 93.998441 
L 406.128531 99.27844 
L 407.471429 102.367108 
L 408.394887 104.558439 
L 408.783587 109.83844 
L 409.211062 115.11844 
L 408.887102 120.398439 
L 408.529916 125.678439 
L 408.290431 130.958438 
L 408.186331 136.238442 
L 408.036496 141.51845 
L 407.580499 146.798449 
L 407.695997 152.078451 
L 407.471429 154.566444 
L 407.262572 157.358448 
L 406.977339 162.638446 
L 406.642508 167.918447 
L 406.324411 173.198448 
L 406.080857 178.478445 
L 406.111653 183.758427 
L 407.471429 186.990567 
L 408.505385 189.038427 
L 411.921398 194.318425 
L 412.785712 195.663107 
L 415.200665 199.598424 
z
" clip-path="url(#p338f70f2b0)" style="fill: #efe51c"/>
   </g>
   <g id="matplotlib.axis_1">
    <g id="xtick_1">
     <g id="line2d_1">
      <defs>
       <path id="m4ef4a5bb59" d="M 0 0 
L 0 2 
" style="stroke: #000000; stroke-width: 1.5"/>
      </defs>
      <g>
       <use xlink:href="#m4ef4a5bb59" x="83.300002" y="347.438437" style="stroke: #000000; stroke-width: 1.5"/>
      </g>
     </g>
     <g id="text_1">
      <!-- $\mathdefault{10^{-2}}$ -->
      <g transform="translate(59.800002 368.135312) scale(0.2 -0.2)">
       <defs>
        <path id="DejaVuSans-31" d="M 794 531 
L 1825 531 
L 1825 4091 
L 703 3866 
L 703 4441 
L 1819 4666 
L 2450 4666 
L 2450 531 
L 3481 531 
L 3481 0 
L 794 0 
L 794 531 
z
" transform="scale(0.015625)"/>
        <path id="DejaVuSans-30" d="M 2034 4250 
Q 1547 4250 1301 3770 
Q 1056 3291 1056 2328 
Q 1056 1369 1301 889 
Q 1547 409 2034 409 
Q 2525 409 2770 889 
Q 3016 1369 3016 2328 
Q 3016 3291 2770 3770 
Q 2525 4250 2034 4250 
z
M 2034 4750 
Q 2819 4750 3233 4129 
Q 3647 3509 3647 2328 
Q 3647 1150 3233 529 
Q 2819 -91 2034 -91 
Q 1250 -91 836 529 
Q 422 1150 422 2328 
Q 422 3509 836 4129 
Q 1250 4750 2034 4750 
z
" transform="scale(0.015625)"/>
        <path id="DejaVuSans-2212" d="M 678 2272 
L 4684 2272 
L 4684 1741 
L 678 1741 
L 678 2272 
z
" transform="scale(0.015625)"/>
        <path id="DejaVuSans-32" d="M 1228 531 
L 3431 531 
L 3431 0 
L 469 0 
L 469 531 
Q 828 903 1448 1529 
Q 2069 2156 2228 2338 
Q 2531 2678 2651 2914 
Q 2772 3150 2772 3378 
Q 2772 3750 2511 3984 
Q 2250 4219 1831 4219 
Q 1534 4219 1204 4116 
Q 875 4013 500 3803 
L 500 4441 
Q 881 4594 1212 4672 
Q 1544 4750 1819 4750 
Q 2544 4750 2975 4387 
Q 3406 4025 3406 3419 
Q 3406 3131 3298 2873 
Q 3191 2616 2906 2266 
Q 2828 2175 2409 1742 
Q 1991 1309 1228 531 
z
" transform="scale(0.015625)"/>
       </defs>
       <use xlink:href="#DejaVuSans-31" transform="translate(0 0.765625)"/>
       <use xlink:href="#DejaVuSans-30" transform="translate(63.623047 0.765625)"/>
       <use xlink:href="#DejaVuSans-2212" transform="translate(128.203125 39.046875) scale(0.7)"/>
       <use xlink:href="#DejaVuSans-32" transform="translate(186.855469 39.046875) scale(0.7)"/>
      </g>
     </g>
    </g>
    <g id="xtick_2">
     <g id="line2d_2">
      <g>
       <use xlink:href="#m4ef4a5bb59" x="250.700001" y="347.438437" style="stroke: #000000; stroke-width: 1.5"/>
      </g>
     </g>
     <g id="text_2">
      <!-- $\mathdefault{10^{-1}}$ -->
      <g transform="translate(227.200001 368.135312) scale(0.2 -0.2)">
       <use xlink:href="#DejaVuSans-31" transform="translate(0 0.684375)"/>
       <use xlink:href="#DejaVuSans-30" transform="translate(63.623047 0.684375)"/>
       <use xlink:href="#DejaVuSans-2212" transform="translate(128.203125 38.965625) scale(0.7)"/>
       <use xlink:href="#DejaVuSans-31" transform="translate(186.855469 38.965625) scale(0.7)"/>
      </g>
     </g>
    </g>
    <g id="xtick_3">
     <g id="line2d_3">
      <g>
       <use xlink:href="#m4ef4a5bb59" x="418.1" y="347.438437" style="stroke: #000000; stroke-width: 1.5"/>
      </g>
     </g>
     <g id="text_3">
      <!-- $\mathdefault{10^{0}}$ -->
      <g transform="translate(400.5 368.135312) scale(0.2 -0.2)">
       <use xlink:href="#DejaVuSans-31" transform="translate(0 0.765625)"/>
       <use xlink:href="#DejaVuSans-30" transform="translate(63.623047 0.765625)"/>
       <use xlink:href="#DejaVuSans-30" transform="translate(128.203125 39.046875) scale(0.7)"/>
      </g>
     </g>
    </g>
    <g id="xtick_4">
     <g id="line2d_4">
      <defs>
       <path id="m253a4f11ac" d="M 0 0 
L 0 2 
" style="stroke: #000000; stroke-width: 0.6"/>
      </defs>
      <g>
       <use xlink:href="#m253a4f11ac" x="133.692423" y="347.438437" style="stroke: #000000; stroke-width: 0.6"/>
      </g>
     </g>
    </g>
    <g id="xtick_5">
     <g id="line2d_5">
      <g>
       <use xlink:href="#m253a4f11ac" x="163.170099" y="347.438437" style="stroke: #000000; stroke-width: 0.6"/>
      </g>
     </g>
    </g>
    <g id="xtick_6">
     <g id="line2d_6">
      <g>
       <use xlink:href="#m253a4f11ac" x="184.084844" y="347.438437" style="stroke: #000000; stroke-width: 0.6"/>
      </g>
     </g>
    </g>
    <g id="xtick_7">
     <g id="line2d_7">
      <g>
       <use xlink:href="#m253a4f11ac" x="200.30758" y="347.438437" style="stroke: #000000; stroke-width: 0.6"/>
      </g>
     </g>
    </g>
    <g id="xtick_8">
     <g id="line2d_8">
      <g>
       <use xlink:href="#m253a4f11ac" x="213.56252" y="347.438437" style="stroke: #000000; stroke-width: 0.6"/>
      </g>
     </g>
    </g>
    <g id="xtick_9">
     <g id="line2d_9">
      <g>
       <use xlink:href="#m253a4f11ac" x="224.769413" y="347.438437" style="stroke: #000000; stroke-width: 0.6"/>
      </g>
     </g>
    </g>
    <g id="xtick_10">
     <g id="line2d_10">
      <g>
       <use xlink:href="#m253a4f11ac" x="234.477265" y="347.438437" style="stroke: #000000; stroke-width: 0.6"/>
      </g>
     </g>
    </g>
    <g id="xtick_11">
     <g id="line2d_11">
      <g>
       <use xlink:href="#m253a4f11ac" x="243.040197" y="347.438437" style="stroke: #000000; stroke-width: 0.6"/>
      </g>
     </g>
    </g>
    <g id="xtick_12">
     <g id="line2d_12">
      <g>
       <use xlink:href="#m253a4f11ac" x="301.092422" y="347.438437" style="stroke: #000000; stroke-width: 0.6"/>
      </g>
     </g>
    </g>
    <g id="xtick_13">
     <g id="line2d_13">
      <g>
       <use xlink:href="#m253a4f11ac" x="330.570098" y="347.438437" style="stroke: #000000; stroke-width: 0.6"/>
      </g>
     </g>
    </g>
    <g id="xtick_14">
     <g id="line2d_14">
      <g>
       <use xlink:href="#m253a4f11ac" x="351.484843" y="347.438437" style="stroke: #000000; stroke-width: 0.6"/>
      </g>
     </g>
    </g>
    <g id="xtick_15">
     <g id="line2d_15">
      <g>
       <use xlink:href="#m253a4f11ac" x="367.707579" y="347.438437" style="stroke: #000000; stroke-width: 0.6"/>
      </g>
     </g>
    </g>
    <g id="xtick_16">
     <g id="line2d_16">
      <g>
       <use xlink:href="#m253a4f11ac" x="380.962519" y="347.438437" style="stroke: #000000; stroke-width: 0.6"/>
      </g>
     </g>
    </g>
    <g id="xtick_17">
     <g id="line2d_17">
      <g>
       <use xlink:href="#m253a4f11ac" x="392.169412" y="347.438437" style="stroke: #000000; stroke-width: 0.6"/>
      </g>
     </g>
    </g>
    <g id="xtick_18">
     <g id="line2d_18">
      <g>
       <use xlink:href="#m253a4f11ac" x="401.877264" y="347.438437" style="stroke: #000000; stroke-width: 0.6"/>
      </g>
     </g>
    </g>
    <g id="xtick_19">
     <g id="line2d_19">
      <g>
       <use xlink:href="#m253a4f11ac" x="410.440196" y="347.438437" style="stroke: #000000; stroke-width: 0.6"/>
      </g>
     </g>
    </g>
    <g id="text_4">
     <!-- $\lambda$ -->
     <g transform="translate(244.7 391.491562) scale(0.2 -0.2)">
      <defs>
       <path id="DejaVuSans-Oblique-3bb" d="M 2350 4316 
L 3125 0 
L 2516 0 
L 2038 2588 
L 328 0 
L -281 0 
L 1903 3356 
L 1794 3975 
Q 1725 4369 1391 4369 
L 1091 4369 
L 1184 4863 
L 1550 4856 
Q 2253 4847 2350 4316 
z
" transform="scale(0.015625)"/>
      </defs>
      <use xlink:href="#DejaVuSans-Oblique-3bb" transform="translate(0 0.015625)"/>
     </g>
    </g>
   </g>
   <g id="matplotlib.axis_2">
    <g id="ytick_1">
     <g id="line2d_20">
      <defs>
       <path id="m995857de9e" d="M 0 0 
L -2 0 
" style="stroke: #000000; stroke-width: 1.5"/>
      </defs>
      <g>
       <use xlink:href="#m995857de9e" x="83.3" y="347.438436" style="stroke: #000000; stroke-width: 1.5"/>
      </g>
     </g>
     <g id="text_5">
      <!-- $\mathdefault{10^{-2}}$ -->
      <g transform="translate(30.8 355.036873) scale(0.2 -0.2)">
       <use xlink:href="#DejaVuSans-31" transform="translate(0 0.765625)"/>
       <use xlink:href="#DejaVuSans-30" transform="translate(63.623047 0.765625)"/>
       <use xlink:href="#DejaVuSans-2212" transform="translate(128.203125 39.046875) scale(0.7)"/>
       <use xlink:href="#DejaVuSans-32" transform="translate(186.855469 39.046875) scale(0.7)"/>
      </g>
     </g>
    </g>
    <g id="ytick_2">
     <g id="line2d_21">
      <g>
       <use xlink:href="#m995857de9e" x="83.3" y="181.118437" style="stroke: #000000; stroke-width: 1.5"/>
      </g>
     </g>
     <g id="text_6">
      <!-- $\mathdefault{10^{-1}}$ -->
      <g transform="translate(30.8 188.716874) scale(0.2 -0.2)">
       <use xlink:href="#DejaVuSans-31" transform="translate(0 0.684375)"/>
       <use xlink:href="#DejaVuSans-30" transform="translate(63.623047 0.684375)"/>
       <use xlink:href="#DejaVuSans-2212" transform="translate(128.203125 38.965625) scale(0.7)"/>
       <use xlink:href="#DejaVuSans-31" transform="translate(186.855469 38.965625) scale(0.7)"/>
      </g>
     </g>
    </g>
    <g id="ytick_3">
     <g id="line2d_22">
      <g>
       <use xlink:href="#m995857de9e" x="83.3" y="14.798437" style="stroke: #000000; stroke-width: 1.5"/>
      </g>
     </g>
     <g id="text_7">
      <!-- $\mathdefault{10^{0}}$ -->
      <g transform="translate(42.6 22.396875) scale(0.2 -0.2)">
       <use xlink:href="#DejaVuSans-31" transform="translate(0 0.765625)"/>
       <use xlink:href="#DejaVuSans-30" transform="translate(63.623047 0.765625)"/>
       <use xlink:href="#DejaVuSans-30" transform="translate(128.203125 39.046875) scale(0.7)"/>
      </g>
     </g>
    </g>
    <g id="ytick_4">
     <g id="line2d_23">
      <defs>
       <path id="m51d0f3ad41" d="M 0 0 
L -2 0 
" style="stroke: #000000; stroke-width: 0.6"/>
      </defs>
      <g>
       <use xlink:href="#m51d0f3ad41" x="83.3" y="297.371127" style="stroke: #000000; stroke-width: 0.6"/>
      </g>
     </g>
    </g>
    <g id="ytick_5">
     <g id="line2d_24">
      <g>
       <use xlink:href="#m51d0f3ad41" x="83.3" y="268.083629" style="stroke: #000000; stroke-width: 0.6"/>
      </g>
     </g>
    </g>
    <g id="ytick_6">
     <g id="line2d_25">
      <g>
       <use xlink:href="#m51d0f3ad41" x="83.3" y="247.303819" style="stroke: #000000; stroke-width: 0.6"/>
      </g>
     </g>
    </g>
    <g id="ytick_7">
     <g id="line2d_26">
      <g>
       <use xlink:href="#m51d0f3ad41" x="83.3" y="231.185745" style="stroke: #000000; stroke-width: 0.6"/>
      </g>
     </g>
    </g>
    <g id="ytick_8">
     <g id="line2d_27">
      <g>
       <use xlink:href="#m51d0f3ad41" x="83.3" y="218.016321" style="stroke: #000000; stroke-width: 0.6"/>
      </g>
     </g>
    </g>
    <g id="ytick_9">
     <g id="line2d_28">
      <g>
       <use xlink:href="#m51d0f3ad41" x="83.3" y="206.881731" style="stroke: #000000; stroke-width: 0.6"/>
      </g>
     </g>
    </g>
    <g id="ytick_10">
     <g id="line2d_29">
      <g>
       <use xlink:href="#m51d0f3ad41" x="83.3" y="197.23651" style="stroke: #000000; stroke-width: 0.6"/>
      </g>
     </g>
    </g>
    <g id="ytick_11">
     <g id="line2d_30">
      <g>
       <use xlink:href="#m51d0f3ad41" x="83.3" y="188.728822" style="stroke: #000000; stroke-width: 0.6"/>
      </g>
     </g>
    </g>
    <g id="ytick_12">
     <g id="line2d_31">
      <g>
       <use xlink:href="#m51d0f3ad41" x="83.3" y="131.051128" style="stroke: #000000; stroke-width: 0.6"/>
      </g>
     </g>
    </g>
    <g id="ytick_13">
     <g id="line2d_32">
      <g>
       <use xlink:href="#m51d0f3ad41" x="83.3" y="101.76363" style="stroke: #000000; stroke-width: 0.6"/>
      </g>
     </g>
    </g>
    <g id="ytick_14">
     <g id="line2d_33">
      <g>
       <use xlink:href="#m51d0f3ad41" x="83.3" y="80.983819" style="stroke: #000000; stroke-width: 0.6"/>
      </g>
     </g>
    </g>
    <g id="ytick_15">
     <g id="line2d_34">
      <g>
       <use xlink:href="#m51d0f3ad41" x="83.3" y="64.865746" style="stroke: #000000; stroke-width: 0.6"/>
      </g>
     </g>
    </g>
    <g id="ytick_16">
     <g id="line2d_35">
      <g>
       <use xlink:href="#m51d0f3ad41" x="83.3" y="51.696321" style="stroke: #000000; stroke-width: 0.6"/>
      </g>
     </g>
    </g>
    <g id="ytick_17">
     <g id="line2d_36">
      <g>
       <use xlink:href="#m51d0f3ad41" x="83.3" y="40.561731" style="stroke: #000000; stroke-width: 0.6"/>
      </g>
     </g>
    </g>
    <g id="ytick_18">
     <g id="line2d_37">
      <g>
       <use xlink:href="#m51d0f3ad41" x="83.3" y="30.916511" style="stroke: #000000; stroke-width: 0.6"/>
      </g>
     </g>
    </g>
    <g id="ytick_19">
     <g id="line2d_38">
      <g>
       <use xlink:href="#m51d0f3ad41" x="83.3" y="22.408823" style="stroke: #000000; stroke-width: 0.6"/>
      </g>
     </g>
    </g>
    <g id="text_8">
     <!-- $\beta$ -->
     <g transform="translate(22.6 187.518437) rotate(-90) scale(0.2 -0.2)">
      <defs>
       <path id="DejaVuSans-Oblique-3b2" d="M 872 216 
L 572 -1331 
L -6 -1331 
L 928 3478 
Q 1206 4903 2538 4903 
Q 3888 4903 3659 3700 
Q 3503 2844 2894 2531 
Q 3713 2250 3553 1416 
Q 3272 -69 1759 -66 
Q 1097 -63 872 216 
z
M 1019 966 
Q 1259 422 1875 425 
Q 2775 425 2966 1406 
Q 3138 2288 1675 2219 
L 1778 2750 
Q 2909 2731 3106 3750 
Q 3241 4438 2509 4434 
Q 1691 4434 1503 3459 
L 1019 966 
z
" transform="scale(0.015625)"/>
      </defs>
      <use xlink:href="#DejaVuSans-Oblique-3b2" transform="translate(0 0.390625)"/>
     </g>
    </g>
   </g>
   <g id="patch_3">
    <path d="M 83.3 347.438437 
L 83.3 14.798437 
" style="fill: none; stroke: #000000; stroke-width: 0.8; stroke-linejoin: miter; stroke-linecap: square"/>
   </g>
   <g id="patch_4">
    <path d="M 418.1 347.438437 
L 418.1 14.798437 
" style="fill: none; stroke: #000000; stroke-width: 0.8; stroke-linejoin: miter; stroke-linecap: square"/>
   </g>
   <g id="patch_5">
    <path d="M 83.3 347.438437 
L 418.1 347.438437 
" style="fill: none; stroke: #000000; stroke-width: 0.8; stroke-linejoin: miter; stroke-linecap: square"/>
   </g>
   <g id="patch_6">
    <path d="M 83.3 14.798437 
L 418.1 14.798437 
" style="fill: none; stroke: #000000; stroke-width: 0.8; stroke-linejoin: miter; stroke-linecap: square"/>
   </g>
   <g id="text_9">
    <!-- $p^{A}$ -->
    <g transform="translate(367.707579 72.476132) scale(0.25 -0.25)">
     <defs>
      <path id="DejaVuSans-Oblique-70" d="M 3175 2156 
Q 3175 2616 2975 2859 
Q 2775 3103 2400 3103 
Q 2144 3103 1911 2972 
Q 1678 2841 1497 2591 
Q 1319 2344 1212 1994 
Q 1106 1644 1106 1300 
Q 1106 863 1306 627 
Q 1506 391 1875 391 
Q 2147 391 2380 519 
Q 2613 647 2778 891 
Q 2956 1147 3065 1494 
Q 3175 1841 3175 2156 
z
M 1394 2969 
Q 1625 3272 1939 3428 
Q 2253 3584 2638 3584 
Q 3175 3584 3472 3232 
Q 3769 2881 3769 2247 
Q 3769 1728 3584 1258 
Q 3400 788 3053 416 
Q 2822 169 2531 39 
Q 2241 -91 1919 -91 
Q 1547 -91 1294 64 
Q 1041 219 916 525 
L 556 -1331 
L -19 -1331 
L 922 3500 
L 1497 3500 
L 1394 2969 
z
" transform="scale(0.015625)"/>
      <path id="DejaVuSans-Oblique-41" d="M 2356 4666 
L 3072 4666 
L 3938 0 
L 3278 0 
L 3084 1197 
L 984 1197 
L 325 0 
L -341 0 
L 2356 4666 
z
M 2584 4044 
L 1275 1722 
L 2988 1722 
L 2584 4044 
z
" transform="scale(0.015625)"/>
     </defs>
     <use xlink:href="#DejaVuSans-Oblique-70" transform="translate(0 0.684375)"/>
     <use xlink:href="#DejaVuSans-Oblique-41" transform="translate(68.126458 38.965625) scale(0.7)"/>
    </g>
   </g>
   <g id="text_10">
    <!-- MC -->
    <g transform="translate(367.707579 40.561731) scale(0.25 -0.25)">
     <defs>
      <path id="DejaVuSans-4d" d="M 628 4666 
L 1569 4666 
L 2759 1491 
L 3956 4666 
L 4897 4666 
L 4897 0 
L 4281 0 
L 4281 4097 
L 3078 897 
L 2444 897 
L 1241 4097 
L 1241 0 
L 628 0 
L 628 4666 
z
" transform="scale(0.015625)"/>
      <path id="DejaVuSans-43" d="M 4122 4306 
L 4122 3641 
Q 3803 3938 3442 4084 
Q 3081 4231 2675 4231 
Q 1875 4231 1450 3742 
Q 1025 3253 1025 2328 
Q 1025 1406 1450 917 
Q 1875 428 2675 428 
Q 3081 428 3442 575 
Q 3803 722 4122 1019 
L 4122 359 
Q 3791 134 3420 21 
Q 3050 -91 2638 -91 
Q 1578 -91 968 557 
Q 359 1206 359 2328 
Q 359 3453 968 4101 
Q 1578 4750 2638 4750 
Q 3056 4750 3426 4639 
Q 3797 4528 4122 4306 
z
" transform="scale(0.015625)"/>
     </defs>
     <use xlink:href="#DejaVuSans-4d"/>
     <use xlink:href="#DejaVuSans-43" transform="translate(86.279297 0)"/>
    </g>
   </g>
  </g>
 </g>
 <defs>
  <clipPath id="p338f70f2b0">
   <rect x="83.3" y="14.798437" width="334.8" height="332.64"/>
  </clipPath>
 </defs>
</svg>
