<?xml version="1.0" encoding="utf-8" standalone="no"?>
<!DOCTYPE svg PUBLIC "-//W3C//DTD SVG 1.1//EN"
  "http://www.w3.org/Graphics/SVG/1.1/DTD/svg11.dtd">
<svg xmlns:xlink="http://www.w3.org/1999/xlink" width="442.9pt" height="402.850937pt" viewBox="0 0 442.9 402.850937" xmlns="http://www.w3.org/2000/svg" version="1.1">
 <metadata>
  <rdf:RDF xmlns:dc="http://purl.org/dc/elements/1.1/" xmlns:cc="http://creativecommons.org/ns#" xmlns:rdf="http://www.w3.org/1999/02/22-rdf-syntax-ns#">
   <cc:Work>
    <dc:type rdf:resource="http://purl.org/dc/dcmitype/StillImage"/>
    <dc:date>2025-05-12T14:38:10.357231</dc:date>
    <dc:format>image/svg+xml</dc:format>
    <dc:creator>
     <cc:Agent>
      <dc:title>Matplotlib v3.10.1, https://matplotlib.org/</dc:title>
     </cc:Agent>
    </dc:creator>
   </cc:Work>
  </rdf:RDF>
 </metadata>
 <defs>
  <style type="text/css">*{stroke-linejoin: round; stroke-linecap: butt}</style>
 </defs>
 <g id="figure_1">
  <g id="patch_1">
   <path d="M 0 402.850937 
L 442.9 402.850937 
L 442.9 0 
L 0 0 
z
" style="fill: #ffffff"/>
  </g>
  <g id="axes_1">
   <g id="patch_2">
    <path d="M 83.3 347.438437 
L 418.1 347.438437 
L 418.1 14.798437 
L 83.3 14.798437 
z
" style="fill: #ffffff"/>
   </g>
   <g id="QuadContourSet_1">
    <path d="M 88.614287 347.438437 
L 93.92857 347.438437 
L 99.242859 347.438437 
L 104.557144 347.438437 
L 109.871427 347.438437 
L 115.185714 347.438437 
L 120.499997 347.438437 
L 125.814283 347.438437 
L 131.128569 347.438437 
L 136.442855 347.438437 
L 141.757141 347.438437 
L 147.071429 347.438437 
L 152.38573 347.438437 
L 157.699996 347.438437 
L 163.014302 347.438437 
L 168.328567 347.438437 
L 173.642872 347.438437 
L 178.957135 347.438437 
L 184.271443 347.438437 
L 189.585707 347.438437 
L 194.900012 347.438437 
L 200.214279 347.438437 
L 205.528586 347.438437 
L 210.842872 347.438437 
L 216.157154 347.438437 
L 221.471443 347.438437 
L 226.785726 347.438437 
L 232.100013 347.438437 
L 237.414298 347.438437 
L 242.728582 347.438437 
L 248.042868 347.438437 
L 253.357135 347.438437 
L 258.671418 347.438437 
L 263.985704 347.438437 
L 269.299992 347.438437 
L 274.614275 347.438437 
L 279.928558 347.438437 
L 285.242845 347.438437 
L 290.557131 347.438437 
L 295.871424 347.438437 
L 301.185713 347.438437 
L 306.499998 347.438437 
L 311.814284 347.438437 
L 317.128569 347.438437 
L 322.442855 347.438437 
L 327.757141 347.438437 
L 333.071426 347.438437 
L 338.385711 347.438437 
L 343.699997 347.438437 
L 349.014278 347.438437 
L 354.328564 347.438437 
L 359.642855 347.438437 
L 364.957142 347.438437 
L 370.271424 347.438437 
L 375.585714 347.438437 
L 380.899995 347.438437 
L 386.214281 347.438437 
L 391.52857 347.438437 
L 396.842859 347.438437 
L 402.15714 347.438437 
L 407.471429 347.438437 
L 412.785712 347.438437 
L 418.1 347.438437 
L 418.1 342.158436 
L 418.1 336.878439 
L 418.1 331.598435 
L 418.1 326.318437 
L 418.1 321.038439 
L 418.1 315.758438 
L 418.1 310.478441 
L 418.1 305.19844 
L 418.1 299.91844 
L 418.1 294.638439 
L 418.1 289.358439 
L 418.1 284.078437 
L 418.1 278.798422 
L 418.1 273.518441 
L 418.1 268.238422 
L 418.1 262.958442 
L 418.1 257.678423 
L 418.1 252.398445 
L 418.1 247.118424 
L 418.1 246.391501 
L 412.785712 246.928788 
L 411.063727 247.118424 
L 407.471429 247.530365 
L 402.15714 248.179616 
L 396.842859 248.858779 
L 391.52857 249.568245 
L 386.214281 250.30829 
L 380.899995 251.079386 
L 375.585714 251.881883 
L 372.363529 252.398445 
L 370.271424 252.74507 
L 364.957142 253.685419 
L 359.642855 254.654073 
L 354.328564 255.650886 
L 349.014278 256.675881 
L 343.971045 257.678423 
L 343.699997 257.733786 
L 338.385711 258.906132 
L 333.071426 260.098697 
L 327.757141 261.311255 
L 322.442855 262.543874 
L 320.754648 262.958442 
L 317.128569 263.865715 
L 311.814284 265.231728 
L 306.499998 266.605578 
L 301.185713 267.987444 
L 300.274124 268.238422 
L 295.871424 269.466589 
L 290.557131 270.959225 
L 285.242845 272.444765 
L 281.453769 273.518441 
L 279.928558 273.955618 
L 274.614275 275.532181 
L 269.299992 277.084505 
L 263.985704 278.613656 
L 263.369053 278.798422 
L 258.671418 280.214923 
L 253.357135 281.788363 
L 248.042868 283.321056 
L 245.430539 284.078437 
L 242.728582 284.866604 
L 237.414298 286.411229 
L 232.100013 287.898076 
L 226.785726 289.328873 
L 226.678049 289.358439 
L 221.471443 290.79431 
L 216.157154 292.189554 
L 210.842872 293.514878 
L 206.125532 294.638439 
L 205.528586 294.781741 
L 200.214279 296.049694 
L 194.900012 297.238431 
L 189.585707 298.351216 
L 184.271443 299.391023 
L 181.453173 299.91844 
L 178.957135 300.39046 
L 173.642872 301.34879 
L 168.328567 302.232938 
L 163.014302 303.047072 
L 157.699996 303.795285 
L 152.38573 304.481538 
L 147.071429 305.109784 
L 146.283592 305.19844 
L 141.757141 305.716678 
L 136.442855 306.273934 
L 131.128569 306.779905 
L 125.814283 307.238817 
L 120.499997 307.654766 
L 115.185714 308.031565 
L 109.871427 308.372773 
L 104.557144 308.68174 
L 99.242859 308.961517 
L 93.92857 309.214929 
L 88.614287 309.444562 
L 83.3 309.652779 
L 83.3 310.478441 
L 83.3 315.758438 
L 83.3 321.038439 
L 83.3 326.318437 
L 83.3 331.598435 
L 83.3 336.878439 
L 83.3 342.158436 
L 83.3 347.438437 
z
" clip-path="url(#p7e2c615cbe)" style="fill: #470e61"/>
    <path d="M 88.614287 309.444562 
L 93.92857 309.214929 
L 99.242859 308.961517 
L 104.557144 308.68174 
L 109.871427 308.372773 
L 115.185714 308.031565 
L 120.499997 307.654766 
L 125.814283 307.238817 
L 131.128569 306.779905 
L 136.442855 306.273934 
L 141.757141 305.716678 
L 146.283592 305.19844 
L 147.071429 305.109784 
L 152.38573 304.481538 
L 157.699996 303.795285 
L 163.014302 303.047072 
L 168.328567 302.232938 
L 173.642872 301.34879 
L 178.957135 300.39046 
L 181.453173 299.91844 
L 184.271443 299.391023 
L 189.585707 298.351216 
L 194.900012 297.238431 
L 200.214279 296.049694 
L 205.528586 294.781741 
L 206.125532 294.638439 
L 210.842872 293.514878 
L 216.157154 292.189554 
L 221.471443 290.79431 
L 226.678049 289.358439 
L 226.785726 289.328873 
L 232.100013 287.898076 
L 237.414298 286.411229 
L 242.728582 284.866604 
L 245.430539 284.078437 
L 248.042868 283.321056 
L 253.357135 281.788363 
L 258.671418 280.214923 
L 263.369053 278.798422 
L 263.985704 278.613656 
L 269.299992 277.084505 
L 274.614275 275.532181 
L 279.928558 273.955618 
L 281.453769 273.518441 
L 285.242845 272.444765 
L 290.557131 270.959225 
L 295.871424 269.466589 
L 300.274124 268.238422 
L 301.185713 267.987444 
L 306.499998 266.605578 
L 311.814284 265.231728 
L 317.128569 263.865715 
L 320.754648 262.958442 
L 322.442855 262.543874 
L 327.757141 261.311255 
L 333.071426 260.098697 
L 338.385711 258.906132 
L 343.699997 257.733786 
L 343.971045 257.678423 
L 349.014278 256.675881 
L 354.328564 255.650886 
L 359.642855 254.654073 
L 364.957142 253.685419 
L 370.271424 252.74507 
L 372.363529 252.398445 
L 375.585714 251.881883 
L 380.899995 251.079386 
L 386.214281 250.30829 
L 391.52857 249.568245 
L 396.842859 248.858779 
L 402.15714 248.179616 
L 407.471429 247.530365 
L 411.063727 247.118424 
L 412.785712 246.928788 
L 418.1 246.391501 
L 418.1 241.838445 
L 418.1 236.558426 
L 418.1 231.278444 
L 418.1 227.286875 
L 412.785712 227.822533 
L 407.471429 228.390218 
L 402.15714 228.991187 
L 396.842859 229.626692 
L 391.52857 230.29806 
L 386.214281 231.006692 
L 384.331118 231.278444 
L 380.899995 231.75958 
L 375.585714 232.552877 
L 370.271424 233.383754 
L 364.957142 234.253273 
L 359.642855 235.162696 
L 354.328564 236.113247 
L 352.000185 236.558426 
L 349.014278 237.11166 
L 343.699997 238.153227 
L 338.385711 239.232904 
L 333.071426 240.351682 
L 327.757141 241.510596 
L 326.348749 241.838445 
L 322.442855 242.716874 
L 317.128569 243.959568 
L 311.814284 245.235724 
L 306.499998 246.546155 
L 304.293573 247.118424 
L 301.185713 247.895751 
L 295.871424 249.274784 
L 290.557131 250.677994 
L 285.242845 252.105715 
L 284.206569 252.398445 
L 279.928558 253.560691 
L 274.614275 255.028937 
L 269.299992 256.508325 
L 265.165408 257.678423 
L 263.985704 257.999453 
L 258.671418 259.495389 
L 253.357135 260.986852 
L 248.042868 262.473032 
L 246.34693 262.958442 
L 242.728582 263.951214 
L 237.414298 265.409564 
L 232.100013 266.845504 
L 226.861094 268.238422 
L 226.785726 268.257632 
L 221.471443 269.637193 
L 216.157154 270.978136 
L 210.842872 272.279317 
L 205.620458 273.518441 
L 205.528586 273.539301 
L 200.214279 274.748812 
L 194.900012 275.906221 
L 189.585707 277.011256 
L 184.271443 278.063614 
L 180.407143 278.798422 
L 178.957135 279.061741 
L 173.642872 280.000082 
L 168.328567 280.881554 
L 163.014302 281.707499 
L 157.699996 282.479426 
L 152.38573 283.19906 
L 147.071429 283.868266 
L 145.320133 284.078437 
L 141.757141 284.486514 
L 136.442855 285.056104 
L 131.128569 285.580775 
L 125.814283 286.063359 
L 120.499997 286.506596 
L 115.185714 286.913248 
L 109.871427 287.285994 
L 104.557144 287.627385 
L 99.242859 287.939912 
L 93.92857 288.22589 
L 88.614287 288.487532 
L 83.3 288.726904 
L 83.3 289.358439 
L 83.3 294.638439 
L 83.3 299.91844 
L 83.3 305.19844 
L 83.3 309.652779 
z
" clip-path="url(#p7e2c615cbe)" style="fill: #482677"/>
    <path d="M 88.614287 288.487532 
L 93.92857 288.22589 
L 99.242859 287.939912 
L 104.557144 287.627385 
L 109.871427 287.285994 
L 115.185714 286.913248 
L 120.499997 286.506596 
L 125.814283 286.063359 
L 131.128569 285.580775 
L 136.442855 285.056104 
L 141.757141 284.486514 
L 145.320133 284.078437 
L 147.071429 283.868266 
L 152.38573 283.19906 
L 157.699996 282.479426 
L 163.014302 281.707499 
L 168.328567 280.881554 
L 173.642872 280.000082 
L 178.957135 279.061741 
L 180.407143 278.798422 
L 184.271443 278.063614 
L 189.585707 277.011256 
L 194.900012 275.906221 
L 200.214279 274.748812 
L 205.528586 273.539301 
L 205.620458 273.518441 
L 210.842872 272.279317 
L 216.157154 270.978136 
L 221.471443 269.637193 
L 226.785726 268.257632 
L 226.861094 268.238422 
L 232.100013 266.845504 
L 237.414298 265.409564 
L 242.728582 263.951214 
L 246.34693 262.958442 
L 248.042868 262.473032 
L 253.357135 260.986852 
L 258.671418 259.495389 
L 263.985704 257.999453 
L 265.165408 257.678423 
L 269.299992 256.508325 
L 274.614275 255.028937 
L 279.928558 253.560691 
L 284.206569 252.398445 
L 285.242845 252.105715 
L 290.557131 250.677994 
L 295.871424 249.274784 
L 301.185713 247.895751 
L 304.293573 247.118424 
L 306.499998 246.546155 
L 311.814284 245.235724 
L 317.128569 243.959568 
L 322.442855 242.716874 
L 326.348749 241.838445 
L 327.757141 241.510596 
L 333.071426 240.351682 
L 338.385711 239.232904 
L 343.699997 238.153227 
L 349.014278 237.11166 
L 352.000185 236.558426 
L 354.328564 236.113247 
L 359.642855 235.162696 
L 364.957142 234.253273 
L 370.271424 233.383754 
L 375.585714 232.552877 
L 380.899995 231.75958 
L 384.331118 231.278444 
L 386.214281 231.006692 
L 391.52857 230.29806 
L 396.842859 229.626692 
L 402.15714 228.991187 
L 407.471429 228.390218 
L 412.785712 227.822533 
L 418.1 227.286875 
L 418.1 225.998423 
L 418.1 220.718422 
L 418.1 215.438426 
L 418.1 213.011316 
L 412.785712 213.527692 
L 407.471429 214.077585 
L 402.15714 214.662577 
L 396.842859 215.284335 
L 395.635482 215.438426 
L 391.52857 215.930428 
L 386.214281 216.609176 
L 380.899995 217.326122 
L 375.585714 218.082798 
L 370.271424 218.880805 
L 364.957142 219.72182 
L 359.642855 220.607632 
L 359.029902 220.718422 
L 354.328564 221.515533 
L 349.014278 222.462704 
L 343.699997 223.453599 
L 338.385711 224.489702 
L 333.071426 225.572543 
L 331.111427 225.998423 
L 327.757141 226.682069 
L 322.442855 227.821352 
L 317.128569 229.003289 
L 311.814284 230.228972 
L 307.449662 231.278444 
L 306.499998 231.492697 
L 301.185713 232.763457 
L 295.871424 234.070675 
L 290.557131 235.414778 
L 286.181405 236.558426 
L 285.242845 236.788422 
L 279.928558 238.15541 
L 274.614275 239.548479 
L 269.299992 240.967144 
L 266.131365 241.838445 
L 263.985704 242.390794 
L 258.671418 243.79993 
L 253.357135 245.220524 
L 248.042868 246.651022 
L 246.350811 247.118424 
L 242.728582 248.053149 
L 237.414298 249.435154 
L 232.100013 250.810781 
L 226.785726 252.17762 
L 225.94152 252.398445 
L 221.471443 253.488155 
L 216.157154 254.768506 
L 210.842872 256.024339 
L 205.528586 257.253183 
L 203.682422 257.678423 
L 200.214279 258.421222 
L 194.900012 259.536159 
L 189.585707 260.612377 
L 184.271443 261.648334 
L 178.957135 262.642716 
L 177.233282 262.958442 
L 173.642872 263.567884 
L 168.328567 264.435002 
L 163.014302 265.256596 
L 157.699996 266.03297 
L 152.38573 266.764696 
L 147.071429 267.452589 
L 141.757141 268.097703 
L 140.552143 268.238422 
L 136.442855 268.681653 
L 131.128569 269.220015 
L 125.814283 269.720449 
L 120.499997 270.184884 
L 115.185714 270.615301 
L 109.871427 271.013692 
L 104.557144 271.382056 
L 99.242859 271.722345 
L 93.92857 272.036477 
L 88.614287 272.326287 
L 83.3 272.593537 
L 83.3 273.518441 
L 83.3 278.798422 
L 83.3 284.078437 
L 83.3 288.726904 
z
" clip-path="url(#p7e2c615cbe)" style="fill: #433d84"/>
    <path d="M 88.614287 272.326287 
L 93.92857 272.036477 
L 99.242859 271.722345 
L 104.557144 271.382056 
L 109.871427 271.013692 
L 115.185714 270.615301 
L 120.499997 270.184884 
L 125.814283 269.720449 
L 131.128569 269.220015 
L 136.442855 268.681653 
L 140.552143 268.238422 
L 141.757141 268.097703 
L 147.071429 267.452589 
L 152.38573 266.764696 
L 157.699996 266.03297 
L 163.014302 265.256596 
L 168.328567 264.435002 
L 173.642872 263.567884 
L 177.233282 262.958442 
L 178.957135 262.642716 
L 184.271443 261.648334 
L 189.585707 260.612377 
L 194.900012 259.536159 
L 200.214279 258.421222 
L 203.682422 257.678423 
L 205.528586 257.253183 
L 210.842872 256.024339 
L 216.157154 254.768506 
L 221.471443 253.488155 
L 225.94152 252.398445 
L 226.785726 252.17762 
L 232.100013 250.810781 
L 237.414298 249.435154 
L 242.728582 248.053149 
L 246.350811 247.118424 
L 248.042868 246.651022 
L 253.357135 245.220524 
L 258.671418 243.79993 
L 263.985704 242.390794 
L 266.131365 241.838445 
L 269.299992 240.967144 
L 274.614275 239.548479 
L 279.928558 238.15541 
L 285.242845 236.788422 
L 286.181405 236.558426 
L 290.557131 235.414778 
L 295.871424 234.070675 
L 301.185713 232.763457 
L 306.499998 231.492697 
L 307.449662 231.278444 
L 311.814284 230.228972 
L 317.128569 229.003289 
L 322.442855 227.821352 
L 327.757141 226.682069 
L 331.111427 225.998423 
L 333.071426 225.572543 
L 338.385711 224.489702 
L 343.699997 223.453599 
L 349.014278 222.462704 
L 354.328564 221.515533 
L 359.029902 220.718422 
L 359.642855 220.607632 
L 364.957142 219.72182 
L 370.271424 218.880805 
L 375.585714 218.082798 
L 380.899995 217.326122 
L 386.214281 216.609176 
L 391.52857 215.930428 
L 395.635482 215.438426 
L 396.842859 215.284335 
L 402.15714 214.662577 
L 407.471429 214.077585 
L 412.785712 213.527692 
L 418.1 213.011316 
L 418.1 210.158424 
L 418.1 204.878426 
L 418.1 200.402196 
L 412.785712 200.892456 
L 407.471429 201.415086 
L 402.15714 201.971663 
L 396.842859 202.563834 
L 391.52857 203.193333 
L 386.214281 203.861964 
L 380.899995 204.571634 
L 378.773329 204.878426 
L 375.585714 205.300063 
L 370.271424 206.052284 
L 364.957142 206.84613 
L 359.642855 207.683366 
L 354.328564 208.565795 
L 349.014278 209.495315 
L 345.446821 210.158424 
L 343.699997 210.456596 
L 338.385711 211.426765 
L 333.071426 212.442251 
L 327.757141 213.504584 
L 322.442855 214.615322 
L 318.703885 215.438426 
L 317.128569 215.757197 
L 311.814284 216.897748 
L 306.499998 218.081812 
L 301.185713 219.310268 
L 295.871424 220.584001 
L 295.341806 220.718422 
L 290.557131 221.834139 
L 285.242845 223.113054 
L 279.928558 224.428254 
L 274.614275 225.779541 
L 273.791868 225.998423 
L 269.299992 227.096685 
L 263.985704 228.426183 
L 258.671418 229.779332 
L 253.357135 231.154698 
L 252.895722 231.278444 
L 248.042868 232.472842 
L 242.728582 233.793242 
L 237.414298 235.120901 
L 232.100013 236.453337 
L 231.690476 236.558426 
L 226.785726 237.71136 
L 221.471443 238.955373 
L 216.157154 240.188911 
L 210.842872 241.409128 
L 208.978687 241.838445 
L 205.528586 242.564639 
L 200.214279 243.670854 
L 194.900012 244.751262 
L 189.585707 245.803636 
L 184.271443 246.825823 
L 182.731898 247.118424 
L 178.957135 247.77137 
L 173.642872 248.663485 
L 168.328567 249.519337 
L 163.014302 250.33819 
L 157.699996 251.119581 
L 152.38573 251.863323 
L 148.389877 252.398445 
L 147.071429 252.558403 
L 141.757141 253.182907 
L 136.442855 253.771385 
L 131.128569 254.324825 
L 125.814283 254.844324 
L 120.499997 255.331115 
L 115.185714 255.786556 
L 109.871427 256.21203 
L 104.557144 256.609003 
L 99.242859 256.978962 
L 93.92857 257.32339 
L 88.614287 257.643763 
L 88.015012 257.678423 
L 83.3 257.923988 
L 83.3 262.958442 
L 83.3 268.238422 
L 83.3 272.593537 
z
" clip-path="url(#p7e2c615cbe)" style="fill: #3b528b"/>
    <path d="M 88.015012 257.678423 
L 88.614287 257.643763 
L 93.92857 257.32339 
L 99.242859 256.978962 
L 104.557144 256.609003 
L 109.871427 256.21203 
L 115.185714 255.786556 
L 120.499997 255.331115 
L 125.814283 254.844324 
L 131.128569 254.324825 
L 136.442855 253.771385 
L 141.757141 253.182907 
L 147.071429 252.558403 
L 148.389877 252.398445 
L 152.38573 251.863323 
L 157.699996 251.119581 
L 163.014302 250.33819 
L 168.328567 249.519337 
L 173.642872 248.663485 
L 178.957135 247.77137 
L 182.731898 247.118424 
L 184.271443 246.825823 
L 189.585707 245.803636 
L 194.900012 244.751262 
L 200.214279 243.670854 
L 205.528586 242.564639 
L 208.978687 241.838445 
L 210.842872 241.409128 
L 216.157154 240.188911 
L 221.471443 238.955373 
L 226.785726 237.71136 
L 231.690476 236.558426 
L 232.100013 236.453337 
L 237.414298 235.120901 
L 242.728582 233.793242 
L 248.042868 232.472842 
L 252.895722 231.278444 
L 253.357135 231.154698 
L 258.671418 229.779332 
L 263.985704 228.426183 
L 269.299992 227.096685 
L 273.791868 225.998423 
L 274.614275 225.779541 
L 279.928558 224.428254 
L 285.242845 223.113054 
L 290.557131 221.834139 
L 295.341806 220.718422 
L 295.871424 220.584001 
L 301.185713 219.310268 
L 306.499998 218.081812 
L 311.814284 216.897748 
L 317.128569 215.757197 
L 318.703885 215.438426 
L 322.442855 214.615322 
L 327.757141 213.504584 
L 333.071426 212.442251 
L 338.385711 211.426765 
L 343.699997 210.456596 
L 345.446821 210.158424 
L 349.014278 209.495315 
L 354.328564 208.565795 
L 359.642855 207.683366 
L 364.957142 206.84613 
L 370.271424 206.052284 
L 375.585714 205.300063 
L 378.773329 204.878426 
L 380.899995 204.571634 
L 386.214281 203.861964 
L 391.52857 203.193333 
L 396.842859 202.563834 
L 402.15714 201.971663 
L 407.471429 201.415086 
L 412.785712 200.892456 
L 418.1 200.402196 
L 418.1 199.598424 
L 418.1 194.318425 
L 418.1 189.038427 
L 418.1 183.758427 
L 418.1 178.478445 
L 418.1 173.198448 
L 418.1 167.918447 
L 418.1 162.638446 
L 418.1 157.358448 
L 418.1 152.078451 
L 418.1 146.798449 
L 418.1 141.51845 
L 418.1 136.238442 
L 418.1 130.958438 
L 418.1 125.678439 
L 418.1 120.398439 
L 418.1 115.11844 
L 418.1 109.83844 
L 418.1 106.189773 
L 412.785712 106.586001 
L 407.471429 107.005951 
L 402.15714 107.450874 
L 396.842859 107.920294 
L 391.52857 108.41673 
L 386.214281 108.938465 
L 380.899995 109.487224 
L 377.700246 109.83844 
L 375.585714 110.096845 
L 370.271424 110.668791 
L 364.957142 111.194501 
L 359.642855 111.806359 
L 354.328564 112.44271 
L 349.014278 113.105708 
L 343.699997 113.792607 
L 338.385711 114.505853 
L 333.987425 115.11844 
L 333.071426 115.269816 
L 327.757141 115.940372 
L 322.442855 116.666596 
L 317.128569 117.41173 
L 311.814284 118.175922 
L 306.499998 118.956265 
L 301.185713 119.753596 
L 296.98915 120.398439 
L 295.871424 120.572554 
L 290.557131 121.317925 
L 285.242845 122.090957 
L 279.928558 122.871138 
L 274.614275 123.656794 
L 269.299992 124.446051 
L 263.985704 125.237595 
L 261.061096 125.678439 
L 258.671418 126.016237 
L 253.357135 126.733822 
L 248.042868 127.45858 
L 242.728582 128.177181 
L 237.414298 128.887403 
L 232.100013 129.587737 
L 226.785726 130.276728 
L 221.471443 130.953012 
L 221.429076 130.958438 
L 216.157154 131.565928 
L 210.842872 132.163109 
L 205.528586 132.744076 
L 200.214279 133.308107 
L 194.900012 133.854389 
L 189.585707 134.38275 
L 184.271443 134.892589 
L 178.957135 135.383596 
L 173.642872 135.855583 
L 169.171744 136.238442 
L 168.328567 136.341245 
L 163.014302 136.703846 
L 157.699996 137.086404 
L 152.38573 137.451116 
L 147.071429 137.7983 
L 141.757141 138.128309 
L 136.442855 138.441579 
L 131.128569 138.738567 
L 125.814283 139.019773 
L 120.499997 139.285723 
L 115.185714 139.536976 
L 109.871427 139.774068 
L 104.557144 139.997603 
L 99.242859 140.20813 
L 93.92857 140.406253 
L 88.614287 140.592534 
L 83.3 140.767567 
L 83.3 141.51845 
L 83.3 146.798449 
L 83.3 152.078451 
L 83.3 157.358448 
L 83.3 162.638446 
L 83.3 167.918447 
L 83.3 173.198448 
L 83.3 178.478445 
L 83.3 183.758427 
L 83.3 189.038427 
L 83.3 194.318425 
L 83.3 199.598424 
L 83.3 204.878426 
L 83.3 210.158424 
L 83.3 215.438426 
L 83.3 220.718422 
L 83.3 225.998423 
L 83.3 231.278444 
L 83.3 236.558426 
L 83.3 241.838445 
L 83.3 247.118424 
L 83.3 252.398445 
L 83.3 257.678423 
L 83.3 257.923988 
z
" clip-path="url(#p7e2c615cbe)" style="fill: #32658e"/>
    <path d="M 88.614287 140.592534 
L 93.92857 140.406253 
L 99.242859 140.20813 
L 104.557144 139.997603 
L 109.871427 139.774068 
L 115.185714 139.536976 
L 120.499997 139.285723 
L 125.814283 139.019773 
L 131.128569 138.738567 
L 136.442855 138.441579 
L 141.757141 138.128309 
L 147.071429 137.7983 
L 152.38573 137.451116 
L 157.699996 137.086404 
L 163.014302 136.703846 
L 168.328567 136.341245 
L 169.171744 136.238442 
L 173.642872 135.855583 
L 178.957135 135.383596 
L 184.271443 134.892589 
L 189.585707 134.38275 
L 194.900012 133.854389 
L 200.214279 133.308107 
L 205.528586 132.744076 
L 210.842872 132.163109 
L 216.157154 131.565928 
L 221.429076 130.958438 
L 221.471443 130.953012 
L 226.785726 130.276728 
L 232.100013 129.587737 
L 237.414298 128.887403 
L 242.728582 128.177181 
L 248.042868 127.45858 
L 253.357135 126.733822 
L 258.671418 126.016237 
L 261.061096 125.678439 
L 263.985704 125.237595 
L 269.299992 124.446051 
L 274.614275 123.656794 
L 279.928558 122.871138 
L 285.242845 122.090957 
L 290.557131 121.317925 
L 295.871424 120.572554 
L 296.98915 120.398439 
L 301.185713 119.753596 
L 306.499998 118.956265 
L 311.814284 118.175922 
L 317.128569 117.41173 
L 322.442855 116.666596 
L 327.757141 115.940372 
L 333.071426 115.269816 
L 333.987425 115.11844 
L 338.385711 114.505853 
L 343.699997 113.792607 
L 349.014278 113.105708 
L 354.328564 112.44271 
L 359.642855 111.806359 
L 364.957142 111.194501 
L 370.271424 110.668791 
L 375.585714 110.096845 
L 377.700246 109.83844 
L 380.899995 109.487224 
L 386.214281 108.938465 
L 391.52857 108.41673 
L 396.842859 107.920294 
L 402.15714 107.450874 
L 407.471429 107.005951 
L 412.785712 106.586001 
L 418.1 106.189773 
L 418.1 104.558439 
L 418.1 99.27844 
L 418.1 93.998441 
L 418.1 92.989998 
L 412.785712 93.390494 
L 407.471429 93.815356 
L 405.344413 93.998441 
L 402.15714 94.241999 
L 396.842859 94.675868 
L 391.52857 95.133151 
L 386.214281 95.613628 
L 380.899995 96.118068 
L 375.585714 96.64725 
L 370.271424 97.200828 
L 364.957142 97.779517 
L 359.642855 98.383091 
L 354.328564 99.012173 
L 352.200511 99.27844 
L 349.014278 99.633355 
L 343.699997 100.253452 
L 338.385711 100.895005 
L 333.071426 101.557582 
L 327.757141 102.240539 
L 322.442855 102.943195 
L 317.128569 103.66481 
L 311.814284 104.404482 
L 310.754028 104.558439 
L 306.499998 105.109187 
L 301.185713 105.813434 
L 295.871424 106.529308 
L 290.557131 107.255544 
L 285.242845 107.990597 
L 279.928558 108.73294 
L 274.614275 109.481003 
L 272.120841 109.83844 
L 269.299992 110.199005 
L 263.985704 110.887048 
L 258.671418 111.574105 
L 253.357135 112.258593 
L 248.042868 112.938942 
L 242.728582 113.613596 
L 237.414298 114.281074 
L 232.100013 114.939911 
L 230.664706 115.11844 
L 226.785726 115.547746 
L 221.471443 116.128716 
L 216.157154 116.697171 
L 210.842872 117.252167 
L 205.528586 117.792829 
L 200.214279 118.318444 
L 194.900012 118.828337 
L 189.585707 119.321975 
L 184.271443 119.798935 
L 178.957135 120.25889 
L 177.315232 120.398439 
L 173.642872 120.675016 
L 168.328567 121.062659 
L 163.014302 121.433947 
L 157.699996 121.789042 
L 152.38573 122.12805 
L 147.071429 122.45125 
L 141.757141 122.75893 
L 136.442855 123.051405 
L 131.128569 123.329071 
L 125.814283 123.592335 
L 120.499997 123.841648 
L 115.185714 124.077463 
L 109.871427 124.300284 
L 104.557144 124.510612 
L 99.242859 124.708941 
L 93.92857 124.895781 
L 88.614287 125.071662 
L 83.3 125.237071 
L 83.3 125.678439 
L 83.3 130.958438 
L 83.3 136.238442 
L 83.3 140.767567 
z
" clip-path="url(#p7e2c615cbe)" style="fill: #2a768e"/>
    <path d="M 88.614287 125.071662 
L 93.92857 124.895781 
L 99.242859 124.708941 
L 104.557144 124.510612 
L 109.871427 124.300284 
L 115.185714 124.077463 
L 120.499997 123.841648 
L 125.814283 123.592335 
L 131.128569 123.329071 
L 136.442855 123.051405 
L 141.757141 122.75893 
L 147.071429 122.45125 
L 152.38573 122.12805 
L 157.699996 121.789042 
L 163.014302 121.433947 
L 168.328567 121.062659 
L 173.642872 120.675016 
L 177.315232 120.398439 
L 178.957135 120.25889 
L 184.271443 119.798935 
L 189.585707 119.321975 
L 194.900012 118.828337 
L 200.214279 118.318444 
L 205.528586 117.792829 
L 210.842872 117.252167 
L 216.157154 116.697171 
L 221.471443 116.128716 
L 226.785726 115.547746 
L 230.664706 115.11844 
L 232.100013 114.939911 
L 237.414298 114.281074 
L 242.728582 113.613596 
L 248.042868 112.938942 
L 253.357135 112.258593 
L 258.671418 111.574105 
L 263.985704 110.887048 
L 269.299992 110.199005 
L 272.120841 109.83844 
L 274.614275 109.481003 
L 279.928558 108.73294 
L 285.242845 107.990597 
L 290.557131 107.255544 
L 295.871424 106.529308 
L 301.185713 105.813434 
L 306.499998 105.109187 
L 310.754028 104.558439 
L 311.814284 104.404482 
L 317.128569 103.66481 
L 322.442855 102.943195 
L 327.757141 102.240539 
L 333.071426 101.557582 
L 338.385711 100.895005 
L 343.699997 100.253452 
L 349.014278 99.633355 
L 352.200511 99.27844 
L 354.328564 99.012173 
L 359.642855 98.383091 
L 364.957142 97.779517 
L 370.271424 97.200828 
L 375.585714 96.64725 
L 380.899995 96.118068 
L 386.214281 95.613628 
L 391.52857 95.133151 
L 396.842859 94.675868 
L 402.15714 94.241999 
L 405.344413 93.998441 
L 407.471429 93.815356 
L 412.785712 93.390494 
L 418.1 92.989998 
L 418.1 88.718441 
L 418.1 83.438445 
L 418.1 79.277927 
L 412.785712 79.641607 
L 407.471429 80.026214 
L 402.15714 80.432229 
L 396.842859 80.860195 
L 391.52857 81.310508 
L 386.214281 81.783627 
L 380.899995 82.279901 
L 375.585714 82.799583 
L 370.271424 83.342978 
L 369.396847 83.438445 
L 364.957142 83.864571 
L 359.642855 84.397739 
L 354.328564 84.951526 
L 349.014278 85.525722 
L 343.699997 86.120117 
L 338.385711 86.734329 
L 333.071426 87.367835 
L 327.757141 88.020054 
L 322.442855 88.690245 
L 322.229779 88.718441 
L 317.128569 89.313574 
L 311.814284 89.947612 
L 306.499998 90.594066 
L 301.185713 91.251811 
L 295.871424 91.919637 
L 290.557131 92.596257 
L 285.242845 93.280261 
L 279.928558 93.970178 
L 279.71697 93.998441 
L 274.614275 94.59988 
L 269.299992 95.228324 
L 263.985704 95.856822 
L 258.671418 96.483897 
L 253.357135 97.108122 
L 248.042868 97.728061 
L 242.728582 98.342302 
L 237.414298 98.949488 
L 234.52776 99.27844 
L 232.100013 99.522316 
L 226.785726 100.054215 
L 221.471443 100.575677 
L 216.157154 101.085802 
L 210.842872 101.583692 
L 205.528586 102.068663 
L 200.214279 102.540051 
L 194.900012 102.997257 
L 189.585707 103.439844 
L 184.271443 103.867422 
L 178.957135 104.279716 
L 175.256686 104.558439 
L 173.642872 104.665173 
L 168.328567 105.009552 
L 163.014302 105.339524 
L 157.699996 105.6552 
L 152.38573 105.956719 
L 147.071429 106.244285 
L 141.757141 106.518147 
L 136.442855 106.778603 
L 131.128569 107.02595 
L 125.814283 107.260577 
L 120.499997 107.48287 
L 115.185714 107.693204 
L 109.871427 107.892028 
L 104.557144 108.079792 
L 99.242859 108.256908 
L 93.92857 108.423827 
L 88.614287 108.58102 
L 83.3 108.728897 
L 83.3 109.83844 
L 83.3 115.11844 
L 83.3 120.398439 
L 83.3 125.237071 
z
" clip-path="url(#p7e2c615cbe)" style="fill: #24878e"/>
    <path d="M 88.614287 108.58102 
L 93.92857 108.423827 
L 99.242859 108.256908 
L 104.557144 108.079792 
L 109.871427 107.892028 
L 115.185714 107.693204 
L 120.499997 107.48287 
L 125.814283 107.260577 
L 131.128569 107.02595 
L 136.442855 106.778603 
L 141.757141 106.518147 
L 147.071429 106.244285 
L 152.38573 105.956719 
L 157.699996 105.6552 
L 163.014302 105.339524 
L 168.328567 105.009552 
L 173.642872 104.665173 
L 175.256686 104.558439 
L 178.957135 104.279716 
L 184.271443 103.867422 
L 189.585707 103.439844 
L 194.900012 102.997257 
L 200.214279 102.540051 
L 205.528586 102.068663 
L 210.842872 101.583692 
L 216.157154 101.085802 
L 221.471443 100.575677 
L 226.785726 100.054215 
L 232.100013 99.522316 
L 234.52776 99.27844 
L 237.414298 98.949488 
L 242.728582 98.342302 
L 248.042868 97.728061 
L 253.357135 97.108122 
L 258.671418 96.483897 
L 263.985704 95.856822 
L 269.299992 95.228324 
L 274.614275 94.59988 
L 279.71697 93.998441 
L 279.928558 93.970178 
L 285.242845 93.280261 
L 290.557131 92.596257 
L 295.871424 91.919637 
L 301.185713 91.251811 
L 306.499998 90.594066 
L 311.814284 89.947612 
L 317.128569 89.313574 
L 322.229779 88.718441 
L 322.442855 88.690245 
L 327.757141 88.020054 
L 333.071426 87.367835 
L 338.385711 86.734329 
L 343.699997 86.120117 
L 349.014278 85.525722 
L 354.328564 84.951526 
L 359.642855 84.397739 
L 364.957142 83.864571 
L 369.396847 83.438445 
L 370.271424 83.342978 
L 375.585714 82.799583 
L 380.899995 82.279901 
L 386.214281 81.783627 
L 391.52857 81.310508 
L 396.842859 80.860195 
L 402.15714 80.432229 
L 407.471429 80.026214 
L 412.785712 79.641607 
L 418.1 79.277927 
L 418.1 78.158445 
L 418.1 72.878439 
L 418.1 67.598438 
L 418.1 64.484693 
L 412.785712 64.83648 
L 407.471429 65.207782 
L 402.15714 65.598959 
L 396.842859 66.010356 
L 391.52857 66.442304 
L 386.214281 66.894983 
L 380.899995 67.36868 
L 378.467887 67.598438 
L 375.585714 67.835375 
L 370.271424 68.296221 
L 364.957142 68.775337 
L 359.642855 69.272544 
L 354.328564 69.787609 
L 349.014278 70.320227 
L 343.699997 70.869978 
L 338.385711 71.436315 
L 333.071426 72.018661 
L 327.757141 72.616285 
L 325.511809 72.878439 
L 322.442855 73.191406 
L 317.128569 73.750387 
L 311.814284 74.319763 
L 306.499998 74.898542 
L 301.185713 75.485568 
L 295.871424 76.07973 
L 290.557131 76.679749 
L 285.242845 77.284335 
L 279.928558 77.892135 
L 277.637247 78.158445 
L 274.614275 78.465844 
L 269.299992 79.011593 
L 263.985704 79.555873 
L 258.671418 80.097408 
L 253.357135 80.634999 
L 248.042868 81.167417 
L 242.728582 81.693515 
L 237.414298 82.212175 
L 232.100013 82.722366 
L 226.785726 83.223036 
L 224.484329 83.438445 
L 221.471443 83.684952 
L 216.157154 84.114266 
L 210.842872 84.53254 
L 205.528586 84.93919 
L 200.214279 85.333747 
L 194.900012 85.71582 
L 189.585707 86.085059 
L 184.271443 86.44124 
L 178.957135 86.784194 
L 173.642872 87.113792 
L 168.328567 87.430041 
L 163.014302 87.732988 
L 157.699996 88.022683 
L 152.38573 88.299281 
L 147.071429 88.563042 
L 143.821452 88.718441 
L 141.757141 88.804369 
L 136.442855 89.018678 
L 131.128569 89.222106 
L 125.814283 89.414938 
L 120.499997 89.597543 
L 115.185714 89.770255 
L 109.871427 89.933439 
L 104.557144 90.087445 
L 99.242859 90.232707 
L 93.92857 90.369538 
L 88.614287 90.498361 
L 83.3 90.619521 
L 83.3 93.998441 
L 83.3 99.27844 
L 83.3 104.558439 
L 83.3 108.728897 
z
" clip-path="url(#p7e2c615cbe)" style="fill: #1f998a"/>
    <path d="M 88.614287 90.498361 
L 93.92857 90.369538 
L 99.242859 90.232707 
L 104.557144 90.087445 
L 109.871427 89.933439 
L 115.185714 89.770255 
L 120.499997 89.597543 
L 125.814283 89.414938 
L 131.128569 89.222106 
L 136.442855 89.018678 
L 141.757141 88.804369 
L 143.821452 88.718441 
L 147.071429 88.563042 
L 152.38573 88.299281 
L 157.699996 88.022683 
L 163.014302 87.732988 
L 168.328567 87.430041 
L 173.642872 87.113792 
L 178.957135 86.784194 
L 184.271443 86.44124 
L 189.585707 86.085059 
L 194.900012 85.71582 
L 200.214279 85.333747 
L 205.528586 84.93919 
L 210.842872 84.53254 
L 216.157154 84.114266 
L 221.471443 83.684952 
L 224.484329 83.438445 
L 226.785726 83.223036 
L 232.100013 82.722366 
L 237.414298 82.212175 
L 242.728582 81.693515 
L 248.042868 81.167417 
L 253.357135 80.634999 
L 258.671418 80.097408 
L 263.985704 79.555873 
L 269.299992 79.011593 
L 274.614275 78.465844 
L 277.637247 78.158445 
L 279.928558 77.892135 
L 285.242845 77.284335 
L 290.557131 76.679749 
L 295.871424 76.07973 
L 301.185713 75.485568 
L 306.499998 74.898542 
L 311.814284 74.319763 
L 317.128569 73.750387 
L 322.442855 73.191406 
L 325.511809 72.878439 
L 327.757141 72.616285 
L 333.071426 72.018661 
L 338.385711 71.436315 
L 343.699997 70.869978 
L 349.014278 70.320227 
L 354.328564 69.787609 
L 359.642855 69.272544 
L 364.957142 68.775337 
L 370.271424 68.296221 
L 375.585714 67.835375 
L 378.467887 67.598438 
L 380.899995 67.36868 
L 386.214281 66.894983 
L 391.52857 66.442304 
L 396.842859 66.010356 
L 402.15714 65.598959 
L 407.471429 65.207782 
L 412.785712 64.83648 
L 418.1 64.484693 
L 418.1 62.318442 
L 418.1 57.038437 
L 418.1 51.758443 
L 418.1 47.940514 
L 412.785712 48.262633 
L 407.471429 48.60141 
L 402.15714 48.957006 
L 396.842859 49.329543 
L 391.52857 49.719124 
L 386.214281 50.12574 
L 380.899995 50.549373 
L 375.585714 50.98989 
L 370.271424 51.44709 
L 366.809794 51.758443 
L 364.957142 51.902398 
L 359.642855 52.336492 
L 354.328564 52.784076 
L 349.014278 53.244637 
L 343.699997 53.717626 
L 338.385711 54.202419 
L 333.071426 54.698279 
L 327.757141 55.204448 
L 322.442855 55.720021 
L 317.128569 56.24406 
L 311.814284 56.775573 
L 309.248444 57.038437 
L 306.499998 57.282678 
L 301.185713 57.764812 
L 295.871424 58.250212 
L 290.557131 58.737773 
L 285.242845 59.226422 
L 279.928558 59.715033 
L 274.614275 60.202513 
L 269.299992 60.687716 
L 263.985704 61.169568 
L 258.671418 61.646998 
L 253.357135 62.118944 
L 251.111823 62.318442 
L 248.042868 62.555335 
L 242.728582 62.963197 
L 237.414298 63.363486 
L 232.100013 63.755552 
L 226.785726 64.138691 
L 221.471443 64.512338 
L 216.157154 64.875925 
L 210.842872 65.229065 
L 205.528586 65.571343 
L 200.214279 65.902462 
L 194.900012 66.222152 
L 189.585707 66.530251 
L 184.271443 66.826671 
L 178.957135 67.111343 
L 173.642872 67.384259 
L 169.309763 67.598438 
L 168.328567 67.640497 
L 163.014302 67.863589 
L 157.699996 68.076399 
L 152.38573 68.279189 
L 147.071429 68.472119 
L 141.757141 68.655443 
L 136.442855 68.829416 
L 131.128569 68.994304 
L 125.814283 69.150398 
L 120.499997 69.298017 
L 115.185714 69.437463 
L 109.871427 69.569059 
L 104.557144 69.693152 
L 99.242859 69.810011 
L 93.92857 69.920034 
L 88.614287 70.023505 
L 83.3 70.120732 
L 83.3 72.878439 
L 83.3 78.158445 
L 83.3 83.438445 
L 83.3 88.718441 
L 83.3 90.619521 
z
" clip-path="url(#p7e2c615cbe)" style="fill: #24aa83"/>
    <path d="M 88.614287 70.023505 
L 93.92857 69.920034 
L 99.242859 69.810011 
L 104.557144 69.693152 
L 109.871427 69.569059 
L 115.185714 69.437463 
L 120.499997 69.298017 
L 125.814283 69.150398 
L 131.128569 68.994304 
L 136.442855 68.829416 
L 141.757141 68.655443 
L 147.071429 68.472119 
L 152.38573 68.279189 
L 157.699996 68.076399 
L 163.014302 67.863589 
L 168.328567 67.640497 
L 169.309763 67.598438 
L 173.642872 67.384259 
L 178.957135 67.111343 
L 184.271443 66.826671 
L 189.585707 66.530251 
L 194.900012 66.222152 
L 200.214279 65.902462 
L 205.528586 65.571343 
L 210.842872 65.229065 
L 216.157154 64.875925 
L 221.471443 64.512338 
L 226.785726 64.138691 
L 232.100013 63.755552 
L 237.414298 63.363486 
L 242.728582 62.963197 
L 248.042868 62.555335 
L 251.111823 62.318442 
L 253.357135 62.118944 
L 258.671418 61.646998 
L 263.985704 61.169568 
L 269.299992 60.687716 
L 274.614275 60.202513 
L 279.928558 59.715033 
L 285.242845 59.226422 
L 290.557131 58.737773 
L 295.871424 58.250212 
L 301.185713 57.764812 
L 306.499998 57.282678 
L 309.248444 57.038437 
L 311.814284 56.775573 
L 317.128569 56.24406 
L 322.442855 55.720021 
L 327.757141 55.204448 
L 333.071426 54.698279 
L 338.385711 54.202419 
L 343.699997 53.717626 
L 349.014278 53.244637 
L 354.328564 52.784076 
L 359.642855 52.336492 
L 364.957142 51.902398 
L 366.809794 51.758443 
L 370.271424 51.44709 
L 375.585714 50.98989 
L 380.899995 50.549373 
L 386.214281 50.12574 
L 391.52857 49.719124 
L 396.842859 49.329543 
L 402.15714 48.957006 
L 407.471429 48.60141 
L 412.785712 48.262633 
L 418.1 47.940514 
L 418.1 46.478442 
L 418.1 41.198439 
L 418.1 35.918436 
L 418.1 30.638441 
L 418.1 25.358437 
L 418.1 20.07844 
L 418.1 14.798437 
L 412.785712 14.798437 
L 407.471429 14.798437 
L 402.15714 14.798437 
L 396.842859 14.798437 
L 391.52857 14.798437 
L 386.214281 14.798437 
L 380.899995 14.798437 
L 375.585714 14.798437 
L 370.271424 14.798437 
L 364.957142 14.798437 
L 359.642855 14.798437 
L 354.328564 14.798437 
L 349.014278 14.798437 
L 343.699997 14.798437 
L 338.385711 14.798437 
L 333.071426 14.798437 
L 327.757141 14.798437 
L 322.442855 14.798437 
L 317.128569 14.798437 
L 311.814284 14.798437 
L 306.499998 14.798437 
L 301.185713 14.798437 
L 295.871424 14.798437 
L 290.557131 14.798437 
L 285.242845 14.798437 
L 279.928558 14.798437 
L 274.614275 14.798437 
L 269.299992 14.798437 
L 263.985704 14.798437 
L 258.671418 14.798437 
L 253.357135 14.798437 
L 248.042868 14.798437 
L 242.728582 14.798437 
L 237.414298 14.798437 
L 232.100013 14.798437 
L 226.785726 14.798437 
L 221.471443 14.798437 
L 216.157154 14.798437 
L 210.842872 14.798437 
L 205.528586 14.798437 
L 200.214279 14.798437 
L 194.900012 14.798437 
L 189.585707 14.798437 
L 184.271443 14.798437 
L 178.957135 14.798437 
L 173.642872 14.798437 
L 168.328567 14.798437 
L 163.014302 14.798437 
L 157.699996 14.798437 
L 152.38573 14.798437 
L 147.071429 14.798437 
L 141.757141 14.798437 
L 136.442855 14.798437 
L 131.128569 14.798437 
L 125.814283 14.798437 
L 120.499997 14.798437 
L 115.185714 14.798437 
L 109.871427 14.798437 
L 104.557144 14.798437 
L 99.242859 14.798437 
L 93.92857 14.798437 
L 88.614287 14.798437 
L 83.3 14.798437 
L 83.3 20.07844 
L 83.3 25.358437 
L 83.3 30.638441 
L 83.3 35.918436 
L 83.3 41.198439 
L 83.3 46.478442 
L 83.3 51.758443 
L 83.3 57.038437 
L 83.3 62.318442 
L 83.3 67.598438 
L 83.3 70.120732 
z
" clip-path="url(#p7e2c615cbe)" style="fill: #3aba76"/>
    <path clip-path="url(#p7e2c615cbe)" style="fill: #5ec962"/>
    <path clip-path="url(#p7e2c615cbe)" style="fill: #89d548"/>
    <path clip-path="url(#p7e2c615cbe)" style="fill: #b8de29"/>
    <path clip-path="url(#p7e2c615cbe)" style="fill: #e7e419"/>
   </g>
   <g id="matplotlib.axis_1">
    <g id="xtick_1">
     <g id="line2d_1">
      <defs>
       <path id="m2c374206f7" d="M 0 0 
L 0 2 
" style="stroke: #000000; stroke-width: 1.5"/>
      </defs>
      <g>
       <use xlink:href="#m2c374206f7" x="83.300002" y="347.438437" style="stroke: #000000; stroke-width: 1.5"/>
      </g>
     </g>
     <g id="text_1">
      <!-- $\mathdefault{10^{-2}}$ -->
      <g transform="translate(59.800002 368.135312) scale(0.2 -0.2)">
       <defs>
        <path id="DejaVuSans-31" d="M 794 531 
L 1825 531 
L 1825 4091 
L 703 3866 
L 703 4441 
L 1819 4666 
L 2450 4666 
L 2450 531 
L 3481 531 
L 3481 0 
L 794 0 
L 794 531 
z
" transform="scale(0.015625)"/>
        <path id="DejaVuSans-30" d="M 2034 4250 
Q 1547 4250 1301 3770 
Q 1056 3291 1056 2328 
Q 1056 1369 1301 889 
Q 1547 409 2034 409 
Q 2525 409 2770 889 
Q 3016 1369 3016 2328 
Q 3016 3291 2770 3770 
Q 2525 4250 2034 4250 
z
M 2034 4750 
Q 2819 4750 3233 4129 
Q 3647 3509 3647 2328 
Q 3647 1150 3233 529 
Q 2819 -91 2034 -91 
Q 1250 -91 836 529 
Q 422 1150 422 2328 
Q 422 3509 836 4129 
Q 1250 4750 2034 4750 
z
" transform="scale(0.015625)"/>
        <path id="DejaVuSans-2212" d="M 678 2272 
L 4684 2272 
L 4684 1741 
L 678 1741 
L 678 2272 
z
" transform="scale(0.015625)"/>
        <path id="DejaVuSans-32" d="M 1228 531 
L 3431 531 
L 3431 0 
L 469 0 
L 469 531 
Q 828 903 1448 1529 
Q 2069 2156 2228 2338 
Q 2531 2678 2651 2914 
Q 2772 3150 2772 3378 
Q 2772 3750 2511 3984 
Q 2250 4219 1831 4219 
Q 1534 4219 1204 4116 
Q 875 4013 500 3803 
L 500 4441 
Q 881 4594 1212 4672 
Q 1544 4750 1819 4750 
Q 2544 4750 2975 4387 
Q 3406 4025 3406 3419 
Q 3406 3131 3298 2873 
Q 3191 2616 2906 2266 
Q 2828 2175 2409 1742 
Q 1991 1309 1228 531 
z
" transform="scale(0.015625)"/>
       </defs>
       <use xlink:href="#DejaVuSans-31" transform="translate(0 0.765625)"/>
       <use xlink:href="#DejaVuSans-30" transform="translate(63.623047 0.765625)"/>
       <use xlink:href="#DejaVuSans-2212" transform="translate(128.203125 39.046875) scale(0.7)"/>
       <use xlink:href="#DejaVuSans-32" transform="translate(186.855469 39.046875) scale(0.7)"/>
      </g>
     </g>
    </g>
    <g id="xtick_2">
     <g id="line2d_2">
      <g>
       <use xlink:href="#m2c374206f7" x="250.700001" y="347.438437" style="stroke: #000000; stroke-width: 1.5"/>
      </g>
     </g>
     <g id="text_2">
      <!-- $\mathdefault{10^{-1}}$ -->
      <g transform="translate(227.200001 368.135312) scale(0.2 -0.2)">
       <use xlink:href="#DejaVuSans-31" transform="translate(0 0.684375)"/>
       <use xlink:href="#DejaVuSans-30" transform="translate(63.623047 0.684375)"/>
       <use xlink:href="#DejaVuSans-2212" transform="translate(128.203125 38.965625) scale(0.7)"/>
       <use xlink:href="#DejaVuSans-31" transform="translate(186.855469 38.965625) scale(0.7)"/>
      </g>
     </g>
    </g>
    <g id="xtick_3">
     <g id="line2d_3">
      <g>
       <use xlink:href="#m2c374206f7" x="418.1" y="347.438437" style="stroke: #000000; stroke-width: 1.5"/>
      </g>
     </g>
     <g id="text_3">
      <!-- $\mathdefault{10^{0}}$ -->
      <g transform="translate(400.5 368.135312) scale(0.2 -0.2)">
       <use xlink:href="#DejaVuSans-31" transform="translate(0 0.765625)"/>
       <use xlink:href="#DejaVuSans-30" transform="translate(63.623047 0.765625)"/>
       <use xlink:href="#DejaVuSans-30" transform="translate(128.203125 39.046875) scale(0.7)"/>
      </g>
     </g>
    </g>
    <g id="xtick_4">
     <g id="line2d_4">
      <defs>
       <path id="m6a375d7091" d="M 0 0 
L 0 2 
" style="stroke: #000000; stroke-width: 0.6"/>
      </defs>
      <g>
       <use xlink:href="#m6a375d7091" x="133.692423" y="347.438437" style="stroke: #000000; stroke-width: 0.6"/>
      </g>
     </g>
    </g>
    <g id="xtick_5">
     <g id="line2d_5">
      <g>
       <use xlink:href="#m6a375d7091" x="163.170099" y="347.438437" style="stroke: #000000; stroke-width: 0.6"/>
      </g>
     </g>
    </g>
    <g id="xtick_6">
     <g id="line2d_6">
      <g>
       <use xlink:href="#m6a375d7091" x="184.084844" y="347.438437" style="stroke: #000000; stroke-width: 0.6"/>
      </g>
     </g>
    </g>
    <g id="xtick_7">
     <g id="line2d_7">
      <g>
       <use xlink:href="#m6a375d7091" x="200.30758" y="347.438437" style="stroke: #000000; stroke-width: 0.6"/>
      </g>
     </g>
    </g>
    <g id="xtick_8">
     <g id="line2d_8">
      <g>
       <use xlink:href="#m6a375d7091" x="213.56252" y="347.438437" style="stroke: #000000; stroke-width: 0.6"/>
      </g>
     </g>
    </g>
    <g id="xtick_9">
     <g id="line2d_9">
      <g>
       <use xlink:href="#m6a375d7091" x="224.769413" y="347.438437" style="stroke: #000000; stroke-width: 0.6"/>
      </g>
     </g>
    </g>
    <g id="xtick_10">
     <g id="line2d_10">
      <g>
       <use xlink:href="#m6a375d7091" x="234.477265" y="347.438437" style="stroke: #000000; stroke-width: 0.6"/>
      </g>
     </g>
    </g>
    <g id="xtick_11">
     <g id="line2d_11">
      <g>
       <use xlink:href="#m6a375d7091" x="243.040197" y="347.438437" style="stroke: #000000; stroke-width: 0.6"/>
      </g>
     </g>
    </g>
    <g id="xtick_12">
     <g id="line2d_12">
      <g>
       <use xlink:href="#m6a375d7091" x="301.092422" y="347.438437" style="stroke: #000000; stroke-width: 0.6"/>
      </g>
     </g>
    </g>
    <g id="xtick_13">
     <g id="line2d_13">
      <g>
       <use xlink:href="#m6a375d7091" x="330.570098" y="347.438437" style="stroke: #000000; stroke-width: 0.6"/>
      </g>
     </g>
    </g>
    <g id="xtick_14">
     <g id="line2d_14">
      <g>
       <use xlink:href="#m6a375d7091" x="351.484843" y="347.438437" style="stroke: #000000; stroke-width: 0.6"/>
      </g>
     </g>
    </g>
    <g id="xtick_15">
     <g id="line2d_15">
      <g>
       <use xlink:href="#m6a375d7091" x="367.707579" y="347.438437" style="stroke: #000000; stroke-width: 0.6"/>
      </g>
     </g>
    </g>
    <g id="xtick_16">
     <g id="line2d_16">
      <g>
       <use xlink:href="#m6a375d7091" x="380.962519" y="347.438437" style="stroke: #000000; stroke-width: 0.6"/>
      </g>
     </g>
    </g>
    <g id="xtick_17">
     <g id="line2d_17">
      <g>
       <use xlink:href="#m6a375d7091" x="392.169412" y="347.438437" style="stroke: #000000; stroke-width: 0.6"/>
      </g>
     </g>
    </g>
    <g id="xtick_18">
     <g id="line2d_18">
      <g>
       <use xlink:href="#m6a375d7091" x="401.877264" y="347.438437" style="stroke: #000000; stroke-width: 0.6"/>
      </g>
     </g>
    </g>
    <g id="xtick_19">
     <g id="line2d_19">
      <g>
       <use xlink:href="#m6a375d7091" x="410.440196" y="347.438437" style="stroke: #000000; stroke-width: 0.6"/>
      </g>
     </g>
    </g>
    <g id="text_4">
     <!-- $\lambda$ -->
     <g transform="translate(244.7 391.491562) scale(0.2 -0.2)">
      <defs>
       <path id="DejaVuSans-Oblique-3bb" d="M 2350 4316 
L 3125 0 
L 2516 0 
L 2038 2588 
L 328 0 
L -281 0 
L 1903 3356 
L 1794 3975 
Q 1725 4369 1391 4369 
L 1091 4369 
L 1184 4863 
L 1550 4856 
Q 2253 4847 2350 4316 
z
" transform="scale(0.015625)"/>
      </defs>
      <use xlink:href="#DejaVuSans-Oblique-3bb" transform="translate(0 0.015625)"/>
     </g>
    </g>
   </g>
   <g id="matplotlib.axis_2">
    <g id="ytick_1">
     <g id="line2d_20">
      <defs>
       <path id="m0535173993" d="M 0 0 
L -2 0 
" style="stroke: #000000; stroke-width: 1.5"/>
      </defs>
      <g>
       <use xlink:href="#m0535173993" x="83.3" y="347.438436" style="stroke: #000000; stroke-width: 1.5"/>
      </g>
     </g>
     <g id="text_5">
      <!-- $\mathdefault{10^{-2}}$ -->
      <g transform="translate(30.8 355.036873) scale(0.2 -0.2)">
       <use xlink:href="#DejaVuSans-31" transform="translate(0 0.765625)"/>
       <use xlink:href="#DejaVuSans-30" transform="translate(63.623047 0.765625)"/>
       <use xlink:href="#DejaVuSans-2212" transform="translate(128.203125 39.046875) scale(0.7)"/>
       <use xlink:href="#DejaVuSans-32" transform="translate(186.855469 39.046875) scale(0.7)"/>
      </g>
     </g>
    </g>
    <g id="ytick_2">
     <g id="line2d_21">
      <g>
       <use xlink:href="#m0535173993" x="83.3" y="181.118437" style="stroke: #000000; stroke-width: 1.5"/>
      </g>
     </g>
     <g id="text_6">
      <!-- $\mathdefault{10^{-1}}$ -->
      <g transform="translate(30.8 188.716874) scale(0.2 -0.2)">
       <use xlink:href="#DejaVuSans-31" transform="translate(0 0.684375)"/>
       <use xlink:href="#DejaVuSans-30" transform="translate(63.623047 0.684375)"/>
       <use xlink:href="#DejaVuSans-2212" transform="translate(128.203125 38.965625) scale(0.7)"/>
       <use xlink:href="#DejaVuSans-31" transform="translate(186.855469 38.965625) scale(0.7)"/>
      </g>
     </g>
    </g>
    <g id="ytick_3">
     <g id="line2d_22">
      <g>
       <use xlink:href="#m0535173993" x="83.3" y="14.798437" style="stroke: #000000; stroke-width: 1.5"/>
      </g>
     </g>
     <g id="text_7">
      <!-- $\mathdefault{10^{0}}$ -->
      <g transform="translate(42.6 22.396875) scale(0.2 -0.2)">
       <use xlink:href="#DejaVuSans-31" transform="translate(0 0.765625)"/>
       <use xlink:href="#DejaVuSans-30" transform="translate(63.623047 0.765625)"/>
       <use xlink:href="#DejaVuSans-30" transform="translate(128.203125 39.046875) scale(0.7)"/>
      </g>
     </g>
    </g>
    <g id="ytick_4">
     <g id="line2d_23">
      <defs>
       <path id="m0c17c0527a" d="M 0 0 
L -2 0 
" style="stroke: #000000; stroke-width: 0.6"/>
      </defs>
      <g>
       <use xlink:href="#m0c17c0527a" x="83.3" y="297.371127" style="stroke: #000000; stroke-width: 0.6"/>
      </g>
     </g>
    </g>
    <g id="ytick_5">
     <g id="line2d_24">
      <g>
       <use xlink:href="#m0c17c0527a" x="83.3" y="268.083629" style="stroke: #000000; stroke-width: 0.6"/>
      </g>
     </g>
    </g>
    <g id="ytick_6">
     <g id="line2d_25">
      <g>
       <use xlink:href="#m0c17c0527a" x="83.3" y="247.303819" style="stroke: #000000; stroke-width: 0.6"/>
      </g>
     </g>
    </g>
    <g id="ytick_7">
     <g id="line2d_26">
      <g>
       <use xlink:href="#m0c17c0527a" x="83.3" y="231.185745" style="stroke: #000000; stroke-width: 0.6"/>
      </g>
     </g>
    </g>
    <g id="ytick_8">
     <g id="line2d_27">
      <g>
       <use xlink:href="#m0c17c0527a" x="83.3" y="218.016321" style="stroke: #000000; stroke-width: 0.6"/>
      </g>
     </g>
    </g>
    <g id="ytick_9">
     <g id="line2d_28">
      <g>
       <use xlink:href="#m0c17c0527a" x="83.3" y="206.881731" style="stroke: #000000; stroke-width: 0.6"/>
      </g>
     </g>
    </g>
    <g id="ytick_10">
     <g id="line2d_29">
      <g>
       <use xlink:href="#m0c17c0527a" x="83.3" y="197.23651" style="stroke: #000000; stroke-width: 0.6"/>
      </g>
     </g>
    </g>
    <g id="ytick_11">
     <g id="line2d_30">
      <g>
       <use xlink:href="#m0c17c0527a" x="83.3" y="188.728822" style="stroke: #000000; stroke-width: 0.6"/>
      </g>
     </g>
    </g>
    <g id="ytick_12">
     <g id="line2d_31">
      <g>
       <use xlink:href="#m0c17c0527a" x="83.3" y="131.051128" style="stroke: #000000; stroke-width: 0.6"/>
      </g>
     </g>
    </g>
    <g id="ytick_13">
     <g id="line2d_32">
      <g>
       <use xlink:href="#m0c17c0527a" x="83.3" y="101.76363" style="stroke: #000000; stroke-width: 0.6"/>
      </g>
     </g>
    </g>
    <g id="ytick_14">
     <g id="line2d_33">
      <g>
       <use xlink:href="#m0c17c0527a" x="83.3" y="80.983819" style="stroke: #000000; stroke-width: 0.6"/>
      </g>
     </g>
    </g>
    <g id="ytick_15">
     <g id="line2d_34">
      <g>
       <use xlink:href="#m0c17c0527a" x="83.3" y="64.865746" style="stroke: #000000; stroke-width: 0.6"/>
      </g>
     </g>
    </g>
    <g id="ytick_16">
     <g id="line2d_35">
      <g>
       <use xlink:href="#m0c17c0527a" x="83.3" y="51.696321" style="stroke: #000000; stroke-width: 0.6"/>
      </g>
     </g>
    </g>
    <g id="ytick_17">
     <g id="line2d_36">
      <g>
       <use xlink:href="#m0c17c0527a" x="83.3" y="40.561731" style="stroke: #000000; stroke-width: 0.6"/>
      </g>
     </g>
    </g>
    <g id="ytick_18">
     <g id="line2d_37">
      <g>
       <use xlink:href="#m0c17c0527a" x="83.3" y="30.916511" style="stroke: #000000; stroke-width: 0.6"/>
      </g>
     </g>
    </g>
    <g id="ytick_19">
     <g id="line2d_38">
      <g>
       <use xlink:href="#m0c17c0527a" x="83.3" y="22.408823" style="stroke: #000000; stroke-width: 0.6"/>
      </g>
     </g>
    </g>
    <g id="text_8">
     <!-- $\beta$ -->
     <g transform="translate(22.6 187.518437) rotate(-90) scale(0.2 -0.2)">
      <defs>
       <path id="DejaVuSans-Oblique-3b2" d="M 872 216 
L 572 -1331 
L -6 -1331 
L 928 3478 
Q 1206 4903 2538 4903 
Q 3888 4903 3659 3700 
Q 3503 2844 2894 2531 
Q 3713 2250 3553 1416 
Q 3272 -69 1759 -66 
Q 1097 -63 872 216 
z
M 1019 966 
Q 1259 422 1875 425 
Q 2775 425 2966 1406 
Q 3138 2288 1675 2219 
L 1778 2750 
Q 2909 2731 3106 3750 
Q 3241 4438 2509 4434 
Q 1691 4434 1503 3459 
L 1019 966 
z
" transform="scale(0.015625)"/>
      </defs>
      <use xlink:href="#DejaVuSans-Oblique-3b2" transform="translate(0 0.390625)"/>
     </g>
    </g>
   </g>
   <g id="patch_3">
    <path d="M 83.3 347.438437 
L 83.3 14.798437 
" style="fill: none; stroke: #000000; stroke-width: 0.8; stroke-linejoin: miter; stroke-linecap: square"/>
   </g>
   <g id="patch_4">
    <path d="M 418.1 347.438437 
L 418.1 14.798437 
" style="fill: none; stroke: #000000; stroke-width: 0.8; stroke-linejoin: miter; stroke-linecap: square"/>
   </g>
   <g id="patch_5">
    <path d="M 83.3 347.438437 
L 418.1 347.438437 
" style="fill: none; stroke: #000000; stroke-width: 0.8; stroke-linejoin: miter; stroke-linecap: square"/>
   </g>
   <g id="patch_6">
    <path d="M 83.3 14.798437 
L 418.1 14.798437 
" style="fill: none; stroke: #000000; stroke-width: 0.8; stroke-linejoin: miter; stroke-linecap: square"/>
   </g>
   <g id="text_9">
    <!-- $p^{EI}$ -->
    <g transform="translate(367.707579 72.476132) scale(0.25 -0.25)">
     <defs>
      <path id="DejaVuSans-Oblique-70" d="M 3175 2156 
Q 3175 2616 2975 2859 
Q 2775 3103 2400 3103 
Q 2144 3103 1911 2972 
Q 1678 2841 1497 2591 
Q 1319 2344 1212 1994 
Q 1106 1644 1106 1300 
Q 1106 863 1306 627 
Q 1506 391 1875 391 
Q 2147 391 2380 519 
Q 2613 647 2778 891 
Q 2956 1147 3065 1494 
Q 3175 1841 3175 2156 
z
M 1394 2969 
Q 1625 3272 1939 3428 
Q 2253 3584 2638 3584 
Q 3175 3584 3472 3232 
Q 3769 2881 3769 2247 
Q 3769 1728 3584 1258 
Q 3400 788 3053 416 
Q 2822 169 2531 39 
Q 2241 -91 1919 -91 
Q 1547 -91 1294 64 
Q 1041 219 916 525 
L 556 -1331 
L -19 -1331 
L 922 3500 
L 1497 3500 
L 1394 2969 
z
" transform="scale(0.015625)"/>
      <path id="DejaVuSans-Oblique-45" d="M 1081 4666 
L 4031 4666 
L 3928 4134 
L 1606 4134 
L 1338 2753 
L 3566 2753 
L 3463 2222 
L 1234 2222 
L 909 531 
L 3284 531 
L 3181 0 
L 172 0 
L 1081 4666 
z
" transform="scale(0.015625)"/>
      <path id="DejaVuSans-Oblique-49" d="M 1081 4666 
L 1716 4666 
L 806 0 
L 172 0 
L 1081 4666 
z
" transform="scale(0.015625)"/>
     </defs>
     <use xlink:href="#DejaVuSans-Oblique-70" transform="translate(0 0.684375)"/>
     <use xlink:href="#DejaVuSans-Oblique-45" transform="translate(68.126458 38.965625) scale(0.7)"/>
     <use xlink:href="#DejaVuSans-Oblique-49" transform="translate(112.354974 38.965625) scale(0.7)"/>
    </g>
   </g>
   <g id="text_10">
    <!-- MMCA -->
    <g transform="translate(330.570098 40.561731) scale(0.25 -0.25)">
     <defs>
      <path id="DejaVuSans-4d" d="M 628 4666 
L 1569 4666 
L 2759 1491 
L 3956 4666 
L 4897 4666 
L 4897 0 
L 4281 0 
L 4281 4097 
L 3078 897 
L 2444 897 
L 1241 4097 
L 1241 0 
L 628 0 
L 628 4666 
z
" transform="scale(0.015625)"/>
      <path id="DejaVuSans-43" d="M 4122 4306 
L 4122 3641 
Q 3803 3938 3442 4084 
Q 3081 4231 2675 4231 
Q 1875 4231 1450 3742 
Q 1025 3253 1025 2328 
Q 1025 1406 1450 917 
Q 1875 428 2675 428 
Q 3081 428 3442 575 
Q 3803 722 4122 1019 
L 4122 359 
Q 3791 134 3420 21 
Q 3050 -91 2638 -91 
Q 1578 -91 968 557 
Q 359 1206 359 2328 
Q 359 3453 968 4101 
Q 1578 4750 2638 4750 
Q 3056 4750 3426 4639 
Q 3797 4528 4122 4306 
z
" transform="scale(0.015625)"/>
      <path id="DejaVuSans-41" d="M 2188 4044 
L 1331 1722 
L 3047 1722 
L 2188 4044 
z
M 1831 4666 
L 2547 4666 
L 4325 0 
L 3669 0 
L 3244 1197 
L 1141 1197 
L 716 0 
L 50 0 
L 1831 4666 
z
" transform="scale(0.015625)"/>
     </defs>
     <use xlink:href="#DejaVuSans-4d"/>
     <use xlink:href="#DejaVuSans-4d" transform="translate(86.279297 0)"/>
     <use xlink:href="#DejaVuSans-43" transform="translate(172.558594 0)"/>
     <use xlink:href="#DejaVuSans-41" transform="translate(242.382812 0)"/>
    </g>
   </g>
   <g id="patch_7">
    <path d="M 159.670099 315.789141 
Q 159.670099 199.179056 159.670099 82.568971 
L 153.170099 82.568971 
Q 158.170099 72.567308 163.170099 62.565644 
Q 168.170099 72.567308 173.170099 82.568971 
L 166.670099 82.568971 
Q 166.670099 199.179056 166.670099 315.789141 
L 159.670099 315.789141 
z
" style="fill: #add8e6; opacity: 0.8; stroke: #000000; stroke-linecap: round"/>
   </g>
   <g id="text_11">
    <!-- More infection -->
    <g transform="translate(184.084844 206.881731) scale(0.2 -0.2)">
     <defs>
      <path id="DejaVuSans-6f" d="M 1959 3097 
Q 1497 3097 1228 2736 
Q 959 2375 959 1747 
Q 959 1119 1226 758 
Q 1494 397 1959 397 
Q 2419 397 2687 759 
Q 2956 1122 2956 1747 
Q 2956 2369 2687 2733 
Q 2419 3097 1959 3097 
z
M 1959 3584 
Q 2709 3584 3137 3096 
Q 3566 2609 3566 1747 
Q 3566 888 3137 398 
Q 2709 -91 1959 -91 
Q 1206 -91 779 398 
Q 353 888 353 1747 
Q 353 2609 779 3096 
Q 1206 3584 1959 3584 
z
" transform="scale(0.015625)"/>
      <path id="DejaVuSans-72" d="M 2631 2963 
Q 2534 3019 2420 3045 
Q 2306 3072 2169 3072 
Q 1681 3072 1420 2755 
Q 1159 2438 1159 1844 
L 1159 0 
L 581 0 
L 581 3500 
L 1159 3500 
L 1159 2956 
Q 1341 3275 1631 3429 
Q 1922 3584 2338 3584 
Q 2397 3584 2469 3576 
Q 2541 3569 2628 3553 
L 2631 2963 
z
" transform="scale(0.015625)"/>
      <path id="DejaVuSans-65" d="M 3597 1894 
L 3597 1613 
L 953 1613 
Q 991 1019 1311 708 
Q 1631 397 2203 397 
Q 2534 397 2845 478 
Q 3156 559 3463 722 
L 3463 178 
Q 3153 47 2828 -22 
Q 2503 -91 2169 -91 
Q 1331 -91 842 396 
Q 353 884 353 1716 
Q 353 2575 817 3079 
Q 1281 3584 2069 3584 
Q 2775 3584 3186 3129 
Q 3597 2675 3597 1894 
z
M 3022 2063 
Q 3016 2534 2758 2815 
Q 2500 3097 2075 3097 
Q 1594 3097 1305 2825 
Q 1016 2553 972 2059 
L 3022 2063 
z
" transform="scale(0.015625)"/>
      <path id="DejaVuSans-20" transform="scale(0.015625)"/>
      <path id="DejaVuSans-69" d="M 603 3500 
L 1178 3500 
L 1178 0 
L 603 0 
L 603 3500 
z
M 603 4863 
L 1178 4863 
L 1178 4134 
L 603 4134 
L 603 4863 
z
" transform="scale(0.015625)"/>
      <path id="DejaVuSans-6e" d="M 3513 2113 
L 3513 0 
L 2938 0 
L 2938 2094 
Q 2938 2591 2744 2837 
Q 2550 3084 2163 3084 
Q 1697 3084 1428 2787 
Q 1159 2491 1159 1978 
L 1159 0 
L 581 0 
L 581 3500 
L 1159 3500 
L 1159 2956 
Q 1366 3272 1645 3428 
Q 1925 3584 2291 3584 
Q 2894 3584 3203 3211 
Q 3513 2838 3513 2113 
z
" transform="scale(0.015625)"/>
      <path id="DejaVuSans-66" d="M 2375 4863 
L 2375 4384 
L 1825 4384 
Q 1516 4384 1395 4259 
Q 1275 4134 1275 3809 
L 1275 3500 
L 2222 3500 
L 2222 3053 
L 1275 3053 
L 1275 0 
L 697 0 
L 697 3053 
L 147 3053 
L 147 3500 
L 697 3500 
L 697 3744 
Q 697 4328 969 4595 
Q 1241 4863 1831 4863 
L 2375 4863 
z
" transform="scale(0.015625)"/>
      <path id="DejaVuSans-63" d="M 3122 3366 
L 3122 2828 
Q 2878 2963 2633 3030 
Q 2388 3097 2138 3097 
Q 1578 3097 1268 2742 
Q 959 2388 959 1747 
Q 959 1106 1268 751 
Q 1578 397 2138 397 
Q 2388 397 2633 464 
Q 2878 531 3122 666 
L 3122 134 
Q 2881 22 2623 -34 
Q 2366 -91 2075 -91 
Q 1284 -91 818 406 
Q 353 903 353 1747 
Q 353 2603 823 3093 
Q 1294 3584 2113 3584 
Q 2378 3584 2631 3529 
Q 2884 3475 3122 3366 
z
" transform="scale(0.015625)"/>
      <path id="DejaVuSans-74" d="M 1172 4494 
L 1172 3500 
L 2356 3500 
L 2356 3053 
L 1172 3053 
L 1172 1153 
Q 1172 725 1289 603 
Q 1406 481 1766 481 
L 2356 481 
L 2356 0 
L 1766 0 
Q 1100 0 847 248 
Q 594 497 594 1153 
L 594 3053 
L 172 3053 
L 172 3500 
L 594 3500 
L 594 4494 
L 1172 4494 
z
" transform="scale(0.015625)"/>
     </defs>
     <use xlink:href="#DejaVuSans-4d"/>
     <use xlink:href="#DejaVuSans-6f" transform="translate(86.279297 0)"/>
     <use xlink:href="#DejaVuSans-72" transform="translate(147.460938 0)"/>
     <use xlink:href="#DejaVuSans-65" transform="translate(186.324219 0)"/>
     <use xlink:href="#DejaVuSans-20" transform="translate(247.847656 0)"/>
     <use xlink:href="#DejaVuSans-69" transform="translate(279.634766 0)"/>
     <use xlink:href="#DejaVuSans-6e" transform="translate(307.417969 0)"/>
     <use xlink:href="#DejaVuSans-66" transform="translate(370.796875 0)"/>
     <use xlink:href="#DejaVuSans-65" transform="translate(406.001953 0)"/>
     <use xlink:href="#DejaVuSans-63" transform="translate(467.525391 0)"/>
     <use xlink:href="#DejaVuSans-74" transform="translate(522.505859 0)"/>
     <use xlink:href="#DejaVuSans-69" transform="translate(561.714844 0)"/>
     <use xlink:href="#DejaVuSans-6f" transform="translate(589.498047 0)"/>
     <use xlink:href="#DejaVuSans-6e" transform="translate(650.679688 0)"/>
    </g>
   </g>
  </g>
 </g>
 <defs>
  <clipPath id="p7e2c615cbe">
   <rect x="83.3" y="14.798437" width="334.8" height="332.64"/>
  </clipPath>
 </defs>
</svg>
