<?xml version="1.0" encoding="utf-8" standalone="no"?>
<!DOCTYPE svg PUBLIC "-//W3C//DTD SVG 1.1//EN"
  "http://www.w3.org/Graphics/SVG/1.1/DTD/svg11.dtd">
<svg xmlns:xlink="http://www.w3.org/1999/xlink" width="487.164644pt" height="402.850937pt" viewBox="0 0 487.164644 402.850937" xmlns="http://www.w3.org/2000/svg" version="1.1">
 <metadata>
  <rdf:RDF xmlns:dc="http://purl.org/dc/elements/1.1/" xmlns:cc="http://creativecommons.org/ns#" xmlns:rdf="http://www.w3.org/1999/02/22-rdf-syntax-ns#">
   <cc:Work>
    <dc:type rdf:resource="http://purl.org/dc/dcmitype/StillImage"/>
    <dc:date>2025-05-11T19:05:05.936925</dc:date>
    <dc:format>image/svg+xml</dc:format>
    <dc:creator>
     <cc:Agent>
      <dc:title>Matplotlib v3.10.1, https://matplotlib.org/</dc:title>
     </cc:Agent>
    </dc:creator>
   </cc:Work>
  </rdf:RDF>
 </metadata>
 <defs>
  <style type="text/css">*{stroke-linejoin: round; stroke-linecap: butt}</style>
 </defs>
 <g id="figure_1">
  <g id="patch_1">
   <path d="M 0 402.850937 
L 487.164644 402.850937 
L 487.164644 0 
L 0 0 
z
" style="fill: #ffffff"/>
  </g>
  <g id="axes_1">
   <g id="patch_2">
    <path d="M 67.8625 347.438437 
L 401.3233 347.438437 
L 401.3233 14.798437 
L 67.8625 14.798437 
z
" style="fill: #ffffff"/>
   </g>
   <g id="QuadContourSet_1">
    <path d="M 85.413081 347.438437 
L 102.963662 347.438437 
L 120.514163 347.438437 
L 138.064744 347.438437 
L 155.615325 347.438437 
L 173.165906 347.438437 
L 190.716487 347.438437 
L 208.267068 347.438437 
L 225.817649 347.438437 
L 243.368151 347.438437 
L 260.918732 347.438437 
L 278.469313 347.438437 
L 296.019894 347.438437 
L 313.570475 347.438437 
L 331.121056 347.438437 
L 348.671637 347.438437 
L 366.222138 347.438437 
L 383.772719 347.438437 
L 401.3233 347.438437 
L 401.3233 329.931057 
L 401.3233 312.423676 
L 401.3233 307.002324 
L 383.772719 308.342786 
L 366.222138 308.825978 
L 348.671637 311.498187 
L 331.454392 312.423676 
L 331.121056 312.438343 
L 313.570475 312.871323 
L 296.019894 315.414263 
L 278.469313 317.011587 
L 260.918732 318.042049 
L 243.368151 321.267833 
L 225.817649 322.27119 
L 208.267068 325.226485 
L 190.716487 326.7868 
L 173.165906 327.579193 
L 155.615325 329.486656 
L 151.819317 329.931057 
L 138.064744 331.703556 
L 120.514163 332.910552 
L 102.963662 335.946388 
L 85.413081 336.420207 
L 67.8625 340.942186 
L 67.8625 347.438437 
z
" clip-path="url(#pa418702ae2)" style="fill: #481668"/>
    <path d="M 85.413081 336.420207 
L 102.963662 335.946388 
L 120.514163 332.910552 
L 138.064744 331.703556 
L 151.819317 329.931057 
L 155.615325 329.486656 
L 173.165906 327.579193 
L 190.716487 326.7868 
L 208.267068 325.226485 
L 225.817649 322.27119 
L 243.368151 321.267833 
L 260.918732 318.042049 
L 278.469313 317.011587 
L 296.019894 315.414263 
L 313.570475 312.871323 
L 331.121056 312.438343 
L 331.454392 312.423676 
L 348.671637 311.498187 
L 366.222138 308.825978 
L 383.772719 308.342786 
L 401.3233 307.002324 
L 401.3233 294.916374 
L 401.3233 277.408993 
L 401.3233 267.245584 
L 383.772719 266.419814 
L 366.222138 269.644288 
L 348.671637 269.535535 
L 331.121056 270.261186 
L 313.570475 272.393405 
L 296.019894 273.705713 
L 278.469313 275.073278 
L 260.918732 276.642268 
L 256.397915 277.408993 
L 243.368151 280.116683 
L 225.817649 278.86731 
L 208.267068 283.262596 
L 190.716487 285.740125 
L 173.165906 288.308801 
L 155.615325 289.502547 
L 138.064744 291.59723 
L 120.514163 292.422513 
L 102.963662 294.354147 
L 100.33735 294.916374 
L 85.413081 297.690398 
L 67.8625 299.917077 
L 67.8625 312.423676 
L 67.8625 329.931057 
L 67.8625 340.942186 
z
" clip-path="url(#pa418702ae2)" style="fill: #443983"/>
    <path d="M 85.413081 297.690398 
L 100.33735 294.916374 
L 102.963662 294.354147 
L 120.514163 292.422513 
L 138.064744 291.59723 
L 155.615325 289.502547 
L 173.165906 288.308801 
L 190.716487 285.740125 
L 208.267068 283.262596 
L 225.817649 278.86731 
L 243.368151 280.116683 
L 256.397915 277.408993 
L 260.918732 276.642268 
L 278.469313 275.073278 
L 296.019894 273.705713 
L 313.570475 272.393405 
L 331.121056 270.261186 
L 348.671637 269.535535 
L 366.222138 269.644288 
L 383.772719 266.419814 
L 401.3233 267.245584 
L 401.3233 259.901612 
L 401.3233 242.394231 
L 401.3233 226.739716 
L 383.772719 230.042018 
L 366.222138 231.423454 
L 348.671637 231.169877 
L 331.121056 233.526463 
L 313.570475 232.830411 
L 296.019894 236.526669 
L 278.469313 235.574889 
L 260.918732 239.172406 
L 243.368151 239.595309 
L 225.817649 241.585418 
L 220.317994 242.394231 
L 208.267068 244.394582 
L 190.716487 244.679984 
L 173.165906 246.207662 
L 155.615325 249.223504 
L 138.064744 249.458037 
L 120.514163 252.511062 
L 102.963662 255.156305 
L 85.535139 259.901612 
L 85.413081 259.932033 
L 67.8625 261.865395 
L 67.8625 277.408993 
L 67.8625 294.916374 
L 67.8625 299.917077 
z
" clip-path="url(#pa418702ae2)" style="fill: #375a8c"/>
    <path d="M 85.413081 259.932033 
L 85.535139 259.901612 
L 102.963662 255.156305 
L 120.514163 252.511062 
L 138.064744 249.458037 
L 155.615325 249.223504 
L 173.165906 246.207662 
L 190.716487 244.679984 
L 208.267068 244.394582 
L 220.317994 242.394231 
L 225.817649 241.585418 
L 243.368151 239.595309 
L 260.918732 239.172406 
L 278.469313 235.574889 
L 296.019894 236.526669 
L 313.570475 232.830411 
L 331.121056 233.526463 
L 348.671637 231.169877 
L 366.222138 231.423454 
L 383.772719 230.042018 
L 401.3233 226.739716 
L 401.3233 224.88685 
L 401.3233 207.379469 
L 401.3233 189.872088 
L 401.3233 186.745948 
L 385.530368 189.872088 
L 383.772719 190.247314 
L 366.222138 192.573345 
L 348.671637 191.475884 
L 331.121056 194.743623 
L 313.570475 196.692786 
L 296.019894 197.577735 
L 278.469313 199.516485 
L 260.918732 200.857401 
L 243.368151 202.008063 
L 225.817649 204.616253 
L 208.267068 203.881455 
L 190.716487 205.759161 
L 179.9016 207.379469 
L 173.165906 208.50127 
L 155.615325 211.276323 
L 138.064744 211.982036 
L 120.514163 213.652338 
L 102.963662 216.306479 
L 85.413081 218.138163 
L 67.8625 221.390471 
L 67.8625 224.88685 
L 67.8625 242.394231 
L 67.8625 259.901612 
L 67.8625 261.865395 
z
" clip-path="url(#pa418702ae2)" style="fill: #2b758e"/>
    <path d="M 85.413081 218.138163 
L 102.963662 216.306479 
L 120.514163 213.652338 
L 138.064744 211.982036 
L 155.615325 211.276323 
L 173.165906 208.50127 
L 179.9016 207.379469 
L 190.716487 205.759161 
L 208.267068 203.881455 
L 225.817649 204.616253 
L 243.368151 202.008063 
L 260.918732 200.857401 
L 278.469313 199.516485 
L 296.019894 197.577735 
L 313.570475 196.692786 
L 331.121056 194.743623 
L 348.671637 191.475884 
L 366.222138 192.573345 
L 383.772719 190.247314 
L 385.530368 189.872088 
L 401.3233 186.745948 
L 401.3233 172.364787 
L 401.3233 154.857406 
L 401.3233 148.281881 
L 383.772719 149.689077 
L 366.222138 150.005519 
L 348.671637 152.559947 
L 331.121056 152.311284 
L 314.250127 154.857406 
L 313.570475 154.95972 
L 296.019894 158.492039 
L 278.469313 157.305422 
L 260.918732 160.72949 
L 243.368151 163.098647 
L 225.817649 162.457877 
L 208.267068 166.101185 
L 190.716487 165.442946 
L 173.165906 171.186674 
L 155.615325 170.700451 
L 143.123752 172.364787 
L 138.064744 173.06705 
L 120.514163 174.802981 
L 102.963662 179.366013 
L 85.413081 178.912 
L 67.8625 182.365915 
L 67.8625 189.872088 
L 67.8625 207.379469 
L 67.8625 221.390471 
z
" clip-path="url(#pa418702ae2)" style="fill: #21918c"/>
    <path d="M 85.413081 178.912 
L 102.963662 179.366013 
L 120.514163 174.802981 
L 138.064744 173.06705 
L 143.123752 172.364787 
L 155.615325 170.700451 
L 173.165906 171.186674 
L 190.716487 165.442946 
L 208.267068 166.101185 
L 225.817649 162.457877 
L 243.368151 163.098647 
L 260.918732 160.72949 
L 278.469313 157.305422 
L 296.019894 158.492039 
L 313.570475 154.95972 
L 314.250127 154.857406 
L 331.121056 152.311284 
L 348.671637 152.559947 
L 366.222138 150.005519 
L 383.772719 149.689077 
L 401.3233 148.281881 
L 401.3233 137.350025 
L 401.3233 119.842644 
L 401.3233 108.088891 
L 383.772719 109.224399 
L 366.222138 110.048515 
L 348.671637 111.965324 
L 331.121056 111.594334 
L 313.570475 114.168449 
L 296.019894 117.156372 
L 278.469313 118.947345 
L 274.949459 119.842644 
L 260.918732 123.021837 
L 243.368151 120.210926 
L 225.817649 121.865849 
L 208.267068 126.842036 
L 190.716487 122.423735 
L 173.165906 130.195062 
L 155.615325 130.613619 
L 138.064744 132.380324 
L 120.514163 134.15554 
L 102.963662 137.248736 
L 102.652809 137.350025 
L 85.413081 141.634546 
L 67.8625 144.152424 
L 67.8625 154.857406 
L 67.8625 172.364787 
L 67.8625 182.365915 
z
" clip-path="url(#pa418702ae2)" style="fill: #25ab82"/>
    <path d="M 85.413081 141.634546 
L 102.652809 137.350025 
L 102.963662 137.248736 
L 120.514163 134.15554 
L 138.064744 132.380324 
L 155.615325 130.613619 
L 173.165906 130.195062 
L 190.716487 122.423735 
L 208.267068 126.842036 
L 225.817649 121.865849 
L 243.368151 120.210926 
L 260.918732 123.021837 
L 274.949459 119.842644 
L 278.469313 118.947345 
L 296.019894 117.156372 
L 313.570475 114.168449 
L 331.121056 111.594334 
L 348.671637 111.965324 
L 366.222138 110.048515 
L 383.772719 109.224399 
L 401.3233 108.088891 
L 401.3233 102.335263 
L 401.3233 84.827882 
L 401.3233 68.304329 
L 394.327311 67.320501 
L 383.772719 65.575045 
L 366.222138 66.293625 
L 358.301004 67.320501 
L 348.671637 68.696371 
L 331.121056 71.680955 
L 313.570475 73.287625 
L 296.019894 75.468059 
L 278.469313 77.157244 
L 260.918732 79.25123 
L 243.368151 79.28751 
L 225.817649 82.913747 
L 208.267068 84.248301 
L 202.978302 84.827882 
L 190.716487 86.101304 
L 173.165906 88.496488 
L 155.615325 89.213909 
L 138.064744 90.683545 
L 120.514163 93.895458 
L 102.963662 96.210525 
L 85.413081 96.965788 
L 67.8625 100.549954 
L 67.8625 102.335263 
L 67.8625 119.842644 
L 67.8625 137.350025 
L 67.8625 144.152424 
z
" clip-path="url(#pa418702ae2)" style="fill: #4ec36b"/>
    <path d="M 85.413081 96.965788 
L 102.963662 96.210525 
L 120.514163 93.895458 
L 138.064744 90.683545 
L 155.615325 89.213909 
L 173.165906 88.496488 
L 190.716487 86.101304 
L 202.978302 84.827882 
L 208.267068 84.248301 
L 225.817649 82.913747 
L 243.368151 79.28751 
L 260.918732 79.25123 
L 278.469313 77.157244 
L 296.019894 75.468059 
L 313.570475 73.287625 
L 331.121056 71.680955 
L 348.671637 68.696371 
L 358.301004 67.320501 
L 366.222138 66.293625 
L 383.772719 65.575045 
L 394.327311 67.320501 
L 401.3233 68.304329 
L 401.3233 67.320501 
L 401.3233 49.813199 
L 401.3233 32.305818 
L 401.3233 20.723695 
L 383.772719 22.346897 
L 366.222138 27.865596 
L 348.671637 23.719626 
L 331.121056 24.168776 
L 313.570475 29.394018 
L 296.019894 27.253018 
L 278.469313 32.009651 
L 273.664321 32.305818 
L 260.918732 32.927878 
L 243.368151 32.910624 
L 225.817649 38.987112 
L 208.267068 38.941995 
L 190.716487 42.048936 
L 173.165906 44.575484 
L 155.615325 44.86701 
L 138.819448 49.813199 
L 138.064744 50.030152 
L 120.514163 52.005897 
L 102.963662 53.636057 
L 85.413081 56.519038 
L 67.8625 59.882779 
L 67.8625 67.320501 
L 67.8625 84.827882 
L 67.8625 100.549954 
z
" clip-path="url(#pa418702ae2)" style="fill: #90d743"/>
    <path d="M 85.413081 56.519038 
L 102.963662 53.636057 
L 120.514163 52.005897 
L 138.064744 50.030152 
L 138.819448 49.813199 
L 155.615325 44.86701 
L 173.165906 44.575484 
L 190.716487 42.048936 
L 208.267068 38.941995 
L 225.817649 38.987112 
L 243.368151 32.910624 
L 260.918732 32.927878 
L 273.664321 32.305818 
L 278.469313 32.009651 
L 296.019894 27.253018 
L 313.570475 29.394018 
L 331.121056 24.168776 
L 348.671637 23.719626 
L 366.222138 27.865596 
L 383.772719 22.346897 
L 401.3233 20.723695 
L 401.3233 14.798437 
L 383.772719 14.798437 
L 366.222138 14.798437 
L 348.671637 14.798437 
L 331.121056 14.798437 
L 313.570475 14.798437 
L 296.019894 14.798437 
L 278.469313 14.798437 
L 260.918732 14.798437 
L 243.368151 14.798437 
L 225.817649 14.798437 
L 208.267068 14.798437 
L 190.716487 14.798437 
L 173.165906 14.798437 
L 155.615325 14.798437 
L 138.064744 14.798437 
L 120.514163 14.798437 
L 102.963662 14.798437 
L 85.413081 14.798437 
L 67.8625 14.798437 
L 67.8625 32.305818 
L 67.8625 49.813199 
L 67.8625 59.882779 
z
" clip-path="url(#pa418702ae2)" style="fill: #dae319"/>
   </g>
   <g id="matplotlib.axis_1">
    <g id="xtick_1">
     <g id="line2d_1">
      <defs>
       <path id="m144ebfa2e2" d="M 0 0 
L 0 2 
" style="stroke: #000000; stroke-width: 1.5"/>
      </defs>
      <g>
       <use xlink:href="#m144ebfa2e2" x="67.8625" y="347.438437" style="stroke: #000000; stroke-width: 1.5"/>
      </g>
     </g>
     <g id="text_1">
      <!-- 2.0 -->
      <g transform="translate(51.959375 368.135312) scale(0.2 -0.2)">
       <defs>
        <path id="DejaVuSans-32" d="M 1228 531 
L 3431 531 
L 3431 0 
L 469 0 
L 469 531 
Q 828 903 1448 1529 
Q 2069 2156 2228 2338 
Q 2531 2678 2651 2914 
Q 2772 3150 2772 3378 
Q 2772 3750 2511 3984 
Q 2250 4219 1831 4219 
Q 1534 4219 1204 4116 
Q 875 4013 500 3803 
L 500 4441 
Q 881 4594 1212 4672 
Q 1544 4750 1819 4750 
Q 2544 4750 2975 4387 
Q 3406 4025 3406 3419 
Q 3406 3131 3298 2873 
Q 3191 2616 2906 2266 
Q 2828 2175 2409 1742 
Q 1991 1309 1228 531 
z
" transform="scale(0.015625)"/>
        <path id="DejaVuSans-2e" d="M 684 794 
L 1344 794 
L 1344 0 
L 684 0 
L 684 794 
z
" transform="scale(0.015625)"/>
        <path id="DejaVuSans-30" d="M 2034 4250 
Q 1547 4250 1301 3770 
Q 1056 3291 1056 2328 
Q 1056 1369 1301 889 
Q 1547 409 2034 409 
Q 2525 409 2770 889 
Q 3016 1369 3016 2328 
Q 3016 3291 2770 3770 
Q 2525 4250 2034 4250 
z
M 2034 4750 
Q 2819 4750 3233 4129 
Q 3647 3509 3647 2328 
Q 3647 1150 3233 529 
Q 2819 -91 2034 -91 
Q 1250 -91 836 529 
Q 422 1150 422 2328 
Q 422 3509 836 4129 
Q 1250 4750 2034 4750 
z
" transform="scale(0.015625)"/>
       </defs>
       <use xlink:href="#DejaVuSans-32"/>
       <use xlink:href="#DejaVuSans-2e" transform="translate(63.623047 0)"/>
       <use xlink:href="#DejaVuSans-30" transform="translate(95.410156 0)"/>
      </g>
     </g>
    </g>
    <g id="xtick_2">
     <g id="line2d_2">
      <g>
       <use xlink:href="#m144ebfa2e2" x="134.55466" y="347.438437" style="stroke: #000000; stroke-width: 1.5"/>
      </g>
     </g>
     <g id="text_2">
      <!-- 2.2 -->
      <g transform="translate(118.651535 368.135312) scale(0.2 -0.2)">
       <use xlink:href="#DejaVuSans-32"/>
       <use xlink:href="#DejaVuSans-2e" transform="translate(63.623047 0)"/>
       <use xlink:href="#DejaVuSans-32" transform="translate(95.410156 0)"/>
      </g>
     </g>
    </g>
    <g id="xtick_3">
     <g id="line2d_3">
      <g>
       <use xlink:href="#m144ebfa2e2" x="201.24682" y="347.438437" style="stroke: #000000; stroke-width: 1.5"/>
      </g>
     </g>
     <g id="text_3">
      <!-- 2.4 -->
      <g transform="translate(185.343695 368.135312) scale(0.2 -0.2)">
       <defs>
        <path id="DejaVuSans-34" d="M 2419 4116 
L 825 1625 
L 2419 1625 
L 2419 4116 
z
M 2253 4666 
L 3047 4666 
L 3047 1625 
L 3713 1625 
L 3713 1100 
L 3047 1100 
L 3047 0 
L 2419 0 
L 2419 1100 
L 313 1100 
L 313 1709 
L 2253 4666 
z
" transform="scale(0.015625)"/>
       </defs>
       <use xlink:href="#DejaVuSans-32"/>
       <use xlink:href="#DejaVuSans-2e" transform="translate(63.623047 0)"/>
       <use xlink:href="#DejaVuSans-34" transform="translate(95.410156 0)"/>
      </g>
     </g>
    </g>
    <g id="xtick_4">
     <g id="line2d_4">
      <g>
       <use xlink:href="#m144ebfa2e2" x="267.93898" y="347.438437" style="stroke: #000000; stroke-width: 1.5"/>
      </g>
     </g>
     <g id="text_4">
      <!-- 2.6 -->
      <g transform="translate(252.035855 368.135312) scale(0.2 -0.2)">
       <defs>
        <path id="DejaVuSans-36" d="M 2113 2584 
Q 1688 2584 1439 2293 
Q 1191 2003 1191 1497 
Q 1191 994 1439 701 
Q 1688 409 2113 409 
Q 2538 409 2786 701 
Q 3034 994 3034 1497 
Q 3034 2003 2786 2293 
Q 2538 2584 2113 2584 
z
M 3366 4563 
L 3366 3988 
Q 3128 4100 2886 4159 
Q 2644 4219 2406 4219 
Q 1781 4219 1451 3797 
Q 1122 3375 1075 2522 
Q 1259 2794 1537 2939 
Q 1816 3084 2150 3084 
Q 2853 3084 3261 2657 
Q 3669 2231 3669 1497 
Q 3669 778 3244 343 
Q 2819 -91 2113 -91 
Q 1303 -91 875 529 
Q 447 1150 447 2328 
Q 447 3434 972 4092 
Q 1497 4750 2381 4750 
Q 2619 4750 2861 4703 
Q 3103 4656 3366 4563 
z
" transform="scale(0.015625)"/>
       </defs>
       <use xlink:href="#DejaVuSans-32"/>
       <use xlink:href="#DejaVuSans-2e" transform="translate(63.623047 0)"/>
       <use xlink:href="#DejaVuSans-36" transform="translate(95.410156 0)"/>
      </g>
     </g>
    </g>
    <g id="xtick_5">
     <g id="line2d_5">
      <g>
       <use xlink:href="#m144ebfa2e2" x="334.63114" y="347.438437" style="stroke: #000000; stroke-width: 1.5"/>
      </g>
     </g>
     <g id="text_5">
      <!-- 2.8 -->
      <g transform="translate(318.728015 368.135312) scale(0.2 -0.2)">
       <defs>
        <path id="DejaVuSans-38" d="M 2034 2216 
Q 1584 2216 1326 1975 
Q 1069 1734 1069 1313 
Q 1069 891 1326 650 
Q 1584 409 2034 409 
Q 2484 409 2743 651 
Q 3003 894 3003 1313 
Q 3003 1734 2745 1975 
Q 2488 2216 2034 2216 
z
M 1403 2484 
Q 997 2584 770 2862 
Q 544 3141 544 3541 
Q 544 4100 942 4425 
Q 1341 4750 2034 4750 
Q 2731 4750 3128 4425 
Q 3525 4100 3525 3541 
Q 3525 3141 3298 2862 
Q 3072 2584 2669 2484 
Q 3125 2378 3379 2068 
Q 3634 1759 3634 1313 
Q 3634 634 3220 271 
Q 2806 -91 2034 -91 
Q 1263 -91 848 271 
Q 434 634 434 1313 
Q 434 1759 690 2068 
Q 947 2378 1403 2484 
z
M 1172 3481 
Q 1172 3119 1398 2916 
Q 1625 2713 2034 2713 
Q 2441 2713 2670 2916 
Q 2900 3119 2900 3481 
Q 2900 3844 2670 4047 
Q 2441 4250 2034 4250 
Q 1625 4250 1398 4047 
Q 1172 3844 1172 3481 
z
" transform="scale(0.015625)"/>
       </defs>
       <use xlink:href="#DejaVuSans-32"/>
       <use xlink:href="#DejaVuSans-2e" transform="translate(63.623047 0)"/>
       <use xlink:href="#DejaVuSans-38" transform="translate(95.410156 0)"/>
      </g>
     </g>
    </g>
    <g id="xtick_6">
     <g id="line2d_6">
      <g>
       <use xlink:href="#m144ebfa2e2" x="401.3233" y="347.438437" style="stroke: #000000; stroke-width: 1.5"/>
      </g>
     </g>
     <g id="text_6">
      <!-- 3.0 -->
      <g transform="translate(385.420175 368.135312) scale(0.2 -0.2)">
       <defs>
        <path id="DejaVuSans-33" d="M 2597 2516 
Q 3050 2419 3304 2112 
Q 3559 1806 3559 1356 
Q 3559 666 3084 287 
Q 2609 -91 1734 -91 
Q 1441 -91 1130 -33 
Q 819 25 488 141 
L 488 750 
Q 750 597 1062 519 
Q 1375 441 1716 441 
Q 2309 441 2620 675 
Q 2931 909 2931 1356 
Q 2931 1769 2642 2001 
Q 2353 2234 1838 2234 
L 1294 2234 
L 1294 2753 
L 1863 2753 
Q 2328 2753 2575 2939 
Q 2822 3125 2822 3475 
Q 2822 3834 2567 4026 
Q 2313 4219 1838 4219 
Q 1578 4219 1281 4162 
Q 984 4106 628 3988 
L 628 4550 
Q 988 4650 1302 4700 
Q 1616 4750 1894 4750 
Q 2613 4750 3031 4423 
Q 3450 4097 3450 3541 
Q 3450 3153 3228 2886 
Q 3006 2619 2597 2516 
z
" transform="scale(0.015625)"/>
       </defs>
       <use xlink:href="#DejaVuSans-33"/>
       <use xlink:href="#DejaVuSans-2e" transform="translate(63.623047 0)"/>
       <use xlink:href="#DejaVuSans-30" transform="translate(95.410156 0)"/>
      </g>
     </g>
    </g>
    <g id="text_7">
     <!-- $\gamma_I$ -->
     <g transform="translate(226.2929 391.450937) scale(0.2 -0.2)">
      <defs>
       <path id="DejaVuSans-Oblique-3b3" d="M 1491 2950 
L 1838 788 
L 3456 3500 
L 4066 3500 
L 1972 0 
L 1713 -1331 
L 1138 -1331 
L 1397 0 
L 988 2613 
Q 925 3006 628 3006 
L 475 3006 
L 569 3500 
L 788 3500 
Q 1403 3500 1491 2950 
z
" transform="scale(0.015625)"/>
       <path id="DejaVuSans-Oblique-49" d="M 1081 4666 
L 1716 4666 
L 806 0 
L 172 0 
L 1081 4666 
z
" transform="scale(0.015625)"/>
      </defs>
      <use xlink:href="#DejaVuSans-Oblique-3b3" transform="translate(0 0.3125)"/>
      <use xlink:href="#DejaVuSans-Oblique-49" transform="translate(59.179688 -16.09375) scale(0.7)"/>
     </g>
    </g>
   </g>
   <g id="matplotlib.axis_2">
    <g id="ytick_1">
     <g id="line2d_7">
      <defs>
       <path id="md1daa4fda7" d="M 0 0 
L -2 0 
" style="stroke: #000000; stroke-width: 1.5"/>
      </defs>
      <g>
       <use xlink:href="#md1daa4fda7" x="67.8625" y="347.438437" style="stroke: #000000; stroke-width: 1.5"/>
      </g>
     </g>
     <g id="text_8">
      <!-- 2.0 -->
      <g transform="translate(30.55625 355.036875) scale(0.2 -0.2)">
       <use xlink:href="#DejaVuSans-32"/>
       <use xlink:href="#DejaVuSans-2e" transform="translate(63.623047 0)"/>
       <use xlink:href="#DejaVuSans-30" transform="translate(95.410156 0)"/>
      </g>
     </g>
    </g>
    <g id="ytick_2">
     <g id="line2d_8">
      <g>
       <use xlink:href="#md1daa4fda7" x="67.8625" y="280.910437" style="stroke: #000000; stroke-width: 1.5"/>
      </g>
     </g>
     <g id="text_9">
      <!-- 2.2 -->
      <g transform="translate(30.55625 288.508875) scale(0.2 -0.2)">
       <use xlink:href="#DejaVuSans-32"/>
       <use xlink:href="#DejaVuSans-2e" transform="translate(63.623047 0)"/>
       <use xlink:href="#DejaVuSans-32" transform="translate(95.410156 0)"/>
      </g>
     </g>
    </g>
    <g id="ytick_3">
     <g id="line2d_9">
      <g>
       <use xlink:href="#md1daa4fda7" x="67.8625" y="214.382437" style="stroke: #000000; stroke-width: 1.5"/>
      </g>
     </g>
     <g id="text_10">
      <!-- 2.4 -->
      <g transform="translate(30.55625 221.980875) scale(0.2 -0.2)">
       <use xlink:href="#DejaVuSans-32"/>
       <use xlink:href="#DejaVuSans-2e" transform="translate(63.623047 0)"/>
       <use xlink:href="#DejaVuSans-34" transform="translate(95.410156 0)"/>
      </g>
     </g>
    </g>
    <g id="ytick_4">
     <g id="line2d_10">
      <g>
       <use xlink:href="#md1daa4fda7" x="67.8625" y="147.854437" style="stroke: #000000; stroke-width: 1.5"/>
      </g>
     </g>
     <g id="text_11">
      <!-- 2.6 -->
      <g transform="translate(30.55625 155.452875) scale(0.2 -0.2)">
       <use xlink:href="#DejaVuSans-32"/>
       <use xlink:href="#DejaVuSans-2e" transform="translate(63.623047 0)"/>
       <use xlink:href="#DejaVuSans-36" transform="translate(95.410156 0)"/>
      </g>
     </g>
    </g>
    <g id="ytick_5">
     <g id="line2d_11">
      <g>
       <use xlink:href="#md1daa4fda7" x="67.8625" y="81.326437" style="stroke: #000000; stroke-width: 1.5"/>
      </g>
     </g>
     <g id="text_12">
      <!-- 2.8 -->
      <g transform="translate(30.55625 88.924875) scale(0.2 -0.2)">
       <use xlink:href="#DejaVuSans-32"/>
       <use xlink:href="#DejaVuSans-2e" transform="translate(63.623047 0)"/>
       <use xlink:href="#DejaVuSans-38" transform="translate(95.410156 0)"/>
      </g>
     </g>
    </g>
    <g id="ytick_6">
     <g id="line2d_12">
      <g>
       <use xlink:href="#md1daa4fda7" x="67.8625" y="14.798437" style="stroke: #000000; stroke-width: 1.5"/>
      </g>
     </g>
     <g id="text_13">
      <!-- 3.0 -->
      <g transform="translate(30.55625 22.396875) scale(0.2 -0.2)">
       <use xlink:href="#DejaVuSans-33"/>
       <use xlink:href="#DejaVuSans-2e" transform="translate(63.623047 0)"/>
       <use xlink:href="#DejaVuSans-30" transform="translate(95.410156 0)"/>
      </g>
     </g>
    </g>
    <g id="text_14">
     <!-- $\gamma_P$ -->
     <g transform="translate(22.35625 191.618437) rotate(-90) scale(0.2 -0.2)">
      <defs>
       <path id="DejaVuSans-Oblique-50" d="M 1081 4666 
L 2541 4666 
Q 3178 4666 3512 4369 
Q 3847 4072 3847 3500 
Q 3847 2731 3353 2303 
Q 2859 1875 1966 1875 
L 1172 1875 
L 806 0 
L 172 0 
L 1081 4666 
z
M 1613 4147 
L 1275 2394 
L 2069 2394 
Q 2606 2394 2893 2669 
Q 3181 2944 3181 3456 
Q 3181 3784 2986 3965 
Q 2791 4147 2438 4147 
L 1613 4147 
z
" transform="scale(0.015625)"/>
      </defs>
      <use xlink:href="#DejaVuSans-Oblique-3b3" transform="translate(0 0.3125)"/>
      <use xlink:href="#DejaVuSans-Oblique-50" transform="translate(59.179688 -16.09375) scale(0.7)"/>
     </g>
    </g>
   </g>
   <g id="patch_3">
    <path d="M 67.8625 347.438437 
L 67.8625 14.798437 
" style="fill: none; stroke: #000000; stroke-width: 0.8; stroke-linejoin: miter; stroke-linecap: square"/>
   </g>
   <g id="patch_4">
    <path d="M 401.3233 347.438437 
L 401.3233 14.798437 
" style="fill: none; stroke: #000000; stroke-width: 0.8; stroke-linejoin: miter; stroke-linecap: square"/>
   </g>
   <g id="patch_5">
    <path d="M 67.8625 347.438437 
L 401.3233 347.438437 
" style="fill: none; stroke: #000000; stroke-width: 0.8; stroke-linejoin: miter; stroke-linecap: square"/>
   </g>
   <g id="patch_6">
    <path d="M 67.8625 14.798437 
L 401.3233 14.798437 
" style="fill: none; stroke: #000000; stroke-width: 0.8; stroke-linejoin: miter; stroke-linecap: square"/>
   </g>
   <g id="patch_7">
    <path d="M 257.950803 262.063119 
Q 234.442322 191.711271 210.933841 121.359424 
L 204.768922 123.419467 
Q 206.342157 112.351188 207.915391 101.282909 
Q 215.826647 109.18189 223.737903 117.080872 
L 217.572984 119.140915 
Q 241.081465 189.492763 264.589946 259.844611 
L 257.950803 262.063119 
z
" style="fill: #add8e6; opacity: 0.8; stroke: #000000; stroke-linecap: round"/>
   </g>
   <g id="text_15">
    <!-- $\log_{10} \beta_{c}$ -->
    <g transform="translate(301.28506 48.062437) scale(0.25 -0.25)">
     <defs>
      <path id="DejaVuSans-6c" d="M 603 4863 
L 1178 4863 
L 1178 0 
L 603 0 
L 603 4863 
z
" transform="scale(0.015625)"/>
      <path id="DejaVuSans-6f" d="M 1959 3097 
Q 1497 3097 1228 2736 
Q 959 2375 959 1747 
Q 959 1119 1226 758 
Q 1494 397 1959 397 
Q 2419 397 2687 759 
Q 2956 1122 2956 1747 
Q 2956 2369 2687 2733 
Q 2419 3097 1959 3097 
z
M 1959 3584 
Q 2709 3584 3137 3096 
Q 3566 2609 3566 1747 
Q 3566 888 3137 398 
Q 2709 -91 1959 -91 
Q 1206 -91 779 398 
Q 353 888 353 1747 
Q 353 2609 779 3096 
Q 1206 3584 1959 3584 
z
" transform="scale(0.015625)"/>
      <path id="DejaVuSans-67" d="M 2906 1791 
Q 2906 2416 2648 2759 
Q 2391 3103 1925 3103 
Q 1463 3103 1205 2759 
Q 947 2416 947 1791 
Q 947 1169 1205 825 
Q 1463 481 1925 481 
Q 2391 481 2648 825 
Q 2906 1169 2906 1791 
z
M 3481 434 
Q 3481 -459 3084 -895 
Q 2688 -1331 1869 -1331 
Q 1566 -1331 1297 -1286 
Q 1028 -1241 775 -1147 
L 775 -588 
Q 1028 -725 1275 -790 
Q 1522 -856 1778 -856 
Q 2344 -856 2625 -561 
Q 2906 -266 2906 331 
L 2906 616 
Q 2728 306 2450 153 
Q 2172 0 1784 0 
Q 1141 0 747 490 
Q 353 981 353 1791 
Q 353 2603 747 3093 
Q 1141 3584 1784 3584 
Q 2172 3584 2450 3431 
Q 2728 3278 2906 2969 
L 2906 3500 
L 3481 3500 
L 3481 434 
z
" transform="scale(0.015625)"/>
      <path id="DejaVuSans-31" d="M 794 531 
L 1825 531 
L 1825 4091 
L 703 3866 
L 703 4441 
L 1819 4666 
L 2450 4666 
L 2450 531 
L 3481 531 
L 3481 0 
L 794 0 
L 794 531 
z
" transform="scale(0.015625)"/>
      <path id="DejaVuSans-Oblique-3b2" d="M 872 216 
L 572 -1331 
L -6 -1331 
L 928 3478 
Q 1206 4903 2538 4903 
Q 3888 4903 3659 3700 
Q 3503 2844 2894 2531 
Q 3713 2250 3553 1416 
Q 3272 -69 1759 -66 
Q 1097 -63 872 216 
z
M 1019 966 
Q 1259 422 1875 425 
Q 2775 425 2966 1406 
Q 3138 2288 1675 2219 
L 1778 2750 
Q 2909 2731 3106 3750 
Q 3241 4438 2509 4434 
Q 1691 4434 1503 3459 
L 1019 966 
z
" transform="scale(0.015625)"/>
      <path id="DejaVuSans-Oblique-63" d="M 3431 3366 
L 3316 2797 
Q 3109 2947 2876 3022 
Q 2644 3097 2394 3097 
Q 2119 3097 1870 3000 
Q 1622 2903 1453 2725 
Q 1184 2453 1037 2087 
Q 891 1722 891 1331 
Q 891 859 1127 628 
Q 1363 397 1844 397 
Q 2081 397 2348 469 
Q 2616 541 2906 684 
L 2797 116 
Q 2547 13 2283 -39 
Q 2019 -91 1741 -91 
Q 1044 -91 669 257 
Q 294 606 294 1253 
Q 294 1797 489 2255 
Q 684 2713 1069 3078 
Q 1331 3328 1684 3456 
Q 2038 3584 2456 3584 
Q 2700 3584 2940 3529 
Q 3181 3475 3431 3366 
z
" transform="scale(0.015625)"/>
     </defs>
     <use xlink:href="#DejaVuSans-6c" transform="translate(0 0.390625)"/>
     <use xlink:href="#DejaVuSans-6f" transform="translate(27.783203 0.390625)"/>
     <use xlink:href="#DejaVuSans-67" transform="translate(88.964844 0.390625)"/>
     <use xlink:href="#DejaVuSans-31" transform="translate(153.398438 -16.015625) scale(0.7)"/>
     <use xlink:href="#DejaVuSans-30" transform="translate(197.93457 -16.015625) scale(0.7)"/>
     <use xlink:href="#DejaVuSans-Oblique-3b2" transform="translate(261.440754 0.390625)"/>
     <use xlink:href="#DejaVuSans-Oblique-63" transform="translate(325.259114 -16.015625) scale(0.7)"/>
    </g>
   </g>
  </g>
  <g id="axes_2">
   <g id="patch_8">
    <path d="M 409.3585 330.806437 
L 424.3273 330.806437 
L 424.3273 31.430437 
L 409.3585 31.430437 
z
" style="fill: #ffffff"/>
   </g>
   <g id="QuadMesh_1">
    <path d="M 409.3585 330.806437 
L 424.3273 330.806437 
L 424.3273 297.542437 
L 409.3585 297.542437 
L 409.3585 330.806437 
" clip-path="url(#p0b557978a1)" style="fill: #481668"/>
    <path d="M 409.3585 297.542437 
L 424.3273 297.542437 
L 424.3273 264.278437 
L 409.3585 264.278437 
L 409.3585 297.542437 
" clip-path="url(#p0b557978a1)" style="fill: #443983"/>
    <path d="M 409.3585 264.278437 
L 424.3273 264.278437 
L 424.3273 231.014437 
L 409.3585 231.014437 
L 409.3585 264.278437 
" clip-path="url(#p0b557978a1)" style="fill: #375a8c"/>
    <path d="M 409.3585 231.014437 
L 424.3273 231.014437 
L 424.3273 197.750437 
L 409.3585 197.750437 
L 409.3585 231.014437 
" clip-path="url(#p0b557978a1)" style="fill: #2b758e"/>
    <path d="M 409.3585 197.750437 
L 424.3273 197.750437 
L 424.3273 164.486437 
L 409.3585 164.486437 
L 409.3585 197.750437 
" clip-path="url(#p0b557978a1)" style="fill: #21918c"/>
    <path d="M 409.3585 164.486437 
L 424.3273 164.486437 
L 424.3273 131.222437 
L 409.3585 131.222437 
L 409.3585 164.486437 
" clip-path="url(#p0b557978a1)" style="fill: #25ab82"/>
    <path d="M 409.3585 131.222437 
L 424.3273 131.222437 
L 424.3273 97.958438 
L 409.3585 97.958438 
L 409.3585 131.222437 
" clip-path="url(#p0b557978a1)" style="fill: #4ec36b"/>
    <path d="M 409.3585 97.958438 
L 424.3273 97.958438 
L 424.3273 64.694437 
L 409.3585 64.694437 
L 409.3585 97.958438 
" clip-path="url(#p0b557978a1)" style="fill: #90d743"/>
    <path d="M 409.3585 64.694437 
L 424.3273 64.694437 
L 424.3273 31.430437 
L 409.3585 31.430437 
L 409.3585 64.694437 
" clip-path="url(#p0b557978a1)" style="fill: #dae319"/>
   </g>
   <g id="matplotlib.axis_3"/>
   <g id="matplotlib.axis_4">
    <g id="ytick_7">
     <g id="line2d_13">
      <defs>
       <path id="m04a402fe56" d="M 0 0 
L 6 0 
" style="stroke: #000000; stroke-width: 1.5"/>
      </defs>
      <g>
       <use xlink:href="#m04a402fe56" x="424.3273" y="309.316853" style="stroke: #000000; stroke-width: 1.5"/>
      </g>
     </g>
     <g id="text_16">
      <!-- −2.0 -->
      <g transform="translate(433.8273 316.535369) scale(0.19 -0.19)">
       <defs>
        <path id="DejaVuSans-2212" d="M 678 2272 
L 4684 2272 
L 4684 1741 
L 678 1741 
L 678 2272 
z
" transform="scale(0.015625)"/>
       </defs>
       <use xlink:href="#DejaVuSans-2212"/>
       <use xlink:href="#DejaVuSans-32" transform="translate(83.789062 0)"/>
       <use xlink:href="#DejaVuSans-2e" transform="translate(147.412109 0)"/>
       <use xlink:href="#DejaVuSans-30" transform="translate(179.199219 0)"/>
      </g>
     </g>
    </g>
    <g id="ytick_8">
     <g id="line2d_14">
      <g>
       <use xlink:href="#m04a402fe56" x="424.3273" y="233.546106" style="stroke: #000000; stroke-width: 1.5"/>
      </g>
     </g>
     <g id="text_17">
      <!-- −1.9 -->
      <g transform="translate(433.8273 240.764622) scale(0.19 -0.19)">
       <defs>
        <path id="DejaVuSans-39" d="M 703 97 
L 703 672 
Q 941 559 1184 500 
Q 1428 441 1663 441 
Q 2288 441 2617 861 
Q 2947 1281 2994 2138 
Q 2813 1869 2534 1725 
Q 2256 1581 1919 1581 
Q 1219 1581 811 2004 
Q 403 2428 403 3163 
Q 403 3881 828 4315 
Q 1253 4750 1959 4750 
Q 2769 4750 3195 4129 
Q 3622 3509 3622 2328 
Q 3622 1225 3098 567 
Q 2575 -91 1691 -91 
Q 1453 -91 1209 -44 
Q 966 3 703 97 
z
M 1959 2075 
Q 2384 2075 2632 2365 
Q 2881 2656 2881 3163 
Q 2881 3666 2632 3958 
Q 2384 4250 1959 4250 
Q 1534 4250 1286 3958 
Q 1038 3666 1038 3163 
Q 1038 2656 1286 2365 
Q 1534 2075 1959 2075 
z
" transform="scale(0.015625)"/>
       </defs>
       <use xlink:href="#DejaVuSans-2212"/>
       <use xlink:href="#DejaVuSans-31" transform="translate(83.789062 0)"/>
       <use xlink:href="#DejaVuSans-2e" transform="translate(147.412109 0)"/>
       <use xlink:href="#DejaVuSans-39" transform="translate(179.199219 0)"/>
      </g>
     </g>
    </g>
    <g id="ytick_9">
     <g id="line2d_15">
      <g>
       <use xlink:href="#m04a402fe56" x="424.3273" y="157.775269" style="stroke: #000000; stroke-width: 1.5"/>
      </g>
     </g>
     <g id="text_18">
      <!-- −1.8 -->
      <g transform="translate(433.8273 164.993785) scale(0.19 -0.19)">
       <use xlink:href="#DejaVuSans-2212"/>
       <use xlink:href="#DejaVuSans-31" transform="translate(83.789062 0)"/>
       <use xlink:href="#DejaVuSans-2e" transform="translate(147.412109 0)"/>
       <use xlink:href="#DejaVuSans-38" transform="translate(179.199219 0)"/>
      </g>
     </g>
    </g>
    <g id="ytick_10">
     <g id="line2d_16">
      <g>
       <use xlink:href="#m04a402fe56" x="424.3273" y="82.004522" style="stroke: #000000; stroke-width: 1.5"/>
      </g>
     </g>
     <g id="text_19">
      <!-- −1.7 -->
      <g transform="translate(433.8273 89.223038) scale(0.19 -0.19)">
       <defs>
        <path id="DejaVuSans-37" d="M 525 4666 
L 3525 4666 
L 3525 4397 
L 1831 0 
L 1172 0 
L 2766 4134 
L 525 4134 
L 525 4666 
z
" transform="scale(0.015625)"/>
       </defs>
       <use xlink:href="#DejaVuSans-2212"/>
       <use xlink:href="#DejaVuSans-31" transform="translate(83.789062 0)"/>
       <use xlink:href="#DejaVuSans-2e" transform="translate(147.412109 0)"/>
       <use xlink:href="#DejaVuSans-37" transform="translate(179.199219 0)"/>
      </g>
     </g>
    </g>
   </g>
   <g id="LineCollection_1"/>
   <g id="patch_9">
    <path d="M 409.3585 330.806437 
L 416.8429 330.806437 
L 424.3273 330.806437 
L 424.3273 31.430437 
L 416.8429 31.430437 
L 409.3585 31.430437 
L 409.3585 330.806437 
z
" style="fill: none; stroke: #000000; stroke-width: 0.8; stroke-linejoin: miter; stroke-linecap: square"/>
   </g>
  </g>
 </g>
 <defs>
  <clipPath id="pa418702ae2">
   <rect x="67.8625" y="14.798437" width="333.4608" height="332.64"/>
  </clipPath>
  <clipPath id="p0b557978a1">
   <rect x="409.3585" y="31.430437" width="14.9688" height="299.376"/>
  </clipPath>
 </defs>
</svg>
