<?xml version="1.0" encoding="utf-8" standalone="no"?>
<!DOCTYPE svg PUBLIC "-//W3C//DTD SVG 1.1//EN"
  "http://www.w3.org/Graphics/SVG/1.1/DTD/svg11.dtd">
<svg xmlns:xlink="http://www.w3.org/1999/xlink" width="433.02625pt" height="331.76825pt" viewBox="0 0 433.02625 331.76825" xmlns="http://www.w3.org/2000/svg" version="1.1">
 <metadata>
  <rdf:RDF xmlns:dc="http://purl.org/dc/elements/1.1/" xmlns:cc="http://creativecommons.org/ns#" xmlns:rdf="http://www.w3.org/1999/02/22-rdf-syntax-ns#">
   <cc:Work>
    <dc:type rdf:resource="http://purl.org/dc/dcmitype/StillImage"/>
    <dc:date>2025-05-12T14:40:32.313843</dc:date>
    <dc:format>image/svg+xml</dc:format>
    <dc:creator>
     <cc:Agent>
      <dc:title>Matplotlib v3.10.1, https://matplotlib.org/</dc:title>
     </cc:Agent>
    </dc:creator>
   </cc:Work>
  </rdf:RDF>
 </metadata>
 <defs>
  <style type="text/css">*{stroke-linejoin: round; stroke-linecap: butt}</style>
 </defs>
 <g id="figure_1">
  <g id="patch_1">
   <path d="M 0 331.76825 
L 433.02625 331.76825 
L 433.02625 0 
L 0 0 
z
" style="fill: #ffffff"/>
  </g>
  <g id="axes_1">
   <g id="patch_2">
    <path d="M 68.70625 273.312 
L 425.82625 273.312 
L 425.82625 7.2 
L 68.70625 7.2 
z
" style="fill: #ffffff"/>
   </g>
   <g id="matplotlib.axis_1">
    <g id="xtick_1">
     <g id="line2d_1">
      <defs>
       <path id="m1174b01340" d="M 0 0 
L 0 3 
" style="stroke: #000000; stroke-width: 1.5"/>
      </defs>
      <g>
       <use xlink:href="#m1174b01340" x="98.46625" y="273.312" style="stroke: #000000; stroke-width: 1.5"/>
      </g>
     </g>
     <g id="text_1">
      <!-- 0.00 -->
      <g transform="translate(76.200625 295.008875) scale(0.2 -0.2)">
       <defs>
        <path id="DejaVuSans-30" d="M 2034 4250 
Q 1547 4250 1301 3770 
Q 1056 3291 1056 2328 
Q 1056 1369 1301 889 
Q 1547 409 2034 409 
Q 2525 409 2770 889 
Q 3016 1369 3016 2328 
Q 3016 3291 2770 3770 
Q 2525 4250 2034 4250 
z
M 2034 4750 
Q 2819 4750 3233 4129 
Q 3647 3509 3647 2328 
Q 3647 1150 3233 529 
Q 2819 -91 2034 -91 
Q 1250 -91 836 529 
Q 422 1150 422 2328 
Q 422 3509 836 4129 
Q 1250 4750 2034 4750 
z
" transform="scale(0.015625)"/>
        <path id="DejaVuSans-2e" d="M 684 794 
L 1344 794 
L 1344 0 
L 684 0 
L 684 794 
z
" transform="scale(0.015625)"/>
       </defs>
       <use xlink:href="#DejaVuSans-30"/>
       <use xlink:href="#DejaVuSans-2e" transform="translate(63.623047 0)"/>
       <use xlink:href="#DejaVuSans-30" transform="translate(95.410156 0)"/>
       <use xlink:href="#DejaVuSans-30" transform="translate(159.033203 0)"/>
      </g>
     </g>
    </g>
    <g id="xtick_2">
     <g id="line2d_2">
      <g>
       <use xlink:href="#m1174b01340" x="172.86625" y="273.312" style="stroke: #000000; stroke-width: 1.5"/>
      </g>
     </g>
     <g id="text_2">
      <!-- 0.25 -->
      <g transform="translate(150.600625 295.008875) scale(0.2 -0.2)">
       <defs>
        <path id="DejaVuSans-32" d="M 1228 531 
L 3431 531 
L 3431 0 
L 469 0 
L 469 531 
Q 828 903 1448 1529 
Q 2069 2156 2228 2338 
Q 2531 2678 2651 2914 
Q 2772 3150 2772 3378 
Q 2772 3750 2511 3984 
Q 2250 4219 1831 4219 
Q 1534 4219 1204 4116 
Q 875 4013 500 3803 
L 500 4441 
Q 881 4594 1212 4672 
Q 1544 4750 1819 4750 
Q 2544 4750 2975 4387 
Q 3406 4025 3406 3419 
Q 3406 3131 3298 2873 
Q 3191 2616 2906 2266 
Q 2828 2175 2409 1742 
Q 1991 1309 1228 531 
z
" transform="scale(0.015625)"/>
        <path id="DejaVuSans-35" d="M 691 4666 
L 3169 4666 
L 3169 4134 
L 1269 4134 
L 1269 2991 
Q 1406 3038 1543 3061 
Q 1681 3084 1819 3084 
Q 2600 3084 3056 2656 
Q 3513 2228 3513 1497 
Q 3513 744 3044 326 
Q 2575 -91 1722 -91 
Q 1428 -91 1123 -41 
Q 819 9 494 109 
L 494 744 
Q 775 591 1075 516 
Q 1375 441 1709 441 
Q 2250 441 2565 725 
Q 2881 1009 2881 1497 
Q 2881 1984 2565 2268 
Q 2250 2553 1709 2553 
Q 1456 2553 1204 2497 
Q 953 2441 691 2322 
L 691 4666 
z
" transform="scale(0.015625)"/>
       </defs>
       <use xlink:href="#DejaVuSans-30"/>
       <use xlink:href="#DejaVuSans-2e" transform="translate(63.623047 0)"/>
       <use xlink:href="#DejaVuSans-32" transform="translate(95.410156 0)"/>
       <use xlink:href="#DejaVuSans-35" transform="translate(159.033203 0)"/>
      </g>
     </g>
    </g>
    <g id="xtick_3">
     <g id="line2d_3">
      <g>
       <use xlink:href="#m1174b01340" x="247.26625" y="273.312" style="stroke: #000000; stroke-width: 1.5"/>
      </g>
     </g>
     <g id="text_3">
      <!-- 0.50 -->
      <g transform="translate(225.000625 295.008875) scale(0.2 -0.2)">
       <use xlink:href="#DejaVuSans-30"/>
       <use xlink:href="#DejaVuSans-2e" transform="translate(63.623047 0)"/>
       <use xlink:href="#DejaVuSans-35" transform="translate(95.410156 0)"/>
       <use xlink:href="#DejaVuSans-30" transform="translate(159.033203 0)"/>
      </g>
     </g>
    </g>
    <g id="xtick_4">
     <g id="line2d_4">
      <g>
       <use xlink:href="#m1174b01340" x="321.66625" y="273.312" style="stroke: #000000; stroke-width: 1.5"/>
      </g>
     </g>
     <g id="text_4">
      <!-- 0.75 -->
      <g transform="translate(299.400625 295.008875) scale(0.2 -0.2)">
       <defs>
        <path id="DejaVuSans-37" d="M 525 4666 
L 3525 4666 
L 3525 4397 
L 1831 0 
L 1172 0 
L 2766 4134 
L 525 4134 
L 525 4666 
z
" transform="scale(0.015625)"/>
       </defs>
       <use xlink:href="#DejaVuSans-30"/>
       <use xlink:href="#DejaVuSans-2e" transform="translate(63.623047 0)"/>
       <use xlink:href="#DejaVuSans-37" transform="translate(95.410156 0)"/>
       <use xlink:href="#DejaVuSans-35" transform="translate(159.033203 0)"/>
      </g>
     </g>
    </g>
    <g id="xtick_5">
     <g id="line2d_5">
      <g>
       <use xlink:href="#m1174b01340" x="396.06625" y="273.312" style="stroke: #000000; stroke-width: 1.5"/>
      </g>
     </g>
     <g id="text_5">
      <!-- 1.00 -->
      <g transform="translate(373.800625 295.008875) scale(0.2 -0.2)">
       <defs>
        <path id="DejaVuSans-31" d="M 794 531 
L 1825 531 
L 1825 4091 
L 703 3866 
L 703 4441 
L 1819 4666 
L 2450 4666 
L 2450 531 
L 3481 531 
L 3481 0 
L 794 0 
L 794 531 
z
" transform="scale(0.015625)"/>
       </defs>
       <use xlink:href="#DejaVuSans-31"/>
       <use xlink:href="#DejaVuSans-2e" transform="translate(63.623047 0)"/>
       <use xlink:href="#DejaVuSans-30" transform="translate(95.410156 0)"/>
       <use xlink:href="#DejaVuSans-30" transform="translate(159.033203 0)"/>
      </g>
     </g>
    </g>
    <g id="text_6">
     <!-- $k_{gm}$ -->
     <g transform="translate(229.86625 318.36825) scale(0.2 -0.2)">
      <defs>
       <path id="DejaVuSans-Oblique-6b" d="M 1172 4863 
L 1747 4863 
L 1197 2028 
L 3169 3500 
L 3916 3500 
L 1716 1825 
L 3322 0 
L 2625 0 
L 1131 1709 
L 800 0 
L 225 0 
L 1172 4863 
z
" transform="scale(0.015625)"/>
       <path id="DejaVuSans-Oblique-67" d="M 3816 3500 
L 3219 434 
Q 3047 -456 2561 -893 
Q 2075 -1331 1253 -1331 
Q 950 -1331 690 -1286 
Q 431 -1241 206 -1147 
L 313 -588 
Q 525 -725 762 -790 
Q 1000 -856 1269 -856 
Q 1816 -856 2167 -557 
Q 2519 -259 2631 300 
L 2681 563 
Q 2441 288 2122 144 
Q 1803 0 1434 0 
Q 903 0 598 351 
Q 294 703 294 1319 
Q 294 1803 478 2267 
Q 663 2731 997 3091 
Q 1219 3328 1514 3456 
Q 1809 3584 2131 3584 
Q 2484 3584 2746 3420 
Q 3009 3256 3138 2956 
L 3238 3500 
L 3816 3500 
z
M 2950 2216 
Q 2950 2641 2750 2872 
Q 2550 3103 2181 3103 
Q 1953 3103 1747 3012 
Q 1541 2922 1394 2759 
Q 1156 2491 1023 2127 
Q 891 1763 891 1375 
Q 891 944 1092 712 
Q 1294 481 1672 481 
Q 2219 481 2584 976 
Q 2950 1472 2950 2216 
z
" transform="scale(0.015625)"/>
       <path id="DejaVuSans-Oblique-6d" d="M 5747 2113 
L 5338 0 
L 4763 0 
L 5166 2094 
Q 5191 2228 5203 2325 
Q 5216 2422 5216 2491 
Q 5216 2772 5059 2928 
Q 4903 3084 4622 3084 
Q 4203 3084 3875 2770 
Q 3547 2456 3450 1953 
L 3066 0 
L 2491 0 
L 2900 2094 
Q 2925 2209 2937 2307 
Q 2950 2406 2950 2484 
Q 2950 2769 2794 2926 
Q 2638 3084 2363 3084 
Q 1938 3084 1609 2770 
Q 1281 2456 1184 1953 
L 800 0 
L 225 0 
L 909 3500 
L 1484 3500 
L 1375 2956 
Q 1609 3263 1923 3423 
Q 2238 3584 2597 3584 
Q 2978 3584 3223 3384 
Q 3469 3184 3519 2828 
Q 3781 3197 4126 3390 
Q 4472 3584 4856 3584 
Q 5306 3584 5551 3325 
Q 5797 3066 5797 2591 
Q 5797 2488 5784 2364 
Q 5772 2241 5747 2113 
z
" transform="scale(0.015625)"/>
      </defs>
      <use xlink:href="#DejaVuSans-Oblique-6b" transform="translate(0 0.015625)"/>
      <use xlink:href="#DejaVuSans-Oblique-67" transform="translate(57.910156 -16.390625) scale(0.7)"/>
      <use xlink:href="#DejaVuSans-Oblique-6d" transform="translate(102.34375 -16.390625) scale(0.7)"/>
     </g>
    </g>
   </g>
   <g id="matplotlib.axis_2">
    <g id="ytick_1">
     <g id="line2d_6">
      <defs>
       <path id="mba351fa66a" d="M 0 0 
L 3 0 
" style="stroke: #000000; stroke-width: 1.5"/>
      </defs>
      <g>
       <use xlink:href="#mba351fa66a" x="68.70625" y="245.002213" style="stroke: #000000; stroke-width: 1.5"/>
      </g>
     </g>
     <g id="text_7">
      <!-- 0.3 -->
      <g transform="translate(33.4 252.60065) scale(0.2 -0.2)">
       <defs>
        <path id="DejaVuSans-33" d="M 2597 2516 
Q 3050 2419 3304 2112 
Q 3559 1806 3559 1356 
Q 3559 666 3084 287 
Q 2609 -91 1734 -91 
Q 1441 -91 1130 -33 
Q 819 25 488 141 
L 488 750 
Q 750 597 1062 519 
Q 1375 441 1716 441 
Q 2309 441 2620 675 
Q 2931 909 2931 1356 
Q 2931 1769 2642 2001 
Q 2353 2234 1838 2234 
L 1294 2234 
L 1294 2753 
L 1863 2753 
Q 2328 2753 2575 2939 
Q 2822 3125 2822 3475 
Q 2822 3834 2567 4026 
Q 2313 4219 1838 4219 
Q 1578 4219 1281 4162 
Q 984 4106 628 3988 
L 628 4550 
Q 988 4650 1302 4700 
Q 1616 4750 1894 4750 
Q 2613 4750 3031 4423 
Q 3450 4097 3450 3541 
Q 3450 3153 3228 2886 
Q 3006 2619 2597 2516 
z
" transform="scale(0.015625)"/>
       </defs>
       <use xlink:href="#DejaVuSans-30"/>
       <use xlink:href="#DejaVuSans-2e" transform="translate(63.623047 0)"/>
       <use xlink:href="#DejaVuSans-33" transform="translate(95.410156 0)"/>
      </g>
     </g>
    </g>
    <g id="ytick_2">
     <g id="line2d_7">
      <g>
       <use xlink:href="#mba351fa66a" x="68.70625" y="188.382638" style="stroke: #000000; stroke-width: 1.5"/>
      </g>
     </g>
     <g id="text_8">
      <!-- 0.4 -->
      <g transform="translate(33.4 195.981076) scale(0.2 -0.2)">
       <defs>
        <path id="DejaVuSans-34" d="M 2419 4116 
L 825 1625 
L 2419 1625 
L 2419 4116 
z
M 2253 4666 
L 3047 4666 
L 3047 1625 
L 3713 1625 
L 3713 1100 
L 3047 1100 
L 3047 0 
L 2419 0 
L 2419 1100 
L 313 1100 
L 313 1709 
L 2253 4666 
z
" transform="scale(0.015625)"/>
       </defs>
       <use xlink:href="#DejaVuSans-30"/>
       <use xlink:href="#DejaVuSans-2e" transform="translate(63.623047 0)"/>
       <use xlink:href="#DejaVuSans-34" transform="translate(95.410156 0)"/>
      </g>
     </g>
    </g>
    <g id="ytick_3">
     <g id="line2d_8">
      <g>
       <use xlink:href="#mba351fa66a" x="68.70625" y="131.763064" style="stroke: #000000; stroke-width: 1.5"/>
      </g>
     </g>
     <g id="text_9">
      <!-- 0.5 -->
      <g transform="translate(33.4 139.361501) scale(0.2 -0.2)">
       <use xlink:href="#DejaVuSans-30"/>
       <use xlink:href="#DejaVuSans-2e" transform="translate(63.623047 0)"/>
       <use xlink:href="#DejaVuSans-35" transform="translate(95.410156 0)"/>
      </g>
     </g>
    </g>
    <g id="ytick_4">
     <g id="line2d_9">
      <g>
       <use xlink:href="#mba351fa66a" x="68.70625" y="75.143489" style="stroke: #000000; stroke-width: 1.5"/>
      </g>
     </g>
     <g id="text_10">
      <!-- 0.6 -->
      <g transform="translate(33.4 82.741927) scale(0.2 -0.2)">
       <defs>
        <path id="DejaVuSans-36" d="M 2113 2584 
Q 1688 2584 1439 2293 
Q 1191 2003 1191 1497 
Q 1191 994 1439 701 
Q 1688 409 2113 409 
Q 2538 409 2786 701 
Q 3034 994 3034 1497 
Q 3034 2003 2786 2293 
Q 2538 2584 2113 2584 
z
M 3366 4563 
L 3366 3988 
Q 3128 4100 2886 4159 
Q 2644 4219 2406 4219 
Q 1781 4219 1451 3797 
Q 1122 3375 1075 2522 
Q 1259 2794 1537 2939 
Q 1816 3084 2150 3084 
Q 2853 3084 3261 2657 
Q 3669 2231 3669 1497 
Q 3669 778 3244 343 
Q 2819 -91 2113 -91 
Q 1303 -91 875 529 
Q 447 1150 447 2328 
Q 447 3434 972 4092 
Q 1497 4750 2381 4750 
Q 2619 4750 2861 4703 
Q 3103 4656 3366 4563 
z
" transform="scale(0.015625)"/>
       </defs>
       <use xlink:href="#DejaVuSans-30"/>
       <use xlink:href="#DejaVuSans-2e" transform="translate(63.623047 0)"/>
       <use xlink:href="#DejaVuSans-36" transform="translate(95.410156 0)"/>
      </g>
     </g>
    </g>
    <g id="ytick_5">
     <g id="line2d_10">
      <g>
       <use xlink:href="#mba351fa66a" x="68.70625" y="18.523915" style="stroke: #000000; stroke-width: 1.5"/>
      </g>
     </g>
     <g id="text_11">
      <!-- 0.7 -->
      <g transform="translate(33.4 26.122352) scale(0.2 -0.2)">
       <use xlink:href="#DejaVuSans-30"/>
       <use xlink:href="#DejaVuSans-2e" transform="translate(63.623047 0)"/>
       <use xlink:href="#DejaVuSans-37" transform="translate(95.410156 0)"/>
      </g>
     </g>
    </g>
    <g id="text_12">
     <!-- $p^{EI}$ -->
     <g transform="translate(25.2 153.856) rotate(-90) scale(0.2 -0.2)">
      <defs>
       <path id="DejaVuSans-Oblique-70" d="M 3175 2156 
Q 3175 2616 2975 2859 
Q 2775 3103 2400 3103 
Q 2144 3103 1911 2972 
Q 1678 2841 1497 2591 
Q 1319 2344 1212 1994 
Q 1106 1644 1106 1300 
Q 1106 863 1306 627 
Q 1506 391 1875 391 
Q 2147 391 2380 519 
Q 2613 647 2778 891 
Q 2956 1147 3065 1494 
Q 3175 1841 3175 2156 
z
M 1394 2969 
Q 1625 3272 1939 3428 
Q 2253 3584 2638 3584 
Q 3175 3584 3472 3232 
Q 3769 2881 3769 2247 
Q 3769 1728 3584 1258 
Q 3400 788 3053 416 
Q 2822 169 2531 39 
Q 2241 -91 1919 -91 
Q 1547 -91 1294 64 
Q 1041 219 916 525 
L 556 -1331 
L -19 -1331 
L 922 3500 
L 1497 3500 
L 1394 2969 
z
" transform="scale(0.015625)"/>
       <path id="DejaVuSans-Oblique-45" d="M 1081 4666 
L 4031 4666 
L 3928 4134 
L 1606 4134 
L 1338 2753 
L 3566 2753 
L 3463 2222 
L 1234 2222 
L 909 531 
L 3284 531 
L 3181 0 
L 172 0 
L 1081 4666 
z
" transform="scale(0.015625)"/>
       <path id="DejaVuSans-Oblique-49" d="M 1081 4666 
L 1716 4666 
L 806 0 
L 172 0 
L 1081 4666 
z
" transform="scale(0.015625)"/>
      </defs>
      <use xlink:href="#DejaVuSans-Oblique-70" transform="translate(0 0.684375)"/>
      <use xlink:href="#DejaVuSans-Oblique-45" transform="translate(68.126458 38.965625) scale(0.7)"/>
      <use xlink:href="#DejaVuSans-Oblique-49" transform="translate(112.354974 38.965625) scale(0.7)"/>
     </g>
    </g>
   </g>
   <g id="line2d_11">
    <path d="M 98.46625 45.504116 
L 112.63768 46.900908 
L 126.80911 48.255278 
L 140.980538 49.569388 
L 155.15197 50.844957 
L 169.323398 52.08391 
L 183.494825 53.287933 
L 197.666253 54.458344 
L 211.83769 55.596796 
L 226.009117 56.704638 
L 240.180545 57.782883 
L 254.351955 58.832983 
L 268.523383 59.856151 
L 282.69481 60.853334 
L 296.866238 61.825476 
L 311.037684 62.773758 
L 325.209094 63.698754 
L 339.380539 64.601646 
L 353.551967 65.483208 
L 367.723395 66.343881 
L 381.894822 67.184878 
L 396.06625 68.006505 
" clip-path="url(#pcbfe89c68d)" style="fill: none; stroke: #ff0000; stroke-opacity: 0.8; stroke-width: 3.5; stroke-linecap: square"/>
    <defs>
     <path id="me9dbdf85bc" d="M 0 5 
C 1.326016 5 2.597899 4.473168 3.535534 3.535534 
C 4.473168 2.597899 5 1.326016 5 0 
C 5 -1.326016 4.473168 -2.597899 3.535534 -3.535534 
C 2.597899 -4.473168 1.326016 -5 0 -5 
C -1.326016 -5 -2.597899 -4.473168 -3.535534 -3.535534 
C -4.473168 -2.597899 -5 -1.326016 -5 0 
C -5 1.326016 -4.473168 2.597899 -3.535534 3.535534 
C -2.597899 4.473168 -1.326016 5 0 5 
z
" style="stroke: #ff0000; stroke-opacity: 0.8"/>
    </defs>
    <g clip-path="url(#pcbfe89c68d)">
     <use xlink:href="#me9dbdf85bc" x="98.46625" y="45.504116" style="fill: #ff0000; fill-opacity: 0.8; stroke: #ff0000; stroke-opacity: 0.8"/>
     <use xlink:href="#me9dbdf85bc" x="112.63768" y="46.900908" style="fill: #ff0000; fill-opacity: 0.8; stroke: #ff0000; stroke-opacity: 0.8"/>
     <use xlink:href="#me9dbdf85bc" x="126.80911" y="48.255278" style="fill: #ff0000; fill-opacity: 0.8; stroke: #ff0000; stroke-opacity: 0.8"/>
     <use xlink:href="#me9dbdf85bc" x="140.980538" y="49.569388" style="fill: #ff0000; fill-opacity: 0.8; stroke: #ff0000; stroke-opacity: 0.8"/>
     <use xlink:href="#me9dbdf85bc" x="155.15197" y="50.844957" style="fill: #ff0000; fill-opacity: 0.8; stroke: #ff0000; stroke-opacity: 0.8"/>
     <use xlink:href="#me9dbdf85bc" x="169.323398" y="52.08391" style="fill: #ff0000; fill-opacity: 0.8; stroke: #ff0000; stroke-opacity: 0.8"/>
     <use xlink:href="#me9dbdf85bc" x="183.494825" y="53.287933" style="fill: #ff0000; fill-opacity: 0.8; stroke: #ff0000; stroke-opacity: 0.8"/>
     <use xlink:href="#me9dbdf85bc" x="197.666253" y="54.458344" style="fill: #ff0000; fill-opacity: 0.8; stroke: #ff0000; stroke-opacity: 0.8"/>
     <use xlink:href="#me9dbdf85bc" x="211.83769" y="55.596796" style="fill: #ff0000; fill-opacity: 0.8; stroke: #ff0000; stroke-opacity: 0.8"/>
     <use xlink:href="#me9dbdf85bc" x="226.009117" y="56.704638" style="fill: #ff0000; fill-opacity: 0.8; stroke: #ff0000; stroke-opacity: 0.8"/>
     <use xlink:href="#me9dbdf85bc" x="240.180545" y="57.782883" style="fill: #ff0000; fill-opacity: 0.8; stroke: #ff0000; stroke-opacity: 0.8"/>
     <use xlink:href="#me9dbdf85bc" x="254.351955" y="58.832983" style="fill: #ff0000; fill-opacity: 0.8; stroke: #ff0000; stroke-opacity: 0.8"/>
     <use xlink:href="#me9dbdf85bc" x="268.523383" y="59.856151" style="fill: #ff0000; fill-opacity: 0.8; stroke: #ff0000; stroke-opacity: 0.8"/>
     <use xlink:href="#me9dbdf85bc" x="282.69481" y="60.853334" style="fill: #ff0000; fill-opacity: 0.8; stroke: #ff0000; stroke-opacity: 0.8"/>
     <use xlink:href="#me9dbdf85bc" x="296.866238" y="61.825476" style="fill: #ff0000; fill-opacity: 0.8; stroke: #ff0000; stroke-opacity: 0.8"/>
     <use xlink:href="#me9dbdf85bc" x="311.037684" y="62.773758" style="fill: #ff0000; fill-opacity: 0.8; stroke: #ff0000; stroke-opacity: 0.8"/>
     <use xlink:href="#me9dbdf85bc" x="325.209094" y="63.698754" style="fill: #ff0000; fill-opacity: 0.8; stroke: #ff0000; stroke-opacity: 0.8"/>
     <use xlink:href="#me9dbdf85bc" x="339.380539" y="64.601646" style="fill: #ff0000; fill-opacity: 0.8; stroke: #ff0000; stroke-opacity: 0.8"/>
     <use xlink:href="#me9dbdf85bc" x="353.551967" y="65.483208" style="fill: #ff0000; fill-opacity: 0.8; stroke: #ff0000; stroke-opacity: 0.8"/>
     <use xlink:href="#me9dbdf85bc" x="367.723395" y="66.343881" style="fill: #ff0000; fill-opacity: 0.8; stroke: #ff0000; stroke-opacity: 0.8"/>
     <use xlink:href="#me9dbdf85bc" x="381.894822" y="67.184878" style="fill: #ff0000; fill-opacity: 0.8; stroke: #ff0000; stroke-opacity: 0.8"/>
     <use xlink:href="#me9dbdf85bc" x="396.06625" y="68.006505" style="fill: #ff0000; fill-opacity: 0.8; stroke: #ff0000; stroke-opacity: 0.8"/>
    </g>
   </g>
   <g id="line2d_12">
    <path d="M 98.46625 110.883443 
L 112.63768 112.795362 
L 126.80911 114.640124 
L 140.980538 116.42154 
L 155.15197 118.143054 
L 169.323398 119.807872 
L 183.494825 121.418794 
L 197.666253 122.978621 
L 211.83769 124.489818 
L 226.009117 125.954848 
L 240.180545 127.375837 
L 254.351955 128.754844 
L 268.523383 130.09369 
L 282.69481 131.394368 
L 296.866238 132.658345 
L 311.037684 133.887275 
L 325.209094 135.082777 
L 339.380539 136.245999 
L 353.551967 137.378494 
L 367.723395 138.481291 
L 381.894822 139.555757 
L 396.06625 140.602937 
" clip-path="url(#pcbfe89c68d)" style="fill: none; stroke: #008000; stroke-opacity: 0.8; stroke-width: 3.5; stroke-linecap: square"/>
    <defs>
     <path id="m70b97d9409" d="M -5 5 
L 5 5 
L 5 -5 
L -5 -5 
z
" style="stroke: #008000; stroke-opacity: 0.8; stroke-linejoin: miter"/>
    </defs>
    <g clip-path="url(#pcbfe89c68d)">
     <use xlink:href="#m70b97d9409" x="98.46625" y="110.883443" style="fill: #008000; fill-opacity: 0.8; stroke: #008000; stroke-opacity: 0.8; stroke-linejoin: miter"/>
     <use xlink:href="#m70b97d9409" x="112.63768" y="112.795362" style="fill: #008000; fill-opacity: 0.8; stroke: #008000; stroke-opacity: 0.8; stroke-linejoin: miter"/>
     <use xlink:href="#m70b97d9409" x="126.80911" y="114.640124" style="fill: #008000; fill-opacity: 0.8; stroke: #008000; stroke-opacity: 0.8; stroke-linejoin: miter"/>
     <use xlink:href="#m70b97d9409" x="140.980538" y="116.42154" style="fill: #008000; fill-opacity: 0.8; stroke: #008000; stroke-opacity: 0.8; stroke-linejoin: miter"/>
     <use xlink:href="#m70b97d9409" x="155.15197" y="118.143054" style="fill: #008000; fill-opacity: 0.8; stroke: #008000; stroke-opacity: 0.8; stroke-linejoin: miter"/>
     <use xlink:href="#m70b97d9409" x="169.323398" y="119.807872" style="fill: #008000; fill-opacity: 0.8; stroke: #008000; stroke-opacity: 0.8; stroke-linejoin: miter"/>
     <use xlink:href="#m70b97d9409" x="183.494825" y="121.418794" style="fill: #008000; fill-opacity: 0.8; stroke: #008000; stroke-opacity: 0.8; stroke-linejoin: miter"/>
     <use xlink:href="#m70b97d9409" x="197.666253" y="122.978621" style="fill: #008000; fill-opacity: 0.8; stroke: #008000; stroke-opacity: 0.8; stroke-linejoin: miter"/>
     <use xlink:href="#m70b97d9409" x="211.83769" y="124.489818" style="fill: #008000; fill-opacity: 0.8; stroke: #008000; stroke-opacity: 0.8; stroke-linejoin: miter"/>
     <use xlink:href="#m70b97d9409" x="226.009117" y="125.954848" style="fill: #008000; fill-opacity: 0.8; stroke: #008000; stroke-opacity: 0.8; stroke-linejoin: miter"/>
     <use xlink:href="#m70b97d9409" x="240.180545" y="127.375837" style="fill: #008000; fill-opacity: 0.8; stroke: #008000; stroke-opacity: 0.8; stroke-linejoin: miter"/>
     <use xlink:href="#m70b97d9409" x="254.351955" y="128.754844" style="fill: #008000; fill-opacity: 0.8; stroke: #008000; stroke-opacity: 0.8; stroke-linejoin: miter"/>
     <use xlink:href="#m70b97d9409" x="268.523383" y="130.09369" style="fill: #008000; fill-opacity: 0.8; stroke: #008000; stroke-opacity: 0.8; stroke-linejoin: miter"/>
     <use xlink:href="#m70b97d9409" x="282.69481" y="131.394368" style="fill: #008000; fill-opacity: 0.8; stroke: #008000; stroke-opacity: 0.8; stroke-linejoin: miter"/>
     <use xlink:href="#m70b97d9409" x="296.866238" y="132.658345" style="fill: #008000; fill-opacity: 0.8; stroke: #008000; stroke-opacity: 0.8; stroke-linejoin: miter"/>
     <use xlink:href="#m70b97d9409" x="311.037684" y="133.887275" style="fill: #008000; fill-opacity: 0.8; stroke: #008000; stroke-opacity: 0.8; stroke-linejoin: miter"/>
     <use xlink:href="#m70b97d9409" x="325.209094" y="135.082777" style="fill: #008000; fill-opacity: 0.8; stroke: #008000; stroke-opacity: 0.8; stroke-linejoin: miter"/>
     <use xlink:href="#m70b97d9409" x="339.380539" y="136.245999" style="fill: #008000; fill-opacity: 0.8; stroke: #008000; stroke-opacity: 0.8; stroke-linejoin: miter"/>
     <use xlink:href="#m70b97d9409" x="353.551967" y="137.378494" style="fill: #008000; fill-opacity: 0.8; stroke: #008000; stroke-opacity: 0.8; stroke-linejoin: miter"/>
     <use xlink:href="#m70b97d9409" x="367.723395" y="138.481291" style="fill: #008000; fill-opacity: 0.8; stroke: #008000; stroke-opacity: 0.8; stroke-linejoin: miter"/>
     <use xlink:href="#m70b97d9409" x="381.894822" y="139.555757" style="fill: #008000; fill-opacity: 0.8; stroke: #008000; stroke-opacity: 0.8; stroke-linejoin: miter"/>
     <use xlink:href="#m70b97d9409" x="396.06625" y="140.602937" style="fill: #008000; fill-opacity: 0.8; stroke: #008000; stroke-opacity: 0.8; stroke-linejoin: miter"/>
    </g>
   </g>
   <g id="line2d_13">
    <path d="M 98.46625 149.524413 
L 112.63768 151.735305 
L 126.80911 153.859803 
L 140.980538 155.903238 
L 155.15197 157.870622 
L 169.323398 159.766326 
L 183.494825 161.594483 
L 197.666253 163.358823 
L 211.83769 165.062889 
L 226.009117 166.70977 
L 240.180545 168.302417 
L 254.351955 169.843734 
L 268.523383 171.336168 
L 282.69481 172.782079 
L 296.866238 174.183697 
L 311.037684 175.54313 
L 325.209094 176.862318 
L 339.380539 178.143034 
L 353.551967 179.387049 
L 367.723395 180.595949 
L 381.894822 181.771169 
L 396.06625 182.914261 
" clip-path="url(#pcbfe89c68d)" style="fill: none; stroke: #0000ff; stroke-opacity: 0.8; stroke-width: 3.5; stroke-linecap: square"/>
    <defs>
     <path id="m9e079608e9" d="M 0 -5 
L -4.330127 -2.5 
L -4.330127 2.5 
L -0 5 
L 4.330127 2.5 
L 4.330127 -2.5 
z
" style="stroke: #0000ff; stroke-opacity: 0.8; stroke-linejoin: miter"/>
    </defs>
    <g clip-path="url(#pcbfe89c68d)">
     <use xlink:href="#m9e079608e9" x="98.46625" y="149.524413" style="fill: #0000ff; fill-opacity: 0.8; stroke: #0000ff; stroke-opacity: 0.8; stroke-linejoin: miter"/>
     <use xlink:href="#m9e079608e9" x="112.63768" y="151.735305" style="fill: #0000ff; fill-opacity: 0.8; stroke: #0000ff; stroke-opacity: 0.8; stroke-linejoin: miter"/>
     <use xlink:href="#m9e079608e9" x="126.80911" y="153.859803" style="fill: #0000ff; fill-opacity: 0.8; stroke: #0000ff; stroke-opacity: 0.8; stroke-linejoin: miter"/>
     <use xlink:href="#m9e079608e9" x="140.980538" y="155.903238" style="fill: #0000ff; fill-opacity: 0.8; stroke: #0000ff; stroke-opacity: 0.8; stroke-linejoin: miter"/>
     <use xlink:href="#m9e079608e9" x="155.15197" y="157.870622" style="fill: #0000ff; fill-opacity: 0.8; stroke: #0000ff; stroke-opacity: 0.8; stroke-linejoin: miter"/>
     <use xlink:href="#m9e079608e9" x="169.323398" y="159.766326" style="fill: #0000ff; fill-opacity: 0.8; stroke: #0000ff; stroke-opacity: 0.8; stroke-linejoin: miter"/>
     <use xlink:href="#m9e079608e9" x="183.494825" y="161.594483" style="fill: #0000ff; fill-opacity: 0.8; stroke: #0000ff; stroke-opacity: 0.8; stroke-linejoin: miter"/>
     <use xlink:href="#m9e079608e9" x="197.666253" y="163.358823" style="fill: #0000ff; fill-opacity: 0.8; stroke: #0000ff; stroke-opacity: 0.8; stroke-linejoin: miter"/>
     <use xlink:href="#m9e079608e9" x="211.83769" y="165.062889" style="fill: #0000ff; fill-opacity: 0.8; stroke: #0000ff; stroke-opacity: 0.8; stroke-linejoin: miter"/>
     <use xlink:href="#m9e079608e9" x="226.009117" y="166.70977" style="fill: #0000ff; fill-opacity: 0.8; stroke: #0000ff; stroke-opacity: 0.8; stroke-linejoin: miter"/>
     <use xlink:href="#m9e079608e9" x="240.180545" y="168.302417" style="fill: #0000ff; fill-opacity: 0.8; stroke: #0000ff; stroke-opacity: 0.8; stroke-linejoin: miter"/>
     <use xlink:href="#m9e079608e9" x="254.351955" y="169.843734" style="fill: #0000ff; fill-opacity: 0.8; stroke: #0000ff; stroke-opacity: 0.8; stroke-linejoin: miter"/>
     <use xlink:href="#m9e079608e9" x="268.523383" y="171.336168" style="fill: #0000ff; fill-opacity: 0.8; stroke: #0000ff; stroke-opacity: 0.8; stroke-linejoin: miter"/>
     <use xlink:href="#m9e079608e9" x="282.69481" y="172.782079" style="fill: #0000ff; fill-opacity: 0.8; stroke: #0000ff; stroke-opacity: 0.8; stroke-linejoin: miter"/>
     <use xlink:href="#m9e079608e9" x="296.866238" y="174.183697" style="fill: #0000ff; fill-opacity: 0.8; stroke: #0000ff; stroke-opacity: 0.8; stroke-linejoin: miter"/>
     <use xlink:href="#m9e079608e9" x="311.037684" y="175.54313" style="fill: #0000ff; fill-opacity: 0.8; stroke: #0000ff; stroke-opacity: 0.8; stroke-linejoin: miter"/>
     <use xlink:href="#m9e079608e9" x="325.209094" y="176.862318" style="fill: #0000ff; fill-opacity: 0.8; stroke: #0000ff; stroke-opacity: 0.8; stroke-linejoin: miter"/>
     <use xlink:href="#m9e079608e9" x="339.380539" y="178.143034" style="fill: #0000ff; fill-opacity: 0.8; stroke: #0000ff; stroke-opacity: 0.8; stroke-linejoin: miter"/>
     <use xlink:href="#m9e079608e9" x="353.551967" y="179.387049" style="fill: #0000ff; fill-opacity: 0.8; stroke: #0000ff; stroke-opacity: 0.8; stroke-linejoin: miter"/>
     <use xlink:href="#m9e079608e9" x="367.723395" y="180.595949" style="fill: #0000ff; fill-opacity: 0.8; stroke: #0000ff; stroke-opacity: 0.8; stroke-linejoin: miter"/>
     <use xlink:href="#m9e079608e9" x="381.894822" y="181.771169" style="fill: #0000ff; fill-opacity: 0.8; stroke: #0000ff; stroke-opacity: 0.8; stroke-linejoin: miter"/>
     <use xlink:href="#m9e079608e9" x="396.06625" y="182.914261" style="fill: #0000ff; fill-opacity: 0.8; stroke: #0000ff; stroke-opacity: 0.8; stroke-linejoin: miter"/>
    </g>
   </g>
   <g id="patch_3">
    <path d="M 68.70625 273.312 
L 68.70625 7.2 
" style="fill: none; stroke: #000000; stroke-width: 0.8; stroke-linejoin: miter; stroke-linecap: square"/>
   </g>
   <g id="patch_4">
    <path d="M 425.82625 273.312 
L 425.82625 7.2 
" style="fill: none; stroke: #000000; stroke-width: 0.8; stroke-linejoin: miter; stroke-linecap: square"/>
   </g>
   <g id="patch_5">
    <path d="M 68.70625 273.312 
L 425.82625 273.312 
" style="fill: none; stroke: #000000; stroke-width: 0.8; stroke-linejoin: miter; stroke-linecap: square"/>
   </g>
   <g id="patch_6">
    <path d="M 68.70625 7.2 
L 425.82625 7.2 
" style="fill: none; stroke: #000000; stroke-width: 0.8; stroke-linejoin: miter; stroke-linecap: square"/>
   </g>
   <g id="legend_1">
    <g id="patch_7">
     <path d="M 79.20625 265.812 
L 190.95625 265.812 
Q 193.95625 265.812 193.95625 262.812 
L 193.95625 172.287 
Q 193.95625 169.287 190.95625 169.287 
L 79.20625 169.287 
Q 76.20625 169.287 76.20625 172.287 
L 76.20625 262.812 
Q 76.20625 265.812 79.20625 265.812 
z
" style="fill: #ffffff; opacity: 0.8; stroke: #cccccc; stroke-linejoin: miter"/>
    </g>
    <g id="line2d_14">
     <path d="M 82.20625 183.462 
L 97.20625 183.462 
L 112.20625 183.462 
" style="fill: none; stroke: #ff0000; stroke-opacity: 0.8; stroke-width: 3.5; stroke-linecap: square"/>
     <g>
      <use xlink:href="#me9dbdf85bc" x="97.20625" y="183.462" style="fill: #ff0000; fill-opacity: 0.8; stroke: #ff0000; stroke-opacity: 0.8"/>
     </g>
    </g>
    <g id="text_13">
     <!-- $k_{gh}$= 0.2 -->
     <g transform="translate(124.20625 191.637) scale(0.15 -0.15)">
      <defs>
       <path id="DejaVuSans-Oblique-68" d="M 3566 2113 
L 3156 0 
L 2578 0 
L 2988 2091 
Q 3016 2238 3031 2350 
Q 3047 2463 3047 2528 
Q 3047 2791 2881 2937 
Q 2716 3084 2419 3084 
Q 1956 3084 1617 2771 
Q 1278 2459 1178 1941 
L 800 0 
L 225 0 
L 1172 4863 
L 1747 4863 
L 1375 2950 
Q 1594 3244 1934 3414 
Q 2275 3584 2650 3584 
Q 3113 3584 3367 3334 
Q 3622 3084 3622 2631 
Q 3622 2519 3608 2391 
Q 3594 2263 3566 2113 
z
" transform="scale(0.015625)"/>
       <path id="DejaVuSans-3d" d="M 678 2906 
L 4684 2906 
L 4684 2381 
L 678 2381 
L 678 2906 
z
M 678 1631 
L 4684 1631 
L 4684 1100 
L 678 1100 
L 678 1631 
z
" transform="scale(0.015625)"/>
       <path id="DejaVuSans-20" transform="scale(0.015625)"/>
      </defs>
      <use xlink:href="#DejaVuSans-Oblique-6b" transform="translate(0 0.015625)"/>
      <use xlink:href="#DejaVuSans-Oblique-67" transform="translate(57.910156 -16.390625) scale(0.7)"/>
      <use xlink:href="#DejaVuSans-Oblique-68" transform="translate(102.34375 -16.390625) scale(0.7)"/>
      <use xlink:href="#DejaVuSans-3d" transform="translate(149.443359 0.015625)"/>
      <use xlink:href="#DejaVuSans-20" transform="translate(233.232422 0.015625)"/>
      <use xlink:href="#DejaVuSans-30" transform="translate(265.019531 0.015625)"/>
      <use xlink:href="#DejaVuSans-2e" transform="translate(328.642578 0.015625)"/>
      <use xlink:href="#DejaVuSans-32" transform="translate(354.929688 0.015625)"/>
     </g>
    </g>
    <g id="line2d_15">
     <path d="M 82.20625 214.137 
L 97.20625 214.137 
L 112.20625 214.137 
" style="fill: none; stroke: #008000; stroke-opacity: 0.8; stroke-width: 3.5; stroke-linecap: square"/>
     <g>
      <use xlink:href="#m70b97d9409" x="97.20625" y="214.137" style="fill: #008000; fill-opacity: 0.8; stroke: #008000; stroke-opacity: 0.8; stroke-linejoin: miter"/>
     </g>
    </g>
    <g id="text_14">
     <!-- $k_{gh}$= 0.5 -->
     <g transform="translate(124.20625 222.312) scale(0.15 -0.15)">
      <use xlink:href="#DejaVuSans-Oblique-6b" transform="translate(0 0.015625)"/>
      <use xlink:href="#DejaVuSans-Oblique-67" transform="translate(57.910156 -16.390625) scale(0.7)"/>
      <use xlink:href="#DejaVuSans-Oblique-68" transform="translate(102.34375 -16.390625) scale(0.7)"/>
      <use xlink:href="#DejaVuSans-3d" transform="translate(149.443359 0.015625)"/>
      <use xlink:href="#DejaVuSans-20" transform="translate(233.232422 0.015625)"/>
      <use xlink:href="#DejaVuSans-30" transform="translate(265.019531 0.015625)"/>
      <use xlink:href="#DejaVuSans-2e" transform="translate(328.642578 0.015625)"/>
      <use xlink:href="#DejaVuSans-35" transform="translate(360.429688 0.015625)"/>
     </g>
    </g>
    <g id="line2d_16">
     <path d="M 82.20625 244.812 
L 97.20625 244.812 
L 112.20625 244.812 
" style="fill: none; stroke: #0000ff; stroke-opacity: 0.8; stroke-width: 3.5; stroke-linecap: square"/>
     <g>
      <use xlink:href="#m9e079608e9" x="97.20625" y="244.812" style="fill: #0000ff; fill-opacity: 0.8; stroke: #0000ff; stroke-opacity: 0.8; stroke-linejoin: miter"/>
     </g>
    </g>
    <g id="text_15">
     <!-- $k_{gh}$= 0.8 -->
     <g transform="translate(124.20625 252.987) scale(0.15 -0.15)">
      <defs>
       <path id="DejaVuSans-38" d="M 2034 2216 
Q 1584 2216 1326 1975 
Q 1069 1734 1069 1313 
Q 1069 891 1326 650 
Q 1584 409 2034 409 
Q 2484 409 2743 651 
Q 3003 894 3003 1313 
Q 3003 1734 2745 1975 
Q 2488 2216 2034 2216 
z
M 1403 2484 
Q 997 2584 770 2862 
Q 544 3141 544 3541 
Q 544 4100 942 4425 
Q 1341 4750 2034 4750 
Q 2731 4750 3128 4425 
Q 3525 4100 3525 3541 
Q 3525 3141 3298 2862 
Q 3072 2584 2669 2484 
Q 3125 2378 3379 2068 
Q 3634 1759 3634 1313 
Q 3634 634 3220 271 
Q 2806 -91 2034 -91 
Q 1263 -91 848 271 
Q 434 634 434 1313 
Q 434 1759 690 2068 
Q 947 2378 1403 2484 
z
M 1172 3481 
Q 1172 3119 1398 2916 
Q 1625 2713 2034 2713 
Q 2441 2713 2670 2916 
Q 2900 3119 2900 3481 
Q 2900 3844 2670 4047 
Q 2441 4250 2034 4250 
Q 1625 4250 1398 4047 
Q 1172 3844 1172 3481 
z
" transform="scale(0.015625)"/>
      </defs>
      <use xlink:href="#DejaVuSans-Oblique-6b" transform="translate(0 0.015625)"/>
      <use xlink:href="#DejaVuSans-Oblique-67" transform="translate(57.910156 -16.390625) scale(0.7)"/>
      <use xlink:href="#DejaVuSans-Oblique-68" transform="translate(102.34375 -16.390625) scale(0.7)"/>
      <use xlink:href="#DejaVuSans-3d" transform="translate(149.443359 0.015625)"/>
      <use xlink:href="#DejaVuSans-20" transform="translate(233.232422 0.015625)"/>
      <use xlink:href="#DejaVuSans-30" transform="translate(265.019531 0.015625)"/>
      <use xlink:href="#DejaVuSans-2e" transform="translate(328.642578 0.015625)"/>
      <use xlink:href="#DejaVuSans-38" transform="translate(357.804688 0.015625)"/>
     </g>
    </g>
   </g>
  </g>
 </g>
 <defs>
  <clipPath id="pcbfe89c68d">
   <rect x="68.70625" y="7.2" width="357.12" height="266.112"/>
  </clipPath>
 </defs>
</svg>
