<?xml version="1.0" encoding="utf-8" standalone="no"?>
<!DOCTYPE svg PUBLIC "-//W3C//DTD SVG 1.1//EN"
  "http://www.w3.org/Graphics/SVG/1.1/DTD/svg11.dtd">
<svg xmlns:xlink="http://www.w3.org/1999/xlink" width="433.02625pt" height="339.366688pt" viewBox="0 0 433.02625 339.366688" xmlns="http://www.w3.org/2000/svg" version="1.1">
 <metadata>
  <rdf:RDF xmlns:dc="http://purl.org/dc/elements/1.1/" xmlns:cc="http://creativecommons.org/ns#" xmlns:rdf="http://www.w3.org/1999/02/22-rdf-syntax-ns#">
   <cc:Work>
    <dc:type rdf:resource="http://purl.org/dc/dcmitype/StillImage"/>
    <dc:date>2025-05-12T14:40:38.009583</dc:date>
    <dc:format>image/svg+xml</dc:format>
    <dc:creator>
     <cc:Agent>
      <dc:title>Matplotlib v3.10.1, https://matplotlib.org/</dc:title>
     </cc:Agent>
    </dc:creator>
   </cc:Work>
  </rdf:RDF>
 </metadata>
 <defs>
  <style type="text/css">*{stroke-linejoin: round; stroke-linecap: butt}</style>
 </defs>
 <g id="figure_1">
  <g id="patch_1">
   <path d="M 0 339.366688 
L 433.02625 339.366688 
L 433.02625 0 
L 0 0 
z
" style="fill: #ffffff"/>
  </g>
  <g id="axes_1">
   <g id="patch_2">
    <path d="M 68.70625 280.910438 
L 425.82625 280.910438 
L 425.82625 14.798438 
L 68.70625 14.798438 
z
" style="fill: #ffffff"/>
   </g>
   <g id="matplotlib.axis_1">
    <g id="xtick_1">
     <g id="line2d_1">
      <defs>
       <path id="m80d5032c0c" d="M 0 0 
L 0 3 
" style="stroke: #000000; stroke-width: 1.5"/>
      </defs>
      <g>
       <use xlink:href="#m80d5032c0c" x="98.46625" y="280.910438" style="stroke: #000000; stroke-width: 1.5"/>
      </g>
     </g>
     <g id="text_1">
      <!-- 0.00 -->
      <g transform="translate(76.200625 302.607313) scale(0.2 -0.2)">
       <defs>
        <path id="DejaVuSans-30" d="M 2034 4250 
Q 1547 4250 1301 3770 
Q 1056 3291 1056 2328 
Q 1056 1369 1301 889 
Q 1547 409 2034 409 
Q 2525 409 2770 889 
Q 3016 1369 3016 2328 
Q 3016 3291 2770 3770 
Q 2525 4250 2034 4250 
z
M 2034 4750 
Q 2819 4750 3233 4129 
Q 3647 3509 3647 2328 
Q 3647 1150 3233 529 
Q 2819 -91 2034 -91 
Q 1250 -91 836 529 
Q 422 1150 422 2328 
Q 422 3509 836 4129 
Q 1250 4750 2034 4750 
z
" transform="scale(0.015625)"/>
        <path id="DejaVuSans-2e" d="M 684 794 
L 1344 794 
L 1344 0 
L 684 0 
L 684 794 
z
" transform="scale(0.015625)"/>
       </defs>
       <use xlink:href="#DejaVuSans-30"/>
       <use xlink:href="#DejaVuSans-2e" transform="translate(63.623047 0)"/>
       <use xlink:href="#DejaVuSans-30" transform="translate(95.410156 0)"/>
       <use xlink:href="#DejaVuSans-30" transform="translate(159.033203 0)"/>
      </g>
     </g>
    </g>
    <g id="xtick_2">
     <g id="line2d_2">
      <g>
       <use xlink:href="#m80d5032c0c" x="172.86625" y="280.910438" style="stroke: #000000; stroke-width: 1.5"/>
      </g>
     </g>
     <g id="text_2">
      <!-- 0.25 -->
      <g transform="translate(150.600625 302.607313) scale(0.2 -0.2)">
       <defs>
        <path id="DejaVuSans-32" d="M 1228 531 
L 3431 531 
L 3431 0 
L 469 0 
L 469 531 
Q 828 903 1448 1529 
Q 2069 2156 2228 2338 
Q 2531 2678 2651 2914 
Q 2772 3150 2772 3378 
Q 2772 3750 2511 3984 
Q 2250 4219 1831 4219 
Q 1534 4219 1204 4116 
Q 875 4013 500 3803 
L 500 4441 
Q 881 4594 1212 4672 
Q 1544 4750 1819 4750 
Q 2544 4750 2975 4387 
Q 3406 4025 3406 3419 
Q 3406 3131 3298 2873 
Q 3191 2616 2906 2266 
Q 2828 2175 2409 1742 
Q 1991 1309 1228 531 
z
" transform="scale(0.015625)"/>
        <path id="DejaVuSans-35" d="M 691 4666 
L 3169 4666 
L 3169 4134 
L 1269 4134 
L 1269 2991 
Q 1406 3038 1543 3061 
Q 1681 3084 1819 3084 
Q 2600 3084 3056 2656 
Q 3513 2228 3513 1497 
Q 3513 744 3044 326 
Q 2575 -91 1722 -91 
Q 1428 -91 1123 -41 
Q 819 9 494 109 
L 494 744 
Q 775 591 1075 516 
Q 1375 441 1709 441 
Q 2250 441 2565 725 
Q 2881 1009 2881 1497 
Q 2881 1984 2565 2268 
Q 2250 2553 1709 2553 
Q 1456 2553 1204 2497 
Q 953 2441 691 2322 
L 691 4666 
z
" transform="scale(0.015625)"/>
       </defs>
       <use xlink:href="#DejaVuSans-30"/>
       <use xlink:href="#DejaVuSans-2e" transform="translate(63.623047 0)"/>
       <use xlink:href="#DejaVuSans-32" transform="translate(95.410156 0)"/>
       <use xlink:href="#DejaVuSans-35" transform="translate(159.033203 0)"/>
      </g>
     </g>
    </g>
    <g id="xtick_3">
     <g id="line2d_3">
      <g>
       <use xlink:href="#m80d5032c0c" x="247.26625" y="280.910438" style="stroke: #000000; stroke-width: 1.5"/>
      </g>
     </g>
     <g id="text_3">
      <!-- 0.50 -->
      <g transform="translate(225.000625 302.607313) scale(0.2 -0.2)">
       <use xlink:href="#DejaVuSans-30"/>
       <use xlink:href="#DejaVuSans-2e" transform="translate(63.623047 0)"/>
       <use xlink:href="#DejaVuSans-35" transform="translate(95.410156 0)"/>
       <use xlink:href="#DejaVuSans-30" transform="translate(159.033203 0)"/>
      </g>
     </g>
    </g>
    <g id="xtick_4">
     <g id="line2d_4">
      <g>
       <use xlink:href="#m80d5032c0c" x="321.66625" y="280.910438" style="stroke: #000000; stroke-width: 1.5"/>
      </g>
     </g>
     <g id="text_4">
      <!-- 0.75 -->
      <g transform="translate(299.400625 302.607313) scale(0.2 -0.2)">
       <defs>
        <path id="DejaVuSans-37" d="M 525 4666 
L 3525 4666 
L 3525 4397 
L 1831 0 
L 1172 0 
L 2766 4134 
L 525 4134 
L 525 4666 
z
" transform="scale(0.015625)"/>
       </defs>
       <use xlink:href="#DejaVuSans-30"/>
       <use xlink:href="#DejaVuSans-2e" transform="translate(63.623047 0)"/>
       <use xlink:href="#DejaVuSans-37" transform="translate(95.410156 0)"/>
       <use xlink:href="#DejaVuSans-35" transform="translate(159.033203 0)"/>
      </g>
     </g>
    </g>
    <g id="xtick_5">
     <g id="line2d_5">
      <g>
       <use xlink:href="#m80d5032c0c" x="396.06625" y="280.910438" style="stroke: #000000; stroke-width: 1.5"/>
      </g>
     </g>
     <g id="text_5">
      <!-- 1.00 -->
      <g transform="translate(373.800625 302.607313) scale(0.2 -0.2)">
       <defs>
        <path id="DejaVuSans-31" d="M 794 531 
L 1825 531 
L 1825 4091 
L 703 3866 
L 703 4441 
L 1819 4666 
L 2450 4666 
L 2450 531 
L 3481 531 
L 3481 0 
L 794 0 
L 794 531 
z
" transform="scale(0.015625)"/>
       </defs>
       <use xlink:href="#DejaVuSans-31"/>
       <use xlink:href="#DejaVuSans-2e" transform="translate(63.623047 0)"/>
       <use xlink:href="#DejaVuSans-30" transform="translate(95.410156 0)"/>
       <use xlink:href="#DejaVuSans-30" transform="translate(159.033203 0)"/>
      </g>
     </g>
    </g>
    <g id="text_6">
     <!-- $k_{gh}$ -->
     <g transform="translate(232.26625 325.966688) scale(0.2 -0.2)">
      <defs>
       <path id="DejaVuSans-Oblique-6b" d="M 1172 4863 
L 1747 4863 
L 1197 2028 
L 3169 3500 
L 3916 3500 
L 1716 1825 
L 3322 0 
L 2625 0 
L 1131 1709 
L 800 0 
L 225 0 
L 1172 4863 
z
" transform="scale(0.015625)"/>
       <path id="DejaVuSans-Oblique-67" d="M 3816 3500 
L 3219 434 
Q 3047 -456 2561 -893 
Q 2075 -1331 1253 -1331 
Q 950 -1331 690 -1286 
Q 431 -1241 206 -1147 
L 313 -588 
Q 525 -725 762 -790 
Q 1000 -856 1269 -856 
Q 1816 -856 2167 -557 
Q 2519 -259 2631 300 
L 2681 563 
Q 2441 288 2122 144 
Q 1803 0 1434 0 
Q 903 0 598 351 
Q 294 703 294 1319 
Q 294 1803 478 2267 
Q 663 2731 997 3091 
Q 1219 3328 1514 3456 
Q 1809 3584 2131 3584 
Q 2484 3584 2746 3420 
Q 3009 3256 3138 2956 
L 3238 3500 
L 3816 3500 
z
M 2950 2216 
Q 2950 2641 2750 2872 
Q 2550 3103 2181 3103 
Q 1953 3103 1747 3012 
Q 1541 2922 1394 2759 
Q 1156 2491 1023 2127 
Q 891 1763 891 1375 
Q 891 944 1092 712 
Q 1294 481 1672 481 
Q 2219 481 2584 976 
Q 2950 1472 2950 2216 
z
" transform="scale(0.015625)"/>
       <path id="DejaVuSans-Oblique-68" d="M 3566 2113 
L 3156 0 
L 2578 0 
L 2988 2091 
Q 3016 2238 3031 2350 
Q 3047 2463 3047 2528 
Q 3047 2791 2881 2937 
Q 2716 3084 2419 3084 
Q 1956 3084 1617 2771 
Q 1278 2459 1178 1941 
L 800 0 
L 225 0 
L 1172 4863 
L 1747 4863 
L 1375 2950 
Q 1594 3244 1934 3414 
Q 2275 3584 2650 3584 
Q 3113 3584 3367 3334 
Q 3622 3084 3622 2631 
Q 3622 2519 3608 2391 
Q 3594 2263 3566 2113 
z
" transform="scale(0.015625)"/>
      </defs>
      <use xlink:href="#DejaVuSans-Oblique-6b" transform="translate(0 0.015625)"/>
      <use xlink:href="#DejaVuSans-Oblique-67" transform="translate(57.910156 -16.390625) scale(0.7)"/>
      <use xlink:href="#DejaVuSans-Oblique-68" transform="translate(102.34375 -16.390625) scale(0.7)"/>
     </g>
    </g>
   </g>
   <g id="matplotlib.axis_2">
    <g id="ytick_1">
     <g id="line2d_6">
      <defs>
       <path id="m26a2d2ac0d" d="M 0 0 
L 3 0 
" style="stroke: #000000; stroke-width: 1.5"/>
      </defs>
      <g>
       <use xlink:href="#m26a2d2ac0d" x="68.70625" y="242.894438" style="stroke: #000000; stroke-width: 1.5"/>
      </g>
     </g>
     <g id="text_7">
      <!-- 0.4 -->
      <g transform="translate(33.4 250.492875) scale(0.2 -0.2)">
       <defs>
        <path id="DejaVuSans-34" d="M 2419 4116 
L 825 1625 
L 2419 1625 
L 2419 4116 
z
M 2253 4666 
L 3047 4666 
L 3047 1625 
L 3713 1625 
L 3713 1100 
L 3047 1100 
L 3047 0 
L 2419 0 
L 2419 1100 
L 313 1100 
L 313 1709 
L 2253 4666 
z
" transform="scale(0.015625)"/>
       </defs>
       <use xlink:href="#DejaVuSans-30"/>
       <use xlink:href="#DejaVuSans-2e" transform="translate(63.623047 0)"/>
       <use xlink:href="#DejaVuSans-34" transform="translate(95.410156 0)"/>
      </g>
     </g>
    </g>
    <g id="ytick_2">
     <g id="line2d_7">
      <g>
       <use xlink:href="#m26a2d2ac0d" x="68.70625" y="166.862438" style="stroke: #000000; stroke-width: 1.5"/>
      </g>
     </g>
     <g id="text_8">
      <!-- 0.5 -->
      <g transform="translate(33.4 174.460875) scale(0.2 -0.2)">
       <use xlink:href="#DejaVuSans-30"/>
       <use xlink:href="#DejaVuSans-2e" transform="translate(63.623047 0)"/>
       <use xlink:href="#DejaVuSans-35" transform="translate(95.410156 0)"/>
      </g>
     </g>
    </g>
    <g id="ytick_3">
     <g id="line2d_8">
      <g>
       <use xlink:href="#m26a2d2ac0d" x="68.70625" y="90.830438" style="stroke: #000000; stroke-width: 1.5"/>
      </g>
     </g>
     <g id="text_9">
      <!-- 0.6 -->
      <g transform="translate(33.4 98.428875) scale(0.2 -0.2)">
       <defs>
        <path id="DejaVuSans-36" d="M 2113 2584 
Q 1688 2584 1439 2293 
Q 1191 2003 1191 1497 
Q 1191 994 1439 701 
Q 1688 409 2113 409 
Q 2538 409 2786 701 
Q 3034 994 3034 1497 
Q 3034 2003 2786 2293 
Q 2538 2584 2113 2584 
z
M 3366 4563 
L 3366 3988 
Q 3128 4100 2886 4159 
Q 2644 4219 2406 4219 
Q 1781 4219 1451 3797 
Q 1122 3375 1075 2522 
Q 1259 2794 1537 2939 
Q 1816 3084 2150 3084 
Q 2853 3084 3261 2657 
Q 3669 2231 3669 1497 
Q 3669 778 3244 343 
Q 2819 -91 2113 -91 
Q 1303 -91 875 529 
Q 447 1150 447 2328 
Q 447 3434 972 4092 
Q 1497 4750 2381 4750 
Q 2619 4750 2861 4703 
Q 3103 4656 3366 4563 
z
" transform="scale(0.015625)"/>
       </defs>
       <use xlink:href="#DejaVuSans-30"/>
       <use xlink:href="#DejaVuSans-2e" transform="translate(63.623047 0)"/>
       <use xlink:href="#DejaVuSans-36" transform="translate(95.410156 0)"/>
      </g>
     </g>
    </g>
    <g id="ytick_4">
     <g id="line2d_9">
      <g>
       <use xlink:href="#m26a2d2ac0d" x="68.70625" y="14.798437" style="stroke: #000000; stroke-width: 1.5"/>
      </g>
     </g>
     <g id="text_10">
      <!-- 0.7 -->
      <g transform="translate(33.4 22.396875) scale(0.2 -0.2)">
       <use xlink:href="#DejaVuSans-30"/>
       <use xlink:href="#DejaVuSans-2e" transform="translate(63.623047 0)"/>
       <use xlink:href="#DejaVuSans-37" transform="translate(95.410156 0)"/>
      </g>
     </g>
    </g>
    <g id="text_11">
     <!-- $p^{EI}$ -->
     <g transform="translate(25.2 161.454438) rotate(-90) scale(0.2 -0.2)">
      <defs>
       <path id="DejaVuSans-Oblique-70" d="M 3175 2156 
Q 3175 2616 2975 2859 
Q 2775 3103 2400 3103 
Q 2144 3103 1911 2972 
Q 1678 2841 1497 2591 
Q 1319 2344 1212 1994 
Q 1106 1644 1106 1300 
Q 1106 863 1306 627 
Q 1506 391 1875 391 
Q 2147 391 2380 519 
Q 2613 647 2778 891 
Q 2956 1147 3065 1494 
Q 3175 1841 3175 2156 
z
M 1394 2969 
Q 1625 3272 1939 3428 
Q 2253 3584 2638 3584 
Q 3175 3584 3472 3232 
Q 3769 2881 3769 2247 
Q 3769 1728 3584 1258 
Q 3400 788 3053 416 
Q 2822 169 2531 39 
Q 2241 -91 1919 -91 
Q 1547 -91 1294 64 
Q 1041 219 916 525 
L 556 -1331 
L -19 -1331 
L 922 3500 
L 1497 3500 
L 1394 2969 
z
" transform="scale(0.015625)"/>
       <path id="DejaVuSans-Oblique-45" d="M 1081 4666 
L 4031 4666 
L 3928 4134 
L 1606 4134 
L 1338 2753 
L 3566 2753 
L 3463 2222 
L 1234 2222 
L 909 531 
L 3284 531 
L 3181 0 
L 172 0 
L 1081 4666 
z
" transform="scale(0.015625)"/>
       <path id="DejaVuSans-Oblique-49" d="M 1081 4666 
L 1716 4666 
L 806 0 
L 172 0 
L 1081 4666 
z
" transform="scale(0.015625)"/>
      </defs>
      <use xlink:href="#DejaVuSans-Oblique-70" transform="translate(0 0.684375)"/>
      <use xlink:href="#DejaVuSans-Oblique-45" transform="translate(68.126458 38.965625) scale(0.7)"/>
      <use xlink:href="#DejaVuSans-Oblique-49" transform="translate(112.354974 38.965625) scale(0.7)"/>
     </g>
    </g>
   </g>
   <g id="line2d_10">
    <path d="M 98.46625 40.370375 
L 112.63768 41.439939 
L 126.80911 42.586999 
L 140.980538 43.223861 
L 155.15197 58.20098 
L 169.323398 76.336216 
L 183.494825 92.732396 
L 197.666253 107.618333 
L 211.83769 121.185454 
L 226.009117 133.594912 
L 240.180545 144.983024 
L 254.351955 155.466531 
L 268.523383 165.145588 
L 282.69481 174.106163 
L 296.866238 182.422829 
L 311.037684 190.160618 
L 325.209094 197.376405 
L 339.380539 204.119269 
L 353.551967 210.433306 
L 367.723395 216.356878 
L 381.894822 221.924677 
L 396.06625 227.166544 
" clip-path="url(#p9c92b561d6)" style="fill: none; stroke: #ff0000; stroke-opacity: 0.8; stroke-width: 3.5; stroke-linecap: square"/>
    <defs>
     <path id="m073ecba4fb" d="M 0 5 
C 1.326016 5 2.597899 4.473168 3.535534 3.535534 
C 4.473168 2.597899 5 1.326016 5 0 
C 5 -1.326016 4.473168 -2.597899 3.535534 -3.535534 
C 2.597899 -4.473168 1.326016 -5 0 -5 
C -1.326016 -5 -2.597899 -4.473168 -3.535534 -3.535534 
C -4.473168 -2.597899 -5 -1.326016 -5 0 
C -5 1.326016 -4.473168 2.597899 -3.535534 3.535534 
C -2.597899 4.473168 -1.326016 5 0 5 
z
" style="stroke: #ff0000; stroke-opacity: 0.8"/>
    </defs>
    <g clip-path="url(#p9c92b561d6)">
     <use xlink:href="#m073ecba4fb" x="98.46625" y="40.370375" style="fill: #ff0000; fill-opacity: 0.8; stroke: #ff0000; stroke-opacity: 0.8"/>
     <use xlink:href="#m073ecba4fb" x="112.63768" y="41.439939" style="fill: #ff0000; fill-opacity: 0.8; stroke: #ff0000; stroke-opacity: 0.8"/>
     <use xlink:href="#m073ecba4fb" x="126.80911" y="42.586999" style="fill: #ff0000; fill-opacity: 0.8; stroke: #ff0000; stroke-opacity: 0.8"/>
     <use xlink:href="#m073ecba4fb" x="140.980538" y="43.223861" style="fill: #ff0000; fill-opacity: 0.8; stroke: #ff0000; stroke-opacity: 0.8"/>
     <use xlink:href="#m073ecba4fb" x="155.15197" y="58.20098" style="fill: #ff0000; fill-opacity: 0.8; stroke: #ff0000; stroke-opacity: 0.8"/>
     <use xlink:href="#m073ecba4fb" x="169.323398" y="76.336216" style="fill: #ff0000; fill-opacity: 0.8; stroke: #ff0000; stroke-opacity: 0.8"/>
     <use xlink:href="#m073ecba4fb" x="183.494825" y="92.732396" style="fill: #ff0000; fill-opacity: 0.8; stroke: #ff0000; stroke-opacity: 0.8"/>
     <use xlink:href="#m073ecba4fb" x="197.666253" y="107.618333" style="fill: #ff0000; fill-opacity: 0.8; stroke: #ff0000; stroke-opacity: 0.8"/>
     <use xlink:href="#m073ecba4fb" x="211.83769" y="121.185454" style="fill: #ff0000; fill-opacity: 0.8; stroke: #ff0000; stroke-opacity: 0.8"/>
     <use xlink:href="#m073ecba4fb" x="226.009117" y="133.594912" style="fill: #ff0000; fill-opacity: 0.8; stroke: #ff0000; stroke-opacity: 0.8"/>
     <use xlink:href="#m073ecba4fb" x="240.180545" y="144.983024" style="fill: #ff0000; fill-opacity: 0.8; stroke: #ff0000; stroke-opacity: 0.8"/>
     <use xlink:href="#m073ecba4fb" x="254.351955" y="155.466531" style="fill: #ff0000; fill-opacity: 0.8; stroke: #ff0000; stroke-opacity: 0.8"/>
     <use xlink:href="#m073ecba4fb" x="268.523383" y="165.145588" style="fill: #ff0000; fill-opacity: 0.8; stroke: #ff0000; stroke-opacity: 0.8"/>
     <use xlink:href="#m073ecba4fb" x="282.69481" y="174.106163" style="fill: #ff0000; fill-opacity: 0.8; stroke: #ff0000; stroke-opacity: 0.8"/>
     <use xlink:href="#m073ecba4fb" x="296.866238" y="182.422829" style="fill: #ff0000; fill-opacity: 0.8; stroke: #ff0000; stroke-opacity: 0.8"/>
     <use xlink:href="#m073ecba4fb" x="311.037684" y="190.160618" style="fill: #ff0000; fill-opacity: 0.8; stroke: #ff0000; stroke-opacity: 0.8"/>
     <use xlink:href="#m073ecba4fb" x="325.209094" y="197.376405" style="fill: #ff0000; fill-opacity: 0.8; stroke: #ff0000; stroke-opacity: 0.8"/>
     <use xlink:href="#m073ecba4fb" x="339.380539" y="204.119269" style="fill: #ff0000; fill-opacity: 0.8; stroke: #ff0000; stroke-opacity: 0.8"/>
     <use xlink:href="#m073ecba4fb" x="353.551967" y="210.433306" style="fill: #ff0000; fill-opacity: 0.8; stroke: #ff0000; stroke-opacity: 0.8"/>
     <use xlink:href="#m073ecba4fb" x="367.723395" y="216.356878" style="fill: #ff0000; fill-opacity: 0.8; stroke: #ff0000; stroke-opacity: 0.8"/>
     <use xlink:href="#m073ecba4fb" x="381.894822" y="221.924677" style="fill: #ff0000; fill-opacity: 0.8; stroke: #ff0000; stroke-opacity: 0.8"/>
     <use xlink:href="#m073ecba4fb" x="396.06625" y="227.166544" style="fill: #ff0000; fill-opacity: 0.8; stroke: #ff0000; stroke-opacity: 0.8"/>
    </g>
   </g>
   <g id="line2d_11">
    <path d="M 98.46625 40.528763 
L 112.63768 41.58079 
L 126.80911 42.645369 
L 140.980538 47.095339 
L 155.15197 67.991837 
L 169.323398 86.796248 
L 183.494825 103.791268 
L 197.666253 119.213914 
L 211.83769 133.262636 
L 226.009117 146.105248 
L 240.180545 157.883372 
L 254.351955 168.718755 
L 268.523383 178.715881 
L 282.69481 187.964433 
L 296.866238 196.542225 
L 311.037684 204.517348 
L 325.209094 211.949123 
L 339.380539 218.888783 
L 353.551967 225.382486 
L 367.723395 231.470315 
L 381.894822 237.188526 
L 396.06625 242.568207 
" clip-path="url(#p9c92b561d6)" style="fill: none; stroke: #008000; stroke-opacity: 0.8; stroke-width: 3.5; stroke-linecap: square"/>
    <defs>
     <path id="m9654ac7ec0" d="M -5 5 
L 5 5 
L 5 -5 
L -5 -5 
z
" style="stroke: #008000; stroke-opacity: 0.8; stroke-linejoin: miter"/>
    </defs>
    <g clip-path="url(#p9c92b561d6)">
     <use xlink:href="#m9654ac7ec0" x="98.46625" y="40.528763" style="fill: #008000; fill-opacity: 0.8; stroke: #008000; stroke-opacity: 0.8; stroke-linejoin: miter"/>
     <use xlink:href="#m9654ac7ec0" x="112.63768" y="41.58079" style="fill: #008000; fill-opacity: 0.8; stroke: #008000; stroke-opacity: 0.8; stroke-linejoin: miter"/>
     <use xlink:href="#m9654ac7ec0" x="126.80911" y="42.645369" style="fill: #008000; fill-opacity: 0.8; stroke: #008000; stroke-opacity: 0.8; stroke-linejoin: miter"/>
     <use xlink:href="#m9654ac7ec0" x="140.980538" y="47.095339" style="fill: #008000; fill-opacity: 0.8; stroke: #008000; stroke-opacity: 0.8; stroke-linejoin: miter"/>
     <use xlink:href="#m9654ac7ec0" x="155.15197" y="67.991837" style="fill: #008000; fill-opacity: 0.8; stroke: #008000; stroke-opacity: 0.8; stroke-linejoin: miter"/>
     <use xlink:href="#m9654ac7ec0" x="169.323398" y="86.796248" style="fill: #008000; fill-opacity: 0.8; stroke: #008000; stroke-opacity: 0.8; stroke-linejoin: miter"/>
     <use xlink:href="#m9654ac7ec0" x="183.494825" y="103.791268" style="fill: #008000; fill-opacity: 0.8; stroke: #008000; stroke-opacity: 0.8; stroke-linejoin: miter"/>
     <use xlink:href="#m9654ac7ec0" x="197.666253" y="119.213914" style="fill: #008000; fill-opacity: 0.8; stroke: #008000; stroke-opacity: 0.8; stroke-linejoin: miter"/>
     <use xlink:href="#m9654ac7ec0" x="211.83769" y="133.262636" style="fill: #008000; fill-opacity: 0.8; stroke: #008000; stroke-opacity: 0.8; stroke-linejoin: miter"/>
     <use xlink:href="#m9654ac7ec0" x="226.009117" y="146.105248" style="fill: #008000; fill-opacity: 0.8; stroke: #008000; stroke-opacity: 0.8; stroke-linejoin: miter"/>
     <use xlink:href="#m9654ac7ec0" x="240.180545" y="157.883372" style="fill: #008000; fill-opacity: 0.8; stroke: #008000; stroke-opacity: 0.8; stroke-linejoin: miter"/>
     <use xlink:href="#m9654ac7ec0" x="254.351955" y="168.718755" style="fill: #008000; fill-opacity: 0.8; stroke: #008000; stroke-opacity: 0.8; stroke-linejoin: miter"/>
     <use xlink:href="#m9654ac7ec0" x="268.523383" y="178.715881" style="fill: #008000; fill-opacity: 0.8; stroke: #008000; stroke-opacity: 0.8; stroke-linejoin: miter"/>
     <use xlink:href="#m9654ac7ec0" x="282.69481" y="187.964433" style="fill: #008000; fill-opacity: 0.8; stroke: #008000; stroke-opacity: 0.8; stroke-linejoin: miter"/>
     <use xlink:href="#m9654ac7ec0" x="296.866238" y="196.542225" style="fill: #008000; fill-opacity: 0.8; stroke: #008000; stroke-opacity: 0.8; stroke-linejoin: miter"/>
     <use xlink:href="#m9654ac7ec0" x="311.037684" y="204.517348" style="fill: #008000; fill-opacity: 0.8; stroke: #008000; stroke-opacity: 0.8; stroke-linejoin: miter"/>
     <use xlink:href="#m9654ac7ec0" x="325.209094" y="211.949123" style="fill: #008000; fill-opacity: 0.8; stroke: #008000; stroke-opacity: 0.8; stroke-linejoin: miter"/>
     <use xlink:href="#m9654ac7ec0" x="339.380539" y="218.888783" style="fill: #008000; fill-opacity: 0.8; stroke: #008000; stroke-opacity: 0.8; stroke-linejoin: miter"/>
     <use xlink:href="#m9654ac7ec0" x="353.551967" y="225.382486" style="fill: #008000; fill-opacity: 0.8; stroke: #008000; stroke-opacity: 0.8; stroke-linejoin: miter"/>
     <use xlink:href="#m9654ac7ec0" x="367.723395" y="231.470315" style="fill: #008000; fill-opacity: 0.8; stroke: #008000; stroke-opacity: 0.8; stroke-linejoin: miter"/>
     <use xlink:href="#m9654ac7ec0" x="381.894822" y="237.188526" style="fill: #008000; fill-opacity: 0.8; stroke: #008000; stroke-opacity: 0.8; stroke-linejoin: miter"/>
     <use xlink:href="#m9654ac7ec0" x="396.06625" y="242.568207" style="fill: #008000; fill-opacity: 0.8; stroke: #008000; stroke-opacity: 0.8; stroke-linejoin: miter"/>
    </g>
   </g>
   <g id="line2d_12">
    <path d="M 98.46625 40.702152 
L 112.63768 41.930966 
L 126.80911 42.837021 
L 140.980538 54.773307 
L 155.15197 76.273359 
L 169.323398 95.610354 
L 183.494825 113.075509 
L 197.666253 128.913727 
L 211.83769 143.330299 
L 226.009117 156.498889 
L 240.180545 168.566326 
L 254.351955 179.658712 
L 268.523383 189.884447 
L 282.69481 199.336797 
L 296.866238 208.096249 
L 311.037684 216.233566 
L 325.209094 223.810316 
L 339.380539 230.879859 
L 353.551967 237.490008 
L 367.723395 243.682138 
L 381.894822 249.494113 
L 396.06625 254.957996 
" clip-path="url(#p9c92b561d6)" style="fill: none; stroke: #0000ff; stroke-opacity: 0.8; stroke-width: 3.5; stroke-linecap: square"/>
    <defs>
     <path id="mbb2684dfdd" d="M 0 -5 
L -4.330127 -2.5 
L -4.330127 2.5 
L -0 5 
L 4.330127 2.5 
L 4.330127 -2.5 
z
" style="stroke: #0000ff; stroke-opacity: 0.8; stroke-linejoin: miter"/>
    </defs>
    <g clip-path="url(#p9c92b561d6)">
     <use xlink:href="#mbb2684dfdd" x="98.46625" y="40.702152" style="fill: #0000ff; fill-opacity: 0.8; stroke: #0000ff; stroke-opacity: 0.8; stroke-linejoin: miter"/>
     <use xlink:href="#mbb2684dfdd" x="112.63768" y="41.930966" style="fill: #0000ff; fill-opacity: 0.8; stroke: #0000ff; stroke-opacity: 0.8; stroke-linejoin: miter"/>
     <use xlink:href="#mbb2684dfdd" x="126.80911" y="42.837021" style="fill: #0000ff; fill-opacity: 0.8; stroke: #0000ff; stroke-opacity: 0.8; stroke-linejoin: miter"/>
     <use xlink:href="#mbb2684dfdd" x="140.980538" y="54.773307" style="fill: #0000ff; fill-opacity: 0.8; stroke: #0000ff; stroke-opacity: 0.8; stroke-linejoin: miter"/>
     <use xlink:href="#mbb2684dfdd" x="155.15197" y="76.273359" style="fill: #0000ff; fill-opacity: 0.8; stroke: #0000ff; stroke-opacity: 0.8; stroke-linejoin: miter"/>
     <use xlink:href="#mbb2684dfdd" x="169.323398" y="95.610354" style="fill: #0000ff; fill-opacity: 0.8; stroke: #0000ff; stroke-opacity: 0.8; stroke-linejoin: miter"/>
     <use xlink:href="#mbb2684dfdd" x="183.494825" y="113.075509" style="fill: #0000ff; fill-opacity: 0.8; stroke: #0000ff; stroke-opacity: 0.8; stroke-linejoin: miter"/>
     <use xlink:href="#mbb2684dfdd" x="197.666253" y="128.913727" style="fill: #0000ff; fill-opacity: 0.8; stroke: #0000ff; stroke-opacity: 0.8; stroke-linejoin: miter"/>
     <use xlink:href="#mbb2684dfdd" x="211.83769" y="143.330299" style="fill: #0000ff; fill-opacity: 0.8; stroke: #0000ff; stroke-opacity: 0.8; stroke-linejoin: miter"/>
     <use xlink:href="#mbb2684dfdd" x="226.009117" y="156.498889" style="fill: #0000ff; fill-opacity: 0.8; stroke: #0000ff; stroke-opacity: 0.8; stroke-linejoin: miter"/>
     <use xlink:href="#mbb2684dfdd" x="240.180545" y="168.566326" style="fill: #0000ff; fill-opacity: 0.8; stroke: #0000ff; stroke-opacity: 0.8; stroke-linejoin: miter"/>
     <use xlink:href="#mbb2684dfdd" x="254.351955" y="179.658712" style="fill: #0000ff; fill-opacity: 0.8; stroke: #0000ff; stroke-opacity: 0.8; stroke-linejoin: miter"/>
     <use xlink:href="#mbb2684dfdd" x="268.523383" y="189.884447" style="fill: #0000ff; fill-opacity: 0.8; stroke: #0000ff; stroke-opacity: 0.8; stroke-linejoin: miter"/>
     <use xlink:href="#mbb2684dfdd" x="282.69481" y="199.336797" style="fill: #0000ff; fill-opacity: 0.8; stroke: #0000ff; stroke-opacity: 0.8; stroke-linejoin: miter"/>
     <use xlink:href="#mbb2684dfdd" x="296.866238" y="208.096249" style="fill: #0000ff; fill-opacity: 0.8; stroke: #0000ff; stroke-opacity: 0.8; stroke-linejoin: miter"/>
     <use xlink:href="#mbb2684dfdd" x="311.037684" y="216.233566" style="fill: #0000ff; fill-opacity: 0.8; stroke: #0000ff; stroke-opacity: 0.8; stroke-linejoin: miter"/>
     <use xlink:href="#mbb2684dfdd" x="325.209094" y="223.810316" style="fill: #0000ff; fill-opacity: 0.8; stroke: #0000ff; stroke-opacity: 0.8; stroke-linejoin: miter"/>
     <use xlink:href="#mbb2684dfdd" x="339.380539" y="230.879859" style="fill: #0000ff; fill-opacity: 0.8; stroke: #0000ff; stroke-opacity: 0.8; stroke-linejoin: miter"/>
     <use xlink:href="#mbb2684dfdd" x="353.551967" y="237.490008" style="fill: #0000ff; fill-opacity: 0.8; stroke: #0000ff; stroke-opacity: 0.8; stroke-linejoin: miter"/>
     <use xlink:href="#mbb2684dfdd" x="367.723395" y="243.682138" style="fill: #0000ff; fill-opacity: 0.8; stroke: #0000ff; stroke-opacity: 0.8; stroke-linejoin: miter"/>
     <use xlink:href="#mbb2684dfdd" x="381.894822" y="249.494113" style="fill: #0000ff; fill-opacity: 0.8; stroke: #0000ff; stroke-opacity: 0.8; stroke-linejoin: miter"/>
     <use xlink:href="#mbb2684dfdd" x="396.06625" y="254.957996" style="fill: #0000ff; fill-opacity: 0.8; stroke: #0000ff; stroke-opacity: 0.8; stroke-linejoin: miter"/>
    </g>
   </g>
   <g id="patch_3">
    <path d="M 68.70625 280.910438 
L 68.70625 14.798438 
" style="fill: none; stroke: #000000; stroke-width: 0.8; stroke-linejoin: miter; stroke-linecap: square"/>
   </g>
   <g id="patch_4">
    <path d="M 425.82625 280.910438 
L 425.82625 14.798438 
" style="fill: none; stroke: #000000; stroke-width: 0.8; stroke-linejoin: miter; stroke-linecap: square"/>
   </g>
   <g id="patch_5">
    <path d="M 68.70625 280.910438 
L 425.82625 280.910438 
" style="fill: none; stroke: #000000; stroke-width: 0.8; stroke-linejoin: miter; stroke-linecap: square"/>
   </g>
   <g id="patch_6">
    <path d="M 68.70625 14.798438 
L 425.82625 14.798438 
" style="fill: none; stroke: #000000; stroke-width: 0.8; stroke-linejoin: miter; stroke-linecap: square"/>
   </g>
   <g id="legend_1">
    <g id="patch_7">
     <path d="M 300.12625 118.823438 
L 415.32625 118.823438 
Q 418.32625 118.823438 418.32625 115.823438 
L 418.32625 25.298437 
Q 418.32625 22.298437 415.32625 22.298437 
L 300.12625 22.298437 
Q 297.12625 22.298437 297.12625 25.298437 
L 297.12625 115.823438 
Q 297.12625 118.823438 300.12625 118.823438 
z
" style="fill: #ffffff; opacity: 0.8; stroke: #cccccc; stroke-linejoin: miter"/>
    </g>
    <g id="line2d_13">
     <path d="M 303.12625 36.473438 
L 318.12625 36.473438 
L 333.12625 36.473438 
" style="fill: none; stroke: #ff0000; stroke-opacity: 0.8; stroke-width: 3.5; stroke-linecap: square"/>
     <g>
      <use xlink:href="#m073ecba4fb" x="318.12625" y="36.473438" style="fill: #ff0000; fill-opacity: 0.8; stroke: #ff0000; stroke-opacity: 0.8"/>
     </g>
    </g>
    <g id="text_12">
     <!-- $k_{gm}$= 0.2 -->
     <g transform="translate(345.12625 44.648438) scale(0.15 -0.15)">
      <defs>
       <path id="DejaVuSans-Oblique-6d" d="M 5747 2113 
L 5338 0 
L 4763 0 
L 5166 2094 
Q 5191 2228 5203 2325 
Q 5216 2422 5216 2491 
Q 5216 2772 5059 2928 
Q 4903 3084 4622 3084 
Q 4203 3084 3875 2770 
Q 3547 2456 3450 1953 
L 3066 0 
L 2491 0 
L 2900 2094 
Q 2925 2209 2937 2307 
Q 2950 2406 2950 2484 
Q 2950 2769 2794 2926 
Q 2638 3084 2363 3084 
Q 1938 3084 1609 2770 
Q 1281 2456 1184 1953 
L 800 0 
L 225 0 
L 909 3500 
L 1484 3500 
L 1375 2956 
Q 1609 3263 1923 3423 
Q 2238 3584 2597 3584 
Q 2978 3584 3223 3384 
Q 3469 3184 3519 2828 
Q 3781 3197 4126 3390 
Q 4472 3584 4856 3584 
Q 5306 3584 5551 3325 
Q 5797 3066 5797 2591 
Q 5797 2488 5784 2364 
Q 5772 2241 5747 2113 
z
" transform="scale(0.015625)"/>
       <path id="DejaVuSans-3d" d="M 678 2906 
L 4684 2906 
L 4684 2381 
L 678 2381 
L 678 2906 
z
M 678 1631 
L 4684 1631 
L 4684 1100 
L 678 1100 
L 678 1631 
z
" transform="scale(0.015625)"/>
       <path id="DejaVuSans-20" transform="scale(0.015625)"/>
      </defs>
      <use xlink:href="#DejaVuSans-Oblique-6b" transform="translate(0 0.015625)"/>
      <use xlink:href="#DejaVuSans-Oblique-67" transform="translate(57.910156 -16.390625) scale(0.7)"/>
      <use xlink:href="#DejaVuSans-Oblique-6d" transform="translate(102.34375 -16.390625) scale(0.7)"/>
      <use xlink:href="#DejaVuSans-3d" transform="translate(173.266602 0.015625)"/>
      <use xlink:href="#DejaVuSans-20" transform="translate(257.055664 0.015625)"/>
      <use xlink:href="#DejaVuSans-30" transform="translate(288.842773 0.015625)"/>
      <use xlink:href="#DejaVuSans-2e" transform="translate(352.46582 0.015625)"/>
      <use xlink:href="#DejaVuSans-32" transform="translate(378.75293 0.015625)"/>
     </g>
    </g>
    <g id="line2d_14">
     <path d="M 303.12625 67.148438 
L 318.12625 67.148438 
L 333.12625 67.148438 
" style="fill: none; stroke: #008000; stroke-opacity: 0.8; stroke-width: 3.5; stroke-linecap: square"/>
     <g>
      <use xlink:href="#m9654ac7ec0" x="318.12625" y="67.148438" style="fill: #008000; fill-opacity: 0.8; stroke: #008000; stroke-opacity: 0.8; stroke-linejoin: miter"/>
     </g>
    </g>
    <g id="text_13">
     <!-- $k_{gm}$= 0.5 -->
     <g transform="translate(345.12625 75.323438) scale(0.15 -0.15)">
      <use xlink:href="#DejaVuSans-Oblique-6b" transform="translate(0 0.015625)"/>
      <use xlink:href="#DejaVuSans-Oblique-67" transform="translate(57.910156 -16.390625) scale(0.7)"/>
      <use xlink:href="#DejaVuSans-Oblique-6d" transform="translate(102.34375 -16.390625) scale(0.7)"/>
      <use xlink:href="#DejaVuSans-3d" transform="translate(173.266602 0.015625)"/>
      <use xlink:href="#DejaVuSans-20" transform="translate(257.055664 0.015625)"/>
      <use xlink:href="#DejaVuSans-30" transform="translate(288.842773 0.015625)"/>
      <use xlink:href="#DejaVuSans-2e" transform="translate(352.46582 0.015625)"/>
      <use xlink:href="#DejaVuSans-35" transform="translate(384.25293 0.015625)"/>
     </g>
    </g>
    <g id="line2d_15">
     <path d="M 303.12625 97.823438 
L 318.12625 97.823438 
L 333.12625 97.823438 
" style="fill: none; stroke: #0000ff; stroke-opacity: 0.8; stroke-width: 3.5; stroke-linecap: square"/>
     <g>
      <use xlink:href="#mbb2684dfdd" x="318.12625" y="97.823438" style="fill: #0000ff; fill-opacity: 0.8; stroke: #0000ff; stroke-opacity: 0.8; stroke-linejoin: miter"/>
     </g>
    </g>
    <g id="text_14">
     <!-- $k_{gm}$= 0.8 -->
     <g transform="translate(345.12625 105.998438) scale(0.15 -0.15)">
      <defs>
       <path id="DejaVuSans-38" d="M 2034 2216 
Q 1584 2216 1326 1975 
Q 1069 1734 1069 1313 
Q 1069 891 1326 650 
Q 1584 409 2034 409 
Q 2484 409 2743 651 
Q 3003 894 3003 1313 
Q 3003 1734 2745 1975 
Q 2488 2216 2034 2216 
z
M 1403 2484 
Q 997 2584 770 2862 
Q 544 3141 544 3541 
Q 544 4100 942 4425 
Q 1341 4750 2034 4750 
Q 2731 4750 3128 4425 
Q 3525 4100 3525 3541 
Q 3525 3141 3298 2862 
Q 3072 2584 2669 2484 
Q 3125 2378 3379 2068 
Q 3634 1759 3634 1313 
Q 3634 634 3220 271 
Q 2806 -91 2034 -91 
Q 1263 -91 848 271 
Q 434 634 434 1313 
Q 434 1759 690 2068 
Q 947 2378 1403 2484 
z
M 1172 3481 
Q 1172 3119 1398 2916 
Q 1625 2713 2034 2713 
Q 2441 2713 2670 2916 
Q 2900 3119 2900 3481 
Q 2900 3844 2670 4047 
Q 2441 4250 2034 4250 
Q 1625 4250 1398 4047 
Q 1172 3844 1172 3481 
z
" transform="scale(0.015625)"/>
      </defs>
      <use xlink:href="#DejaVuSans-Oblique-6b" transform="translate(0 0.015625)"/>
      <use xlink:href="#DejaVuSans-Oblique-67" transform="translate(57.910156 -16.390625) scale(0.7)"/>
      <use xlink:href="#DejaVuSans-Oblique-6d" transform="translate(102.34375 -16.390625) scale(0.7)"/>
      <use xlink:href="#DejaVuSans-3d" transform="translate(173.266602 0.015625)"/>
      <use xlink:href="#DejaVuSans-20" transform="translate(257.055664 0.015625)"/>
      <use xlink:href="#DejaVuSans-30" transform="translate(288.842773 0.015625)"/>
      <use xlink:href="#DejaVuSans-2e" transform="translate(352.46582 0.015625)"/>
      <use xlink:href="#DejaVuSans-38" transform="translate(381.62793 0.015625)"/>
     </g>
    </g>
   </g>
  </g>
 </g>
 <defs>
  <clipPath id="p9c92b561d6">
   <rect x="68.70625" y="14.798438" width="357.12" height="266.112"/>
  </clipPath>
 </defs>
</svg>
