<?xml version="1.0" encoding="utf-8" standalone="no"?>
<!DOCTYPE svg PUBLIC "-//W3C//DTD SVG 1.1//EN"
  "http://www.w3.org/Graphics/SVG/1.1/DTD/svg11.dtd">
<svg xmlns:xlink="http://www.w3.org/1999/xlink" width="455.947781pt" height="339.366687pt" viewBox="0 0 455.947781 339.366687" xmlns="http://www.w3.org/2000/svg" version="1.1">
 <metadata>
  <rdf:RDF xmlns:dc="http://purl.org/dc/elements/1.1/" xmlns:cc="http://creativecommons.org/ns#" xmlns:rdf="http://www.w3.org/1999/02/22-rdf-syntax-ns#">
   <cc:Work>
    <dc:type rdf:resource="http://purl.org/dc/dcmitype/StillImage"/>
    <dc:date>2025-05-14T12:39:13.637068</dc:date>
    <dc:format>image/svg+xml</dc:format>
    <dc:creator>
     <cc:Agent>
      <dc:title>Matplotlib v3.10.1, https://matplotlib.org/</dc:title>
     </cc:Agent>
    </dc:creator>
   </cc:Work>
  </rdf:RDF>
 </metadata>
 <defs>
  <style type="text/css">*{stroke-linejoin: round; stroke-linecap: butt}</style>
 </defs>
 <g id="figure_1">
  <g id="patch_1">
   <path d="M 0 339.366687 
L 455.947781 339.366687 
L 455.947781 0 
L 0 0 
z
" style="fill: #ffffff"/>
  </g>
  <g id="axes_1">
   <g id="patch_2">
    <path d="M 78.83125 280.910437 
L 435.95125 280.910437 
L 435.95125 14.798437 
L 78.83125 14.798437 
z
" style="fill: #ffffff"/>
   </g>
   <g id="matplotlib.axis_1">
    <g id="xtick_1">
     <g id="line2d_1">
      <defs>
       <path id="m67ee2ea161" d="M 0 0 
L 0 3 
" style="stroke: #000000; stroke-width: 1.5"/>
      </defs>
      <g>
       <use xlink:href="#m67ee2ea161" x="95.063977" y="280.910437" style="stroke: #000000; stroke-width: 1.5"/>
      </g>
     </g>
     <g id="text_1">
      <!-- 0.00 -->
      <g transform="translate(72.798352 302.607312) scale(0.2 -0.2)">
       <defs>
        <path id="DejaVuSans-30" d="M 2034 4250 
Q 1547 4250 1301 3770 
Q 1056 3291 1056 2328 
Q 1056 1369 1301 889 
Q 1547 409 2034 409 
Q 2525 409 2770 889 
Q 3016 1369 3016 2328 
Q 3016 3291 2770 3770 
Q 2525 4250 2034 4250 
z
M 2034 4750 
Q 2819 4750 3233 4129 
Q 3647 3509 3647 2328 
Q 3647 1150 3233 529 
Q 2819 -91 2034 -91 
Q 1250 -91 836 529 
Q 422 1150 422 2328 
Q 422 3509 836 4129 
Q 1250 4750 2034 4750 
z
" transform="scale(0.015625)"/>
        <path id="DejaVuSans-2e" d="M 684 794 
L 1344 794 
L 1344 0 
L 684 0 
L 684 794 
z
" transform="scale(0.015625)"/>
       </defs>
       <use xlink:href="#DejaVuSans-30"/>
       <use xlink:href="#DejaVuSans-2e" transform="translate(63.623047 0)"/>
       <use xlink:href="#DejaVuSans-30" transform="translate(95.410156 0)"/>
       <use xlink:href="#DejaVuSans-30" transform="translate(159.033203 0)"/>
      </g>
     </g>
    </g>
    <g id="xtick_2">
     <g id="line2d_2">
      <g>
       <use xlink:href="#m67ee2ea161" x="177.918522" y="280.910437" style="stroke: #000000; stroke-width: 1.5"/>
      </g>
     </g>
     <g id="text_2">
      <!-- 0.25 -->
      <g transform="translate(155.652897 302.607312) scale(0.2 -0.2)">
       <defs>
        <path id="DejaVuSans-32" d="M 1228 531 
L 3431 531 
L 3431 0 
L 469 0 
L 469 531 
Q 828 903 1448 1529 
Q 2069 2156 2228 2338 
Q 2531 2678 2651 2914 
Q 2772 3150 2772 3378 
Q 2772 3750 2511 3984 
Q 2250 4219 1831 4219 
Q 1534 4219 1204 4116 
Q 875 4013 500 3803 
L 500 4441 
Q 881 4594 1212 4672 
Q 1544 4750 1819 4750 
Q 2544 4750 2975 4387 
Q 3406 4025 3406 3419 
Q 3406 3131 3298 2873 
Q 3191 2616 2906 2266 
Q 2828 2175 2409 1742 
Q 1991 1309 1228 531 
z
" transform="scale(0.015625)"/>
        <path id="DejaVuSans-35" d="M 691 4666 
L 3169 4666 
L 3169 4134 
L 1269 4134 
L 1269 2991 
Q 1406 3038 1543 3061 
Q 1681 3084 1819 3084 
Q 2600 3084 3056 2656 
Q 3513 2228 3513 1497 
Q 3513 744 3044 326 
Q 2575 -91 1722 -91 
Q 1428 -91 1123 -41 
Q 819 9 494 109 
L 494 744 
Q 775 591 1075 516 
Q 1375 441 1709 441 
Q 2250 441 2565 725 
Q 2881 1009 2881 1497 
Q 2881 1984 2565 2268 
Q 2250 2553 1709 2553 
Q 1456 2553 1204 2497 
Q 953 2441 691 2322 
L 691 4666 
z
" transform="scale(0.015625)"/>
       </defs>
       <use xlink:href="#DejaVuSans-30"/>
       <use xlink:href="#DejaVuSans-2e" transform="translate(63.623047 0)"/>
       <use xlink:href="#DejaVuSans-32" transform="translate(95.410156 0)"/>
       <use xlink:href="#DejaVuSans-35" transform="translate(159.033203 0)"/>
      </g>
     </g>
    </g>
    <g id="xtick_3">
     <g id="line2d_3">
      <g>
       <use xlink:href="#m67ee2ea161" x="260.773067" y="280.910437" style="stroke: #000000; stroke-width: 1.5"/>
      </g>
     </g>
     <g id="text_3">
      <!-- 0.50 -->
      <g transform="translate(238.507442 302.607312) scale(0.2 -0.2)">
       <use xlink:href="#DejaVuSans-30"/>
       <use xlink:href="#DejaVuSans-2e" transform="translate(63.623047 0)"/>
       <use xlink:href="#DejaVuSans-35" transform="translate(95.410156 0)"/>
       <use xlink:href="#DejaVuSans-30" transform="translate(159.033203 0)"/>
      </g>
     </g>
    </g>
    <g id="xtick_4">
     <g id="line2d_4">
      <g>
       <use xlink:href="#m67ee2ea161" x="343.627611" y="280.910437" style="stroke: #000000; stroke-width: 1.5"/>
      </g>
     </g>
     <g id="text_4">
      <!-- 0.75 -->
      <g transform="translate(321.361986 302.607312) scale(0.2 -0.2)">
       <defs>
        <path id="DejaVuSans-37" d="M 525 4666 
L 3525 4666 
L 3525 4397 
L 1831 0 
L 1172 0 
L 2766 4134 
L 525 4134 
L 525 4666 
z
" transform="scale(0.015625)"/>
       </defs>
       <use xlink:href="#DejaVuSans-30"/>
       <use xlink:href="#DejaVuSans-2e" transform="translate(63.623047 0)"/>
       <use xlink:href="#DejaVuSans-37" transform="translate(95.410156 0)"/>
       <use xlink:href="#DejaVuSans-35" transform="translate(159.033203 0)"/>
      </g>
     </g>
    </g>
    <g id="xtick_5">
     <g id="line2d_5">
      <g>
       <use xlink:href="#m67ee2ea161" x="426.482156" y="280.910437" style="stroke: #000000; stroke-width: 1.5"/>
      </g>
     </g>
     <g id="text_5">
      <!-- 1.00 -->
      <g transform="translate(404.216531 302.607312) scale(0.2 -0.2)">
       <defs>
        <path id="DejaVuSans-31" d="M 794 531 
L 1825 531 
L 1825 4091 
L 703 3866 
L 703 4441 
L 1819 4666 
L 2450 4666 
L 2450 531 
L 3481 531 
L 3481 0 
L 794 0 
L 794 531 
z
" transform="scale(0.015625)"/>
       </defs>
       <use xlink:href="#DejaVuSans-31"/>
       <use xlink:href="#DejaVuSans-2e" transform="translate(63.623047 0)"/>
       <use xlink:href="#DejaVuSans-30" transform="translate(95.410156 0)"/>
       <use xlink:href="#DejaVuSans-30" transform="translate(159.033203 0)"/>
      </g>
     </g>
    </g>
    <g id="text_6">
     <!-- $k_{gh}$ -->
     <g transform="translate(242.39125 325.966687) scale(0.2 -0.2)">
      <defs>
       <path id="DejaVuSans-Oblique-6b" d="M 1172 4863 
L 1747 4863 
L 1197 2028 
L 3169 3500 
L 3916 3500 
L 1716 1825 
L 3322 0 
L 2625 0 
L 1131 1709 
L 800 0 
L 225 0 
L 1172 4863 
z
" transform="scale(0.015625)"/>
       <path id="DejaVuSans-Oblique-67" d="M 3816 3500 
L 3219 434 
Q 3047 -456 2561 -893 
Q 2075 -1331 1253 -1331 
Q 950 -1331 690 -1286 
Q 431 -1241 206 -1147 
L 313 -588 
Q 525 -725 762 -790 
Q 1000 -856 1269 -856 
Q 1816 -856 2167 -557 
Q 2519 -259 2631 300 
L 2681 563 
Q 2441 288 2122 144 
Q 1803 0 1434 0 
Q 903 0 598 351 
Q 294 703 294 1319 
Q 294 1803 478 2267 
Q 663 2731 997 3091 
Q 1219 3328 1514 3456 
Q 1809 3584 2131 3584 
Q 2484 3584 2746 3420 
Q 3009 3256 3138 2956 
L 3238 3500 
L 3816 3500 
z
M 2950 2216 
Q 2950 2641 2750 2872 
Q 2550 3103 2181 3103 
Q 1953 3103 1747 3012 
Q 1541 2922 1394 2759 
Q 1156 2491 1023 2127 
Q 891 1763 891 1375 
Q 891 944 1092 712 
Q 1294 481 1672 481 
Q 2219 481 2584 976 
Q 2950 1472 2950 2216 
z
" transform="scale(0.015625)"/>
       <path id="DejaVuSans-Oblique-68" d="M 3566 2113 
L 3156 0 
L 2578 0 
L 2988 2091 
Q 3016 2238 3031 2350 
Q 3047 2463 3047 2528 
Q 3047 2791 2881 2937 
Q 2716 3084 2419 3084 
Q 1956 3084 1617 2771 
Q 1278 2459 1178 1941 
L 800 0 
L 225 0 
L 1172 4863 
L 1747 4863 
L 1375 2950 
Q 1594 3244 1934 3414 
Q 2275 3584 2650 3584 
Q 3113 3584 3367 3334 
Q 3622 3084 3622 2631 
Q 3622 2519 3608 2391 
Q 3594 2263 3566 2113 
z
" transform="scale(0.015625)"/>
      </defs>
      <use xlink:href="#DejaVuSans-Oblique-6b" transform="translate(0 0.015625)"/>
      <use xlink:href="#DejaVuSans-Oblique-67" transform="translate(57.910156 -16.390625) scale(0.7)"/>
      <use xlink:href="#DejaVuSans-Oblique-68" transform="translate(102.34375 -16.390625) scale(0.7)"/>
     </g>
    </g>
   </g>
   <g id="matplotlib.axis_2">
    <g id="ytick_1">
     <g id="line2d_6">
      <defs>
       <path id="madbfd13929" d="M 0 0 
L 3 0 
" style="stroke: #000000; stroke-width: 1.5"/>
      </defs>
      <g>
       <use xlink:href="#madbfd13929" x="78.83125" y="251.342437" style="stroke: #000000; stroke-width: 1.5"/>
      </g>
     </g>
     <g id="text_7">
      <!-- 0.02 -->
      <g transform="translate(30.8 258.940875) scale(0.2 -0.2)">
       <use xlink:href="#DejaVuSans-30"/>
       <use xlink:href="#DejaVuSans-2e" transform="translate(63.623047 0)"/>
       <use xlink:href="#DejaVuSans-30" transform="translate(95.410156 0)"/>
       <use xlink:href="#DejaVuSans-32" transform="translate(159.033203 0)"/>
      </g>
     </g>
    </g>
    <g id="ytick_2">
     <g id="line2d_7">
      <g>
       <use xlink:href="#madbfd13929" x="78.83125" y="192.206437" style="stroke: #000000; stroke-width: 1.5"/>
      </g>
     </g>
     <g id="text_8">
      <!-- 0.04 -->
      <g transform="translate(30.8 199.804875) scale(0.2 -0.2)">
       <defs>
        <path id="DejaVuSans-34" d="M 2419 4116 
L 825 1625 
L 2419 1625 
L 2419 4116 
z
M 2253 4666 
L 3047 4666 
L 3047 1625 
L 3713 1625 
L 3713 1100 
L 3047 1100 
L 3047 0 
L 2419 0 
L 2419 1100 
L 313 1100 
L 313 1709 
L 2253 4666 
z
" transform="scale(0.015625)"/>
       </defs>
       <use xlink:href="#DejaVuSans-30"/>
       <use xlink:href="#DejaVuSans-2e" transform="translate(63.623047 0)"/>
       <use xlink:href="#DejaVuSans-30" transform="translate(95.410156 0)"/>
       <use xlink:href="#DejaVuSans-34" transform="translate(159.033203 0)"/>
      </g>
     </g>
    </g>
    <g id="ytick_3">
     <g id="line2d_8">
      <g>
       <use xlink:href="#madbfd13929" x="78.83125" y="133.070437" style="stroke: #000000; stroke-width: 1.5"/>
      </g>
     </g>
     <g id="text_9">
      <!-- 0.06 -->
      <g transform="translate(30.8 140.668875) scale(0.2 -0.2)">
       <defs>
        <path id="DejaVuSans-36" d="M 2113 2584 
Q 1688 2584 1439 2293 
Q 1191 2003 1191 1497 
Q 1191 994 1439 701 
Q 1688 409 2113 409 
Q 2538 409 2786 701 
Q 3034 994 3034 1497 
Q 3034 2003 2786 2293 
Q 2538 2584 2113 2584 
z
M 3366 4563 
L 3366 3988 
Q 3128 4100 2886 4159 
Q 2644 4219 2406 4219 
Q 1781 4219 1451 3797 
Q 1122 3375 1075 2522 
Q 1259 2794 1537 2939 
Q 1816 3084 2150 3084 
Q 2853 3084 3261 2657 
Q 3669 2231 3669 1497 
Q 3669 778 3244 343 
Q 2819 -91 2113 -91 
Q 1303 -91 875 529 
Q 447 1150 447 2328 
Q 447 3434 972 4092 
Q 1497 4750 2381 4750 
Q 2619 4750 2861 4703 
Q 3103 4656 3366 4563 
z
" transform="scale(0.015625)"/>
       </defs>
       <use xlink:href="#DejaVuSans-30"/>
       <use xlink:href="#DejaVuSans-2e" transform="translate(63.623047 0)"/>
       <use xlink:href="#DejaVuSans-30" transform="translate(95.410156 0)"/>
       <use xlink:href="#DejaVuSans-36" transform="translate(159.033203 0)"/>
      </g>
     </g>
    </g>
    <g id="ytick_4">
     <g id="line2d_9">
      <g>
       <use xlink:href="#madbfd13929" x="78.83125" y="73.934437" style="stroke: #000000; stroke-width: 1.5"/>
      </g>
     </g>
     <g id="text_10">
      <!-- 0.08 -->
      <g transform="translate(30.8 81.532875) scale(0.2 -0.2)">
       <defs>
        <path id="DejaVuSans-38" d="M 2034 2216 
Q 1584 2216 1326 1975 
Q 1069 1734 1069 1313 
Q 1069 891 1326 650 
Q 1584 409 2034 409 
Q 2484 409 2743 651 
Q 3003 894 3003 1313 
Q 3003 1734 2745 1975 
Q 2488 2216 2034 2216 
z
M 1403 2484 
Q 997 2584 770 2862 
Q 544 3141 544 3541 
Q 544 4100 942 4425 
Q 1341 4750 2034 4750 
Q 2731 4750 3128 4425 
Q 3525 4100 3525 3541 
Q 3525 3141 3298 2862 
Q 3072 2584 2669 2484 
Q 3125 2378 3379 2068 
Q 3634 1759 3634 1313 
Q 3634 634 3220 271 
Q 2806 -91 2034 -91 
Q 1263 -91 848 271 
Q 434 634 434 1313 
Q 434 1759 690 2068 
Q 947 2378 1403 2484 
z
M 1172 3481 
Q 1172 3119 1398 2916 
Q 1625 2713 2034 2713 
Q 2441 2713 2670 2916 
Q 2900 3119 2900 3481 
Q 2900 3844 2670 4047 
Q 2441 4250 2034 4250 
Q 1625 4250 1398 4047 
Q 1172 3844 1172 3481 
z
" transform="scale(0.015625)"/>
       </defs>
       <use xlink:href="#DejaVuSans-30"/>
       <use xlink:href="#DejaVuSans-2e" transform="translate(63.623047 0)"/>
       <use xlink:href="#DejaVuSans-30" transform="translate(95.410156 0)"/>
       <use xlink:href="#DejaVuSans-38" transform="translate(159.033203 0)"/>
      </g>
     </g>
    </g>
    <g id="ytick_5">
     <g id="line2d_10">
      <g>
       <use xlink:href="#madbfd13929" x="78.83125" y="14.798437" style="stroke: #000000; stroke-width: 1.5"/>
      </g>
     </g>
     <g id="text_11">
      <!-- 0.10 -->
      <g transform="translate(30.8 22.396875) scale(0.2 -0.2)">
       <use xlink:href="#DejaVuSans-30"/>
       <use xlink:href="#DejaVuSans-2e" transform="translate(63.623047 0)"/>
       <use xlink:href="#DejaVuSans-31" transform="translate(95.410156 0)"/>
       <use xlink:href="#DejaVuSans-30" transform="translate(159.033203 0)"/>
      </g>
     </g>
    </g>
    <g id="text_12">
     <!-- $\beta_c$ -->
     <g transform="translate(22.6 158.454437) rotate(-90) scale(0.2 -0.2)">
      <defs>
       <path id="DejaVuSans-Oblique-3b2" d="M 872 216 
L 572 -1331 
L -6 -1331 
L 928 3478 
Q 1206 4903 2538 4903 
Q 3888 4903 3659 3700 
Q 3503 2844 2894 2531 
Q 3713 2250 3553 1416 
Q 3272 -69 1759 -66 
Q 1097 -63 872 216 
z
M 1019 966 
Q 1259 422 1875 425 
Q 2775 425 2966 1406 
Q 3138 2288 1675 2219 
L 1778 2750 
Q 2909 2731 3106 3750 
Q 3241 4438 2509 4434 
Q 1691 4434 1503 3459 
L 1019 966 
z
" transform="scale(0.015625)"/>
       <path id="DejaVuSans-Oblique-63" d="M 3431 3366 
L 3316 2797 
Q 3109 2947 2876 3022 
Q 2644 3097 2394 3097 
Q 2119 3097 1870 3000 
Q 1622 2903 1453 2725 
Q 1184 2453 1037 2087 
Q 891 1722 891 1331 
Q 891 859 1127 628 
Q 1363 397 1844 397 
Q 2081 397 2348 469 
Q 2616 541 2906 684 
L 2797 116 
Q 2547 13 2283 -39 
Q 2019 -91 1741 -91 
Q 1044 -91 669 257 
Q 294 606 294 1253 
Q 294 1797 489 2255 
Q 684 2713 1069 3078 
Q 1331 3328 1684 3456 
Q 2038 3584 2456 3584 
Q 2700 3584 2940 3529 
Q 3181 3475 3431 3366 
z
" transform="scale(0.015625)"/>
      </defs>
      <use xlink:href="#DejaVuSans-Oblique-3b2" transform="translate(0 0.390625)"/>
      <use xlink:href="#DejaVuSans-Oblique-63" transform="translate(63.818359 -16.015625) scale(0.7)"/>
     </g>
    </g>
   </g>
   <g id="line2d_11">
    <path d="M 95.063977 262.312067 
L 108.59125 260.816828 
L 122.118522 259.340055 
L 135.645795 257.881385 
L 149.173067 256.440499 
L 162.700338 255.017072 
L 176.227614 253.6108 
L 189.75488 252.221343 
L 203.282156 250.84843 
L 216.809432 249.491753 
L 230.336698 248.151042 
L 243.863974 246.825995 
L 257.39125 245.516352 
L 270.918516 244.221837 
L 284.445782 242.942205 
L 297.973068 241.677194 
L 311.500354 240.426547 
L 325.02762 239.190032 
L 338.554886 237.967401 
L 352.082153 236.758424 
L 365.609419 235.562873 
L 379.136705 234.38053 
L 392.663971 233.211178 
L 406.191257 232.054604 
L 419.718523 230.910582 
" clip-path="url(#p03319ebd65)" style="fill: none; stroke-dasharray: 7.4,3.2; stroke-dashoffset: 0; stroke: #ff0000; stroke-width: 2"/>
    <defs>
     <path id="m72846184aa" d="M 0 5 
C 1.326016 5 2.597899 4.473168 3.535534 3.535534 
C 4.473168 2.597899 5 1.326016 5 0 
C 5 -1.326016 4.473168 -2.597899 3.535534 -3.535534 
C 2.597899 -4.473168 1.326016 -5 0 -5 
C -1.326016 -5 -2.597899 -4.473168 -3.535534 -3.535534 
C -4.473168 -2.597899 -5 -1.326016 -5 0 
C -5 1.326016 -4.473168 2.597899 -3.535534 3.535534 
C -2.597899 4.473168 -1.326016 5 0 5 
z
" style="stroke: #ff0000"/>
    </defs>
    <g clip-path="url(#p03319ebd65)">
     <use xlink:href="#m72846184aa" x="95.063977" y="262.312067" style="fill: #ff0000; stroke: #ff0000"/>
     <use xlink:href="#m72846184aa" x="108.59125" y="260.816828" style="fill: #ff0000; stroke: #ff0000"/>
     <use xlink:href="#m72846184aa" x="122.118522" y="259.340055" style="fill: #ff0000; stroke: #ff0000"/>
     <use xlink:href="#m72846184aa" x="135.645795" y="257.881385" style="fill: #ff0000; stroke: #ff0000"/>
     <use xlink:href="#m72846184aa" x="149.173067" y="256.440499" style="fill: #ff0000; stroke: #ff0000"/>
     <use xlink:href="#m72846184aa" x="162.700338" y="255.017072" style="fill: #ff0000; stroke: #ff0000"/>
     <use xlink:href="#m72846184aa" x="176.227614" y="253.6108" style="fill: #ff0000; stroke: #ff0000"/>
     <use xlink:href="#m72846184aa" x="189.75488" y="252.221343" style="fill: #ff0000; stroke: #ff0000"/>
     <use xlink:href="#m72846184aa" x="203.282156" y="250.84843" style="fill: #ff0000; stroke: #ff0000"/>
     <use xlink:href="#m72846184aa" x="216.809432" y="249.491753" style="fill: #ff0000; stroke: #ff0000"/>
     <use xlink:href="#m72846184aa" x="230.336698" y="248.151042" style="fill: #ff0000; stroke: #ff0000"/>
     <use xlink:href="#m72846184aa" x="243.863974" y="246.825995" style="fill: #ff0000; stroke: #ff0000"/>
     <use xlink:href="#m72846184aa" x="257.39125" y="245.516352" style="fill: #ff0000; stroke: #ff0000"/>
     <use xlink:href="#m72846184aa" x="270.918516" y="244.221837" style="fill: #ff0000; stroke: #ff0000"/>
     <use xlink:href="#m72846184aa" x="284.445782" y="242.942205" style="fill: #ff0000; stroke: #ff0000"/>
     <use xlink:href="#m72846184aa" x="297.973068" y="241.677194" style="fill: #ff0000; stroke: #ff0000"/>
     <use xlink:href="#m72846184aa" x="311.500354" y="240.426547" style="fill: #ff0000; stroke: #ff0000"/>
     <use xlink:href="#m72846184aa" x="325.02762" y="239.190032" style="fill: #ff0000; stroke: #ff0000"/>
     <use xlink:href="#m72846184aa" x="338.554886" y="237.967401" style="fill: #ff0000; stroke: #ff0000"/>
     <use xlink:href="#m72846184aa" x="352.082153" y="236.758424" style="fill: #ff0000; stroke: #ff0000"/>
     <use xlink:href="#m72846184aa" x="365.609419" y="235.562873" style="fill: #ff0000; stroke: #ff0000"/>
     <use xlink:href="#m72846184aa" x="379.136705" y="234.38053" style="fill: #ff0000; stroke: #ff0000"/>
     <use xlink:href="#m72846184aa" x="392.663971" y="233.211178" style="fill: #ff0000; stroke: #ff0000"/>
     <use xlink:href="#m72846184aa" x="406.191257" y="232.054604" style="fill: #ff0000; stroke: #ff0000"/>
     <use xlink:href="#m72846184aa" x="419.718523" y="230.910582" style="fill: #ff0000; stroke: #ff0000"/>
    </g>
   </g>
   <g id="line2d_12">
    <path d="M 95.063977 248.917087 
L 108.59125 243.43965 
L 122.118522 238.153746 
L 135.645795 233.049496 
L 149.173067 228.117717 
L 162.700338 223.34979 
L 176.227614 218.737687 
L 189.75488 214.273889 
L 203.282156 209.951363 
L 216.809432 205.763527 
L 230.336698 201.704126 
L 243.863974 197.767387 
L 257.39125 193.947836 
L 270.918516 190.240285 
L 284.445782 186.639909 
L 297.973068 183.142093 
L 311.500354 179.742586 
L 325.02762 176.437179 
L 338.554886 173.22215 
L 352.082153 170.093764 
L 365.609419 167.048563 
L 379.136705 164.083331 
L 392.663971 161.194906 
L 406.191257 158.38038 
L 419.718523 155.6369 
" clip-path="url(#p03319ebd65)" style="fill: none; stroke-dasharray: 7.4,3.2; stroke-dashoffset: 0; stroke: #008000; stroke-width: 2"/>
    <defs>
     <path id="m633ff6e786" d="M -5 5 
L 5 5 
L 5 -5 
L -5 -5 
z
" style="stroke: #008000; stroke-linejoin: miter"/>
    </defs>
    <g clip-path="url(#p03319ebd65)">
     <use xlink:href="#m633ff6e786" x="95.063977" y="248.917087" style="fill: #008000; stroke: #008000; stroke-linejoin: miter"/>
     <use xlink:href="#m633ff6e786" x="108.59125" y="243.43965" style="fill: #008000; stroke: #008000; stroke-linejoin: miter"/>
     <use xlink:href="#m633ff6e786" x="122.118522" y="238.153746" style="fill: #008000; stroke: #008000; stroke-linejoin: miter"/>
     <use xlink:href="#m633ff6e786" x="135.645795" y="233.049496" style="fill: #008000; stroke: #008000; stroke-linejoin: miter"/>
     <use xlink:href="#m633ff6e786" x="149.173067" y="228.117717" style="fill: #008000; stroke: #008000; stroke-linejoin: miter"/>
     <use xlink:href="#m633ff6e786" x="162.700338" y="223.34979" style="fill: #008000; stroke: #008000; stroke-linejoin: miter"/>
     <use xlink:href="#m633ff6e786" x="176.227614" y="218.737687" style="fill: #008000; stroke: #008000; stroke-linejoin: miter"/>
     <use xlink:href="#m633ff6e786" x="189.75488" y="214.273889" style="fill: #008000; stroke: #008000; stroke-linejoin: miter"/>
     <use xlink:href="#m633ff6e786" x="203.282156" y="209.951363" style="fill: #008000; stroke: #008000; stroke-linejoin: miter"/>
     <use xlink:href="#m633ff6e786" x="216.809432" y="205.763527" style="fill: #008000; stroke: #008000; stroke-linejoin: miter"/>
     <use xlink:href="#m633ff6e786" x="230.336698" y="201.704126" style="fill: #008000; stroke: #008000; stroke-linejoin: miter"/>
     <use xlink:href="#m633ff6e786" x="243.863974" y="197.767387" style="fill: #008000; stroke: #008000; stroke-linejoin: miter"/>
     <use xlink:href="#m633ff6e786" x="257.39125" y="193.947836" style="fill: #008000; stroke: #008000; stroke-linejoin: miter"/>
     <use xlink:href="#m633ff6e786" x="270.918516" y="190.240285" style="fill: #008000; stroke: #008000; stroke-linejoin: miter"/>
     <use xlink:href="#m633ff6e786" x="284.445782" y="186.639909" style="fill: #008000; stroke: #008000; stroke-linejoin: miter"/>
     <use xlink:href="#m633ff6e786" x="297.973068" y="183.142093" style="fill: #008000; stroke: #008000; stroke-linejoin: miter"/>
     <use xlink:href="#m633ff6e786" x="311.500354" y="179.742586" style="fill: #008000; stroke: #008000; stroke-linejoin: miter"/>
     <use xlink:href="#m633ff6e786" x="325.02762" y="176.437179" style="fill: #008000; stroke: #008000; stroke-linejoin: miter"/>
     <use xlink:href="#m633ff6e786" x="338.554886" y="173.22215" style="fill: #008000; stroke: #008000; stroke-linejoin: miter"/>
     <use xlink:href="#m633ff6e786" x="352.082153" y="170.093764" style="fill: #008000; stroke: #008000; stroke-linejoin: miter"/>
     <use xlink:href="#m633ff6e786" x="365.609419" y="167.048563" style="fill: #008000; stroke: #008000; stroke-linejoin: miter"/>
     <use xlink:href="#m633ff6e786" x="379.136705" y="164.083331" style="fill: #008000; stroke: #008000; stroke-linejoin: miter"/>
     <use xlink:href="#m633ff6e786" x="392.663971" y="161.194906" style="fill: #008000; stroke: #008000; stroke-linejoin: miter"/>
     <use xlink:href="#m633ff6e786" x="406.191257" y="158.38038" style="fill: #008000; stroke: #008000; stroke-linejoin: miter"/>
     <use xlink:href="#m633ff6e786" x="419.718523" y="155.6369" style="fill: #008000; stroke: #008000; stroke-linejoin: miter"/>
    </g>
   </g>
   <g id="line2d_13">
    <path d="M 95.063977 223.598458 
L 108.59125 210.695477 
L 122.118522 198.536923 
L 135.645795 187.06014 
L 149.173067 176.209379 
L 162.700338 165.934722 
L 176.227614 156.191568 
L 189.75488 146.939648 
L 203.282156 138.142732 
L 216.809432 129.768075 
L 230.336698 121.785979 
L 243.863974 114.169457 
L 257.39125 106.894002 
L 270.918516 99.937187 
L 284.445782 93.278503 
L 297.973068 86.899179 
L 311.500354 80.782033 
L 325.02762 74.911225 
L 338.554886 69.272172 
L 352.082153 63.851368 
L 365.609419 58.636456 
L 379.136705 53.615891 
L 392.663971 48.778967 
L 406.191257 44.115859 
L 419.718523 39.61727 
" clip-path="url(#p03319ebd65)" style="fill: none; stroke-dasharray: 7.4,3.2; stroke-dashoffset: 0; stroke: #0000ff; stroke-width: 2"/>
    <defs>
     <path id="mf608b0a1f7" d="M 0 -5 
L -4.330127 -2.5 
L -4.330127 2.5 
L -0 5 
L 4.330127 2.5 
L 4.330127 -2.5 
z
" style="stroke: #0000ff; stroke-linejoin: miter"/>
    </defs>
    <g clip-path="url(#p03319ebd65)">
     <use xlink:href="#mf608b0a1f7" x="95.063977" y="223.598458" style="fill: #0000ff; stroke: #0000ff; stroke-linejoin: miter"/>
     <use xlink:href="#mf608b0a1f7" x="108.59125" y="210.695477" style="fill: #0000ff; stroke: #0000ff; stroke-linejoin: miter"/>
     <use xlink:href="#mf608b0a1f7" x="122.118522" y="198.536923" style="fill: #0000ff; stroke: #0000ff; stroke-linejoin: miter"/>
     <use xlink:href="#mf608b0a1f7" x="135.645795" y="187.06014" style="fill: #0000ff; stroke: #0000ff; stroke-linejoin: miter"/>
     <use xlink:href="#mf608b0a1f7" x="149.173067" y="176.209379" style="fill: #0000ff; stroke: #0000ff; stroke-linejoin: miter"/>
     <use xlink:href="#mf608b0a1f7" x="162.700338" y="165.934722" style="fill: #0000ff; stroke: #0000ff; stroke-linejoin: miter"/>
     <use xlink:href="#mf608b0a1f7" x="176.227614" y="156.191568" style="fill: #0000ff; stroke: #0000ff; stroke-linejoin: miter"/>
     <use xlink:href="#mf608b0a1f7" x="189.75488" y="146.939648" style="fill: #0000ff; stroke: #0000ff; stroke-linejoin: miter"/>
     <use xlink:href="#mf608b0a1f7" x="203.282156" y="138.142732" style="fill: #0000ff; stroke: #0000ff; stroke-linejoin: miter"/>
     <use xlink:href="#mf608b0a1f7" x="216.809432" y="129.768075" style="fill: #0000ff; stroke: #0000ff; stroke-linejoin: miter"/>
     <use xlink:href="#mf608b0a1f7" x="230.336698" y="121.785979" style="fill: #0000ff; stroke: #0000ff; stroke-linejoin: miter"/>
     <use xlink:href="#mf608b0a1f7" x="243.863974" y="114.169457" style="fill: #0000ff; stroke: #0000ff; stroke-linejoin: miter"/>
     <use xlink:href="#mf608b0a1f7" x="257.39125" y="106.894002" style="fill: #0000ff; stroke: #0000ff; stroke-linejoin: miter"/>
     <use xlink:href="#mf608b0a1f7" x="270.918516" y="99.937187" style="fill: #0000ff; stroke: #0000ff; stroke-linejoin: miter"/>
     <use xlink:href="#mf608b0a1f7" x="284.445782" y="93.278503" style="fill: #0000ff; stroke: #0000ff; stroke-linejoin: miter"/>
     <use xlink:href="#mf608b0a1f7" x="297.973068" y="86.899179" style="fill: #0000ff; stroke: #0000ff; stroke-linejoin: miter"/>
     <use xlink:href="#mf608b0a1f7" x="311.500354" y="80.782033" style="fill: #0000ff; stroke: #0000ff; stroke-linejoin: miter"/>
     <use xlink:href="#mf608b0a1f7" x="325.02762" y="74.911225" style="fill: #0000ff; stroke: #0000ff; stroke-linejoin: miter"/>
     <use xlink:href="#mf608b0a1f7" x="338.554886" y="69.272172" style="fill: #0000ff; stroke: #0000ff; stroke-linejoin: miter"/>
     <use xlink:href="#mf608b0a1f7" x="352.082153" y="63.851368" style="fill: #0000ff; stroke: #0000ff; stroke-linejoin: miter"/>
     <use xlink:href="#mf608b0a1f7" x="365.609419" y="58.636456" style="fill: #0000ff; stroke: #0000ff; stroke-linejoin: miter"/>
     <use xlink:href="#mf608b0a1f7" x="379.136705" y="53.615891" style="fill: #0000ff; stroke: #0000ff; stroke-linejoin: miter"/>
     <use xlink:href="#mf608b0a1f7" x="392.663971" y="48.778967" style="fill: #0000ff; stroke: #0000ff; stroke-linejoin: miter"/>
     <use xlink:href="#mf608b0a1f7" x="406.191257" y="44.115859" style="fill: #0000ff; stroke: #0000ff; stroke-linejoin: miter"/>
     <use xlink:href="#mf608b0a1f7" x="419.718523" y="39.61727" style="fill: #0000ff; stroke: #0000ff; stroke-linejoin: miter"/>
    </g>
   </g>
   <g id="patch_3">
    <path d="M 78.83125 280.910437 
L 78.83125 14.798437 
" style="fill: none; stroke: #000000; stroke-width: 0.8; stroke-linejoin: miter; stroke-linecap: square"/>
   </g>
   <g id="patch_4">
    <path d="M 435.95125 280.910437 
L 435.95125 14.798437 
" style="fill: none; stroke: #000000; stroke-width: 0.8; stroke-linejoin: miter; stroke-linecap: square"/>
   </g>
   <g id="patch_5">
    <path d="M 78.83125 280.910437 
L 435.95125 280.910437 
" style="fill: none; stroke: #000000; stroke-width: 0.8; stroke-linejoin: miter; stroke-linecap: square"/>
   </g>
   <g id="patch_6">
    <path d="M 78.83125 14.798437 
L 435.95125 14.798437 
" style="fill: none; stroke: #000000; stroke-width: 0.8; stroke-linejoin: miter; stroke-linecap: square"/>
   </g>
   <g id="legend_1">
    <g id="patch_7">
     <path d="M 89.33125 118.823437 
L 186.68125 118.823437 
Q 189.68125 118.823437 189.68125 115.823437 
L 189.68125 25.298437 
Q 189.68125 22.298437 186.68125 22.298437 
L 89.33125 22.298437 
Q 86.33125 22.298437 86.33125 25.298437 
L 86.33125 115.823437 
Q 86.33125 118.823437 89.33125 118.823437 
z
" style="fill: #ffffff; opacity: 0.8; stroke: #cccccc; stroke-linejoin: miter"/>
    </g>
    <g id="line2d_14">
     <path d="M 92.33125 36.473437 
L 107.33125 36.473437 
L 122.33125 36.473437 
" style="fill: none; stroke-dasharray: 7.4,3.2; stroke-dashoffset: 0; stroke: #ff0000; stroke-width: 2"/>
     <g>
      <use xlink:href="#m72846184aa" x="107.33125" y="36.473437" style="fill: #ff0000; stroke: #ff0000"/>
     </g>
    </g>
    <g id="text_13">
     <!-- $g_l$=0.1 -->
     <g transform="translate(134.33125 44.648437) scale(0.15 -0.15)">
      <defs>
       <path id="DejaVuSans-Oblique-6c" d="M 1172 4863 
L 1747 4863 
L 800 0 
L 225 0 
L 1172 4863 
z
" transform="scale(0.015625)"/>
       <path id="DejaVuSans-3d" d="M 678 2906 
L 4684 2906 
L 4684 2381 
L 678 2381 
L 678 2906 
z
M 678 1631 
L 4684 1631 
L 4684 1100 
L 678 1100 
L 678 1631 
z
" transform="scale(0.015625)"/>
      </defs>
      <use xlink:href="#DejaVuSans-Oblique-67" transform="translate(0 0.78125)"/>
      <use xlink:href="#DejaVuSans-Oblique-6c" transform="translate(63.476562 -15.625) scale(0.7)"/>
      <use xlink:href="#DejaVuSans-3d" transform="translate(85.65918 0.78125)"/>
      <use xlink:href="#DejaVuSans-30" transform="translate(169.448242 0.78125)"/>
      <use xlink:href="#DejaVuSans-2e" transform="translate(233.071289 0.78125)"/>
      <use xlink:href="#DejaVuSans-31" transform="translate(264.858398 0.78125)"/>
     </g>
    </g>
    <g id="line2d_15">
     <path d="M 92.33125 67.148437 
L 107.33125 67.148437 
L 122.33125 67.148437 
" style="fill: none; stroke-dasharray: 7.4,3.2; stroke-dashoffset: 0; stroke: #008000; stroke-width: 2"/>
     <g>
      <use xlink:href="#m633ff6e786" x="107.33125" y="67.148437" style="fill: #008000; stroke: #008000; stroke-linejoin: miter"/>
     </g>
    </g>
    <g id="text_14">
     <!-- $g_l$=0.3 -->
     <g transform="translate(134.33125 75.323437) scale(0.15 -0.15)">
      <defs>
       <path id="DejaVuSans-33" d="M 2597 2516 
Q 3050 2419 3304 2112 
Q 3559 1806 3559 1356 
Q 3559 666 3084 287 
Q 2609 -91 1734 -91 
Q 1441 -91 1130 -33 
Q 819 25 488 141 
L 488 750 
Q 750 597 1062 519 
Q 1375 441 1716 441 
Q 2309 441 2620 675 
Q 2931 909 2931 1356 
Q 2931 1769 2642 2001 
Q 2353 2234 1838 2234 
L 1294 2234 
L 1294 2753 
L 1863 2753 
Q 2328 2753 2575 2939 
Q 2822 3125 2822 3475 
Q 2822 3834 2567 4026 
Q 2313 4219 1838 4219 
Q 1578 4219 1281 4162 
Q 984 4106 628 3988 
L 628 4550 
Q 988 4650 1302 4700 
Q 1616 4750 1894 4750 
Q 2613 4750 3031 4423 
Q 3450 4097 3450 3541 
Q 3450 3153 3228 2886 
Q 3006 2619 2597 2516 
z
" transform="scale(0.015625)"/>
      </defs>
      <use xlink:href="#DejaVuSans-Oblique-67" transform="translate(0 0.78125)"/>
      <use xlink:href="#DejaVuSans-Oblique-6c" transform="translate(63.476562 -15.625) scale(0.7)"/>
      <use xlink:href="#DejaVuSans-3d" transform="translate(85.65918 0.78125)"/>
      <use xlink:href="#DejaVuSans-30" transform="translate(169.448242 0.78125)"/>
      <use xlink:href="#DejaVuSans-2e" transform="translate(233.071289 0.78125)"/>
      <use xlink:href="#DejaVuSans-33" transform="translate(264.858398 0.78125)"/>
     </g>
    </g>
    <g id="line2d_16">
     <path d="M 92.33125 97.823437 
L 107.33125 97.823437 
L 122.33125 97.823437 
" style="fill: none; stroke-dasharray: 7.4,3.2; stroke-dashoffset: 0; stroke: #0000ff; stroke-width: 2"/>
     <g>
      <use xlink:href="#mf608b0a1f7" x="107.33125" y="97.823437" style="fill: #0000ff; stroke: #0000ff; stroke-linejoin: miter"/>
     </g>
    </g>
    <g id="text_15">
     <!-- $g_l$=0.5 -->
     <g transform="translate(134.33125 105.998437) scale(0.15 -0.15)">
      <use xlink:href="#DejaVuSans-Oblique-67" transform="translate(0 0.78125)"/>
      <use xlink:href="#DejaVuSans-Oblique-6c" transform="translate(63.476562 -15.625) scale(0.7)"/>
      <use xlink:href="#DejaVuSans-3d" transform="translate(85.65918 0.78125)"/>
      <use xlink:href="#DejaVuSans-30" transform="translate(169.448242 0.78125)"/>
      <use xlink:href="#DejaVuSans-2e" transform="translate(233.071289 0.78125)"/>
      <use xlink:href="#DejaVuSans-35" transform="translate(264.858398 0.78125)"/>
     </g>
    </g>
   </g>
  </g>
 </g>
 <defs>
  <clipPath id="p03319ebd65">
   <rect x="78.83125" y="14.798437" width="357.12" height="266.112"/>
  </clipPath>
 </defs>
</svg>
