<?xml version="1.0" encoding="utf-8" standalone="no"?>
<!DOCTYPE svg PUBLIC "-//W3C//DTD SVG 1.1//EN"
  "http://www.w3.org/Graphics/SVG/1.1/DTD/svg11.dtd">
<svg xmlns:xlink="http://www.w3.org/1999/xlink" width="468.672781pt" height="339.366688pt" viewBox="0 0 468.672781 339.366688" xmlns="http://www.w3.org/2000/svg" version="1.1">
 <metadata>
  <rdf:RDF xmlns:dc="http://purl.org/dc/elements/1.1/" xmlns:cc="http://creativecommons.org/ns#" xmlns:rdf="http://www.w3.org/1999/02/22-rdf-syntax-ns#">
   <cc:Work>
    <dc:type rdf:resource="http://purl.org/dc/dcmitype/StillImage"/>
    <dc:date>2025-05-14T12:54:20.226319</dc:date>
    <dc:format>image/svg+xml</dc:format>
    <dc:creator>
     <cc:Agent>
      <dc:title>Matplotlib v3.10.1, https://matplotlib.org/</dc:title>
     </cc:Agent>
    </dc:creator>
   </cc:Work>
  </rdf:RDF>
 </metadata>
 <defs>
  <style type="text/css">*{stroke-linejoin: round; stroke-linecap: butt}</style>
 </defs>
 <g id="figure_1">
  <g id="patch_1">
   <path d="M 0 339.366688 
L 468.672781 339.366688 
L 468.672781 0 
L 0 0 
z
" style="fill: #ffffff"/>
  </g>
  <g id="axes_1">
   <g id="patch_2">
    <path d="M 91.55625 280.910438 
L 448.67625 280.910438 
L 448.67625 14.798438 
L 91.55625 14.798438 
z
" style="fill: #ffffff"/>
   </g>
   <g id="matplotlib.axis_1">
    <g id="xtick_1">
     <g id="line2d_1">
      <defs>
       <path id="maa3debc550" d="M 0 0 
L 0 3 
" style="stroke: #000000; stroke-width: 1.5"/>
      </defs>
      <g>
       <use xlink:href="#maa3debc550" x="107.788977" y="280.910438" style="stroke: #000000; stroke-width: 1.5"/>
      </g>
     </g>
     <g id="text_1">
      <!-- 0.00 -->
      <g transform="translate(85.523352 302.607313) scale(0.2 -0.2)">
       <defs>
        <path id="DejaVuSans-30" d="M 2034 4250 
Q 1547 4250 1301 3770 
Q 1056 3291 1056 2328 
Q 1056 1369 1301 889 
Q 1547 409 2034 409 
Q 2525 409 2770 889 
Q 3016 1369 3016 2328 
Q 3016 3291 2770 3770 
Q 2525 4250 2034 4250 
z
M 2034 4750 
Q 2819 4750 3233 4129 
Q 3647 3509 3647 2328 
Q 3647 1150 3233 529 
Q 2819 -91 2034 -91 
Q 1250 -91 836 529 
Q 422 1150 422 2328 
Q 422 3509 836 4129 
Q 1250 4750 2034 4750 
z
" transform="scale(0.015625)"/>
        <path id="DejaVuSans-2e" d="M 684 794 
L 1344 794 
L 1344 0 
L 684 0 
L 684 794 
z
" transform="scale(0.015625)"/>
       </defs>
       <use xlink:href="#DejaVuSans-30"/>
       <use xlink:href="#DejaVuSans-2e" transform="translate(63.623047 0)"/>
       <use xlink:href="#DejaVuSans-30" transform="translate(95.410156 0)"/>
       <use xlink:href="#DejaVuSans-30" transform="translate(159.033203 0)"/>
      </g>
     </g>
    </g>
    <g id="xtick_2">
     <g id="line2d_2">
      <g>
       <use xlink:href="#maa3debc550" x="190.643522" y="280.910438" style="stroke: #000000; stroke-width: 1.5"/>
      </g>
     </g>
     <g id="text_2">
      <!-- 0.25 -->
      <g transform="translate(168.377897 302.607313) scale(0.2 -0.2)">
       <defs>
        <path id="DejaVuSans-32" d="M 1228 531 
L 3431 531 
L 3431 0 
L 469 0 
L 469 531 
Q 828 903 1448 1529 
Q 2069 2156 2228 2338 
Q 2531 2678 2651 2914 
Q 2772 3150 2772 3378 
Q 2772 3750 2511 3984 
Q 2250 4219 1831 4219 
Q 1534 4219 1204 4116 
Q 875 4013 500 3803 
L 500 4441 
Q 881 4594 1212 4672 
Q 1544 4750 1819 4750 
Q 2544 4750 2975 4387 
Q 3406 4025 3406 3419 
Q 3406 3131 3298 2873 
Q 3191 2616 2906 2266 
Q 2828 2175 2409 1742 
Q 1991 1309 1228 531 
z
" transform="scale(0.015625)"/>
        <path id="DejaVuSans-35" d="M 691 4666 
L 3169 4666 
L 3169 4134 
L 1269 4134 
L 1269 2991 
Q 1406 3038 1543 3061 
Q 1681 3084 1819 3084 
Q 2600 3084 3056 2656 
Q 3513 2228 3513 1497 
Q 3513 744 3044 326 
Q 2575 -91 1722 -91 
Q 1428 -91 1123 -41 
Q 819 9 494 109 
L 494 744 
Q 775 591 1075 516 
Q 1375 441 1709 441 
Q 2250 441 2565 725 
Q 2881 1009 2881 1497 
Q 2881 1984 2565 2268 
Q 2250 2553 1709 2553 
Q 1456 2553 1204 2497 
Q 953 2441 691 2322 
L 691 4666 
z
" transform="scale(0.015625)"/>
       </defs>
       <use xlink:href="#DejaVuSans-30"/>
       <use xlink:href="#DejaVuSans-2e" transform="translate(63.623047 0)"/>
       <use xlink:href="#DejaVuSans-32" transform="translate(95.410156 0)"/>
       <use xlink:href="#DejaVuSans-35" transform="translate(159.033203 0)"/>
      </g>
     </g>
    </g>
    <g id="xtick_3">
     <g id="line2d_3">
      <g>
       <use xlink:href="#maa3debc550" x="273.498067" y="280.910438" style="stroke: #000000; stroke-width: 1.5"/>
      </g>
     </g>
     <g id="text_3">
      <!-- 0.50 -->
      <g transform="translate(251.232442 302.607313) scale(0.2 -0.2)">
       <use xlink:href="#DejaVuSans-30"/>
       <use xlink:href="#DejaVuSans-2e" transform="translate(63.623047 0)"/>
       <use xlink:href="#DejaVuSans-35" transform="translate(95.410156 0)"/>
       <use xlink:href="#DejaVuSans-30" transform="translate(159.033203 0)"/>
      </g>
     </g>
    </g>
    <g id="xtick_4">
     <g id="line2d_4">
      <g>
       <use xlink:href="#maa3debc550" x="356.352611" y="280.910438" style="stroke: #000000; stroke-width: 1.5"/>
      </g>
     </g>
     <g id="text_4">
      <!-- 0.75 -->
      <g transform="translate(334.086986 302.607313) scale(0.2 -0.2)">
       <defs>
        <path id="DejaVuSans-37" d="M 525 4666 
L 3525 4666 
L 3525 4397 
L 1831 0 
L 1172 0 
L 2766 4134 
L 525 4134 
L 525 4666 
z
" transform="scale(0.015625)"/>
       </defs>
       <use xlink:href="#DejaVuSans-30"/>
       <use xlink:href="#DejaVuSans-2e" transform="translate(63.623047 0)"/>
       <use xlink:href="#DejaVuSans-37" transform="translate(95.410156 0)"/>
       <use xlink:href="#DejaVuSans-35" transform="translate(159.033203 0)"/>
      </g>
     </g>
    </g>
    <g id="xtick_5">
     <g id="line2d_5">
      <g>
       <use xlink:href="#maa3debc550" x="439.207156" y="280.910438" style="stroke: #000000; stroke-width: 1.5"/>
      </g>
     </g>
     <g id="text_5">
      <!-- 1.00 -->
      <g transform="translate(416.941531 302.607313) scale(0.2 -0.2)">
       <defs>
        <path id="DejaVuSans-31" d="M 794 531 
L 1825 531 
L 1825 4091 
L 703 3866 
L 703 4441 
L 1819 4666 
L 2450 4666 
L 2450 531 
L 3481 531 
L 3481 0 
L 794 0 
L 794 531 
z
" transform="scale(0.015625)"/>
       </defs>
       <use xlink:href="#DejaVuSans-31"/>
       <use xlink:href="#DejaVuSans-2e" transform="translate(63.623047 0)"/>
       <use xlink:href="#DejaVuSans-30" transform="translate(95.410156 0)"/>
       <use xlink:href="#DejaVuSans-30" transform="translate(159.033203 0)"/>
      </g>
     </g>
    </g>
    <g id="text_6">
     <!-- $k_{gm}$ -->
     <g transform="translate(252.71625 325.966688) scale(0.2 -0.2)">
      <defs>
       <path id="DejaVuSans-Oblique-6b" d="M 1172 4863 
L 1747 4863 
L 1197 2028 
L 3169 3500 
L 3916 3500 
L 1716 1825 
L 3322 0 
L 2625 0 
L 1131 1709 
L 800 0 
L 225 0 
L 1172 4863 
z
" transform="scale(0.015625)"/>
       <path id="DejaVuSans-Oblique-67" d="M 3816 3500 
L 3219 434 
Q 3047 -456 2561 -893 
Q 2075 -1331 1253 -1331 
Q 950 -1331 690 -1286 
Q 431 -1241 206 -1147 
L 313 -588 
Q 525 -725 762 -790 
Q 1000 -856 1269 -856 
Q 1816 -856 2167 -557 
Q 2519 -259 2631 300 
L 2681 563 
Q 2441 288 2122 144 
Q 1803 0 1434 0 
Q 903 0 598 351 
Q 294 703 294 1319 
Q 294 1803 478 2267 
Q 663 2731 997 3091 
Q 1219 3328 1514 3456 
Q 1809 3584 2131 3584 
Q 2484 3584 2746 3420 
Q 3009 3256 3138 2956 
L 3238 3500 
L 3816 3500 
z
M 2950 2216 
Q 2950 2641 2750 2872 
Q 2550 3103 2181 3103 
Q 1953 3103 1747 3012 
Q 1541 2922 1394 2759 
Q 1156 2491 1023 2127 
Q 891 1763 891 1375 
Q 891 944 1092 712 
Q 1294 481 1672 481 
Q 2219 481 2584 976 
Q 2950 1472 2950 2216 
z
" transform="scale(0.015625)"/>
       <path id="DejaVuSans-Oblique-6d" d="M 5747 2113 
L 5338 0 
L 4763 0 
L 5166 2094 
Q 5191 2228 5203 2325 
Q 5216 2422 5216 2491 
Q 5216 2772 5059 2928 
Q 4903 3084 4622 3084 
Q 4203 3084 3875 2770 
Q 3547 2456 3450 1953 
L 3066 0 
L 2491 0 
L 2900 2094 
Q 2925 2209 2937 2307 
Q 2950 2406 2950 2484 
Q 2950 2769 2794 2926 
Q 2638 3084 2363 3084 
Q 1938 3084 1609 2770 
Q 1281 2456 1184 1953 
L 800 0 
L 225 0 
L 909 3500 
L 1484 3500 
L 1375 2956 
Q 1609 3263 1923 3423 
Q 2238 3584 2597 3584 
Q 2978 3584 3223 3384 
Q 3469 3184 3519 2828 
Q 3781 3197 4126 3390 
Q 4472 3584 4856 3584 
Q 5306 3584 5551 3325 
Q 5797 3066 5797 2591 
Q 5797 2488 5784 2364 
Q 5772 2241 5747 2113 
z
" transform="scale(0.015625)"/>
      </defs>
      <use xlink:href="#DejaVuSans-Oblique-6b" transform="translate(0 0.015625)"/>
      <use xlink:href="#DejaVuSans-Oblique-67" transform="translate(57.910156 -16.390625) scale(0.7)"/>
      <use xlink:href="#DejaVuSans-Oblique-6d" transform="translate(102.34375 -16.390625) scale(0.7)"/>
     </g>
    </g>
   </g>
   <g id="matplotlib.axis_2">
    <g id="ytick_1">
     <g id="line2d_6">
      <defs>
       <path id="m836fd88e1f" d="M 0 0 
L 3 0 
" style="stroke: #000000; stroke-width: 1.5"/>
      </defs>
      <g>
       <use xlink:href="#m836fd88e1f" x="91.55625" y="280.910438" style="stroke: #000000; stroke-width: 1.5"/>
      </g>
     </g>
     <g id="text_7">
      <!-- 0.010 -->
      <g transform="translate(30.8 288.508875) scale(0.2 -0.2)">
       <use xlink:href="#DejaVuSans-30"/>
       <use xlink:href="#DejaVuSans-2e" transform="translate(63.623047 0)"/>
       <use xlink:href="#DejaVuSans-30" transform="translate(95.410156 0)"/>
       <use xlink:href="#DejaVuSans-31" transform="translate(159.033203 0)"/>
       <use xlink:href="#DejaVuSans-30" transform="translate(222.65625 0)"/>
      </g>
     </g>
    </g>
    <g id="ytick_2">
     <g id="line2d_7">
      <g>
       <use xlink:href="#m836fd88e1f" x="91.55625" y="227.688038" style="stroke: #000000; stroke-width: 1.5"/>
      </g>
     </g>
     <g id="text_8">
      <!-- 0.015 -->
      <g transform="translate(30.8 235.286475) scale(0.2 -0.2)">
       <use xlink:href="#DejaVuSans-30"/>
       <use xlink:href="#DejaVuSans-2e" transform="translate(63.623047 0)"/>
       <use xlink:href="#DejaVuSans-30" transform="translate(95.410156 0)"/>
       <use xlink:href="#DejaVuSans-31" transform="translate(159.033203 0)"/>
       <use xlink:href="#DejaVuSans-35" transform="translate(222.65625 0)"/>
      </g>
     </g>
    </g>
    <g id="ytick_3">
     <g id="line2d_8">
      <g>
       <use xlink:href="#m836fd88e1f" x="91.55625" y="174.465637" style="stroke: #000000; stroke-width: 1.5"/>
      </g>
     </g>
     <g id="text_9">
      <!-- 0.020 -->
      <g transform="translate(30.8 182.064075) scale(0.2 -0.2)">
       <use xlink:href="#DejaVuSans-30"/>
       <use xlink:href="#DejaVuSans-2e" transform="translate(63.623047 0)"/>
       <use xlink:href="#DejaVuSans-30" transform="translate(95.410156 0)"/>
       <use xlink:href="#DejaVuSans-32" transform="translate(159.033203 0)"/>
       <use xlink:href="#DejaVuSans-30" transform="translate(222.65625 0)"/>
      </g>
     </g>
    </g>
    <g id="ytick_4">
     <g id="line2d_9">
      <g>
       <use xlink:href="#m836fd88e1f" x="91.55625" y="121.243237" style="stroke: #000000; stroke-width: 1.5"/>
      </g>
     </g>
     <g id="text_10">
      <!-- 0.025 -->
      <g transform="translate(30.8 128.841675) scale(0.2 -0.2)">
       <use xlink:href="#DejaVuSans-30"/>
       <use xlink:href="#DejaVuSans-2e" transform="translate(63.623047 0)"/>
       <use xlink:href="#DejaVuSans-30" transform="translate(95.410156 0)"/>
       <use xlink:href="#DejaVuSans-32" transform="translate(159.033203 0)"/>
       <use xlink:href="#DejaVuSans-35" transform="translate(222.65625 0)"/>
      </g>
     </g>
    </g>
    <g id="ytick_5">
     <g id="line2d_10">
      <g>
       <use xlink:href="#m836fd88e1f" x="91.55625" y="68.020838" style="stroke: #000000; stroke-width: 1.5"/>
      </g>
     </g>
     <g id="text_11">
      <!-- 0.030 -->
      <g transform="translate(30.8 75.619275) scale(0.2 -0.2)">
       <defs>
        <path id="DejaVuSans-33" d="M 2597 2516 
Q 3050 2419 3304 2112 
Q 3559 1806 3559 1356 
Q 3559 666 3084 287 
Q 2609 -91 1734 -91 
Q 1441 -91 1130 -33 
Q 819 25 488 141 
L 488 750 
Q 750 597 1062 519 
Q 1375 441 1716 441 
Q 2309 441 2620 675 
Q 2931 909 2931 1356 
Q 2931 1769 2642 2001 
Q 2353 2234 1838 2234 
L 1294 2234 
L 1294 2753 
L 1863 2753 
Q 2328 2753 2575 2939 
Q 2822 3125 2822 3475 
Q 2822 3834 2567 4026 
Q 2313 4219 1838 4219 
Q 1578 4219 1281 4162 
Q 984 4106 628 3988 
L 628 4550 
Q 988 4650 1302 4700 
Q 1616 4750 1894 4750 
Q 2613 4750 3031 4423 
Q 3450 4097 3450 3541 
Q 3450 3153 3228 2886 
Q 3006 2619 2597 2516 
z
" transform="scale(0.015625)"/>
       </defs>
       <use xlink:href="#DejaVuSans-30"/>
       <use xlink:href="#DejaVuSans-2e" transform="translate(63.623047 0)"/>
       <use xlink:href="#DejaVuSans-30" transform="translate(95.410156 0)"/>
       <use xlink:href="#DejaVuSans-33" transform="translate(159.033203 0)"/>
       <use xlink:href="#DejaVuSans-30" transform="translate(222.65625 0)"/>
      </g>
     </g>
    </g>
    <g id="ytick_6">
     <g id="line2d_11">
      <g>
       <use xlink:href="#m836fd88e1f" x="91.55625" y="14.798437" style="stroke: #000000; stroke-width: 1.5"/>
      </g>
     </g>
     <g id="text_12">
      <!-- 0.035 -->
      <g transform="translate(30.8 22.396875) scale(0.2 -0.2)">
       <use xlink:href="#DejaVuSans-30"/>
       <use xlink:href="#DejaVuSans-2e" transform="translate(63.623047 0)"/>
       <use xlink:href="#DejaVuSans-30" transform="translate(95.410156 0)"/>
       <use xlink:href="#DejaVuSans-33" transform="translate(159.033203 0)"/>
       <use xlink:href="#DejaVuSans-35" transform="translate(222.65625 0)"/>
      </g>
     </g>
    </g>
    <g id="text_13">
     <!-- $\beta_c$ -->
     <g transform="translate(22.6 158.454438) rotate(-90) scale(0.2 -0.2)">
      <defs>
       <path id="DejaVuSans-Oblique-3b2" d="M 872 216 
L 572 -1331 
L -6 -1331 
L 928 3478 
Q 1206 4903 2538 4903 
Q 3888 4903 3659 3700 
Q 3503 2844 2894 2531 
Q 3713 2250 3553 1416 
Q 3272 -69 1759 -66 
Q 1097 -63 872 216 
z
M 1019 966 
Q 1259 422 1875 425 
Q 2775 425 2966 1406 
Q 3138 2288 1675 2219 
L 1778 2750 
Q 2909 2731 3106 3750 
Q 3241 4438 2509 4434 
Q 1691 4434 1503 3459 
L 1019 966 
z
" transform="scale(0.015625)"/>
       <path id="DejaVuSans-Oblique-63" d="M 3431 3366 
L 3316 2797 
Q 3109 2947 2876 3022 
Q 2644 3097 2394 3097 
Q 2119 3097 1870 3000 
Q 1622 2903 1453 2725 
Q 1184 2453 1037 2087 
Q 891 1722 891 1331 
Q 891 859 1127 628 
Q 1363 397 1844 397 
Q 2081 397 2348 469 
Q 2616 541 2906 684 
L 2797 116 
Q 2547 13 2283 -39 
Q 2019 -91 1741 -91 
Q 1044 -91 669 257 
Q 294 606 294 1253 
Q 294 1797 489 2255 
Q 684 2713 1069 3078 
Q 1331 3328 1684 3456 
Q 2038 3584 2456 3584 
Q 2700 3584 2940 3529 
Q 3181 3475 3431 3366 
z
" transform="scale(0.015625)"/>
      </defs>
      <use xlink:href="#DejaVuSans-Oblique-3b2" transform="translate(0 0.390625)"/>
      <use xlink:href="#DejaVuSans-Oblique-63" transform="translate(63.818359 -16.015625) scale(0.7)"/>
     </g>
    </g>
   </g>
   <g id="line2d_12">
    <path d="M 107.788977 251.502474 
L 121.31625 250.063895 
L 134.843522 248.698328 
L 148.370795 247.394918 
L 161.898067 246.145388 
L 175.425338 244.943184 
L 188.952614 243.783034 
L 202.47988 242.660594 
L 216.007156 241.572316 
L 229.534432 240.515146 
L 243.061698 239.486487 
L 256.588974 238.484119 
L 270.11625 237.506108 
L 283.643516 236.55075 
L 297.170782 235.616546 
L 310.698068 234.70217 
L 324.225354 233.806421 
L 337.75262 232.928248 
L 351.279886 232.066681 
L 364.807153 231.220846 
L 378.334419 230.38996 
L 391.861705 229.573291 
L 405.388971 228.770163 
L 418.916257 227.979982 
L 432.443523 227.202203 
" clip-path="url(#p1bcf9d100f)" style="fill: none; stroke-dasharray: 7.4,3.2; stroke-dashoffset: 0; stroke: #ff0000; stroke-width: 2"/>
    <defs>
     <path id="m4736c9a383" d="M 0 5 
C 1.326016 5 2.597899 4.473168 3.535534 3.535534 
C 4.473168 2.597899 5 1.326016 5 0 
C 5 -1.326016 4.473168 -2.597899 3.535534 -3.535534 
C 2.597899 -4.473168 1.326016 -5 0 -5 
C -1.326016 -5 -2.597899 -4.473168 -3.535534 -3.535534 
C -4.473168 -2.597899 -5 -1.326016 -5 0 
C -5 1.326016 -4.473168 2.597899 -3.535534 3.535534 
C -2.597899 4.473168 -1.326016 5 0 5 
z
" style="stroke: #ff0000"/>
    </defs>
    <g clip-path="url(#p1bcf9d100f)">
     <use xlink:href="#m4736c9a383" x="107.788977" y="251.502474" style="fill: #ff0000; stroke: #ff0000"/>
     <use xlink:href="#m4736c9a383" x="121.31625" y="250.063895" style="fill: #ff0000; stroke: #ff0000"/>
     <use xlink:href="#m4736c9a383" x="134.843522" y="248.698328" style="fill: #ff0000; stroke: #ff0000"/>
     <use xlink:href="#m4736c9a383" x="148.370795" y="247.394918" style="fill: #ff0000; stroke: #ff0000"/>
     <use xlink:href="#m4736c9a383" x="161.898067" y="246.145388" style="fill: #ff0000; stroke: #ff0000"/>
     <use xlink:href="#m4736c9a383" x="175.425338" y="244.943184" style="fill: #ff0000; stroke: #ff0000"/>
     <use xlink:href="#m4736c9a383" x="188.952614" y="243.783034" style="fill: #ff0000; stroke: #ff0000"/>
     <use xlink:href="#m4736c9a383" x="202.47988" y="242.660594" style="fill: #ff0000; stroke: #ff0000"/>
     <use xlink:href="#m4736c9a383" x="216.007156" y="241.572316" style="fill: #ff0000; stroke: #ff0000"/>
     <use xlink:href="#m4736c9a383" x="229.534432" y="240.515146" style="fill: #ff0000; stroke: #ff0000"/>
     <use xlink:href="#m4736c9a383" x="243.061698" y="239.486487" style="fill: #ff0000; stroke: #ff0000"/>
     <use xlink:href="#m4736c9a383" x="256.588974" y="238.484119" style="fill: #ff0000; stroke: #ff0000"/>
     <use xlink:href="#m4736c9a383" x="270.11625" y="237.506108" style="fill: #ff0000; stroke: #ff0000"/>
     <use xlink:href="#m4736c9a383" x="283.643516" y="236.55075" style="fill: #ff0000; stroke: #ff0000"/>
     <use xlink:href="#m4736c9a383" x="297.170782" y="235.616546" style="fill: #ff0000; stroke: #ff0000"/>
     <use xlink:href="#m4736c9a383" x="310.698068" y="234.70217" style="fill: #ff0000; stroke: #ff0000"/>
     <use xlink:href="#m4736c9a383" x="324.225354" y="233.806421" style="fill: #ff0000; stroke: #ff0000"/>
     <use xlink:href="#m4736c9a383" x="337.75262" y="232.928248" style="fill: #ff0000; stroke: #ff0000"/>
     <use xlink:href="#m4736c9a383" x="351.279886" y="232.066681" style="fill: #ff0000; stroke: #ff0000"/>
     <use xlink:href="#m4736c9a383" x="364.807153" y="231.220846" style="fill: #ff0000; stroke: #ff0000"/>
     <use xlink:href="#m4736c9a383" x="378.334419" y="230.38996" style="fill: #ff0000; stroke: #ff0000"/>
     <use xlink:href="#m4736c9a383" x="391.861705" y="229.573291" style="fill: #ff0000; stroke: #ff0000"/>
     <use xlink:href="#m4736c9a383" x="405.388971" y="228.770163" style="fill: #ff0000; stroke: #ff0000"/>
     <use xlink:href="#m4736c9a383" x="418.916257" y="227.979982" style="fill: #ff0000; stroke: #ff0000"/>
     <use xlink:href="#m4736c9a383" x="432.443523" y="227.202203" style="fill: #ff0000; stroke: #ff0000"/>
    </g>
   </g>
   <g id="line2d_13">
    <path d="M 107.788977 199.227662 
L 121.31625 195.344506 
L 134.843522 191.809233 
L 148.370795 188.537856 
L 161.898067 185.476485 
L 175.425338 182.588045 
L 188.952614 179.845629 
L 202.47988 177.228995 
L 216.007156 174.722341 
L 229.534432 172.313176 
L 243.061698 169.991249 
L 256.588974 167.748193 
L 270.11625 165.576891 
L 283.643516 163.471315 
L 297.170782 161.426409 
L 310.698068 159.437594 
L 324.225354 157.500943 
L 337.75262 155.613086 
L 351.279886 153.77099 
L 364.807153 151.971838 
L 378.334419 150.213233 
L 391.861705 148.492993 
L 405.388971 146.809035 
L 418.916257 145.159597 
L 432.443523 143.543031 
" clip-path="url(#p1bcf9d100f)" style="fill: none; stroke-dasharray: 7.4,3.2; stroke-dashoffset: 0; stroke: #008000; stroke-width: 2"/>
    <defs>
     <path id="mf2aff0d969" d="M -5 5 
L 5 5 
L 5 -5 
L -5 -5 
z
" style="stroke: #008000; stroke-linejoin: miter"/>
    </defs>
    <g clip-path="url(#p1bcf9d100f)">
     <use xlink:href="#mf2aff0d969" x="107.788977" y="199.227662" style="fill: #008000; stroke: #008000; stroke-linejoin: miter"/>
     <use xlink:href="#mf2aff0d969" x="121.31625" y="195.344506" style="fill: #008000; stroke: #008000; stroke-linejoin: miter"/>
     <use xlink:href="#mf2aff0d969" x="134.843522" y="191.809233" style="fill: #008000; stroke: #008000; stroke-linejoin: miter"/>
     <use xlink:href="#mf2aff0d969" x="148.370795" y="188.537856" style="fill: #008000; stroke: #008000; stroke-linejoin: miter"/>
     <use xlink:href="#mf2aff0d969" x="161.898067" y="185.476485" style="fill: #008000; stroke: #008000; stroke-linejoin: miter"/>
     <use xlink:href="#mf2aff0d969" x="175.425338" y="182.588045" style="fill: #008000; stroke: #008000; stroke-linejoin: miter"/>
     <use xlink:href="#mf2aff0d969" x="188.952614" y="179.845629" style="fill: #008000; stroke: #008000; stroke-linejoin: miter"/>
     <use xlink:href="#mf2aff0d969" x="202.47988" y="177.228995" style="fill: #008000; stroke: #008000; stroke-linejoin: miter"/>
     <use xlink:href="#mf2aff0d969" x="216.007156" y="174.722341" style="fill: #008000; stroke: #008000; stroke-linejoin: miter"/>
     <use xlink:href="#mf2aff0d969" x="229.534432" y="172.313176" style="fill: #008000; stroke: #008000; stroke-linejoin: miter"/>
     <use xlink:href="#mf2aff0d969" x="243.061698" y="169.991249" style="fill: #008000; stroke: #008000; stroke-linejoin: miter"/>
     <use xlink:href="#mf2aff0d969" x="256.588974" y="167.748193" style="fill: #008000; stroke: #008000; stroke-linejoin: miter"/>
     <use xlink:href="#mf2aff0d969" x="270.11625" y="165.576891" style="fill: #008000; stroke: #008000; stroke-linejoin: miter"/>
     <use xlink:href="#mf2aff0d969" x="283.643516" y="163.471315" style="fill: #008000; stroke: #008000; stroke-linejoin: miter"/>
     <use xlink:href="#mf2aff0d969" x="297.170782" y="161.426409" style="fill: #008000; stroke: #008000; stroke-linejoin: miter"/>
     <use xlink:href="#mf2aff0d969" x="310.698068" y="159.437594" style="fill: #008000; stroke: #008000; stroke-linejoin: miter"/>
     <use xlink:href="#mf2aff0d969" x="324.225354" y="157.500943" style="fill: #008000; stroke: #008000; stroke-linejoin: miter"/>
     <use xlink:href="#mf2aff0d969" x="337.75262" y="155.613086" style="fill: #008000; stroke: #008000; stroke-linejoin: miter"/>
     <use xlink:href="#mf2aff0d969" x="351.279886" y="153.77099" style="fill: #008000; stroke: #008000; stroke-linejoin: miter"/>
     <use xlink:href="#mf2aff0d969" x="364.807153" y="151.971838" style="fill: #008000; stroke: #008000; stroke-linejoin: miter"/>
     <use xlink:href="#mf2aff0d969" x="378.334419" y="150.213233" style="fill: #008000; stroke: #008000; stroke-linejoin: miter"/>
     <use xlink:href="#mf2aff0d969" x="391.861705" y="148.492993" style="fill: #008000; stroke: #008000; stroke-linejoin: miter"/>
     <use xlink:href="#mf2aff0d969" x="405.388971" y="146.809035" style="fill: #008000; stroke: #008000; stroke-linejoin: miter"/>
     <use xlink:href="#mf2aff0d969" x="418.916257" y="145.159597" style="fill: #008000; stroke: #008000; stroke-linejoin: miter"/>
     <use xlink:href="#mf2aff0d969" x="432.443523" y="143.543031" style="fill: #008000; stroke: #008000; stroke-linejoin: miter"/>
    </g>
   </g>
   <g id="line2d_14">
    <path d="M 107.788977 143.445463 
L 121.31625 136.300249 
L 134.843522 129.996944 
L 148.370795 124.282696 
L 161.898067 119.013759 
L 175.425338 114.098753 
L 188.952614 109.475103 
L 202.47988 105.097583 
L 216.007156 100.932231 
L 229.534432 96.952578 
L 243.061698 93.137627 
L 256.588974 89.470267 
L 270.11625 85.936422 
L 283.643516 82.524154 
L 297.170782 79.223473 
L 310.698068 76.025594 
L 324.225354 72.923063 
L 337.75262 69.909217 
L 351.279886 66.978287 
L 364.807153 64.125139 
L 378.334419 61.345032 
L 391.861705 58.633923 
L 405.388971 55.988005 
L 418.916257 53.403927 
L 432.443523 50.878497 
" clip-path="url(#p1bcf9d100f)" style="fill: none; stroke-dasharray: 7.4,3.2; stroke-dashoffset: 0; stroke: #0000ff; stroke-width: 2"/>
    <defs>
     <path id="m69e4b0e73a" d="M 0 -5 
L -4.330127 -2.5 
L -4.330127 2.5 
L -0 5 
L 4.330127 2.5 
L 4.330127 -2.5 
z
" style="stroke: #0000ff; stroke-linejoin: miter"/>
    </defs>
    <g clip-path="url(#p1bcf9d100f)">
     <use xlink:href="#m69e4b0e73a" x="107.788977" y="143.445463" style="fill: #0000ff; stroke: #0000ff; stroke-linejoin: miter"/>
     <use xlink:href="#m69e4b0e73a" x="121.31625" y="136.300249" style="fill: #0000ff; stroke: #0000ff; stroke-linejoin: miter"/>
     <use xlink:href="#m69e4b0e73a" x="134.843522" y="129.996944" style="fill: #0000ff; stroke: #0000ff; stroke-linejoin: miter"/>
     <use xlink:href="#m69e4b0e73a" x="148.370795" y="124.282696" style="fill: #0000ff; stroke: #0000ff; stroke-linejoin: miter"/>
     <use xlink:href="#m69e4b0e73a" x="161.898067" y="119.013759" style="fill: #0000ff; stroke: #0000ff; stroke-linejoin: miter"/>
     <use xlink:href="#m69e4b0e73a" x="175.425338" y="114.098753" style="fill: #0000ff; stroke: #0000ff; stroke-linejoin: miter"/>
     <use xlink:href="#m69e4b0e73a" x="188.952614" y="109.475103" style="fill: #0000ff; stroke: #0000ff; stroke-linejoin: miter"/>
     <use xlink:href="#m69e4b0e73a" x="202.47988" y="105.097583" style="fill: #0000ff; stroke: #0000ff; stroke-linejoin: miter"/>
     <use xlink:href="#m69e4b0e73a" x="216.007156" y="100.932231" style="fill: #0000ff; stroke: #0000ff; stroke-linejoin: miter"/>
     <use xlink:href="#m69e4b0e73a" x="229.534432" y="96.952578" style="fill: #0000ff; stroke: #0000ff; stroke-linejoin: miter"/>
     <use xlink:href="#m69e4b0e73a" x="243.061698" y="93.137627" style="fill: #0000ff; stroke: #0000ff; stroke-linejoin: miter"/>
     <use xlink:href="#m69e4b0e73a" x="256.588974" y="89.470267" style="fill: #0000ff; stroke: #0000ff; stroke-linejoin: miter"/>
     <use xlink:href="#m69e4b0e73a" x="270.11625" y="85.936422" style="fill: #0000ff; stroke: #0000ff; stroke-linejoin: miter"/>
     <use xlink:href="#m69e4b0e73a" x="283.643516" y="82.524154" style="fill: #0000ff; stroke: #0000ff; stroke-linejoin: miter"/>
     <use xlink:href="#m69e4b0e73a" x="297.170782" y="79.223473" style="fill: #0000ff; stroke: #0000ff; stroke-linejoin: miter"/>
     <use xlink:href="#m69e4b0e73a" x="310.698068" y="76.025594" style="fill: #0000ff; stroke: #0000ff; stroke-linejoin: miter"/>
     <use xlink:href="#m69e4b0e73a" x="324.225354" y="72.923063" style="fill: #0000ff; stroke: #0000ff; stroke-linejoin: miter"/>
     <use xlink:href="#m69e4b0e73a" x="337.75262" y="69.909217" style="fill: #0000ff; stroke: #0000ff; stroke-linejoin: miter"/>
     <use xlink:href="#m69e4b0e73a" x="351.279886" y="66.978287" style="fill: #0000ff; stroke: #0000ff; stroke-linejoin: miter"/>
     <use xlink:href="#m69e4b0e73a" x="364.807153" y="64.125139" style="fill: #0000ff; stroke: #0000ff; stroke-linejoin: miter"/>
     <use xlink:href="#m69e4b0e73a" x="378.334419" y="61.345032" style="fill: #0000ff; stroke: #0000ff; stroke-linejoin: miter"/>
     <use xlink:href="#m69e4b0e73a" x="391.861705" y="58.633923" style="fill: #0000ff; stroke: #0000ff; stroke-linejoin: miter"/>
     <use xlink:href="#m69e4b0e73a" x="405.388971" y="55.988005" style="fill: #0000ff; stroke: #0000ff; stroke-linejoin: miter"/>
     <use xlink:href="#m69e4b0e73a" x="418.916257" y="53.403927" style="fill: #0000ff; stroke: #0000ff; stroke-linejoin: miter"/>
     <use xlink:href="#m69e4b0e73a" x="432.443523" y="50.878497" style="fill: #0000ff; stroke: #0000ff; stroke-linejoin: miter"/>
    </g>
   </g>
   <g id="patch_3">
    <path d="M 91.55625 280.910438 
L 91.55625 14.798437 
" style="fill: none; stroke: #000000; stroke-width: 0.8; stroke-linejoin: miter; stroke-linecap: square"/>
   </g>
   <g id="patch_4">
    <path d="M 448.67625 280.910438 
L 448.67625 14.798437 
" style="fill: none; stroke: #000000; stroke-width: 0.8; stroke-linejoin: miter; stroke-linecap: square"/>
   </g>
   <g id="patch_5">
    <path d="M 91.55625 280.910438 
L 448.67625 280.910438 
" style="fill: none; stroke: #000000; stroke-width: 0.8; stroke-linejoin: miter; stroke-linecap: square"/>
   </g>
   <g id="patch_6">
    <path d="M 91.55625 14.798438 
L 448.67625 14.798438 
" style="fill: none; stroke: #000000; stroke-width: 0.8; stroke-linejoin: miter; stroke-linecap: square"/>
   </g>
   <g id="legend_1">
    <g id="patch_7">
     <path d="M 102.05625 118.823438 
L 199.40625 118.823438 
Q 202.40625 118.823438 202.40625 115.823438 
L 202.40625 25.298437 
Q 202.40625 22.298437 199.40625 22.298437 
L 102.05625 22.298437 
Q 99.05625 22.298437 99.05625 25.298437 
L 99.05625 115.823438 
Q 99.05625 118.823438 102.05625 118.823438 
z
" style="fill: #ffffff; opacity: 0.8; stroke: #cccccc; stroke-linejoin: miter"/>
    </g>
    <g id="line2d_15">
     <path d="M 105.05625 36.473438 
L 120.05625 36.473438 
L 135.05625 36.473438 
" style="fill: none; stroke-dasharray: 7.4,3.2; stroke-dashoffset: 0; stroke: #ff0000; stroke-width: 2"/>
     <g>
      <use xlink:href="#m4736c9a383" x="120.05625" y="36.473438" style="fill: #ff0000; stroke: #ff0000"/>
     </g>
    </g>
    <g id="text_14">
     <!-- $g_l$=0.1 -->
     <g transform="translate(147.05625 44.648438) scale(0.15 -0.15)">
      <defs>
       <path id="DejaVuSans-Oblique-6c" d="M 1172 4863 
L 1747 4863 
L 800 0 
L 225 0 
L 1172 4863 
z
" transform="scale(0.015625)"/>
       <path id="DejaVuSans-3d" d="M 678 2906 
L 4684 2906 
L 4684 2381 
L 678 2381 
L 678 2906 
z
M 678 1631 
L 4684 1631 
L 4684 1100 
L 678 1100 
L 678 1631 
z
" transform="scale(0.015625)"/>
      </defs>
      <use xlink:href="#DejaVuSans-Oblique-67" transform="translate(0 0.78125)"/>
      <use xlink:href="#DejaVuSans-Oblique-6c" transform="translate(63.476562 -15.625) scale(0.7)"/>
      <use xlink:href="#DejaVuSans-3d" transform="translate(85.65918 0.78125)"/>
      <use xlink:href="#DejaVuSans-30" transform="translate(169.448242 0.78125)"/>
      <use xlink:href="#DejaVuSans-2e" transform="translate(233.071289 0.78125)"/>
      <use xlink:href="#DejaVuSans-31" transform="translate(264.858398 0.78125)"/>
     </g>
    </g>
    <g id="line2d_16">
     <path d="M 105.05625 67.148438 
L 120.05625 67.148438 
L 135.05625 67.148438 
" style="fill: none; stroke-dasharray: 7.4,3.2; stroke-dashoffset: 0; stroke: #008000; stroke-width: 2"/>
     <g>
      <use xlink:href="#mf2aff0d969" x="120.05625" y="67.148438" style="fill: #008000; stroke: #008000; stroke-linejoin: miter"/>
     </g>
    </g>
    <g id="text_15">
     <!-- $g_l$=0.2 -->
     <g transform="translate(147.05625 75.323438) scale(0.15 -0.15)">
      <use xlink:href="#DejaVuSans-Oblique-67" transform="translate(0 0.78125)"/>
      <use xlink:href="#DejaVuSans-Oblique-6c" transform="translate(63.476562 -15.625) scale(0.7)"/>
      <use xlink:href="#DejaVuSans-3d" transform="translate(85.65918 0.78125)"/>
      <use xlink:href="#DejaVuSans-30" transform="translate(169.448242 0.78125)"/>
      <use xlink:href="#DejaVuSans-2e" transform="translate(233.071289 0.78125)"/>
      <use xlink:href="#DejaVuSans-32" transform="translate(259.358398 0.78125)"/>
     </g>
    </g>
    <g id="line2d_17">
     <path d="M 105.05625 97.823438 
L 120.05625 97.823438 
L 135.05625 97.823438 
" style="fill: none; stroke-dasharray: 7.4,3.2; stroke-dashoffset: 0; stroke: #0000ff; stroke-width: 2"/>
     <g>
      <use xlink:href="#m69e4b0e73a" x="120.05625" y="97.823438" style="fill: #0000ff; stroke: #0000ff; stroke-linejoin: miter"/>
     </g>
    </g>
    <g id="text_16">
     <!-- $g_l$=0.3 -->
     <g transform="translate(147.05625 105.998438) scale(0.15 -0.15)">
      <use xlink:href="#DejaVuSans-Oblique-67" transform="translate(0 0.78125)"/>
      <use xlink:href="#DejaVuSans-Oblique-6c" transform="translate(63.476562 -15.625) scale(0.7)"/>
      <use xlink:href="#DejaVuSans-3d" transform="translate(85.65918 0.78125)"/>
      <use xlink:href="#DejaVuSans-30" transform="translate(169.448242 0.78125)"/>
      <use xlink:href="#DejaVuSans-2e" transform="translate(233.071289 0.78125)"/>
      <use xlink:href="#DejaVuSans-33" transform="translate(264.858398 0.78125)"/>
     </g>
    </g>
   </g>
  </g>
 </g>
 <defs>
  <clipPath id="p1bcf9d100f">
   <rect x="91.55625" y="14.798438" width="357.12" height="266.112"/>
  </clipPath>
 </defs>
</svg>
